%TF.GenerationSoftware,KiCad,Pcbnew,(6.0.11)*%
%TF.CreationDate,2023-02-12T14:57:39+08:00*%
%TF.ProjectId,UINIO-MCU-ESP32C3,55494e49-4f2d-44d4-9355-2d4553503332,Version 3.2.0*%
%TF.SameCoordinates,PX735b400PY5c274f0*%
%TF.FileFunction,Soldermask,Bot*%
%TF.FilePolarity,Negative*%
%FSLAX46Y46*%
G04 Gerber Fmt 4.6, Leading zero omitted, Abs format (unit mm)*
G04 Created by KiCad (PCBNEW (6.0.11)) date 2023-02-12 14:57:39*
%MOMM*%
%LPD*%
G01*
G04 APERTURE LIST*
G04 Aperture macros list*
%AMRoundRect*
0 Rectangle with rounded corners*
0 $1 Rounding radius*
0 $2 $3 $4 $5 $6 $7 $8 $9 X,Y pos of 4 corners*
0 Add a 4 corners polygon primitive as box body*
4,1,4,$2,$3,$4,$5,$6,$7,$8,$9,$2,$3,0*
0 Add four circle primitives for the rounded corners*
1,1,$1+$1,$2,$3*
1,1,$1+$1,$4,$5*
1,1,$1+$1,$6,$7*
1,1,$1+$1,$8,$9*
0 Add four rect primitives between the rounded corners*
20,1,$1+$1,$2,$3,$4,$5,0*
20,1,$1+$1,$4,$5,$6,$7,0*
20,1,$1+$1,$6,$7,$8,$9,0*
20,1,$1+$1,$8,$9,$2,$3,0*%
G04 Aperture macros list end*
%ADD10C,1.200000*%
%ADD11C,0.610000*%
%ADD12R,1.700000X1.700000*%
%ADD13O,1.700000X1.700000*%
%ADD14C,0.650000*%
%ADD15O,2.100000X1.000000*%
%ADD16O,1.900000X1.000000*%
%ADD17O,0.630000X2.250000*%
%ADD18RoundRect,0.140000X0.170000X-0.140000X0.170000X0.140000X-0.170000X0.140000X-0.170000X-0.140000X0*%
G04 APERTURE END LIST*
D10*
%TO.C,HOLE2*%
X14660000Y2470000D03*
%TD*%
D11*
%TO.C,U3*%
X43199558Y-6350000D03*
X42351030Y-5501472D03*
X41502502Y-6350000D03*
X42351030Y-7198528D03*
%TD*%
D12*
%TO.C,J3*%
X52780000Y-15090000D03*
D13*
X50240000Y-15090000D03*
X47700000Y-15090000D03*
X45160000Y-15090000D03*
X42620000Y-15090000D03*
X40080000Y-15090000D03*
X37540000Y-15090000D03*
X35000000Y-15090000D03*
X32460000Y-15090000D03*
X29920000Y-15090000D03*
X27380000Y-15090000D03*
X24840000Y-15090000D03*
X22300000Y-15090000D03*
X19760000Y-15090000D03*
X17220000Y-15090000D03*
%TD*%
D10*
%TO.C,HOLE1*%
X1910000Y1590000D03*
%TD*%
D12*
%TO.C,J2*%
X12150000Y2480000D03*
D13*
X9610000Y2480000D03*
X7070000Y2480000D03*
X4530000Y2480000D03*
%TD*%
D10*
%TO.C,HOLE3*%
X55140000Y2420000D03*
%TD*%
D14*
%TO.C,USB1*%
X5749000Y-3460000D03*
X5749000Y-9240000D03*
D15*
X6249000Y-2025000D03*
X6249000Y-10675000D03*
D16*
X2049000Y-2025000D03*
X2049000Y-10675000D03*
%TD*%
D10*
%TO.C,HOLE4*%
X55140000Y-15070000D03*
%TD*%
%TO.C,HOLE5*%
X1910000Y-14210000D03*
%TD*%
D12*
%TO.C,J1*%
X52780000Y2470000D03*
D13*
X50240000Y2470000D03*
X47700000Y2470000D03*
X45160000Y2470000D03*
X42620000Y2470000D03*
X40080000Y2470000D03*
X37540000Y2470000D03*
X35000000Y2470000D03*
X32460000Y2470000D03*
X29920000Y2470000D03*
X27380000Y2470000D03*
X24840000Y2470000D03*
X22300000Y2470000D03*
X19760000Y2470000D03*
X17220000Y2470000D03*
%TD*%
D17*
%TO.C,U2*%
X26708500Y-2795000D03*
X27978500Y-2795000D03*
X29248500Y-2795000D03*
X30518500Y-2795000D03*
X30518500Y-9855000D03*
X29248500Y-9855000D03*
X27978500Y-9855000D03*
X26708500Y-9855000D03*
%TD*%
D18*
%TO.C,C1*%
X25220000Y-6805000D03*
X25220000Y-5845000D03*
%TD*%
M02*
