M48
; DRILL file {KiCad (6.0.11)} date Fri Feb  3 19:37:45 2023
; FORMAT={-:-/ absolute / metric / decimal}
; #@! TF.CreationDate,2023-02-03T19:37:45+08:00
; #@! TF.GenerationSoftware,Kicad,Pcbnew,(6.0.11)
; #@! TF.FileFunction,MixedPlating,1,2
FMAT,2
METRIC
; #@! TA.AperFunction,Plated,PTH,ViaDrill
T1C0.300
; #@! TA.AperFunction,Plated,PTH,ComponentDrill
T2C0.300
; #@! TA.AperFunction,Plated,PTH,ComponentDrill
T3C0.304
; #@! TA.AperFunction,Plated,PTH,ViaDrill
T4C0.400
; #@! TA.AperFunction,Plated,PTH,ViaDrill
T5C0.500
; #@! TA.AperFunction,Plated,PTH,ComponentDrill
T6C0.600
; #@! TA.AperFunction,Plated,PTH,ComponentDrill
T7C1.000
; #@! TA.AperFunction,Plated,PTH,ComponentDrill
T8C1.200
; #@! TA.AperFunction,NonPlated,NPTH,ComponentDrill
T9C0.650
%
G90
G05
T1
X6.07Y-5.6
X6.07Y-6.6
X7.15Y-12.23
X8.45Y-11.62
X9.41Y-5.11
X10.27Y-8.77
X10.66Y-0.131
X10.66Y-1.029
X10.67Y-4.51
X10.68Y-5.42
X11.14Y0.49
X11.3Y-10.99
X11.46Y-6.005
X12.55Y-8.09
X12.57Y-9.01
X12.73Y-3.33
X14.33Y-11.45
X14.93Y-14.91
X15.13Y-8.81
X15.8Y-12.01
X15.96Y-4.14
X16.13Y-9.57
X16.16Y0.49
X17.22Y-1.23
X17.37Y-2.68
X17.43Y-10.05
X18.21Y-7.33
X18.57Y-12.01
X19.21Y-5.59
X20.01Y-9.1
X20.19Y-7.31
X21.02Y-1.7
X21.03Y-5.57
X22.22Y-6.41
X23.502Y-2.408
X24.18Y-1.2
X26.63Y-5.84
X30.12Y-11.45
X30.518Y-6.11
X31.519Y-1.21
X31.687Y-4.073
X31.91Y-10.9
X32.23Y-7.94
X32.645Y-3.115
X33.8Y-0.95
X34.39Y-4.895
X34.5Y-11.45
X36.75Y-6.6
X37.31Y-9.23
X37.315Y-4.92
X38.233Y-5.737
X38.44Y-0.95
X39.17Y-12.81
X40.549Y-3.417
X40.71Y-1.14
X40.72Y-2.61
X40.73Y-6.35
X41.03Y0.08
X41.72Y-1.85
X42.35Y-7.97
X42.36Y-4.74
X42.95Y-2.32
X43.515Y0.08
X43.73Y-11.45
X43.97Y-6.35
X44.089Y-3.551
X44.135Y-9.195
X44.95Y-9.24
X45.009Y-3.339
X45.166Y-4.596
X45.877Y-3.107
X45.94Y-7.61
X46.07Y0.42
X46.076Y-11.454
X46.54Y-6.34
X46.871Y-12.249
X47.2Y-2.89
X47.84Y-2.25
X48.42Y-1.67
X48.44Y0.405
X48.84Y-0.97
X48.84Y-4.97
X48.84Y-12.17
X49.64Y-0.97
X49.64Y-4.17
X49.64Y-4.97
X49.64Y-5.77
X49.64Y-12.17
X50.44Y-0.97
X50.44Y-4.17
X50.44Y-4.97
X50.44Y-5.77
X50.44Y-12.17
X51.24Y-0.17
X51.24Y-0.97
X51.24Y-2.57
X51.24Y-3.37
X51.24Y-4.17
X51.24Y-4.97
X51.24Y-5.77
X51.24Y-6.57
X51.24Y-7.37
X51.24Y-12.17
X51.24Y-12.97
X52.04Y0.68
X52.04Y-0.17
X52.04Y-0.97
X52.04Y-2.57
X52.04Y-3.37
X52.04Y-4.17
X52.04Y-4.97
X52.04Y-5.77
X52.04Y-6.57
X52.04Y-7.37
X52.04Y-12.17
X52.04Y-12.97
X52.04Y-13.77
X52.84Y0.68
X52.84Y-0.17
X52.84Y-0.97
X52.84Y-2.57
X52.84Y-3.37
X52.84Y-4.17
X52.84Y-4.97
X52.84Y-5.77
X52.84Y-6.57
X52.84Y-7.37
X52.84Y-8.17
X52.84Y-8.97
X52.84Y-9.77
X52.84Y-10.57
X52.84Y-11.37
X52.84Y-12.17
X52.84Y-12.97
X52.84Y-13.77
X53.64Y0.68
X53.64Y-0.17
X53.64Y-0.97
X53.64Y-2.57
X53.64Y-3.37
X53.64Y-4.17
X53.64Y-4.97
X53.64Y-5.77
X53.64Y-6.57
X53.64Y-7.37
X53.64Y-8.17
X53.64Y-8.97
X53.64Y-9.77
X53.64Y-10.57
X53.64Y-11.37
X53.64Y-12.17
X53.64Y-12.97
X53.64Y-13.77
T2
X54.53Y0.3
T3
X41.503Y-6.35
X42.351Y-5.501
X42.351Y-7.199
X43.2Y-6.35
T4
X8.66Y-3.89
X8.66Y-8.74
T5
X14.93Y-12.99
T7
X4.53Y2.48
X7.07Y2.48
X9.61Y2.48
X12.15Y2.48
X17.22Y2.47
X17.22Y-15.09
X19.76Y2.47
X19.76Y-15.09
X22.3Y2.47
X22.3Y-15.09
X24.84Y2.47
X24.84Y-15.09
X27.38Y2.47
X27.38Y-15.09
X29.92Y2.47
X29.92Y-15.09
X32.46Y2.47
X32.46Y-15.09
X35.0Y2.47
X35.0Y-15.09
X37.54Y2.47
X37.54Y-15.09
X40.08Y2.47
X40.08Y-15.09
X42.62Y2.47
X42.62Y-15.09
X45.16Y2.47
X45.16Y-15.09
X47.7Y2.47
X47.7Y-15.09
X50.24Y2.47
X50.24Y-15.09
X52.78Y2.47
X52.78Y-15.09
T8
X1.91Y1.59
X1.91Y-14.21
X14.66Y2.47
X55.14Y2.42
X55.14Y-15.07
T9
X5.749Y-3.46
X5.749Y-9.24
T6
G00X2.499Y-2.025
M15
G01X1.599Y-2.025
M16
G05
G00X2.499Y-10.675
M15
G01X1.599Y-10.675
M16
G05
G00X6.849Y-2.025
M15
G01X5.649Y-2.025
M16
G05
G00X6.849Y-10.675
M15
G01X5.649Y-10.675
M16
G05
T0
M30
