%TF.GenerationSoftware,KiCad,Pcbnew,8.0.6*%
%TF.CreationDate,2024-11-23T01:57:25+08:00*%
%TF.ProjectId,UINIO-MCU-ESP32C3,55494e49-4f2d-44d4-9355-2d4553503332,Version 5.0.0*%
%TF.SameCoordinates,PX7367750PY5b66700*%
%TF.FileFunction,Paste,Top*%
%TF.FilePolarity,Positive*%
%FSLAX46Y46*%
G04 Gerber Fmt 4.6, Leading zero omitted, Abs format (unit mm)*
G04 Created by KiCad (PCBNEW 8.0.6) date 2024-11-23 01:57:25*
%MOMM*%
%LPD*%
G01*
G04 APERTURE LIST*
G04 Aperture macros list*
%AMRoundRect*
0 Rectangle with rounded corners*
0 $1 Rounding radius*
0 $2 $3 $4 $5 $6 $7 $8 $9 X,Y pos of 4 corners*
0 Add a 4 corners polygon primitive as box body*
4,1,4,$2,$3,$4,$5,$6,$7,$8,$9,$2,$3,0*
0 Add four circle primitives for the rounded corners*
1,1,$1+$1,$2,$3*
1,1,$1+$1,$4,$5*
1,1,$1+$1,$6,$7*
1,1,$1+$1,$8,$9*
0 Add four rect primitives between the rounded corners*
20,1,$1+$1,$2,$3,$4,$5,0*
20,1,$1+$1,$4,$5,$6,$7,0*
20,1,$1+$1,$6,$7,$8,$9,0*
20,1,$1+$1,$8,$9,$2,$3,0*%
%AMRotRect*
0 Rectangle, with rotation*
0 The origin of the aperture is its center*
0 $1 length*
0 $2 width*
0 $3 Rotation angle, in degrees counterclockwise*
0 Add horizontal line*
21,1,$1,$2,0,0,$3*%
G04 Aperture macros list end*
%ADD10C,0.120000*%
%ADD11R,1.070000X0.532000*%
%ADD12RoundRect,0.200000X-0.200000X-0.275000X0.200000X-0.275000X0.200000X0.275000X-0.200000X0.275000X0*%
%ADD13RoundRect,0.147500X0.017678X-0.226274X0.226274X-0.017678X-0.017678X0.226274X-0.226274X0.017678X0*%
%ADD14RotRect,0.650000X0.280000X225.000000*%
%ADD15RotRect,0.280000X0.650000X225.000000*%
%ADD16RotRect,3.800000X3.800000X225.000000*%
%ADD17RoundRect,0.135000X-0.185000X0.135000X-0.185000X-0.135000X0.185000X-0.135000X0.185000X0.135000X0*%
%ADD18RoundRect,0.140000X-0.219203X-0.021213X-0.021213X-0.219203X0.219203X0.021213X0.021213X0.219203X0*%
%ADD19RoundRect,0.150000X0.200000X-0.150000X0.200000X0.150000X-0.200000X0.150000X-0.200000X-0.150000X0*%
%ADD20R,1.200000X1.200000*%
%ADD21RoundRect,0.135000X0.135000X0.185000X-0.135000X0.185000X-0.135000X-0.185000X0.135000X-0.185000X0*%
%ADD22RoundRect,0.140000X0.170000X-0.140000X0.170000X0.140000X-0.170000X0.140000X-0.170000X-0.140000X0*%
%ADD23R,1.200000X0.650000*%
%ADD24RoundRect,0.140000X-0.140000X-0.170000X0.140000X-0.170000X0.140000X0.170000X-0.140000X0.170000X0*%
%ADD25R,1.200000X1.400000*%
%ADD26RoundRect,0.140000X0.140000X0.170000X-0.140000X0.170000X-0.140000X-0.170000X0.140000X-0.170000X0*%
%ADD27RoundRect,0.250000X0.625000X-0.375000X0.625000X0.375000X-0.625000X0.375000X-0.625000X-0.375000X0*%
%ADD28RoundRect,0.140000X-0.170000X0.140000X-0.170000X-0.140000X0.170000X-0.140000X0.170000X0.140000X0*%
%ADD29RoundRect,0.135000X0.185000X-0.135000X0.185000X0.135000X-0.185000X0.135000X-0.185000X-0.135000X0*%
%ADD30RoundRect,0.150000X-0.200000X0.150000X-0.200000X-0.150000X0.200000X-0.150000X0.200000X0.150000X0*%
%ADD31RoundRect,0.225000X0.250000X-0.225000X0.250000X0.225000X-0.250000X0.225000X-0.250000X-0.225000X0*%
%ADD32R,1.150000X0.600000*%
%ADD33R,1.150000X0.300000*%
%ADD34RoundRect,0.218750X-0.218750X-0.256250X0.218750X-0.256250X0.218750X0.256250X-0.218750X0.256250X0*%
%ADD35R,1.000000X0.600000*%
%ADD36R,0.750000X0.250000*%
%ADD37R,0.250000X0.750000*%
%ADD38R,1.700000X1.700000*%
%ADD39RoundRect,0.225000X-0.250000X0.225000X-0.250000X-0.225000X0.250000X-0.225000X0.250000X0.225000X0*%
%ADD40O,0.630000X2.250000*%
G04 APERTURE END LIST*
D10*
%TO.C,U3*%
X46727927Y-12291522D02*
X46529937Y-12489512D01*
X46070318Y-12029893D01*
X46268308Y-11831903D01*
X46727927Y-12291522D01*
G36*
X46727927Y-12291522D02*
G01*
X46529937Y-12489512D01*
X46070318Y-12029893D01*
X46268308Y-11831903D01*
X46727927Y-12291522D01*
G37*
X46727927Y-13058026D02*
X46268308Y-13517645D01*
X46070318Y-13319655D01*
X46529937Y-12860036D01*
X46727927Y-13058026D01*
G36*
X46727927Y-13058026D02*
G01*
X46268308Y-13517645D01*
X46070318Y-13319655D01*
X46529937Y-12860036D01*
X46727927Y-13058026D01*
G37*
X47081481Y-11937969D02*
X46883491Y-12135959D01*
X46423871Y-11676339D01*
X46621861Y-11478349D01*
X47081481Y-11937969D01*
G36*
X47081481Y-11937969D02*
G01*
X46883491Y-12135959D01*
X46423871Y-11676339D01*
X46621861Y-11478349D01*
X47081481Y-11937969D01*
G37*
X47081481Y-13411579D02*
X46621861Y-13871199D01*
X46423871Y-13673209D01*
X46883491Y-13213589D01*
X47081481Y-13411579D01*
G36*
X47081481Y-13411579D02*
G01*
X46621861Y-13871199D01*
X46423871Y-13673209D01*
X46883491Y-13213589D01*
X47081481Y-13411579D01*
G37*
X47435034Y-11584415D02*
X47237044Y-11782405D01*
X46777425Y-11322786D01*
X46975415Y-11124796D01*
X47435034Y-11584415D01*
G36*
X47435034Y-11584415D02*
G01*
X47237044Y-11782405D01*
X46777425Y-11322786D01*
X46975415Y-11124796D01*
X47435034Y-11584415D01*
G37*
X47435034Y-13765133D02*
X46975415Y-14224752D01*
X46777425Y-14026762D01*
X47237044Y-13567143D01*
X47435034Y-13765133D01*
G36*
X47435034Y-13765133D02*
G01*
X46975415Y-14224752D01*
X46777425Y-14026762D01*
X47237044Y-13567143D01*
X47435034Y-13765133D01*
G37*
X47788587Y-11230862D02*
X47590598Y-11428852D01*
X47130978Y-10969232D01*
X47328968Y-10771243D01*
X47788587Y-11230862D01*
G36*
X47788587Y-11230862D02*
G01*
X47590598Y-11428852D01*
X47130978Y-10969232D01*
X47328968Y-10771243D01*
X47788587Y-11230862D01*
G37*
X47788587Y-14118686D02*
X47328968Y-14578305D01*
X47130978Y-14380316D01*
X47590598Y-13920696D01*
X47788587Y-14118686D01*
G36*
X47788587Y-14118686D02*
G01*
X47328968Y-14578305D01*
X47130978Y-14380316D01*
X47590598Y-13920696D01*
X47788587Y-14118686D01*
G37*
X48142141Y-10877309D02*
X47944151Y-11075298D01*
X47484532Y-10615679D01*
X47682521Y-10417689D01*
X48142141Y-10877309D01*
G36*
X48142141Y-10877309D02*
G01*
X47944151Y-11075298D01*
X47484532Y-10615679D01*
X47682521Y-10417689D01*
X48142141Y-10877309D01*
G37*
X48142141Y-14472239D02*
X47682521Y-14931859D01*
X47484532Y-14733869D01*
X47944151Y-14274250D01*
X48142141Y-14472239D01*
G36*
X48142141Y-14472239D02*
G01*
X47682521Y-14931859D01*
X47484532Y-14733869D01*
X47944151Y-14274250D01*
X48142141Y-14472239D01*
G37*
X48495694Y-10523755D02*
X48297704Y-10721745D01*
X47838085Y-10262126D01*
X48036075Y-10064136D01*
X48495694Y-10523755D01*
G36*
X48495694Y-10523755D02*
G01*
X48297704Y-10721745D01*
X47838085Y-10262126D01*
X48036075Y-10064136D01*
X48495694Y-10523755D01*
G37*
X48495694Y-14825793D02*
X48036075Y-15285412D01*
X47838085Y-15087422D01*
X48297704Y-14627803D01*
X48495694Y-14825793D01*
G36*
X48495694Y-14825793D02*
G01*
X48036075Y-15285412D01*
X47838085Y-15087422D01*
X48297704Y-14627803D01*
X48495694Y-14825793D01*
G37*
X48849248Y-10170202D02*
X48651258Y-10368192D01*
X48191638Y-9908572D01*
X48389628Y-9710582D01*
X48849248Y-10170202D01*
G36*
X48849248Y-10170202D02*
G01*
X48651258Y-10368192D01*
X48191638Y-9908572D01*
X48389628Y-9710582D01*
X48849248Y-10170202D01*
G37*
X48849248Y-15179346D02*
X48389628Y-15638966D01*
X48191638Y-15440976D01*
X48651258Y-14981356D01*
X48849248Y-15179346D01*
G36*
X48849248Y-15179346D02*
G01*
X48389628Y-15638966D01*
X48191638Y-15440976D01*
X48651258Y-14981356D01*
X48849248Y-15179346D01*
G37*
X49202801Y-9816648D02*
X49004811Y-10014638D01*
X48545192Y-9555019D01*
X48743182Y-9357029D01*
X49202801Y-9816648D01*
G36*
X49202801Y-9816648D02*
G01*
X49004811Y-10014638D01*
X48545192Y-9555019D01*
X48743182Y-9357029D01*
X49202801Y-9816648D01*
G37*
X49202801Y-15532900D02*
X48743182Y-15992519D01*
X48545192Y-15794529D01*
X49004811Y-15334910D01*
X49202801Y-15532900D01*
G36*
X49202801Y-15532900D02*
G01*
X48743182Y-15992519D01*
X48545192Y-15794529D01*
X49004811Y-15334910D01*
X49202801Y-15532900D01*
G37*
X50230934Y-9555019D02*
X49771315Y-10014638D01*
X49573325Y-9816648D01*
X50032944Y-9357029D01*
X50230934Y-9555019D01*
G36*
X50230934Y-9555019D02*
G01*
X49771315Y-10014638D01*
X49573325Y-9816648D01*
X50032944Y-9357029D01*
X50230934Y-9555019D01*
G37*
X50230934Y-15794529D02*
X50032944Y-15992519D01*
X49573325Y-15532900D01*
X49771315Y-15334910D01*
X50230934Y-15794529D01*
G36*
X50230934Y-15794529D02*
G01*
X50032944Y-15992519D01*
X49573325Y-15532900D01*
X49771315Y-15334910D01*
X50230934Y-15794529D01*
G37*
X50584488Y-9908572D02*
X50124868Y-10368192D01*
X49926878Y-10170202D01*
X50386498Y-9710582D01*
X50584488Y-9908572D01*
G36*
X50584488Y-9908572D02*
G01*
X50124868Y-10368192D01*
X49926878Y-10170202D01*
X50386498Y-9710582D01*
X50584488Y-9908572D01*
G37*
X50584488Y-15440976D02*
X50386498Y-15638966D01*
X49926878Y-15179346D01*
X50124868Y-14981356D01*
X50584488Y-15440976D01*
G36*
X50584488Y-15440976D02*
G01*
X50386498Y-15638966D01*
X49926878Y-15179346D01*
X50124868Y-14981356D01*
X50584488Y-15440976D01*
G37*
X50938041Y-10262126D02*
X50478422Y-10721745D01*
X50280432Y-10523755D01*
X50740051Y-10064136D01*
X50938041Y-10262126D01*
G36*
X50938041Y-10262126D02*
G01*
X50478422Y-10721745D01*
X50280432Y-10523755D01*
X50740051Y-10064136D01*
X50938041Y-10262126D01*
G37*
X50938041Y-15087422D02*
X50740051Y-15285412D01*
X50280432Y-14825793D01*
X50478422Y-14627803D01*
X50938041Y-15087422D01*
G36*
X50938041Y-15087422D02*
G01*
X50740051Y-15285412D01*
X50280432Y-14825793D01*
X50478422Y-14627803D01*
X50938041Y-15087422D01*
G37*
X51291594Y-10615679D02*
X50831975Y-11075298D01*
X50633985Y-10877309D01*
X51093605Y-10417689D01*
X51291594Y-10615679D01*
G36*
X51291594Y-10615679D02*
G01*
X50831975Y-11075298D01*
X50633985Y-10877309D01*
X51093605Y-10417689D01*
X51291594Y-10615679D01*
G37*
X51291594Y-14733869D02*
X51093605Y-14931859D01*
X50633985Y-14472239D01*
X50831975Y-14274250D01*
X51291594Y-14733869D01*
G36*
X51291594Y-14733869D02*
G01*
X51093605Y-14931859D01*
X50633985Y-14472239D01*
X50831975Y-14274250D01*
X51291594Y-14733869D01*
G37*
X51537668Y-12674774D02*
X49388063Y-14824379D01*
X47238458Y-12674774D01*
X49388063Y-10525169D01*
X51537668Y-12674774D01*
G36*
X51537668Y-12674774D02*
G01*
X49388063Y-14824379D01*
X47238458Y-12674774D01*
X49388063Y-10525169D01*
X51537668Y-12674774D01*
G37*
X51645148Y-10969232D02*
X51185528Y-11428852D01*
X50987539Y-11230862D01*
X51447158Y-10771243D01*
X51645148Y-10969232D01*
G36*
X51645148Y-10969232D02*
G01*
X51185528Y-11428852D01*
X50987539Y-11230862D01*
X51447158Y-10771243D01*
X51645148Y-10969232D01*
G37*
X51645148Y-14380316D02*
X51447158Y-14578305D01*
X50987539Y-14118686D01*
X51185528Y-13920696D01*
X51645148Y-14380316D01*
G36*
X51645148Y-14380316D02*
G01*
X51447158Y-14578305D01*
X50987539Y-14118686D01*
X51185528Y-13920696D01*
X51645148Y-14380316D01*
G37*
X51998701Y-11322786D02*
X51539082Y-11782405D01*
X51341092Y-11584415D01*
X51800711Y-11124796D01*
X51998701Y-11322786D01*
G36*
X51998701Y-11322786D02*
G01*
X51539082Y-11782405D01*
X51341092Y-11584415D01*
X51800711Y-11124796D01*
X51998701Y-11322786D01*
G37*
X51998701Y-14026762D02*
X51800711Y-14224752D01*
X51341092Y-13765133D01*
X51539082Y-13567143D01*
X51998701Y-14026762D01*
G36*
X51998701Y-14026762D02*
G01*
X51800711Y-14224752D01*
X51341092Y-13765133D01*
X51539082Y-13567143D01*
X51998701Y-14026762D01*
G37*
X52352255Y-11676339D02*
X51892635Y-12135959D01*
X51694645Y-11937969D01*
X52154265Y-11478349D01*
X52352255Y-11676339D01*
G36*
X52352255Y-11676339D02*
G01*
X51892635Y-12135959D01*
X51694645Y-11937969D01*
X52154265Y-11478349D01*
X52352255Y-11676339D01*
G37*
X52352255Y-13673209D02*
X52154265Y-13871199D01*
X51694645Y-13411579D01*
X51892635Y-13213589D01*
X52352255Y-13673209D01*
G36*
X52352255Y-13673209D02*
G01*
X52154265Y-13871199D01*
X51694645Y-13411579D01*
X51892635Y-13213589D01*
X52352255Y-13673209D01*
G37*
X52705808Y-12029893D02*
X52246189Y-12489512D01*
X52048199Y-12291522D01*
X52507818Y-11831903D01*
X52705808Y-12029893D01*
G36*
X52705808Y-12029893D02*
G01*
X52246189Y-12489512D01*
X52048199Y-12291522D01*
X52507818Y-11831903D01*
X52705808Y-12029893D01*
G37*
X52705808Y-13319655D02*
X52507818Y-13517645D01*
X52048199Y-13058026D01*
X52246189Y-12860036D01*
X52705808Y-13319655D01*
G36*
X52705808Y-13319655D02*
G01*
X52507818Y-13517645D01*
X52048199Y-13058026D01*
X52246189Y-12860036D01*
X52705808Y-13319655D01*
G37*
%TO.C,USB1*%
X4044000Y-9800000D02*
X2894000Y-9800000D01*
X2894000Y-9200000D01*
X4044000Y-9200000D01*
X4044000Y-9800000D01*
G36*
X4044000Y-9800000D02*
G01*
X2894000Y-9800000D01*
X2894000Y-9200000D01*
X4044000Y-9200000D01*
X4044000Y-9800000D01*
G37*
X4044000Y-10600000D02*
X2894000Y-10600000D01*
X2894000Y-10000000D01*
X4044000Y-10000000D01*
X4044000Y-10600000D01*
G36*
X4044000Y-10600000D02*
G01*
X2894000Y-10600000D01*
X2894000Y-10000000D01*
X4044000Y-10000000D01*
X4044000Y-10600000D01*
G37*
X4044000Y-11100000D02*
X2894000Y-11100000D01*
X2894000Y-10800000D01*
X4044000Y-10800000D01*
X4044000Y-11100000D01*
G36*
X4044000Y-11100000D02*
G01*
X2894000Y-11100000D01*
X2894000Y-10800000D01*
X4044000Y-10800000D01*
X4044000Y-11100000D01*
G37*
X4044000Y-11600000D02*
X2894000Y-11600000D01*
X2894000Y-11300000D01*
X4044000Y-11300000D01*
X4044000Y-11600000D01*
G36*
X4044000Y-11600000D02*
G01*
X2894000Y-11600000D01*
X2894000Y-11300000D01*
X4044000Y-11300000D01*
X4044000Y-11600000D01*
G37*
X4044000Y-12100000D02*
X2894000Y-12100000D01*
X2894000Y-11800000D01*
X4044000Y-11800000D01*
X4044000Y-12100000D01*
G36*
X4044000Y-12100000D02*
G01*
X2894000Y-12100000D01*
X2894000Y-11800000D01*
X4044000Y-11800000D01*
X4044000Y-12100000D01*
G37*
X4044000Y-12600000D02*
X2894000Y-12600000D01*
X2894000Y-12300000D01*
X4044000Y-12300000D01*
X4044000Y-12600000D01*
G36*
X4044000Y-12600000D02*
G01*
X2894000Y-12600000D01*
X2894000Y-12300000D01*
X4044000Y-12300000D01*
X4044000Y-12600000D01*
G37*
X4044000Y-13100000D02*
X2894000Y-13100000D01*
X2894000Y-12800000D01*
X4044000Y-12800000D01*
X4044000Y-13100000D01*
G36*
X4044000Y-13100000D02*
G01*
X2894000Y-13100000D01*
X2894000Y-12800000D01*
X4044000Y-12800000D01*
X4044000Y-13100000D01*
G37*
X4044000Y-13600000D02*
X2894000Y-13600000D01*
X2894000Y-13300000D01*
X4044000Y-13300000D01*
X4044000Y-13600000D01*
G36*
X4044000Y-13600000D02*
G01*
X2894000Y-13600000D01*
X2894000Y-13300000D01*
X4044000Y-13300000D01*
X4044000Y-13600000D01*
G37*
X4044000Y-14100000D02*
X2894000Y-14100000D01*
X2894000Y-13800000D01*
X4044000Y-13800000D01*
X4044000Y-14100000D01*
G36*
X4044000Y-14100000D02*
G01*
X2894000Y-14100000D01*
X2894000Y-13800000D01*
X4044000Y-13800000D01*
X4044000Y-14100000D01*
G37*
X4044000Y-14600000D02*
X2894000Y-14600000D01*
X2894000Y-14300000D01*
X4044000Y-14300000D01*
X4044000Y-14600000D01*
G36*
X4044000Y-14600000D02*
G01*
X2894000Y-14600000D01*
X2894000Y-14300000D01*
X4044000Y-14300000D01*
X4044000Y-14600000D01*
G37*
X4044000Y-15400000D02*
X2894000Y-15400000D01*
X2894000Y-14800000D01*
X4044000Y-14800000D01*
X4044000Y-15400000D01*
G36*
X4044000Y-15400000D02*
G01*
X2894000Y-15400000D01*
X2894000Y-14800000D01*
X4044000Y-14800000D01*
X4044000Y-15400000D01*
G37*
X4044000Y-16200000D02*
X2894000Y-16200000D01*
X2894000Y-15600000D01*
X4044000Y-15600000D01*
X4044000Y-16200000D01*
G36*
X4044000Y-16200000D02*
G01*
X2894000Y-16200000D01*
X2894000Y-15600000D01*
X4044000Y-15600000D01*
X4044000Y-16200000D01*
G37*
X-946000Y-7885000D02*
X-852000Y-7913000D01*
X-766000Y-7959000D01*
X-690000Y-8021000D01*
X-628000Y-8097000D01*
X-581000Y-8184000D01*
X-553000Y-8277000D01*
X-543000Y-8375000D01*
X-553000Y-8473000D01*
X-581000Y-8566000D01*
X-628000Y-8653000D01*
X-690000Y-8729000D01*
X-766000Y-8791000D01*
X-852000Y-8837000D01*
X-946000Y-8865000D01*
X-1043000Y-8875000D01*
X-1943000Y-8875000D01*
X-2041000Y-8865000D01*
X-2135000Y-8837000D01*
X-2221000Y-8791000D01*
X-2297000Y-8729000D01*
X-2359000Y-8653000D01*
X-2405000Y-8566000D01*
X-2434000Y-8473000D01*
X-2443000Y-8375000D01*
X-2434000Y-8277000D01*
X-2405000Y-8184000D01*
X-2359000Y-8097000D01*
X-2297000Y-8021000D01*
X-2221000Y-7959000D01*
X-2135000Y-7913000D01*
X-2041000Y-7885000D01*
X-1943000Y-7875000D01*
X-1043000Y-7875000D01*
X-946000Y-7885000D01*
G36*
X-946000Y-7885000D02*
G01*
X-852000Y-7913000D01*
X-766000Y-7959000D01*
X-690000Y-8021000D01*
X-628000Y-8097000D01*
X-581000Y-8184000D01*
X-553000Y-8277000D01*
X-543000Y-8375000D01*
X-553000Y-8473000D01*
X-581000Y-8566000D01*
X-628000Y-8653000D01*
X-690000Y-8729000D01*
X-766000Y-8791000D01*
X-852000Y-8837000D01*
X-946000Y-8865000D01*
X-1043000Y-8875000D01*
X-1943000Y-8875000D01*
X-2041000Y-8865000D01*
X-2135000Y-8837000D01*
X-2221000Y-8791000D01*
X-2297000Y-8729000D01*
X-2359000Y-8653000D01*
X-2405000Y-8566000D01*
X-2434000Y-8473000D01*
X-2443000Y-8375000D01*
X-2434000Y-8277000D01*
X-2405000Y-8184000D01*
X-2359000Y-8097000D01*
X-2297000Y-8021000D01*
X-2221000Y-7959000D01*
X-2135000Y-7913000D01*
X-2041000Y-7885000D01*
X-1943000Y-7875000D01*
X-1043000Y-7875000D01*
X-946000Y-7885000D01*
G37*
X-946000Y-16535000D02*
X-852000Y-16563000D01*
X-766000Y-16609000D01*
X-690000Y-16671000D01*
X-628000Y-16747000D01*
X-581000Y-16834000D01*
X-553000Y-16927000D01*
X-543000Y-17025000D01*
X-553000Y-17123000D01*
X-581000Y-17216000D01*
X-628000Y-17303000D01*
X-690000Y-17379000D01*
X-766000Y-17441000D01*
X-852000Y-17487000D01*
X-946000Y-17515000D01*
X-1043000Y-17525000D01*
X-1943000Y-17525000D01*
X-2041000Y-17515000D01*
X-2135000Y-17487000D01*
X-2221000Y-17441000D01*
X-2297000Y-17379000D01*
X-2359000Y-17303000D01*
X-2405000Y-17216000D01*
X-2434000Y-17123000D01*
X-2443000Y-17025000D01*
X-2434000Y-16927000D01*
X-2405000Y-16834000D01*
X-2359000Y-16747000D01*
X-2297000Y-16671000D01*
X-2221000Y-16609000D01*
X-2135000Y-16563000D01*
X-2041000Y-16535000D01*
X-1943000Y-16525000D01*
X-1043000Y-16525000D01*
X-946000Y-16535000D01*
G36*
X-946000Y-16535000D02*
G01*
X-852000Y-16563000D01*
X-766000Y-16609000D01*
X-690000Y-16671000D01*
X-628000Y-16747000D01*
X-581000Y-16834000D01*
X-553000Y-16927000D01*
X-543000Y-17025000D01*
X-553000Y-17123000D01*
X-581000Y-17216000D01*
X-628000Y-17303000D01*
X-690000Y-17379000D01*
X-766000Y-17441000D01*
X-852000Y-17487000D01*
X-946000Y-17515000D01*
X-1043000Y-17525000D01*
X-1943000Y-17525000D01*
X-2041000Y-17515000D01*
X-2135000Y-17487000D01*
X-2221000Y-17441000D01*
X-2297000Y-17379000D01*
X-2359000Y-17303000D01*
X-2405000Y-17216000D01*
X-2434000Y-17123000D01*
X-2443000Y-17025000D01*
X-2434000Y-16927000D01*
X-2405000Y-16834000D01*
X-2359000Y-16747000D01*
X-2297000Y-16671000D01*
X-2221000Y-16609000D01*
X-2135000Y-16563000D01*
X-2041000Y-16535000D01*
X-1943000Y-16525000D01*
X-1043000Y-16525000D01*
X-946000Y-16535000D01*
G37*
X3354000Y-7885000D02*
X3448000Y-7913000D01*
X3534000Y-7959000D01*
X3610000Y-8021000D01*
X3672000Y-8097000D01*
X3719000Y-8184000D01*
X3747000Y-8277000D01*
X3757000Y-8375000D01*
X3747000Y-8473000D01*
X3719000Y-8566000D01*
X3672000Y-8653000D01*
X3610000Y-8729000D01*
X3534000Y-8791000D01*
X3448000Y-8837000D01*
X3354000Y-8865000D01*
X3257000Y-8875000D01*
X2157000Y-8875000D01*
X2059000Y-8865000D01*
X1965000Y-8837000D01*
X1879000Y-8791000D01*
X1803000Y-8729000D01*
X1741000Y-8653000D01*
X1695000Y-8566000D01*
X1666000Y-8473000D01*
X1657000Y-8375000D01*
X1666000Y-8277000D01*
X1695000Y-8184000D01*
X1741000Y-8097000D01*
X1803000Y-8021000D01*
X1879000Y-7959000D01*
X1965000Y-7913000D01*
X2059000Y-7885000D01*
X2157000Y-7875000D01*
X3257000Y-7875000D01*
X3354000Y-7885000D01*
G36*
X3354000Y-7885000D02*
G01*
X3448000Y-7913000D01*
X3534000Y-7959000D01*
X3610000Y-8021000D01*
X3672000Y-8097000D01*
X3719000Y-8184000D01*
X3747000Y-8277000D01*
X3757000Y-8375000D01*
X3747000Y-8473000D01*
X3719000Y-8566000D01*
X3672000Y-8653000D01*
X3610000Y-8729000D01*
X3534000Y-8791000D01*
X3448000Y-8837000D01*
X3354000Y-8865000D01*
X3257000Y-8875000D01*
X2157000Y-8875000D01*
X2059000Y-8865000D01*
X1965000Y-8837000D01*
X1879000Y-8791000D01*
X1803000Y-8729000D01*
X1741000Y-8653000D01*
X1695000Y-8566000D01*
X1666000Y-8473000D01*
X1657000Y-8375000D01*
X1666000Y-8277000D01*
X1695000Y-8184000D01*
X1741000Y-8097000D01*
X1803000Y-8021000D01*
X1879000Y-7959000D01*
X1965000Y-7913000D01*
X2059000Y-7885000D01*
X2157000Y-7875000D01*
X3257000Y-7875000D01*
X3354000Y-7885000D01*
G37*
X3354000Y-16535000D02*
X3448000Y-16563000D01*
X3534000Y-16609000D01*
X3610000Y-16671000D01*
X3672000Y-16747000D01*
X3719000Y-16834000D01*
X3747000Y-16927000D01*
X3757000Y-17025000D01*
X3747000Y-17123000D01*
X3719000Y-17216000D01*
X3672000Y-17303000D01*
X3610000Y-17379000D01*
X3534000Y-17441000D01*
X3448000Y-17487000D01*
X3354000Y-17515000D01*
X3257000Y-17525000D01*
X2157000Y-17525000D01*
X2059000Y-17515000D01*
X1965000Y-17487000D01*
X1879000Y-17441000D01*
X1803000Y-17379000D01*
X1741000Y-17303000D01*
X1695000Y-17216000D01*
X1666000Y-17123000D01*
X1657000Y-17025000D01*
X1666000Y-16927000D01*
X1695000Y-16834000D01*
X1741000Y-16747000D01*
X1803000Y-16671000D01*
X1879000Y-16609000D01*
X1965000Y-16563000D01*
X2059000Y-16535000D01*
X2157000Y-16525000D01*
X3257000Y-16525000D01*
X3354000Y-16535000D01*
G36*
X3354000Y-16535000D02*
G01*
X3448000Y-16563000D01*
X3534000Y-16609000D01*
X3610000Y-16671000D01*
X3672000Y-16747000D01*
X3719000Y-16834000D01*
X3747000Y-16927000D01*
X3757000Y-17025000D01*
X3747000Y-17123000D01*
X3719000Y-17216000D01*
X3672000Y-17303000D01*
X3610000Y-17379000D01*
X3534000Y-17441000D01*
X3448000Y-17487000D01*
X3354000Y-17515000D01*
X3257000Y-17525000D01*
X2157000Y-17525000D01*
X2059000Y-17515000D01*
X1965000Y-17487000D01*
X1879000Y-17441000D01*
X1803000Y-17379000D01*
X1741000Y-17303000D01*
X1695000Y-17216000D01*
X1666000Y-17123000D01*
X1657000Y-17025000D01*
X1666000Y-16927000D01*
X1695000Y-16834000D01*
X1741000Y-16747000D01*
X1803000Y-16671000D01*
X1879000Y-16609000D01*
X1965000Y-16563000D01*
X2059000Y-16535000D01*
X2157000Y-16525000D01*
X3257000Y-16525000D01*
X3354000Y-16535000D01*
G37*
%TO.C,U4*%
X12330000Y-16054000D02*
X11580000Y-16054000D01*
X11580000Y-15804000D01*
X12330000Y-15804000D01*
X12330000Y-16054000D01*
G36*
X12330000Y-16054000D02*
G01*
X11580000Y-16054000D01*
X11580000Y-15804000D01*
X12330000Y-15804000D01*
X12330000Y-16054000D01*
G37*
X12330000Y-16554000D02*
X11580000Y-16554000D01*
X11580000Y-16304000D01*
X12330000Y-16304000D01*
X12330000Y-16554000D01*
G36*
X12330000Y-16554000D02*
G01*
X11580000Y-16554000D01*
X11580000Y-16304000D01*
X12330000Y-16304000D01*
X12330000Y-16554000D01*
G37*
X12330000Y-17054000D02*
X11580000Y-17054000D01*
X11580000Y-16804000D01*
X12330000Y-16804000D01*
X12330000Y-17054000D01*
G36*
X12330000Y-17054000D02*
G01*
X11580000Y-17054000D01*
X11580000Y-16804000D01*
X12330000Y-16804000D01*
X12330000Y-17054000D01*
G37*
X12330000Y-17554000D02*
X11580000Y-17554000D01*
X11580000Y-17304000D01*
X12330000Y-17304000D01*
X12330000Y-17554000D01*
G36*
X12330000Y-17554000D02*
G01*
X11580000Y-17554000D01*
X11580000Y-17304000D01*
X12330000Y-17304000D01*
X12330000Y-17554000D01*
G37*
X14085000Y-17360000D02*
X12725000Y-17360000D01*
X12725000Y-16000000D01*
X14085000Y-16000000D01*
X14085000Y-17360000D01*
G36*
X14085000Y-17360000D02*
G01*
X12725000Y-17360000D01*
X12725000Y-16000000D01*
X14085000Y-16000000D01*
X14085000Y-17360000D01*
G37*
X12780000Y-15605000D02*
X12530000Y-15605000D01*
X12530000Y-14855000D01*
X12780000Y-14855000D01*
X12780000Y-15605000D01*
G36*
X12780000Y-15605000D02*
G01*
X12530000Y-15605000D01*
X12530000Y-14855000D01*
X12780000Y-14855000D01*
X12780000Y-15605000D01*
G37*
X12780000Y-18505000D02*
X12530000Y-18505000D01*
X12530000Y-17755000D01*
X12780000Y-17755000D01*
X12780000Y-18505000D01*
G36*
X12780000Y-18505000D02*
G01*
X12530000Y-18505000D01*
X12530000Y-17755000D01*
X12780000Y-17755000D01*
X12780000Y-18505000D01*
G37*
X13280000Y-15605000D02*
X13030000Y-15605000D01*
X13030000Y-14855000D01*
X13280000Y-14855000D01*
X13280000Y-15605000D01*
G36*
X13280000Y-15605000D02*
G01*
X13030000Y-15605000D01*
X13030000Y-14855000D01*
X13280000Y-14855000D01*
X13280000Y-15605000D01*
G37*
X13280000Y-18505000D02*
X13030000Y-18505000D01*
X13030000Y-17755000D01*
X13280000Y-17755000D01*
X13280000Y-18505000D01*
G36*
X13280000Y-18505000D02*
G01*
X13030000Y-18505000D01*
X13030000Y-17755000D01*
X13280000Y-17755000D01*
X13280000Y-18505000D01*
G37*
X13780000Y-15605000D02*
X13530000Y-15605000D01*
X13530000Y-14855000D01*
X13780000Y-14855000D01*
X13780000Y-15605000D01*
G36*
X13780000Y-15605000D02*
G01*
X13530000Y-15605000D01*
X13530000Y-14855000D01*
X13780000Y-14855000D01*
X13780000Y-15605000D01*
G37*
X13780000Y-18505000D02*
X13530000Y-18505000D01*
X13530000Y-17755000D01*
X13780000Y-17755000D01*
X13780000Y-18505000D01*
G36*
X13780000Y-18505000D02*
G01*
X13530000Y-18505000D01*
X13530000Y-17755000D01*
X13780000Y-17755000D01*
X13780000Y-18505000D01*
G37*
X14280000Y-15605000D02*
X14030000Y-15605000D01*
X14030000Y-14855000D01*
X14280000Y-14855000D01*
X14280000Y-15605000D01*
G36*
X14280000Y-15605000D02*
G01*
X14030000Y-15605000D01*
X14030000Y-14855000D01*
X14280000Y-14855000D01*
X14280000Y-15605000D01*
G37*
X14280000Y-18505000D02*
X14030000Y-18505000D01*
X14030000Y-17755000D01*
X14280000Y-17755000D01*
X14280000Y-18505000D01*
G36*
X14280000Y-18505000D02*
G01*
X14030000Y-18505000D01*
X14030000Y-17755000D01*
X14280000Y-17755000D01*
X14280000Y-18505000D01*
G37*
X15230000Y-16054000D02*
X14480000Y-16054000D01*
X14480000Y-15804000D01*
X15230000Y-15804000D01*
X15230000Y-16054000D01*
G36*
X15230000Y-16054000D02*
G01*
X14480000Y-16054000D01*
X14480000Y-15804000D01*
X15230000Y-15804000D01*
X15230000Y-16054000D01*
G37*
X15230000Y-16553000D02*
X14480000Y-16553000D01*
X14480000Y-16303000D01*
X15230000Y-16303000D01*
X15230000Y-16553000D01*
G36*
X15230000Y-16553000D02*
G01*
X14480000Y-16553000D01*
X14480000Y-16303000D01*
X15230000Y-16303000D01*
X15230000Y-16553000D01*
G37*
X15230000Y-17054000D02*
X14480000Y-17054000D01*
X14480000Y-16804000D01*
X15230000Y-16804000D01*
X15230000Y-17054000D01*
G36*
X15230000Y-17054000D02*
G01*
X14480000Y-17054000D01*
X14480000Y-16804000D01*
X15230000Y-16804000D01*
X15230000Y-17054000D01*
G37*
X15230000Y-17553000D02*
X14480000Y-17553000D01*
X14480000Y-17303000D01*
X15230000Y-17303000D01*
X15230000Y-17553000D01*
G36*
X15230000Y-17553000D02*
G01*
X14480000Y-17553000D01*
X14480000Y-17303000D01*
X15230000Y-17303000D01*
X15230000Y-17553000D01*
G37*
%TD*%
D11*
%TO.C,VT2*%
X23585000Y-9058500D03*
X23585000Y-10958500D03*
X25855000Y-10008500D03*
%TD*%
D12*
%TO.C,R1*%
X14505000Y-12660000D03*
X16155000Y-12660000D03*
%TD*%
D13*
%TO.C,L1*%
X55250000Y-9280000D03*
X55935894Y-8594106D03*
%TD*%
D14*
%TO.C,U3*%
X52377710Y-12160000D03*
X52024157Y-11806447D03*
X51670604Y-11452893D03*
X51317050Y-11099340D03*
X50963497Y-10745787D03*
X50609944Y-10392233D03*
X50256390Y-10038680D03*
X49902837Y-9685127D03*
D15*
X48873289Y-9685127D03*
X48519736Y-10038680D03*
X48166182Y-10392233D03*
X47812629Y-10745787D03*
X47459076Y-11099340D03*
X47105522Y-11452893D03*
X46751969Y-11806447D03*
X46398416Y-12160000D03*
D14*
X46398416Y-13189548D03*
X46751969Y-13543101D03*
X47105522Y-13896655D03*
X47459076Y-14250208D03*
X47812629Y-14603761D03*
X48166182Y-14957315D03*
X48519736Y-15310868D03*
X48873289Y-15664421D03*
D15*
X49902837Y-15664421D03*
X50256390Y-15310868D03*
X50609944Y-14957315D03*
X50963497Y-14603761D03*
X51317050Y-14250208D03*
X51670604Y-13896655D03*
X52024157Y-13543101D03*
X52377710Y-13189548D03*
D16*
X49388063Y-12674774D03*
%TD*%
D17*
%TO.C,R6*%
X23660000Y-17336000D03*
X23660000Y-18356000D03*
%TD*%
D18*
%TO.C,C6*%
X54613604Y-9916396D03*
X55292426Y-10595218D03*
%TD*%
D19*
%TO.C,D3*%
X6580000Y-10750000D03*
X6580000Y-12150000D03*
%TD*%
D20*
%TO.C,D4*%
X19990000Y-14325000D03*
X19990000Y-17125000D03*
%TD*%
D21*
%TO.C,R7*%
X24630000Y-12623500D03*
X23610000Y-12623500D03*
%TD*%
D22*
%TO.C,C8*%
X57020000Y-8150000D03*
X57020000Y-7190000D03*
%TD*%
D23*
%TO.C,SW2*%
X32040000Y-10860000D03*
X27740000Y-10860000D03*
X32040000Y-8710000D03*
X27740000Y-8710000D03*
%TD*%
D22*
%TO.C,C11*%
X10485000Y-16890000D03*
X10485000Y-15930000D03*
%TD*%
D24*
%TO.C,C16*%
X16035000Y-18350000D03*
X16995000Y-18350000D03*
%TD*%
D17*
%TO.C,R2*%
X48030000Y-5840000D03*
X48030000Y-6860000D03*
%TD*%
D25*
%TO.C,Y1*%
X56590000Y-15500000D03*
X56590000Y-17700000D03*
X58290000Y-17700000D03*
X58290000Y-15500000D03*
%TD*%
D22*
%TO.C,C4*%
X54080000Y-6830000D03*
X54080000Y-5870000D03*
%TD*%
D24*
%TO.C,C14*%
X44750000Y-6800000D03*
X45710000Y-6800000D03*
%TD*%
D22*
%TO.C,C5*%
X52755000Y-6830000D03*
X52755000Y-5870000D03*
%TD*%
D26*
%TO.C,C18*%
X44060000Y-11980000D03*
X43100000Y-11980000D03*
%TD*%
D27*
%TO.C,F1*%
X19990000Y-11040000D03*
X19990000Y-8240000D03*
%TD*%
D11*
%TO.C,VT1*%
X23605000Y-14283500D03*
X23605000Y-16183500D03*
X25875000Y-15233500D03*
%TD*%
D24*
%TO.C,C12*%
X55160000Y-13680000D03*
X56120000Y-13680000D03*
%TD*%
D28*
%TO.C,C15*%
X55190000Y-14960000D03*
X55190000Y-15920000D03*
%TD*%
D29*
%TO.C,R5*%
X23660000Y-7906000D03*
X23660000Y-6886000D03*
%TD*%
D30*
%TO.C,D2*%
X6580000Y-14650000D03*
X6580000Y-13250000D03*
%TD*%
D24*
%TO.C,C10*%
X55160000Y-12460000D03*
X56120000Y-12460000D03*
%TD*%
D31*
%TO.C,C3*%
X16345000Y-10015000D03*
X16345000Y-8465000D03*
%TD*%
D12*
%TO.C,R8*%
X6535000Y-17280000D03*
X8185000Y-17280000D03*
%TD*%
%TO.C,R3*%
X6535000Y-8120000D03*
X8185000Y-8120000D03*
%TD*%
D32*
%TO.C,USB1*%
X3469000Y-9500000D03*
X3469000Y-10300000D03*
D33*
X3469000Y-11450000D03*
X3469000Y-12450000D03*
X3469000Y-12950000D03*
X3469000Y-13950000D03*
D32*
X3469000Y-15900000D03*
X3469000Y-15100000D03*
D33*
X3469000Y-14450000D03*
X3469000Y-13450000D03*
X3469000Y-11950000D03*
X3469000Y-10950000D03*
%TD*%
D34*
%TO.C,D1*%
X11560000Y-12675000D03*
X13135000Y-12675000D03*
%TD*%
D35*
%TO.C,U1*%
X12290000Y-8115000D03*
X12290000Y-9065000D03*
X12290000Y-10015000D03*
X14890000Y-10015000D03*
X14890000Y-8115000D03*
%TD*%
D22*
%TO.C,C9*%
X49360000Y-6850000D03*
X49360000Y-5890000D03*
%TD*%
D36*
%TO.C,U4*%
X14855000Y-17428000D03*
X14855000Y-16929000D03*
X14855000Y-16428000D03*
X14855000Y-15929000D03*
D37*
X14155000Y-15230000D03*
X13655000Y-15230000D03*
X13155000Y-15230000D03*
X12655000Y-15230000D03*
D36*
X11955000Y-15930000D03*
X11955000Y-16430000D03*
X11955000Y-16930000D03*
X11955000Y-17429000D03*
D37*
X12655000Y-18130000D03*
X13155000Y-18130000D03*
X13655000Y-18130000D03*
X14155000Y-18130000D03*
D38*
X13405000Y-16680000D03*
%TD*%
D39*
%TO.C,C2*%
X10835000Y-8465000D03*
X10835000Y-10015000D03*
%TD*%
D29*
%TO.C,R4*%
X42790000Y-7000000D03*
X42790000Y-5980000D03*
%TD*%
D22*
%TO.C,C17*%
X55190000Y-17740000D03*
X55190000Y-16780000D03*
%TD*%
D26*
%TO.C,C19*%
X44060000Y-13330000D03*
X43100000Y-13330000D03*
%TD*%
D22*
%TO.C,C7*%
X51430000Y-6830000D03*
X51430000Y-5870000D03*
%TD*%
D40*
%TO.C,U2*%
X37100000Y-16150000D03*
X38370000Y-16150000D03*
X39640000Y-16150000D03*
X40910000Y-16150000D03*
X40910000Y-9090000D03*
X39640000Y-9090000D03*
X38370000Y-9090000D03*
X37100000Y-9090000D03*
%TD*%
D28*
%TO.C,C1*%
X35610000Y-12237000D03*
X35610000Y-13197000D03*
%TD*%
D26*
%TO.C,C13*%
X16995000Y-14520000D03*
X16035000Y-14520000D03*
%TD*%
D23*
%TO.C,SW1*%
X32040000Y-16516000D03*
X27740000Y-16516000D03*
X32040000Y-14366000D03*
X27740000Y-14366000D03*
%TD*%
M02*
