%TF.GenerationSoftware,KiCad,Pcbnew,7.0.11*%
%TF.CreationDate,2024-04-19T11:45:33+08:00*%
%TF.ProjectId,UINIO-MCU-ESP32C3,55494e49-4f2d-44d4-9355-2d4553503332,Version 3.6.2*%
%TF.SameCoordinates,PX7367750PY5b66700*%
%TF.FileFunction,Paste,Top*%
%TF.FilePolarity,Positive*%
%FSLAX46Y46*%
G04 Gerber Fmt 4.6, Leading zero omitted, Abs format (unit mm)*
G04 Created by KiCad (PCBNEW 7.0.11) date 2024-04-19 11:45:33*
%MOMM*%
%LPD*%
G01*
G04 APERTURE LIST*
G04 Aperture macros list*
%AMRoundRect*
0 Rectangle with rounded corners*
0 $1 Rounding radius*
0 $2 $3 $4 $5 $6 $7 $8 $9 X,Y pos of 4 corners*
0 Add a 4 corners polygon primitive as box body*
4,1,4,$2,$3,$4,$5,$6,$7,$8,$9,$2,$3,0*
0 Add four circle primitives for the rounded corners*
1,1,$1+$1,$2,$3*
1,1,$1+$1,$4,$5*
1,1,$1+$1,$6,$7*
1,1,$1+$1,$8,$9*
0 Add four rect primitives between the rounded corners*
20,1,$1+$1,$2,$3,$4,$5,0*
20,1,$1+$1,$4,$5,$6,$7,0*
20,1,$1+$1,$6,$7,$8,$9,0*
20,1,$1+$1,$8,$9,$2,$3,0*%
%AMRotRect*
0 Rectangle, with rotation*
0 The origin of the aperture is its center*
0 $1 length*
0 $2 width*
0 $3 Rotation angle, in degrees counterclockwise*
0 Add horizontal line*
21,1,$1,$2,0,0,$3*%
G04 Aperture macros list end*
%ADD10C,0.120000*%
%ADD11R,1.070000X0.532000*%
%ADD12RoundRect,0.135000X-0.135000X-0.185000X0.135000X-0.185000X0.135000X0.185000X-0.135000X0.185000X0*%
%ADD13RotRect,0.650000X0.280000X225.000000*%
%ADD14RotRect,0.280000X0.650000X225.000000*%
%ADD15RotRect,3.800000X3.800000X225.000000*%
%ADD16RoundRect,0.135000X0.135000X0.185000X-0.135000X0.185000X-0.135000X-0.185000X0.135000X-0.185000X0*%
%ADD17R,1.200000X0.650000*%
%ADD18RoundRect,0.140000X0.170000X-0.140000X0.170000X0.140000X-0.170000X0.140000X-0.170000X-0.140000X0*%
%ADD19R,1.200000X1.400000*%
%ADD20RoundRect,0.140000X-0.140000X-0.170000X0.140000X-0.170000X0.140000X0.170000X-0.140000X0.170000X0*%
%ADD21RoundRect,0.140000X0.140000X0.170000X-0.140000X0.170000X-0.140000X-0.170000X0.140000X-0.170000X0*%
%ADD22R,1.150000X0.600000*%
%ADD23R,1.150000X0.300000*%
%ADD24RoundRect,0.218750X-0.218750X-0.256250X0.218750X-0.256250X0.218750X0.256250X-0.218750X0.256250X0*%
%ADD25R,1.000000X0.600000*%
%ADD26R,0.250000X0.750000*%
%ADD27R,0.750000X0.250000*%
%ADD28R,1.700000X1.700000*%
%ADD29RoundRect,0.140000X-0.170000X0.140000X-0.170000X-0.140000X0.170000X-0.140000X0.170000X0.140000X0*%
G04 APERTURE END LIST*
%TO.C,U3*%
D10*
X45618775Y-6495119D02*
X45159156Y-6954738D01*
X44961166Y-6756748D01*
X45420785Y-6297129D01*
X45618775Y-6495119D01*
G36*
X45618775Y-6495119D02*
G01*
X45159156Y-6954738D01*
X44961166Y-6756748D01*
X45420785Y-6297129D01*
X45618775Y-6495119D01*
G37*
X45265222Y-6141565D02*
X44805602Y-6601185D01*
X44607612Y-6403195D01*
X45067232Y-5943575D01*
X45265222Y-6141565D01*
G36*
X45265222Y-6141565D02*
G01*
X44805602Y-6601185D01*
X44607612Y-6403195D01*
X45067232Y-5943575D01*
X45265222Y-6141565D01*
G37*
X44911668Y-5788012D02*
X44452049Y-6247631D01*
X44254059Y-6049641D01*
X44713678Y-5590022D01*
X44911668Y-5788012D01*
G36*
X44911668Y-5788012D02*
G01*
X44452049Y-6247631D01*
X44254059Y-6049641D01*
X44713678Y-5590022D01*
X44911668Y-5788012D01*
G37*
X44558115Y-5434458D02*
X44098495Y-5894078D01*
X43900506Y-5696088D01*
X44360125Y-5236469D01*
X44558115Y-5434458D01*
G36*
X44558115Y-5434458D02*
G01*
X44098495Y-5894078D01*
X43900506Y-5696088D01*
X44360125Y-5236469D01*
X44558115Y-5434458D01*
G37*
X44204561Y-5080905D02*
X43744942Y-5540524D01*
X43546952Y-5342535D01*
X44006572Y-4882915D01*
X44204561Y-5080905D01*
G36*
X44204561Y-5080905D02*
G01*
X43744942Y-5540524D01*
X43546952Y-5342535D01*
X44006572Y-4882915D01*
X44204561Y-5080905D01*
G37*
X43851008Y-4727352D02*
X43391389Y-5186971D01*
X43193399Y-4988981D01*
X43653018Y-4529362D01*
X43851008Y-4727352D01*
G36*
X43851008Y-4727352D02*
G01*
X43391389Y-5186971D01*
X43193399Y-4988981D01*
X43653018Y-4529362D01*
X43851008Y-4727352D01*
G37*
X43497455Y-4373798D02*
X43037835Y-4833418D01*
X42839845Y-4635428D01*
X43299465Y-4175808D01*
X43497455Y-4373798D01*
G36*
X43497455Y-4373798D02*
G01*
X43037835Y-4833418D01*
X42839845Y-4635428D01*
X43299465Y-4175808D01*
X43497455Y-4373798D01*
G37*
X43143901Y-4020245D02*
X42684282Y-4479864D01*
X42486292Y-4281874D01*
X42945911Y-3822255D01*
X43143901Y-4020245D01*
G36*
X43143901Y-4020245D02*
G01*
X42684282Y-4479864D01*
X42486292Y-4281874D01*
X42945911Y-3822255D01*
X43143901Y-4020245D01*
G37*
X45618775Y-7784881D02*
X45420785Y-7982871D01*
X44961166Y-7523252D01*
X45159156Y-7325262D01*
X45618775Y-7784881D01*
G36*
X45618775Y-7784881D02*
G01*
X45420785Y-7982871D01*
X44961166Y-7523252D01*
X45159156Y-7325262D01*
X45618775Y-7784881D01*
G37*
X42115768Y-4281874D02*
X41917778Y-4479864D01*
X41458159Y-4020245D01*
X41656149Y-3822255D01*
X42115768Y-4281874D01*
G36*
X42115768Y-4281874D02*
G01*
X41917778Y-4479864D01*
X41458159Y-4020245D01*
X41656149Y-3822255D01*
X42115768Y-4281874D01*
G37*
X44450635Y-7140000D02*
X42301030Y-9289605D01*
X40151425Y-7140000D01*
X42301030Y-4990395D01*
X44450635Y-7140000D01*
G36*
X44450635Y-7140000D02*
G01*
X42301030Y-9289605D01*
X40151425Y-7140000D01*
X42301030Y-4990395D01*
X44450635Y-7140000D01*
G37*
X45265222Y-8138435D02*
X45067232Y-8336425D01*
X44607612Y-7876805D01*
X44805602Y-7678815D01*
X45265222Y-8138435D01*
G36*
X45265222Y-8138435D02*
G01*
X45067232Y-8336425D01*
X44607612Y-7876805D01*
X44805602Y-7678815D01*
X45265222Y-8138435D01*
G37*
X41762215Y-4635428D02*
X41564225Y-4833418D01*
X41104605Y-4373798D01*
X41302595Y-4175808D01*
X41762215Y-4635428D01*
G36*
X41762215Y-4635428D02*
G01*
X41564225Y-4833418D01*
X41104605Y-4373798D01*
X41302595Y-4175808D01*
X41762215Y-4635428D01*
G37*
X44911668Y-8491988D02*
X44713678Y-8689978D01*
X44254059Y-8230359D01*
X44452049Y-8032369D01*
X44911668Y-8491988D01*
G36*
X44911668Y-8491988D02*
G01*
X44713678Y-8689978D01*
X44254059Y-8230359D01*
X44452049Y-8032369D01*
X44911668Y-8491988D01*
G37*
X41408661Y-4988981D02*
X41210671Y-5186971D01*
X40751052Y-4727352D01*
X40949042Y-4529362D01*
X41408661Y-4988981D01*
G36*
X41408661Y-4988981D02*
G01*
X41210671Y-5186971D01*
X40751052Y-4727352D01*
X40949042Y-4529362D01*
X41408661Y-4988981D01*
G37*
X44558115Y-8845542D02*
X44360125Y-9043531D01*
X43900506Y-8583912D01*
X44098495Y-8385922D01*
X44558115Y-8845542D01*
G36*
X44558115Y-8845542D02*
G01*
X44360125Y-9043531D01*
X43900506Y-8583912D01*
X44098495Y-8385922D01*
X44558115Y-8845542D01*
G37*
X41055108Y-5342535D02*
X40857118Y-5540524D01*
X40397499Y-5080905D01*
X40595488Y-4882915D01*
X41055108Y-5342535D01*
G36*
X41055108Y-5342535D02*
G01*
X40857118Y-5540524D01*
X40397499Y-5080905D01*
X40595488Y-4882915D01*
X41055108Y-5342535D01*
G37*
X44204561Y-9199095D02*
X44006572Y-9397085D01*
X43546952Y-8937465D01*
X43744942Y-8739476D01*
X44204561Y-9199095D01*
G36*
X44204561Y-9199095D02*
G01*
X44006572Y-9397085D01*
X43546952Y-8937465D01*
X43744942Y-8739476D01*
X44204561Y-9199095D01*
G37*
X40701554Y-5696088D02*
X40503565Y-5894078D01*
X40043945Y-5434458D01*
X40241935Y-5236469D01*
X40701554Y-5696088D01*
G36*
X40701554Y-5696088D02*
G01*
X40503565Y-5894078D01*
X40043945Y-5434458D01*
X40241935Y-5236469D01*
X40701554Y-5696088D01*
G37*
X43851008Y-9552648D02*
X43653018Y-9750638D01*
X43193399Y-9291019D01*
X43391389Y-9093029D01*
X43851008Y-9552648D01*
G36*
X43851008Y-9552648D02*
G01*
X43653018Y-9750638D01*
X43193399Y-9291019D01*
X43391389Y-9093029D01*
X43851008Y-9552648D01*
G37*
X40348001Y-6049641D02*
X40150011Y-6247631D01*
X39690392Y-5788012D01*
X39888382Y-5590022D01*
X40348001Y-6049641D01*
G36*
X40348001Y-6049641D02*
G01*
X40150011Y-6247631D01*
X39690392Y-5788012D01*
X39888382Y-5590022D01*
X40348001Y-6049641D01*
G37*
X43497455Y-9906202D02*
X43299465Y-10104192D01*
X42839845Y-9644572D01*
X43037835Y-9446582D01*
X43497455Y-9906202D01*
G36*
X43497455Y-9906202D02*
G01*
X43299465Y-10104192D01*
X42839845Y-9644572D01*
X43037835Y-9446582D01*
X43497455Y-9906202D01*
G37*
X39994448Y-6403195D02*
X39796458Y-6601185D01*
X39336838Y-6141565D01*
X39534828Y-5943575D01*
X39994448Y-6403195D01*
G36*
X39994448Y-6403195D02*
G01*
X39796458Y-6601185D01*
X39336838Y-6141565D01*
X39534828Y-5943575D01*
X39994448Y-6403195D01*
G37*
X43143901Y-10259755D02*
X42945911Y-10457745D01*
X42486292Y-9998126D01*
X42684282Y-9800136D01*
X43143901Y-10259755D01*
G36*
X43143901Y-10259755D02*
G01*
X42945911Y-10457745D01*
X42486292Y-9998126D01*
X42684282Y-9800136D01*
X43143901Y-10259755D01*
G37*
X39640894Y-6756748D02*
X39442904Y-6954738D01*
X38983285Y-6495119D01*
X39181275Y-6297129D01*
X39640894Y-6756748D01*
G36*
X39640894Y-6756748D02*
G01*
X39442904Y-6954738D01*
X38983285Y-6495119D01*
X39181275Y-6297129D01*
X39640894Y-6756748D01*
G37*
X42115768Y-9998126D02*
X41656149Y-10457745D01*
X41458159Y-10259755D01*
X41917778Y-9800136D01*
X42115768Y-9998126D01*
G36*
X42115768Y-9998126D02*
G01*
X41656149Y-10457745D01*
X41458159Y-10259755D01*
X41917778Y-9800136D01*
X42115768Y-9998126D01*
G37*
X41762215Y-9644572D02*
X41302595Y-10104192D01*
X41104605Y-9906202D01*
X41564225Y-9446582D01*
X41762215Y-9644572D01*
G36*
X41762215Y-9644572D02*
G01*
X41302595Y-10104192D01*
X41104605Y-9906202D01*
X41564225Y-9446582D01*
X41762215Y-9644572D01*
G37*
X41408661Y-9291019D02*
X40949042Y-9750638D01*
X40751052Y-9552648D01*
X41210671Y-9093029D01*
X41408661Y-9291019D01*
G36*
X41408661Y-9291019D02*
G01*
X40949042Y-9750638D01*
X40751052Y-9552648D01*
X41210671Y-9093029D01*
X41408661Y-9291019D01*
G37*
X41055108Y-8937465D02*
X40595488Y-9397085D01*
X40397499Y-9199095D01*
X40857118Y-8739476D01*
X41055108Y-8937465D01*
G36*
X41055108Y-8937465D02*
G01*
X40595488Y-9397085D01*
X40397499Y-9199095D01*
X40857118Y-8739476D01*
X41055108Y-8937465D01*
G37*
X40701554Y-8583912D02*
X40241935Y-9043531D01*
X40043945Y-8845542D01*
X40503565Y-8385922D01*
X40701554Y-8583912D01*
G36*
X40701554Y-8583912D02*
G01*
X40241935Y-9043531D01*
X40043945Y-8845542D01*
X40503565Y-8385922D01*
X40701554Y-8583912D01*
G37*
X40348001Y-8230359D02*
X39888382Y-8689978D01*
X39690392Y-8491988D01*
X40150011Y-8032369D01*
X40348001Y-8230359D01*
G36*
X40348001Y-8230359D02*
G01*
X39888382Y-8689978D01*
X39690392Y-8491988D01*
X40150011Y-8032369D01*
X40348001Y-8230359D01*
G37*
X39994448Y-7876805D02*
X39534828Y-8336425D01*
X39336838Y-8138435D01*
X39796458Y-7678815D01*
X39994448Y-7876805D01*
G36*
X39994448Y-7876805D02*
G01*
X39534828Y-8336425D01*
X39336838Y-8138435D01*
X39796458Y-7678815D01*
X39994448Y-7876805D01*
G37*
X39640894Y-7523252D02*
X39181275Y-7982871D01*
X38983285Y-7784881D01*
X39442904Y-7325262D01*
X39640894Y-7523252D01*
G36*
X39640894Y-7523252D02*
G01*
X39181275Y-7982871D01*
X38983285Y-7784881D01*
X39442904Y-7325262D01*
X39640894Y-7523252D01*
G37*
%TO.C,USB1*%
X7536000Y-4240000D02*
X6386000Y-4240000D01*
X6386000Y-3640000D01*
X7536000Y-3640000D01*
X7536000Y-4240000D01*
G36*
X7536000Y-4240000D02*
G01*
X6386000Y-4240000D01*
X6386000Y-3640000D01*
X7536000Y-3640000D01*
X7536000Y-4240000D01*
G37*
X7536000Y-5040000D02*
X6386000Y-5040000D01*
X6386000Y-4440000D01*
X7536000Y-4440000D01*
X7536000Y-5040000D01*
G36*
X7536000Y-5040000D02*
G01*
X6386000Y-5040000D01*
X6386000Y-4440000D01*
X7536000Y-4440000D01*
X7536000Y-5040000D01*
G37*
X7536000Y-5540000D02*
X6386000Y-5540000D01*
X6386000Y-5240000D01*
X7536000Y-5240000D01*
X7536000Y-5540000D01*
G36*
X7536000Y-5540000D02*
G01*
X6386000Y-5540000D01*
X6386000Y-5240000D01*
X7536000Y-5240000D01*
X7536000Y-5540000D01*
G37*
X7536000Y-6040000D02*
X6386000Y-6040000D01*
X6386000Y-5740000D01*
X7536000Y-5740000D01*
X7536000Y-6040000D01*
G36*
X7536000Y-6040000D02*
G01*
X6386000Y-6040000D01*
X6386000Y-5740000D01*
X7536000Y-5740000D01*
X7536000Y-6040000D01*
G37*
X7536000Y-6540000D02*
X6386000Y-6540000D01*
X6386000Y-6240000D01*
X7536000Y-6240000D01*
X7536000Y-6540000D01*
G36*
X7536000Y-6540000D02*
G01*
X6386000Y-6540000D01*
X6386000Y-6240000D01*
X7536000Y-6240000D01*
X7536000Y-6540000D01*
G37*
X7536000Y-7040000D02*
X6386000Y-7040000D01*
X6386000Y-6740000D01*
X7536000Y-6740000D01*
X7536000Y-7040000D01*
G36*
X7536000Y-7040000D02*
G01*
X6386000Y-7040000D01*
X6386000Y-6740000D01*
X7536000Y-6740000D01*
X7536000Y-7040000D01*
G37*
X7536000Y-7540000D02*
X6386000Y-7540000D01*
X6386000Y-7240000D01*
X7536000Y-7240000D01*
X7536000Y-7540000D01*
G36*
X7536000Y-7540000D02*
G01*
X6386000Y-7540000D01*
X6386000Y-7240000D01*
X7536000Y-7240000D01*
X7536000Y-7540000D01*
G37*
X7536000Y-8040000D02*
X6386000Y-8040000D01*
X6386000Y-7740000D01*
X7536000Y-7740000D01*
X7536000Y-8040000D01*
G36*
X7536000Y-8040000D02*
G01*
X6386000Y-8040000D01*
X6386000Y-7740000D01*
X7536000Y-7740000D01*
X7536000Y-8040000D01*
G37*
X7536000Y-8540000D02*
X6386000Y-8540000D01*
X6386000Y-8240000D01*
X7536000Y-8240000D01*
X7536000Y-8540000D01*
G36*
X7536000Y-8540000D02*
G01*
X6386000Y-8540000D01*
X6386000Y-8240000D01*
X7536000Y-8240000D01*
X7536000Y-8540000D01*
G37*
X7536000Y-9040000D02*
X6386000Y-9040000D01*
X6386000Y-8740000D01*
X7536000Y-8740000D01*
X7536000Y-9040000D01*
G36*
X7536000Y-9040000D02*
G01*
X6386000Y-9040000D01*
X6386000Y-8740000D01*
X7536000Y-8740000D01*
X7536000Y-9040000D01*
G37*
X7536000Y-9840000D02*
X6386000Y-9840000D01*
X6386000Y-9240000D01*
X7536000Y-9240000D01*
X7536000Y-9840000D01*
G36*
X7536000Y-9840000D02*
G01*
X6386000Y-9840000D01*
X6386000Y-9240000D01*
X7536000Y-9240000D01*
X7536000Y-9840000D01*
G37*
X7536000Y-10640000D02*
X6386000Y-10640000D01*
X6386000Y-10040000D01*
X7536000Y-10040000D01*
X7536000Y-10640000D01*
G36*
X7536000Y-10640000D02*
G01*
X6386000Y-10640000D01*
X6386000Y-10040000D01*
X7536000Y-10040000D01*
X7536000Y-10640000D01*
G37*
X6846000Y-2325000D02*
X6940000Y-2353000D01*
X7026000Y-2399000D01*
X7102000Y-2461000D01*
X7164000Y-2537000D01*
X7211000Y-2624000D01*
X7239000Y-2717000D01*
X7249000Y-2815000D01*
X7239000Y-2913000D01*
X7211000Y-3006000D01*
X7164000Y-3093000D01*
X7102000Y-3169000D01*
X7026000Y-3231000D01*
X6940000Y-3277000D01*
X6846000Y-3305000D01*
X6749000Y-3315000D01*
X5649000Y-3315000D01*
X5551000Y-3305000D01*
X5457000Y-3277000D01*
X5371000Y-3231000D01*
X5295000Y-3169000D01*
X5233000Y-3093000D01*
X5187000Y-3006000D01*
X5158000Y-2913000D01*
X5149000Y-2815000D01*
X5158000Y-2717000D01*
X5187000Y-2624000D01*
X5233000Y-2537000D01*
X5295000Y-2461000D01*
X5371000Y-2399000D01*
X5457000Y-2353000D01*
X5551000Y-2325000D01*
X5649000Y-2315000D01*
X6749000Y-2315000D01*
X6846000Y-2325000D01*
G36*
X6846000Y-2325000D02*
G01*
X6940000Y-2353000D01*
X7026000Y-2399000D01*
X7102000Y-2461000D01*
X7164000Y-2537000D01*
X7211000Y-2624000D01*
X7239000Y-2717000D01*
X7249000Y-2815000D01*
X7239000Y-2913000D01*
X7211000Y-3006000D01*
X7164000Y-3093000D01*
X7102000Y-3169000D01*
X7026000Y-3231000D01*
X6940000Y-3277000D01*
X6846000Y-3305000D01*
X6749000Y-3315000D01*
X5649000Y-3315000D01*
X5551000Y-3305000D01*
X5457000Y-3277000D01*
X5371000Y-3231000D01*
X5295000Y-3169000D01*
X5233000Y-3093000D01*
X5187000Y-3006000D01*
X5158000Y-2913000D01*
X5149000Y-2815000D01*
X5158000Y-2717000D01*
X5187000Y-2624000D01*
X5233000Y-2537000D01*
X5295000Y-2461000D01*
X5371000Y-2399000D01*
X5457000Y-2353000D01*
X5551000Y-2325000D01*
X5649000Y-2315000D01*
X6749000Y-2315000D01*
X6846000Y-2325000D01*
G37*
X2546000Y-2325000D02*
X2640000Y-2353000D01*
X2726000Y-2399000D01*
X2802000Y-2461000D01*
X2864000Y-2537000D01*
X2911000Y-2624000D01*
X2939000Y-2717000D01*
X2949000Y-2815000D01*
X2939000Y-2913000D01*
X2911000Y-3006000D01*
X2864000Y-3093000D01*
X2802000Y-3169000D01*
X2726000Y-3231000D01*
X2640000Y-3277000D01*
X2546000Y-3305000D01*
X2449000Y-3315000D01*
X1549000Y-3315000D01*
X1451000Y-3305000D01*
X1357000Y-3277000D01*
X1271000Y-3231000D01*
X1195000Y-3169000D01*
X1133000Y-3093000D01*
X1087000Y-3006000D01*
X1058000Y-2913000D01*
X1049000Y-2815000D01*
X1058000Y-2717000D01*
X1087000Y-2624000D01*
X1133000Y-2537000D01*
X1195000Y-2461000D01*
X1271000Y-2399000D01*
X1357000Y-2353000D01*
X1451000Y-2325000D01*
X1549000Y-2315000D01*
X2449000Y-2315000D01*
X2546000Y-2325000D01*
G36*
X2546000Y-2325000D02*
G01*
X2640000Y-2353000D01*
X2726000Y-2399000D01*
X2802000Y-2461000D01*
X2864000Y-2537000D01*
X2911000Y-2624000D01*
X2939000Y-2717000D01*
X2949000Y-2815000D01*
X2939000Y-2913000D01*
X2911000Y-3006000D01*
X2864000Y-3093000D01*
X2802000Y-3169000D01*
X2726000Y-3231000D01*
X2640000Y-3277000D01*
X2546000Y-3305000D01*
X2449000Y-3315000D01*
X1549000Y-3315000D01*
X1451000Y-3305000D01*
X1357000Y-3277000D01*
X1271000Y-3231000D01*
X1195000Y-3169000D01*
X1133000Y-3093000D01*
X1087000Y-3006000D01*
X1058000Y-2913000D01*
X1049000Y-2815000D01*
X1058000Y-2717000D01*
X1087000Y-2624000D01*
X1133000Y-2537000D01*
X1195000Y-2461000D01*
X1271000Y-2399000D01*
X1357000Y-2353000D01*
X1451000Y-2325000D01*
X1549000Y-2315000D01*
X2449000Y-2315000D01*
X2546000Y-2325000D01*
G37*
X6846000Y-10975000D02*
X6940000Y-11003000D01*
X7026000Y-11049000D01*
X7102000Y-11111000D01*
X7164000Y-11187000D01*
X7211000Y-11274000D01*
X7239000Y-11367000D01*
X7249000Y-11465000D01*
X7239000Y-11563000D01*
X7211000Y-11656000D01*
X7164000Y-11743000D01*
X7102000Y-11819000D01*
X7026000Y-11881000D01*
X6940000Y-11927000D01*
X6846000Y-11955000D01*
X6749000Y-11965000D01*
X5649000Y-11965000D01*
X5551000Y-11955000D01*
X5457000Y-11927000D01*
X5371000Y-11881000D01*
X5295000Y-11819000D01*
X5233000Y-11743000D01*
X5187000Y-11656000D01*
X5158000Y-11563000D01*
X5149000Y-11465000D01*
X5158000Y-11367000D01*
X5187000Y-11274000D01*
X5233000Y-11187000D01*
X5295000Y-11111000D01*
X5371000Y-11049000D01*
X5457000Y-11003000D01*
X5551000Y-10975000D01*
X5649000Y-10965000D01*
X6749000Y-10965000D01*
X6846000Y-10975000D01*
G36*
X6846000Y-10975000D02*
G01*
X6940000Y-11003000D01*
X7026000Y-11049000D01*
X7102000Y-11111000D01*
X7164000Y-11187000D01*
X7211000Y-11274000D01*
X7239000Y-11367000D01*
X7249000Y-11465000D01*
X7239000Y-11563000D01*
X7211000Y-11656000D01*
X7164000Y-11743000D01*
X7102000Y-11819000D01*
X7026000Y-11881000D01*
X6940000Y-11927000D01*
X6846000Y-11955000D01*
X6749000Y-11965000D01*
X5649000Y-11965000D01*
X5551000Y-11955000D01*
X5457000Y-11927000D01*
X5371000Y-11881000D01*
X5295000Y-11819000D01*
X5233000Y-11743000D01*
X5187000Y-11656000D01*
X5158000Y-11563000D01*
X5149000Y-11465000D01*
X5158000Y-11367000D01*
X5187000Y-11274000D01*
X5233000Y-11187000D01*
X5295000Y-11111000D01*
X5371000Y-11049000D01*
X5457000Y-11003000D01*
X5551000Y-10975000D01*
X5649000Y-10965000D01*
X6749000Y-10965000D01*
X6846000Y-10975000D01*
G37*
X2546000Y-10975000D02*
X2640000Y-11003000D01*
X2726000Y-11049000D01*
X2802000Y-11111000D01*
X2864000Y-11187000D01*
X2911000Y-11274000D01*
X2939000Y-11367000D01*
X2949000Y-11465000D01*
X2939000Y-11563000D01*
X2911000Y-11656000D01*
X2864000Y-11743000D01*
X2802000Y-11819000D01*
X2726000Y-11881000D01*
X2640000Y-11927000D01*
X2546000Y-11955000D01*
X2449000Y-11965000D01*
X1549000Y-11965000D01*
X1451000Y-11955000D01*
X1357000Y-11927000D01*
X1271000Y-11881000D01*
X1195000Y-11819000D01*
X1133000Y-11743000D01*
X1087000Y-11656000D01*
X1058000Y-11563000D01*
X1049000Y-11465000D01*
X1058000Y-11367000D01*
X1087000Y-11274000D01*
X1133000Y-11187000D01*
X1195000Y-11111000D01*
X1271000Y-11049000D01*
X1357000Y-11003000D01*
X1451000Y-10975000D01*
X1549000Y-10965000D01*
X2449000Y-10965000D01*
X2546000Y-10975000D01*
G36*
X2546000Y-10975000D02*
G01*
X2640000Y-11003000D01*
X2726000Y-11049000D01*
X2802000Y-11111000D01*
X2864000Y-11187000D01*
X2911000Y-11274000D01*
X2939000Y-11367000D01*
X2949000Y-11465000D01*
X2939000Y-11563000D01*
X2911000Y-11656000D01*
X2864000Y-11743000D01*
X2802000Y-11819000D01*
X2726000Y-11881000D01*
X2640000Y-11927000D01*
X2546000Y-11955000D01*
X2449000Y-11965000D01*
X1549000Y-11965000D01*
X1451000Y-11955000D01*
X1357000Y-11927000D01*
X1271000Y-11881000D01*
X1195000Y-11819000D01*
X1133000Y-11743000D01*
X1087000Y-11656000D01*
X1058000Y-11563000D01*
X1049000Y-11465000D01*
X1058000Y-11367000D01*
X1087000Y-11274000D01*
X1133000Y-11187000D01*
X1195000Y-11111000D01*
X1271000Y-11049000D01*
X1357000Y-11003000D01*
X1451000Y-10975000D01*
X1549000Y-10965000D01*
X2449000Y-10965000D01*
X2546000Y-10975000D01*
G37*
%TO.C,U4*%
X16155000Y-7945000D02*
X15405000Y-7945000D01*
X15405000Y-7695000D01*
X16155000Y-7695000D01*
X16155000Y-7945000D01*
G36*
X16155000Y-7945000D02*
G01*
X15405000Y-7945000D01*
X15405000Y-7695000D01*
X16155000Y-7695000D01*
X16155000Y-7945000D01*
G37*
X16155000Y-7445000D02*
X15405000Y-7445000D01*
X15405000Y-7195000D01*
X16155000Y-7195000D01*
X16155000Y-7445000D01*
G36*
X16155000Y-7445000D02*
G01*
X15405000Y-7445000D01*
X15405000Y-7195000D01*
X16155000Y-7195000D01*
X16155000Y-7445000D01*
G37*
X16155000Y-6945000D02*
X15405000Y-6945000D01*
X15405000Y-6695000D01*
X16155000Y-6695000D01*
X16155000Y-6945000D01*
G36*
X16155000Y-6945000D02*
G01*
X15405000Y-6945000D01*
X15405000Y-6695000D01*
X16155000Y-6695000D01*
X16155000Y-6945000D01*
G37*
X16155000Y-6445000D02*
X15405000Y-6445000D01*
X15405000Y-6195000D01*
X16155000Y-6195000D01*
X16155000Y-6445000D01*
G36*
X16155000Y-6445000D02*
G01*
X15405000Y-6445000D01*
X15405000Y-6195000D01*
X16155000Y-6195000D01*
X16155000Y-6445000D01*
G37*
X15010000Y-7750000D02*
X13650000Y-7750000D01*
X13650000Y-6390000D01*
X15010000Y-6390000D01*
X15010000Y-7750000D01*
G36*
X15010000Y-7750000D02*
G01*
X13650000Y-7750000D01*
X13650000Y-6390000D01*
X15010000Y-6390000D01*
X15010000Y-7750000D01*
G37*
X15204000Y-8895000D02*
X14954000Y-8895000D01*
X14954000Y-8145000D01*
X15204000Y-8145000D01*
X15204000Y-8895000D01*
G36*
X15204000Y-8895000D02*
G01*
X14954000Y-8895000D01*
X14954000Y-8145000D01*
X15204000Y-8145000D01*
X15204000Y-8895000D01*
G37*
X15203000Y-5995000D02*
X14953000Y-5995000D01*
X14953000Y-5245000D01*
X15203000Y-5245000D01*
X15203000Y-5995000D01*
G36*
X15203000Y-5995000D02*
G01*
X14953000Y-5995000D01*
X14953000Y-5245000D01*
X15203000Y-5245000D01*
X15203000Y-5995000D01*
G37*
X14704000Y-8895000D02*
X14454000Y-8895000D01*
X14454000Y-8145000D01*
X14704000Y-8145000D01*
X14704000Y-8895000D01*
G36*
X14704000Y-8895000D02*
G01*
X14454000Y-8895000D01*
X14454000Y-8145000D01*
X14704000Y-8145000D01*
X14704000Y-8895000D01*
G37*
X14704000Y-5995000D02*
X14454000Y-5995000D01*
X14454000Y-5245000D01*
X14704000Y-5245000D01*
X14704000Y-5995000D01*
G36*
X14704000Y-5995000D02*
G01*
X14454000Y-5995000D01*
X14454000Y-5245000D01*
X14704000Y-5245000D01*
X14704000Y-5995000D01*
G37*
X14204000Y-8895000D02*
X13954000Y-8895000D01*
X13954000Y-8145000D01*
X14204000Y-8145000D01*
X14204000Y-8895000D01*
G36*
X14204000Y-8895000D02*
G01*
X13954000Y-8895000D01*
X13954000Y-8145000D01*
X14204000Y-8145000D01*
X14204000Y-8895000D01*
G37*
X14203000Y-5995000D02*
X13953000Y-5995000D01*
X13953000Y-5245000D01*
X14203000Y-5245000D01*
X14203000Y-5995000D01*
G36*
X14203000Y-5995000D02*
G01*
X13953000Y-5995000D01*
X13953000Y-5245000D01*
X14203000Y-5245000D01*
X14203000Y-5995000D01*
G37*
X13704000Y-8895000D02*
X13454000Y-8895000D01*
X13454000Y-8145000D01*
X13704000Y-8145000D01*
X13704000Y-8895000D01*
G36*
X13704000Y-8895000D02*
G01*
X13454000Y-8895000D01*
X13454000Y-8145000D01*
X13704000Y-8145000D01*
X13704000Y-8895000D01*
G37*
X13704000Y-5995000D02*
X13454000Y-5995000D01*
X13454000Y-5245000D01*
X13704000Y-5245000D01*
X13704000Y-5995000D01*
G36*
X13704000Y-5995000D02*
G01*
X13454000Y-5995000D01*
X13454000Y-5245000D01*
X13704000Y-5245000D01*
X13704000Y-5995000D01*
G37*
X13255000Y-7945000D02*
X12505000Y-7945000D01*
X12505000Y-7695000D01*
X13255000Y-7695000D01*
X13255000Y-7945000D01*
G36*
X13255000Y-7945000D02*
G01*
X12505000Y-7945000D01*
X12505000Y-7695000D01*
X13255000Y-7695000D01*
X13255000Y-7945000D01*
G37*
X13255000Y-7445000D02*
X12505000Y-7445000D01*
X12505000Y-7195000D01*
X13255000Y-7195000D01*
X13255000Y-7445000D01*
G36*
X13255000Y-7445000D02*
G01*
X12505000Y-7445000D01*
X12505000Y-7195000D01*
X13255000Y-7195000D01*
X13255000Y-7445000D01*
G37*
X13255000Y-6945000D02*
X12505000Y-6945000D01*
X12505000Y-6695000D01*
X13255000Y-6695000D01*
X13255000Y-6945000D01*
G36*
X13255000Y-6945000D02*
G01*
X12505000Y-6945000D01*
X12505000Y-6695000D01*
X13255000Y-6695000D01*
X13255000Y-6945000D01*
G37*
X13255000Y-6445000D02*
X12505000Y-6445000D01*
X12505000Y-6195000D01*
X13255000Y-6195000D01*
X13255000Y-6445000D01*
G36*
X13255000Y-6445000D02*
G01*
X12505000Y-6445000D01*
X12505000Y-6195000D01*
X13255000Y-6195000D01*
X13255000Y-6445000D01*
G37*
%TD*%
D11*
%TO.C,VT2*%
X20975000Y-3430000D03*
X20975000Y-5330000D03*
X23245000Y-4380000D03*
%TD*%
D12*
%TO.C,R1*%
X6050000Y-13810000D03*
X7070000Y-13810000D03*
%TD*%
D13*
%TO.C,U3*%
X45290677Y-6625226D03*
X44937124Y-6271673D03*
X44583571Y-5918119D03*
X44230017Y-5564566D03*
X43876464Y-5211013D03*
X43522911Y-4857459D03*
X43169357Y-4503906D03*
X42815804Y-4150353D03*
D14*
X41786256Y-4150353D03*
X41432703Y-4503906D03*
X41079149Y-4857459D03*
X40725596Y-5211013D03*
X40372043Y-5564566D03*
X40018489Y-5918119D03*
X39664936Y-6271673D03*
X39311383Y-6625226D03*
D13*
X39311383Y-7654774D03*
X39664936Y-8008327D03*
X40018489Y-8361881D03*
X40372043Y-8715434D03*
X40725596Y-9068987D03*
X41079149Y-9422541D03*
X41432703Y-9776094D03*
X41786256Y-10129647D03*
D14*
X42815804Y-10129647D03*
X43169357Y-9776094D03*
X43522911Y-9422541D03*
X43876464Y-9068987D03*
X44230017Y-8715434D03*
X44583571Y-8361881D03*
X44937124Y-8008327D03*
X45290677Y-7654774D03*
D15*
X42301030Y-7140000D03*
%TD*%
D12*
%TO.C,R6*%
X18150000Y-7220000D03*
X19170000Y-7220000D03*
%TD*%
D16*
%TO.C,R7*%
X19170000Y-3450000D03*
X18150000Y-3450000D03*
%TD*%
D17*
%TO.C,SW2*%
X29500000Y-5505000D03*
X25200000Y-5505000D03*
X29500000Y-3355000D03*
X25200000Y-3355000D03*
%TD*%
D18*
%TO.C,C11*%
X13580000Y-11070000D03*
X13580000Y-10110000D03*
%TD*%
%TO.C,C16*%
X15070000Y-4090000D03*
X15070000Y-3130000D03*
%TD*%
D12*
%TO.C,R2*%
X39640000Y-2630000D03*
X40660000Y-2630000D03*
%TD*%
D19*
%TO.C,Y1*%
X47970000Y-9610000D03*
X47970000Y-11810000D03*
X49670000Y-11810000D03*
X49670000Y-9610000D03*
%TD*%
D18*
%TO.C,C4*%
X44800000Y-3134155D03*
X44800000Y-2174155D03*
%TD*%
D20*
%TO.C,C14*%
X34940000Y-2800000D03*
X35900000Y-2800000D03*
%TD*%
D18*
%TO.C,C5*%
X45880000Y-3134155D03*
X45880000Y-2174155D03*
%TD*%
D21*
%TO.C,C18*%
X35920000Y-7400000D03*
X34960000Y-7400000D03*
%TD*%
D11*
%TO.C,VT1*%
X20955000Y-8900000D03*
X20955000Y-10800000D03*
X23225000Y-9850000D03*
%TD*%
D20*
%TO.C,C12*%
X47670000Y-7890000D03*
X48630000Y-7890000D03*
%TD*%
D18*
%TO.C,C15*%
X51190000Y-10170000D03*
X51190000Y-9210000D03*
%TD*%
D12*
%TO.C,R5*%
X18150000Y-5330000D03*
X19170000Y-5330000D03*
%TD*%
D20*
%TO.C,C10*%
X47670000Y-6970000D03*
X48630000Y-6970000D03*
%TD*%
D18*
%TO.C,C3*%
X13800000Y-14750000D03*
X13800000Y-13790000D03*
%TD*%
D12*
%TO.C,R8*%
X18140000Y-9070000D03*
X19160000Y-9070000D03*
%TD*%
%TO.C,R3*%
X18150000Y-10900000D03*
X19170000Y-10900000D03*
%TD*%
D22*
%TO.C,USB1*%
X6961000Y-3940000D03*
X6961000Y-4740000D03*
D23*
X6961000Y-5890000D03*
X6961000Y-6890000D03*
X6961000Y-7390000D03*
X6961000Y-8390000D03*
D22*
X6961000Y-10340000D03*
X6961000Y-9540000D03*
D23*
X6961000Y-8890000D03*
X6961000Y-7890000D03*
X6961000Y-6390000D03*
X6961000Y-5390000D03*
%TD*%
D24*
%TO.C,D1*%
X5222500Y-15370000D03*
X6797500Y-15370000D03*
%TD*%
D25*
%TO.C,U1*%
X9966000Y-13790000D03*
X9966000Y-14740000D03*
X9966000Y-15690000D03*
X12566000Y-15690000D03*
X12566000Y-13790000D03*
%TD*%
D18*
%TO.C,C9*%
X43730000Y-3134155D03*
X43730000Y-2174155D03*
%TD*%
D26*
%TO.C,U4*%
X15078000Y-5620000D03*
X14579000Y-5620000D03*
X14078000Y-5620000D03*
X13579000Y-5620000D03*
D27*
X12880000Y-6320000D03*
X12880000Y-6820000D03*
X12880000Y-7320000D03*
X12880000Y-7820000D03*
D26*
X13580000Y-8520000D03*
X14080000Y-8520000D03*
X14580000Y-8520000D03*
X15079000Y-8520000D03*
D27*
X15780000Y-7820000D03*
X15780000Y-7320000D03*
X15780000Y-6820000D03*
X15780000Y-6320000D03*
D28*
X14330000Y-7070000D03*
%TD*%
D18*
%TO.C,C2*%
X8730000Y-14750000D03*
X8730000Y-13790000D03*
%TD*%
D16*
%TO.C,R4*%
X35950000Y-3890000D03*
X34930000Y-3890000D03*
%TD*%
D29*
%TO.C,C17*%
X51190000Y-11300000D03*
X51190000Y-12260000D03*
%TD*%
D21*
%TO.C,C19*%
X35920000Y-8480000D03*
X34960000Y-8480000D03*
%TD*%
D18*
%TO.C,C7*%
X46950000Y-3134155D03*
X46950000Y-2174155D03*
%TD*%
D29*
%TO.C,C13*%
X13570000Y-3120000D03*
X13570000Y-4080000D03*
%TD*%
D17*
%TO.C,SW1*%
X29500000Y-10885000D03*
X25200000Y-10885000D03*
X29500000Y-8735000D03*
X25200000Y-8735000D03*
%TD*%
M02*
