%TF.GenerationSoftware,KiCad,Pcbnew,(6.0.9)*%
%TF.CreationDate,2022-12-08T03:03:50+08:00*%
%TF.ProjectId,UINIO-MCU-ESP32C3,55494e49-4f2d-44d4-9355-2d4553503332,Version 1.0.0*%
%TF.SameCoordinates,Original*%
%TF.FileFunction,Soldermask,Top*%
%TF.FilePolarity,Negative*%
%FSLAX46Y46*%
G04 Gerber Fmt 4.6, Leading zero omitted, Abs format (unit mm)*
G04 Created by KiCad (PCBNEW (6.0.9)) date 2022-12-08 03:03:50*
%MOMM*%
%LPD*%
G01*
G04 APERTURE LIST*
G04 Aperture macros list*
%AMRoundRect*
0 Rectangle with rounded corners*
0 $1 Rounding radius*
0 $2 $3 $4 $5 $6 $7 $8 $9 X,Y pos of 4 corners*
0 Add a 4 corners polygon primitive as box body*
4,1,4,$2,$3,$4,$5,$6,$7,$8,$9,$2,$3,0*
0 Add four circle primitives for the rounded corners*
1,1,$1+$1,$2,$3*
1,1,$1+$1,$4,$5*
1,1,$1+$1,$6,$7*
1,1,$1+$1,$8,$9*
0 Add four rect primitives between the rounded corners*
20,1,$1+$1,$2,$3,$4,$5,0*
20,1,$1+$1,$4,$5,$6,$7,0*
20,1,$1+$1,$6,$7,$8,$9,0*
20,1,$1+$1,$8,$9,$2,$3,0*%
%AMRotRect*
0 Rectangle, with rotation*
0 The origin of the aperture is its center*
0 $1 length*
0 $2 width*
0 $3 Rotation angle, in degrees counterclockwise*
0 Add horizontal line*
21,1,$1,$2,0,0,$3*%
G04 Aperture macros list end*
%ADD10C,1.200000*%
%ADD11R,1.070000X0.532000*%
%ADD12RoundRect,0.135000X-0.135000X-0.185000X0.135000X-0.185000X0.135000X0.185000X-0.135000X0.185000X0*%
%ADD13C,0.610000*%
%ADD14RotRect,0.650000X0.280000X225.000000*%
%ADD15RotRect,0.280000X0.650000X225.000000*%
%ADD16RotRect,3.800000X3.800000X225.000000*%
%ADD17RoundRect,0.147500X-0.017678X0.226274X-0.226274X0.017678X0.017678X-0.226274X0.226274X-0.017678X0*%
%ADD18R,1.700000X1.700000*%
%ADD19O,1.700000X1.700000*%
%ADD20RoundRect,0.135000X0.135000X0.185000X-0.135000X0.185000X-0.135000X-0.185000X0.135000X-0.185000X0*%
%ADD21R,1.200000X0.650000*%
%ADD22RoundRect,0.140000X0.170000X-0.140000X0.170000X0.140000X-0.170000X0.140000X-0.170000X-0.140000X0*%
%ADD23R,1.200000X1.400000*%
%ADD24RoundRect,0.140000X-0.140000X-0.170000X0.140000X-0.170000X0.140000X0.170000X-0.140000X0.170000X0*%
%ADD25RoundRect,0.140000X0.140000X0.170000X-0.140000X0.170000X-0.140000X-0.170000X0.140000X-0.170000X0*%
%ADD26RoundRect,0.140000X-0.219203X-0.021213X-0.021213X-0.219203X0.219203X0.021213X0.021213X0.219203X0*%
%ADD27C,0.650000*%
%ADD28O,2.100000X1.000000*%
%ADD29O,1.900000X1.000000*%
%ADD30R,1.150000X0.600000*%
%ADD31R,1.150000X0.300000*%
%ADD32RoundRect,0.218750X-0.218750X-0.256250X0.218750X-0.256250X0.218750X0.256250X-0.218750X0.256250X0*%
%ADD33R,1.000000X0.600000*%
%ADD34R,0.250000X0.750000*%
%ADD35R,0.750000X0.250000*%
%ADD36RoundRect,0.140000X-0.170000X0.140000X-0.170000X-0.140000X0.170000X-0.140000X0.170000X0.140000X0*%
G04 APERTURE END LIST*
D10*
%TO.C,HOLE2*%
X135620000Y-94160000D03*
%TD*%
D11*
%TO.C,VT2*%
X141985000Y-99290000D03*
X141985000Y-101190000D03*
X144255000Y-100240000D03*
%TD*%
D12*
%TO.C,R1*%
X126790000Y-109650000D03*
X127810000Y-109650000D03*
%TD*%
D13*
%TO.C,U3*%
X164159558Y-102980000D03*
X163311030Y-102131472D03*
X162462502Y-102980000D03*
X163311030Y-103828528D03*
D14*
X166300677Y-102465226D03*
X165947124Y-102111673D03*
X165593571Y-101758119D03*
X165240017Y-101404566D03*
X164886464Y-101051013D03*
X164532911Y-100697459D03*
X164179357Y-100343906D03*
X163825804Y-99990353D03*
D15*
X162796256Y-99990353D03*
X162442703Y-100343906D03*
X162089149Y-100697459D03*
X161735596Y-101051013D03*
X161382043Y-101404566D03*
X161028489Y-101758119D03*
X160674936Y-102111673D03*
X160321383Y-102465226D03*
D14*
X160321383Y-103494774D03*
X160674936Y-103848327D03*
X161028489Y-104201881D03*
X161382043Y-104555434D03*
X161735596Y-104908987D03*
X162089149Y-105262541D03*
X162442703Y-105616094D03*
X162796256Y-105969647D03*
D15*
X163825804Y-105969647D03*
X164179357Y-105616094D03*
X164532911Y-105262541D03*
X164886464Y-104908987D03*
X165240017Y-104555434D03*
X165593571Y-104201881D03*
X165947124Y-103848327D03*
X166300677Y-103494774D03*
D16*
X163311030Y-102980000D03*
%TD*%
D17*
%TO.C,L1*%
X169680658Y-99080520D03*
X168994764Y-99766414D03*
%TD*%
D12*
%TO.C,R6*%
X139160000Y-104700000D03*
X140180000Y-104700000D03*
%TD*%
D18*
%TO.C,J3*%
X173740000Y-111720000D03*
D19*
X171200000Y-111720000D03*
X168660000Y-111720000D03*
X166120000Y-111720000D03*
X163580000Y-111720000D03*
X161040000Y-111720000D03*
X158500000Y-111720000D03*
X155960000Y-111720000D03*
X153420000Y-111720000D03*
X150880000Y-111720000D03*
X148340000Y-111720000D03*
X145800000Y-111720000D03*
X143260000Y-111720000D03*
X140720000Y-111720000D03*
X138180000Y-111720000D03*
%TD*%
D20*
%TO.C,R7*%
X140180000Y-99290000D03*
X139160000Y-99290000D03*
%TD*%
D10*
%TO.C,HOLE1*%
X122870000Y-95040000D03*
%TD*%
D21*
%TO.C,SW2*%
X150510000Y-101345000D03*
X146210000Y-101345000D03*
X150510000Y-99195000D03*
X146210000Y-99195000D03*
%TD*%
D22*
%TO.C,C11*%
X134590000Y-106910000D03*
X134590000Y-105950000D03*
%TD*%
%TO.C,C16*%
X136080000Y-99930000D03*
X136080000Y-98970000D03*
%TD*%
D12*
%TO.C,R2*%
X160650000Y-98470000D03*
X161670000Y-98470000D03*
%TD*%
D23*
%TO.C,Y1*%
X168980000Y-105450000D03*
X168980000Y-107650000D03*
X170680000Y-107650000D03*
X170680000Y-105450000D03*
%TD*%
D22*
%TO.C,C4*%
X165540000Y-98940000D03*
X165540000Y-97980000D03*
%TD*%
D24*
%TO.C,C14*%
X155950000Y-98640000D03*
X156910000Y-98640000D03*
%TD*%
D22*
%TO.C,C5*%
X166470000Y-98940000D03*
X166470000Y-97980000D03*
%TD*%
D25*
%TO.C,C18*%
X156930000Y-103240000D03*
X155970000Y-103240000D03*
%TD*%
D18*
%TO.C,J2*%
X133110000Y-94150000D03*
D19*
X130570000Y-94150000D03*
X128030000Y-94150000D03*
X125490000Y-94150000D03*
%TD*%
D11*
%TO.C,VT1*%
X141985000Y-104680000D03*
X141985000Y-106580000D03*
X144255000Y-105630000D03*
%TD*%
D26*
%TO.C,C8*%
X168354832Y-100406346D03*
X169033654Y-101085168D03*
%TD*%
D24*
%TO.C,C12*%
X168680000Y-103730000D03*
X169640000Y-103730000D03*
%TD*%
D22*
%TO.C,C15*%
X172200000Y-105840000D03*
X172200000Y-104880000D03*
%TD*%
D12*
%TO.C,R5*%
X139160000Y-101190000D03*
X140180000Y-101190000D03*
%TD*%
D24*
%TO.C,C10*%
X168680000Y-102810000D03*
X169640000Y-102810000D03*
%TD*%
D22*
%TO.C,C3*%
X134810000Y-110590000D03*
X134810000Y-109630000D03*
%TD*%
D10*
%TO.C,HOLE3*%
X176100000Y-94210000D03*
%TD*%
D27*
%TO.C,USB1*%
X126709000Y-100090000D03*
X126709000Y-105870000D03*
D28*
X127209000Y-98655000D03*
X127209000Y-107305000D03*
D29*
X123009000Y-98655000D03*
X123009000Y-107305000D03*
D30*
X127971000Y-99780000D03*
X127971000Y-100580000D03*
D31*
X127971000Y-101730000D03*
X127971000Y-102730000D03*
X127971000Y-103230000D03*
X127971000Y-104230000D03*
D30*
X127971000Y-106180000D03*
X127971000Y-105380000D03*
D31*
X127971000Y-104730000D03*
X127971000Y-103730000D03*
X127971000Y-102230000D03*
X127971000Y-101230000D03*
%TD*%
D32*
%TO.C,D1*%
X126232500Y-111210000D03*
X127807500Y-111210000D03*
%TD*%
D33*
%TO.C,U1*%
X130976000Y-109630000D03*
X130976000Y-110580000D03*
X130976000Y-111530000D03*
X133576000Y-111530000D03*
X133576000Y-109630000D03*
%TD*%
D22*
%TO.C,C9*%
X164610000Y-98940000D03*
X164610000Y-97980000D03*
%TD*%
D34*
%TO.C,U4*%
X136088000Y-101460000D03*
X135589000Y-101460000D03*
X135088000Y-101460000D03*
X134589000Y-101460000D03*
D35*
X133890000Y-102160000D03*
X133890000Y-102660000D03*
X133890000Y-103160000D03*
X133890000Y-103660000D03*
D34*
X134590000Y-104360000D03*
X135090000Y-104360000D03*
X135590000Y-104360000D03*
X136089000Y-104360000D03*
D35*
X136790000Y-103660000D03*
X136790000Y-103160000D03*
X136790000Y-102660000D03*
X136790000Y-102160000D03*
D18*
X135340000Y-102910000D03*
%TD*%
D22*
%TO.C,C2*%
X129740000Y-110590000D03*
X129740000Y-109630000D03*
%TD*%
D20*
%TO.C,R4*%
X156960000Y-99730000D03*
X155940000Y-99730000D03*
%TD*%
D36*
%TO.C,C17*%
X172200000Y-106970000D03*
X172200000Y-107930000D03*
%TD*%
D25*
%TO.C,C19*%
X156940000Y-104930000D03*
X155980000Y-104930000D03*
%TD*%
D22*
%TO.C,C7*%
X167390000Y-98940000D03*
X167390000Y-97980000D03*
%TD*%
D26*
%TO.C,C6*%
X170999411Y-99119411D03*
X170320589Y-98440589D03*
%TD*%
D36*
%TO.C,C13*%
X134580000Y-98960000D03*
X134580000Y-99920000D03*
%TD*%
D10*
%TO.C,HOLE4*%
X176100000Y-111700000D03*
%TD*%
%TO.C,HOLE5*%
X122870000Y-110840000D03*
%TD*%
D21*
%TO.C,SW1*%
X150510000Y-106725000D03*
X146210000Y-106725000D03*
X150510000Y-104575000D03*
X146210000Y-104575000D03*
%TD*%
D18*
%TO.C,J1*%
X173740000Y-94160000D03*
D19*
X171200000Y-94160000D03*
X168660000Y-94160000D03*
X166120000Y-94160000D03*
X163580000Y-94160000D03*
X161040000Y-94160000D03*
X158500000Y-94160000D03*
X155960000Y-94160000D03*
X153420000Y-94160000D03*
X150880000Y-94160000D03*
X148340000Y-94160000D03*
X145800000Y-94160000D03*
X143260000Y-94160000D03*
X140720000Y-94160000D03*
X138180000Y-94160000D03*
%TD*%
M02*
