%TF.GenerationSoftware,KiCad,Pcbnew,(7.0.0)*%
%TF.CreationDate,2023-03-03T19:32:25+08:00*%
%TF.ProjectId,UINIO-MCU-ESP32C3,55494e49-4f2d-44d4-9355-2d4553503332,Version 3.3.0*%
%TF.SameCoordinates,PX735b400PY5c274f0*%
%TF.FileFunction,Paste,Top*%
%TF.FilePolarity,Positive*%
%FSLAX46Y46*%
G04 Gerber Fmt 4.6, Leading zero omitted, Abs format (unit mm)*
G04 Created by KiCad (PCBNEW (7.0.0)) date 2023-03-03 19:32:25*
%MOMM*%
%LPD*%
G01*
G04 APERTURE LIST*
G04 Aperture macros list*
%AMRoundRect*
0 Rectangle with rounded corners*
0 $1 Rounding radius*
0 $2 $3 $4 $5 $6 $7 $8 $9 X,Y pos of 4 corners*
0 Add a 4 corners polygon primitive as box body*
4,1,4,$2,$3,$4,$5,$6,$7,$8,$9,$2,$3,0*
0 Add four circle primitives for the rounded corners*
1,1,$1+$1,$2,$3*
1,1,$1+$1,$4,$5*
1,1,$1+$1,$6,$7*
1,1,$1+$1,$8,$9*
0 Add four rect primitives between the rounded corners*
20,1,$1+$1,$2,$3,$4,$5,0*
20,1,$1+$1,$4,$5,$6,$7,0*
20,1,$1+$1,$6,$7,$8,$9,0*
20,1,$1+$1,$8,$9,$2,$3,0*%
%AMRotRect*
0 Rectangle, with rotation*
0 The origin of the aperture is its center*
0 $1 length*
0 $2 width*
0 $3 Rotation angle, in degrees counterclockwise*
0 Add horizontal line*
21,1,$1,$2,0,0,$3*%
G04 Aperture macros list end*
%ADD10C,0.120000*%
%ADD11R,1.070000X0.532000*%
%ADD12RoundRect,0.135000X-0.135000X-0.185000X0.135000X-0.185000X0.135000X0.185000X-0.135000X0.185000X0*%
%ADD13RotRect,0.650000X0.280000X225.000000*%
%ADD14RotRect,0.280000X0.650000X225.000000*%
%ADD15RotRect,3.800000X3.800000X225.000000*%
%ADD16RoundRect,0.147500X-0.017678X0.226274X-0.226274X0.017678X0.017678X-0.226274X0.226274X-0.017678X0*%
%ADD17RoundRect,0.135000X0.135000X0.185000X-0.135000X0.185000X-0.135000X-0.185000X0.135000X-0.185000X0*%
%ADD18R,1.200000X0.650000*%
%ADD19RoundRect,0.140000X0.170000X-0.140000X0.170000X0.140000X-0.170000X0.140000X-0.170000X-0.140000X0*%
%ADD20R,1.200000X1.400000*%
%ADD21RoundRect,0.140000X-0.140000X-0.170000X0.140000X-0.170000X0.140000X0.170000X-0.140000X0.170000X0*%
%ADD22RoundRect,0.140000X0.140000X0.170000X-0.140000X0.170000X-0.140000X-0.170000X0.140000X-0.170000X0*%
%ADD23RoundRect,0.140000X-0.219203X-0.021213X-0.021213X-0.219203X0.219203X0.021213X0.021213X0.219203X0*%
%ADD24R,1.150000X0.600000*%
%ADD25R,1.150000X0.300000*%
%ADD26RoundRect,0.218750X-0.218750X-0.256250X0.218750X-0.256250X0.218750X0.256250X-0.218750X0.256250X0*%
%ADD27R,1.000000X0.600000*%
%ADD28R,0.250000X0.750000*%
%ADD29R,0.750000X0.250000*%
%ADD30R,1.700000X1.700000*%
%ADD31RoundRect,0.140000X-0.170000X0.140000X-0.170000X-0.140000X0.170000X-0.140000X0.170000X0.140000X0*%
G04 APERTURE END LIST*
%TO.C,U3*%
G36*
X45668775Y-5705119D02*
G01*
X45209156Y-6164738D01*
X45011166Y-5966748D01*
X45470785Y-5507129D01*
X45668775Y-5705119D01*
G37*
D10*
X45668775Y-5705119D02*
X45209156Y-6164738D01*
X45011166Y-5966748D01*
X45470785Y-5507129D01*
X45668775Y-5705119D01*
G36*
X45315222Y-5351565D02*
G01*
X44855602Y-5811185D01*
X44657612Y-5613195D01*
X45117232Y-5153575D01*
X45315222Y-5351565D01*
G37*
X45315222Y-5351565D02*
X44855602Y-5811185D01*
X44657612Y-5613195D01*
X45117232Y-5153575D01*
X45315222Y-5351565D01*
G36*
X44961668Y-4998012D02*
G01*
X44502049Y-5457631D01*
X44304059Y-5259641D01*
X44763678Y-4800022D01*
X44961668Y-4998012D01*
G37*
X44961668Y-4998012D02*
X44502049Y-5457631D01*
X44304059Y-5259641D01*
X44763678Y-4800022D01*
X44961668Y-4998012D01*
G36*
X44608115Y-4644458D02*
G01*
X44148495Y-5104078D01*
X43950506Y-4906088D01*
X44410125Y-4446469D01*
X44608115Y-4644458D01*
G37*
X44608115Y-4644458D02*
X44148495Y-5104078D01*
X43950506Y-4906088D01*
X44410125Y-4446469D01*
X44608115Y-4644458D01*
G36*
X44254561Y-4290905D02*
G01*
X43794942Y-4750524D01*
X43596952Y-4552535D01*
X44056572Y-4092915D01*
X44254561Y-4290905D01*
G37*
X44254561Y-4290905D02*
X43794942Y-4750524D01*
X43596952Y-4552535D01*
X44056572Y-4092915D01*
X44254561Y-4290905D01*
G36*
X43901008Y-3937352D02*
G01*
X43441389Y-4396971D01*
X43243399Y-4198981D01*
X43703018Y-3739362D01*
X43901008Y-3937352D01*
G37*
X43901008Y-3937352D02*
X43441389Y-4396971D01*
X43243399Y-4198981D01*
X43703018Y-3739362D01*
X43901008Y-3937352D01*
G36*
X43547455Y-3583798D02*
G01*
X43087835Y-4043418D01*
X42889845Y-3845428D01*
X43349465Y-3385808D01*
X43547455Y-3583798D01*
G37*
X43547455Y-3583798D02*
X43087835Y-4043418D01*
X42889845Y-3845428D01*
X43349465Y-3385808D01*
X43547455Y-3583798D01*
G36*
X43193901Y-3230245D02*
G01*
X42734282Y-3689864D01*
X42536292Y-3491874D01*
X42995911Y-3032255D01*
X43193901Y-3230245D01*
G37*
X43193901Y-3230245D02*
X42734282Y-3689864D01*
X42536292Y-3491874D01*
X42995911Y-3032255D01*
X43193901Y-3230245D01*
G36*
X45668775Y-6994881D02*
G01*
X45470785Y-7192871D01*
X45011166Y-6733252D01*
X45209156Y-6535262D01*
X45668775Y-6994881D01*
G37*
X45668775Y-6994881D02*
X45470785Y-7192871D01*
X45011166Y-6733252D01*
X45209156Y-6535262D01*
X45668775Y-6994881D01*
G36*
X42165768Y-3491874D02*
G01*
X41967778Y-3689864D01*
X41508159Y-3230245D01*
X41706149Y-3032255D01*
X42165768Y-3491874D01*
G37*
X42165768Y-3491874D02*
X41967778Y-3689864D01*
X41508159Y-3230245D01*
X41706149Y-3032255D01*
X42165768Y-3491874D01*
G36*
X44500635Y-6350000D02*
G01*
X42351030Y-8499605D01*
X40201425Y-6350000D01*
X42351030Y-4200395D01*
X44500635Y-6350000D01*
G37*
X44500635Y-6350000D02*
X42351030Y-8499605D01*
X40201425Y-6350000D01*
X42351030Y-4200395D01*
X44500635Y-6350000D01*
G36*
X45315222Y-7348435D02*
G01*
X45117232Y-7546425D01*
X44657612Y-7086805D01*
X44855602Y-6888815D01*
X45315222Y-7348435D01*
G37*
X45315222Y-7348435D02*
X45117232Y-7546425D01*
X44657612Y-7086805D01*
X44855602Y-6888815D01*
X45315222Y-7348435D01*
G36*
X41812215Y-3845428D02*
G01*
X41614225Y-4043418D01*
X41154605Y-3583798D01*
X41352595Y-3385808D01*
X41812215Y-3845428D01*
G37*
X41812215Y-3845428D02*
X41614225Y-4043418D01*
X41154605Y-3583798D01*
X41352595Y-3385808D01*
X41812215Y-3845428D01*
G36*
X44961668Y-7701988D02*
G01*
X44763678Y-7899978D01*
X44304059Y-7440359D01*
X44502049Y-7242369D01*
X44961668Y-7701988D01*
G37*
X44961668Y-7701988D02*
X44763678Y-7899978D01*
X44304059Y-7440359D01*
X44502049Y-7242369D01*
X44961668Y-7701988D01*
G36*
X41458661Y-4198981D02*
G01*
X41260671Y-4396971D01*
X40801052Y-3937352D01*
X40999042Y-3739362D01*
X41458661Y-4198981D01*
G37*
X41458661Y-4198981D02*
X41260671Y-4396971D01*
X40801052Y-3937352D01*
X40999042Y-3739362D01*
X41458661Y-4198981D01*
G36*
X44608115Y-8055542D02*
G01*
X44410125Y-8253531D01*
X43950506Y-7793912D01*
X44148495Y-7595922D01*
X44608115Y-8055542D01*
G37*
X44608115Y-8055542D02*
X44410125Y-8253531D01*
X43950506Y-7793912D01*
X44148495Y-7595922D01*
X44608115Y-8055542D01*
G36*
X41105108Y-4552535D02*
G01*
X40907118Y-4750524D01*
X40447499Y-4290905D01*
X40645488Y-4092915D01*
X41105108Y-4552535D01*
G37*
X41105108Y-4552535D02*
X40907118Y-4750524D01*
X40447499Y-4290905D01*
X40645488Y-4092915D01*
X41105108Y-4552535D01*
G36*
X44254561Y-8409095D02*
G01*
X44056572Y-8607085D01*
X43596952Y-8147465D01*
X43794942Y-7949476D01*
X44254561Y-8409095D01*
G37*
X44254561Y-8409095D02*
X44056572Y-8607085D01*
X43596952Y-8147465D01*
X43794942Y-7949476D01*
X44254561Y-8409095D01*
G36*
X40751554Y-4906088D02*
G01*
X40553565Y-5104078D01*
X40093945Y-4644458D01*
X40291935Y-4446469D01*
X40751554Y-4906088D01*
G37*
X40751554Y-4906088D02*
X40553565Y-5104078D01*
X40093945Y-4644458D01*
X40291935Y-4446469D01*
X40751554Y-4906088D01*
G36*
X43901008Y-8762648D02*
G01*
X43703018Y-8960638D01*
X43243399Y-8501019D01*
X43441389Y-8303029D01*
X43901008Y-8762648D01*
G37*
X43901008Y-8762648D02*
X43703018Y-8960638D01*
X43243399Y-8501019D01*
X43441389Y-8303029D01*
X43901008Y-8762648D01*
G36*
X40398001Y-5259641D02*
G01*
X40200011Y-5457631D01*
X39740392Y-4998012D01*
X39938382Y-4800022D01*
X40398001Y-5259641D01*
G37*
X40398001Y-5259641D02*
X40200011Y-5457631D01*
X39740392Y-4998012D01*
X39938382Y-4800022D01*
X40398001Y-5259641D01*
G36*
X43547455Y-9116202D02*
G01*
X43349465Y-9314192D01*
X42889845Y-8854572D01*
X43087835Y-8656582D01*
X43547455Y-9116202D01*
G37*
X43547455Y-9116202D02*
X43349465Y-9314192D01*
X42889845Y-8854572D01*
X43087835Y-8656582D01*
X43547455Y-9116202D01*
G36*
X40044448Y-5613195D02*
G01*
X39846458Y-5811185D01*
X39386838Y-5351565D01*
X39584828Y-5153575D01*
X40044448Y-5613195D01*
G37*
X40044448Y-5613195D02*
X39846458Y-5811185D01*
X39386838Y-5351565D01*
X39584828Y-5153575D01*
X40044448Y-5613195D01*
G36*
X43193901Y-9469755D02*
G01*
X42995911Y-9667745D01*
X42536292Y-9208126D01*
X42734282Y-9010136D01*
X43193901Y-9469755D01*
G37*
X43193901Y-9469755D02*
X42995911Y-9667745D01*
X42536292Y-9208126D01*
X42734282Y-9010136D01*
X43193901Y-9469755D01*
G36*
X39690894Y-5966748D02*
G01*
X39492904Y-6164738D01*
X39033285Y-5705119D01*
X39231275Y-5507129D01*
X39690894Y-5966748D01*
G37*
X39690894Y-5966748D02*
X39492904Y-6164738D01*
X39033285Y-5705119D01*
X39231275Y-5507129D01*
X39690894Y-5966748D01*
G36*
X42165768Y-9208126D02*
G01*
X41706149Y-9667745D01*
X41508159Y-9469755D01*
X41967778Y-9010136D01*
X42165768Y-9208126D01*
G37*
X42165768Y-9208126D02*
X41706149Y-9667745D01*
X41508159Y-9469755D01*
X41967778Y-9010136D01*
X42165768Y-9208126D01*
G36*
X41812215Y-8854572D02*
G01*
X41352595Y-9314192D01*
X41154605Y-9116202D01*
X41614225Y-8656582D01*
X41812215Y-8854572D01*
G37*
X41812215Y-8854572D02*
X41352595Y-9314192D01*
X41154605Y-9116202D01*
X41614225Y-8656582D01*
X41812215Y-8854572D01*
G36*
X41458661Y-8501019D02*
G01*
X40999042Y-8960638D01*
X40801052Y-8762648D01*
X41260671Y-8303029D01*
X41458661Y-8501019D01*
G37*
X41458661Y-8501019D02*
X40999042Y-8960638D01*
X40801052Y-8762648D01*
X41260671Y-8303029D01*
X41458661Y-8501019D01*
G36*
X41105108Y-8147465D02*
G01*
X40645488Y-8607085D01*
X40447499Y-8409095D01*
X40907118Y-7949476D01*
X41105108Y-8147465D01*
G37*
X41105108Y-8147465D02*
X40645488Y-8607085D01*
X40447499Y-8409095D01*
X40907118Y-7949476D01*
X41105108Y-8147465D01*
G36*
X40751554Y-7793912D02*
G01*
X40291935Y-8253531D01*
X40093945Y-8055542D01*
X40553565Y-7595922D01*
X40751554Y-7793912D01*
G37*
X40751554Y-7793912D02*
X40291935Y-8253531D01*
X40093945Y-8055542D01*
X40553565Y-7595922D01*
X40751554Y-7793912D01*
G36*
X40398001Y-7440359D02*
G01*
X39938382Y-7899978D01*
X39740392Y-7701988D01*
X40200011Y-7242369D01*
X40398001Y-7440359D01*
G37*
X40398001Y-7440359D02*
X39938382Y-7899978D01*
X39740392Y-7701988D01*
X40200011Y-7242369D01*
X40398001Y-7440359D01*
G36*
X40044448Y-7086805D02*
G01*
X39584828Y-7546425D01*
X39386838Y-7348435D01*
X39846458Y-6888815D01*
X40044448Y-7086805D01*
G37*
X40044448Y-7086805D02*
X39584828Y-7546425D01*
X39386838Y-7348435D01*
X39846458Y-6888815D01*
X40044448Y-7086805D01*
G36*
X39690894Y-6733252D02*
G01*
X39231275Y-7192871D01*
X39033285Y-6994881D01*
X39492904Y-6535262D01*
X39690894Y-6733252D01*
G37*
X39690894Y-6733252D02*
X39231275Y-7192871D01*
X39033285Y-6994881D01*
X39492904Y-6535262D01*
X39690894Y-6733252D01*
%TO.C,USB1*%
G36*
X7586000Y-3450000D02*
G01*
X6436000Y-3450000D01*
X6436000Y-2850000D01*
X7586000Y-2850000D01*
X7586000Y-3450000D01*
G37*
X7586000Y-3450000D02*
X6436000Y-3450000D01*
X6436000Y-2850000D01*
X7586000Y-2850000D01*
X7586000Y-3450000D01*
G36*
X7586000Y-4250000D02*
G01*
X6436000Y-4250000D01*
X6436000Y-3650000D01*
X7586000Y-3650000D01*
X7586000Y-4250000D01*
G37*
X7586000Y-4250000D02*
X6436000Y-4250000D01*
X6436000Y-3650000D01*
X7586000Y-3650000D01*
X7586000Y-4250000D01*
G36*
X7586000Y-4750000D02*
G01*
X6436000Y-4750000D01*
X6436000Y-4450000D01*
X7586000Y-4450000D01*
X7586000Y-4750000D01*
G37*
X7586000Y-4750000D02*
X6436000Y-4750000D01*
X6436000Y-4450000D01*
X7586000Y-4450000D01*
X7586000Y-4750000D01*
G36*
X7586000Y-5250000D02*
G01*
X6436000Y-5250000D01*
X6436000Y-4950000D01*
X7586000Y-4950000D01*
X7586000Y-5250000D01*
G37*
X7586000Y-5250000D02*
X6436000Y-5250000D01*
X6436000Y-4950000D01*
X7586000Y-4950000D01*
X7586000Y-5250000D01*
G36*
X7586000Y-5750000D02*
G01*
X6436000Y-5750000D01*
X6436000Y-5450000D01*
X7586000Y-5450000D01*
X7586000Y-5750000D01*
G37*
X7586000Y-5750000D02*
X6436000Y-5750000D01*
X6436000Y-5450000D01*
X7586000Y-5450000D01*
X7586000Y-5750000D01*
G36*
X7586000Y-6250000D02*
G01*
X6436000Y-6250000D01*
X6436000Y-5950000D01*
X7586000Y-5950000D01*
X7586000Y-6250000D01*
G37*
X7586000Y-6250000D02*
X6436000Y-6250000D01*
X6436000Y-5950000D01*
X7586000Y-5950000D01*
X7586000Y-6250000D01*
G36*
X7586000Y-6750000D02*
G01*
X6436000Y-6750000D01*
X6436000Y-6450000D01*
X7586000Y-6450000D01*
X7586000Y-6750000D01*
G37*
X7586000Y-6750000D02*
X6436000Y-6750000D01*
X6436000Y-6450000D01*
X7586000Y-6450000D01*
X7586000Y-6750000D01*
G36*
X7586000Y-7250000D02*
G01*
X6436000Y-7250000D01*
X6436000Y-6950000D01*
X7586000Y-6950000D01*
X7586000Y-7250000D01*
G37*
X7586000Y-7250000D02*
X6436000Y-7250000D01*
X6436000Y-6950000D01*
X7586000Y-6950000D01*
X7586000Y-7250000D01*
G36*
X7586000Y-7750000D02*
G01*
X6436000Y-7750000D01*
X6436000Y-7450000D01*
X7586000Y-7450000D01*
X7586000Y-7750000D01*
G37*
X7586000Y-7750000D02*
X6436000Y-7750000D01*
X6436000Y-7450000D01*
X7586000Y-7450000D01*
X7586000Y-7750000D01*
G36*
X7586000Y-8250000D02*
G01*
X6436000Y-8250000D01*
X6436000Y-7950000D01*
X7586000Y-7950000D01*
X7586000Y-8250000D01*
G37*
X7586000Y-8250000D02*
X6436000Y-8250000D01*
X6436000Y-7950000D01*
X7586000Y-7950000D01*
X7586000Y-8250000D01*
G36*
X7586000Y-9050000D02*
G01*
X6436000Y-9050000D01*
X6436000Y-8450000D01*
X7586000Y-8450000D01*
X7586000Y-9050000D01*
G37*
X7586000Y-9050000D02*
X6436000Y-9050000D01*
X6436000Y-8450000D01*
X7586000Y-8450000D01*
X7586000Y-9050000D01*
G36*
X7586000Y-9850000D02*
G01*
X6436000Y-9850000D01*
X6436000Y-9250000D01*
X7586000Y-9250000D01*
X7586000Y-9850000D01*
G37*
X7586000Y-9850000D02*
X6436000Y-9850000D01*
X6436000Y-9250000D01*
X7586000Y-9250000D01*
X7586000Y-9850000D01*
G36*
X6896000Y-1535000D02*
G01*
X6990000Y-1563000D01*
X7076000Y-1609000D01*
X7152000Y-1671000D01*
X7214000Y-1747000D01*
X7261000Y-1834000D01*
X7289000Y-1927000D01*
X7299000Y-2025000D01*
X7289000Y-2123000D01*
X7261000Y-2216000D01*
X7214000Y-2303000D01*
X7152000Y-2379000D01*
X7076000Y-2441000D01*
X6990000Y-2487000D01*
X6896000Y-2515000D01*
X6799000Y-2525000D01*
X5699000Y-2525000D01*
X5601000Y-2515000D01*
X5507000Y-2487000D01*
X5421000Y-2441000D01*
X5345000Y-2379000D01*
X5283000Y-2303000D01*
X5237000Y-2216000D01*
X5208000Y-2123000D01*
X5199000Y-2025000D01*
X5208000Y-1927000D01*
X5237000Y-1834000D01*
X5283000Y-1747000D01*
X5345000Y-1671000D01*
X5421000Y-1609000D01*
X5507000Y-1563000D01*
X5601000Y-1535000D01*
X5699000Y-1525000D01*
X6799000Y-1525000D01*
X6896000Y-1535000D01*
G37*
X6896000Y-1535000D02*
X6990000Y-1563000D01*
X7076000Y-1609000D01*
X7152000Y-1671000D01*
X7214000Y-1747000D01*
X7261000Y-1834000D01*
X7289000Y-1927000D01*
X7299000Y-2025000D01*
X7289000Y-2123000D01*
X7261000Y-2216000D01*
X7214000Y-2303000D01*
X7152000Y-2379000D01*
X7076000Y-2441000D01*
X6990000Y-2487000D01*
X6896000Y-2515000D01*
X6799000Y-2525000D01*
X5699000Y-2525000D01*
X5601000Y-2515000D01*
X5507000Y-2487000D01*
X5421000Y-2441000D01*
X5345000Y-2379000D01*
X5283000Y-2303000D01*
X5237000Y-2216000D01*
X5208000Y-2123000D01*
X5199000Y-2025000D01*
X5208000Y-1927000D01*
X5237000Y-1834000D01*
X5283000Y-1747000D01*
X5345000Y-1671000D01*
X5421000Y-1609000D01*
X5507000Y-1563000D01*
X5601000Y-1535000D01*
X5699000Y-1525000D01*
X6799000Y-1525000D01*
X6896000Y-1535000D01*
G36*
X2596000Y-1535000D02*
G01*
X2690000Y-1563000D01*
X2776000Y-1609000D01*
X2852000Y-1671000D01*
X2914000Y-1747000D01*
X2961000Y-1834000D01*
X2989000Y-1927000D01*
X2999000Y-2025000D01*
X2989000Y-2123000D01*
X2961000Y-2216000D01*
X2914000Y-2303000D01*
X2852000Y-2379000D01*
X2776000Y-2441000D01*
X2690000Y-2487000D01*
X2596000Y-2515000D01*
X2499000Y-2525000D01*
X1599000Y-2525000D01*
X1501000Y-2515000D01*
X1407000Y-2487000D01*
X1321000Y-2441000D01*
X1245000Y-2379000D01*
X1183000Y-2303000D01*
X1137000Y-2216000D01*
X1108000Y-2123000D01*
X1099000Y-2025000D01*
X1108000Y-1927000D01*
X1137000Y-1834000D01*
X1183000Y-1747000D01*
X1245000Y-1671000D01*
X1321000Y-1609000D01*
X1407000Y-1563000D01*
X1501000Y-1535000D01*
X1599000Y-1525000D01*
X2499000Y-1525000D01*
X2596000Y-1535000D01*
G37*
X2596000Y-1535000D02*
X2690000Y-1563000D01*
X2776000Y-1609000D01*
X2852000Y-1671000D01*
X2914000Y-1747000D01*
X2961000Y-1834000D01*
X2989000Y-1927000D01*
X2999000Y-2025000D01*
X2989000Y-2123000D01*
X2961000Y-2216000D01*
X2914000Y-2303000D01*
X2852000Y-2379000D01*
X2776000Y-2441000D01*
X2690000Y-2487000D01*
X2596000Y-2515000D01*
X2499000Y-2525000D01*
X1599000Y-2525000D01*
X1501000Y-2515000D01*
X1407000Y-2487000D01*
X1321000Y-2441000D01*
X1245000Y-2379000D01*
X1183000Y-2303000D01*
X1137000Y-2216000D01*
X1108000Y-2123000D01*
X1099000Y-2025000D01*
X1108000Y-1927000D01*
X1137000Y-1834000D01*
X1183000Y-1747000D01*
X1245000Y-1671000D01*
X1321000Y-1609000D01*
X1407000Y-1563000D01*
X1501000Y-1535000D01*
X1599000Y-1525000D01*
X2499000Y-1525000D01*
X2596000Y-1535000D01*
G36*
X6896000Y-10185000D02*
G01*
X6990000Y-10213000D01*
X7076000Y-10259000D01*
X7152000Y-10321000D01*
X7214000Y-10397000D01*
X7261000Y-10484000D01*
X7289000Y-10577000D01*
X7299000Y-10675000D01*
X7289000Y-10773000D01*
X7261000Y-10866000D01*
X7214000Y-10953000D01*
X7152000Y-11029000D01*
X7076000Y-11091000D01*
X6990000Y-11137000D01*
X6896000Y-11165000D01*
X6799000Y-11175000D01*
X5699000Y-11175000D01*
X5601000Y-11165000D01*
X5507000Y-11137000D01*
X5421000Y-11091000D01*
X5345000Y-11029000D01*
X5283000Y-10953000D01*
X5237000Y-10866000D01*
X5208000Y-10773000D01*
X5199000Y-10675000D01*
X5208000Y-10577000D01*
X5237000Y-10484000D01*
X5283000Y-10397000D01*
X5345000Y-10321000D01*
X5421000Y-10259000D01*
X5507000Y-10213000D01*
X5601000Y-10185000D01*
X5699000Y-10175000D01*
X6799000Y-10175000D01*
X6896000Y-10185000D01*
G37*
X6896000Y-10185000D02*
X6990000Y-10213000D01*
X7076000Y-10259000D01*
X7152000Y-10321000D01*
X7214000Y-10397000D01*
X7261000Y-10484000D01*
X7289000Y-10577000D01*
X7299000Y-10675000D01*
X7289000Y-10773000D01*
X7261000Y-10866000D01*
X7214000Y-10953000D01*
X7152000Y-11029000D01*
X7076000Y-11091000D01*
X6990000Y-11137000D01*
X6896000Y-11165000D01*
X6799000Y-11175000D01*
X5699000Y-11175000D01*
X5601000Y-11165000D01*
X5507000Y-11137000D01*
X5421000Y-11091000D01*
X5345000Y-11029000D01*
X5283000Y-10953000D01*
X5237000Y-10866000D01*
X5208000Y-10773000D01*
X5199000Y-10675000D01*
X5208000Y-10577000D01*
X5237000Y-10484000D01*
X5283000Y-10397000D01*
X5345000Y-10321000D01*
X5421000Y-10259000D01*
X5507000Y-10213000D01*
X5601000Y-10185000D01*
X5699000Y-10175000D01*
X6799000Y-10175000D01*
X6896000Y-10185000D01*
G36*
X2596000Y-10185000D02*
G01*
X2690000Y-10213000D01*
X2776000Y-10259000D01*
X2852000Y-10321000D01*
X2914000Y-10397000D01*
X2961000Y-10484000D01*
X2989000Y-10577000D01*
X2999000Y-10675000D01*
X2989000Y-10773000D01*
X2961000Y-10866000D01*
X2914000Y-10953000D01*
X2852000Y-11029000D01*
X2776000Y-11091000D01*
X2690000Y-11137000D01*
X2596000Y-11165000D01*
X2499000Y-11175000D01*
X1599000Y-11175000D01*
X1501000Y-11165000D01*
X1407000Y-11137000D01*
X1321000Y-11091000D01*
X1245000Y-11029000D01*
X1183000Y-10953000D01*
X1137000Y-10866000D01*
X1108000Y-10773000D01*
X1099000Y-10675000D01*
X1108000Y-10577000D01*
X1137000Y-10484000D01*
X1183000Y-10397000D01*
X1245000Y-10321000D01*
X1321000Y-10259000D01*
X1407000Y-10213000D01*
X1501000Y-10185000D01*
X1599000Y-10175000D01*
X2499000Y-10175000D01*
X2596000Y-10185000D01*
G37*
X2596000Y-10185000D02*
X2690000Y-10213000D01*
X2776000Y-10259000D01*
X2852000Y-10321000D01*
X2914000Y-10397000D01*
X2961000Y-10484000D01*
X2989000Y-10577000D01*
X2999000Y-10675000D01*
X2989000Y-10773000D01*
X2961000Y-10866000D01*
X2914000Y-10953000D01*
X2852000Y-11029000D01*
X2776000Y-11091000D01*
X2690000Y-11137000D01*
X2596000Y-11165000D01*
X2499000Y-11175000D01*
X1599000Y-11175000D01*
X1501000Y-11165000D01*
X1407000Y-11137000D01*
X1321000Y-11091000D01*
X1245000Y-11029000D01*
X1183000Y-10953000D01*
X1137000Y-10866000D01*
X1108000Y-10773000D01*
X1099000Y-10675000D01*
X1108000Y-10577000D01*
X1137000Y-10484000D01*
X1183000Y-10397000D01*
X1245000Y-10321000D01*
X1321000Y-10259000D01*
X1407000Y-10213000D01*
X1501000Y-10185000D01*
X1599000Y-10175000D01*
X2499000Y-10175000D01*
X2596000Y-10185000D01*
%TO.C,U4*%
G36*
X16205000Y-7155000D02*
G01*
X15455000Y-7155000D01*
X15455000Y-6905000D01*
X16205000Y-6905000D01*
X16205000Y-7155000D01*
G37*
X16205000Y-7155000D02*
X15455000Y-7155000D01*
X15455000Y-6905000D01*
X16205000Y-6905000D01*
X16205000Y-7155000D01*
G36*
X16205000Y-6655000D02*
G01*
X15455000Y-6655000D01*
X15455000Y-6405000D01*
X16205000Y-6405000D01*
X16205000Y-6655000D01*
G37*
X16205000Y-6655000D02*
X15455000Y-6655000D01*
X15455000Y-6405000D01*
X16205000Y-6405000D01*
X16205000Y-6655000D01*
G36*
X16205000Y-6155000D02*
G01*
X15455000Y-6155000D01*
X15455000Y-5905000D01*
X16205000Y-5905000D01*
X16205000Y-6155000D01*
G37*
X16205000Y-6155000D02*
X15455000Y-6155000D01*
X15455000Y-5905000D01*
X16205000Y-5905000D01*
X16205000Y-6155000D01*
G36*
X16205000Y-5655000D02*
G01*
X15455000Y-5655000D01*
X15455000Y-5405000D01*
X16205000Y-5405000D01*
X16205000Y-5655000D01*
G37*
X16205000Y-5655000D02*
X15455000Y-5655000D01*
X15455000Y-5405000D01*
X16205000Y-5405000D01*
X16205000Y-5655000D01*
G36*
X15060000Y-6960000D02*
G01*
X13700000Y-6960000D01*
X13700000Y-5600000D01*
X15060000Y-5600000D01*
X15060000Y-6960000D01*
G37*
X15060000Y-6960000D02*
X13700000Y-6960000D01*
X13700000Y-5600000D01*
X15060000Y-5600000D01*
X15060000Y-6960000D01*
G36*
X15254000Y-8105000D02*
G01*
X15004000Y-8105000D01*
X15004000Y-7355000D01*
X15254000Y-7355000D01*
X15254000Y-8105000D01*
G37*
X15254000Y-8105000D02*
X15004000Y-8105000D01*
X15004000Y-7355000D01*
X15254000Y-7355000D01*
X15254000Y-8105000D01*
G36*
X15253000Y-5205000D02*
G01*
X15003000Y-5205000D01*
X15003000Y-4455000D01*
X15253000Y-4455000D01*
X15253000Y-5205000D01*
G37*
X15253000Y-5205000D02*
X15003000Y-5205000D01*
X15003000Y-4455000D01*
X15253000Y-4455000D01*
X15253000Y-5205000D01*
G36*
X14754000Y-8105000D02*
G01*
X14504000Y-8105000D01*
X14504000Y-7355000D01*
X14754000Y-7355000D01*
X14754000Y-8105000D01*
G37*
X14754000Y-8105000D02*
X14504000Y-8105000D01*
X14504000Y-7355000D01*
X14754000Y-7355000D01*
X14754000Y-8105000D01*
G36*
X14754000Y-5205000D02*
G01*
X14504000Y-5205000D01*
X14504000Y-4455000D01*
X14754000Y-4455000D01*
X14754000Y-5205000D01*
G37*
X14754000Y-5205000D02*
X14504000Y-5205000D01*
X14504000Y-4455000D01*
X14754000Y-4455000D01*
X14754000Y-5205000D01*
G36*
X14254000Y-8105000D02*
G01*
X14004000Y-8105000D01*
X14004000Y-7355000D01*
X14254000Y-7355000D01*
X14254000Y-8105000D01*
G37*
X14254000Y-8105000D02*
X14004000Y-8105000D01*
X14004000Y-7355000D01*
X14254000Y-7355000D01*
X14254000Y-8105000D01*
G36*
X14253000Y-5205000D02*
G01*
X14003000Y-5205000D01*
X14003000Y-4455000D01*
X14253000Y-4455000D01*
X14253000Y-5205000D01*
G37*
X14253000Y-5205000D02*
X14003000Y-5205000D01*
X14003000Y-4455000D01*
X14253000Y-4455000D01*
X14253000Y-5205000D01*
G36*
X13754000Y-8105000D02*
G01*
X13504000Y-8105000D01*
X13504000Y-7355000D01*
X13754000Y-7355000D01*
X13754000Y-8105000D01*
G37*
X13754000Y-8105000D02*
X13504000Y-8105000D01*
X13504000Y-7355000D01*
X13754000Y-7355000D01*
X13754000Y-8105000D01*
G36*
X13754000Y-5205000D02*
G01*
X13504000Y-5205000D01*
X13504000Y-4455000D01*
X13754000Y-4455000D01*
X13754000Y-5205000D01*
G37*
X13754000Y-5205000D02*
X13504000Y-5205000D01*
X13504000Y-4455000D01*
X13754000Y-4455000D01*
X13754000Y-5205000D01*
G36*
X13305000Y-7155000D02*
G01*
X12555000Y-7155000D01*
X12555000Y-6905000D01*
X13305000Y-6905000D01*
X13305000Y-7155000D01*
G37*
X13305000Y-7155000D02*
X12555000Y-7155000D01*
X12555000Y-6905000D01*
X13305000Y-6905000D01*
X13305000Y-7155000D01*
G36*
X13305000Y-6655000D02*
G01*
X12555000Y-6655000D01*
X12555000Y-6405000D01*
X13305000Y-6405000D01*
X13305000Y-6655000D01*
G37*
X13305000Y-6655000D02*
X12555000Y-6655000D01*
X12555000Y-6405000D01*
X13305000Y-6405000D01*
X13305000Y-6655000D01*
G36*
X13305000Y-6155000D02*
G01*
X12555000Y-6155000D01*
X12555000Y-5905000D01*
X13305000Y-5905000D01*
X13305000Y-6155000D01*
G37*
X13305000Y-6155000D02*
X12555000Y-6155000D01*
X12555000Y-5905000D01*
X13305000Y-5905000D01*
X13305000Y-6155000D01*
G36*
X13305000Y-5655000D02*
G01*
X12555000Y-5655000D01*
X12555000Y-5405000D01*
X13305000Y-5405000D01*
X13305000Y-5655000D01*
G37*
X13305000Y-5655000D02*
X12555000Y-5655000D01*
X12555000Y-5405000D01*
X13305000Y-5405000D01*
X13305000Y-5655000D01*
%TD*%
D11*
%TO.C,VT2*%
X21024999Y-2659999D03*
X21024999Y-4559999D03*
X23294999Y-3609999D03*
%TD*%
D12*
%TO.C,R1*%
X6100000Y-13020000D03*
X7120000Y-13020000D03*
%TD*%
D13*
%TO.C,U3*%
X45340676Y-5835225D03*
X44987123Y-5481672D03*
X44633570Y-5128118D03*
X44280016Y-4774565D03*
X43926463Y-4421012D03*
X43572910Y-4067458D03*
X43219356Y-3713905D03*
X42865803Y-3360352D03*
D14*
X41836255Y-3360352D03*
X41482702Y-3713905D03*
X41129148Y-4067458D03*
X40775595Y-4421012D03*
X40422042Y-4774565D03*
X40068488Y-5128118D03*
X39714935Y-5481672D03*
X39361382Y-5835225D03*
D13*
X39361382Y-6864773D03*
X39714935Y-7218326D03*
X40068488Y-7571880D03*
X40422042Y-7925433D03*
X40775595Y-8278986D03*
X41129148Y-8632540D03*
X41482702Y-8986093D03*
X41836255Y-9339646D03*
D14*
X42865803Y-9339646D03*
X43219356Y-8986093D03*
X43572910Y-8632540D03*
X43926463Y-8278986D03*
X44280016Y-7925433D03*
X44633570Y-7571880D03*
X44987123Y-7218326D03*
X45340676Y-6864773D03*
D15*
X42351029Y-6349999D03*
%TD*%
D16*
%TO.C,L1*%
X48720658Y-2450520D03*
X48034764Y-3136414D03*
%TD*%
D12*
%TO.C,R6*%
X18200000Y-6430000D03*
X19220000Y-6430000D03*
%TD*%
D17*
%TO.C,R7*%
X19220000Y-2660000D03*
X18200000Y-2660000D03*
%TD*%
D18*
%TO.C,SW2*%
X29549999Y-4714999D03*
X25249999Y-4714999D03*
X29549999Y-2564999D03*
X25249999Y-2564999D03*
%TD*%
D19*
%TO.C,C11*%
X13630000Y-10280000D03*
X13630000Y-9320000D03*
%TD*%
%TO.C,C16*%
X15120000Y-3300000D03*
X15120000Y-2340000D03*
%TD*%
D12*
%TO.C,R2*%
X39690000Y-1840000D03*
X40710000Y-1840000D03*
%TD*%
D20*
%TO.C,Y1*%
X48019999Y-8819999D03*
X48019999Y-11019999D03*
X49719999Y-11019999D03*
X49719999Y-8819999D03*
%TD*%
D19*
%TO.C,C4*%
X44510000Y-1860000D03*
X44510000Y-900000D03*
%TD*%
D21*
%TO.C,C14*%
X34990000Y-2010000D03*
X35950000Y-2010000D03*
%TD*%
D19*
%TO.C,C5*%
X45590000Y-1860000D03*
X45590000Y-900000D03*
%TD*%
D22*
%TO.C,C18*%
X35970000Y-6610000D03*
X35010000Y-6610000D03*
%TD*%
D11*
%TO.C,VT1*%
X21024999Y-8049999D03*
X21024999Y-9949999D03*
X23294999Y-8999999D03*
%TD*%
D23*
%TO.C,C8*%
X47394832Y-3776346D03*
X48073654Y-4455168D03*
%TD*%
D21*
%TO.C,C12*%
X47720000Y-7100000D03*
X48680000Y-7100000D03*
%TD*%
D19*
%TO.C,C15*%
X51240000Y-9210000D03*
X51240000Y-8250000D03*
%TD*%
D12*
%TO.C,R5*%
X18200000Y-4540000D03*
X19220000Y-4540000D03*
%TD*%
D21*
%TO.C,C10*%
X47720000Y-6180000D03*
X48680000Y-6180000D03*
%TD*%
D19*
%TO.C,C3*%
X13850000Y-13960000D03*
X13850000Y-13000000D03*
%TD*%
D12*
%TO.C,R8*%
X18190000Y-8280000D03*
X19210000Y-8280000D03*
%TD*%
%TO.C,R3*%
X18200000Y-10110000D03*
X19220000Y-10110000D03*
%TD*%
D24*
%TO.C,USB1*%
X7010999Y-3149999D03*
X7010999Y-3949999D03*
D25*
X7010999Y-5099999D03*
X7010999Y-6099999D03*
X7010999Y-6599999D03*
X7010999Y-7599999D03*
D24*
X7010999Y-9549999D03*
X7010999Y-8749999D03*
D25*
X7010999Y-8099999D03*
X7010999Y-7099999D03*
X7010999Y-5599999D03*
X7010999Y-4599999D03*
%TD*%
D26*
%TO.C,D1*%
X5272500Y-14580000D03*
X6847500Y-14580000D03*
%TD*%
D27*
%TO.C,U1*%
X10015999Y-12999999D03*
X10015999Y-13949999D03*
X10015999Y-14899999D03*
X12615999Y-14899999D03*
X12615999Y-12999999D03*
%TD*%
D19*
%TO.C,C9*%
X43440000Y-1860000D03*
X43440000Y-900000D03*
%TD*%
D28*
%TO.C,U4*%
X15127999Y-4829999D03*
X14628999Y-4829999D03*
X14127999Y-4829999D03*
X13628999Y-4829999D03*
D29*
X12929999Y-5529999D03*
X12929999Y-6029999D03*
X12929999Y-6529999D03*
X12929999Y-7029999D03*
D28*
X13629999Y-7729999D03*
X14129999Y-7729999D03*
X14629999Y-7729999D03*
X15128999Y-7729999D03*
D29*
X15829999Y-7029999D03*
X15829999Y-6529999D03*
X15829999Y-6029999D03*
X15829999Y-5529999D03*
D30*
X14379999Y-6279999D03*
%TD*%
D19*
%TO.C,C2*%
X8780000Y-13960000D03*
X8780000Y-13000000D03*
%TD*%
D17*
%TO.C,R4*%
X36000000Y-3100000D03*
X34980000Y-3100000D03*
%TD*%
D31*
%TO.C,C17*%
X51240000Y-10340000D03*
X51240000Y-11300000D03*
%TD*%
D22*
%TO.C,C19*%
X35970000Y-7690000D03*
X35010000Y-7690000D03*
%TD*%
D19*
%TO.C,C7*%
X46660000Y-1860000D03*
X46660000Y-900000D03*
%TD*%
D23*
%TO.C,C6*%
X49360589Y-1810589D03*
X50039411Y-2489411D03*
%TD*%
D31*
%TO.C,C13*%
X13620000Y-2330000D03*
X13620000Y-3290000D03*
%TD*%
D18*
%TO.C,SW1*%
X29549999Y-10094999D03*
X25249999Y-10094999D03*
X29549999Y-7944999D03*
X25249999Y-7944999D03*
%TD*%
M02*
