%TF.GenerationSoftware,KiCad,Pcbnew,7.0.5*%
%TF.CreationDate,2023-07-05T18:58:35+08:00*%
%TF.ProjectId,UINIO-MCU-ESP32C3,55494e49-4f2d-44d4-9355-2d4553503332,Version 3.5.1*%
%TF.SameCoordinates,PX735b400PY5c274f0*%
%TF.FileFunction,Copper,L2,Bot*%
%TF.FilePolarity,Positive*%
%FSLAX46Y46*%
G04 Gerber Fmt 4.6, Leading zero omitted, Abs format (unit mm)*
G04 Created by KiCad (PCBNEW 7.0.5) date 2023-07-05 18:58:35*
%MOMM*%
%LPD*%
G01*
G04 APERTURE LIST*
G04 Aperture macros list*
%AMRoundRect*
0 Rectangle with rounded corners*
0 $1 Rounding radius*
0 $2 $3 $4 $5 $6 $7 $8 $9 X,Y pos of 4 corners*
0 Add a 4 corners polygon primitive as box body*
4,1,4,$2,$3,$4,$5,$6,$7,$8,$9,$2,$3,0*
0 Add four circle primitives for the rounded corners*
1,1,$1+$1,$2,$3*
1,1,$1+$1,$4,$5*
1,1,$1+$1,$6,$7*
1,1,$1+$1,$8,$9*
0 Add four rect primitives between the rounded corners*
20,1,$1+$1,$2,$3,$4,$5,0*
20,1,$1+$1,$4,$5,$6,$7,0*
20,1,$1+$1,$6,$7,$8,$9,0*
20,1,$1+$1,$8,$9,$2,$3,0*%
G04 Aperture macros list end*
%TA.AperFunction,ComponentPad*%
%ADD10C,1.200000*%
%TD*%
%TA.AperFunction,ComponentPad*%
%ADD11C,0.610000*%
%TD*%
%TA.AperFunction,ComponentPad*%
%ADD12R,1.700000X1.700000*%
%TD*%
%TA.AperFunction,ComponentPad*%
%ADD13O,1.700000X1.700000*%
%TD*%
%TA.AperFunction,ComponentPad*%
%ADD14R,0.500000X0.900000*%
%TD*%
%TA.AperFunction,ComponentPad*%
%ADD15O,2.100000X1.000000*%
%TD*%
%TA.AperFunction,ComponentPad*%
%ADD16O,1.900000X1.000000*%
%TD*%
%TA.AperFunction,SMDPad,CuDef*%
%ADD17O,0.630000X2.250000*%
%TD*%
%TA.AperFunction,SMDPad,CuDef*%
%ADD18RoundRect,0.140000X0.170000X-0.140000X0.170000X0.140000X-0.170000X0.140000X-0.170000X-0.140000X0*%
%TD*%
%TA.AperFunction,ViaPad*%
%ADD19C,0.700000*%
%TD*%
%TA.AperFunction,ViaPad*%
%ADD20C,0.500000*%
%TD*%
%TA.AperFunction,ViaPad*%
%ADD21C,1.100000*%
%TD*%
%TA.AperFunction,ViaPad*%
%ADD22C,0.900000*%
%TD*%
%TA.AperFunction,Conductor*%
%ADD23C,0.200000*%
%TD*%
%TA.AperFunction,Conductor*%
%ADD24C,0.300000*%
%TD*%
%TA.AperFunction,Conductor*%
%ADD25C,0.400000*%
%TD*%
%TA.AperFunction,Conductor*%
%ADD26C,0.900000*%
%TD*%
%TA.AperFunction,Conductor*%
%ADD27C,0.500000*%
%TD*%
G04 APERTURE END LIST*
D10*
%TO.P,HOLE2,*%
%TO.N,*%
X14660000Y2470000D03*
%TD*%
D11*
%TO.P,U3,*%
%TO.N,*%
X43199558Y-6350000D03*
X42351030Y-5501472D03*
X42351030Y-7198528D03*
X41502502Y-6350000D03*
%TD*%
D10*
%TO.P,HOLE1,*%
%TO.N,*%
X1910000Y1590000D03*
%TD*%
D12*
%TO.P,J2,1,Pin_1*%
%TO.N,/DTR*%
X12140000Y2470000D03*
D13*
%TO.P,J2,2,Pin_2*%
%TO.N,/U0TXD*%
X9600000Y2470000D03*
%TO.P,J2,3,Pin_3*%
%TO.N,/U0RXD*%
X7060000Y2470000D03*
%TO.P,J2,4,Pin_4*%
%TO.N,/RTS*%
X4520000Y2470000D03*
%TD*%
D14*
%TO.P,AE1,2,PCB_Trace*%
%TO.N,GND*%
X54530000Y300000D03*
%TD*%
D10*
%TO.P,HOLE3,*%
%TO.N,*%
X55140000Y2420000D03*
%TD*%
D15*
%TO.P,USB1,13,GND*%
%TO.N,GND*%
X6249000Y-2025000D03*
%TO.P,USB1,14,GND*%
X6249000Y-10675000D03*
D16*
%TO.P,USB1,15,GND*%
X2049000Y-2025000D03*
%TO.P,USB1,16,GND*%
X2049000Y-10675000D03*
%TD*%
D10*
%TO.P,HOLE4,*%
%TO.N,*%
X55140000Y-15070000D03*
%TD*%
%TO.P,HOLE5,*%
%TO.N,*%
X1910000Y-14210000D03*
%TD*%
D12*
%TO.P,J3,1,Pin_1*%
%TO.N,GND*%
X52780000Y-15090000D03*
D13*
%TO.P,J3,2,Pin_2*%
%TO.N,/VDD_3.3V*%
X50240000Y-15090000D03*
%TO.P,J3,3,Pin_3*%
%TO.N,/U0TXD*%
X47700000Y-15090000D03*
%TO.P,J3,4,Pin_4*%
%TO.N,/U0RXD*%
X45160000Y-15090000D03*
%TO.P,J3,5,Pin_5*%
%TO.N,/GPIO19{slash}USB_D+*%
X42620000Y-15090000D03*
%TO.P,J3,6,Pin_6*%
%TO.N,/GPIO18{slash}USB_D-*%
X40080000Y-15090000D03*
%TO.P,J3,7,Pin_7*%
%TO.N,/SPIQ*%
X37540000Y-15090000D03*
%TO.P,J3,8,Pin_8*%
%TO.N,/SPID*%
X35000000Y-15090000D03*
%TO.P,J3,9,Pin_9*%
%TO.N,/SPICLK*%
X32460000Y-15090000D03*
%TO.P,J3,10,Pin_10*%
%TO.N,/SPICS0*%
X29920000Y-15090000D03*
%TO.P,J3,11,Pin_11*%
%TO.N,/SPIWP{slash}GPIO13*%
X27380000Y-15090000D03*
%TO.P,J3,12,Pin_12*%
%TO.N,/SPIHD{slash}GPIO12*%
X24840000Y-15090000D03*
%TO.P,J3,13,Pin_13*%
%TO.N,/VDD_SPI{slash}GPIO11*%
X22300000Y-15090000D03*
%TO.P,J3,14,Pin_14*%
%TO.N,/VDD_5V*%
X19760000Y-15090000D03*
%TO.P,J3,15,Pin_15*%
%TO.N,GND*%
X17220000Y-15090000D03*
%TD*%
D17*
%TO.P,U2,1,CS#*%
%TO.N,/SPICS0*%
X25145000Y-2790000D03*
%TO.P,U2,2,DO(IO1)*%
%TO.N,/SPIQ*%
X26415000Y-2790000D03*
%TO.P,U2,3,WP#(IO2)*%
%TO.N,/VDD_3.3V*%
X27685000Y-2790000D03*
%TO.P,U2,4,GND*%
%TO.N,GND*%
X28955000Y-2790000D03*
%TO.P,U2,5,DI(IO0)*%
%TO.N,/SPID*%
X28955000Y-9850000D03*
%TO.P,U2,6,CLK*%
%TO.N,/SPICLK*%
X27685000Y-9850000D03*
%TO.P,U2,7,HOLD#/RESET#/(IO3)*%
%TO.N,/VDD_3.3V*%
X26415000Y-9850000D03*
%TO.P,U2,8,VCC*%
X25145000Y-9850000D03*
%TD*%
D18*
%TO.P,C1,2*%
%TO.N,GND*%
X23400000Y-5840000D03*
%TO.P,C1,1*%
%TO.N,/VDD_3.3V*%
X23400000Y-6800000D03*
%TD*%
D12*
%TO.P,J1,1,Pin_1*%
%TO.N,GND*%
X52780000Y2470000D03*
D13*
%TO.P,J1,2,Pin_2*%
%TO.N,/GPIO0*%
X50240000Y2470000D03*
%TO.P,J1,3,Pin_3*%
%TO.N,/GPIO1*%
X47700000Y2470000D03*
%TO.P,J1,4,Pin_4*%
%TO.N,/GPIO2*%
X45160000Y2470000D03*
%TO.P,J1,5,Pin_5*%
%TO.N,/CHIP_EN*%
X42620000Y2470000D03*
%TO.P,J1,6,Pin_6*%
%TO.N,/GPIO3*%
X40080000Y2470000D03*
%TO.P,J1,7,Pin_7*%
%TO.N,/GPIO4*%
X37540000Y2470000D03*
%TO.P,J1,8,Pin_8*%
%TO.N,/GPIO5*%
X35000000Y2470000D03*
%TO.P,J1,9,Pin_9*%
%TO.N,/GPIO6*%
X32460000Y2470000D03*
%TO.P,J1,10,Pin_10*%
%TO.N,/GPIO7*%
X29920000Y2470000D03*
%TO.P,J1,11,Pin_11*%
%TO.N,/GPIO8*%
X27380000Y2470000D03*
%TO.P,J1,12,Pin_12*%
%TO.N,/GPIO9{slash}BOOT*%
X24840000Y2470000D03*
%TO.P,J1,13,Pin_13*%
%TO.N,/GPIO10*%
X22300000Y2470000D03*
%TO.P,J1,14,Pin_14*%
%TO.N,/VDD_3.3V*%
X19760000Y2470000D03*
%TO.P,J1,15,Pin_15*%
%TO.N,GND*%
X17220000Y2470000D03*
%TD*%
D19*
%TO.N,GND*%
X46170000Y-12180000D03*
D20*
X46180000Y-11450000D03*
D19*
%TO.N,/VDD_3.3V*%
X18200000Y-1229500D03*
D20*
X14930000Y-14910000D03*
D19*
X40220847Y-3089153D03*
X45165845Y-4595845D03*
X22180000Y-1200000D03*
D20*
X7150000Y-12230000D03*
D19*
X12770000Y-3290000D03*
X31519062Y-1210438D03*
X36750000Y-6600000D03*
X15880000Y-3290000D03*
X37900000Y-5410000D03*
X11460000Y-6005500D03*
X46540000Y-6340000D03*
D21*
X14930000Y-12990000D03*
D20*
%TO.N,GND*%
X50440000Y-4170000D03*
X21030000Y910000D03*
X49640000Y-5770000D03*
X52840000Y-6570000D03*
D19*
X15800000Y-12010000D03*
D20*
X51240000Y-170000D03*
X51240000Y-6570000D03*
X52840000Y-13770000D03*
X50440000Y-970000D03*
X53640000Y-8170000D03*
X48840000Y-4170000D03*
X53640000Y-12970000D03*
X53640000Y-4170000D03*
X53640000Y-4970000D03*
X22220000Y-6410000D03*
D19*
X43970000Y-6350000D03*
D20*
X53640000Y-170000D03*
X53640000Y-2570000D03*
X52040000Y-5770000D03*
X53640000Y-3370000D03*
D19*
X43010000Y-11450000D03*
D20*
X20190000Y-7310000D03*
X53640000Y-11370000D03*
X49640000Y-4970000D03*
X49640000Y-12170000D03*
X52840000Y680000D03*
X53640000Y-8970000D03*
X20010000Y-9100000D03*
X53640000Y-12170000D03*
X52840000Y-12970000D03*
D19*
X11580000Y490000D03*
D20*
X52040000Y-170000D03*
X45940000Y-7610000D03*
D19*
X8450000Y-11620000D03*
D20*
X53640000Y-13770000D03*
X52840000Y-3370000D03*
X53640000Y-970000D03*
X52840000Y-170000D03*
X53640000Y680000D03*
X52840000Y-5770000D03*
X15990000Y-9430000D03*
X52840000Y-4170000D03*
X48840000Y-970000D03*
X49640000Y-970000D03*
X17454647Y-2594647D03*
D19*
X42350000Y-7970000D03*
D20*
X51240000Y-970000D03*
X52040000Y-4170000D03*
X51240000Y-2570000D03*
X39100000Y-13520000D03*
D19*
X38440000Y-950000D03*
D20*
X46070000Y420000D03*
D19*
X30518500Y-4718500D03*
D20*
X52840000Y-2570000D03*
X33800000Y-950000D03*
X48840000Y-4970000D03*
X50440000Y-4970000D03*
X53640000Y-6570000D03*
X47170000Y-2660000D03*
X52840000Y-8970000D03*
X48840000Y-3360000D03*
X53640000Y-10570000D03*
X51240000Y-7370000D03*
X27970000Y900000D03*
X53640000Y-7370000D03*
D19*
X34500000Y-11450000D03*
D20*
X52040000Y-12970000D03*
X52040000Y-13770000D03*
X50440000Y-12170000D03*
X48440000Y405000D03*
X52840000Y-4970000D03*
X47680000Y-2110000D03*
X51240000Y-5770000D03*
X17460000Y-5590000D03*
D19*
X42360000Y-4740000D03*
D20*
X53640000Y-9770000D03*
D19*
X18570000Y-12010000D03*
D20*
X52040000Y-6570000D03*
X25330000Y910000D03*
X53640000Y-5770000D03*
X16160000Y490000D03*
X12570000Y-9010000D03*
X52040000Y-4970000D03*
X51240000Y-12970000D03*
X25190000Y-5840000D03*
X52040000Y-3370000D03*
X52840000Y-12170000D03*
X52040000Y-12170000D03*
X49640000Y-4170000D03*
X48260000Y-1520000D03*
X52840000Y-10570000D03*
X52040000Y-7370000D03*
X52040000Y680000D03*
X50440000Y-3360000D03*
D19*
X43515000Y80000D03*
D20*
X30120000Y-11450000D03*
X52840000Y-970000D03*
X52840000Y-7370000D03*
X52040000Y-2570000D03*
X52840000Y-11370000D03*
X52840000Y-9770000D03*
X51240000Y-3370000D03*
X23501916Y-2408452D03*
X50440000Y-5770000D03*
X25770000Y-12910000D03*
X31460000Y-10440000D03*
X51240000Y-4970000D03*
D19*
X37510000Y-8550000D03*
X11300000Y-10990000D03*
D20*
X49640000Y-3360000D03*
X52840000Y-8170000D03*
D19*
X40730000Y-6350000D03*
D20*
X51240000Y-4170000D03*
X48840000Y-12170000D03*
X52040000Y-970000D03*
X51240000Y-12170000D03*
D22*
%TO.N,/VDD_5V*%
X8660000Y-8740000D03*
X8660000Y-3890000D03*
D20*
%TO.N,/CHIP_EN*%
X40710000Y-1050000D03*
X40720000Y-2410000D03*
X37270000Y-4750000D03*
X31380000Y-7945000D03*
X34535000Y-4750000D03*
X42620000Y-1850000D03*
%TO.N,/GPIO0*%
X45876936Y-3106936D03*
%TO.N,/GPIO1*%
X45008738Y-3338738D03*
%TO.N,/GPIO2*%
X44089291Y-3551079D03*
%TO.N,/GPIO9{slash}BOOT*%
X31686800Y-4073200D03*
X32645000Y-3115000D03*
%TO.N,/DTR*%
X21030000Y-5570000D03*
X15130000Y-8810000D03*
%TO.N,/U0RXD*%
X10670000Y-1510000D03*
X44135185Y-9194815D03*
X8680000Y-1500000D03*
X10660000Y-130500D03*
X10670000Y-4510000D03*
%TO.N,/U0TXD*%
X10680000Y-5420000D03*
X44950000Y-9240000D03*
%TO.N,Net-(USB1-CC1)*%
X9410000Y-5110000D03*
X17430000Y-10050000D03*
X13870000Y-10940000D03*
X10720000Y-8770000D03*
%TO.N,/USB_Data-*%
X6070000Y-5600000D03*
X6070500Y-6600000D03*
%TO.N,Net-(VT2-B)*%
X19210000Y-5590000D03*
X21020000Y-1700000D03*
%TO.N,Net-(USB1-CC2)*%
X12550000Y-8090000D03*
X18210000Y-7330000D03*
%TD*%
D23*
%TO.N,/USB_Data-*%
X6070000Y-6599500D02*
X6070500Y-6600000D01*
X6070000Y-5600000D02*
X6070000Y-6599500D01*
%TO.N,Net-(USB1-CC1)*%
X10720000Y-6420000D02*
X9410000Y-5110000D01*
X10720000Y-8770000D02*
X10720000Y-6420000D01*
D24*
%TO.N,GND*%
X44885000Y-11450000D02*
X35140000Y-11450000D01*
X44890000Y-11445000D02*
X44885000Y-11450000D01*
X46175000Y-11445000D02*
X44890000Y-11445000D01*
X46180000Y-11450000D02*
X46175000Y-11445000D01*
%TO.N,/VDD_3.3V*%
X22180000Y-5570000D02*
X25145000Y-8535000D01*
X31519062Y-1210438D02*
X31508624Y-1200000D01*
X18200000Y-1229500D02*
X18199500Y-1230000D01*
X17940500Y-1229500D02*
X18200000Y-1229500D01*
X45110000Y-6350000D02*
X46530000Y-6350000D01*
X46530000Y-6350000D02*
X46540000Y-6340000D01*
X36760000Y-6600000D02*
X40280000Y-10120000D01*
X22180000Y-1200000D02*
X27740000Y-1200000D01*
X44670000Y-5910000D02*
X45110000Y-6350000D01*
X27740000Y-1200000D02*
X31508624Y-1200000D01*
X12170000Y-1230000D02*
X11460000Y-1940000D01*
X27740000Y-1200000D02*
X27685000Y-1255000D01*
X46540000Y-6340000D02*
X46540000Y-9230000D01*
X45630000Y-10120000D02*
X50180000Y-14670000D01*
X44830000Y-10120000D02*
X45630000Y-10120000D01*
X27685000Y-1255000D02*
X27685000Y-2790000D01*
X15880000Y-3290000D02*
X12770000Y-3290000D01*
X25145000Y-8535000D02*
X25145000Y-9850000D01*
X36750000Y-6600000D02*
X36760000Y-6600000D01*
X22180000Y-1200000D02*
X22180000Y-5570000D01*
X11460000Y-1940000D02*
X11460000Y-6005500D01*
X18199500Y-1230000D02*
X12170000Y-1230000D01*
X44670000Y-5091690D02*
X44670000Y-5910000D01*
X14930000Y-14910000D02*
X8330000Y-14910000D01*
X11460000Y-9520000D02*
X14930000Y-12990000D01*
X15880000Y-3290000D02*
X17940500Y-1229500D01*
X45650000Y-10120000D02*
X44830000Y-10120000D01*
X40280000Y-10120000D02*
X44830000Y-10120000D01*
X8330000Y-14910000D02*
X7150000Y-13730000D01*
X40220847Y-3089153D02*
X37900000Y-5410000D01*
X25145000Y-9850000D02*
X26415000Y-9850000D01*
X11460000Y-6005500D02*
X11460000Y-9520000D01*
X46540000Y-9230000D02*
X45650000Y-10120000D01*
X7150000Y-13730000D02*
X7150000Y-12230000D01*
X45165845Y-4595845D02*
X44670000Y-5091690D01*
D25*
%TO.N,GND*%
X18570000Y-12010000D02*
X15800000Y-12010000D01*
D23*
X42340000Y-4740000D02*
X40730000Y-6350000D01*
D24*
X43530000Y65000D02*
X43515000Y80000D01*
X43970000Y-4715000D02*
X44840000Y-3845000D01*
D23*
X45230000Y-7610000D02*
X43970000Y-6350000D01*
D24*
X46465000Y-3845000D02*
X52780000Y2470000D01*
D26*
X52840000Y300000D02*
X52780000Y360000D01*
X54530000Y300000D02*
X52840000Y300000D01*
D24*
X39470000Y80000D02*
X43515000Y80000D01*
X44840000Y-3845000D02*
X46465000Y-3845000D01*
X30518500Y-3488500D02*
X29820000Y-2790000D01*
X30518500Y-4718500D02*
X30518500Y-3488500D01*
X29820000Y-2790000D02*
X28955000Y-2790000D01*
X52780000Y360000D02*
X52780000Y-15090000D01*
X36950000Y-11450000D02*
X35140000Y-11450000D01*
D23*
X40730000Y-6350000D02*
X42350000Y-7970000D01*
D24*
X11580000Y490000D02*
X16160000Y490000D01*
D23*
X42350000Y-7970000D02*
X43970000Y-6350000D01*
X42360000Y-4740000D02*
X42340000Y-4740000D01*
D24*
X23660000Y-5840000D02*
X23650000Y-5850000D01*
X43530000Y-3570000D02*
X43530000Y65000D01*
D23*
X43970000Y-6350000D02*
X42360000Y-4740000D01*
D24*
X52780000Y2470000D02*
X52780000Y360000D01*
X38440000Y-950000D02*
X33800000Y-950000D01*
X25190000Y-5840000D02*
X23660000Y-5840000D01*
X34500000Y-11450000D02*
X35140000Y-11450000D01*
D23*
X45940000Y-7610000D02*
X45230000Y-7610000D01*
D24*
X43970000Y-6350000D02*
X43970000Y-4715000D01*
X42360000Y-4740000D02*
X43530000Y-3570000D01*
X36950000Y-9480000D02*
X36950000Y-11450000D01*
X39470000Y80000D02*
X38440000Y-950000D01*
D27*
%TO.N,/VDD_5V*%
X12310000Y-13990000D02*
X15750000Y-13990000D01*
X8660000Y-10340000D02*
X12310000Y-13990000D01*
X15750000Y-13990000D02*
X16510000Y-13230000D01*
X16510000Y-13230000D02*
X18360000Y-13230000D01*
X8660000Y-3890000D02*
X8660000Y-10340000D01*
X18360000Y-13230000D02*
X19760000Y-14630000D01*
D23*
%TO.N,/CHIP_EN*%
X34535000Y-4765000D02*
X34535000Y-4750000D01*
X39610000Y-2410000D02*
X40720000Y-2410000D01*
X41820000Y-1050000D02*
X40710000Y-1050000D01*
X31380000Y-7920000D02*
X34535000Y-4765000D01*
X37270000Y-4750000D02*
X39610000Y-2410000D01*
X42620000Y-1850000D02*
X41820000Y-1050000D01*
X31380000Y-7945000D02*
X31380000Y-7920000D01*
%TO.N,/GPIO0*%
X50240000Y1256128D02*
X50240000Y2470000D01*
X45876936Y-3106936D02*
X50240000Y1256128D01*
%TO.N,/GPIO1*%
X47700000Y-647477D02*
X47700000Y2470000D01*
X45008738Y-3338738D02*
X47700000Y-647477D01*
%TO.N,/GPIO2*%
X44089291Y-3551079D02*
X44089291Y1399291D01*
X44089291Y1399291D02*
X45160000Y2470000D01*
%TO.N,/GPIO9{slash}BOOT*%
X32645000Y-3115000D02*
X31686800Y-4073200D01*
%TO.N,/DTR*%
X17790000Y-8810000D02*
X21030000Y-5570000D01*
X15130000Y-8810000D02*
X17790000Y-8810000D01*
%TO.N,/U0RXD*%
X44135185Y-9194815D02*
X40834815Y-9194815D01*
X40834815Y-9194815D02*
X31780000Y-140000D01*
X8680000Y850000D02*
X7060000Y2470000D01*
X8680000Y-1500000D02*
X8680000Y850000D01*
X10670000Y-1510000D02*
X10670000Y-4510000D01*
X31780000Y-140000D02*
X10660000Y-140000D01*
%TO.N,/U0TXD*%
X9610000Y-4350000D02*
X9610000Y-580000D01*
X44950000Y-9240000D02*
X44540000Y-9650000D01*
X31665736Y-580000D02*
X9610000Y-580000D01*
X40735736Y-9650000D02*
X31665736Y-580000D01*
X9610000Y-580000D02*
X9610000Y2460000D01*
X44540000Y-9650000D02*
X40735736Y-9650000D01*
X10680000Y-5420000D02*
X9610000Y-4350000D01*
%TO.N,/SPIQ*%
X26415000Y-4285000D02*
X37070000Y-14940000D01*
X26415000Y-2790000D02*
X26415000Y-4285000D01*
%TO.N,/SPID*%
X35000000Y-15090000D02*
X29760000Y-9850000D01*
X29760000Y-9850000D02*
X28955000Y-9850000D01*
%TO.N,/SPICLK*%
X29420000Y-12050000D02*
X32460000Y-15090000D01*
X27685000Y-9850000D02*
X27685000Y-11315000D01*
X28420000Y-12050000D02*
X29420000Y-12050000D01*
X27685000Y-11315000D02*
X28420000Y-12050000D01*
%TO.N,/SPICS0*%
X25145000Y-2790000D02*
X25145000Y-4465000D01*
X27050000Y-12220000D02*
X29920000Y-15090000D01*
X25145000Y-4465000D02*
X27050000Y-6370000D01*
X27050000Y-6370000D02*
X27050000Y-12220000D01*
%TO.N,Net-(USB1-CC1)*%
X13870000Y-10940000D02*
X16540000Y-10940000D01*
X16540000Y-10940000D02*
X17430000Y-10050000D01*
%TO.N,Net-(VT2-B)*%
X20050000Y-4750000D02*
X20050000Y-2670000D01*
X20050000Y-2670000D02*
X21020000Y-1700000D01*
X19210000Y-5590000D02*
X20050000Y-4750000D01*
%TO.N,Net-(USB1-CC2)*%
X18210000Y-7330000D02*
X17450000Y-8090000D01*
X17450000Y-8090000D02*
X12550000Y-8090000D01*
%TD*%
%TA.AperFunction,Conductor*%
%TO.N,GND*%
G36*
X3457344Y3539498D02*
G01*
X3503837Y3485842D01*
X3513941Y3415568D01*
X3484447Y3350988D01*
X3481923Y3348161D01*
X3444280Y3307272D01*
X3444275Y3307266D01*
X3321141Y3118794D01*
X3230703Y2912614D01*
X3230702Y2912613D01*
X3175437Y2694376D01*
X3175436Y2694370D01*
X3175436Y2694368D01*
X3156844Y2470000D01*
X3175377Y2246342D01*
X3175437Y2245625D01*
X3230702Y2027388D01*
X3230703Y2027387D01*
X3230704Y2027384D01*
X3321140Y1821209D01*
X3321141Y1821207D01*
X3444275Y1632735D01*
X3444279Y1632730D01*
X3572539Y1493404D01*
X3588977Y1475548D01*
X3596762Y1467092D01*
X3642452Y1431530D01*
X3774424Y1328811D01*
X3972426Y1221658D01*
X3972427Y1221658D01*
X3972428Y1221657D01*
X4068721Y1188600D01*
X4185365Y1148556D01*
X4407431Y1111500D01*
X4407435Y1111500D01*
X4632565Y1111500D01*
X4632569Y1111500D01*
X4854635Y1148556D01*
X5067574Y1221658D01*
X5265576Y1328811D01*
X5443240Y1467094D01*
X5595722Y1632732D01*
X5595927Y1633045D01*
X5618472Y1667553D01*
X5684518Y1768646D01*
X5738520Y1814732D01*
X5808868Y1824308D01*
X5873225Y1794331D01*
X5895480Y1768647D01*
X5928219Y1718537D01*
X5984275Y1632735D01*
X5984279Y1632730D01*
X6112539Y1493404D01*
X6128977Y1475548D01*
X6136762Y1467092D01*
X6182452Y1431530D01*
X6314424Y1328811D01*
X6512426Y1221658D01*
X6512429Y1221657D01*
X6512431Y1221656D01*
X6533073Y1214570D01*
X6575033Y1200166D01*
X6581067Y1197739D01*
X6599709Y1189100D01*
X6657999Y1171633D01*
X6660309Y1170890D01*
X6725365Y1148556D01*
X6743213Y1145578D01*
X6750918Y1143788D01*
X6969580Y1078262D01*
X6969607Y1078256D01*
X6969608Y1078255D01*
X6992801Y1072468D01*
X6992820Y1072464D01*
X6992828Y1072462D01*
X7018366Y1067343D01*
X7018370Y1067343D01*
X7018377Y1067341D01*
X7031547Y1065330D01*
X7041880Y1063752D01*
X7041908Y1063750D01*
X7041916Y1063748D01*
X7111378Y1056413D01*
X7346347Y1031598D01*
X7519419Y1015194D01*
X7550262Y1008287D01*
X7627135Y980568D01*
X7662585Y960843D01*
X7864533Y801017D01*
X7869004Y797654D01*
X7876735Y791838D01*
X7883411Y786040D01*
X7961519Y707932D01*
X8034595Y634856D01*
X8068621Y572544D01*
X8071500Y545761D01*
X8071500Y-946058D01*
X8069033Y-970869D01*
X8066673Y-982615D01*
X8066091Y-993111D01*
X8051704Y-1044962D01*
X8038459Y-1070043D01*
X8035653Y-1075512D01*
X8032495Y-1081855D01*
X8029283Y-1088546D01*
X7985860Y-1182502D01*
X7983697Y-1187435D01*
X7983683Y-1187470D01*
X7961787Y-1247210D01*
X7961784Y-1247225D01*
X7961298Y-1250518D01*
X7955579Y-1273731D01*
X7935837Y-1330149D01*
X7917602Y-1492001D01*
X7890099Y-1557454D01*
X7831575Y-1597647D01*
X7760612Y-1599820D01*
X7699739Y-1563282D01*
X7681272Y-1537290D01*
X7641175Y-1462275D01*
X7515211Y-1308788D01*
X7361724Y-1182824D01*
X7186614Y-1089225D01*
X7186599Y-1089219D01*
X6996606Y-1031585D01*
X6996594Y-1031583D01*
X6848526Y-1017000D01*
X6503000Y-1017000D01*
X6503000Y-1725000D01*
X5995000Y-1725000D01*
X5995000Y-1017000D01*
X5649473Y-1017000D01*
X5501405Y-1031583D01*
X5501393Y-1031585D01*
X5311400Y-1089219D01*
X5311385Y-1089225D01*
X5136275Y-1182824D01*
X4982788Y-1308788D01*
X4856824Y-1462275D01*
X4763224Y-1637387D01*
X4763223Y-1637389D01*
X4722692Y-1770999D01*
X4722693Y-1771000D01*
X5489349Y-1771000D01*
X5443390Y-1799457D01*
X5375799Y-1888962D01*
X5345105Y-1996840D01*
X5355454Y-2108521D01*
X5405448Y-2208922D01*
X5482318Y-2279000D01*
X4722693Y-2279000D01*
X4763223Y-2412610D01*
X4763224Y-2412612D01*
X4856824Y-2587724D01*
X4982788Y-2741211D01*
X5136275Y-2867175D01*
X5292148Y-2950491D01*
X5342796Y-3000243D01*
X5358506Y-3069480D01*
X5335691Y-3134274D01*
X5278029Y-3215963D01*
X5278026Y-3215967D01*
X5229653Y-3352080D01*
X5219796Y-3496197D01*
X5249186Y-3637636D01*
X5315645Y-3765893D01*
X5315647Y-3765896D01*
X5414242Y-3871467D01*
X5414244Y-3871468D01*
X5414245Y-3871469D01*
X5473547Y-3907531D01*
X5537672Y-3946526D01*
X5676770Y-3985500D01*
X5676772Y-3985500D01*
X5784949Y-3985500D01*
X5784962Y-3985499D01*
X5867298Y-3974181D01*
X5892111Y-3970771D01*
X6024609Y-3913219D01*
X6136665Y-3822054D01*
X6219971Y-3704037D01*
X6220089Y-3703707D01*
X6242336Y-3641107D01*
X6268346Y-3567921D01*
X6278204Y-3423801D01*
X6248814Y-3282366D01*
X6248813Y-3282364D01*
X6248813Y-3282363D01*
X6193810Y-3176214D01*
X6182354Y-3154105D01*
X6083755Y-3048531D01*
X6055530Y-3031367D01*
X6007720Y-2978883D01*
X5994999Y-2923711D01*
X5995000Y-2325000D01*
X6503000Y-2325000D01*
X6503000Y-3033000D01*
X6848509Y-3033000D01*
X6848526Y-3032999D01*
X6996594Y-3018416D01*
X6996606Y-3018414D01*
X7186599Y-2960780D01*
X7186614Y-2960774D01*
X7361724Y-2867175D01*
X7515211Y-2741211D01*
X7641175Y-2587724D01*
X7734775Y-2412612D01*
X7734776Y-2412610D01*
X7775307Y-2279000D01*
X7008651Y-2279000D01*
X7054610Y-2250543D01*
X7122201Y-2161038D01*
X7152895Y-2053160D01*
X7142546Y-1941479D01*
X7092552Y-1841078D01*
X7015682Y-1771000D01*
X7781972Y-1771000D01*
X7823454Y-1739657D01*
X7894246Y-1734275D01*
X7956710Y-1768021D01*
X7986942Y-1815897D01*
X7992291Y-1831183D01*
X8071986Y-1958016D01*
X8083231Y-1975912D01*
X8204087Y-2096768D01*
X8204089Y-2096769D01*
X8204091Y-2096771D01*
X8348817Y-2187709D01*
X8510150Y-2244162D01*
X8510149Y-2244162D01*
X8520259Y-2245301D01*
X8680000Y-2263299D01*
X8824502Y-2247018D01*
X8856882Y-2243370D01*
X8857099Y-2245301D01*
X8918310Y-2249044D01*
X8975582Y-2291001D01*
X9001078Y-2357261D01*
X9001499Y-2367548D01*
X9001499Y-2822389D01*
X8981497Y-2890510D01*
X8927841Y-2937003D01*
X8857567Y-2947107D01*
X8850919Y-2945968D01*
X8847898Y-2945367D01*
X8660003Y-2926862D01*
X8659997Y-2926862D01*
X8472108Y-2945366D01*
X8472100Y-2945368D01*
X8291421Y-3000177D01*
X8124908Y-3089180D01*
X7978959Y-3208959D01*
X7859180Y-3354908D01*
X7770177Y-3521421D01*
X7715368Y-3702100D01*
X7715366Y-3702108D01*
X7696862Y-3889996D01*
X7696862Y-3890003D01*
X7715366Y-4077891D01*
X7715368Y-4077899D01*
X7765332Y-4242607D01*
X7770178Y-4258580D01*
X7772768Y-4264833D01*
X7774267Y-4268832D01*
X7775074Y-4271230D01*
X7839174Y-4424424D01*
X7839899Y-4426234D01*
X7872695Y-4511972D01*
X7874910Y-4518957D01*
X7882580Y-4549112D01*
X7883612Y-4553166D01*
X7886829Y-4571251D01*
X7893201Y-4632813D01*
X7893525Y-4638107D01*
X7896373Y-4788267D01*
X7896374Y-4788276D01*
X7899770Y-4838281D01*
X7899819Y-4838576D01*
X7901499Y-4859080D01*
X7901500Y-8108258D01*
X7881498Y-8176379D01*
X7872900Y-8188191D01*
X7859180Y-8204908D01*
X7770177Y-8371421D01*
X7715368Y-8552100D01*
X7715366Y-8552108D01*
X7696862Y-8739996D01*
X7696862Y-8740003D01*
X7715366Y-8927891D01*
X7715368Y-8927899D01*
X7770177Y-9108578D01*
X7859181Y-9275094D01*
X7872899Y-9291809D01*
X7900652Y-9357156D01*
X7901499Y-9371741D01*
X7901500Y-10096287D01*
X7881498Y-10164408D01*
X7827842Y-10210901D01*
X7757569Y-10221005D01*
X7692988Y-10191512D01*
X7664378Y-10155684D01*
X7641174Y-10112273D01*
X7515211Y-9958788D01*
X7361724Y-9832824D01*
X7186614Y-9739225D01*
X7186599Y-9739219D01*
X6996606Y-9681585D01*
X6996594Y-9681583D01*
X6848526Y-9667000D01*
X6503000Y-9667000D01*
X6503000Y-10375000D01*
X5995000Y-10375000D01*
X5995000Y-9777231D01*
X6015002Y-9709110D01*
X6041482Y-9679492D01*
X6075926Y-9651469D01*
X6136665Y-9602054D01*
X6219971Y-9484037D01*
X6268346Y-9347921D01*
X6278204Y-9203801D01*
X6248814Y-9062366D01*
X6248813Y-9062364D01*
X6248813Y-9062363D01*
X6195343Y-8959173D01*
X6182354Y-8934105D01*
X6158737Y-8908817D01*
X6083757Y-8828532D01*
X6083755Y-8828531D01*
X5960327Y-8753473D01*
X5821230Y-8714500D01*
X5821228Y-8714500D01*
X5713051Y-8714500D01*
X5713037Y-8714500D01*
X5605897Y-8729227D01*
X5605888Y-8729229D01*
X5473389Y-8786781D01*
X5361337Y-8877944D01*
X5361331Y-8877950D01*
X5278029Y-8995961D01*
X5278026Y-8995967D01*
X5229653Y-9132080D01*
X5219796Y-9276197D01*
X5219796Y-9276199D01*
X5223040Y-9291809D01*
X5249186Y-9417636D01*
X5315645Y-9545893D01*
X5315647Y-9545897D01*
X5322750Y-9553502D01*
X5354627Y-9616940D01*
X5347146Y-9687541D01*
X5302683Y-9742891D01*
X5290060Y-9750624D01*
X5136273Y-9832825D01*
X4982788Y-9958788D01*
X4856824Y-10112275D01*
X4763224Y-10287387D01*
X4763223Y-10287389D01*
X4722692Y-10420999D01*
X4722693Y-10421000D01*
X5489349Y-10421000D01*
X5443390Y-10449457D01*
X5375799Y-10538962D01*
X5345105Y-10646840D01*
X5355454Y-10758521D01*
X5405448Y-10858922D01*
X5482318Y-10929000D01*
X4722693Y-10929000D01*
X4763223Y-11062610D01*
X4763224Y-11062612D01*
X4856824Y-11237724D01*
X4982788Y-11391211D01*
X5136275Y-11517175D01*
X5311385Y-11610774D01*
X5311400Y-11610780D01*
X5501393Y-11668414D01*
X5501405Y-11668416D01*
X5649473Y-11682999D01*
X5649491Y-11683000D01*
X5995000Y-11683000D01*
X5995000Y-10975000D01*
X6503000Y-10975000D01*
X6503000Y-11693619D01*
X6524253Y-11732540D01*
X6519188Y-11803355D01*
X6507819Y-11826359D01*
X6462292Y-11898814D01*
X6462291Y-11898816D01*
X6405837Y-12060151D01*
X6386701Y-12230000D01*
X6405837Y-12399850D01*
X6437808Y-12491219D01*
X6439496Y-12496884D01*
X6447573Y-12529497D01*
X6475856Y-12599188D01*
X6477096Y-12602510D01*
X6478887Y-12607751D01*
X6485371Y-12640048D01*
X6485668Y-12644473D01*
X6485807Y-12648174D01*
X6486421Y-12722626D01*
X6486422Y-12722637D01*
X6489582Y-12775443D01*
X6489951Y-12777774D01*
X6491499Y-12797462D01*
X6491500Y-13643389D01*
X6489708Y-13659620D01*
X6489958Y-13659644D01*
X6489211Y-13667536D01*
X6491469Y-13739358D01*
X6491500Y-13741337D01*
X6491500Y-13771430D01*
X6492427Y-13778776D01*
X6492893Y-13784690D01*
X6494437Y-13833829D01*
X6494438Y-13833832D01*
X6500421Y-13854429D01*
X6504428Y-13873780D01*
X6507117Y-13895060D01*
X6507117Y-13895062D01*
X6525216Y-13940778D01*
X6527139Y-13946394D01*
X6540853Y-13993597D01*
X6540853Y-13993598D01*
X6551771Y-14012058D01*
X6560468Y-14029811D01*
X6568364Y-14049755D01*
X6568367Y-14049760D01*
X6585028Y-14072690D01*
X6597265Y-14089532D01*
X6600521Y-14094490D01*
X6622968Y-14132447D01*
X6625547Y-14136807D01*
X6640714Y-14151974D01*
X6653552Y-14167005D01*
X6666158Y-14184356D01*
X6704039Y-14215694D01*
X6708420Y-14219680D01*
X7262733Y-14773993D01*
X7803125Y-15314385D01*
X7813338Y-15327131D01*
X7813531Y-15326972D01*
X7818583Y-15333079D01*
X7818584Y-15333080D01*
X7859549Y-15371549D01*
X7870978Y-15382281D01*
X7872367Y-15383627D01*
X7893667Y-15404927D01*
X7893675Y-15404933D01*
X7899517Y-15409465D01*
X7904033Y-15413322D01*
X7939867Y-15446972D01*
X7958669Y-15457308D01*
X7975175Y-15468151D01*
X7992132Y-15481304D01*
X8037254Y-15500829D01*
X8042580Y-15503439D01*
X8085659Y-15527123D01*
X8085663Y-15527124D01*
X8106432Y-15532456D01*
X8125134Y-15538859D01*
X8144824Y-15547380D01*
X8193395Y-15555072D01*
X8199189Y-15556271D01*
X8246812Y-15568500D01*
X8268259Y-15568500D01*
X8287967Y-15570050D01*
X8309152Y-15573406D01*
X8346880Y-15569839D01*
X8358094Y-15568780D01*
X8364027Y-15568500D01*
X14394481Y-15568500D01*
X14413437Y-15569933D01*
X14437382Y-15573578D01*
X14511849Y-15574190D01*
X14515493Y-15574328D01*
X14519952Y-15574626D01*
X14552269Y-15581117D01*
X14557500Y-15582905D01*
X14560814Y-15584142D01*
X14630496Y-15612423D01*
X14679771Y-15629561D01*
X14684489Y-15630231D01*
X14708389Y-15636049D01*
X14760150Y-15654162D01*
X14930000Y-15673299D01*
X15099850Y-15654162D01*
X15261183Y-15597709D01*
X15405909Y-15506771D01*
X15526771Y-15385909D01*
X15617709Y-15241183D01*
X15625998Y-15217492D01*
X15667374Y-15159802D01*
X15733374Y-15133639D01*
X15803042Y-15147311D01*
X15854259Y-15196478D01*
X15870497Y-15248702D01*
X15875932Y-15314292D01*
X15931176Y-15532449D01*
X15931178Y-15532454D01*
X16021580Y-15738548D01*
X16144674Y-15926958D01*
X16182606Y-15968163D01*
X16214026Y-16031828D01*
X16206039Y-16102374D01*
X16161180Y-16157403D01*
X16093691Y-16179443D01*
X16089904Y-16179500D01*
X3051772Y-16179500D01*
X3048238Y-16179401D01*
X2745689Y-16162410D01*
X2738663Y-16161618D01*
X2441670Y-16111157D01*
X2434777Y-16109583D01*
X2145299Y-16026186D01*
X2138625Y-16023851D01*
X1860308Y-15908568D01*
X1853937Y-15905500D01*
X1590275Y-15759779D01*
X1584289Y-15756017D01*
X1338605Y-15581696D01*
X1333077Y-15577288D01*
X1108450Y-15376548D01*
X1103451Y-15371549D01*
X902711Y-15146922D01*
X898303Y-15141394D01*
X723982Y-14895710D01*
X720220Y-14889724D01*
X574499Y-14626062D01*
X571431Y-14619691D01*
X486367Y-14414328D01*
X456146Y-14341369D01*
X453813Y-14334700D01*
X417887Y-14209999D01*
X796751Y-14209999D01*
X803807Y-14286162D01*
X804004Y-14288976D01*
X807791Y-14368470D01*
X807792Y-14368476D01*
X811522Y-14383855D01*
X814534Y-14401922D01*
X815705Y-14414553D01*
X815706Y-14414561D01*
X824596Y-14445805D01*
X835449Y-14483950D01*
X837534Y-14491276D01*
X838163Y-14493664D01*
X857700Y-14574198D01*
X857705Y-14574213D01*
X862828Y-14585430D01*
X869403Y-14603285D01*
X871925Y-14612151D01*
X871927Y-14612156D01*
X908935Y-14686475D01*
X909847Y-14688386D01*
X945644Y-14766771D01*
X945645Y-14766772D01*
X950787Y-14773993D01*
X960940Y-14790915D01*
X963495Y-14796047D01*
X963496Y-14796048D01*
X963497Y-14796050D01*
X1015526Y-14864948D01*
X1016528Y-14866313D01*
X1068441Y-14939215D01*
X1072340Y-14942933D01*
X1085938Y-14958189D01*
X1087299Y-14959991D01*
X1153547Y-15020384D01*
X1154517Y-15021288D01*
X1221654Y-15085303D01*
X1223252Y-15086330D01*
X1234437Y-15094925D01*
X1234471Y-15094882D01*
X1239109Y-15098384D01*
X1239118Y-15098392D01*
X1318554Y-15147577D01*
X1394645Y-15196478D01*
X1399751Y-15199759D01*
X1405080Y-15202506D01*
X1405040Y-15202582D01*
X1408398Y-15204277D01*
X1408566Y-15203942D01*
X1413777Y-15206537D01*
X1413782Y-15206540D01*
X1503782Y-15241405D01*
X1596279Y-15278436D01*
X1596474Y-15278473D01*
X1601796Y-15279740D01*
X1605335Y-15280747D01*
X1605345Y-15280751D01*
X1703229Y-15299048D01*
X1804151Y-15318500D01*
X1804154Y-15318500D01*
X2012715Y-15318500D01*
X2012718Y-15318500D01*
X2062077Y-15309272D01*
X2067642Y-15308488D01*
X2120739Y-15303419D01*
X2165612Y-15290242D01*
X2171777Y-15288765D01*
X2214655Y-15280751D01*
X2264536Y-15261426D01*
X2269523Y-15259731D01*
X2323862Y-15243777D01*
X2362505Y-15223853D01*
X2368592Y-15221115D01*
X2406218Y-15206540D01*
X2454487Y-15176651D01*
X2458768Y-15174226D01*
X2512026Y-15146771D01*
X2543609Y-15121932D01*
X2549378Y-15117897D01*
X2580882Y-15098392D01*
X2625278Y-15057918D01*
X2628762Y-15054967D01*
X2678432Y-15015908D01*
X2702595Y-14988021D01*
X2707743Y-14982742D01*
X2732701Y-14959991D01*
X2770881Y-14909430D01*
X2773535Y-14906153D01*
X2782584Y-14895710D01*
X2817065Y-14855918D01*
X2833864Y-14826817D01*
X2838145Y-14820358D01*
X2856503Y-14796050D01*
X2886205Y-14736398D01*
X2888034Y-14732994D01*
X2903315Y-14706526D01*
X2922913Y-14672582D01*
X2932822Y-14643951D01*
X2935962Y-14636475D01*
X2941147Y-14626062D01*
X2948074Y-14612152D01*
X2967212Y-14544885D01*
X2968264Y-14541548D01*
X2976235Y-14518517D01*
X2992153Y-14472527D01*
X2995996Y-14445792D01*
X2997761Y-14437518D01*
X3004293Y-14414561D01*
X3004294Y-14414559D01*
X3011049Y-14341654D01*
X3011418Y-14338532D01*
X3022281Y-14262984D01*
X3021152Y-14239299D01*
X3021349Y-14230489D01*
X3023249Y-14210000D01*
X3016186Y-14133789D01*
X3015996Y-14131071D01*
X3012208Y-14051526D01*
X3008478Y-14036153D01*
X3005464Y-14018076D01*
X3004294Y-14005441D01*
X2982453Y-13928681D01*
X2981841Y-13926356D01*
X2962298Y-13845796D01*
X2957168Y-13834565D01*
X2950594Y-13816707D01*
X2948074Y-13807848D01*
X2911056Y-13733508D01*
X2910146Y-13731600D01*
X2874358Y-13653232D01*
X2874356Y-13653229D01*
X2869208Y-13646000D01*
X2859061Y-13629087D01*
X2856503Y-13623950D01*
X2856500Y-13623946D01*
X2856499Y-13623944D01*
X2804495Y-13555081D01*
X2803452Y-13553658D01*
X2751565Y-13480793D01*
X2751562Y-13480788D01*
X2751559Y-13480785D01*
X2747655Y-13477062D01*
X2734062Y-13461812D01*
X2732701Y-13460009D01*
X2666457Y-13399620D01*
X2665478Y-13398707D01*
X2598346Y-13334697D01*
X2596739Y-13333664D01*
X2585561Y-13325074D01*
X2585529Y-13325118D01*
X2580888Y-13321613D01*
X2580882Y-13321608D01*
X2501445Y-13272422D01*
X2456206Y-13243349D01*
X2420255Y-13220244D01*
X2414916Y-13217492D01*
X2414955Y-13217415D01*
X2411601Y-13215722D01*
X2411435Y-13216057D01*
X2406217Y-13213459D01*
X2316181Y-13178579D01*
X2223727Y-13141565D01*
X2223717Y-13141562D01*
X2223532Y-13141527D01*
X2218223Y-13140264D01*
X2214653Y-13139248D01*
X2116693Y-13120936D01*
X2015855Y-13101501D01*
X2015853Y-13101500D01*
X2015849Y-13101500D01*
X2012718Y-13101500D01*
X1807282Y-13101500D01*
X1757929Y-13110725D01*
X1752340Y-13111512D01*
X1699270Y-13116579D01*
X1699261Y-13116581D01*
X1654399Y-13129753D01*
X1648224Y-13131233D01*
X1605348Y-13139248D01*
X1605345Y-13139248D01*
X1605345Y-13139249D01*
X1592202Y-13144340D01*
X1555481Y-13158565D01*
X1550473Y-13160267D01*
X1496141Y-13176221D01*
X1457508Y-13196137D01*
X1451396Y-13198887D01*
X1413789Y-13213456D01*
X1413783Y-13213459D01*
X1365506Y-13243349D01*
X1361211Y-13245781D01*
X1307973Y-13273229D01*
X1307971Y-13273230D01*
X1276399Y-13298058D01*
X1270619Y-13302101D01*
X1239120Y-13321606D01*
X1194736Y-13362066D01*
X1191238Y-13365029D01*
X1141567Y-13404092D01*
X1117415Y-13431963D01*
X1112245Y-13437265D01*
X1087303Y-13460003D01*
X1049132Y-13510549D01*
X1046470Y-13513838D01*
X1002934Y-13564083D01*
X1002931Y-13564087D01*
X986136Y-13593176D01*
X981849Y-13599646D01*
X963498Y-13623946D01*
X963498Y-13623947D01*
X933799Y-13683588D01*
X931964Y-13687005D01*
X897087Y-13747417D01*
X897085Y-13747421D01*
X887178Y-13776045D01*
X884037Y-13783523D01*
X871926Y-13807846D01*
X871925Y-13807849D01*
X852787Y-13875110D01*
X851727Y-13878473D01*
X827846Y-13947475D01*
X824003Y-13974196D01*
X822239Y-13982474D01*
X815705Y-14005441D01*
X808953Y-14078311D01*
X808581Y-14081463D01*
X797718Y-14157018D01*
X798846Y-14180689D01*
X798649Y-14189506D01*
X796751Y-14209997D01*
X796751Y-14209999D01*
X417887Y-14209999D01*
X370416Y-14045222D01*
X368844Y-14038340D01*
X319415Y-13747421D01*
X318381Y-13741335D01*
X317589Y-13734309D01*
X317544Y-13733512D01*
X303760Y-13488052D01*
X300599Y-13431760D01*
X300500Y-13428227D01*
X300500Y-10420999D01*
X622692Y-10420999D01*
X622693Y-10421000D01*
X1439349Y-10421000D01*
X1393390Y-10449457D01*
X1325799Y-10538962D01*
X1295105Y-10646840D01*
X1305454Y-10758521D01*
X1355448Y-10858922D01*
X1432318Y-10929000D01*
X622693Y-10929000D01*
X663223Y-11062610D01*
X663224Y-11062612D01*
X756824Y-11237724D01*
X882788Y-11391211D01*
X1036275Y-11517175D01*
X1211385Y-11610774D01*
X1211400Y-11610780D01*
X1401393Y-11668414D01*
X1401405Y-11668416D01*
X1549473Y-11682999D01*
X1549491Y-11683000D01*
X1795000Y-11683000D01*
X1795000Y-10975000D01*
X2303000Y-10975000D01*
X2303000Y-11683000D01*
X2548509Y-11683000D01*
X2548526Y-11682999D01*
X2696594Y-11668416D01*
X2696606Y-11668414D01*
X2886599Y-11610780D01*
X2886614Y-11610774D01*
X3061724Y-11517175D01*
X3215211Y-11391211D01*
X3341175Y-11237724D01*
X3434775Y-11062612D01*
X3434776Y-11062610D01*
X3475307Y-10929000D01*
X2658651Y-10929000D01*
X2704610Y-10900543D01*
X2772201Y-10811038D01*
X2802895Y-10703160D01*
X2792546Y-10591479D01*
X2742552Y-10491078D01*
X2665682Y-10421000D01*
X3475307Y-10421000D01*
X3475307Y-10420999D01*
X3434776Y-10287389D01*
X3434775Y-10287387D01*
X3341175Y-10112275D01*
X3215211Y-9958788D01*
X3061724Y-9832824D01*
X2886614Y-9739225D01*
X2886599Y-9739219D01*
X2696606Y-9681585D01*
X2696594Y-9681583D01*
X2548526Y-9667000D01*
X2303000Y-9667000D01*
X2303000Y-10375000D01*
X1795000Y-10375000D01*
X1795000Y-9667000D01*
X1549473Y-9667000D01*
X1401405Y-9681583D01*
X1401393Y-9681585D01*
X1211400Y-9739219D01*
X1211385Y-9739225D01*
X1036275Y-9832824D01*
X882788Y-9958788D01*
X756824Y-10112275D01*
X663224Y-10287387D01*
X663223Y-10287389D01*
X622692Y-10420999D01*
X300500Y-10420999D01*
X300500Y-5600000D01*
X5306701Y-5600000D01*
X5323148Y-5745980D01*
X5325838Y-5769850D01*
X5360183Y-5868003D01*
X5370982Y-5898865D01*
X5371883Y-5901647D01*
X5377994Y-5922114D01*
X5391544Y-5951432D01*
X5419186Y-6011240D01*
X5422262Y-6017660D01*
X5422276Y-6017689D01*
X5425405Y-6023994D01*
X5428361Y-6029766D01*
X5434598Y-6041578D01*
X5448718Y-6111156D01*
X5434678Y-6159093D01*
X5428288Y-6171233D01*
X5424997Y-6177704D01*
X5421934Y-6183945D01*
X5419342Y-6189391D01*
X5378598Y-6277652D01*
X5376481Y-6282237D01*
X5374465Y-6286816D01*
X5371081Y-6296030D01*
X5352280Y-6347219D01*
X5352278Y-6347226D01*
X5351788Y-6350549D01*
X5346070Y-6373752D01*
X5326338Y-6430146D01*
X5326338Y-6430148D01*
X5307201Y-6600000D01*
X5326337Y-6769848D01*
X5382790Y-6931182D01*
X5473731Y-7075912D01*
X5594587Y-7196768D01*
X5594589Y-7196769D01*
X5594591Y-7196771D01*
X5739317Y-7287709D01*
X5900650Y-7344162D01*
X5900649Y-7344162D01*
X5915516Y-7345837D01*
X6070500Y-7363299D01*
X6240350Y-7344162D01*
X6401683Y-7287709D01*
X6546409Y-7196771D01*
X6667271Y-7075909D01*
X6758209Y-6931183D01*
X6814662Y-6769850D01*
X6833799Y-6600000D01*
X6814662Y-6430150D01*
X6769260Y-6300402D01*
X6768387Y-6297708D01*
X6762389Y-6277651D01*
X6762387Y-6277648D01*
X6762386Y-6277643D01*
X6721112Y-6188453D01*
X6720304Y-6186771D01*
X6717890Y-6181746D01*
X6714656Y-6175255D01*
X6714651Y-6175244D01*
X6711699Y-6169503D01*
X6705927Y-6158616D01*
X6691690Y-6089062D01*
X6705835Y-6040751D01*
X6711622Y-6029794D01*
X6714560Y-6024058D01*
X6717719Y-6017695D01*
X6720806Y-6011252D01*
X6764097Y-5917586D01*
X6766276Y-5912619D01*
X6788213Y-5852780D01*
X6788696Y-5849507D01*
X6794417Y-5826273D01*
X6814162Y-5769850D01*
X6833299Y-5600000D01*
X6814162Y-5430150D01*
X6757709Y-5268817D01*
X6666771Y-5124091D01*
X6666769Y-5124089D01*
X6666768Y-5124087D01*
X6545912Y-5003231D01*
X6401182Y-4912290D01*
X6296841Y-4875780D01*
X6239850Y-4855838D01*
X6239848Y-4855837D01*
X6239850Y-4855837D01*
X6087198Y-4838638D01*
X6070000Y-4836701D01*
X6069999Y-4836701D01*
X5900151Y-4855837D01*
X5738817Y-4912290D01*
X5594087Y-5003231D01*
X5473231Y-5124087D01*
X5382290Y-5268817D01*
X5325837Y-5430151D01*
X5306701Y-5600000D01*
X300500Y-5600000D01*
X300500Y-1770999D01*
X622692Y-1770999D01*
X622693Y-1771000D01*
X1439349Y-1771000D01*
X1393390Y-1799457D01*
X1325799Y-1888962D01*
X1295105Y-1996840D01*
X1305454Y-2108521D01*
X1355448Y-2208922D01*
X1432318Y-2279000D01*
X622693Y-2279000D01*
X663223Y-2412610D01*
X663224Y-2412612D01*
X756824Y-2587724D01*
X882788Y-2741211D01*
X1036275Y-2867175D01*
X1211385Y-2960774D01*
X1211400Y-2960780D01*
X1401393Y-3018414D01*
X1401405Y-3018416D01*
X1549473Y-3032999D01*
X1549491Y-3033000D01*
X1795000Y-3033000D01*
X1795000Y-2325000D01*
X2303000Y-2325000D01*
X2303000Y-3033000D01*
X2548509Y-3033000D01*
X2548526Y-3032999D01*
X2696594Y-3018416D01*
X2696606Y-3018414D01*
X2886599Y-2960780D01*
X2886614Y-2960774D01*
X3061724Y-2867175D01*
X3215211Y-2741211D01*
X3341175Y-2587724D01*
X3434775Y-2412612D01*
X3434776Y-2412610D01*
X3475307Y-2279000D01*
X2658651Y-2279000D01*
X2704610Y-2250543D01*
X2772201Y-2161038D01*
X2802895Y-2053160D01*
X2792546Y-1941479D01*
X2742552Y-1841078D01*
X2665682Y-1771000D01*
X3475307Y-1771000D01*
X3475307Y-1770999D01*
X3434776Y-1637389D01*
X3434775Y-1637387D01*
X3341175Y-1462275D01*
X3215211Y-1308788D01*
X3061724Y-1182824D01*
X2886614Y-1089225D01*
X2886599Y-1089219D01*
X2696606Y-1031585D01*
X2696594Y-1031583D01*
X2548526Y-1017000D01*
X2303000Y-1017000D01*
X2303000Y-1725000D01*
X1795000Y-1725000D01*
X1795000Y-1017000D01*
X1549473Y-1017000D01*
X1401405Y-1031583D01*
X1401393Y-1031585D01*
X1211400Y-1089219D01*
X1211385Y-1089225D01*
X1036275Y-1182824D01*
X882788Y-1308788D01*
X756824Y-1462275D01*
X663224Y-1637387D01*
X663223Y-1637389D01*
X622692Y-1770999D01*
X300500Y-1770999D01*
X300500Y808229D01*
X300599Y811762D01*
X317590Y1114316D01*
X318382Y1121342D01*
X323089Y1149045D01*
X368845Y1418345D01*
X370416Y1425223D01*
X374268Y1438593D01*
X417888Y1590001D01*
X796751Y1590001D01*
X803807Y1513838D01*
X804004Y1511024D01*
X807791Y1431530D01*
X807792Y1431524D01*
X811522Y1416145D01*
X814534Y1398078D01*
X815705Y1385447D01*
X815706Y1385439D01*
X824596Y1354195D01*
X834556Y1319188D01*
X837534Y1308724D01*
X838163Y1306336D01*
X857700Y1225802D01*
X857705Y1225787D01*
X862828Y1214570D01*
X869403Y1196715D01*
X871925Y1187849D01*
X871927Y1187844D01*
X908935Y1113525D01*
X909847Y1111614D01*
X930065Y1067343D01*
X945644Y1033229D01*
X946805Y1031598D01*
X950787Y1026007D01*
X960940Y1009085D01*
X963495Y1003953D01*
X963496Y1003952D01*
X963497Y1003950D01*
X1015526Y935052D01*
X1016528Y933687D01*
X1068441Y860785D01*
X1072340Y857067D01*
X1085938Y841811D01*
X1087299Y840009D01*
X1153547Y779616D01*
X1154517Y778712D01*
X1221654Y714697D01*
X1223252Y713670D01*
X1234437Y705075D01*
X1234471Y705118D01*
X1239109Y701616D01*
X1239118Y701608D01*
X1318554Y652423D01*
X1361766Y624652D01*
X1399751Y600241D01*
X1405080Y597494D01*
X1405040Y597418D01*
X1408398Y595723D01*
X1408566Y596058D01*
X1413777Y593463D01*
X1413782Y593460D01*
X1503782Y558595D01*
X1596279Y521564D01*
X1596474Y521527D01*
X1601796Y520260D01*
X1605335Y519253D01*
X1605345Y519249D01*
X1703229Y500952D01*
X1804151Y481500D01*
X1804154Y481500D01*
X2012715Y481500D01*
X2012718Y481500D01*
X2062077Y490728D01*
X2067642Y491512D01*
X2120739Y496581D01*
X2165612Y509758D01*
X2171777Y511235D01*
X2214655Y519249D01*
X2264536Y538574D01*
X2269523Y540269D01*
X2323862Y556223D01*
X2325775Y557209D01*
X2337319Y563161D01*
X2362505Y576147D01*
X2368592Y578885D01*
X2406218Y593460D01*
X2454487Y623349D01*
X2458768Y625774D01*
X2512026Y653229D01*
X2543609Y678068D01*
X2549378Y682103D01*
X2580882Y701608D01*
X2625278Y742082D01*
X2628762Y745033D01*
X2678432Y784092D01*
X2702595Y811979D01*
X2707743Y817258D01*
X2732701Y840009D01*
X2770881Y890570D01*
X2773535Y893847D01*
X2817065Y944082D01*
X2833864Y973183D01*
X2838145Y979642D01*
X2856503Y1003950D01*
X2886205Y1063602D01*
X2888034Y1067006D01*
X2894536Y1078268D01*
X2922913Y1127418D01*
X2932822Y1156049D01*
X2935962Y1163525D01*
X2939339Y1170306D01*
X2948074Y1187848D01*
X2967212Y1255115D01*
X2968264Y1258452D01*
X2978936Y1289287D01*
X2992153Y1327473D01*
X2995996Y1354208D01*
X2997761Y1362482D01*
X3004294Y1385441D01*
X3011049Y1458346D01*
X3011418Y1461468D01*
X3022281Y1537016D01*
X3021152Y1560701D01*
X3021349Y1569511D01*
X3023249Y1590000D01*
X3016186Y1666211D01*
X3015996Y1668929D01*
X3012208Y1748474D01*
X3008478Y1763847D01*
X3005464Y1781924D01*
X3004294Y1794559D01*
X2982453Y1871319D01*
X2981841Y1873644D01*
X2962298Y1954204D01*
X2957168Y1965435D01*
X2950594Y1983293D01*
X2948074Y1992152D01*
X2911056Y2066492D01*
X2910146Y2068400D01*
X2874358Y2146768D01*
X2874356Y2146771D01*
X2869208Y2154000D01*
X2859061Y2170913D01*
X2856503Y2176050D01*
X2856500Y2176054D01*
X2856499Y2176056D01*
X2809420Y2238397D01*
X2804488Y2244928D01*
X2803452Y2246342D01*
X2751565Y2319207D01*
X2751562Y2319212D01*
X2751559Y2319215D01*
X2747655Y2322938D01*
X2734062Y2338188D01*
X2732701Y2339991D01*
X2666457Y2400380D01*
X2665478Y2401293D01*
X2598346Y2465303D01*
X2596739Y2466336D01*
X2585561Y2474926D01*
X2585529Y2474882D01*
X2580888Y2478387D01*
X2580882Y2478392D01*
X2501445Y2527578D01*
X2456206Y2556651D01*
X2420255Y2579756D01*
X2414916Y2582508D01*
X2414955Y2582585D01*
X2411601Y2584278D01*
X2411435Y2583943D01*
X2406217Y2586541D01*
X2316181Y2621421D01*
X2223727Y2658435D01*
X2223717Y2658438D01*
X2223532Y2658473D01*
X2218223Y2659736D01*
X2214653Y2660752D01*
X2116693Y2679064D01*
X2015855Y2698499D01*
X2015853Y2698500D01*
X2015849Y2698500D01*
X2012718Y2698500D01*
X1807282Y2698500D01*
X1757929Y2689275D01*
X1752340Y2688488D01*
X1699270Y2683421D01*
X1699261Y2683419D01*
X1654399Y2670247D01*
X1648224Y2668767D01*
X1605348Y2660752D01*
X1605345Y2660752D01*
X1605345Y2660751D01*
X1592202Y2655660D01*
X1555481Y2641435D01*
X1550473Y2639733D01*
X1496141Y2623779D01*
X1457508Y2603863D01*
X1451396Y2601113D01*
X1413789Y2586544D01*
X1413783Y2586541D01*
X1365506Y2556651D01*
X1361211Y2554219D01*
X1307973Y2526771D01*
X1307971Y2526770D01*
X1276399Y2501942D01*
X1270619Y2497899D01*
X1239120Y2478394D01*
X1194736Y2437934D01*
X1191238Y2434971D01*
X1141567Y2395908D01*
X1117415Y2368037D01*
X1112245Y2362735D01*
X1087303Y2339997D01*
X1049132Y2289451D01*
X1046469Y2286160D01*
X1008880Y2242780D01*
X1003426Y2239276D01*
X998010Y2227389D01*
X986136Y2206823D01*
X981849Y2200354D01*
X963498Y2176054D01*
X963498Y2176053D01*
X933799Y2116412D01*
X931964Y2112995D01*
X897087Y2052583D01*
X897085Y2052579D01*
X887178Y2023955D01*
X884037Y2016477D01*
X871926Y1992154D01*
X871925Y1992151D01*
X852787Y1924890D01*
X851727Y1921527D01*
X827846Y1852525D01*
X824003Y1825804D01*
X822239Y1817526D01*
X815705Y1794559D01*
X808953Y1721689D01*
X808581Y1718537D01*
X797718Y1642982D01*
X798846Y1619311D01*
X798649Y1610494D01*
X796751Y1590003D01*
X796751Y1590001D01*
X417888Y1590001D01*
X453814Y1714705D01*
X456144Y1721364D01*
X571431Y1999694D01*
X574499Y2006063D01*
X575248Y2007418D01*
X720222Y2269730D01*
X723982Y2275711D01*
X749394Y2311526D01*
X786134Y2363307D01*
X798369Y2372963D01*
X799041Y2377634D01*
X810891Y2398200D01*
X898307Y2521401D01*
X902712Y2526923D01*
X1103451Y2751550D01*
X1108450Y2756549D01*
X1282904Y2912451D01*
X1333081Y2957293D01*
X1338599Y2961693D01*
X1555959Y3115917D01*
X1584289Y3136018D01*
X1590270Y3139778D01*
X1853941Y3285504D01*
X1860308Y3288569D01*
X2138636Y3403856D01*
X2145295Y3406186D01*
X2434778Y3489585D01*
X2441655Y3491155D01*
X2738663Y3541619D01*
X2745682Y3542411D01*
X2987966Y3556017D01*
X3048239Y3559401D01*
X3051772Y3559500D01*
X3094170Y3559500D01*
X3389223Y3559500D01*
X3457344Y3539498D01*
G37*
%TD.AperFunction*%
%TA.AperFunction,Conductor*%
G36*
X53034000Y1112000D02*
G01*
X53678585Y1112000D01*
X53678597Y1112001D01*
X53739093Y1118506D01*
X53875964Y1169556D01*
X53875965Y1169556D01*
X53992904Y1257096D01*
X54053132Y1337551D01*
X54109967Y1380098D01*
X54180783Y1385163D01*
X54243095Y1351138D01*
X54277120Y1288825D01*
X54280000Y1262042D01*
X54280000Y-13882041D01*
X54259998Y-13950162D01*
X54206342Y-13996655D01*
X54136068Y-14006759D01*
X54071488Y-13977265D01*
X54053132Y-13957550D01*
X53992904Y-13877095D01*
X53875965Y-13789555D01*
X53739093Y-13738505D01*
X53678597Y-13732000D01*
X53034000Y-13732000D01*
X53034000Y-14656325D01*
X52922315Y-14605320D01*
X52815763Y-14590000D01*
X52744237Y-14590000D01*
X52637685Y-14605320D01*
X52526000Y-14656325D01*
X52526000Y-13732000D01*
X51881402Y-13732000D01*
X51820906Y-13738505D01*
X51684035Y-13789555D01*
X51684034Y-13789555D01*
X51567095Y-13877095D01*
X51479555Y-13994034D01*
X51479553Y-13994039D01*
X51435380Y-14112470D01*
X51392833Y-14169306D01*
X51326313Y-14194116D01*
X51256939Y-14179024D01*
X51224626Y-14153777D01*
X51163240Y-14087094D01*
X51163239Y-14087093D01*
X51163237Y-14087091D01*
X51043684Y-13994039D01*
X50985576Y-13948811D01*
X50787574Y-13841658D01*
X50787571Y-13841657D01*
X50787568Y-13841655D01*
X50765646Y-13834130D01*
X50745164Y-13824988D01*
X50737905Y-13820938D01*
X50423502Y-13700393D01*
X50423499Y-13700391D01*
X50423468Y-13700380D01*
X50418157Y-13698411D01*
X50418097Y-13698389D01*
X50418066Y-13698378D01*
X50303425Y-13657301D01*
X50202718Y-13621216D01*
X50197744Y-13619190D01*
X50076035Y-13563438D01*
X50056918Y-13552571D01*
X49935953Y-13469050D01*
X49929096Y-13463573D01*
X49715644Y-13267284D01*
X49690138Y-13245781D01*
X49681803Y-13238754D01*
X49681800Y-13238752D01*
X49677322Y-13234977D01*
X49677540Y-13234717D01*
X49667984Y-13226724D01*
X46660355Y-10219095D01*
X46626329Y-10156783D01*
X46631394Y-10085968D01*
X46660352Y-10040907D01*
X46944388Y-9756870D01*
X46957129Y-9746665D01*
X46956969Y-9746471D01*
X46963075Y-9741418D01*
X46963080Y-9741416D01*
X47012314Y-9688985D01*
X47013598Y-9687660D01*
X47034927Y-9666333D01*
X47039470Y-9660475D01*
X47043308Y-9655980D01*
X47076972Y-9620133D01*
X47087310Y-9601327D01*
X47098152Y-9584823D01*
X47111304Y-9567868D01*
X47130832Y-9522737D01*
X47133441Y-9517414D01*
X47157124Y-9474337D01*
X47162457Y-9453562D01*
X47168856Y-9434869D01*
X47177380Y-9415176D01*
X47185074Y-9366591D01*
X47186271Y-9360810D01*
X47198500Y-9313188D01*
X47198500Y-9291741D01*
X47200051Y-9272030D01*
X47200614Y-9268474D01*
X47203406Y-9250848D01*
X47199741Y-9212073D01*
X47198780Y-9201903D01*
X47198500Y-9195971D01*
X47198500Y-7091476D01*
X47200807Y-7067475D01*
X47201283Y-7065020D01*
X47203431Y-7053952D01*
X47207471Y-6971304D01*
X47216703Y-6929751D01*
X47220361Y-6920811D01*
X47222330Y-6916477D01*
X47262399Y-6836490D01*
X47265357Y-6830388D01*
X47268084Y-6824578D01*
X47327448Y-6693874D01*
X47329089Y-6690118D01*
X47350838Y-6630530D01*
X47351389Y-6626759D01*
X47356229Y-6606066D01*
X47358200Y-6600000D01*
X47384365Y-6519475D01*
X47403229Y-6340000D01*
X47384365Y-6160525D01*
X47362298Y-6092609D01*
X47328601Y-5988897D01*
X47328598Y-5988891D01*
X47250012Y-5852777D01*
X47238367Y-5832607D01*
X47238365Y-5832605D01*
X47238361Y-5832599D01*
X47117615Y-5698497D01*
X46971615Y-5592422D01*
X46806752Y-5519020D01*
X46630233Y-5481500D01*
X46630232Y-5481500D01*
X46449768Y-5481500D01*
X46273248Y-5519020D01*
X46217932Y-5543647D01*
X46210351Y-5546455D01*
X46179407Y-5555708D01*
X46052550Y-5614403D01*
X46047351Y-5616879D01*
X46040927Y-5620028D01*
X46033654Y-5623736D01*
X45951117Y-5667469D01*
X45947353Y-5669306D01*
X45941757Y-5671810D01*
X45897324Y-5682604D01*
X45824375Y-5686682D01*
X45824376Y-5686682D01*
X45783837Y-5690566D01*
X45783834Y-5690566D01*
X45777090Y-5691213D01*
X45771078Y-5691500D01*
X45454500Y-5691500D01*
X45386379Y-5671498D01*
X45339886Y-5617842D01*
X45328500Y-5565500D01*
X45328500Y-5544193D01*
X45348502Y-5476072D01*
X45402158Y-5429579D01*
X45410224Y-5426229D01*
X45427050Y-5419913D01*
X45472730Y-5402768D01*
X45476847Y-5401148D01*
X45533705Y-5374657D01*
X45533705Y-5374656D01*
X45533707Y-5374656D01*
X45539226Y-5371363D01*
X45539374Y-5371611D01*
X45555997Y-5361882D01*
X45597460Y-5343423D01*
X45743458Y-5237349D01*
X45791571Y-5183914D01*
X45864206Y-5103245D01*
X45864207Y-5103243D01*
X45864212Y-5103238D01*
X45954444Y-4946952D01*
X45961122Y-4926401D01*
X45990332Y-4836498D01*
X46010210Y-4775320D01*
X46029074Y-4595845D01*
X46010210Y-4416370D01*
X45995327Y-4370565D01*
X45954446Y-4244742D01*
X45954443Y-4244736D01*
X45891849Y-4136320D01*
X45864212Y-4088452D01*
X45864210Y-4088450D01*
X45864206Y-4088444D01*
X45850948Y-4073720D01*
X45820230Y-4009713D01*
X45828995Y-3939259D01*
X45874458Y-3884728D01*
X45930476Y-3864202D01*
X46046786Y-3851098D01*
X46208119Y-3794645D01*
X46352845Y-3703707D01*
X46473707Y-3582845D01*
X46564645Y-3438119D01*
X46576477Y-3404301D01*
X46584551Y-3386024D01*
X46585330Y-3384582D01*
X46594030Y-3368477D01*
X46627918Y-3276343D01*
X46630275Y-3269648D01*
X46632542Y-3262916D01*
X46634535Y-3256741D01*
X46642963Y-3229448D01*
X46669467Y-3182596D01*
X46676458Y-3174785D01*
X46676460Y-3174781D01*
X46676473Y-3174768D01*
X46702432Y-3143334D01*
X46702432Y-3143332D01*
X46706911Y-3137910D01*
X46710932Y-3133487D01*
X50317132Y472713D01*
X50322223Y477278D01*
X50350364Y499862D01*
X50436764Y592296D01*
X50438173Y593754D01*
X50639160Y794741D01*
X50645341Y800162D01*
X50673987Y822141D01*
X50692162Y845829D01*
X50692170Y845836D01*
X50727780Y892245D01*
X50769705Y946883D01*
X50773577Y951458D01*
X50778100Y956315D01*
X50781623Y962416D01*
X50784827Y966592D01*
X50784583Y967994D01*
X50793367Y1001990D01*
X50802724Y1024580D01*
X50817260Y1050508D01*
X50872542Y1126444D01*
X50874137Y1128539D01*
X51000316Y1287092D01*
X51003586Y1290880D01*
X51208442Y1510035D01*
X51208441Y1510035D01*
X51208457Y1510051D01*
X51222796Y1526841D01*
X51282242Y1565647D01*
X51353237Y1566155D01*
X51413236Y1528200D01*
X51436661Y1489041D01*
X51479556Y1374034D01*
X51567095Y1257096D01*
X51684034Y1169556D01*
X51820906Y1118506D01*
X51881402Y1112001D01*
X51881415Y1112000D01*
X52526000Y1112000D01*
X52526000Y2036326D01*
X52637685Y1985320D01*
X52744237Y1970000D01*
X52815763Y1970000D01*
X52922315Y1985320D01*
X53034000Y2036326D01*
X53034000Y1112000D01*
G37*
%TD.AperFunction*%
%TA.AperFunction,Conductor*%
G36*
X21719742Y-6057104D02*
G01*
X21764805Y-6086065D01*
X22544595Y-6865855D01*
X22578621Y-6928167D01*
X22581500Y-6954950D01*
X22581500Y-7005493D01*
X22584393Y-7042251D01*
X22584393Y-7042252D01*
X22606147Y-7117128D01*
X22629795Y-7198528D01*
X22630107Y-7199599D01*
X22650240Y-7233642D01*
X22680068Y-7284079D01*
X22713513Y-7340630D01*
X22713516Y-7340634D01*
X22829365Y-7456483D01*
X22829369Y-7456486D01*
X22829371Y-7456488D01*
X22970403Y-7539894D01*
X23127746Y-7585606D01*
X23164506Y-7588499D01*
X23164507Y-7588500D01*
X23164516Y-7588500D01*
X23215050Y-7588500D01*
X23283171Y-7608502D01*
X23304145Y-7625405D01*
X24330455Y-8651715D01*
X24364481Y-8714027D01*
X24365670Y-8761379D01*
X24363536Y-8774276D01*
X24358156Y-8795320D01*
X24337068Y-8855587D01*
X24337068Y-8855590D01*
X24337067Y-8855594D01*
X24321500Y-8993752D01*
X24321500Y-10706248D01*
X24337067Y-10844406D01*
X24337067Y-10844408D01*
X24337068Y-10844409D01*
X24398357Y-11019564D01*
X24398358Y-11019567D01*
X24497086Y-11176691D01*
X24497087Y-11176693D01*
X24628306Y-11307912D01*
X24628308Y-11307913D01*
X24785432Y-11406641D01*
X24785433Y-11406641D01*
X24785436Y-11406643D01*
X24960594Y-11467933D01*
X25145000Y-11488711D01*
X25329406Y-11467933D01*
X25504564Y-11406643D01*
X25661693Y-11307912D01*
X25690904Y-11278700D01*
X25753215Y-11244675D01*
X25824031Y-11249739D01*
X25869094Y-11278699D01*
X25898307Y-11307912D01*
X26055436Y-11406643D01*
X26230594Y-11467933D01*
X26329611Y-11479089D01*
X26395060Y-11506591D01*
X26435253Y-11565115D01*
X26441500Y-11604296D01*
X26441500Y-12175988D01*
X26440960Y-12184219D01*
X26436250Y-12219998D01*
X26436250Y-12220001D01*
X26440962Y-12255796D01*
X26451458Y-12335523D01*
X26457161Y-12378849D01*
X26512923Y-12513469D01*
X26518476Y-12526876D01*
X26554999Y-12574474D01*
X26579249Y-12606077D01*
X26591523Y-12622072D01*
X26591525Y-12622074D01*
X26611552Y-12648174D01*
X26616014Y-12653988D01*
X26644651Y-12675962D01*
X26650844Y-12681393D01*
X27070951Y-13101500D01*
X27485856Y-13516405D01*
X27519882Y-13578717D01*
X27514817Y-13649532D01*
X27472270Y-13706368D01*
X27405750Y-13731179D01*
X27396761Y-13731500D01*
X27267431Y-13731500D01*
X27119210Y-13756233D01*
X27045369Y-13768555D01*
X27045360Y-13768557D01*
X26832428Y-13841656D01*
X26832426Y-13841658D01*
X26636897Y-13947473D01*
X26634426Y-13948810D01*
X26634424Y-13948811D01*
X26456762Y-14087091D01*
X26304279Y-14252729D01*
X26215483Y-14388643D01*
X26161479Y-14434731D01*
X26091131Y-14444306D01*
X26026774Y-14414329D01*
X26004517Y-14388643D01*
X25915720Y-14252729D01*
X25773940Y-14098717D01*
X25763240Y-14087094D01*
X25763239Y-14087093D01*
X25763237Y-14087091D01*
X25643684Y-13994039D01*
X25585576Y-13948811D01*
X25387574Y-13841658D01*
X25387572Y-13841657D01*
X25387571Y-13841656D01*
X25174639Y-13768557D01*
X25174630Y-13768555D01*
X25130476Y-13761187D01*
X24952569Y-13731500D01*
X24727431Y-13731500D01*
X24579210Y-13756233D01*
X24505369Y-13768555D01*
X24505360Y-13768557D01*
X24292428Y-13841656D01*
X24292426Y-13841658D01*
X24096897Y-13947473D01*
X24094426Y-13948810D01*
X24094424Y-13948811D01*
X23916762Y-14087091D01*
X23764279Y-14252729D01*
X23764279Y-14252730D01*
X23675482Y-14388643D01*
X23621478Y-14434731D01*
X23551130Y-14444306D01*
X23486773Y-14414328D01*
X23464516Y-14388642D01*
X23451945Y-14369401D01*
X23429274Y-14334700D01*
X23375724Y-14252734D01*
X23375720Y-14252729D01*
X23233940Y-14098717D01*
X23223240Y-14087094D01*
X23223239Y-14087093D01*
X23223237Y-14087091D01*
X23103684Y-13994039D01*
X23045576Y-13948811D01*
X22847574Y-13841658D01*
X22847572Y-13841657D01*
X22847571Y-13841656D01*
X22634639Y-13768557D01*
X22634630Y-13768555D01*
X22590476Y-13761187D01*
X22412569Y-13731500D01*
X22187431Y-13731500D01*
X22039210Y-13756233D01*
X21965369Y-13768555D01*
X21965360Y-13768557D01*
X21752428Y-13841656D01*
X21752426Y-13841658D01*
X21556897Y-13947473D01*
X21554426Y-13948810D01*
X21554424Y-13948811D01*
X21376762Y-14087091D01*
X21224279Y-14252729D01*
X21135483Y-14388643D01*
X21081479Y-14434731D01*
X21011131Y-14444306D01*
X20946774Y-14414329D01*
X20924517Y-14388643D01*
X20835720Y-14252729D01*
X20683239Y-14087093D01*
X20683237Y-14087091D01*
X20667523Y-14074860D01*
X20664885Y-14072690D01*
X20399134Y-13841656D01*
X20381399Y-13826238D01*
X20364924Y-13813063D01*
X20346412Y-13799467D01*
X20328984Y-13787733D01*
X20065684Y-13625701D01*
X20055855Y-13619949D01*
X20055846Y-13619944D01*
X20055842Y-13619941D01*
X20045755Y-13614336D01*
X20045754Y-13614335D01*
X20045737Y-13614326D01*
X20042490Y-13612609D01*
X20036206Y-13609286D01*
X20036187Y-13609277D01*
X19822925Y-13502219D01*
X19818175Y-13499572D01*
X19671270Y-13409169D01*
X19633627Y-13386004D01*
X19616997Y-13373785D01*
X19355597Y-13146535D01*
X19355581Y-13146521D01*
X19332449Y-13127833D01*
X19324968Y-13121789D01*
X19320017Y-13117336D01*
X18941908Y-12739226D01*
X18929936Y-12725375D01*
X18927898Y-12722637D01*
X18915469Y-12705942D01*
X18910154Y-12701482D01*
X18875024Y-12672003D01*
X18870970Y-12668289D01*
X18865104Y-12662423D01*
X18865101Y-12662420D01*
X18855555Y-12654871D01*
X18839810Y-12642421D01*
X18838392Y-12641266D01*
X18793449Y-12603555D01*
X18779640Y-12591968D01*
X18779639Y-12591967D01*
X18779635Y-12591964D01*
X18773506Y-12587933D01*
X18773541Y-12587878D01*
X18767187Y-12583829D01*
X18767153Y-12583886D01*
X18760906Y-12580033D01*
X18691375Y-12547609D01*
X18689742Y-12546819D01*
X18621188Y-12512391D01*
X18621186Y-12512390D01*
X18621183Y-12512389D01*
X18614289Y-12509880D01*
X18614311Y-12509817D01*
X18607189Y-12507341D01*
X18607169Y-12507404D01*
X18600210Y-12505097D01*
X18525045Y-12489576D01*
X18523258Y-12489180D01*
X18448656Y-12471500D01*
X18441367Y-12470648D01*
X18441374Y-12470580D01*
X18433877Y-12469814D01*
X18433872Y-12469881D01*
X18426558Y-12469241D01*
X18349825Y-12471473D01*
X18347993Y-12471500D01*
X16574441Y-12471500D01*
X16556181Y-12470170D01*
X16532211Y-12466659D01*
X16479615Y-12471260D01*
X16474122Y-12471500D01*
X16465814Y-12471500D01*
X16433800Y-12475242D01*
X16431979Y-12475428D01*
X16355576Y-12482112D01*
X16348386Y-12483597D01*
X16348372Y-12483532D01*
X16341014Y-12485163D01*
X16341030Y-12485228D01*
X16333890Y-12486920D01*
X16261795Y-12513158D01*
X16260067Y-12513759D01*
X16187259Y-12537886D01*
X16180613Y-12540986D01*
X16180585Y-12540926D01*
X16173801Y-12544210D01*
X16173831Y-12544269D01*
X16167268Y-12547565D01*
X16103166Y-12589724D01*
X16101622Y-12590708D01*
X16076705Y-12606077D01*
X16008226Y-12624814D01*
X15940487Y-12603555D01*
X15899437Y-12558233D01*
X15814369Y-12399083D01*
X15682094Y-12237906D01*
X15520917Y-12105631D01*
X15435829Y-12060150D01*
X15337032Y-12007341D01*
X15315475Y-12000802D01*
X15295359Y-11992753D01*
X15292054Y-11991088D01*
X15067845Y-11915809D01*
X15053517Y-11911459D01*
X15053459Y-11911442D01*
X15038503Y-11907374D01*
X15038467Y-11907365D01*
X15024064Y-11903891D01*
X14850585Y-11867303D01*
X14848754Y-11866888D01*
X14777795Y-11849699D01*
X14751575Y-11840169D01*
X14747220Y-11838015D01*
X14735153Y-11832043D01*
X14709701Y-11815344D01*
X14656918Y-11770729D01*
X14617804Y-11711479D01*
X14616934Y-11640487D01*
X14654582Y-11580295D01*
X14718796Y-11550012D01*
X14738256Y-11548500D01*
X16495988Y-11548500D01*
X16504219Y-11549040D01*
X16516549Y-11550662D01*
X16540000Y-11553750D01*
X16579880Y-11548500D01*
X16579885Y-11548500D01*
X16657791Y-11538243D01*
X16679457Y-11535391D01*
X16679457Y-11535392D01*
X16679461Y-11535390D01*
X16698851Y-11532838D01*
X16846876Y-11471524D01*
X16942072Y-11398477D01*
X16942072Y-11398476D01*
X16950291Y-11392170D01*
X16950300Y-11392162D01*
X16973987Y-11373987D01*
X16995965Y-11345344D01*
X17001384Y-11339163D01*
X17468585Y-10871962D01*
X17487868Y-10856166D01*
X17497832Y-10849537D01*
X17505663Y-10842528D01*
X17552512Y-10816027D01*
X17579805Y-10807599D01*
X17585980Y-10805606D01*
X17592712Y-10803339D01*
X17599407Y-10800982D01*
X17606150Y-10798502D01*
X17613752Y-10795705D01*
X17696102Y-10765416D01*
X17699371Y-10764143D01*
X17701005Y-10763507D01*
X17701012Y-10763503D01*
X17701027Y-10763498D01*
X17740106Y-10745397D01*
X17745764Y-10743103D01*
X17761183Y-10737709D01*
X17905909Y-10646771D01*
X18026771Y-10525909D01*
X18117709Y-10381183D01*
X18174162Y-10219850D01*
X18193299Y-10050000D01*
X18174162Y-9880150D01*
X18117709Y-9718817D01*
X18026771Y-9574091D01*
X18026769Y-9574089D01*
X18026768Y-9574087D01*
X18016195Y-9563514D01*
X17982169Y-9501202D01*
X17987234Y-9430387D01*
X18029781Y-9373551D01*
X18057064Y-9358014D01*
X18096876Y-9341524D01*
X18192072Y-9268477D01*
X18192072Y-9268476D01*
X18200291Y-9262170D01*
X18200300Y-9262162D01*
X18223987Y-9243987D01*
X18245965Y-9215344D01*
X18251384Y-9209163D01*
X21068585Y-6391961D01*
X21087867Y-6376167D01*
X21097832Y-6369537D01*
X21105664Y-6362527D01*
X21152510Y-6336027D01*
X21179805Y-6327599D01*
X21185980Y-6325606D01*
X21192712Y-6323339D01*
X21199407Y-6320982D01*
X21200805Y-6320468D01*
X21258969Y-6299074D01*
X21296102Y-6285416D01*
X21298583Y-6284449D01*
X21301005Y-6283507D01*
X21301012Y-6283503D01*
X21301027Y-6283498D01*
X21340106Y-6265397D01*
X21345764Y-6263103D01*
X21361183Y-6257709D01*
X21505909Y-6166771D01*
X21586616Y-6086063D01*
X21648926Y-6052040D01*
X21719742Y-6057104D01*
G37*
%TD.AperFunction*%
%TA.AperFunction,Conductor*%
G36*
X35359154Y-5134559D02*
G01*
X35366713Y-5141526D01*
X36093190Y-5868003D01*
X36127216Y-5930315D01*
X36122151Y-6001130D01*
X36097732Y-6041407D01*
X36051638Y-6092599D01*
X36051631Y-6092609D01*
X35961401Y-6248891D01*
X35961398Y-6248897D01*
X35905636Y-6420519D01*
X35905635Y-6420523D01*
X35905635Y-6420525D01*
X35886771Y-6600000D01*
X35904623Y-6769850D01*
X35905636Y-6779480D01*
X35961398Y-6951102D01*
X35961401Y-6951108D01*
X36051631Y-7107390D01*
X36051638Y-7107400D01*
X36172384Y-7241502D01*
X36194116Y-7257291D01*
X36318385Y-7347578D01*
X36379244Y-7374674D01*
X36413109Y-7389752D01*
X36417513Y-7391922D01*
X36449385Y-7409206D01*
X36528420Y-7438423D01*
X36580753Y-7457770D01*
X36580781Y-7457780D01*
X36580792Y-7457784D01*
X36587026Y-7459998D01*
X36593285Y-7462130D01*
X36593301Y-7462135D01*
X36593315Y-7462140D01*
X36594199Y-7462429D01*
X36599018Y-7464008D01*
X36686241Y-7491451D01*
X36690320Y-7492891D01*
X36696769Y-7495423D01*
X36697057Y-7495537D01*
X36735161Y-7519054D01*
X36784172Y-7563056D01*
X36791613Y-7569736D01*
X36829216Y-7600868D01*
X36833578Y-7604838D01*
X38298890Y-9070150D01*
X39753125Y-10524385D01*
X39763338Y-10537131D01*
X39763531Y-10536972D01*
X39768583Y-10543079D01*
X39820978Y-10592281D01*
X39822367Y-10593627D01*
X39843667Y-10614927D01*
X39843675Y-10614933D01*
X39849517Y-10619465D01*
X39854033Y-10623322D01*
X39889867Y-10656972D01*
X39908669Y-10667308D01*
X39925175Y-10678151D01*
X39942132Y-10691304D01*
X39987254Y-10710829D01*
X39992580Y-10713439D01*
X40035659Y-10737123D01*
X40035663Y-10737124D01*
X40056432Y-10742456D01*
X40075134Y-10748859D01*
X40094824Y-10757380D01*
X40143395Y-10765072D01*
X40149189Y-10766271D01*
X40196812Y-10778500D01*
X40218259Y-10778500D01*
X40237967Y-10780050D01*
X40259152Y-10783406D01*
X40296880Y-10779839D01*
X40308094Y-10778780D01*
X40314027Y-10778500D01*
X44746812Y-10778500D01*
X45305050Y-10778500D01*
X45373171Y-10798502D01*
X45394145Y-10815405D01*
X48131806Y-13553066D01*
X48165832Y-13615378D01*
X48160767Y-13686193D01*
X48118220Y-13743029D01*
X48051700Y-13767840D01*
X48021973Y-13766443D01*
X47994496Y-13761858D01*
X47812569Y-13731500D01*
X47587431Y-13731500D01*
X47439210Y-13756233D01*
X47365369Y-13768555D01*
X47365360Y-13768557D01*
X47152428Y-13841656D01*
X47152426Y-13841658D01*
X46956897Y-13947473D01*
X46954426Y-13948810D01*
X46954424Y-13948811D01*
X46776762Y-14087091D01*
X46624279Y-14252729D01*
X46535483Y-14388643D01*
X46481479Y-14434731D01*
X46411131Y-14444306D01*
X46346774Y-14414329D01*
X46324517Y-14388643D01*
X46235720Y-14252729D01*
X46093940Y-14098717D01*
X46083240Y-14087094D01*
X46083239Y-14087093D01*
X46083237Y-14087091D01*
X45963684Y-13994039D01*
X45905576Y-13948811D01*
X45707574Y-13841658D01*
X45707572Y-13841657D01*
X45707571Y-13841656D01*
X45494639Y-13768557D01*
X45494630Y-13768555D01*
X45450476Y-13761187D01*
X45272569Y-13731500D01*
X45047431Y-13731500D01*
X44899210Y-13756233D01*
X44825369Y-13768555D01*
X44825360Y-13768557D01*
X44612428Y-13841656D01*
X44612426Y-13841658D01*
X44416897Y-13947473D01*
X44414426Y-13948810D01*
X44414424Y-13948811D01*
X44236762Y-14087091D01*
X44084279Y-14252729D01*
X44084279Y-14252730D01*
X43995482Y-14388643D01*
X43941478Y-14434731D01*
X43871130Y-14444306D01*
X43806773Y-14414328D01*
X43784516Y-14388642D01*
X43771945Y-14369401D01*
X43749274Y-14334700D01*
X43695724Y-14252734D01*
X43695720Y-14252729D01*
X43553940Y-14098717D01*
X43543240Y-14087094D01*
X43543239Y-14087093D01*
X43543237Y-14087091D01*
X43423684Y-13994039D01*
X43365576Y-13948811D01*
X43167574Y-13841658D01*
X43167572Y-13841657D01*
X43167571Y-13841656D01*
X42954639Y-13768557D01*
X42954630Y-13768555D01*
X42910476Y-13761187D01*
X42732569Y-13731500D01*
X42507431Y-13731500D01*
X42359210Y-13756233D01*
X42285369Y-13768555D01*
X42285360Y-13768557D01*
X42072428Y-13841656D01*
X42072426Y-13841658D01*
X41876897Y-13947473D01*
X41874426Y-13948810D01*
X41874424Y-13948811D01*
X41696762Y-14087091D01*
X41544279Y-14252729D01*
X41455483Y-14388643D01*
X41401479Y-14434731D01*
X41331131Y-14444306D01*
X41266774Y-14414329D01*
X41244517Y-14388643D01*
X41155720Y-14252729D01*
X41013940Y-14098717D01*
X41003240Y-14087094D01*
X41003239Y-14087093D01*
X41003237Y-14087091D01*
X40883684Y-13994039D01*
X40825576Y-13948811D01*
X40627574Y-13841658D01*
X40627572Y-13841657D01*
X40627571Y-13841656D01*
X40414639Y-13768557D01*
X40414630Y-13768555D01*
X40370476Y-13761187D01*
X40192569Y-13731500D01*
X39967431Y-13731500D01*
X39819210Y-13756233D01*
X39745369Y-13768555D01*
X39745360Y-13768557D01*
X39532428Y-13841656D01*
X39532426Y-13841658D01*
X39336897Y-13947473D01*
X39334426Y-13948810D01*
X39334424Y-13948811D01*
X39156762Y-14087091D01*
X39004279Y-14252729D01*
X38915483Y-14388643D01*
X38861479Y-14434731D01*
X38791131Y-14444306D01*
X38726774Y-14414329D01*
X38704517Y-14388643D01*
X38615720Y-14252729D01*
X38473940Y-14098717D01*
X38463240Y-14087094D01*
X38463239Y-14087093D01*
X38463237Y-14087091D01*
X38343684Y-13994039D01*
X38285576Y-13948811D01*
X38087574Y-13841658D01*
X38087572Y-13841657D01*
X38087571Y-13841656D01*
X37874639Y-13768557D01*
X37874630Y-13768555D01*
X37830476Y-13761187D01*
X37652569Y-13731500D01*
X37652565Y-13731500D01*
X37540615Y-13731500D01*
X37535294Y-13731275D01*
X37531120Y-13730921D01*
X37497735Y-13728091D01*
X37449048Y-13730931D01*
X37441126Y-13731393D01*
X37437465Y-13731500D01*
X37427423Y-13731500D01*
X37424373Y-13732009D01*
X37417679Y-13732760D01*
X37173311Y-13747010D01*
X37166134Y-13747529D01*
X37158666Y-13748173D01*
X37158646Y-13748175D01*
X37158623Y-13748177D01*
X37151174Y-13748929D01*
X37123014Y-13752187D01*
X36928651Y-13774681D01*
X36920479Y-13775092D01*
X36887162Y-13774602D01*
X36853414Y-13774105D01*
X36811108Y-13766127D01*
X36801846Y-13762661D01*
X36766521Y-13742418D01*
X36765191Y-13741337D01*
X36722181Y-13706368D01*
X36612583Y-13617262D01*
X36612568Y-13617251D01*
X36595304Y-13603996D01*
X36589123Y-13598574D01*
X31768908Y-8778359D01*
X31734882Y-8716047D01*
X31739947Y-8645232D01*
X31782494Y-8588396D01*
X31790967Y-8582577D01*
X31798899Y-8577593D01*
X31855909Y-8541771D01*
X31976771Y-8420909D01*
X32067709Y-8276183D01*
X32083493Y-8231072D01*
X32087023Y-8222893D01*
X32088050Y-8220911D01*
X32099944Y-8197957D01*
X32133113Y-8102755D01*
X32136619Y-8091926D01*
X32140131Y-8080195D01*
X32143313Y-8068582D01*
X32150469Y-8039839D01*
X32174566Y-7991294D01*
X32193394Y-7967895D01*
X32193396Y-7967890D01*
X32194315Y-7966749D01*
X32198837Y-7961710D01*
X34585016Y-5575531D01*
X34603337Y-5560383D01*
X34615326Y-5552246D01*
X34630645Y-5538281D01*
X34674750Y-5512181D01*
X34702738Y-5502608D01*
X34702767Y-5502597D01*
X34702780Y-5502593D01*
X34710703Y-5499712D01*
X34804391Y-5464266D01*
X34804413Y-5464256D01*
X34804435Y-5464249D01*
X34806164Y-5463567D01*
X34807931Y-5462872D01*
X34846446Y-5444941D01*
X34852218Y-5442595D01*
X34866183Y-5437709D01*
X35010909Y-5346771D01*
X35131771Y-5225909D01*
X35170933Y-5163583D01*
X35224108Y-5116548D01*
X35294276Y-5105727D01*
X35359154Y-5134559D01*
G37*
%TD.AperFunction*%
%TA.AperFunction,Conductor*%
G36*
X8014640Y-10743609D02*
G01*
X8030431Y-10764140D01*
X8039289Y-10778500D01*
X8060969Y-10813650D01*
X8065522Y-10819408D01*
X8065468Y-10819450D01*
X8070228Y-10825292D01*
X8070279Y-10825250D01*
X8074997Y-10830872D01*
X8074998Y-10830873D01*
X8074999Y-10830874D01*
X8119232Y-10872606D01*
X8130822Y-10883540D01*
X8132136Y-10884817D01*
X11283724Y-14036405D01*
X11317750Y-14098717D01*
X11312685Y-14169532D01*
X11270138Y-14226368D01*
X11203618Y-14251179D01*
X11194629Y-14251500D01*
X8654950Y-14251500D01*
X8586829Y-14231498D01*
X8565855Y-14214595D01*
X7845405Y-13494145D01*
X7811379Y-13431833D01*
X7808500Y-13405050D01*
X7808500Y-12765519D01*
X7809934Y-12746562D01*
X7811050Y-12739227D01*
X7813578Y-12722618D01*
X7814190Y-12648154D01*
X7814328Y-12644506D01*
X7814627Y-12640040D01*
X7821113Y-12607738D01*
X7822920Y-12602450D01*
X7824131Y-12599209D01*
X7852422Y-12529505D01*
X7869561Y-12480228D01*
X7870230Y-12475511D01*
X7876047Y-12451615D01*
X7894162Y-12399850D01*
X7913299Y-12230000D01*
X7894162Y-12060150D01*
X7837709Y-11898817D01*
X7746771Y-11754091D01*
X7746769Y-11754089D01*
X7746768Y-11754087D01*
X7625912Y-11633231D01*
X7542910Y-11581077D01*
X7495873Y-11527898D01*
X7485053Y-11457730D01*
X7512548Y-11394456D01*
X7641175Y-11237724D01*
X7734774Y-11062614D01*
X7734780Y-11062599D01*
X7792414Y-10872606D01*
X7792416Y-10872594D01*
X7797799Y-10817939D01*
X7824381Y-10752107D01*
X7882334Y-10711096D01*
X7953260Y-10707928D01*
X8014640Y-10743609D01*
G37*
%TD.AperFunction*%
%TA.AperFunction,Conductor*%
G36*
X29907685Y-10866511D02*
G01*
X29938664Y-10889213D01*
X32511523Y-13462072D01*
X32545549Y-13524384D01*
X32540484Y-13595199D01*
X32497937Y-13652035D01*
X32431417Y-13676846D01*
X32409196Y-13676470D01*
X32173655Y-13651596D01*
X32173629Y-13651593D01*
X32173605Y-13651591D01*
X32107561Y-13645330D01*
X32000580Y-13635190D01*
X31969730Y-13628282D01*
X31892861Y-13600564D01*
X31857408Y-13580836D01*
X31655521Y-13421059D01*
X31655472Y-13421021D01*
X31655466Y-13421016D01*
X31643257Y-13411832D01*
X31636586Y-13406037D01*
X29881390Y-11650841D01*
X29875963Y-11644653D01*
X29853987Y-11616013D01*
X29822074Y-11591525D01*
X29822074Y-11591524D01*
X29726882Y-11518480D01*
X29726879Y-11518478D01*
X29726876Y-11518476D01*
X29578851Y-11457162D01*
X29578850Y-11457161D01*
X29571760Y-11454225D01*
X29516480Y-11409676D01*
X29494059Y-11342313D01*
X29511617Y-11273522D01*
X29530880Y-11248724D01*
X29602912Y-11176693D01*
X29701643Y-11019564D01*
X29730641Y-10936690D01*
X29772017Y-10879002D01*
X29838017Y-10852839D01*
X29907685Y-10866511D01*
G37*
%TD.AperFunction*%
%TA.AperFunction,Conductor*%
G36*
X29915709Y-8660884D02*
G01*
X29958373Y-8688922D01*
X34695191Y-13425740D01*
X34729217Y-13488052D01*
X34724152Y-13558867D01*
X34681605Y-13615703D01*
X34615085Y-13640514D01*
X34594206Y-13640273D01*
X34540580Y-13635190D01*
X34509730Y-13628282D01*
X34432861Y-13600564D01*
X34397408Y-13580836D01*
X34195521Y-13421059D01*
X34195472Y-13421021D01*
X34195466Y-13421016D01*
X34183257Y-13411832D01*
X34176586Y-13406037D01*
X30221390Y-9450841D01*
X30215963Y-9444653D01*
X30193987Y-9416013D01*
X30162074Y-9391525D01*
X30162074Y-9391524D01*
X30066882Y-9318480D01*
X30066874Y-9318475D01*
X29918849Y-9257161D01*
X29894216Y-9253918D01*
X29890677Y-9253453D01*
X29890167Y-9253385D01*
X29888022Y-9253103D01*
X29823102Y-9224364D01*
X29784026Y-9165089D01*
X29778500Y-9128185D01*
X29778500Y-8993751D01*
X29776933Y-8979848D01*
X29762933Y-8855594D01*
X29750348Y-8819630D01*
X29746729Y-8748729D01*
X29782018Y-8687123D01*
X29845011Y-8654376D01*
X29915709Y-8660884D01*
G37*
%TD.AperFunction*%
%TA.AperFunction,Conductor*%
G36*
X9627011Y-6188015D02*
G01*
X9633594Y-6194143D01*
X10074595Y-6635144D01*
X10108619Y-6697455D01*
X10111499Y-6724238D01*
X10111499Y-8216058D01*
X10109034Y-8240861D01*
X10106673Y-8252616D01*
X10106091Y-8263111D01*
X10091704Y-8314962D01*
X10078459Y-8340043D01*
X10075653Y-8345512D01*
X10072495Y-8351855D01*
X10069283Y-8358546D01*
X10025860Y-8452502D01*
X10023697Y-8457435D01*
X10023683Y-8457470D01*
X10001787Y-8517210D01*
X10001784Y-8517225D01*
X10001298Y-8520518D01*
X9995579Y-8543731D01*
X9975837Y-8600149D01*
X9956701Y-8770000D01*
X9975837Y-8939848D01*
X10032290Y-9101182D01*
X10123231Y-9245912D01*
X10244087Y-9366768D01*
X10244089Y-9366769D01*
X10244091Y-9366771D01*
X10388817Y-9457709D01*
X10550150Y-9514162D01*
X10550149Y-9514162D01*
X10578026Y-9517302D01*
X10696645Y-9530667D01*
X10762097Y-9558170D01*
X10802290Y-9616694D01*
X10803535Y-9620726D01*
X10810420Y-9644427D01*
X10814428Y-9663780D01*
X10817117Y-9685060D01*
X10817117Y-9685062D01*
X10835216Y-9730778D01*
X10837139Y-9736394D01*
X10850853Y-9783597D01*
X10850853Y-9783598D01*
X10861771Y-9802058D01*
X10870468Y-9819811D01*
X10878364Y-9839755D01*
X10878367Y-9839760D01*
X10896352Y-9864513D01*
X10907265Y-9879532D01*
X10910521Y-9884490D01*
X10915694Y-9893238D01*
X10935547Y-9926807D01*
X10950714Y-9941974D01*
X10963552Y-9957005D01*
X10976158Y-9974356D01*
X11014039Y-10005694D01*
X11018420Y-10009680D01*
X12347887Y-11339147D01*
X13641063Y-12632323D01*
X13658792Y-12654601D01*
X13660878Y-12657936D01*
X13660892Y-12657956D01*
X13755347Y-12769705D01*
X13772045Y-12795157D01*
X13780171Y-12811577D01*
X13789698Y-12837793D01*
X13806888Y-12908753D01*
X13807303Y-12910585D01*
X13842928Y-13079498D01*
X13837414Y-13150280D01*
X13794508Y-13206845D01*
X13727832Y-13231233D01*
X13719640Y-13231500D01*
X12676371Y-13231500D01*
X12608250Y-13211498D01*
X12587276Y-13194595D01*
X9455404Y-10062724D01*
X9421378Y-10000412D01*
X9418499Y-9973629D01*
X9418499Y-9679492D01*
X9418499Y-9371737D01*
X9438501Y-9303620D01*
X9447090Y-9291819D01*
X9460820Y-9275091D01*
X9549823Y-9108577D01*
X9604632Y-8927899D01*
X9606511Y-8908818D01*
X9623138Y-8740003D01*
X9623138Y-8739996D01*
X9604633Y-8552108D01*
X9604632Y-8552105D01*
X9604632Y-8552101D01*
X9549823Y-8371423D01*
X9460820Y-8204909D01*
X9447100Y-8188191D01*
X9419347Y-8122844D01*
X9418500Y-8108258D01*
X9418500Y-7196768D01*
X9418500Y-6283235D01*
X9438501Y-6215118D01*
X9492157Y-6168625D01*
X9562431Y-6158521D01*
X9627011Y-6188015D01*
G37*
%TD.AperFunction*%
%TA.AperFunction,Conductor*%
G36*
X14309658Y-8718502D02*
G01*
X14356151Y-8772158D01*
X14366745Y-8810393D01*
X14385837Y-8979848D01*
X14442290Y-9141182D01*
X14442291Y-9141183D01*
X14526433Y-9275094D01*
X14533231Y-9285912D01*
X14654087Y-9406768D01*
X14654089Y-9406769D01*
X14654091Y-9406771D01*
X14798817Y-9497709D01*
X14960150Y-9554162D01*
X14960149Y-9554162D01*
X14977348Y-9556099D01*
X15130000Y-9573299D01*
X15299850Y-9554162D01*
X15428918Y-9508997D01*
X15431683Y-9508101D01*
X15452121Y-9502001D01*
X15541252Y-9460806D01*
X15547695Y-9457719D01*
X15554058Y-9454560D01*
X15559792Y-9451623D01*
X15585029Y-9438295D01*
X15636889Y-9423906D01*
X15647385Y-9423325D01*
X15687971Y-9419453D01*
X15687971Y-9419452D01*
X15694973Y-9418785D01*
X15700959Y-9418500D01*
X16703014Y-9418500D01*
X16771135Y-9438502D01*
X16817628Y-9492158D01*
X16827732Y-9562432D01*
X16809701Y-9611534D01*
X16803926Y-9620726D01*
X16742292Y-9718814D01*
X16742290Y-9718819D01*
X16730462Y-9752620D01*
X16722397Y-9770880D01*
X16712908Y-9788447D01*
X16679092Y-9880380D01*
X16676927Y-9886506D01*
X16674646Y-9893231D01*
X16672486Y-9899903D01*
X16663969Y-9927485D01*
X16637477Y-9974325D01*
X16630457Y-9982169D01*
X16630456Y-9982170D01*
X16600047Y-10018999D01*
X16596013Y-10023436D01*
X16324856Y-10294595D01*
X16262544Y-10328620D01*
X16235760Y-10331500D01*
X14423944Y-10331500D01*
X14399132Y-10329033D01*
X14387398Y-10326676D01*
X14387395Y-10326675D01*
X14387392Y-10326675D01*
X14387387Y-10326674D01*
X14387381Y-10326674D01*
X14376892Y-10326092D01*
X14325036Y-10311705D01*
X14315309Y-10306569D01*
X14299758Y-10298356D01*
X14293995Y-10295406D01*
X14287642Y-10292253D01*
X14281276Y-10289202D01*
X14201407Y-10252290D01*
X14187425Y-10245828D01*
X14182406Y-10243628D01*
X14182401Y-10243626D01*
X14182392Y-10243622D01*
X14122785Y-10221787D01*
X14122786Y-10221787D01*
X14122780Y-10221785D01*
X14122775Y-10221784D01*
X14122767Y-10221782D01*
X14119474Y-10221296D01*
X14096267Y-10215578D01*
X14039850Y-10195837D01*
X13870000Y-10176701D01*
X13700151Y-10195837D01*
X13538817Y-10252290D01*
X13394087Y-10343231D01*
X13393377Y-10343942D01*
X13392805Y-10344253D01*
X13388557Y-10347642D01*
X13387963Y-10346897D01*
X13331061Y-10377962D01*
X13260246Y-10372891D01*
X13215194Y-10343934D01*
X12155404Y-9284144D01*
X12121378Y-9221832D01*
X12118499Y-9195049D01*
X12118499Y-8988667D01*
X12118499Y-8920183D01*
X12138501Y-8852065D01*
X12192157Y-8805572D01*
X12262431Y-8795468D01*
X12286111Y-8801256D01*
X12380150Y-8834162D01*
X12550000Y-8853299D01*
X12719850Y-8834162D01*
X12848918Y-8788997D01*
X12851683Y-8788101D01*
X12872121Y-8782001D01*
X12961252Y-8740806D01*
X12967695Y-8737719D01*
X12974058Y-8734560D01*
X12979792Y-8731623D01*
X13005029Y-8718295D01*
X13056889Y-8703906D01*
X13067385Y-8703325D01*
X13107971Y-8699453D01*
X13107971Y-8699452D01*
X13114973Y-8698785D01*
X13120959Y-8698500D01*
X14241537Y-8698500D01*
X14309658Y-8718502D01*
G37*
%TD.AperFunction*%
%TA.AperFunction,Conductor*%
G36*
X41583882Y-1678502D02*
G01*
X41604856Y-1695405D01*
X41798027Y-1888576D01*
X41813827Y-1907864D01*
X41820461Y-1917833D01*
X41827475Y-1925671D01*
X41853968Y-1972510D01*
X41862393Y-1999789D01*
X41864405Y-2006025D01*
X41866650Y-2012693D01*
X41869014Y-2019404D01*
X41904590Y-2116124D01*
X41906493Y-2121009D01*
X41906503Y-2121032D01*
X41924600Y-2160106D01*
X41926899Y-2165776D01*
X41932288Y-2181178D01*
X41932289Y-2181179D01*
X41932291Y-2181183D01*
X41991896Y-2276043D01*
X42023229Y-2325909D01*
X42023232Y-2325913D01*
X42144087Y-2446768D01*
X42144089Y-2446769D01*
X42144091Y-2446771D01*
X42288817Y-2537709D01*
X42450150Y-2594162D01*
X42450149Y-2594162D01*
X42469285Y-2596318D01*
X42620000Y-2613299D01*
X42789850Y-2594162D01*
X42951183Y-2537709D01*
X43095909Y-2446771D01*
X43216771Y-2325909D01*
X43248104Y-2276042D01*
X43301283Y-2229005D01*
X43371450Y-2218185D01*
X43436328Y-2247018D01*
X43475319Y-2306350D01*
X43480791Y-2343079D01*
X43480791Y-2997137D01*
X43478324Y-3021948D01*
X43475964Y-3033694D01*
X43475382Y-3044190D01*
X43460995Y-3096041D01*
X43447750Y-3121122D01*
X43444944Y-3126591D01*
X43441786Y-3132934D01*
X43438574Y-3139625D01*
X43395151Y-3233581D01*
X43392988Y-3238514D01*
X43392974Y-3238549D01*
X43371078Y-3298289D01*
X43371075Y-3298304D01*
X43370589Y-3301597D01*
X43364870Y-3324810D01*
X43345128Y-3381228D01*
X43325992Y-3551078D01*
X43345128Y-3720927D01*
X43401581Y-3882261D01*
X43492522Y-4026991D01*
X43613378Y-4147847D01*
X43613380Y-4147848D01*
X43613382Y-4147850D01*
X43758108Y-4238788D01*
X43919441Y-4295241D01*
X43919440Y-4295241D01*
X43938577Y-4297397D01*
X44089291Y-4314378D01*
X44158501Y-4306580D01*
X44228433Y-4318830D01*
X44280641Y-4366943D01*
X44298549Y-4435643D01*
X44292171Y-4471544D01*
X44275731Y-4520987D01*
X44274049Y-4525470D01*
X44270324Y-4534353D01*
X44247467Y-4570270D01*
X44191881Y-4631574D01*
X44164723Y-4664134D01*
X44161434Y-4668910D01*
X44160809Y-4668479D01*
X44149089Y-4684451D01*
X44133032Y-4701550D01*
X44133027Y-4701557D01*
X44122691Y-4720357D01*
X44111843Y-4736870D01*
X44098699Y-4753816D01*
X44098694Y-4753825D01*
X44079172Y-4798937D01*
X44076560Y-4804267D01*
X44052877Y-4847350D01*
X44052873Y-4847360D01*
X44047541Y-4868126D01*
X44041139Y-4886826D01*
X44032620Y-4906510D01*
X44032619Y-4906514D01*
X44024928Y-4955074D01*
X44023724Y-4960887D01*
X44011500Y-5008500D01*
X44011500Y-5029948D01*
X44009949Y-5049657D01*
X44006594Y-5070840D01*
X44006594Y-5070842D01*
X44011220Y-5119784D01*
X44011500Y-5125717D01*
X44011500Y-5707289D01*
X43991498Y-5775410D01*
X43937842Y-5821903D01*
X43867568Y-5832007D01*
X43802988Y-5802513D01*
X43796405Y-5796384D01*
X43709976Y-5709955D01*
X43554758Y-5612426D01*
X43554756Y-5612425D01*
X43381727Y-5551879D01*
X43381726Y-5551878D01*
X43381724Y-5551878D01*
X43303700Y-5543086D01*
X43272551Y-5539577D01*
X43207099Y-5512073D01*
X43166906Y-5453548D01*
X43161453Y-5428481D01*
X43149152Y-5319306D01*
X43088605Y-5146274D01*
X43015513Y-5029948D01*
X42991074Y-4991053D01*
X42861448Y-4861427D01*
X42706230Y-4763898D01*
X42706228Y-4763897D01*
X42677444Y-4753825D01*
X42533196Y-4703350D01*
X42351030Y-4682825D01*
X42168864Y-4703350D01*
X42168861Y-4703350D01*
X42168861Y-4703351D01*
X41995831Y-4763897D01*
X41995829Y-4763898D01*
X41840611Y-4861427D01*
X41710985Y-4991053D01*
X41613456Y-5146271D01*
X41613455Y-5146273D01*
X41559778Y-5299674D01*
X41552908Y-5319306D01*
X41545613Y-5384048D01*
X41540607Y-5428478D01*
X41513103Y-5493930D01*
X41454578Y-5534123D01*
X41429508Y-5539577D01*
X41388543Y-5544193D01*
X41320336Y-5551878D01*
X41320333Y-5551878D01*
X41320332Y-5551879D01*
X41147303Y-5612425D01*
X41147301Y-5612426D01*
X40992083Y-5709955D01*
X40862457Y-5839581D01*
X40764928Y-5994799D01*
X40764927Y-5994801D01*
X40704752Y-6166771D01*
X40704380Y-6167834D01*
X40683855Y-6350000D01*
X40704380Y-6532166D01*
X40742914Y-6642290D01*
X40764927Y-6705198D01*
X40764928Y-6705200D01*
X40862457Y-6860418D01*
X40992083Y-6990044D01*
X41093793Y-7053952D01*
X41147304Y-7087575D01*
X41320336Y-7148122D01*
X41429508Y-7160422D01*
X41494960Y-7187926D01*
X41535153Y-7246450D01*
X41540607Y-7271521D01*
X41552908Y-7380694D01*
X41552908Y-7380696D01*
X41552909Y-7380697D01*
X41613455Y-7553726D01*
X41613456Y-7553728D01*
X41710985Y-7708946D01*
X41840611Y-7838572D01*
X41971819Y-7921014D01*
X41995832Y-7936103D01*
X42168864Y-7996650D01*
X42351030Y-8017175D01*
X42533196Y-7996650D01*
X42706228Y-7936103D01*
X42861448Y-7838572D01*
X42991074Y-7708946D01*
X43088605Y-7553726D01*
X43149152Y-7380694D01*
X43161452Y-7271519D01*
X43188956Y-7206070D01*
X43247480Y-7165877D01*
X43272546Y-7160423D01*
X43381724Y-7148122D01*
X43554756Y-7087575D01*
X43709976Y-6990044D01*
X43839602Y-6860418D01*
X43937133Y-6705198D01*
X43997680Y-6532166D01*
X44004970Y-6467461D01*
X44032472Y-6402012D01*
X44090996Y-6361819D01*
X44161959Y-6359646D01*
X44210491Y-6384486D01*
X44224038Y-6395693D01*
X44228420Y-6399680D01*
X44407364Y-6578624D01*
X44583125Y-6754385D01*
X44593338Y-6767131D01*
X44593531Y-6766972D01*
X44598583Y-6773079D01*
X44650978Y-6822281D01*
X44652367Y-6823627D01*
X44673667Y-6844927D01*
X44673675Y-6844933D01*
X44679517Y-6849465D01*
X44684033Y-6853322D01*
X44719867Y-6886972D01*
X44738669Y-6897308D01*
X44755175Y-6908151D01*
X44772132Y-6921304D01*
X44817254Y-6940829D01*
X44822580Y-6943439D01*
X44865659Y-6967123D01*
X44865663Y-6967124D01*
X44886432Y-6972456D01*
X44905134Y-6978859D01*
X44924824Y-6987380D01*
X44973395Y-6995072D01*
X44979189Y-6996271D01*
X45026812Y-7008500D01*
X45048259Y-7008500D01*
X45067967Y-7010050D01*
X45089152Y-7013406D01*
X45126880Y-7009839D01*
X45138094Y-7008780D01*
X45144027Y-7008500D01*
X45755500Y-7008500D01*
X45823621Y-7028502D01*
X45870114Y-7082158D01*
X45881500Y-7134500D01*
X45881500Y-8863949D01*
X45861498Y-8932070D01*
X45807842Y-8978563D01*
X45737568Y-8988667D01*
X45672988Y-8959173D01*
X45642532Y-8914342D01*
X45640777Y-8915188D01*
X45637709Y-8908818D01*
X45637709Y-8908817D01*
X45546771Y-8764091D01*
X45546769Y-8764089D01*
X45546768Y-8764087D01*
X45425912Y-8643231D01*
X45281182Y-8552290D01*
X45161451Y-8510395D01*
X45119850Y-8495838D01*
X45119848Y-8495837D01*
X45119850Y-8495837D01*
X44967198Y-8478638D01*
X44950000Y-8476701D01*
X44949999Y-8476701D01*
X44780151Y-8495837D01*
X44624360Y-8550351D01*
X44553456Y-8553970D01*
X44515709Y-8538109D01*
X44466367Y-8507105D01*
X44366455Y-8472144D01*
X44305035Y-8450653D01*
X44305033Y-8450652D01*
X44305035Y-8450652D01*
X44152383Y-8433453D01*
X44135185Y-8431516D01*
X44135184Y-8431516D01*
X43965338Y-8450652D01*
X43836346Y-8495787D01*
X43833566Y-8496688D01*
X43813078Y-8502806D01*
X43813074Y-8502807D01*
X43723930Y-8544006D01*
X43717647Y-8547015D01*
X43712819Y-8549410D01*
X43711287Y-8550170D01*
X43707501Y-8552108D01*
X43705379Y-8553194D01*
X43680142Y-8566521D01*
X43628291Y-8580907D01*
X43617812Y-8581488D01*
X43617787Y-8581490D01*
X43597081Y-8583466D01*
X43577192Y-8585365D01*
X43577189Y-8585365D01*
X43570231Y-8586030D01*
X43564241Y-8586315D01*
X41139054Y-8586315D01*
X41070933Y-8566313D01*
X41049959Y-8549410D01*
X38597430Y-6096881D01*
X38563404Y-6034569D01*
X38568469Y-5963754D01*
X38592890Y-5923474D01*
X38598367Y-5917393D01*
X38688599Y-5761107D01*
X38694519Y-5742884D01*
X38703888Y-5721214D01*
X38708350Y-5713083D01*
X38741891Y-5623720D01*
X38757242Y-5582822D01*
X38757254Y-5582787D01*
X38757272Y-5582741D01*
X38759052Y-5577849D01*
X38761510Y-5570873D01*
X38790110Y-5484850D01*
X38791789Y-5480378D01*
X38795520Y-5471478D01*
X38818375Y-5435570D01*
X38873956Y-5374275D01*
X38901124Y-5341706D01*
X38901123Y-5341706D01*
X38904844Y-5337247D01*
X38905222Y-5337562D01*
X38912741Y-5328517D01*
X40155109Y-4086149D01*
X40173704Y-4070815D01*
X40185122Y-4063109D01*
X40246417Y-4007528D01*
X40282328Y-3984672D01*
X40291226Y-3980941D01*
X40295688Y-3979267D01*
X40381721Y-3950663D01*
X40388696Y-3948205D01*
X40393588Y-3946425D01*
X40527732Y-3896076D01*
X40531849Y-3894456D01*
X40588707Y-3867965D01*
X40588707Y-3867964D01*
X40588709Y-3867964D01*
X40594228Y-3864671D01*
X40594376Y-3864919D01*
X40610999Y-3855190D01*
X40652462Y-3836731D01*
X40798460Y-3730657D01*
X40874485Y-3646223D01*
X40919208Y-3596553D01*
X40919209Y-3596551D01*
X40919214Y-3596546D01*
X41009446Y-3440260D01*
X41024203Y-3394844D01*
X41046282Y-3326890D01*
X41065212Y-3268628D01*
X41079035Y-3137104D01*
X41106048Y-3071450D01*
X41137305Y-3043593D01*
X41195909Y-3006771D01*
X41316771Y-2885909D01*
X41407709Y-2741183D01*
X41464162Y-2579850D01*
X41483299Y-2410000D01*
X41464162Y-2240150D01*
X41407709Y-2078817D01*
X41316771Y-1934091D01*
X41316769Y-1934089D01*
X41316768Y-1934087D01*
X41256276Y-1873595D01*
X41222250Y-1811283D01*
X41227315Y-1740468D01*
X41269862Y-1683632D01*
X41336382Y-1658821D01*
X41345371Y-1658500D01*
X41515761Y-1658500D01*
X41583882Y-1678502D01*
G37*
%TD.AperFunction*%
%TA.AperFunction,Conductor*%
G36*
X24263621Y-1878502D02*
G01*
X24310114Y-1932158D01*
X24321500Y-1984500D01*
X24321500Y-3646248D01*
X24337067Y-3784406D01*
X24337067Y-3784408D01*
X24337068Y-3784409D01*
X24398356Y-3959563D01*
X24401916Y-3965228D01*
X24404876Y-3970480D01*
X24405808Y-3972336D01*
X24425543Y-4011642D01*
X24427127Y-4015046D01*
X24453213Y-4075814D01*
X24454312Y-4078547D01*
X24483983Y-4157678D01*
X24484770Y-4159904D01*
X24516793Y-4256124D01*
X24517372Y-4257958D01*
X24522198Y-4274087D01*
X24531212Y-4304214D01*
X24536500Y-4340329D01*
X24536500Y-4420988D01*
X24535960Y-4429219D01*
X24531250Y-4464998D01*
X24531250Y-4465001D01*
X24535587Y-4497951D01*
X24536500Y-4504879D01*
X24536500Y-4504885D01*
X24542323Y-4549112D01*
X24547953Y-4591877D01*
X24549766Y-4605646D01*
X24552162Y-4623851D01*
X24613476Y-4771876D01*
X24626060Y-4788276D01*
X24669424Y-4844789D01*
X24686523Y-4867072D01*
X24686525Y-4867074D01*
X24701681Y-4886826D01*
X24711014Y-4898988D01*
X24739651Y-4920962D01*
X24745844Y-4926393D01*
X25578858Y-5759407D01*
X26404595Y-6585144D01*
X26438621Y-6647456D01*
X26441500Y-6674239D01*
X26441500Y-8095703D01*
X26421498Y-8163824D01*
X26367842Y-8210317D01*
X26329610Y-8220910D01*
X26230594Y-8232067D01*
X26230591Y-8232067D01*
X26230591Y-8232068D01*
X26055435Y-8293357D01*
X26055433Y-8293358D01*
X25947481Y-8361189D01*
X25879160Y-8380495D01*
X25811247Y-8359800D01*
X25765303Y-8305673D01*
X25759448Y-8289653D01*
X25754146Y-8271403D01*
X25754145Y-8271402D01*
X25754145Y-8271400D01*
X25743226Y-8252939D01*
X25734528Y-8235182D01*
X25726635Y-8215244D01*
X25697731Y-8175461D01*
X25694471Y-8170498D01*
X25669450Y-8128190D01*
X25654291Y-8113031D01*
X25641450Y-8097998D01*
X25637043Y-8091932D01*
X25628841Y-8080643D01*
X25590945Y-8049293D01*
X25586571Y-8045312D01*
X24255405Y-6714145D01*
X24221379Y-6651833D01*
X24218500Y-6625050D01*
X24218500Y-6594507D01*
X24218499Y-6594506D01*
X24215606Y-6557748D01*
X24215606Y-6557747D01*
X24199410Y-6502000D01*
X24169894Y-6400403D01*
X24159984Y-6383646D01*
X24142525Y-6314833D01*
X24159987Y-6255365D01*
X24169430Y-6239398D01*
X24211673Y-6094000D01*
X23921379Y-6094000D01*
X23857240Y-6076454D01*
X23829598Y-6060106D01*
X23672252Y-6014393D01*
X23635493Y-6011500D01*
X23635484Y-6011500D01*
X23604950Y-6011500D01*
X23536829Y-5991498D01*
X23515855Y-5974595D01*
X23182905Y-5641645D01*
X23148879Y-5579333D01*
X23146000Y-5552550D01*
X23146000Y-5053459D01*
X23654000Y-5053459D01*
X23654000Y-5586000D01*
X24211673Y-5586000D01*
X24169429Y-5440598D01*
X24086091Y-5299681D01*
X24086085Y-5299674D01*
X23970325Y-5183914D01*
X23970318Y-5183908D01*
X23829400Y-5100570D01*
X23829402Y-5100570D01*
X23672173Y-5054890D01*
X23654000Y-5053459D01*
X23146000Y-5053459D01*
X23127828Y-5054890D01*
X23127825Y-5054890D01*
X22999654Y-5092129D01*
X22928657Y-5091926D01*
X22869041Y-5053373D01*
X22839732Y-4988708D01*
X22838500Y-4971132D01*
X22838500Y-1984500D01*
X22858502Y-1916379D01*
X22912158Y-1869886D01*
X22964500Y-1858500D01*
X24195500Y-1858500D01*
X24263621Y-1878502D01*
G37*
%TD.AperFunction*%
%TA.AperFunction,Conductor*%
G36*
X30791831Y-1860985D02*
G01*
X30797169Y-1862061D01*
X30803369Y-1863311D01*
X30875896Y-1867386D01*
X30920443Y-1878246D01*
X30925917Y-1880704D01*
X30929653Y-1882534D01*
X30988807Y-1913952D01*
X31011816Y-1926173D01*
X31018073Y-1929388D01*
X31024635Y-1932646D01*
X31030929Y-1935665D01*
X31162497Y-1996588D01*
X31167118Y-1998628D01*
X31228565Y-2021194D01*
X31228569Y-2021194D01*
X31231046Y-2022104D01*
X31234933Y-2023681D01*
X31252310Y-2031418D01*
X31369989Y-2056431D01*
X31428829Y-2068938D01*
X31428830Y-2068938D01*
X31609295Y-2068938D01*
X31640237Y-2062360D01*
X31785814Y-2031418D01*
X31950677Y-1958016D01*
X31998295Y-1923419D01*
X32065157Y-1899562D01*
X32134309Y-1915641D01*
X32161448Y-1936261D01*
X32422898Y-2197711D01*
X32456924Y-2260023D01*
X32451859Y-2330838D01*
X32409312Y-2387674D01*
X32375419Y-2405735D01*
X32313816Y-2427291D01*
X32169087Y-2518231D01*
X32048232Y-2639086D01*
X32048229Y-2639090D01*
X31957292Y-2783814D01*
X31957290Y-2783819D01*
X31945462Y-2817620D01*
X31937397Y-2835880D01*
X31927908Y-2853447D01*
X31894092Y-2945380D01*
X31891927Y-2951506D01*
X31889646Y-2958231D01*
X31887486Y-2964903D01*
X31878969Y-2992485D01*
X31852477Y-3039325D01*
X31845457Y-3047169D01*
X31845456Y-3047170D01*
X31815042Y-3084005D01*
X31811008Y-3088442D01*
X31648225Y-3251224D01*
X31628941Y-3267021D01*
X31618973Y-3273654D01*
X31618963Y-3273662D01*
X31611123Y-3280678D01*
X31564284Y-3307169D01*
X31537235Y-3315522D01*
X31531599Y-3317335D01*
X31524804Y-3319608D01*
X31517623Y-3322128D01*
X31422695Y-3357047D01*
X31417606Y-3358980D01*
X31414769Y-3360092D01*
X31414737Y-3360105D01*
X31376521Y-3377854D01*
X31370793Y-3380179D01*
X31355615Y-3385491D01*
X31210890Y-3476429D01*
X31210886Y-3476432D01*
X31090031Y-3597287D01*
X30999090Y-3742017D01*
X30942637Y-3903351D01*
X30925327Y-4056989D01*
X30923501Y-4073200D01*
X30924164Y-4079088D01*
X30942637Y-4243048D01*
X30999090Y-4404382D01*
X31090031Y-4549112D01*
X31210887Y-4669968D01*
X31210889Y-4669969D01*
X31210891Y-4669971D01*
X31355617Y-4760909D01*
X31516950Y-4817362D01*
X31516949Y-4817362D01*
X31534148Y-4819299D01*
X31686800Y-4836499D01*
X31856650Y-4817362D01*
X32017983Y-4760909D01*
X32162709Y-4669971D01*
X32283571Y-4549109D01*
X32374509Y-4404383D01*
X32386341Y-4370565D01*
X32394415Y-4352288D01*
X32403894Y-4334741D01*
X32437782Y-4242607D01*
X32440139Y-4235912D01*
X32442406Y-4229180D01*
X32444399Y-4223005D01*
X32452827Y-4195712D01*
X32479331Y-4148860D01*
X32479654Y-4148500D01*
X32486337Y-4141032D01*
X32512296Y-4109598D01*
X32512296Y-4109596D01*
X32516775Y-4104174D01*
X32520796Y-4099751D01*
X32683585Y-3936962D01*
X32702868Y-3921166D01*
X32712832Y-3914537D01*
X32720663Y-3907528D01*
X32767512Y-3881027D01*
X32794805Y-3872599D01*
X32800980Y-3870606D01*
X32807712Y-3868339D01*
X32814407Y-3865982D01*
X32819247Y-3864202D01*
X32843761Y-3855185D01*
X32911102Y-3830416D01*
X32913583Y-3829449D01*
X32916005Y-3828507D01*
X32916012Y-3828503D01*
X32916027Y-3828498D01*
X32955106Y-3810397D01*
X32960764Y-3808103D01*
X32976183Y-3802709D01*
X33120909Y-3711771D01*
X33241771Y-3590909D01*
X33332709Y-3446183D01*
X33354265Y-3384578D01*
X33395641Y-3326890D01*
X33461642Y-3300727D01*
X33531309Y-3314399D01*
X33562288Y-3337101D01*
X34143473Y-3918286D01*
X34177499Y-3980598D01*
X34172434Y-4051413D01*
X34129887Y-4108249D01*
X34121415Y-4114068D01*
X34059087Y-4153231D01*
X33938231Y-4274087D01*
X33847289Y-4418819D01*
X33833990Y-4456825D01*
X33826537Y-4473938D01*
X33816179Y-4493598D01*
X33809635Y-4511972D01*
X33782813Y-4587282D01*
X33779893Y-4595967D01*
X33776829Y-4605646D01*
X33773886Y-4615642D01*
X33766198Y-4643851D01*
X33741388Y-4691099D01*
X33741538Y-4691221D01*
X33740934Y-4691963D01*
X33740924Y-4691983D01*
X33740774Y-4692160D01*
X33714494Y-4724486D01*
X33710156Y-4729294D01*
X31322321Y-7117128D01*
X31304644Y-7131838D01*
X31291320Y-7141004D01*
X31291316Y-7141007D01*
X31270745Y-7159994D01*
X31228514Y-7185756D01*
X31201428Y-7195648D01*
X31106915Y-7232087D01*
X31103063Y-7233642D01*
X31067341Y-7250452D01*
X31061324Y-7252913D01*
X31048816Y-7257290D01*
X30904087Y-7348231D01*
X30783229Y-7469089D01*
X30742421Y-7534034D01*
X30689241Y-7581071D01*
X30619074Y-7591890D01*
X30554196Y-7563056D01*
X30546640Y-7556091D01*
X27631177Y-4640628D01*
X27597151Y-4578316D01*
X27602216Y-4507501D01*
X27644763Y-4450665D01*
X27706160Y-4426326D01*
X27869406Y-4407933D01*
X28044564Y-4346643D01*
X28201693Y-4247912D01*
X28231258Y-4218346D01*
X28293568Y-4184322D01*
X28364384Y-4189386D01*
X28409448Y-4218347D01*
X28438616Y-4247515D01*
X28595654Y-4346190D01*
X28701000Y-4383050D01*
X28701000Y-3044000D01*
X29209000Y-3044000D01*
X29209000Y-4383050D01*
X29314345Y-4346190D01*
X29471382Y-4247515D01*
X29471383Y-4247515D01*
X29602515Y-4116383D01*
X29602515Y-4116382D01*
X29701190Y-3959345D01*
X29762441Y-3784296D01*
X29778000Y-3646223D01*
X29778000Y-3044000D01*
X29209000Y-3044000D01*
X28701000Y-3044000D01*
X28701000Y-2662000D01*
X28721002Y-2593879D01*
X28774658Y-2547386D01*
X28827000Y-2536000D01*
X29778000Y-2536000D01*
X29778000Y-1984500D01*
X29798002Y-1916379D01*
X29851658Y-1869886D01*
X29904000Y-1858500D01*
X30766931Y-1858500D01*
X30791831Y-1860985D01*
G37*
%TD.AperFunction*%
%TA.AperFunction,Conductor*%
G36*
X20286721Y-1208502D02*
G01*
X20333214Y-1262158D01*
X20343318Y-1332432D01*
X20334298Y-1362024D01*
X20334628Y-1362140D01*
X20332291Y-1368815D01*
X20332291Y-1368817D01*
X20327964Y-1381182D01*
X20320462Y-1402620D01*
X20312397Y-1420880D01*
X20302908Y-1438447D01*
X20269092Y-1530380D01*
X20266927Y-1536506D01*
X20264646Y-1543231D01*
X20262486Y-1549903D01*
X20253969Y-1577485D01*
X20227477Y-1624325D01*
X20220457Y-1632169D01*
X20220456Y-1632170D01*
X20190042Y-1669005D01*
X20186008Y-1673442D01*
X19650852Y-2208598D01*
X19644651Y-2214036D01*
X19616011Y-2236014D01*
X19590509Y-2269246D01*
X19590440Y-2269339D01*
X19518474Y-2363126D01*
X19458264Y-2508490D01*
X19457161Y-2511150D01*
X19446233Y-2594162D01*
X19441622Y-2629193D01*
X19440962Y-2634204D01*
X19436250Y-2669997D01*
X19436250Y-2670000D01*
X19440960Y-2705779D01*
X19441500Y-2714011D01*
X19441500Y-4445759D01*
X19421498Y-4513880D01*
X19404595Y-4534855D01*
X19171422Y-4768027D01*
X19152138Y-4783823D01*
X19142173Y-4790454D01*
X19142163Y-4790462D01*
X19134323Y-4797478D01*
X19087484Y-4823969D01*
X19060435Y-4832322D01*
X19054799Y-4834135D01*
X19048004Y-4836408D01*
X19040823Y-4838928D01*
X18945895Y-4873847D01*
X18940806Y-4875780D01*
X18937969Y-4876892D01*
X18937937Y-4876905D01*
X18899721Y-4894654D01*
X18893993Y-4896979D01*
X18878815Y-4902291D01*
X18734090Y-4993229D01*
X18734086Y-4993232D01*
X18613231Y-5114087D01*
X18522290Y-5258817D01*
X18465837Y-5420151D01*
X18446701Y-5590000D01*
X18465837Y-5759848D01*
X18522290Y-5921182D01*
X18582930Y-6017689D01*
X18604514Y-6052040D01*
X18613231Y-6065912D01*
X18734087Y-6186768D01*
X18734089Y-6186769D01*
X18734091Y-6186771D01*
X18878817Y-6277709D01*
X19040150Y-6334162D01*
X19108315Y-6341842D01*
X19173768Y-6369345D01*
X19213962Y-6427868D01*
X19216135Y-6498832D01*
X19183304Y-6556145D01*
X18935160Y-6804289D01*
X18872848Y-6838315D01*
X18802033Y-6833250D01*
X18756970Y-6804289D01*
X18685912Y-6733231D01*
X18541182Y-6642290D01*
X18437658Y-6606066D01*
X18379850Y-6585838D01*
X18379848Y-6585837D01*
X18379850Y-6585837D01*
X18226144Y-6568520D01*
X18210000Y-6566701D01*
X18209999Y-6566701D01*
X18040151Y-6585837D01*
X17878817Y-6642290D01*
X17734087Y-6733231D01*
X17613232Y-6854086D01*
X17613229Y-6854090D01*
X17522292Y-6998814D01*
X17522290Y-6998819D01*
X17510462Y-7032620D01*
X17502397Y-7050880D01*
X17492908Y-7068447D01*
X17459092Y-7160380D01*
X17456927Y-7166506D01*
X17454646Y-7173231D01*
X17452486Y-7179903D01*
X17443969Y-7207485D01*
X17417477Y-7254325D01*
X17410457Y-7262169D01*
X17410456Y-7262170D01*
X17380047Y-7298999D01*
X17376013Y-7303436D01*
X17234856Y-7444595D01*
X17172544Y-7478620D01*
X17145760Y-7481500D01*
X13103944Y-7481500D01*
X13079132Y-7479033D01*
X13067398Y-7476676D01*
X13067395Y-7476675D01*
X13067392Y-7476675D01*
X13067387Y-7476674D01*
X13067381Y-7476674D01*
X13056892Y-7476092D01*
X13005036Y-7461705D01*
X12995147Y-7456483D01*
X12979758Y-7448356D01*
X12973995Y-7445406D01*
X12967642Y-7442253D01*
X12961276Y-7439202D01*
X12881409Y-7402291D01*
X12867425Y-7395828D01*
X12862406Y-7393628D01*
X12862401Y-7393626D01*
X12862392Y-7393622D01*
X12802785Y-7371787D01*
X12802786Y-7371787D01*
X12802780Y-7371785D01*
X12802775Y-7371784D01*
X12802767Y-7371782D01*
X12799474Y-7371296D01*
X12776267Y-7365578D01*
X12719850Y-7345837D01*
X12567198Y-7328638D01*
X12550000Y-7326701D01*
X12549999Y-7326701D01*
X12380151Y-7345837D01*
X12286115Y-7378742D01*
X12215210Y-7382361D01*
X12153605Y-7347072D01*
X12120859Y-7284079D01*
X12118500Y-7259813D01*
X12118500Y-6756976D01*
X12120807Y-6732975D01*
X12122502Y-6724238D01*
X12123431Y-6719452D01*
X12127471Y-6636804D01*
X12136703Y-6595251D01*
X12140361Y-6586311D01*
X12142330Y-6581977D01*
X12182399Y-6501990D01*
X12185357Y-6495888D01*
X12188084Y-6490078D01*
X12247448Y-6359374D01*
X12249089Y-6355618D01*
X12270838Y-6296030D01*
X12271389Y-6292259D01*
X12276229Y-6271566D01*
X12304365Y-6184975D01*
X12323229Y-6005500D01*
X12304365Y-5826025D01*
X12248599Y-5654393D01*
X12246975Y-5650746D01*
X12246331Y-5649166D01*
X12245905Y-5648229D01*
X12245904Y-5648224D01*
X12187397Y-5519408D01*
X12183102Y-5510409D01*
X12142330Y-5429020D01*
X12140359Y-5424681D01*
X12136701Y-5415741D01*
X12127471Y-5374190D01*
X12123431Y-5291548D01*
X12119605Y-5249258D01*
X12119604Y-5249257D01*
X12119082Y-5243476D01*
X12119567Y-5243432D01*
X12118500Y-5231744D01*
X12118500Y-4125110D01*
X12138502Y-4056989D01*
X12192158Y-4010496D01*
X12262432Y-4000392D01*
X12318558Y-4023173D01*
X12338385Y-4037578D01*
X12503248Y-4110980D01*
X12622465Y-4136320D01*
X12679767Y-4148500D01*
X12679768Y-4148500D01*
X12860233Y-4148500D01*
X12919072Y-4135993D01*
X13036752Y-4110980D01*
X13089395Y-4087540D01*
X13097394Y-4084609D01*
X13127277Y-4075903D01*
X13256156Y-4017368D01*
X13265178Y-4013058D01*
X13329975Y-3980598D01*
X13346470Y-3972335D01*
X13350821Y-3970357D01*
X13359740Y-3966707D01*
X13401304Y-3957471D01*
X13483951Y-3953431D01*
X13526216Y-3949609D01*
X13526217Y-3949608D01*
X13531996Y-3949086D01*
X13532039Y-3949568D01*
X13543746Y-3948500D01*
X15128523Y-3948500D01*
X15152524Y-3950807D01*
X15166047Y-3953431D01*
X15248690Y-3957471D01*
X15290249Y-3966705D01*
X15299170Y-3970355D01*
X15303520Y-3972330D01*
X15384881Y-4013089D01*
X15393858Y-4017374D01*
X15526125Y-4077448D01*
X15529881Y-4079089D01*
X15589469Y-4100838D01*
X15589470Y-4100838D01*
X15592974Y-4102117D01*
X15597000Y-4103746D01*
X15613245Y-4110979D01*
X15613246Y-4110979D01*
X15613248Y-4110980D01*
X15724501Y-4134627D01*
X15789767Y-4148500D01*
X15789768Y-4148500D01*
X15970233Y-4148500D01*
X16005287Y-4141049D01*
X16146752Y-4110980D01*
X16311615Y-4037578D01*
X16457613Y-3931504D01*
X16457615Y-3931502D01*
X16578361Y-3797400D01*
X16578362Y-3797398D01*
X16578367Y-3797393D01*
X16668599Y-3641107D01*
X16674519Y-3622884D01*
X16683888Y-3601214D01*
X16688350Y-3593083D01*
X16724715Y-3496197D01*
X16737242Y-3462822D01*
X16737254Y-3462787D01*
X16737272Y-3462741D01*
X16739052Y-3457849D01*
X16741510Y-3450873D01*
X16770110Y-3364850D01*
X16771789Y-3360378D01*
X16775520Y-3351478D01*
X16798375Y-3315570D01*
X16853956Y-3254275D01*
X16881124Y-3221706D01*
X16881124Y-3221704D01*
X16884845Y-3217245D01*
X16885225Y-3217562D01*
X16892740Y-3208518D01*
X17978599Y-2122659D01*
X18040909Y-2088635D01*
X18075849Y-2086021D01*
X18158249Y-2091370D01*
X18166139Y-2091760D01*
X18170821Y-2091919D01*
X18242154Y-2089385D01*
X18242157Y-2089384D01*
X18242160Y-2089384D01*
X18243012Y-2089263D01*
X18260805Y-2088000D01*
X18290233Y-2088000D01*
X18333435Y-2078817D01*
X18466752Y-2050480D01*
X18631615Y-1977078D01*
X18777613Y-1871004D01*
X18796525Y-1850000D01*
X18898361Y-1736900D01*
X18898362Y-1736898D01*
X18898367Y-1736893D01*
X18988599Y-1580607D01*
X18989614Y-1577485D01*
X19020756Y-1481638D01*
X19044365Y-1408975D01*
X19055679Y-1301328D01*
X19082693Y-1235672D01*
X19140915Y-1195043D01*
X19180989Y-1188500D01*
X20218600Y-1188500D01*
X20286721Y-1208502D01*
G37*
%TD.AperFunction*%
%TA.AperFunction,Conductor*%
G36*
X15878765Y2107817D02*
G01*
X15923429Y2052630D01*
X15929265Y2035101D01*
X15931178Y2027546D01*
X15931179Y2027544D01*
X16021580Y1821452D01*
X16144674Y1633042D01*
X16297097Y1467466D01*
X16474698Y1329233D01*
X16474699Y1329232D01*
X16672628Y1222118D01*
X16672630Y1222117D01*
X16885483Y1149045D01*
X16885492Y1149043D01*
X16966000Y1135609D01*
X16966000Y2036326D01*
X17077685Y1985320D01*
X17184237Y1970000D01*
X17255763Y1970000D01*
X17362315Y1985320D01*
X17474000Y2036326D01*
X17474000Y1135610D01*
X17554507Y1149043D01*
X17554516Y1149045D01*
X17767369Y1222117D01*
X17767371Y1222118D01*
X17965300Y1329232D01*
X17965301Y1329233D01*
X18142902Y1467466D01*
X18295327Y1633045D01*
X18384217Y1769101D01*
X18438220Y1815190D01*
X18508568Y1824765D01*
X18572925Y1794788D01*
X18595183Y1769102D01*
X18684279Y1632730D01*
X18812539Y1493404D01*
X18828977Y1475548D01*
X18836762Y1467092D01*
X18882452Y1431530D01*
X19014424Y1328811D01*
X19212426Y1221658D01*
X19212427Y1221658D01*
X19212428Y1221657D01*
X19308721Y1188600D01*
X19425365Y1148556D01*
X19647431Y1111500D01*
X19647435Y1111500D01*
X19872565Y1111500D01*
X19872569Y1111500D01*
X20094635Y1148556D01*
X20307574Y1221658D01*
X20505576Y1328811D01*
X20683240Y1467094D01*
X20835722Y1632732D01*
X20835927Y1633045D01*
X20858472Y1667553D01*
X20924518Y1768646D01*
X20978520Y1814732D01*
X21048868Y1824308D01*
X21113225Y1794331D01*
X21135480Y1768647D01*
X21168219Y1718537D01*
X21224275Y1632735D01*
X21224279Y1632730D01*
X21352539Y1493404D01*
X21368977Y1475548D01*
X21376762Y1467092D01*
X21422452Y1431530D01*
X21554424Y1328811D01*
X21752426Y1221658D01*
X21752427Y1221658D01*
X21752428Y1221657D01*
X21848721Y1188600D01*
X21965365Y1148556D01*
X22187431Y1111500D01*
X22187435Y1111500D01*
X22412565Y1111500D01*
X22412569Y1111500D01*
X22634635Y1148556D01*
X22847574Y1221658D01*
X23045576Y1328811D01*
X23223240Y1467094D01*
X23375722Y1632732D01*
X23375927Y1633045D01*
X23398472Y1667553D01*
X23464518Y1768646D01*
X23518520Y1814732D01*
X23588868Y1824308D01*
X23653225Y1794331D01*
X23675480Y1768647D01*
X23708219Y1718537D01*
X23764275Y1632735D01*
X23764279Y1632730D01*
X23892539Y1493404D01*
X23908977Y1475548D01*
X23916762Y1467092D01*
X23962452Y1431530D01*
X24094424Y1328811D01*
X24292426Y1221658D01*
X24292427Y1221658D01*
X24292428Y1221657D01*
X24388721Y1188600D01*
X24505365Y1148556D01*
X24727431Y1111500D01*
X24727435Y1111500D01*
X24952565Y1111500D01*
X24952569Y1111500D01*
X25174635Y1148556D01*
X25387574Y1221658D01*
X25585576Y1328811D01*
X25763240Y1467094D01*
X25915722Y1632732D01*
X25915927Y1633045D01*
X25938472Y1667553D01*
X26004518Y1768646D01*
X26058520Y1814732D01*
X26128868Y1824308D01*
X26193225Y1794331D01*
X26215480Y1768647D01*
X26248219Y1718537D01*
X26304275Y1632735D01*
X26304279Y1632730D01*
X26432539Y1493404D01*
X26448977Y1475548D01*
X26456762Y1467092D01*
X26502452Y1431530D01*
X26634424Y1328811D01*
X26832426Y1221658D01*
X26832427Y1221658D01*
X26832428Y1221657D01*
X26928721Y1188600D01*
X27045365Y1148556D01*
X27267431Y1111500D01*
X27267435Y1111500D01*
X27492565Y1111500D01*
X27492569Y1111500D01*
X27714635Y1148556D01*
X27927574Y1221658D01*
X28125576Y1328811D01*
X28303240Y1467094D01*
X28455722Y1632732D01*
X28455927Y1633045D01*
X28478472Y1667553D01*
X28544518Y1768646D01*
X28598520Y1814732D01*
X28668868Y1824308D01*
X28733225Y1794331D01*
X28755480Y1768647D01*
X28788219Y1718537D01*
X28844275Y1632735D01*
X28844279Y1632730D01*
X28972539Y1493404D01*
X28988977Y1475548D01*
X28996762Y1467092D01*
X29042452Y1431530D01*
X29174424Y1328811D01*
X29372426Y1221658D01*
X29372427Y1221658D01*
X29372428Y1221657D01*
X29468721Y1188600D01*
X29585365Y1148556D01*
X29807431Y1111500D01*
X29807435Y1111500D01*
X30032565Y1111500D01*
X30032569Y1111500D01*
X30254635Y1148556D01*
X30467574Y1221658D01*
X30665576Y1328811D01*
X30843240Y1467094D01*
X30995722Y1632732D01*
X30995927Y1633045D01*
X31018472Y1667553D01*
X31084518Y1768646D01*
X31138520Y1814732D01*
X31208868Y1824308D01*
X31273225Y1794331D01*
X31295480Y1768647D01*
X31328219Y1718537D01*
X31384275Y1632735D01*
X31384279Y1632730D01*
X31512539Y1493404D01*
X31528977Y1475548D01*
X31536762Y1467092D01*
X31582452Y1431530D01*
X31714424Y1328811D01*
X31912426Y1221658D01*
X31912427Y1221658D01*
X31912428Y1221657D01*
X32008721Y1188600D01*
X32125365Y1148556D01*
X32347431Y1111500D01*
X32347435Y1111500D01*
X32572565Y1111500D01*
X32572569Y1111500D01*
X32794635Y1148556D01*
X33007574Y1221658D01*
X33205576Y1328811D01*
X33383240Y1467094D01*
X33535722Y1632732D01*
X33535927Y1633045D01*
X33558472Y1667553D01*
X33624518Y1768646D01*
X33678520Y1814732D01*
X33748868Y1824308D01*
X33813225Y1794331D01*
X33835480Y1768647D01*
X33868219Y1718537D01*
X33924275Y1632735D01*
X33924279Y1632730D01*
X34052539Y1493404D01*
X34068977Y1475548D01*
X34076762Y1467092D01*
X34122452Y1431530D01*
X34254424Y1328811D01*
X34452426Y1221658D01*
X34452427Y1221658D01*
X34452428Y1221657D01*
X34548721Y1188600D01*
X34665365Y1148556D01*
X34887431Y1111500D01*
X34887435Y1111500D01*
X35112565Y1111500D01*
X35112569Y1111500D01*
X35334635Y1148556D01*
X35547574Y1221658D01*
X35745576Y1328811D01*
X35923240Y1467094D01*
X36075722Y1632732D01*
X36075927Y1633045D01*
X36098472Y1667553D01*
X36164518Y1768646D01*
X36218520Y1814732D01*
X36288868Y1824308D01*
X36353225Y1794331D01*
X36375480Y1768647D01*
X36408219Y1718537D01*
X36464275Y1632735D01*
X36464279Y1632730D01*
X36592539Y1493404D01*
X36608977Y1475548D01*
X36616762Y1467092D01*
X36662452Y1431530D01*
X36794424Y1328811D01*
X36992426Y1221658D01*
X36992427Y1221658D01*
X36992428Y1221657D01*
X37088721Y1188600D01*
X37205365Y1148556D01*
X37427431Y1111500D01*
X37427435Y1111500D01*
X37652565Y1111500D01*
X37652569Y1111500D01*
X37874635Y1148556D01*
X38087574Y1221658D01*
X38285576Y1328811D01*
X38463240Y1467094D01*
X38615722Y1632732D01*
X38615927Y1633045D01*
X38638472Y1667553D01*
X38704518Y1768646D01*
X38758520Y1814732D01*
X38828868Y1824308D01*
X38893225Y1794331D01*
X38915480Y1768647D01*
X38948219Y1718537D01*
X39004275Y1632735D01*
X39004279Y1632730D01*
X39132539Y1493404D01*
X39148977Y1475548D01*
X39156762Y1467092D01*
X39202452Y1431530D01*
X39334424Y1328811D01*
X39532426Y1221658D01*
X39532427Y1221658D01*
X39532428Y1221657D01*
X39628721Y1188600D01*
X39745365Y1148556D01*
X39967431Y1111500D01*
X39967435Y1111500D01*
X40192565Y1111500D01*
X40192569Y1111500D01*
X40414635Y1148556D01*
X40627574Y1221658D01*
X40825576Y1328811D01*
X41003240Y1467094D01*
X41155722Y1632732D01*
X41155927Y1633045D01*
X41178472Y1667553D01*
X41244518Y1768646D01*
X41298520Y1814732D01*
X41368868Y1824308D01*
X41433225Y1794331D01*
X41455480Y1768647D01*
X41488219Y1718537D01*
X41544275Y1632735D01*
X41544279Y1632730D01*
X41672539Y1493404D01*
X41688977Y1475548D01*
X41696762Y1467092D01*
X41742452Y1431530D01*
X41874424Y1328811D01*
X42072426Y1221658D01*
X42072427Y1221658D01*
X42072428Y1221657D01*
X42168721Y1188600D01*
X42285365Y1148556D01*
X42507431Y1111500D01*
X42507435Y1111500D01*
X42732565Y1111500D01*
X42732569Y1111500D01*
X42954635Y1148556D01*
X43167574Y1221658D01*
X43292543Y1289288D01*
X43361970Y1304118D01*
X43428397Y1279058D01*
X43470730Y1222063D01*
X43478372Y1184367D01*
X43479030Y1170306D01*
X43479407Y1167785D01*
X43480791Y1149160D01*
X43480791Y-1356920D01*
X43460789Y-1425041D01*
X43407133Y-1471534D01*
X43336859Y-1481638D01*
X43272279Y-1452144D01*
X43248104Y-1423957D01*
X43221227Y-1381183D01*
X43216771Y-1374091D01*
X43216769Y-1374089D01*
X43216768Y-1374087D01*
X43095913Y-1253232D01*
X43095909Y-1253229D01*
X42951185Y-1162292D01*
X42951184Y-1162291D01*
X42951183Y-1162291D01*
X42929643Y-1154753D01*
X42917366Y-1150457D01*
X42899103Y-1142389D01*
X42881554Y-1132909D01*
X42789404Y-1099014D01*
X42782757Y-1096672D01*
X42775933Y-1094375D01*
X42769816Y-1092401D01*
X42742513Y-1083970D01*
X42695669Y-1057474D01*
X42687849Y-1050476D01*
X42687839Y-1050467D01*
X42687831Y-1050460D01*
X42656386Y-1024493D01*
X42656383Y-1024491D01*
X42650982Y-1020031D01*
X42646558Y-1016009D01*
X42281390Y-650841D01*
X42275963Y-644653D01*
X42253987Y-616013D01*
X42222074Y-591525D01*
X42222074Y-591524D01*
X42126882Y-518480D01*
X42126874Y-518475D01*
X41978851Y-457162D01*
X41959458Y-454607D01*
X41959458Y-454608D01*
X41856941Y-441111D01*
X41856898Y-441107D01*
X41820003Y-436250D01*
X41819999Y-436250D01*
X41784219Y-440960D01*
X41775988Y-441500D01*
X41263944Y-441500D01*
X41239132Y-439033D01*
X41227398Y-436676D01*
X41227395Y-436675D01*
X41227392Y-436675D01*
X41227387Y-436674D01*
X41227381Y-436674D01*
X41216892Y-436092D01*
X41165036Y-421705D01*
X41155309Y-416569D01*
X41139758Y-408356D01*
X41133995Y-405406D01*
X41127642Y-402253D01*
X41121276Y-399202D01*
X41041407Y-362290D01*
X41027425Y-355828D01*
X41022406Y-353628D01*
X41022401Y-353626D01*
X41022392Y-353622D01*
X40962785Y-331787D01*
X40962786Y-331787D01*
X40962780Y-331785D01*
X40962775Y-331784D01*
X40962767Y-331782D01*
X40959474Y-331296D01*
X40936267Y-325578D01*
X40879850Y-305837D01*
X40727198Y-288638D01*
X40710000Y-286701D01*
X40709999Y-286701D01*
X40540151Y-305837D01*
X40378817Y-362290D01*
X40234087Y-453231D01*
X40113231Y-574087D01*
X40022290Y-718817D01*
X39965837Y-880151D01*
X39946701Y-1049999D01*
X39965837Y-1219848D01*
X40022290Y-1381182D01*
X40113231Y-1525912D01*
X40173724Y-1586405D01*
X40207750Y-1648717D01*
X40202685Y-1719532D01*
X40160138Y-1776368D01*
X40093618Y-1801179D01*
X40084629Y-1801500D01*
X39654012Y-1801500D01*
X39645781Y-1800960D01*
X39610001Y-1796250D01*
X39609998Y-1796250D01*
X39573248Y-1801088D01*
X39573184Y-1801095D01*
X39470541Y-1814608D01*
X39470540Y-1814607D01*
X39451151Y-1817161D01*
X39451147Y-1817162D01*
X39303125Y-1878475D01*
X39303117Y-1878480D01*
X39208147Y-1951355D01*
X39208104Y-1951387D01*
X39176011Y-1976013D01*
X39154035Y-2004653D01*
X39148597Y-2010853D01*
X37231425Y-3928024D01*
X37212141Y-3943821D01*
X37202173Y-3950454D01*
X37202163Y-3950462D01*
X37194323Y-3957478D01*
X37147484Y-3983969D01*
X37120435Y-3992322D01*
X37114799Y-3994135D01*
X37108004Y-3996408D01*
X37100823Y-3998928D01*
X37005895Y-4033847D01*
X37000806Y-4035780D01*
X36997969Y-4036892D01*
X36997937Y-4036905D01*
X36959721Y-4054654D01*
X36953993Y-4056979D01*
X36938816Y-4062291D01*
X36792999Y-4153913D01*
X36724678Y-4173218D01*
X36656765Y-4152522D01*
X36636869Y-4136320D01*
X34439912Y-1939363D01*
X32241390Y259159D01*
X32235963Y265347D01*
X32213987Y293987D01*
X32182074Y318475D01*
X32182074Y318476D01*
X32086882Y391520D01*
X32086874Y391525D01*
X31938851Y452838D01*
X31919458Y455393D01*
X31919458Y455392D01*
X31816941Y468889D01*
X31816898Y468893D01*
X31780003Y473750D01*
X31779999Y473750D01*
X31744219Y469040D01*
X31735988Y468500D01*
X11215468Y468500D01*
X11189524Y471200D01*
X11187111Y471708D01*
X11180307Y473140D01*
X11175858Y473748D01*
X11175978Y474630D01*
X11127149Y489215D01*
X11101868Y503550D01*
X11101856Y503557D01*
X11101834Y503569D01*
X11093094Y508304D01*
X11093076Y508314D01*
X11084334Y512833D01*
X11079896Y515030D01*
X11076275Y516822D01*
X11076259Y516830D01*
X11076240Y516839D01*
X10995201Y555210D01*
X10994230Y555742D01*
X10989178Y558174D01*
X10987409Y558900D01*
X10983800Y560607D01*
X10983797Y560609D01*
X10983745Y560633D01*
X10978239Y563161D01*
X10974981Y564610D01*
X10912736Y587610D01*
X10912733Y587611D01*
X10910026Y588010D01*
X10886817Y593729D01*
X10829850Y613662D01*
X10829848Y613663D01*
X10829846Y613663D01*
X10660000Y632799D01*
X10490151Y613663D01*
X10386115Y577259D01*
X10315210Y573640D01*
X10253605Y608929D01*
X10220859Y671922D01*
X10218500Y696044D01*
X10218500Y696933D01*
X10220655Y720276D01*
X10221360Y724044D01*
X10221365Y724060D01*
X10250663Y980448D01*
X10261413Y1018871D01*
X10264702Y1026007D01*
X10283594Y1067006D01*
X10296163Y1094281D01*
X10312747Y1120930D01*
X10421244Y1254654D01*
X10569931Y1440994D01*
X10597503Y1475548D01*
X10655626Y1516320D01*
X10726564Y1519196D01*
X10787796Y1483263D01*
X10814047Y1440994D01*
X10839110Y1373797D01*
X10839112Y1373793D01*
X10926738Y1256739D01*
X11043792Y1169113D01*
X11043794Y1169112D01*
X11043796Y1169111D01*
X11097600Y1149043D01*
X11180795Y1118012D01*
X11180803Y1118010D01*
X11241350Y1111501D01*
X11241355Y1111501D01*
X11241362Y1111500D01*
X11241368Y1111500D01*
X13038632Y1111500D01*
X13038638Y1111500D01*
X13038645Y1111501D01*
X13038649Y1111501D01*
X13099196Y1118010D01*
X13099199Y1118011D01*
X13099201Y1118011D01*
X13107041Y1120935D01*
X13124422Y1127418D01*
X13236204Y1169111D01*
X13236799Y1169556D01*
X13353261Y1256739D01*
X13440887Y1373793D01*
X13440887Y1373794D01*
X13440889Y1373796D01*
X13489696Y1504652D01*
X13491988Y1510796D01*
X13491990Y1510804D01*
X13498499Y1571351D01*
X13498500Y1571368D01*
X13498500Y1792720D01*
X13518502Y1860841D01*
X13572158Y1907334D01*
X13642432Y1917438D01*
X13707012Y1887944D01*
X13725047Y1868655D01*
X13765535Y1815040D01*
X13766528Y1813687D01*
X13818441Y1740785D01*
X13822340Y1737067D01*
X13835938Y1721811D01*
X13837299Y1720009D01*
X13903547Y1659616D01*
X13904517Y1658712D01*
X13971654Y1594697D01*
X13973252Y1593670D01*
X13984437Y1585075D01*
X13984471Y1585118D01*
X13989109Y1581616D01*
X13989118Y1581608D01*
X14068554Y1532423D01*
X14145048Y1483263D01*
X14149751Y1480241D01*
X14155080Y1477494D01*
X14155040Y1477418D01*
X14158398Y1475723D01*
X14158566Y1476058D01*
X14163777Y1473463D01*
X14163782Y1473460D01*
X14253782Y1438595D01*
X14346279Y1401564D01*
X14346474Y1401527D01*
X14351796Y1400260D01*
X14355335Y1399253D01*
X14355345Y1399249D01*
X14453229Y1380952D01*
X14554151Y1361500D01*
X14554154Y1361500D01*
X14762715Y1361500D01*
X14762718Y1361500D01*
X14812077Y1370728D01*
X14817642Y1371512D01*
X14870739Y1376581D01*
X14915612Y1389758D01*
X14921777Y1391235D01*
X14964655Y1399249D01*
X15014536Y1418574D01*
X15019523Y1420269D01*
X15073862Y1436223D01*
X15112505Y1456147D01*
X15118592Y1458885D01*
X15156218Y1473460D01*
X15204487Y1503349D01*
X15208768Y1505774D01*
X15262026Y1533229D01*
X15293609Y1558068D01*
X15299378Y1562103D01*
X15330882Y1581608D01*
X15375278Y1622082D01*
X15378762Y1625033D01*
X15428432Y1664092D01*
X15452595Y1691979D01*
X15457743Y1697258D01*
X15482701Y1720009D01*
X15520881Y1770570D01*
X15523535Y1773847D01*
X15541285Y1794331D01*
X15567065Y1824082D01*
X15583864Y1853183D01*
X15588145Y1859642D01*
X15606503Y1883950D01*
X15636205Y1943602D01*
X15638034Y1947006D01*
X15644339Y1957928D01*
X15672913Y2007418D01*
X15682824Y2036057D01*
X15685956Y2043515D01*
X15694331Y2060333D01*
X15742600Y2112395D01*
X15811355Y2130097D01*
X15878765Y2107817D01*
G37*
%TD.AperFunction*%
%TA.AperFunction,Conductor*%
G36*
X46512157Y1792697D02*
G01*
X46539852Y1757866D01*
X46651163Y1551297D01*
X46651924Y1549885D01*
X46651944Y1549849D01*
X46664220Y1529405D01*
X46664232Y1529385D01*
X46678659Y1507709D01*
X46681864Y1503348D01*
X46692790Y1488479D01*
X46885384Y1250403D01*
X46996153Y1116436D01*
X47013078Y1089743D01*
X47047836Y1015786D01*
X47058955Y976772D01*
X47088741Y720959D01*
X47089626Y714697D01*
X47090879Y705842D01*
X47091500Y697011D01*
X47091500Y-343236D01*
X47071498Y-411357D01*
X47054595Y-432331D01*
X44970164Y-2516761D01*
X44950884Y-2532556D01*
X44940907Y-2539196D01*
X44933062Y-2546216D01*
X44886224Y-2572706D01*
X44860970Y-2580505D01*
X44789980Y-2581494D01*
X44729725Y-2543946D01*
X44699335Y-2479782D01*
X44697791Y-2460115D01*
X44697791Y963340D01*
X44717793Y1031461D01*
X44771449Y1077954D01*
X44824813Y1089336D01*
X45114910Y1086978D01*
X45143932Y1088385D01*
X45175466Y1091709D01*
X45204161Y1096387D01*
X45269927Y1110972D01*
X45273154Y1111598D01*
X45494635Y1148556D01*
X45594346Y1182788D01*
X45598452Y1184041D01*
X45615464Y1188600D01*
X45628101Y1192587D01*
X45647719Y1200940D01*
X45651916Y1202552D01*
X45707574Y1221658D01*
X45905576Y1328811D01*
X46083240Y1467094D01*
X46235722Y1632732D01*
X46323452Y1767015D01*
X46377452Y1813098D01*
X46447799Y1822674D01*
X46512157Y1792697D01*
G37*
%TD.AperFunction*%
%TA.AperFunction,Conductor*%
G36*
X49046014Y1799381D02*
G01*
X49076549Y1767011D01*
X49098383Y1733591D01*
X49100297Y1730468D01*
X49183200Y1585870D01*
X49183209Y1585855D01*
X49183214Y1585847D01*
X49193637Y1569180D01*
X49205781Y1551319D01*
X49205796Y1551297D01*
X49210420Y1545036D01*
X49217648Y1535247D01*
X49343174Y1378394D01*
X49370121Y1312712D01*
X49357279Y1242886D01*
X49333893Y1210572D01*
X48865398Y742075D01*
X48523596Y400273D01*
X48461283Y366248D01*
X48390468Y371312D01*
X48333632Y413859D01*
X48308821Y480379D01*
X48308500Y489368D01*
X48308500Y694568D01*
X48310704Y718030D01*
X48311257Y720949D01*
X48311257Y720956D01*
X48311259Y720960D01*
X48341043Y976769D01*
X48352161Y1015783D01*
X48386921Y1089749D01*
X48403843Y1116435D01*
X48514613Y1250403D01*
X48707207Y1488478D01*
X48721341Y1507712D01*
X48735772Y1529395D01*
X48748064Y1549867D01*
X48860145Y1757866D01*
X48910068Y1808346D01*
X48979357Y1823822D01*
X49046014Y1799381D01*
G37*
%TD.AperFunction*%
%TD*%
%TA.AperFunction,Conductor*%
%TO.N,/USB_Data-*%
G36*
X6284751Y-5688883D02*
G01*
X6289774Y-5690985D01*
X6296083Y-5697341D01*
X6296050Y-5706295D01*
X6295878Y-5706687D01*
X6256182Y-5792575D01*
X6256044Y-5792853D01*
X6219738Y-5861604D01*
X6219735Y-5861609D01*
X6192679Y-5922415D01*
X6175813Y-5995194D01*
X6170613Y-6088948D01*
X6166733Y-6097019D01*
X6158931Y-6100000D01*
X5981069Y-6100000D01*
X5972796Y-6096573D01*
X5969387Y-6088948D01*
X5968872Y-6079677D01*
X5964186Y-5995195D01*
X5947319Y-5922416D01*
X5920262Y-5861607D01*
X5883950Y-5792846D01*
X5883817Y-5792578D01*
X5844119Y-5706684D01*
X5843760Y-5697739D01*
X5849832Y-5691157D01*
X5850183Y-5691002D01*
X6065484Y-5600889D01*
X6074437Y-5600857D01*
X6284751Y-5688883D01*
G37*
%TD.AperFunction*%
%TD*%
%TA.AperFunction,Conductor*%
%TO.N,/USB_Data-*%
G36*
X6167209Y-6103526D02*
G01*
X6170618Y-6111145D01*
X6175864Y-6204905D01*
X6175865Y-6204910D01*
X6192851Y-6277651D01*
X6192852Y-6277652D01*
X6220055Y-6338423D01*
X6235189Y-6366971D01*
X6256487Y-6407147D01*
X6256628Y-6407430D01*
X6296370Y-6493309D01*
X6296735Y-6502257D01*
X6290666Y-6508841D01*
X6290269Y-6509016D01*
X6075016Y-6599109D01*
X6066062Y-6599142D01*
X6065982Y-6599109D01*
X5850720Y-6509012D01*
X5844411Y-6502656D01*
X5844444Y-6493702D01*
X5844614Y-6493315D01*
X5844617Y-6493309D01*
X5884262Y-6407430D01*
X5884369Y-6407212D01*
X5920566Y-6338440D01*
X5947481Y-6277626D01*
X5964233Y-6204856D01*
X5969391Y-6111155D01*
X5973267Y-6103084D01*
X5981073Y-6100099D01*
X6158936Y-6100099D01*
X6167209Y-6103526D01*
G37*
%TD.AperFunction*%
%TD*%
%TA.AperFunction,Conductor*%
%TO.N,Net-(USB1-CC1)*%
G36*
X9638695Y-5018964D02*
G01*
X9645004Y-5025320D01*
X9645159Y-5025718D01*
X9677822Y-5114520D01*
X9677921Y-5114814D01*
X9700862Y-5189099D01*
X9724728Y-5251231D01*
X9724730Y-5251234D01*
X9764266Y-5314623D01*
X9826883Y-5384595D01*
X9829846Y-5393044D01*
X9826437Y-5400669D01*
X9700669Y-5526437D01*
X9692396Y-5529864D01*
X9684595Y-5526883D01*
X9614623Y-5464266D01*
X9551234Y-5424730D01*
X9551231Y-5424728D01*
X9489099Y-5400862D01*
X9414814Y-5377921D01*
X9414520Y-5377822D01*
X9325718Y-5345159D01*
X9319136Y-5339087D01*
X9318776Y-5330139D01*
X9318916Y-5329777D01*
X9407436Y-5113822D01*
X9413743Y-5107468D01*
X9629742Y-5018931D01*
X9638695Y-5018964D01*
G37*
%TD.AperFunction*%
%TD*%
%TA.AperFunction,Conductor*%
%TO.N,Net-(USB1-CC1)*%
G36*
X10817204Y-8273427D02*
G01*
X10820613Y-8281052D01*
X10825813Y-8374804D01*
X10842679Y-8447582D01*
X10869735Y-8508389D01*
X10869738Y-8508394D01*
X10906048Y-8577151D01*
X10906186Y-8577429D01*
X10945879Y-8663313D01*
X10946239Y-8672260D01*
X10940167Y-8678842D01*
X10939775Y-8679014D01*
X10724517Y-8769109D01*
X10715563Y-8769142D01*
X10715483Y-8769109D01*
X10500224Y-8679014D01*
X10493915Y-8672658D01*
X10493948Y-8663704D01*
X10494098Y-8663362D01*
X10533824Y-8577404D01*
X10533950Y-8577151D01*
X10570262Y-8508392D01*
X10597319Y-8447582D01*
X10614186Y-8374804D01*
X10619386Y-8281052D01*
X10623267Y-8272981D01*
X10631069Y-8270000D01*
X10808931Y-8270000D01*
X10817204Y-8273427D01*
G37*
%TD.AperFunction*%
%TD*%
%TA.AperFunction,Conductor*%
%TO.N,/VDD_3.3V*%
G36*
X46410562Y-6027451D02*
G01*
X46410741Y-6027858D01*
X46539119Y-6335494D01*
X46539142Y-6344449D01*
X46539119Y-6344506D01*
X46410679Y-6652290D01*
X46404330Y-6658605D01*
X46395375Y-6658582D01*
X46395110Y-6658467D01*
X46271482Y-6603249D01*
X46271355Y-6603191D01*
X46174882Y-6557314D01*
X46174880Y-6557313D01*
X46089261Y-6525140D01*
X46089260Y-6525139D01*
X45987362Y-6506202D01*
X45987358Y-6506201D01*
X45987354Y-6506201D01*
X45853190Y-6500477D01*
X45845071Y-6496701D01*
X45841989Y-6488788D01*
X45841989Y-6211064D01*
X45845416Y-6202791D01*
X45853034Y-6199382D01*
X45988229Y-6191825D01*
X46089748Y-6168142D01*
X46136623Y-6147175D01*
X46174555Y-6130211D01*
X46174558Y-6130209D01*
X46184204Y-6125097D01*
X46270532Y-6079355D01*
X46270785Y-6079231D01*
X46290784Y-6069977D01*
X46395031Y-6021744D01*
X46403977Y-6021382D01*
X46410562Y-6027451D01*
G37*
%TD.AperFunction*%
%TD*%
%TA.AperFunction,Conductor*%
%TO.N,/VDD_3.3V*%
G36*
X37071199Y-6470652D02*
G01*
X37077514Y-6477001D01*
X37077629Y-6477290D01*
X37125896Y-6604179D01*
X37125952Y-6604333D01*
X37161234Y-6705532D01*
X37198422Y-6789384D01*
X37198423Y-6789387D01*
X37256642Y-6875343D01*
X37256647Y-6875349D01*
X37347491Y-6974656D01*
X37350546Y-6983073D01*
X37347131Y-6990826D01*
X37150752Y-7187205D01*
X37142479Y-7190632D01*
X37134663Y-7187638D01*
X37033933Y-7097202D01*
X37033924Y-7097195D01*
X36979653Y-7062925D01*
X36945785Y-7041538D01*
X36945782Y-7041537D01*
X36945781Y-7041536D01*
X36859456Y-7007634D01*
X36859431Y-7007626D01*
X36756014Y-6975087D01*
X36755741Y-6974994D01*
X36627436Y-6927563D01*
X36620864Y-6921480D01*
X36620519Y-6912532D01*
X36620652Y-6912189D01*
X36747437Y-6603806D01*
X36753748Y-6597461D01*
X37062247Y-6470629D01*
X37071199Y-6470652D01*
G37*
%TD.AperFunction*%
%TD*%
%TA.AperFunction,Conductor*%
%TO.N,/VDD_3.3V*%
G36*
X22324595Y-881487D02*
G01*
X22324893Y-881617D01*
X22449351Y-938144D01*
X22449461Y-938196D01*
X22546083Y-986599D01*
X22631632Y-1021601D01*
X22733716Y-1042845D01*
X22868872Y-1049455D01*
X22876967Y-1053282D01*
X22880000Y-1061141D01*
X22880000Y-1338858D01*
X22876573Y-1347131D01*
X22868871Y-1350544D01*
X22733722Y-1357153D01*
X22733717Y-1357153D01*
X22674952Y-1369382D01*
X22631632Y-1378398D01*
X22546083Y-1413400D01*
X22449508Y-1461779D01*
X22449307Y-1461875D01*
X22324927Y-1518367D01*
X22315978Y-1518668D01*
X22309436Y-1512552D01*
X22309291Y-1512220D01*
X22241596Y-1350000D01*
X22180879Y-1204505D01*
X22180857Y-1195551D01*
X22180880Y-1195494D01*
X22309291Y-887778D01*
X22315640Y-881464D01*
X22324595Y-881487D01*
G37*
%TD.AperFunction*%
%TD*%
%TA.AperFunction,Conductor*%
%TO.N,/VDD_3.3V*%
G36*
X31389626Y-897882D02*
G01*
X31389740Y-898144D01*
X31518181Y-1205931D01*
X31518204Y-1214886D01*
X31518181Y-1214943D01*
X31389804Y-1522576D01*
X31383455Y-1528891D01*
X31374500Y-1528868D01*
X31374090Y-1528687D01*
X31249866Y-1471164D01*
X31249580Y-1471022D01*
X31153661Y-1420076D01*
X31153660Y-1420075D01*
X31153644Y-1420067D01*
X31097127Y-1394694D01*
X31068871Y-1382008D01*
X31068868Y-1382007D01*
X30967380Y-1358218D01*
X30967384Y-1358218D01*
X30832181Y-1350620D01*
X30824114Y-1346734D01*
X30821138Y-1338938D01*
X30821138Y-1061214D01*
X30824565Y-1052941D01*
X30832339Y-1049525D01*
X30966471Y-1043839D01*
X31068362Y-1025002D01*
X31153984Y-992952D01*
X31250513Y-947156D01*
X31374175Y-891965D01*
X31383125Y-891723D01*
X31389626Y-897882D01*
G37*
%TD.AperFunction*%
%TD*%
%TA.AperFunction,Conductor*%
%TO.N,/VDD_3.3V*%
G36*
X46544478Y-6340868D02*
G01*
X46852220Y-6469291D01*
X46858535Y-6475640D01*
X46858512Y-6484595D01*
X46858367Y-6484927D01*
X46801875Y-6609307D01*
X46801780Y-6609503D01*
X46753400Y-6706083D01*
X46718398Y-6791632D01*
X46709382Y-6834952D01*
X46697153Y-6893717D01*
X46697153Y-6893722D01*
X46690544Y-7028871D01*
X46686717Y-7036967D01*
X46678858Y-7040000D01*
X46401142Y-7040000D01*
X46392869Y-7036573D01*
X46389456Y-7028872D01*
X46382845Y-6893721D01*
X46382845Y-6893717D01*
X46382845Y-6893716D01*
X46361601Y-6791632D01*
X46326599Y-6706083D01*
X46278196Y-6609461D01*
X46278144Y-6609351D01*
X46221631Y-6484925D01*
X46221331Y-6475978D01*
X46227447Y-6469436D01*
X46227754Y-6469301D01*
X46535494Y-6340879D01*
X46544449Y-6340857D01*
X46544478Y-6340868D01*
G37*
%TD.AperFunction*%
%TD*%
%TA.AperFunction,Conductor*%
%TO.N,/VDD_3.3V*%
G36*
X49368046Y-13645250D02*
G01*
X49611110Y-13868769D01*
X49764167Y-13974448D01*
X49811256Y-14006962D01*
X49811257Y-14006962D01*
X49811258Y-14006963D01*
X50006294Y-14096304D01*
X50242281Y-14180861D01*
X50554074Y-14300405D01*
X50560572Y-14306567D01*
X50560810Y-14315519D01*
X50560699Y-14315796D01*
X50243696Y-15083466D01*
X50237371Y-15089805D01*
X50232872Y-15090700D01*
X49402335Y-15090010D01*
X49394065Y-15086576D01*
X49390645Y-15078300D01*
X49390661Y-15077711D01*
X49407680Y-14761384D01*
X49407697Y-14761174D01*
X49433365Y-14509164D01*
X49425967Y-14297381D01*
X49344421Y-14089675D01*
X49154380Y-13857985D01*
X49151783Y-13849415D01*
X49155152Y-13842293D01*
X49351856Y-13645589D01*
X49360128Y-13642163D01*
X49368046Y-13645250D01*
G37*
%TD.AperFunction*%
%TD*%
%TA.AperFunction,Conductor*%
%TO.N,/VDD_3.3V*%
G36*
X27833974Y-1353427D02*
G01*
X27837099Y-1359058D01*
X27863201Y-1471677D01*
X27891417Y-1583517D01*
X27919610Y-1685366D01*
X27947821Y-1777378D01*
X27974775Y-1855825D01*
X27974878Y-1863116D01*
X27696168Y-2755251D01*
X27690430Y-2762126D01*
X27681511Y-2762930D01*
X27674636Y-2757192D01*
X27673832Y-2755251D01*
X27598352Y-2513646D01*
X27395121Y-1863113D01*
X27395223Y-1855828D01*
X27422182Y-1777364D01*
X27450386Y-1685373D01*
X27478591Y-1583481D01*
X27506795Y-1471690D01*
X27532900Y-1359058D01*
X27538108Y-1351772D01*
X27544299Y-1350000D01*
X27825701Y-1350000D01*
X27833974Y-1353427D01*
G37*
%TD.AperFunction*%
%TD*%
%TA.AperFunction,Conductor*%
%TO.N,/VDD_3.3V*%
G36*
X12914595Y-2971487D02*
G01*
X12914893Y-2971617D01*
X13039351Y-3028144D01*
X13039461Y-3028196D01*
X13136083Y-3076599D01*
X13221632Y-3111601D01*
X13323716Y-3132845D01*
X13458872Y-3139455D01*
X13466967Y-3143282D01*
X13470000Y-3151141D01*
X13470000Y-3428858D01*
X13466573Y-3437131D01*
X13458871Y-3440544D01*
X13323722Y-3447153D01*
X13323717Y-3447153D01*
X13264952Y-3459382D01*
X13221632Y-3468398D01*
X13136083Y-3503400D01*
X13039508Y-3551779D01*
X13039307Y-3551875D01*
X12914927Y-3608367D01*
X12905978Y-3608668D01*
X12899436Y-3602552D01*
X12899291Y-3602220D01*
X12831596Y-3440000D01*
X12770879Y-3294505D01*
X12770857Y-3285551D01*
X12770880Y-3285494D01*
X12899291Y-2977778D01*
X12905640Y-2971464D01*
X12914595Y-2971487D01*
G37*
%TD.AperFunction*%
%TD*%
%TA.AperFunction,Conductor*%
%TO.N,/VDD_3.3V*%
G36*
X15750563Y-2977447D02*
G01*
X15750708Y-2977779D01*
X15879119Y-3285494D01*
X15879142Y-3294449D01*
X15879119Y-3294506D01*
X15750708Y-3602220D01*
X15744359Y-3608535D01*
X15735404Y-3608512D01*
X15735072Y-3608367D01*
X15721538Y-3602220D01*
X15610670Y-3551865D01*
X15610515Y-3551791D01*
X15513916Y-3503400D01*
X15428367Y-3468398D01*
X15344110Y-3450864D01*
X15326278Y-3447153D01*
X15191128Y-3440544D01*
X15183033Y-3436717D01*
X15180000Y-3428858D01*
X15180000Y-3151141D01*
X15183427Y-3142868D01*
X15191126Y-3139455D01*
X15326282Y-3132845D01*
X15428367Y-3111601D01*
X15513916Y-3076599D01*
X15610558Y-3028186D01*
X15610627Y-3028153D01*
X15735074Y-2971631D01*
X15744021Y-2971331D01*
X15750563Y-2977447D01*
G37*
%TD.AperFunction*%
%TD*%
%TA.AperFunction,Conductor*%
%TO.N,/VDD_3.3V*%
G36*
X25166429Y-8353339D02*
G01*
X25169095Y-8357461D01*
X25209874Y-8464938D01*
X25209890Y-8464978D01*
X25257088Y-8579470D01*
X25304301Y-8684099D01*
X25304308Y-8684113D01*
X25351499Y-8778795D01*
X25351499Y-8778796D01*
X25396435Y-8859529D01*
X25397546Y-8868124D01*
X25155915Y-9810879D01*
X25150541Y-9818042D01*
X25141676Y-9819308D01*
X25134513Y-9813934D01*
X25133416Y-9811472D01*
X25133230Y-9810879D01*
X24855155Y-8923212D01*
X24855313Y-8915750D01*
X24873291Y-8865899D01*
X24892605Y-8802443D01*
X24911918Y-8729088D01*
X24911930Y-8729036D01*
X24911938Y-8729004D01*
X24931226Y-8645856D01*
X24931239Y-8645800D01*
X24936658Y-8619659D01*
X24949836Y-8556099D01*
X24953016Y-8550206D01*
X25149884Y-8353338D01*
X25158156Y-8349912D01*
X25166429Y-8353339D01*
G37*
%TD.AperFunction*%
%TD*%
%TA.AperFunction,Conductor*%
%TO.N,/VDD_3.3V*%
G36*
X22184478Y-1200868D02*
G01*
X22492220Y-1329291D01*
X22498535Y-1335640D01*
X22498512Y-1344595D01*
X22498367Y-1344927D01*
X22441875Y-1469307D01*
X22441780Y-1469503D01*
X22393400Y-1566083D01*
X22358398Y-1651632D01*
X22349382Y-1694952D01*
X22337153Y-1753717D01*
X22337153Y-1753722D01*
X22330544Y-1888871D01*
X22326717Y-1896967D01*
X22318858Y-1900000D01*
X22041142Y-1900000D01*
X22032869Y-1896573D01*
X22029456Y-1888872D01*
X22022845Y-1753721D01*
X22022845Y-1753717D01*
X22022845Y-1753716D01*
X22001601Y-1651632D01*
X21966599Y-1566083D01*
X21918196Y-1469461D01*
X21918144Y-1469351D01*
X21861631Y-1344925D01*
X21861331Y-1335978D01*
X21867447Y-1329436D01*
X21867754Y-1329301D01*
X22175494Y-1200879D01*
X22184449Y-1200857D01*
X22184478Y-1200868D01*
G37*
%TD.AperFunction*%
%TD*%
%TA.AperFunction,Conductor*%
%TO.N,/VDD_3.3V*%
G36*
X11607131Y-5308927D02*
G01*
X11610544Y-5316628D01*
X11617153Y-5451776D01*
X11617153Y-5451780D01*
X11626169Y-5495102D01*
X11638398Y-5553867D01*
X11673400Y-5639416D01*
X11721791Y-5736015D01*
X11721875Y-5736191D01*
X11778367Y-5860572D01*
X11778668Y-5869521D01*
X11772552Y-5876063D01*
X11772220Y-5876208D01*
X11464506Y-6004619D01*
X11455551Y-6004642D01*
X11455494Y-6004619D01*
X11147779Y-5876208D01*
X11141464Y-5869859D01*
X11141487Y-5860904D01*
X11141607Y-5860629D01*
X11198153Y-5736127D01*
X11198186Y-5736058D01*
X11246599Y-5639416D01*
X11281601Y-5553867D01*
X11302845Y-5451782D01*
X11309455Y-5316628D01*
X11313283Y-5308533D01*
X11321142Y-5305500D01*
X11598858Y-5305500D01*
X11607131Y-5308927D01*
G37*
%TD.AperFunction*%
%TD*%
%TA.AperFunction,Conductor*%
%TO.N,/VDD_3.3V*%
G36*
X18070563Y-916947D02*
G01*
X18070710Y-917283D01*
X18199119Y-1224993D01*
X18199142Y-1233948D01*
X18199119Y-1234005D01*
X18070707Y-1541724D01*
X18064358Y-1548039D01*
X18055403Y-1548016D01*
X18055074Y-1547872D01*
X17930738Y-1491447D01*
X17930541Y-1491353D01*
X17833970Y-1443099D01*
X17833951Y-1443090D01*
X17748406Y-1408233D01*
X17748407Y-1408233D01*
X17646333Y-1387106D01*
X17646335Y-1387106D01*
X17511231Y-1380540D01*
X17503134Y-1376716D01*
X17500099Y-1368854D01*
X17500099Y-1091137D01*
X17503526Y-1082864D01*
X17511220Y-1079452D01*
X17646379Y-1072794D01*
X17748435Y-1051428D01*
X17833948Y-1016279D01*
X17930525Y-967760D01*
X17930669Y-967691D01*
X18055071Y-911137D01*
X18064020Y-910834D01*
X18070563Y-916947D01*
G37*
%TD.AperFunction*%
%TD*%
%TA.AperFunction,Conductor*%
%TO.N,/VDD_3.3V*%
G36*
X14832559Y-14683446D02*
G01*
X14838797Y-14689706D01*
X14929109Y-14905483D01*
X14929142Y-14914437D01*
X14929109Y-14914517D01*
X14838797Y-15130293D01*
X14832441Y-15136602D01*
X14823604Y-15136617D01*
X14738939Y-15102255D01*
X14738911Y-15102244D01*
X14669108Y-15078385D01*
X14669099Y-15078383D01*
X14669096Y-15078382D01*
X14669095Y-15078382D01*
X14606533Y-15065777D01*
X14569734Y-15063311D01*
X14532938Y-15060846D01*
X14441604Y-15060095D01*
X14433359Y-15056600D01*
X14430000Y-15048395D01*
X14430000Y-14771604D01*
X14433427Y-14763331D01*
X14441602Y-14759904D01*
X14532936Y-14759153D01*
X14606533Y-14754222D01*
X14669095Y-14741616D01*
X14669103Y-14741613D01*
X14669108Y-14741612D01*
X14738903Y-14717756D01*
X14738905Y-14717754D01*
X14738926Y-14717748D01*
X14823605Y-14683382D01*
X14832559Y-14683446D01*
G37*
%TD.AperFunction*%
%TD*%
%TA.AperFunction,Conductor*%
%TO.N,/VDD_3.3V*%
G36*
X14266465Y-12113061D02*
G01*
X14437662Y-12257766D01*
X14437663Y-12257766D01*
X14437664Y-12257767D01*
X14587674Y-12331995D01*
X14587675Y-12331995D01*
X14587679Y-12331997D01*
X14708583Y-12361285D01*
X14736203Y-12367976D01*
X14736208Y-12367977D01*
X14736212Y-12367978D01*
X14910843Y-12404808D01*
X14911490Y-12404984D01*
X15128613Y-12477883D01*
X15135365Y-12483765D01*
X15135981Y-12492699D01*
X15135706Y-12493434D01*
X14932562Y-12986204D01*
X14926241Y-12992547D01*
X14926204Y-12992562D01*
X14433434Y-13195706D01*
X14424479Y-13195691D01*
X14418158Y-13189348D01*
X14417883Y-13188613D01*
X14344984Y-12971490D01*
X14344808Y-12970843D01*
X14307978Y-12796212D01*
X14271997Y-12647679D01*
X14197766Y-12497662D01*
X14053061Y-12326465D01*
X14050339Y-12317935D01*
X14053724Y-12310641D01*
X14250641Y-12113724D01*
X14258913Y-12110298D01*
X14266465Y-12113061D01*
G37*
%TD.AperFunction*%
%TD*%
%TA.AperFunction,Conductor*%
%TO.N,/VDD_3.3V*%
G36*
X17960809Y-990262D02*
G01*
X18197246Y-1225352D01*
X18200697Y-1233615D01*
X18200697Y-1233672D01*
X18200025Y-1567041D01*
X18196581Y-1575307D01*
X18188301Y-1578717D01*
X18187567Y-1578692D01*
X18074330Y-1571342D01*
X18073921Y-1571301D01*
X17977170Y-1558149D01*
X17977168Y-1558148D01*
X17895505Y-1556957D01*
X17815521Y-1584754D01*
X17731773Y-1651973D01*
X17723176Y-1654478D01*
X17716177Y-1651121D01*
X17519645Y-1454589D01*
X17516218Y-1446316D01*
X17519554Y-1438136D01*
X17622544Y-1332895D01*
X17699318Y-1250332D01*
X17764656Y-1178085D01*
X17841430Y-1095522D01*
X17944265Y-990440D01*
X17952500Y-986925D01*
X17960809Y-990262D01*
G37*
%TD.AperFunction*%
%TD*%
%TA.AperFunction,Conductor*%
%TO.N,/VDD_3.3V*%
G36*
X16276786Y-2696838D02*
G01*
X16473161Y-2893213D01*
X16476588Y-2901486D01*
X16473555Y-2909345D01*
X16382662Y-3009585D01*
X16325497Y-3096794D01*
X16289757Y-3182033D01*
X16289754Y-3182041D01*
X16255680Y-3284523D01*
X16255606Y-3284733D01*
X16207598Y-3412639D01*
X16201482Y-3419181D01*
X16192533Y-3419482D01*
X16192195Y-3419349D01*
X15883808Y-3292563D01*
X15877460Y-3286249D01*
X15750649Y-2977801D01*
X15750672Y-2968848D01*
X15757021Y-2962533D01*
X15757284Y-2962429D01*
X15885264Y-2914392D01*
X15885468Y-2914321D01*
X15987953Y-2880245D01*
X15987953Y-2880244D01*
X15987962Y-2880242D01*
X16073205Y-2844500D01*
X16160411Y-2787338D01*
X16260654Y-2696443D01*
X16269085Y-2693425D01*
X16276786Y-2696838D01*
G37*
%TD.AperFunction*%
%TD*%
%TA.AperFunction,Conductor*%
%TO.N,/VDD_3.3V*%
G36*
X39908616Y-2959788D02*
G01*
X40217038Y-3086589D01*
X40223387Y-3092904D01*
X40223410Y-3092961D01*
X40350196Y-3401348D01*
X40350173Y-3410303D01*
X40343824Y-3416618D01*
X40343486Y-3416751D01*
X40215580Y-3464759D01*
X40215370Y-3464833D01*
X40112888Y-3498907D01*
X40112880Y-3498910D01*
X40027641Y-3534650D01*
X39940432Y-3591815D01*
X39840192Y-3682708D01*
X39831761Y-3685727D01*
X39824060Y-3682314D01*
X39627685Y-3485939D01*
X39624258Y-3477666D01*
X39627291Y-3469807D01*
X39631837Y-3464794D01*
X39718185Y-3369564D01*
X39775347Y-3282358D01*
X39811089Y-3197115D01*
X39845169Y-3094616D01*
X39845242Y-3094411D01*
X39848178Y-3086589D01*
X39893249Y-2966509D01*
X39899363Y-2959970D01*
X39908312Y-2959669D01*
X39908616Y-2959788D01*
G37*
%TD.AperFunction*%
%TD*%
%TA.AperFunction,Conductor*%
%TO.N,/VDD_3.3V*%
G36*
X38296786Y-4816838D02*
G01*
X38493161Y-5013213D01*
X38496588Y-5021486D01*
X38493555Y-5029345D01*
X38402662Y-5129585D01*
X38345497Y-5216794D01*
X38309757Y-5302033D01*
X38309754Y-5302041D01*
X38275680Y-5404523D01*
X38275606Y-5404733D01*
X38227598Y-5532639D01*
X38221482Y-5539181D01*
X38212533Y-5539482D01*
X38212195Y-5539349D01*
X37903808Y-5412563D01*
X37897460Y-5406249D01*
X37770649Y-5097801D01*
X37770672Y-5088848D01*
X37777021Y-5082533D01*
X37777284Y-5082429D01*
X37905264Y-5034392D01*
X37905468Y-5034321D01*
X38007953Y-5000245D01*
X38007953Y-5000244D01*
X38007962Y-5000242D01*
X38093205Y-4964500D01*
X38180411Y-4907338D01*
X38280654Y-4816443D01*
X38289085Y-4813425D01*
X38296786Y-4816838D01*
G37*
%TD.AperFunction*%
%TD*%
%TA.AperFunction,Conductor*%
%TO.N,/VDD_3.3V*%
G36*
X26107576Y-9542552D02*
G01*
X26407687Y-9841714D01*
X26411127Y-9849981D01*
X26407713Y-9858260D01*
X26407687Y-9858286D01*
X26107576Y-10157447D01*
X26099297Y-10160861D01*
X26091801Y-10158128D01*
X26037009Y-10112207D01*
X26037002Y-10112201D01*
X25973995Y-10069297D01*
X25911003Y-10036301D01*
X25910995Y-10036298D01*
X25848000Y-10013200D01*
X25794301Y-10001948D01*
X25786906Y-9996898D01*
X25785000Y-9990497D01*
X25785000Y-9709502D01*
X25788427Y-9701229D01*
X25794300Y-9698051D01*
X25848000Y-9686800D01*
X25910999Y-9663700D01*
X25974000Y-9630700D01*
X26037000Y-9587800D01*
X26091802Y-9541870D01*
X26100342Y-9539183D01*
X26107576Y-9542552D01*
G37*
%TD.AperFunction*%
%TD*%
%TA.AperFunction,Conductor*%
%TO.N,/VDD_3.3V*%
G36*
X25468198Y-9541871D02*
G01*
X25522987Y-9587790D01*
X25523008Y-9587806D01*
X25586002Y-9630702D01*
X25606250Y-9641307D01*
X25649000Y-9663700D01*
X25712000Y-9686800D01*
X25765699Y-9698051D01*
X25773094Y-9703101D01*
X25775000Y-9709502D01*
X25775000Y-9990497D01*
X25771573Y-9998770D01*
X25765699Y-10001948D01*
X25711999Y-10013200D01*
X25649003Y-10036298D01*
X25648995Y-10036301D01*
X25586003Y-10069297D01*
X25522997Y-10112201D01*
X25522990Y-10112207D01*
X25468198Y-10158128D01*
X25459656Y-10160816D01*
X25452423Y-10157447D01*
X25152312Y-9858286D01*
X25148872Y-9850019D01*
X25152286Y-9841740D01*
X25152312Y-9841714D01*
X25452424Y-9542551D01*
X25460702Y-9539138D01*
X25468198Y-9541871D01*
G37*
%TD.AperFunction*%
%TD*%
%TA.AperFunction,Conductor*%
%TO.N,/VDD_3.3V*%
G36*
X11464505Y-6006380D02*
G01*
X11772220Y-6134791D01*
X11778535Y-6141140D01*
X11778512Y-6150095D01*
X11778367Y-6150427D01*
X11721875Y-6274807D01*
X11721780Y-6275003D01*
X11673400Y-6371583D01*
X11638398Y-6457132D01*
X11629382Y-6500452D01*
X11617153Y-6559217D01*
X11617153Y-6559222D01*
X11610544Y-6694371D01*
X11606717Y-6702467D01*
X11598858Y-6705500D01*
X11321142Y-6705500D01*
X11312869Y-6702073D01*
X11309456Y-6694372D01*
X11302845Y-6559221D01*
X11302845Y-6559217D01*
X11302845Y-6559216D01*
X11281601Y-6457132D01*
X11246599Y-6371583D01*
X11198196Y-6274961D01*
X11198144Y-6274851D01*
X11141631Y-6150425D01*
X11141331Y-6141478D01*
X11147447Y-6134936D01*
X11147754Y-6134801D01*
X11455494Y-6006379D01*
X11464448Y-6006357D01*
X11464505Y-6006380D01*
G37*
%TD.AperFunction*%
%TD*%
%TA.AperFunction,Conductor*%
%TO.N,/VDD_3.3V*%
G36*
X7370293Y-12321202D02*
G01*
X7376602Y-12327558D01*
X7376617Y-12336395D01*
X7342255Y-12421059D01*
X7342244Y-12421087D01*
X7318385Y-12490890D01*
X7318383Y-12490899D01*
X7305777Y-12553467D01*
X7300846Y-12627056D01*
X7300846Y-12627064D01*
X7300095Y-12718396D01*
X7296600Y-12726641D01*
X7288395Y-12730000D01*
X7011604Y-12730000D01*
X7003331Y-12726573D01*
X6999904Y-12718397D01*
X6999153Y-12627063D01*
X6994222Y-12553466D01*
X6981616Y-12490904D01*
X6981614Y-12490898D01*
X6981612Y-12490890D01*
X6957753Y-12421087D01*
X6957751Y-12421082D01*
X6957748Y-12421073D01*
X6923382Y-12336394D01*
X6923446Y-12327440D01*
X6929704Y-12321203D01*
X7145484Y-12230889D01*
X7154437Y-12230857D01*
X7370293Y-12321202D01*
G37*
%TD.AperFunction*%
%TD*%
%TA.AperFunction,Conductor*%
%TO.N,/VDD_3.3V*%
G36*
X44853614Y-4466480D02*
G01*
X45162036Y-4593281D01*
X45168385Y-4599596D01*
X45168408Y-4599653D01*
X45295194Y-4908040D01*
X45295171Y-4916995D01*
X45288822Y-4923310D01*
X45288484Y-4923443D01*
X45160578Y-4971451D01*
X45160368Y-4971525D01*
X45057886Y-5005599D01*
X45057878Y-5005602D01*
X44972639Y-5041342D01*
X44885430Y-5098507D01*
X44785190Y-5189400D01*
X44776759Y-5192419D01*
X44769058Y-5189006D01*
X44572683Y-4992631D01*
X44569256Y-4984358D01*
X44572289Y-4976499D01*
X44576835Y-4971486D01*
X44663183Y-4876256D01*
X44720345Y-4789050D01*
X44756087Y-4703807D01*
X44790167Y-4601308D01*
X44790240Y-4601103D01*
X44793176Y-4593281D01*
X44838247Y-4473201D01*
X44844361Y-4466662D01*
X44853310Y-4466361D01*
X44853614Y-4466480D01*
G37*
%TD.AperFunction*%
%TD*%
%TA.AperFunction,Conductor*%
%TO.N,/VDD_5V*%
G36*
X9064929Y-4057701D02*
G01*
X9071248Y-4064046D01*
X9071229Y-4073001D01*
X9071222Y-4073017D01*
X9003691Y-4234408D01*
X9003663Y-4234475D01*
X8955701Y-4359864D01*
X8927208Y-4471893D01*
X8913526Y-4604096D01*
X8910218Y-4778522D01*
X8906635Y-4786729D01*
X8898520Y-4790000D01*
X8421480Y-4790000D01*
X8413207Y-4786573D01*
X8409782Y-4778522D01*
X8406473Y-4604097D01*
X8392790Y-4471892D01*
X8364295Y-4359860D01*
X8316335Y-4234474D01*
X8248777Y-4073017D01*
X8248745Y-4064062D01*
X8255053Y-4057708D01*
X8655501Y-3890873D01*
X8664452Y-3890855D01*
X9064929Y-4057701D01*
G37*
%TD.AperFunction*%
%TD*%
%TA.AperFunction,Conductor*%
%TO.N,/VDD_5V*%
G36*
X19018678Y-13534050D02*
G01*
X19319752Y-13795792D01*
X19570270Y-13949958D01*
X19570276Y-13949961D01*
X19800988Y-14065778D01*
X19801409Y-14066012D01*
X19988445Y-14181112D01*
X20050912Y-14219553D01*
X20052456Y-14220687D01*
X20351583Y-14480737D01*
X20355579Y-14488751D01*
X20352737Y-14497243D01*
X20352190Y-14497830D01*
X19762360Y-15089049D01*
X19758543Y-15091600D01*
X18987264Y-15410093D01*
X18978309Y-15410084D01*
X18971984Y-15403745D01*
X18971443Y-15402096D01*
X18880085Y-15032450D01*
X18879755Y-15029151D01*
X18892861Y-14722008D01*
X18892885Y-14721674D01*
X18921783Y-14451579D01*
X18897866Y-14317467D01*
X18873950Y-14183360D01*
X18873949Y-14183358D01*
X18873949Y-14183356D01*
X18706706Y-13949962D01*
X18662674Y-13888513D01*
X18660640Y-13879792D01*
X18663909Y-13873427D01*
X19002730Y-13534606D01*
X19011002Y-13531180D01*
X19018678Y-13534050D01*
G37*
%TD.AperFunction*%
%TD*%
%TA.AperFunction,Conductor*%
%TO.N,/CHIP_EN*%
G36*
X40628842Y-2189833D02*
G01*
X40629014Y-2190224D01*
X40719109Y-2405482D01*
X40719142Y-2414436D01*
X40719109Y-2414516D01*
X40629014Y-2629775D01*
X40622658Y-2636084D01*
X40613704Y-2636051D01*
X40613340Y-2635891D01*
X40527429Y-2596186D01*
X40527151Y-2596048D01*
X40458394Y-2559738D01*
X40458389Y-2559735D01*
X40397582Y-2532679D01*
X40324804Y-2515813D01*
X40231052Y-2510613D01*
X40222981Y-2506733D01*
X40220000Y-2498931D01*
X40220000Y-2321068D01*
X40223427Y-2312795D01*
X40231049Y-2309387D01*
X40324804Y-2304186D01*
X40397582Y-2287319D01*
X40458392Y-2260262D01*
X40527162Y-2223944D01*
X40527404Y-2223824D01*
X40613315Y-2184119D01*
X40622260Y-2183760D01*
X40628842Y-2189833D01*
G37*
%TD.AperFunction*%
%TD*%
%TA.AperFunction,Conductor*%
%TO.N,/CHIP_EN*%
G36*
X40816295Y-823948D02*
G01*
X40816635Y-824097D01*
X40902578Y-863817D01*
X40902846Y-863950D01*
X40971607Y-900262D01*
X40971609Y-900263D01*
X41032415Y-927319D01*
X41049281Y-931227D01*
X41105195Y-944186D01*
X41198950Y-949387D01*
X41207019Y-953266D01*
X41210000Y-961068D01*
X41210000Y-1138931D01*
X41206573Y-1147204D01*
X41198948Y-1150613D01*
X41105194Y-1155813D01*
X41032415Y-1172679D01*
X40971609Y-1199735D01*
X40971604Y-1199738D01*
X40902853Y-1236044D01*
X40902575Y-1236182D01*
X40816687Y-1275878D01*
X40807739Y-1276238D01*
X40801157Y-1270166D01*
X40800985Y-1269774D01*
X40760347Y-1172680D01*
X40710889Y-1054515D01*
X40710857Y-1045562D01*
X40800986Y-830222D01*
X40807341Y-823915D01*
X40816295Y-823948D01*
G37*
%TD.AperFunction*%
%TD*%
%TA.AperFunction,Conductor*%
%TO.N,/CHIP_EN*%
G36*
X31655805Y-7518670D02*
G01*
X31781583Y-7644448D01*
X31785010Y-7652721D01*
X31782160Y-7660374D01*
X31720551Y-7731625D01*
X31720545Y-7731633D01*
X31684780Y-7797316D01*
X31684776Y-7797325D01*
X31665549Y-7862097D01*
X31665531Y-7862163D01*
X31646481Y-7938674D01*
X31646328Y-7939185D01*
X31615032Y-8029012D01*
X31609074Y-8035697D01*
X31600133Y-8036211D01*
X31599546Y-8035988D01*
X31383824Y-7947564D01*
X31377468Y-7941255D01*
X31377435Y-7941175D01*
X31288860Y-7725083D01*
X31288893Y-7716131D01*
X31295249Y-7709822D01*
X31295415Y-7709755D01*
X31381882Y-7676418D01*
X31446769Y-7652721D01*
X31452982Y-7650452D01*
X31452983Y-7650451D01*
X31452998Y-7650446D01*
X31511691Y-7622949D01*
X31571972Y-7580762D01*
X31639598Y-7518344D01*
X31648000Y-7515252D01*
X31655805Y-7518670D01*
G37*
%TD.AperFunction*%
%TD*%
%TA.AperFunction,Conductor*%
%TO.N,/CHIP_EN*%
G36*
X34315364Y-4658974D02*
G01*
X34531175Y-4747435D01*
X34537531Y-4753744D01*
X34537564Y-4753824D01*
X34626110Y-4969844D01*
X34626077Y-4978798D01*
X34619721Y-4985107D01*
X34619424Y-4985224D01*
X34532100Y-5018262D01*
X34531924Y-5018326D01*
X34459570Y-5043075D01*
X34459560Y-5043079D01*
X34399493Y-5069125D01*
X34399486Y-5069129D01*
X34337961Y-5110255D01*
X34269404Y-5172746D01*
X34260981Y-5175786D01*
X34253249Y-5172372D01*
X34127474Y-5046597D01*
X34124047Y-5038324D01*
X34126948Y-5030614D01*
X34188953Y-4959879D01*
X34226231Y-4895100D01*
X34247326Y-4831355D01*
X34267952Y-4755673D01*
X34268078Y-4755275D01*
X34268624Y-4753744D01*
X34299916Y-4665879D01*
X34305920Y-4659236D01*
X34314863Y-4658783D01*
X34315364Y-4658974D01*
G37*
%TD.AperFunction*%
%TD*%
%TA.AperFunction,Conductor*%
%TO.N,/CHIP_EN*%
G36*
X37560669Y-4333562D02*
G01*
X37686436Y-4459329D01*
X37689863Y-4467602D01*
X37686882Y-4475404D01*
X37624265Y-4545377D01*
X37584730Y-4608763D01*
X37584728Y-4608766D01*
X37560862Y-4670899D01*
X37537921Y-4745183D01*
X37537822Y-4745477D01*
X37505159Y-4834281D01*
X37499087Y-4840863D01*
X37490139Y-4841223D01*
X37489741Y-4841068D01*
X37273824Y-4752564D01*
X37267468Y-4746255D01*
X37267435Y-4746175D01*
X37267092Y-4745339D01*
X37178931Y-4530257D01*
X37178964Y-4521304D01*
X37185320Y-4514995D01*
X37185690Y-4514850D01*
X37274524Y-4482173D01*
X37274814Y-4482076D01*
X37348476Y-4459329D01*
X37349104Y-4459135D01*
X37411234Y-4435268D01*
X37474623Y-4395732D01*
X37544597Y-4333114D01*
X37553044Y-4330153D01*
X37560669Y-4333562D01*
G37*
%TD.AperFunction*%
%TD*%
%TA.AperFunction,Conductor*%
%TO.N,/CHIP_EN*%
G36*
X42345403Y-1433115D02*
G01*
X42415376Y-1495732D01*
X42444316Y-1513782D01*
X42478758Y-1535265D01*
X42478761Y-1535266D01*
X42478764Y-1535268D01*
X42540895Y-1559135D01*
X42540901Y-1559136D01*
X42540904Y-1559138D01*
X42615183Y-1582076D01*
X42615477Y-1582175D01*
X42653626Y-1596207D01*
X42704281Y-1614840D01*
X42710863Y-1620913D01*
X42711223Y-1629860D01*
X42711068Y-1630258D01*
X42622564Y-1846175D01*
X42616255Y-1852531D01*
X42616175Y-1852564D01*
X42400258Y-1941068D01*
X42391304Y-1941035D01*
X42384995Y-1934679D01*
X42384840Y-1934281D01*
X42352175Y-1845477D01*
X42352076Y-1845183D01*
X42329138Y-1770904D01*
X42329135Y-1770895D01*
X42305268Y-1708764D01*
X42305266Y-1708761D01*
X42305265Y-1708758D01*
X42283782Y-1674316D01*
X42265732Y-1645376D01*
X42203115Y-1575403D01*
X42200153Y-1566955D01*
X42203561Y-1559331D01*
X42329331Y-1433561D01*
X42337603Y-1430135D01*
X42345403Y-1433115D01*
G37*
%TD.AperFunction*%
%TD*%
%TA.AperFunction,Conductor*%
%TO.N,/GPIO0*%
G36*
X50246237Y2465164D02*
G01*
X50561502Y2149156D01*
X50833061Y1876958D01*
X50836478Y1868681D01*
X50833325Y1860705D01*
X50612796Y1624782D01*
X50464683Y1438669D01*
X50343390Y1272059D01*
X50343238Y1271860D01*
X50195353Y1086032D01*
X50195049Y1085680D01*
X49975230Y850513D01*
X49967077Y846810D01*
X49958693Y849956D01*
X49958410Y850230D01*
X49832213Y976427D01*
X49828786Y984700D01*
X49830643Y991023D01*
X49974924Y1215378D01*
X49967470Y1271860D01*
X49948445Y1416007D01*
X49810205Y1616636D01*
X49810200Y1616643D01*
X49803688Y1624780D01*
X49624808Y1848301D01*
X49623801Y1849782D01*
X49461314Y2133187D01*
X49460172Y2142068D01*
X49465645Y2149156D01*
X49466969Y2149807D01*
X50233473Y2467708D01*
X50242428Y2467711D01*
X50246237Y2465164D01*
G37*
%TD.AperFunction*%
%TD*%
%TA.AperFunction,Conductor*%
%TO.N,/GPIO0*%
G36*
X46167605Y-2690498D02*
G01*
X46293372Y-2816265D01*
X46296799Y-2824538D01*
X46293818Y-2832340D01*
X46231201Y-2902313D01*
X46191666Y-2965699D01*
X46191664Y-2965702D01*
X46167798Y-3027835D01*
X46144857Y-3102119D01*
X46144758Y-3102413D01*
X46112095Y-3191217D01*
X46106023Y-3197799D01*
X46097075Y-3198159D01*
X46096677Y-3198004D01*
X45880760Y-3109500D01*
X45874404Y-3103191D01*
X45874371Y-3103111D01*
X45874028Y-3102275D01*
X45785867Y-2887193D01*
X45785900Y-2878240D01*
X45792256Y-2871931D01*
X45792626Y-2871786D01*
X45881460Y-2839109D01*
X45881750Y-2839012D01*
X45955412Y-2816265D01*
X45956040Y-2816071D01*
X46018170Y-2792204D01*
X46081559Y-2752668D01*
X46151533Y-2690050D01*
X46159980Y-2687089D01*
X46167605Y-2690498D01*
G37*
%TD.AperFunction*%
%TD*%
%TA.AperFunction,Conductor*%
%TO.N,/GPIO1*%
G36*
X47704488Y2469135D02*
G01*
X48057481Y2322472D01*
X48473349Y2149684D01*
X48479674Y2143345D01*
X48479665Y2134390D01*
X48479160Y2133329D01*
X48301681Y1803967D01*
X48300477Y1802158D01*
X48117117Y1575498D01*
X47956578Y1381338D01*
X47956574Y1381331D01*
X47843054Y1139775D01*
X47801205Y780347D01*
X47796845Y772526D01*
X47789584Y770000D01*
X47610416Y770000D01*
X47602143Y773427D01*
X47598795Y780347D01*
X47556944Y1139775D01*
X47556945Y1139775D01*
X47443423Y1381331D01*
X47443422Y1381333D01*
X47443421Y1381334D01*
X47443421Y1381335D01*
X47355268Y1487949D01*
X47282880Y1575498D01*
X47099521Y1802158D01*
X47098317Y1803967D01*
X46920838Y2133331D01*
X46919931Y2142238D01*
X46925589Y2149179D01*
X46926637Y2149678D01*
X47695511Y2469136D01*
X47704465Y2469144D01*
X47704488Y2469135D01*
G37*
%TD.AperFunction*%
%TD*%
%TA.AperFunction,Conductor*%
%TO.N,/GPIO1*%
G36*
X45299407Y-2922300D02*
G01*
X45425174Y-3048068D01*
X45428601Y-3056341D01*
X45425620Y-3064143D01*
X45363003Y-3134116D01*
X45323468Y-3197502D01*
X45323466Y-3197505D01*
X45299600Y-3259637D01*
X45276659Y-3333922D01*
X45276560Y-3334216D01*
X45243897Y-3423019D01*
X45237825Y-3429601D01*
X45228877Y-3429961D01*
X45228479Y-3429806D01*
X45012562Y-3341302D01*
X45006206Y-3334993D01*
X45006173Y-3334913D01*
X45005887Y-3334216D01*
X44917669Y-3118995D01*
X44917702Y-3110042D01*
X44924058Y-3103733D01*
X44924428Y-3103588D01*
X45013262Y-3070911D01*
X45013552Y-3070814D01*
X45087211Y-3048068D01*
X45087842Y-3047873D01*
X45149972Y-3024006D01*
X45213361Y-2984470D01*
X45283335Y-2921852D01*
X45291782Y-2918891D01*
X45299407Y-2922300D01*
G37*
%TD.AperFunction*%
%TD*%
%TA.AperFunction,Conductor*%
%TO.N,/GPIO2*%
G36*
X44186495Y-3054506D02*
G01*
X44189904Y-3062131D01*
X44195104Y-3155883D01*
X44211970Y-3228661D01*
X44239026Y-3289468D01*
X44239029Y-3289473D01*
X44275339Y-3358230D01*
X44275477Y-3358508D01*
X44315170Y-3444392D01*
X44315530Y-3453339D01*
X44309458Y-3459921D01*
X44309066Y-3460093D01*
X44093808Y-3550188D01*
X44084854Y-3550221D01*
X44084774Y-3550188D01*
X43869515Y-3460093D01*
X43863206Y-3453737D01*
X43863239Y-3444783D01*
X43863389Y-3444441D01*
X43903115Y-3358483D01*
X43903241Y-3358230D01*
X43939553Y-3289471D01*
X43966610Y-3228661D01*
X43983477Y-3155883D01*
X43988677Y-3062131D01*
X43992558Y-3054060D01*
X44000360Y-3051079D01*
X44178222Y-3051079D01*
X44186495Y-3054506D01*
G37*
%TD.AperFunction*%
%TD*%
%TA.AperFunction,Conductor*%
%TO.N,/GPIO2*%
G36*
X44385398Y2790865D02*
G01*
X45155511Y2472854D01*
X45161850Y2466529D01*
X45161856Y2466513D01*
X45479953Y1697581D01*
X45479949Y1688626D01*
X45473615Y1682297D01*
X45471675Y1681685D01*
X45107182Y1600856D01*
X45104554Y1600579D01*
X44806280Y1603003D01*
X44753903Y1603428D01*
X44753900Y1603428D01*
X44753899Y1603428D01*
X44462019Y1601236D01*
X44262919Y1501942D01*
X44262919Y1501941D01*
X44191539Y1222307D01*
X44186173Y1215139D01*
X44180203Y1213501D01*
X44001288Y1213501D01*
X43993015Y1216928D01*
X43989588Y1225201D01*
X43989592Y1225495D01*
X43999461Y1618119D01*
X43999502Y1618670D01*
X44035128Y1904468D01*
X44035484Y1906215D01*
X44104379Y2147755D01*
X44104574Y2148322D01*
X44214997Y2420131D01*
X44370169Y2784635D01*
X44376561Y2790903D01*
X44385398Y2790865D01*
G37*
%TD.AperFunction*%
%TD*%
%TA.AperFunction,Conductor*%
%TO.N,/GPIO9{slash}BOOT*%
G36*
X31977469Y-3656762D02*
G01*
X32103236Y-3782529D01*
X32106663Y-3790802D01*
X32103682Y-3798604D01*
X32041065Y-3868577D01*
X32001530Y-3931963D01*
X32001528Y-3931966D01*
X31977662Y-3994099D01*
X31954721Y-4068383D01*
X31954622Y-4068677D01*
X31921959Y-4157481D01*
X31915887Y-4164063D01*
X31906939Y-4164423D01*
X31906541Y-4164268D01*
X31690624Y-4075764D01*
X31684268Y-4069455D01*
X31684235Y-4069375D01*
X31683892Y-4068539D01*
X31595731Y-3853457D01*
X31595764Y-3844504D01*
X31602120Y-3838195D01*
X31602490Y-3838050D01*
X31691324Y-3805373D01*
X31691614Y-3805276D01*
X31765276Y-3782529D01*
X31765904Y-3782335D01*
X31828034Y-3758468D01*
X31891423Y-3718932D01*
X31961397Y-3656314D01*
X31969844Y-3653353D01*
X31977469Y-3656762D01*
G37*
%TD.AperFunction*%
%TD*%
%TA.AperFunction,Conductor*%
%TO.N,/GPIO9{slash}BOOT*%
G36*
X32425241Y-3023924D02*
G01*
X32641175Y-3112435D01*
X32647531Y-3118744D01*
X32647564Y-3118824D01*
X32736068Y-3334741D01*
X32736035Y-3343695D01*
X32729679Y-3350004D01*
X32729281Y-3350159D01*
X32640477Y-3382822D01*
X32640183Y-3382921D01*
X32565899Y-3405862D01*
X32503766Y-3429728D01*
X32503763Y-3429730D01*
X32440377Y-3469265D01*
X32370404Y-3531882D01*
X32361954Y-3534845D01*
X32354329Y-3531436D01*
X32228562Y-3405669D01*
X32225135Y-3397396D01*
X32228114Y-3389597D01*
X32290732Y-3319623D01*
X32330268Y-3256234D01*
X32354135Y-3194104D01*
X32377077Y-3119809D01*
X32377175Y-3119520D01*
X32377431Y-3118824D01*
X32409840Y-3030716D01*
X32415913Y-3024136D01*
X32424860Y-3023776D01*
X32425241Y-3023924D01*
G37*
%TD.AperFunction*%
%TD*%
%TA.AperFunction,Conductor*%
%TO.N,/DTR*%
G36*
X20810241Y-5478924D02*
G01*
X21026175Y-5567435D01*
X21032531Y-5573744D01*
X21032564Y-5573824D01*
X21121068Y-5789741D01*
X21121035Y-5798695D01*
X21114679Y-5805004D01*
X21114281Y-5805159D01*
X21025477Y-5837822D01*
X21025183Y-5837921D01*
X20950899Y-5860862D01*
X20888766Y-5884728D01*
X20888763Y-5884730D01*
X20825377Y-5924265D01*
X20755404Y-5986882D01*
X20746954Y-5989845D01*
X20739329Y-5986436D01*
X20613562Y-5860669D01*
X20610135Y-5852396D01*
X20613114Y-5844597D01*
X20675732Y-5774623D01*
X20715268Y-5711234D01*
X20739135Y-5649104D01*
X20762077Y-5574809D01*
X20762175Y-5574520D01*
X20762431Y-5573824D01*
X20794840Y-5485716D01*
X20800913Y-5479136D01*
X20809860Y-5478776D01*
X20810241Y-5478924D01*
G37*
%TD.AperFunction*%
%TD*%
%TA.AperFunction,Conductor*%
%TO.N,/DTR*%
G36*
X15236295Y-8583948D02*
G01*
X15236635Y-8584097D01*
X15322578Y-8623817D01*
X15322846Y-8623950D01*
X15391607Y-8660262D01*
X15391609Y-8660263D01*
X15452415Y-8687319D01*
X15469282Y-8691227D01*
X15525195Y-8704186D01*
X15618950Y-8709387D01*
X15627019Y-8713266D01*
X15630000Y-8721068D01*
X15630000Y-8898931D01*
X15626573Y-8907204D01*
X15618948Y-8910613D01*
X15525194Y-8915813D01*
X15452415Y-8932679D01*
X15391609Y-8959735D01*
X15391604Y-8959738D01*
X15322853Y-8996044D01*
X15322575Y-8996182D01*
X15236687Y-9035878D01*
X15227739Y-9036238D01*
X15221157Y-9030166D01*
X15220985Y-9029774D01*
X15180347Y-8932680D01*
X15130889Y-8814515D01*
X15130857Y-8805562D01*
X15220986Y-8590222D01*
X15227341Y-8583915D01*
X15236295Y-8583948D01*
G37*
%TD.AperFunction*%
%TD*%
%TA.AperFunction,Conductor*%
%TO.N,/U0RXD*%
G36*
X44044027Y-8974648D02*
G01*
X44044199Y-8975039D01*
X44134294Y-9190297D01*
X44134327Y-9199251D01*
X44134294Y-9199331D01*
X44044199Y-9414590D01*
X44037843Y-9420899D01*
X44028889Y-9420866D01*
X44028525Y-9420706D01*
X43942614Y-9381001D01*
X43942336Y-9380863D01*
X43873579Y-9344553D01*
X43873574Y-9344550D01*
X43812767Y-9317494D01*
X43739989Y-9300628D01*
X43646237Y-9295428D01*
X43638166Y-9291548D01*
X43635185Y-9283746D01*
X43635185Y-9105883D01*
X43638612Y-9097610D01*
X43646234Y-9094202D01*
X43739989Y-9089001D01*
X43812767Y-9072134D01*
X43873577Y-9045077D01*
X43942347Y-9008759D01*
X43942589Y-9008639D01*
X44028500Y-8968934D01*
X44037445Y-8968575D01*
X44044027Y-8974648D01*
G37*
%TD.AperFunction*%
%TD*%
%TA.AperFunction,Conductor*%
%TO.N,/U0RXD*%
G36*
X7842293Y2790334D02*
G01*
X7848618Y2783995D01*
X7849012Y2782888D01*
X7956410Y2424493D01*
X7956837Y2422363D01*
X7987444Y2132539D01*
X7987401Y2132535D01*
X7987458Y2132414D01*
X8011230Y1881624D01*
X8101763Y1630547D01*
X8326327Y1346798D01*
X8328774Y1338184D01*
X8325426Y1331264D01*
X8198736Y1204574D01*
X8190463Y1201147D01*
X8183202Y1203673D01*
X7899453Y1428237D01*
X7648374Y1518770D01*
X7648377Y1518770D01*
X7397542Y1542547D01*
X7107637Y1573163D01*
X7105507Y1573590D01*
X6832248Y1655476D01*
X6747111Y1680989D01*
X6740171Y1686646D01*
X6739263Y1695555D01*
X6739652Y1696649D01*
X7057438Y2466217D01*
X7063759Y2472552D01*
X7833339Y2790343D01*
X7842293Y2790334D01*
G37*
%TD.AperFunction*%
%TD*%
%TA.AperFunction,Conductor*%
%TO.N,/U0RXD*%
G36*
X8777204Y-1003427D02*
G01*
X8780613Y-1011052D01*
X8785813Y-1104804D01*
X8802679Y-1177582D01*
X8829735Y-1238389D01*
X8829738Y-1238394D01*
X8866048Y-1307151D01*
X8866186Y-1307429D01*
X8905879Y-1393313D01*
X8906239Y-1402260D01*
X8900167Y-1408842D01*
X8899775Y-1409014D01*
X8684516Y-1499109D01*
X8675562Y-1499142D01*
X8675482Y-1499109D01*
X8460224Y-1409014D01*
X8453915Y-1402658D01*
X8453948Y-1393704D01*
X8454098Y-1393362D01*
X8493824Y-1307404D01*
X8493950Y-1307151D01*
X8530262Y-1238392D01*
X8557319Y-1177582D01*
X8574186Y-1104804D01*
X8579386Y-1011052D01*
X8583267Y-1002981D01*
X8591069Y-1000000D01*
X8768931Y-1000000D01*
X8777204Y-1003427D01*
G37*
%TD.AperFunction*%
%TD*%
%TA.AperFunction,Conductor*%
%TO.N,/U0RXD*%
G36*
X10884751Y-1598883D02*
G01*
X10889774Y-1600985D01*
X10896083Y-1607341D01*
X10896050Y-1616295D01*
X10895878Y-1616687D01*
X10856182Y-1702575D01*
X10856044Y-1702853D01*
X10819738Y-1771604D01*
X10819735Y-1771609D01*
X10792679Y-1832415D01*
X10775813Y-1905194D01*
X10770613Y-1998948D01*
X10766733Y-2007019D01*
X10758931Y-2010000D01*
X10581069Y-2010000D01*
X10572796Y-2006573D01*
X10569387Y-1998948D01*
X10568872Y-1989677D01*
X10564186Y-1905195D01*
X10547319Y-1832416D01*
X10520262Y-1771607D01*
X10483950Y-1702846D01*
X10483817Y-1702578D01*
X10444119Y-1616684D01*
X10443760Y-1607739D01*
X10449832Y-1601157D01*
X10450183Y-1601002D01*
X10665484Y-1510889D01*
X10674437Y-1510857D01*
X10884751Y-1598883D01*
G37*
%TD.AperFunction*%
%TD*%
%TA.AperFunction,Conductor*%
%TO.N,/U0RXD*%
G36*
X10767204Y-4013427D02*
G01*
X10770613Y-4021052D01*
X10775813Y-4114804D01*
X10792679Y-4187582D01*
X10819735Y-4248389D01*
X10819738Y-4248394D01*
X10856048Y-4317151D01*
X10856186Y-4317429D01*
X10895879Y-4403313D01*
X10896239Y-4412260D01*
X10890167Y-4418842D01*
X10889775Y-4419014D01*
X10674517Y-4509109D01*
X10665563Y-4509142D01*
X10665483Y-4509109D01*
X10450224Y-4419014D01*
X10443915Y-4412658D01*
X10443948Y-4403704D01*
X10444098Y-4403362D01*
X10483824Y-4317404D01*
X10483950Y-4317151D01*
X10520262Y-4248392D01*
X10547319Y-4187582D01*
X10564186Y-4114804D01*
X10569386Y-4021052D01*
X10573267Y-4012981D01*
X10581069Y-4010000D01*
X10758931Y-4010000D01*
X10767204Y-4013427D01*
G37*
%TD.AperFunction*%
%TD*%
%TA.AperFunction,Conductor*%
%TO.N,/U0RXD*%
G36*
X10766251Y95447D02*
G01*
X10766741Y95229D01*
X10852480Y54634D01*
X10852863Y54436D01*
X10920974Y15812D01*
X10920994Y15801D01*
X10921010Y15792D01*
X10921015Y15790D01*
X10921027Y15783D01*
X10952193Y307D01*
X10981088Y-14043D01*
X11020327Y-24460D01*
X11053313Y-33219D01*
X11053314Y-33219D01*
X11053318Y-33220D01*
X11147165Y-39291D01*
X11155199Y-43245D01*
X11158109Y-50967D01*
X11158110Y-228839D01*
X11154683Y-237112D01*
X11146962Y-240526D01*
X11054192Y-244910D01*
X11054184Y-244911D01*
X10981578Y-259591D01*
X10920692Y-283960D01*
X10920679Y-283966D01*
X10852011Y-317902D01*
X10851829Y-317987D01*
X10766637Y-356510D01*
X10757686Y-356796D01*
X10751155Y-350670D01*
X10751023Y-350366D01*
X10737471Y-317987D01*
X10660889Y-135015D01*
X10660857Y-126063D01*
X10750942Y89173D01*
X10757297Y95480D01*
X10766251Y95447D01*
G37*
%TD.AperFunction*%
%TD*%
%TA.AperFunction,Conductor*%
%TO.N,/U0TXD*%
G36*
X44730241Y-9148924D02*
G01*
X44946175Y-9237435D01*
X44952531Y-9243744D01*
X44952564Y-9243824D01*
X45041068Y-9459741D01*
X45041035Y-9468695D01*
X45034679Y-9475004D01*
X45034281Y-9475159D01*
X44945477Y-9507822D01*
X44945183Y-9507921D01*
X44870899Y-9530862D01*
X44808766Y-9554728D01*
X44808763Y-9554730D01*
X44745377Y-9594265D01*
X44675404Y-9656882D01*
X44666954Y-9659845D01*
X44659329Y-9656436D01*
X44533562Y-9530669D01*
X44530135Y-9522396D01*
X44533114Y-9514597D01*
X44595732Y-9444623D01*
X44635268Y-9381234D01*
X44659135Y-9319104D01*
X44682077Y-9244809D01*
X44682175Y-9244520D01*
X44682431Y-9243824D01*
X44714840Y-9155716D01*
X44720913Y-9149136D01*
X44729860Y-9148776D01*
X44730241Y-9148924D01*
G37*
%TD.AperFunction*%
%TD*%
%TA.AperFunction,Conductor*%
%TO.N,/U0TXD*%
G36*
X9604489Y2469135D02*
G01*
X10373375Y2149673D01*
X10379700Y2143334D01*
X10379691Y2134379D01*
X10379198Y2133340D01*
X10203161Y1804951D01*
X10201994Y1803182D01*
X10021166Y1576561D01*
X9863399Y1382107D01*
X9752127Y1140637D01*
X9752127Y1140636D01*
X9711185Y782361D01*
X9706841Y774530D01*
X9699561Y771989D01*
X9520390Y771989D01*
X9512117Y775416D01*
X9508772Y782306D01*
X9465954Y1141959D01*
X9465954Y1141960D01*
X9350408Y1382107D01*
X9350051Y1382849D01*
X9350050Y1382850D01*
X9350050Y1382851D01*
X9272905Y1474049D01*
X9186641Y1576027D01*
X9000786Y1801995D01*
X8999538Y1803849D01*
X8998940Y1804951D01*
X8820886Y2133315D01*
X8819955Y2142221D01*
X8825594Y2149177D01*
X8826674Y2149694D01*
X9595511Y2469136D01*
X9604466Y2469144D01*
X9604489Y2469135D01*
G37*
%TD.AperFunction*%
%TD*%
%TA.AperFunction,Conductor*%
%TO.N,/U0TXD*%
G36*
X10405403Y-5003115D02*
G01*
X10475376Y-5065732D01*
X10504316Y-5083782D01*
X10538758Y-5105265D01*
X10538761Y-5105266D01*
X10538764Y-5105268D01*
X10600895Y-5129135D01*
X10600901Y-5129136D01*
X10600904Y-5129138D01*
X10675183Y-5152076D01*
X10675477Y-5152175D01*
X10713626Y-5166207D01*
X10764281Y-5184840D01*
X10770863Y-5190913D01*
X10771223Y-5199860D01*
X10771068Y-5200258D01*
X10682564Y-5416175D01*
X10676255Y-5422531D01*
X10676175Y-5422564D01*
X10460258Y-5511068D01*
X10451304Y-5511035D01*
X10444995Y-5504679D01*
X10444840Y-5504281D01*
X10412175Y-5415477D01*
X10412076Y-5415183D01*
X10389138Y-5340904D01*
X10389135Y-5340895D01*
X10365268Y-5278764D01*
X10365266Y-5278761D01*
X10365265Y-5278758D01*
X10343782Y-5244316D01*
X10325732Y-5215376D01*
X10263115Y-5145403D01*
X10260153Y-5136955D01*
X10263561Y-5129331D01*
X10389331Y-5003561D01*
X10397603Y-5000135D01*
X10405403Y-5003115D01*
G37*
%TD.AperFunction*%
%TD*%
%TA.AperFunction,Conductor*%
%TO.N,/SPIQ*%
G36*
X36288643Y-14015691D02*
G01*
X36523834Y-14206907D01*
X36523837Y-14206908D01*
X36523836Y-14206908D01*
X36584397Y-14229567D01*
X36735000Y-14285918D01*
X36950431Y-14289089D01*
X37206490Y-14259455D01*
X37206745Y-14259433D01*
X37527630Y-14240721D01*
X37536087Y-14243660D01*
X37539990Y-14251720D01*
X37540010Y-14252391D01*
X37540700Y-15082872D01*
X37537280Y-15091148D01*
X37533466Y-15093696D01*
X36766037Y-15410600D01*
X36757082Y-15410591D01*
X36750757Y-15404252D01*
X36750559Y-15403739D01*
X36635125Y-15082139D01*
X36635002Y-15081751D01*
X36564946Y-14832585D01*
X36564940Y-14832565D01*
X36493083Y-14623381D01*
X36493083Y-14623380D01*
X36368204Y-14410595D01*
X36146292Y-14158694D01*
X36143395Y-14150223D01*
X36146798Y-14142690D01*
X36272992Y-14016496D01*
X36281264Y-14013070D01*
X36288643Y-14015691D01*
G37*
%TD.AperFunction*%
%TD*%
%TA.AperFunction,Conductor*%
%TO.N,/SPIQ*%
G36*
X26425364Y-2822807D02*
G01*
X26426168Y-2824748D01*
X26704612Y-3716031D01*
X26703900Y-3724770D01*
X26667823Y-3796621D01*
X26629612Y-3885627D01*
X26591407Y-3987517D01*
X26591403Y-3987529D01*
X26553224Y-4102245D01*
X26553210Y-4102289D01*
X26553204Y-4102309D01*
X26553197Y-4102334D01*
X26517497Y-4221654D01*
X26511843Y-4228597D01*
X26506288Y-4230000D01*
X26323712Y-4230000D01*
X26315439Y-4226573D01*
X26312503Y-4221654D01*
X26276802Y-4102334D01*
X26276795Y-4102309D01*
X26238591Y-3987518D01*
X26200386Y-3885626D01*
X26162182Y-3796635D01*
X26126098Y-3724769D01*
X26125387Y-3716034D01*
X26403832Y-2824747D01*
X26409570Y-2817873D01*
X26418489Y-2817069D01*
X26425364Y-2822807D01*
G37*
%TD.AperFunction*%
%TD*%
%TA.AperFunction,Conductor*%
%TO.N,/SPID*%
G36*
X33876797Y-13823672D02*
G01*
X34160545Y-14048235D01*
X34286083Y-14093501D01*
X34411621Y-14138768D01*
X34411624Y-14138769D01*
X34662412Y-14162540D01*
X34950449Y-14192958D01*
X34952361Y-14193160D01*
X34954491Y-14193587D01*
X35312888Y-14300988D01*
X35319828Y-14306645D01*
X35320736Y-14315554D01*
X35320342Y-14316661D01*
X35002562Y-15086214D01*
X34996237Y-15092553D01*
X34996214Y-15092562D01*
X34226661Y-15410342D01*
X34217706Y-15410333D01*
X34211381Y-15403994D01*
X34210992Y-15402902D01*
X34103587Y-15044491D01*
X34103160Y-15042361D01*
X34102958Y-15040449D01*
X34072540Y-14752412D01*
X34048769Y-14501624D01*
X33982075Y-14316661D01*
X33958235Y-14250545D01*
X33862413Y-14129469D01*
X33733671Y-13966796D01*
X33731225Y-13958183D01*
X33734572Y-13951264D01*
X33861264Y-13824572D01*
X33869536Y-13821146D01*
X33876797Y-13823672D01*
G37*
%TD.AperFunction*%
%TD*%
%TA.AperFunction,Conductor*%
%TO.N,/SPID*%
G36*
X29278085Y-9543459D02*
G01*
X29278255Y-9543633D01*
X29333000Y-9600882D01*
X29395999Y-9655323D01*
X29459000Y-9698323D01*
X29522000Y-9729882D01*
X29522002Y-9729882D01*
X29522003Y-9729883D01*
X29576859Y-9747401D01*
X29583698Y-9753182D01*
X29585000Y-9758546D01*
X29585000Y-9941453D01*
X29581573Y-9949726D01*
X29576859Y-9952598D01*
X29522003Y-9970115D01*
X29459007Y-10001671D01*
X29459003Y-10001673D01*
X29396002Y-10044674D01*
X29332995Y-10099121D01*
X29278255Y-10156366D01*
X29270061Y-10159977D01*
X29261713Y-10156736D01*
X29261539Y-10156566D01*
X28962311Y-9858285D01*
X28958872Y-9850019D01*
X28962286Y-9841740D01*
X28962312Y-9841714D01*
X29054317Y-9750000D01*
X29261541Y-9543432D01*
X29269818Y-9540019D01*
X29278085Y-9543459D01*
G37*
%TD.AperFunction*%
%TD*%
%TA.AperFunction,Conductor*%
%TO.N,/SPICLK*%
G36*
X31336797Y-13823672D02*
G01*
X31620545Y-14048235D01*
X31746084Y-14093501D01*
X31871621Y-14138768D01*
X31871624Y-14138769D01*
X32122412Y-14162540D01*
X32410449Y-14192958D01*
X32412361Y-14193160D01*
X32414491Y-14193587D01*
X32772888Y-14300988D01*
X32779828Y-14306645D01*
X32780736Y-14315554D01*
X32780342Y-14316661D01*
X32462562Y-15086214D01*
X32456237Y-15092553D01*
X32456214Y-15092562D01*
X31686661Y-15410342D01*
X31677706Y-15410333D01*
X31671381Y-15403994D01*
X31670992Y-15402902D01*
X31563587Y-15044491D01*
X31563160Y-15042361D01*
X31562958Y-15040449D01*
X31532540Y-14752412D01*
X31508769Y-14501624D01*
X31442075Y-14316661D01*
X31418235Y-14250545D01*
X31322413Y-14129469D01*
X31193671Y-13966796D01*
X31191225Y-13958183D01*
X31194572Y-13951264D01*
X31321264Y-13824572D01*
X31329536Y-13821146D01*
X31336797Y-13823672D01*
G37*
%TD.AperFunction*%
%TD*%
%TA.AperFunction,Conductor*%
%TO.N,/SPICLK*%
G36*
X27695364Y-9882807D02*
G01*
X27696168Y-9884748D01*
X27974612Y-10776031D01*
X27973900Y-10784770D01*
X27937823Y-10856621D01*
X27899612Y-10945627D01*
X27861407Y-11047517D01*
X27861403Y-11047529D01*
X27823224Y-11162245D01*
X27823210Y-11162289D01*
X27823204Y-11162309D01*
X27823197Y-11162334D01*
X27787497Y-11281654D01*
X27781843Y-11288597D01*
X27776288Y-11290000D01*
X27593712Y-11290000D01*
X27585439Y-11286573D01*
X27582503Y-11281654D01*
X27546802Y-11162334D01*
X27546795Y-11162309D01*
X27508591Y-11047518D01*
X27470386Y-10945626D01*
X27432182Y-10856635D01*
X27396098Y-10784769D01*
X27395387Y-10776034D01*
X27673832Y-9884747D01*
X27679570Y-9877873D01*
X27688489Y-9877069D01*
X27695364Y-9882807D01*
G37*
%TD.AperFunction*%
%TD*%
%TA.AperFunction,Conductor*%
%TO.N,/SPICS0*%
G36*
X25155364Y-2822807D02*
G01*
X25156168Y-2824748D01*
X25434612Y-3716031D01*
X25433900Y-3724770D01*
X25397823Y-3796621D01*
X25359612Y-3885627D01*
X25321407Y-3987517D01*
X25321403Y-3987529D01*
X25283224Y-4102245D01*
X25283210Y-4102289D01*
X25283204Y-4102309D01*
X25283197Y-4102334D01*
X25247497Y-4221654D01*
X25241843Y-4228597D01*
X25236288Y-4230000D01*
X25053712Y-4230000D01*
X25045439Y-4226573D01*
X25042503Y-4221654D01*
X25006802Y-4102334D01*
X25006795Y-4102309D01*
X24968591Y-3987518D01*
X24930386Y-3885626D01*
X24892182Y-3796635D01*
X24856098Y-3724769D01*
X24855387Y-3716034D01*
X25133832Y-2824747D01*
X25139570Y-2817873D01*
X25148489Y-2817069D01*
X25155364Y-2822807D01*
G37*
%TD.AperFunction*%
%TD*%
%TA.AperFunction,Conductor*%
%TO.N,/SPICS0*%
G36*
X28796797Y-13823672D02*
G01*
X29080545Y-14048235D01*
X29206083Y-14093501D01*
X29331621Y-14138768D01*
X29331624Y-14138769D01*
X29582412Y-14162540D01*
X29870449Y-14192958D01*
X29872361Y-14193160D01*
X29874491Y-14193587D01*
X30232888Y-14300988D01*
X30239828Y-14306645D01*
X30240736Y-14315554D01*
X30240342Y-14316661D01*
X29922562Y-15086214D01*
X29916237Y-15092553D01*
X29916214Y-15092562D01*
X29146661Y-15410342D01*
X29137706Y-15410333D01*
X29131381Y-15403994D01*
X29130992Y-15402902D01*
X29023587Y-15044491D01*
X29023160Y-15042361D01*
X29022958Y-15040449D01*
X28992540Y-14752412D01*
X28968769Y-14501624D01*
X28902075Y-14316661D01*
X28878235Y-14250545D01*
X28782413Y-14129469D01*
X28653671Y-13966796D01*
X28651225Y-13958183D01*
X28654572Y-13951264D01*
X28781264Y-13824572D01*
X28789536Y-13821146D01*
X28796797Y-13823672D01*
G37*
%TD.AperFunction*%
%TD*%
%TA.AperFunction,Conductor*%
%TO.N,Net-(USB1-CC1)*%
G36*
X13976295Y-10713948D02*
G01*
X13976635Y-10714097D01*
X14062578Y-10753817D01*
X14062846Y-10753950D01*
X14131607Y-10790262D01*
X14131609Y-10790263D01*
X14192415Y-10817319D01*
X14209281Y-10821227D01*
X14265195Y-10834186D01*
X14358950Y-10839387D01*
X14367019Y-10843266D01*
X14370000Y-10851068D01*
X14370000Y-11028931D01*
X14366573Y-11037204D01*
X14358948Y-11040613D01*
X14265194Y-11045813D01*
X14192415Y-11062679D01*
X14131609Y-11089735D01*
X14131604Y-11089738D01*
X14062853Y-11126044D01*
X14062575Y-11126182D01*
X13976687Y-11165878D01*
X13967739Y-11166238D01*
X13961157Y-11160166D01*
X13960985Y-11159774D01*
X13946900Y-11126121D01*
X13870889Y-10944515D01*
X13870857Y-10935563D01*
X13960986Y-10720222D01*
X13967341Y-10713915D01*
X13976295Y-10713948D01*
G37*
%TD.AperFunction*%
%TD*%
%TA.AperFunction,Conductor*%
%TO.N,Net-(USB1-CC1)*%
G36*
X17210241Y-9958924D02*
G01*
X17426175Y-10047435D01*
X17432531Y-10053744D01*
X17432564Y-10053824D01*
X17521068Y-10269741D01*
X17521035Y-10278695D01*
X17514679Y-10285004D01*
X17514281Y-10285159D01*
X17425477Y-10317822D01*
X17425183Y-10317921D01*
X17350899Y-10340862D01*
X17288766Y-10364728D01*
X17288763Y-10364730D01*
X17225377Y-10404265D01*
X17155404Y-10466882D01*
X17146954Y-10469845D01*
X17139329Y-10466436D01*
X17013562Y-10340669D01*
X17010135Y-10332396D01*
X17013114Y-10324597D01*
X17075732Y-10254623D01*
X17115268Y-10191234D01*
X17139135Y-10129104D01*
X17162077Y-10054809D01*
X17162175Y-10054520D01*
X17162431Y-10053824D01*
X17194840Y-9965716D01*
X17200913Y-9959136D01*
X17209860Y-9958776D01*
X17210241Y-9958924D01*
G37*
%TD.AperFunction*%
%TD*%
%TA.AperFunction,Conductor*%
%TO.N,Net-(VT2-B)*%
G36*
X20800241Y-1608924D02*
G01*
X21016175Y-1697435D01*
X21022531Y-1703744D01*
X21022564Y-1703824D01*
X21111068Y-1919741D01*
X21111035Y-1928695D01*
X21104679Y-1935004D01*
X21104281Y-1935159D01*
X21015477Y-1967822D01*
X21015183Y-1967921D01*
X20940899Y-1990862D01*
X20878766Y-2014728D01*
X20878763Y-2014730D01*
X20815377Y-2054265D01*
X20745404Y-2116882D01*
X20736954Y-2119845D01*
X20729329Y-2116436D01*
X20603562Y-1990669D01*
X20600135Y-1982396D01*
X20603114Y-1974597D01*
X20665732Y-1904623D01*
X20705268Y-1841234D01*
X20729135Y-1779104D01*
X20752077Y-1704809D01*
X20752175Y-1704520D01*
X20752431Y-1703824D01*
X20784840Y-1615716D01*
X20790913Y-1609136D01*
X20799860Y-1608776D01*
X20800241Y-1608924D01*
G37*
%TD.AperFunction*%
%TD*%
%TA.AperFunction,Conductor*%
%TO.N,Net-(VT2-B)*%
G36*
X19500669Y-5173562D02*
G01*
X19626436Y-5299329D01*
X19629863Y-5307602D01*
X19626882Y-5315404D01*
X19564265Y-5385377D01*
X19524730Y-5448763D01*
X19524728Y-5448766D01*
X19500862Y-5510899D01*
X19477921Y-5585183D01*
X19477822Y-5585477D01*
X19445159Y-5674281D01*
X19439087Y-5680863D01*
X19430139Y-5681223D01*
X19429741Y-5681068D01*
X19213824Y-5592564D01*
X19207468Y-5586255D01*
X19207435Y-5586175D01*
X19207092Y-5585339D01*
X19118931Y-5370257D01*
X19118964Y-5361304D01*
X19125320Y-5354995D01*
X19125690Y-5354850D01*
X19214524Y-5322173D01*
X19214814Y-5322076D01*
X19288476Y-5299329D01*
X19289104Y-5299135D01*
X19351234Y-5275268D01*
X19414623Y-5235732D01*
X19484597Y-5173114D01*
X19493044Y-5170153D01*
X19500669Y-5173562D01*
G37*
%TD.AperFunction*%
%TD*%
%TA.AperFunction,Conductor*%
%TO.N,Net-(USB1-CC2)*%
G36*
X17990241Y-7238924D02*
G01*
X18206175Y-7327435D01*
X18212531Y-7333744D01*
X18212564Y-7333824D01*
X18301068Y-7549741D01*
X18301035Y-7558695D01*
X18294679Y-7565004D01*
X18294281Y-7565159D01*
X18205477Y-7597822D01*
X18205183Y-7597921D01*
X18130899Y-7620862D01*
X18068766Y-7644728D01*
X18068763Y-7644730D01*
X18005377Y-7684265D01*
X17935404Y-7746882D01*
X17926954Y-7749845D01*
X17919329Y-7746436D01*
X17793562Y-7620669D01*
X17790135Y-7612396D01*
X17793114Y-7604597D01*
X17855732Y-7534623D01*
X17895268Y-7471234D01*
X17919135Y-7409104D01*
X17942077Y-7334809D01*
X17942175Y-7334520D01*
X17942431Y-7333824D01*
X17974840Y-7245716D01*
X17980913Y-7239136D01*
X17989860Y-7238776D01*
X17990241Y-7238924D01*
G37*
%TD.AperFunction*%
%TD*%
%TA.AperFunction,Conductor*%
%TO.N,Net-(USB1-CC2)*%
G36*
X12656295Y-7863948D02*
G01*
X12656635Y-7864097D01*
X12742578Y-7903817D01*
X12742846Y-7903950D01*
X12811607Y-7940262D01*
X12811609Y-7940263D01*
X12872415Y-7967319D01*
X12889281Y-7971227D01*
X12945195Y-7984186D01*
X13038950Y-7989387D01*
X13047019Y-7993266D01*
X13050000Y-8001068D01*
X13050000Y-8178931D01*
X13046573Y-8187204D01*
X13038948Y-8190613D01*
X12945194Y-8195813D01*
X12872415Y-8212679D01*
X12811609Y-8239735D01*
X12811604Y-8239738D01*
X12742853Y-8276044D01*
X12742575Y-8276182D01*
X12656687Y-8315878D01*
X12647739Y-8316238D01*
X12641157Y-8310166D01*
X12640985Y-8309774D01*
X12600347Y-8212680D01*
X12550889Y-8094515D01*
X12550857Y-8085562D01*
X12640986Y-7870222D01*
X12647341Y-7863915D01*
X12656295Y-7863948D01*
G37*
%TD.AperFunction*%
%TD*%
M02*
