%TF.GenerationSoftware,KiCad,Pcbnew,7.0.1*%
%TF.CreationDate,2023-03-19T18:10:57+08:00*%
%TF.ProjectId,UINIO-MCU-ESP32C3,55494e49-4f2d-44d4-9355-2d4553503332,Version 3.5.0*%
%TF.SameCoordinates,PX735b400PY5c274f0*%
%TF.FileFunction,Legend,Bot*%
%TF.FilePolarity,Positive*%
%FSLAX46Y46*%
G04 Gerber Fmt 4.6, Leading zero omitted, Abs format (unit mm)*
G04 Created by KiCad (PCBNEW 7.0.1) date 2023-03-19 18:10:57*
%MOMM*%
%LPD*%
G01*
G04 APERTURE LIST*
G04 Aperture macros list*
%AMRoundRect*
0 Rectangle with rounded corners*
0 $1 Rounding radius*
0 $2 $3 $4 $5 $6 $7 $8 $9 X,Y pos of 4 corners*
0 Add a 4 corners polygon primitive as box body*
4,1,4,$2,$3,$4,$5,$6,$7,$8,$9,$2,$3,0*
0 Add four circle primitives for the rounded corners*
1,1,$1+$1,$2,$3*
1,1,$1+$1,$4,$5*
1,1,$1+$1,$6,$7*
1,1,$1+$1,$8,$9*
0 Add four rect primitives between the rounded corners*
20,1,$1+$1,$2,$3,$4,$5,0*
20,1,$1+$1,$4,$5,$6,$7,0*
20,1,$1+$1,$6,$7,$8,$9,0*
20,1,$1+$1,$8,$9,$2,$3,0*%
G04 Aperture macros list end*
%ADD10C,0.160000*%
%ADD11C,0.180000*%
%ADD12C,0.300000*%
%ADD13C,0.100000*%
%ADD14C,0.120000*%
%ADD15C,0.152000*%
%ADD16C,1.200000*%
%ADD17C,0.610000*%
%ADD18R,1.700000X1.700000*%
%ADD19O,1.700000X1.700000*%
%ADD20C,0.650000*%
%ADD21O,2.100000X1.000000*%
%ADD22O,1.900000X1.000000*%
%ADD23O,0.630000X2.250000*%
%ADD24RoundRect,0.140000X0.170000X-0.140000X0.170000X0.140000X-0.170000X0.140000X-0.170000X-0.140000X0*%
G04 APERTURE END LIST*
D10*
G36*
X2452000Y-3121905D02*
G01*
X2452000Y-3320230D01*
X1626654Y-3573461D01*
X1626654Y-3405422D01*
X2028775Y-3297760D01*
X2037252Y-3295382D01*
X2045683Y-3293045D01*
X2054073Y-3290748D01*
X2062425Y-3288486D01*
X2070741Y-3286256D01*
X2079026Y-3284056D01*
X2087283Y-3281882D01*
X2095515Y-3279731D01*
X2103725Y-3277601D01*
X2111916Y-3275488D01*
X2120093Y-3273390D01*
X2128257Y-3271302D01*
X2136413Y-3269223D01*
X2144564Y-3267149D01*
X2152712Y-3265077D01*
X2160862Y-3263004D01*
X2169016Y-3260927D01*
X2177179Y-3258843D01*
X2185352Y-3256748D01*
X2193540Y-3254641D01*
X2201746Y-3252518D01*
X2209973Y-3250375D01*
X2218224Y-3248210D01*
X2226502Y-3246020D01*
X2234812Y-3243801D01*
X2243156Y-3241551D01*
X2251537Y-3239267D01*
X2259959Y-3236945D01*
X2268425Y-3234583D01*
X2276939Y-3232177D01*
X2285503Y-3229724D01*
X2294121Y-3227222D01*
X2294121Y-3221751D01*
X2285503Y-3219356D01*
X2276939Y-3217003D01*
X2268425Y-3214690D01*
X2259958Y-3212415D01*
X2251535Y-3210174D01*
X2243153Y-3207964D01*
X2234808Y-3205783D01*
X2226496Y-3203628D01*
X2218215Y-3201496D01*
X2209961Y-3199384D01*
X2201730Y-3197289D01*
X2193520Y-3195208D01*
X2185326Y-3193139D01*
X2177146Y-3191078D01*
X2168976Y-3189023D01*
X2160813Y-3186971D01*
X2152654Y-3184919D01*
X2144494Y-3182864D01*
X2136331Y-3180803D01*
X2128162Y-3178734D01*
X2119982Y-3176653D01*
X2111789Y-3174558D01*
X2103580Y-3172446D01*
X2095350Y-3170314D01*
X2087097Y-3168158D01*
X2078817Y-3165978D01*
X2070507Y-3163768D01*
X2062163Y-3161527D01*
X2053782Y-3159252D01*
X2045361Y-3156939D01*
X2036896Y-3154586D01*
X2028385Y-3152191D01*
X1626654Y-3042379D01*
X1626654Y-2868869D01*
X2452000Y-3121905D01*
G37*
G36*
X2159424Y-3593202D02*
G01*
X2177635Y-3594382D01*
X2195363Y-3596326D01*
X2212599Y-3599017D01*
X2229336Y-3602437D01*
X2245567Y-3606568D01*
X2261283Y-3611393D01*
X2276477Y-3616893D01*
X2291142Y-3623051D01*
X2305269Y-3629849D01*
X2318850Y-3637269D01*
X2331879Y-3645293D01*
X2344347Y-3653904D01*
X2356247Y-3663084D01*
X2367571Y-3672814D01*
X2378311Y-3683077D01*
X2388460Y-3693855D01*
X2398010Y-3705131D01*
X2406954Y-3716887D01*
X2415283Y-3729104D01*
X2422989Y-3741765D01*
X2430066Y-3754852D01*
X2436506Y-3768348D01*
X2442300Y-3782234D01*
X2447441Y-3796492D01*
X2451922Y-3811106D01*
X2455735Y-3826056D01*
X2458872Y-3841326D01*
X2461325Y-3856897D01*
X2463086Y-3872752D01*
X2464149Y-3888872D01*
X2464505Y-3905240D01*
X2464194Y-3919769D01*
X2463271Y-3934318D01*
X2461754Y-3948858D01*
X2459657Y-3963361D01*
X2456996Y-3977796D01*
X2453789Y-3992134D01*
X2450050Y-4006345D01*
X2445796Y-4020401D01*
X2441043Y-4034271D01*
X2435806Y-4047926D01*
X2430103Y-4061336D01*
X2423948Y-4074473D01*
X2417359Y-4087306D01*
X2410350Y-4099807D01*
X2402938Y-4111945D01*
X2395140Y-4123691D01*
X2295879Y-4067613D01*
X2300797Y-4059222D01*
X2305435Y-4050820D01*
X2309787Y-4042399D01*
X2313850Y-4033947D01*
X2317617Y-4025456D01*
X2321083Y-4016914D01*
X2324244Y-4008312D01*
X2327094Y-3999640D01*
X2329628Y-3990888D01*
X2331840Y-3982046D01*
X2333727Y-3973104D01*
X2335282Y-3964051D01*
X2336500Y-3954878D01*
X2337377Y-3945575D01*
X2337907Y-3936132D01*
X2338085Y-3926538D01*
X2337933Y-3917895D01*
X2337477Y-3909408D01*
X2336718Y-3901083D01*
X2335657Y-3892924D01*
X2334295Y-3884937D01*
X2332633Y-3877126D01*
X2330670Y-3869497D01*
X2325851Y-3854805D01*
X2319842Y-3840902D01*
X2312652Y-3827829D01*
X2304287Y-3815626D01*
X2294752Y-3804334D01*
X2284056Y-3793995D01*
X2272204Y-3784649D01*
X2259202Y-3776338D01*
X2252273Y-3772583D01*
X2245059Y-3769102D01*
X2237561Y-3765900D01*
X2229779Y-3762982D01*
X2221716Y-3760353D01*
X2213370Y-3758018D01*
X2204744Y-3755984D01*
X2195839Y-3754253D01*
X2186654Y-3752833D01*
X2186654Y-4139323D01*
X2178773Y-4141335D01*
X2171024Y-4142789D01*
X2162178Y-4144075D01*
X2152407Y-4145170D01*
X2144574Y-4145850D01*
X2136389Y-4146398D01*
X2127925Y-4146802D01*
X2119255Y-4147053D01*
X2110450Y-4147138D01*
X2094679Y-4146876D01*
X2079174Y-4146091D01*
X2063952Y-4144784D01*
X2049028Y-4142956D01*
X2034417Y-4140609D01*
X2020134Y-4137742D01*
X2006195Y-4134359D01*
X1992615Y-4130460D01*
X1979410Y-4126045D01*
X1966594Y-4121117D01*
X1954183Y-4115677D01*
X1942193Y-4109725D01*
X1930638Y-4103262D01*
X1919534Y-4096291D01*
X1908897Y-4088812D01*
X1898741Y-4080826D01*
X1889081Y-4072335D01*
X1879934Y-4063340D01*
X1871315Y-4053841D01*
X1863238Y-4043841D01*
X1855720Y-4033340D01*
X1848775Y-4022339D01*
X1842419Y-4010840D01*
X1836666Y-3998843D01*
X1831533Y-3986351D01*
X1827035Y-3973364D01*
X1823187Y-3959883D01*
X1820004Y-3945909D01*
X1817502Y-3931445D01*
X1815696Y-3916490D01*
X1814601Y-3901046D01*
X1814283Y-3887264D01*
X1942020Y-3887264D01*
X1942631Y-3901897D01*
X1944440Y-3915538D01*
X1947413Y-3928194D01*
X1951518Y-3939871D01*
X1956722Y-3950576D01*
X1962989Y-3960316D01*
X1970288Y-3969097D01*
X1978584Y-3976926D01*
X1987844Y-3983809D01*
X1998034Y-3989753D01*
X2009122Y-3994764D01*
X2021073Y-3998849D01*
X2033854Y-4002016D01*
X2047431Y-4004269D01*
X2061772Y-4005616D01*
X2076842Y-4006064D01*
X2076842Y-3750683D01*
X2068651Y-3751971D01*
X2060710Y-3753520D01*
X2053019Y-3755325D01*
X2038393Y-3759671D01*
X2024779Y-3764955D01*
X2012181Y-3771119D01*
X2000604Y-3778108D01*
X1990054Y-3785866D01*
X1980536Y-3794338D01*
X1972055Y-3803467D01*
X1964616Y-3813198D01*
X1958224Y-3823475D01*
X1952885Y-3834242D01*
X1948603Y-3845444D01*
X1945384Y-3857024D01*
X1943233Y-3868927D01*
X1942155Y-3881097D01*
X1942020Y-3887264D01*
X1814283Y-3887264D01*
X1814233Y-3885115D01*
X1814602Y-3871159D01*
X1815703Y-3857263D01*
X1817527Y-3843452D01*
X1820063Y-3829751D01*
X1823303Y-3816184D01*
X1827235Y-3802778D01*
X1831850Y-3789556D01*
X1837140Y-3776546D01*
X1843092Y-3763771D01*
X1849699Y-3751256D01*
X1856950Y-3739027D01*
X1864835Y-3727110D01*
X1873346Y-3715528D01*
X1882471Y-3704308D01*
X1892201Y-3693475D01*
X1902526Y-3683053D01*
X1913438Y-3673067D01*
X1924925Y-3663544D01*
X1936978Y-3654508D01*
X1949587Y-3645984D01*
X1962743Y-3637997D01*
X1976436Y-3630573D01*
X1990655Y-3623737D01*
X2005392Y-3617513D01*
X2020637Y-3611927D01*
X2036379Y-3607005D01*
X2052609Y-3602771D01*
X2069317Y-3599250D01*
X2086494Y-3596468D01*
X2104129Y-3594450D01*
X2122213Y-3593220D01*
X2140736Y-3592805D01*
X2159424Y-3593202D01*
G37*
G36*
X2452000Y-4282156D02*
G01*
X2452000Y-4446873D01*
X2080555Y-4446873D01*
X2072422Y-4450205D01*
X2064614Y-4453675D01*
X2057129Y-4457276D01*
X2049962Y-4461002D01*
X2043107Y-4464847D01*
X2030319Y-4472868D01*
X2018729Y-4481288D01*
X2008301Y-4490055D01*
X1999000Y-4499119D01*
X1990790Y-4508429D01*
X1983636Y-4517934D01*
X1977500Y-4527583D01*
X1972348Y-4537325D01*
X1968144Y-4547110D01*
X1964853Y-4556885D01*
X1962437Y-4566600D01*
X1960862Y-4576205D01*
X1960091Y-4585648D01*
X1959997Y-4590293D01*
X1960152Y-4599614D01*
X1960620Y-4608333D01*
X1961398Y-4616599D01*
X1962488Y-4624560D01*
X1963889Y-4632365D01*
X1965602Y-4640164D01*
X1967626Y-4648105D01*
X1969962Y-4656336D01*
X1826738Y-4684277D01*
X1823635Y-4675256D01*
X1821346Y-4667707D01*
X1819285Y-4659694D01*
X1817505Y-4651057D01*
X1816059Y-4641638D01*
X1814999Y-4631280D01*
X1814489Y-4622800D01*
X1814249Y-4613636D01*
X1814233Y-4610418D01*
X1814757Y-4598201D01*
X1816323Y-4585972D01*
X1818918Y-4573764D01*
X1822531Y-4561612D01*
X1827148Y-4549550D01*
X1832759Y-4537610D01*
X1839351Y-4525828D01*
X1846912Y-4514235D01*
X1855431Y-4502868D01*
X1864894Y-4491758D01*
X1875290Y-4480941D01*
X1886608Y-4470449D01*
X1892608Y-4465336D01*
X1898834Y-4460316D01*
X1905285Y-4455396D01*
X1911958Y-4450577D01*
X1918852Y-4445866D01*
X1925967Y-4441265D01*
X1933299Y-4436780D01*
X1940848Y-4432414D01*
X1940848Y-4428897D01*
X1826738Y-4416587D01*
X1826738Y-4282156D01*
X2452000Y-4282156D01*
G37*
G36*
X2464505Y-4940635D02*
G01*
X2464248Y-4955723D01*
X2463486Y-4970358D01*
X2462232Y-4984539D01*
X2460498Y-4998264D01*
X2458297Y-5011530D01*
X2455641Y-5024337D01*
X2452542Y-5036683D01*
X2449014Y-5048566D01*
X2445068Y-5059983D01*
X2440717Y-5070934D01*
X2435974Y-5081417D01*
X2430852Y-5091430D01*
X2425362Y-5100971D01*
X2419518Y-5110039D01*
X2413331Y-5118632D01*
X2406815Y-5126748D01*
X2399981Y-5134385D01*
X2392843Y-5141542D01*
X2385413Y-5148217D01*
X2377703Y-5154408D01*
X2369726Y-5160114D01*
X2361495Y-5165333D01*
X2353022Y-5170062D01*
X2344319Y-5174302D01*
X2335399Y-5178049D01*
X2326275Y-5181302D01*
X2316959Y-5184059D01*
X2307463Y-5186318D01*
X2297801Y-5188079D01*
X2287984Y-5189339D01*
X2278026Y-5190096D01*
X2267938Y-5190348D01*
X2257454Y-5190083D01*
X2247388Y-5189297D01*
X2237729Y-5188010D01*
X2228467Y-5186241D01*
X2219588Y-5184007D01*
X2211081Y-5181327D01*
X2202935Y-5178220D01*
X2195138Y-5174705D01*
X2187679Y-5170799D01*
X2180546Y-5166520D01*
X2173726Y-5161889D01*
X2167210Y-5156922D01*
X2160984Y-5151639D01*
X2155037Y-5146058D01*
X2149359Y-5140197D01*
X2143936Y-5134075D01*
X2138758Y-5127710D01*
X2133812Y-5121121D01*
X2129088Y-5114326D01*
X2124573Y-5107344D01*
X2120256Y-5100193D01*
X2116126Y-5092892D01*
X2112170Y-5085458D01*
X2108377Y-5077911D01*
X2104736Y-5070269D01*
X2101234Y-5062551D01*
X2097861Y-5054774D01*
X2094604Y-5046958D01*
X2091452Y-5039121D01*
X2088393Y-5031281D01*
X2085416Y-5023456D01*
X2082509Y-5015666D01*
X2078049Y-5003352D01*
X2073718Y-4991300D01*
X2069464Y-4979583D01*
X2065232Y-4968274D01*
X2060969Y-4957447D01*
X2056622Y-4947175D01*
X2052137Y-4937533D01*
X2047460Y-4928593D01*
X2042538Y-4920430D01*
X2037318Y-4913116D01*
X2031746Y-4906726D01*
X2025768Y-4901333D01*
X2015924Y-4895273D01*
X2004866Y-4891870D01*
X1996731Y-4891200D01*
X1987188Y-4891913D01*
X1978279Y-4894064D01*
X1970070Y-4897668D01*
X1962628Y-4902740D01*
X1956019Y-4909296D01*
X1950310Y-4917351D01*
X1945568Y-4926921D01*
X1941859Y-4938021D01*
X1939993Y-4946279D01*
X1938636Y-4955228D01*
X1937807Y-4964873D01*
X1937526Y-4975219D01*
X1937769Y-4983805D01*
X1938487Y-4992344D01*
X1939666Y-5000842D01*
X1941291Y-5009303D01*
X1943347Y-5017733D01*
X1945821Y-5026135D01*
X1948697Y-5034514D01*
X1951961Y-5042875D01*
X1955598Y-5051222D01*
X1959594Y-5059559D01*
X1963934Y-5067893D01*
X1968603Y-5076226D01*
X1973587Y-5084564D01*
X1978872Y-5092911D01*
X1984442Y-5101272D01*
X1990283Y-5109651D01*
X1891609Y-5183510D01*
X1884268Y-5173650D01*
X1877008Y-5163339D01*
X1869884Y-5152576D01*
X1862950Y-5141359D01*
X1856260Y-5129687D01*
X1849867Y-5117557D01*
X1843827Y-5104968D01*
X1838193Y-5091919D01*
X1833019Y-5078406D01*
X1828359Y-5064430D01*
X1824268Y-5049987D01*
X1820800Y-5035077D01*
X1818008Y-5019698D01*
X1816882Y-5011831D01*
X1815946Y-5003847D01*
X1815207Y-4995744D01*
X1814670Y-4987523D01*
X1814343Y-4979184D01*
X1814233Y-4970725D01*
X1814465Y-4957453D01*
X1815155Y-4944494D01*
X1816294Y-4931856D01*
X1817874Y-4919546D01*
X1819885Y-4907571D01*
X1822319Y-4895938D01*
X1825166Y-4884655D01*
X1828417Y-4873727D01*
X1832064Y-4863163D01*
X1836098Y-4852969D01*
X1840509Y-4843152D01*
X1845289Y-4833720D01*
X1850429Y-4824679D01*
X1855919Y-4816037D01*
X1861752Y-4807800D01*
X1867917Y-4799975D01*
X1874407Y-4792570D01*
X1881211Y-4785592D01*
X1888322Y-4779048D01*
X1895730Y-4772944D01*
X1903426Y-4767288D01*
X1911401Y-4762087D01*
X1919647Y-4757348D01*
X1928154Y-4753077D01*
X1936913Y-4749283D01*
X1945916Y-4745972D01*
X1955154Y-4743151D01*
X1964617Y-4740827D01*
X1974297Y-4739007D01*
X1984184Y-4737698D01*
X1994270Y-4736908D01*
X2004547Y-4736643D01*
X2014056Y-4736899D01*
X2023243Y-4737656D01*
X2032116Y-4738896D01*
X2040682Y-4740602D01*
X2048947Y-4742754D01*
X2056919Y-4745336D01*
X2064605Y-4748329D01*
X2072013Y-4751716D01*
X2079148Y-4755479D01*
X2086018Y-4759599D01*
X2092631Y-4764060D01*
X2098993Y-4768843D01*
X2105111Y-4773930D01*
X2110993Y-4779304D01*
X2116646Y-4784947D01*
X2122076Y-4790840D01*
X2127291Y-4796967D01*
X2132298Y-4803309D01*
X2137104Y-4809847D01*
X2141716Y-4816566D01*
X2146141Y-4823446D01*
X2150386Y-4830469D01*
X2154458Y-4837619D01*
X2158365Y-4844876D01*
X2162113Y-4852224D01*
X2165709Y-4859644D01*
X2169162Y-4867118D01*
X2172477Y-4874629D01*
X2175661Y-4882159D01*
X2178723Y-4889689D01*
X2181668Y-4897203D01*
X2184505Y-4904682D01*
X2189188Y-4917038D01*
X2193813Y-4929277D01*
X2198424Y-4941306D01*
X2203064Y-4953030D01*
X2207776Y-4964356D01*
X2212604Y-4975189D01*
X2217590Y-4985436D01*
X2222778Y-4995003D01*
X2228210Y-5003796D01*
X2233931Y-5011721D01*
X2239984Y-5018685D01*
X2246411Y-5024593D01*
X2253256Y-5029352D01*
X2260562Y-5032867D01*
X2268373Y-5035045D01*
X2276731Y-5035792D01*
X2287176Y-5035044D01*
X2296921Y-5032782D01*
X2305894Y-5028971D01*
X2314024Y-5023581D01*
X2321240Y-5016580D01*
X2327470Y-5007936D01*
X2332643Y-4997617D01*
X2335468Y-4989791D01*
X2337771Y-4981197D01*
X2339529Y-4971826D01*
X2340723Y-4961667D01*
X2341330Y-4950712D01*
X2341406Y-4944933D01*
X2341124Y-4934067D01*
X2340282Y-4923296D01*
X2338888Y-4912610D01*
X2336952Y-4902001D01*
X2334481Y-4891459D01*
X2331484Y-4880973D01*
X2327968Y-4870534D01*
X2323943Y-4860132D01*
X2319416Y-4849758D01*
X2314397Y-4839401D01*
X2308892Y-4829053D01*
X2302911Y-4818702D01*
X2296461Y-4808341D01*
X2289552Y-4797958D01*
X2282191Y-4787544D01*
X2274386Y-4777090D01*
X2376187Y-4702058D01*
X2385647Y-4714151D01*
X2394736Y-4726871D01*
X2399130Y-4733450D01*
X2403420Y-4740166D01*
X2407599Y-4747012D01*
X2411666Y-4753981D01*
X2415615Y-4761067D01*
X2419442Y-4768262D01*
X2423143Y-4775560D01*
X2426714Y-4782955D01*
X2430151Y-4790439D01*
X2433450Y-4798005D01*
X2436606Y-4805648D01*
X2439616Y-4813360D01*
X2442476Y-4821134D01*
X2445181Y-4828963D01*
X2447727Y-4836842D01*
X2450110Y-4844763D01*
X2452326Y-4852719D01*
X2454371Y-4860703D01*
X2456241Y-4868710D01*
X2457932Y-4876732D01*
X2459439Y-4884761D01*
X2460758Y-4892793D01*
X2461886Y-4900819D01*
X2462818Y-4908833D01*
X2463550Y-4916828D01*
X2464077Y-4924798D01*
X2464397Y-4932736D01*
X2464505Y-4940635D01*
G37*
G36*
X2452000Y-5315401D02*
G01*
X2452000Y-5480118D01*
X1826738Y-5480118D01*
X1826738Y-5315401D01*
X2452000Y-5315401D01*
G37*
G36*
X1726696Y-5398443D02*
G01*
X1726281Y-5408721D01*
X1725052Y-5418577D01*
X1723034Y-5427976D01*
X1720251Y-5436887D01*
X1716727Y-5445276D01*
X1712487Y-5453110D01*
X1707554Y-5460355D01*
X1701954Y-5466978D01*
X1695711Y-5472946D01*
X1688848Y-5478227D01*
X1681390Y-5482786D01*
X1673362Y-5486591D01*
X1664788Y-5489608D01*
X1655693Y-5491804D01*
X1646099Y-5493146D01*
X1636033Y-5493600D01*
X1626173Y-5493146D01*
X1616760Y-5491804D01*
X1607821Y-5489608D01*
X1599381Y-5486591D01*
X1591467Y-5482786D01*
X1584104Y-5478227D01*
X1577319Y-5472946D01*
X1571138Y-5466978D01*
X1565586Y-5460355D01*
X1560690Y-5453110D01*
X1556476Y-5445276D01*
X1552969Y-5436887D01*
X1550196Y-5427976D01*
X1548184Y-5418577D01*
X1546957Y-5408721D01*
X1546542Y-5398443D01*
X1546957Y-5387927D01*
X1548184Y-5377867D01*
X1550196Y-5368294D01*
X1552969Y-5359239D01*
X1556476Y-5350733D01*
X1560690Y-5342805D01*
X1565586Y-5335487D01*
X1571138Y-5328810D01*
X1577319Y-5322803D01*
X1584104Y-5317498D01*
X1591467Y-5312925D01*
X1599381Y-5309115D01*
X1607821Y-5306098D01*
X1616760Y-5303905D01*
X1626173Y-5302567D01*
X1636033Y-5302114D01*
X1646099Y-5302567D01*
X1655693Y-5303905D01*
X1664788Y-5306098D01*
X1673362Y-5309115D01*
X1681390Y-5312925D01*
X1688848Y-5317498D01*
X1695711Y-5322803D01*
X1701954Y-5328810D01*
X1707554Y-5335487D01*
X1712487Y-5342805D01*
X1716727Y-5350733D01*
X1720251Y-5359239D01*
X1723034Y-5368294D01*
X1725052Y-5377867D01*
X1726281Y-5387927D01*
X1726696Y-5398443D01*
G37*
G36*
X2158444Y-5616727D02*
G01*
X2176830Y-5617968D01*
X2194716Y-5620007D01*
X2212094Y-5622819D01*
X2228958Y-5626381D01*
X2245301Y-5630668D01*
X2261116Y-5635656D01*
X2276395Y-5641322D01*
X2291132Y-5647640D01*
X2305321Y-5654587D01*
X2318953Y-5662138D01*
X2332022Y-5670270D01*
X2344522Y-5678958D01*
X2356444Y-5688179D01*
X2367783Y-5697907D01*
X2378531Y-5708119D01*
X2388682Y-5718791D01*
X2398228Y-5729898D01*
X2407162Y-5741417D01*
X2415478Y-5753323D01*
X2423169Y-5765591D01*
X2430227Y-5778199D01*
X2436646Y-5791122D01*
X2442419Y-5804335D01*
X2447539Y-5817815D01*
X2451998Y-5831537D01*
X2455791Y-5845477D01*
X2458909Y-5859612D01*
X2461347Y-5873916D01*
X2463097Y-5888366D01*
X2464152Y-5902937D01*
X2464505Y-5917606D01*
X2464152Y-5932258D01*
X2463097Y-5946814D01*
X2461347Y-5961251D01*
X2458909Y-5975544D01*
X2455791Y-5989669D01*
X2451998Y-6003602D01*
X2447539Y-6017319D01*
X2442419Y-6030794D01*
X2436646Y-6044005D01*
X2430227Y-6056926D01*
X2423169Y-6069534D01*
X2415478Y-6081804D01*
X2407162Y-6093711D01*
X2398228Y-6105233D01*
X2388682Y-6116344D01*
X2378531Y-6127020D01*
X2367783Y-6137237D01*
X2356444Y-6146970D01*
X2344522Y-6156196D01*
X2332022Y-6164890D01*
X2318953Y-6173028D01*
X2305321Y-6180586D01*
X2291132Y-6187539D01*
X2276395Y-6193863D01*
X2261116Y-6199534D01*
X2245301Y-6204527D01*
X2228958Y-6208819D01*
X2212094Y-6212385D01*
X2194716Y-6215201D01*
X2176830Y-6217242D01*
X2158444Y-6218484D01*
X2139564Y-6218904D01*
X2120666Y-6218484D01*
X2102261Y-6217242D01*
X2084357Y-6215201D01*
X2066961Y-6212385D01*
X2050079Y-6208819D01*
X2033718Y-6204527D01*
X2017886Y-6199534D01*
X2002590Y-6193863D01*
X1987835Y-6187539D01*
X1973630Y-6180586D01*
X1959982Y-6173028D01*
X1946897Y-6164890D01*
X1934382Y-6156196D01*
X1922444Y-6146970D01*
X1911090Y-6137237D01*
X1900328Y-6127020D01*
X1890164Y-6116344D01*
X1880605Y-6105233D01*
X1871659Y-6093711D01*
X1863331Y-6081804D01*
X1855630Y-6069534D01*
X1848561Y-6056926D01*
X1842133Y-6044005D01*
X1836352Y-6030794D01*
X1831225Y-6017319D01*
X1826758Y-6003602D01*
X1822960Y-5989669D01*
X1819837Y-5975544D01*
X1817395Y-5961251D01*
X1815643Y-5946814D01*
X1814586Y-5932258D01*
X1814233Y-5917606D01*
X1948664Y-5917606D01*
X1948885Y-5925466D01*
X1950633Y-5940533D01*
X1954077Y-5954714D01*
X1959165Y-5967991D01*
X1965842Y-5980348D01*
X1974055Y-5991768D01*
X1983750Y-6002235D01*
X1994875Y-6011731D01*
X2007375Y-6020239D01*
X2021197Y-6027742D01*
X2028587Y-6031112D01*
X2036287Y-6034225D01*
X2044291Y-6037077D01*
X2052592Y-6039668D01*
X2061183Y-6041996D01*
X2070059Y-6044057D01*
X2079211Y-6045851D01*
X2088633Y-6047374D01*
X2098319Y-6048625D01*
X2108261Y-6049602D01*
X2118454Y-6050302D01*
X2128891Y-6050724D01*
X2139564Y-6050865D01*
X2150323Y-6050724D01*
X2160833Y-6050302D01*
X2171088Y-6049602D01*
X2181082Y-6048625D01*
X2190808Y-6047374D01*
X2200262Y-6045851D01*
X2209437Y-6044057D01*
X2218326Y-6041996D01*
X2226924Y-6039668D01*
X2235225Y-6037077D01*
X2243222Y-6034225D01*
X2250909Y-6031112D01*
X2258281Y-6027742D01*
X2265331Y-6024117D01*
X2278441Y-6016109D01*
X2290190Y-6007105D01*
X2300532Y-5997122D01*
X2309415Y-5986176D01*
X2316793Y-5974286D01*
X2322616Y-5961466D01*
X2326835Y-5947735D01*
X2329402Y-5933110D01*
X2330269Y-5917606D01*
X2330051Y-5909728D01*
X2328328Y-5894634D01*
X2324929Y-5880433D01*
X2319902Y-5867143D01*
X2313295Y-5854779D01*
X2305159Y-5843357D01*
X2295540Y-5832893D01*
X2284489Y-5823404D01*
X2272052Y-5814905D01*
X2258281Y-5807412D01*
X2250909Y-5804048D01*
X2243222Y-5800942D01*
X2235225Y-5798095D01*
X2226924Y-5795510D01*
X2218326Y-5793189D01*
X2209437Y-5791133D01*
X2200262Y-5789345D01*
X2190808Y-5787826D01*
X2181082Y-5786579D01*
X2171088Y-5785605D01*
X2160833Y-5784908D01*
X2150323Y-5784488D01*
X2139564Y-5784347D01*
X2128891Y-5784488D01*
X2118454Y-5784908D01*
X2108261Y-5785605D01*
X2098319Y-5786579D01*
X2088633Y-5787826D01*
X2079211Y-5789345D01*
X2070059Y-5791133D01*
X2061183Y-5793189D01*
X2052592Y-5795510D01*
X2044291Y-5798095D01*
X2036287Y-5800942D01*
X2028587Y-5804048D01*
X2021197Y-5807412D01*
X2014124Y-5811032D01*
X2000956Y-5819030D01*
X1989137Y-5828026D01*
X1978721Y-5838004D01*
X1969760Y-5848949D01*
X1962308Y-5860844D01*
X1956419Y-5873673D01*
X1952146Y-5887421D01*
X1949543Y-5902070D01*
X1948664Y-5917606D01*
X1814233Y-5917606D01*
X1814586Y-5902937D01*
X1815643Y-5888366D01*
X1817395Y-5873916D01*
X1819837Y-5859612D01*
X1822960Y-5845477D01*
X1826758Y-5831537D01*
X1831225Y-5817815D01*
X1836352Y-5804335D01*
X1842133Y-5791122D01*
X1848561Y-5778199D01*
X1855630Y-5765591D01*
X1863331Y-5753323D01*
X1871659Y-5741417D01*
X1880605Y-5729898D01*
X1890164Y-5718791D01*
X1900328Y-5708119D01*
X1911090Y-5697907D01*
X1922444Y-5688179D01*
X1934382Y-5678958D01*
X1946897Y-5670270D01*
X1959982Y-5662138D01*
X1973630Y-5654587D01*
X1987835Y-5647640D01*
X2002590Y-5641322D01*
X2017886Y-5635656D01*
X2033718Y-5630668D01*
X2050079Y-5626381D01*
X2066961Y-5622819D01*
X2084357Y-5620007D01*
X2102261Y-5617968D01*
X2120666Y-5616727D01*
X2139564Y-5616308D01*
X2158444Y-5616727D01*
G37*
G36*
X2452000Y-6356462D02*
G01*
X2452000Y-6521179D01*
X2025258Y-6521179D01*
X2016972Y-6529638D01*
X2009190Y-6537830D01*
X2001915Y-6545801D01*
X1995152Y-6553599D01*
X1988906Y-6561273D01*
X1983180Y-6568869D01*
X1977980Y-6576437D01*
X1973308Y-6584023D01*
X1969170Y-6591675D01*
X1965570Y-6599442D01*
X1962512Y-6607370D01*
X1960000Y-6615509D01*
X1958039Y-6623905D01*
X1956633Y-6632606D01*
X1955786Y-6641661D01*
X1955503Y-6651116D01*
X1955899Y-6662253D01*
X1957118Y-6672591D01*
X1959203Y-6682140D01*
X1962198Y-6690912D01*
X1966147Y-6698919D01*
X1971093Y-6706170D01*
X1977080Y-6712678D01*
X1984152Y-6718454D01*
X1992354Y-6723508D01*
X2001728Y-6727852D01*
X2012318Y-6731497D01*
X2024168Y-6734455D01*
X2037323Y-6736736D01*
X2051826Y-6738351D01*
X2067720Y-6739312D01*
X2076202Y-6739550D01*
X2085049Y-6739630D01*
X2452000Y-6739630D01*
X2452000Y-6904347D01*
X2065119Y-6904347D01*
X2050612Y-6904175D01*
X2036477Y-6903658D01*
X2022720Y-6902791D01*
X2009347Y-6901572D01*
X1996363Y-6899997D01*
X1983775Y-6898063D01*
X1971588Y-6895766D01*
X1959807Y-6893103D01*
X1948440Y-6890070D01*
X1937491Y-6886665D01*
X1926966Y-6882883D01*
X1916872Y-6878721D01*
X1907213Y-6874176D01*
X1897996Y-6869245D01*
X1889227Y-6863924D01*
X1880911Y-6858210D01*
X1873054Y-6852098D01*
X1865662Y-6845587D01*
X1858740Y-6838673D01*
X1852296Y-6831351D01*
X1846333Y-6823619D01*
X1840858Y-6815473D01*
X1835878Y-6806911D01*
X1831397Y-6797927D01*
X1827421Y-6788520D01*
X1823957Y-6778686D01*
X1821010Y-6768421D01*
X1818585Y-6757722D01*
X1816690Y-6746585D01*
X1815329Y-6735007D01*
X1814508Y-6722986D01*
X1814233Y-6710516D01*
X1814363Y-6702591D01*
X1815388Y-6687107D01*
X1817386Y-6672096D01*
X1820306Y-6657539D01*
X1824093Y-6643420D01*
X1828695Y-6629720D01*
X1834060Y-6616421D01*
X1840133Y-6603506D01*
X1846863Y-6590958D01*
X1854196Y-6578757D01*
X1862079Y-6566887D01*
X1870460Y-6555330D01*
X1879285Y-6544069D01*
X1888501Y-6533084D01*
X1898056Y-6522359D01*
X1907896Y-6511876D01*
X1912907Y-6506720D01*
X1912907Y-6503203D01*
X1826738Y-6490893D01*
X1826738Y-6356462D01*
X2452000Y-6356462D01*
G37*
G36*
X2464505Y-7546413D02*
G01*
X2464253Y-7561139D01*
X2463501Y-7575702D01*
X2462253Y-7590082D01*
X2460515Y-7604259D01*
X2458290Y-7618213D01*
X2455583Y-7631925D01*
X2452399Y-7645373D01*
X2448742Y-7658538D01*
X2444617Y-7671401D01*
X2440029Y-7683941D01*
X2434982Y-7696138D01*
X2429481Y-7707972D01*
X2423531Y-7719424D01*
X2417136Y-7730473D01*
X2410300Y-7741100D01*
X2403029Y-7751284D01*
X2395326Y-7761005D01*
X2387198Y-7770244D01*
X2378647Y-7778980D01*
X2369679Y-7787194D01*
X2360299Y-7794866D01*
X2350511Y-7801975D01*
X2340319Y-7808502D01*
X2329728Y-7814426D01*
X2318744Y-7819729D01*
X2307370Y-7824389D01*
X2295611Y-7828387D01*
X2283472Y-7831703D01*
X2270957Y-7834317D01*
X2258071Y-7836208D01*
X2244818Y-7837358D01*
X2231204Y-7837746D01*
X2221422Y-7837537D01*
X2211859Y-7836918D01*
X2202518Y-7835896D01*
X2193398Y-7834483D01*
X2184502Y-7832686D01*
X2175830Y-7830515D01*
X2167384Y-7827979D01*
X2159165Y-7825088D01*
X2151173Y-7821850D01*
X2143410Y-7818275D01*
X2135878Y-7814373D01*
X2128576Y-7810151D01*
X2121507Y-7805621D01*
X2114672Y-7800790D01*
X2108071Y-7795668D01*
X2101706Y-7790265D01*
X2095579Y-7784589D01*
X2089689Y-7778650D01*
X2084038Y-7772456D01*
X2078629Y-7766018D01*
X2073460Y-7759345D01*
X2068534Y-7752445D01*
X2063853Y-7745328D01*
X2059416Y-7738003D01*
X2055225Y-7730479D01*
X2051282Y-7722766D01*
X2047587Y-7714873D01*
X2044141Y-7706809D01*
X2040947Y-7698583D01*
X2038004Y-7690205D01*
X2035314Y-7681684D01*
X2032879Y-7673028D01*
X2027212Y-7673028D01*
X2023893Y-7681005D01*
X2020421Y-7688775D01*
X2016795Y-7696337D01*
X2013015Y-7703687D01*
X2009081Y-7710822D01*
X2004993Y-7717738D01*
X2000751Y-7724434D01*
X1996355Y-7730905D01*
X1987100Y-7743160D01*
X1977228Y-7754481D01*
X1966736Y-7764842D01*
X1955625Y-7774218D01*
X1943893Y-7782584D01*
X1931540Y-7789916D01*
X1918564Y-7796187D01*
X1904966Y-7801375D01*
X1890743Y-7805453D01*
X1875896Y-7808396D01*
X1860423Y-7810181D01*
X1852451Y-7810631D01*
X1844323Y-7810781D01*
X1831459Y-7810465D01*
X1818952Y-7809522D01*
X1806808Y-7807964D01*
X1795027Y-7805800D01*
X1783615Y-7803042D01*
X1772575Y-7799699D01*
X1761909Y-7795783D01*
X1751621Y-7791303D01*
X1741714Y-7786270D01*
X1732192Y-7780694D01*
X1723058Y-7774587D01*
X1714314Y-7767958D01*
X1705966Y-7760817D01*
X1698014Y-7753176D01*
X1690464Y-7745045D01*
X1683318Y-7736434D01*
X1676580Y-7727353D01*
X1670253Y-7717813D01*
X1664340Y-7707825D01*
X1658844Y-7697399D01*
X1653769Y-7686545D01*
X1649118Y-7675274D01*
X1644894Y-7663597D01*
X1641101Y-7651523D01*
X1637742Y-7639063D01*
X1634820Y-7626228D01*
X1632339Y-7613028D01*
X1630301Y-7599473D01*
X1628710Y-7585574D01*
X1627570Y-7571342D01*
X1626884Y-7556787D01*
X1626654Y-7541919D01*
X1626772Y-7532848D01*
X1627124Y-7523880D01*
X1627706Y-7515012D01*
X1628515Y-7506243D01*
X1629547Y-7497571D01*
X1630800Y-7488993D01*
X1632270Y-7480510D01*
X1633954Y-7472117D01*
X1635848Y-7463814D01*
X1637949Y-7455599D01*
X1640254Y-7447470D01*
X1642759Y-7439425D01*
X1645462Y-7431462D01*
X1648358Y-7423580D01*
X1651444Y-7415776D01*
X1654718Y-7408049D01*
X1658175Y-7400397D01*
X1661813Y-7392819D01*
X1665627Y-7385311D01*
X1669616Y-7377873D01*
X1673775Y-7370503D01*
X1678101Y-7363199D01*
X1682591Y-7355959D01*
X1687242Y-7348781D01*
X1692049Y-7341663D01*
X1697010Y-7334604D01*
X1702122Y-7327601D01*
X1707381Y-7320654D01*
X1712784Y-7313760D01*
X1718327Y-7306917D01*
X1724008Y-7300123D01*
X1729822Y-7293377D01*
X1830841Y-7377397D01*
X1822408Y-7386618D01*
X1814411Y-7395831D01*
X1806865Y-7405053D01*
X1799786Y-7414302D01*
X1793187Y-7423597D01*
X1787083Y-7432956D01*
X1781491Y-7442397D01*
X1776424Y-7451940D01*
X1771897Y-7461601D01*
X1767926Y-7471400D01*
X1764524Y-7481354D01*
X1761708Y-7491482D01*
X1759492Y-7501803D01*
X1757890Y-7512335D01*
X1756919Y-7523095D01*
X1756591Y-7534103D01*
X1757024Y-7546973D01*
X1758309Y-7559124D01*
X1760432Y-7570538D01*
X1763375Y-7581202D01*
X1767122Y-7591100D01*
X1771656Y-7600217D01*
X1776960Y-7608537D01*
X1783018Y-7616046D01*
X1789814Y-7622729D01*
X1797330Y-7628569D01*
X1805551Y-7633553D01*
X1814459Y-7637665D01*
X1824037Y-7640889D01*
X1834270Y-7643211D01*
X1845141Y-7644615D01*
X1856633Y-7645087D01*
X1869478Y-7644494D01*
X1881824Y-7642665D01*
X1893626Y-7639521D01*
X1904838Y-7634984D01*
X1915414Y-7628976D01*
X1925309Y-7621419D01*
X1934478Y-7612234D01*
X1942875Y-7601343D01*
X1950455Y-7588669D01*
X1953924Y-7581638D01*
X1957172Y-7574132D01*
X1960192Y-7566142D01*
X1962980Y-7557656D01*
X1965529Y-7548666D01*
X1967834Y-7539162D01*
X1969889Y-7529133D01*
X1971689Y-7518571D01*
X1973227Y-7507465D01*
X1974498Y-7495806D01*
X1975497Y-7483584D01*
X1976217Y-7470788D01*
X1976654Y-7457410D01*
X1976801Y-7443440D01*
X2095600Y-7443440D01*
X2095740Y-7459963D01*
X2096157Y-7475726D01*
X2096848Y-7490745D01*
X2097809Y-7505035D01*
X2099038Y-7518611D01*
X2100531Y-7531490D01*
X2102284Y-7543686D01*
X2104295Y-7555215D01*
X2106561Y-7566092D01*
X2109077Y-7576333D01*
X2111840Y-7585953D01*
X2114848Y-7594967D01*
X2118097Y-7603391D01*
X2121584Y-7611241D01*
X2125305Y-7618532D01*
X2129257Y-7625279D01*
X2137842Y-7637203D01*
X2147311Y-7647137D01*
X2157639Y-7655204D01*
X2168800Y-7661527D01*
X2180766Y-7666231D01*
X2193513Y-7669438D01*
X2207012Y-7671272D01*
X2221239Y-7671856D01*
X2233830Y-7671195D01*
X2245727Y-7669240D01*
X2256913Y-7666037D01*
X2267373Y-7661628D01*
X2277090Y-7656059D01*
X2286048Y-7649372D01*
X2294229Y-7641613D01*
X2301619Y-7632826D01*
X2308201Y-7623054D01*
X2313958Y-7612341D01*
X2318874Y-7600731D01*
X2322932Y-7588270D01*
X2326118Y-7575000D01*
X2328413Y-7560966D01*
X2329802Y-7546211D01*
X2330269Y-7530781D01*
X2329845Y-7516881D01*
X2328597Y-7503316D01*
X2326563Y-7490080D01*
X2323781Y-7477170D01*
X2320288Y-7464580D01*
X2316121Y-7452306D01*
X2311319Y-7440343D01*
X2305918Y-7428688D01*
X2299956Y-7417334D01*
X2293470Y-7406278D01*
X2286499Y-7395516D01*
X2279079Y-7385041D01*
X2271248Y-7374851D01*
X2263043Y-7364940D01*
X2254502Y-7355304D01*
X2245663Y-7345938D01*
X2349222Y-7268757D01*
X2355363Y-7274305D01*
X2361400Y-7280031D01*
X2367327Y-7285938D01*
X2373137Y-7292028D01*
X2378825Y-7298304D01*
X2384385Y-7304768D01*
X2389811Y-7311422D01*
X2395097Y-7318268D01*
X2400237Y-7325310D01*
X2405225Y-7332549D01*
X2410055Y-7339987D01*
X2414721Y-7347628D01*
X2419218Y-7355472D01*
X2423539Y-7363523D01*
X2427678Y-7371783D01*
X2431630Y-7380254D01*
X2435388Y-7388939D01*
X2438947Y-7397839D01*
X2442300Y-7406958D01*
X2445442Y-7416297D01*
X2448367Y-7425859D01*
X2451069Y-7435646D01*
X2453542Y-7445661D01*
X2455779Y-7455905D01*
X2457776Y-7466382D01*
X2459525Y-7477093D01*
X2461022Y-7488041D01*
X2462260Y-7499228D01*
X2463233Y-7510656D01*
X2463936Y-7522328D01*
X2464361Y-7534246D01*
X2464505Y-7546413D01*
G37*
G36*
X2464505Y-8080621D02*
G01*
X2463963Y-8091568D01*
X2462371Y-8102108D01*
X2459778Y-8112199D01*
X2456231Y-8121800D01*
X2451780Y-8130870D01*
X2446473Y-8139367D01*
X2440359Y-8147251D01*
X2433486Y-8154480D01*
X2425903Y-8161012D01*
X2417660Y-8166808D01*
X2408804Y-8171825D01*
X2399383Y-8176022D01*
X2389448Y-8179358D01*
X2379046Y-8181792D01*
X2368227Y-8183283D01*
X2357038Y-8183789D01*
X2345688Y-8183283D01*
X2334749Y-8181792D01*
X2324265Y-8179358D01*
X2314280Y-8176022D01*
X2304839Y-8171825D01*
X2295987Y-8166808D01*
X2287767Y-8161012D01*
X2280224Y-8154480D01*
X2273402Y-8147251D01*
X2267345Y-8139367D01*
X2262099Y-8130870D01*
X2257707Y-8121800D01*
X2254214Y-8112199D01*
X2251664Y-8102108D01*
X2250102Y-8091568D01*
X2249571Y-8080621D01*
X2250102Y-8069882D01*
X2251664Y-8059529D01*
X2254214Y-8049604D01*
X2257707Y-8040150D01*
X2262099Y-8031208D01*
X2267345Y-8022822D01*
X2273402Y-8015034D01*
X2280224Y-8007885D01*
X2287767Y-8001419D01*
X2295987Y-7995678D01*
X2304839Y-7990703D01*
X2314280Y-7986538D01*
X2324265Y-7983225D01*
X2334749Y-7980806D01*
X2345688Y-7979324D01*
X2357038Y-7978820D01*
X2368227Y-7979324D01*
X2379046Y-7980806D01*
X2389448Y-7983225D01*
X2399383Y-7986538D01*
X2408804Y-7990703D01*
X2417660Y-7995678D01*
X2425903Y-8001419D01*
X2433486Y-8007885D01*
X2440359Y-8015034D01*
X2446473Y-8022822D01*
X2451780Y-8031208D01*
X2456231Y-8040150D01*
X2459778Y-8049604D01*
X2462371Y-8059529D01*
X2463963Y-8069882D01*
X2464505Y-8080621D01*
G37*
G36*
X2464505Y-8571842D02*
G01*
X2464204Y-8586169D01*
X2463305Y-8600375D01*
X2461814Y-8614439D01*
X2459735Y-8628339D01*
X2457075Y-8642053D01*
X2453838Y-8655559D01*
X2450029Y-8668834D01*
X2445655Y-8681858D01*
X2440721Y-8694608D01*
X2435231Y-8707062D01*
X2429192Y-8719198D01*
X2422609Y-8730994D01*
X2415486Y-8742429D01*
X2407830Y-8753480D01*
X2399646Y-8764125D01*
X2390939Y-8774344D01*
X2381714Y-8784112D01*
X2371977Y-8793410D01*
X2361734Y-8802214D01*
X2350989Y-8810503D01*
X2339748Y-8818255D01*
X2328017Y-8825448D01*
X2315800Y-8832060D01*
X2303103Y-8838070D01*
X2289932Y-8843454D01*
X2276291Y-8848192D01*
X2262187Y-8852260D01*
X2247624Y-8855639D01*
X2232608Y-8858304D01*
X2217144Y-8860236D01*
X2201238Y-8861410D01*
X2184896Y-8861807D01*
X2169137Y-8861469D01*
X2153918Y-8860465D01*
X2139236Y-8858814D01*
X2125087Y-8856532D01*
X2111470Y-8853636D01*
X2098381Y-8850144D01*
X2085819Y-8846073D01*
X2073780Y-8841440D01*
X2062263Y-8836263D01*
X2051264Y-8830557D01*
X2040782Y-8824342D01*
X2030813Y-8817634D01*
X2021355Y-8810449D01*
X2012406Y-8802807D01*
X2003962Y-8794722D01*
X1996023Y-8786214D01*
X1988583Y-8777298D01*
X1981643Y-8767993D01*
X1975198Y-8758315D01*
X1969246Y-8748282D01*
X1963785Y-8737910D01*
X1958813Y-8727218D01*
X1954326Y-8716222D01*
X1950322Y-8704939D01*
X1946798Y-8693387D01*
X1943753Y-8681583D01*
X1941183Y-8669544D01*
X1939086Y-8657287D01*
X1937460Y-8644829D01*
X1936301Y-8632189D01*
X1935608Y-8619382D01*
X1935377Y-8606427D01*
X1935582Y-8595965D01*
X1936195Y-8585962D01*
X1937210Y-8576337D01*
X1938623Y-8567014D01*
X1940428Y-8557913D01*
X1942622Y-8548957D01*
X1945199Y-8540068D01*
X1948154Y-8531166D01*
X1951483Y-8522175D01*
X1955180Y-8513014D01*
X1957847Y-8506776D01*
X1777108Y-8522407D01*
X1777108Y-8823705D01*
X1639159Y-8823705D01*
X1639159Y-8380160D01*
X2047533Y-8357885D01*
X2095210Y-8432917D01*
X2089603Y-8441692D01*
X2084426Y-8450037D01*
X2079670Y-8458014D01*
X2075325Y-8465688D01*
X2071382Y-8473121D01*
X2067832Y-8480377D01*
X2063221Y-8491068D01*
X2059441Y-8501719D01*
X2056458Y-8512544D01*
X2054241Y-8523757D01*
X2053173Y-8531554D01*
X2052422Y-8539682D01*
X2051978Y-8548205D01*
X2051832Y-8557187D01*
X2052415Y-8572607D01*
X2054155Y-8587330D01*
X2057033Y-8601316D01*
X2061034Y-8614523D01*
X2066141Y-8626911D01*
X2072337Y-8638438D01*
X2079606Y-8649062D01*
X2087931Y-8658743D01*
X2097296Y-8667440D01*
X2107683Y-8675111D01*
X2119078Y-8681714D01*
X2131461Y-8687210D01*
X2144818Y-8691556D01*
X2159132Y-8694711D01*
X2174385Y-8696635D01*
X2182359Y-8697122D01*
X2190562Y-8697285D01*
X2198853Y-8697109D01*
X2206911Y-8696584D01*
X2214732Y-8695717D01*
X2229658Y-8692982D01*
X2243616Y-8688956D01*
X2256591Y-8683689D01*
X2268569Y-8677233D01*
X2279534Y-8669640D01*
X2289470Y-8660959D01*
X2298363Y-8651244D01*
X2306197Y-8640544D01*
X2312957Y-8628911D01*
X2318629Y-8616397D01*
X2323197Y-8603052D01*
X2326645Y-8588927D01*
X2328958Y-8574075D01*
X2330123Y-8558546D01*
X2330269Y-8550544D01*
X2329834Y-8536258D01*
X2328560Y-8522410D01*
X2326489Y-8508987D01*
X2323665Y-8495977D01*
X2320133Y-8483369D01*
X2315936Y-8471152D01*
X2311118Y-8459312D01*
X2305722Y-8447840D01*
X2299794Y-8436722D01*
X2293375Y-8425948D01*
X2286510Y-8415505D01*
X2279243Y-8405381D01*
X2271618Y-8395566D01*
X2263679Y-8386047D01*
X2255468Y-8376812D01*
X2247031Y-8367850D01*
X2351567Y-8291842D01*
X2357306Y-8297688D01*
X2362978Y-8303689D01*
X2368576Y-8309847D01*
X2374091Y-8316167D01*
X2379517Y-8322651D01*
X2384845Y-8329302D01*
X2390068Y-8336124D01*
X2395179Y-8343121D01*
X2400171Y-8350294D01*
X2405034Y-8357649D01*
X2409763Y-8365188D01*
X2414349Y-8372914D01*
X2418785Y-8380830D01*
X2423063Y-8388941D01*
X2427176Y-8397249D01*
X2431117Y-8405757D01*
X2434877Y-8414469D01*
X2438449Y-8423388D01*
X2441826Y-8432517D01*
X2444999Y-8441860D01*
X2447962Y-8451420D01*
X2450708Y-8461201D01*
X2453227Y-8471205D01*
X2455514Y-8481435D01*
X2457559Y-8491896D01*
X2459357Y-8502590D01*
X2460898Y-8513521D01*
X2462176Y-8524692D01*
X2463184Y-8536107D01*
X2463913Y-8547767D01*
X2464355Y-8559678D01*
X2464505Y-8571842D01*
G37*
G36*
X2464505Y-9103705D02*
G01*
X2463963Y-9114652D01*
X2462371Y-9125192D01*
X2459778Y-9135283D01*
X2456231Y-9144884D01*
X2451780Y-9153954D01*
X2446473Y-9162452D01*
X2440359Y-9170335D01*
X2433486Y-9177564D01*
X2425903Y-9184097D01*
X2417660Y-9189892D01*
X2408804Y-9194909D01*
X2399383Y-9199106D01*
X2389448Y-9202443D01*
X2379046Y-9204877D01*
X2368227Y-9206367D01*
X2357038Y-9206873D01*
X2345688Y-9206367D01*
X2334749Y-9204877D01*
X2324265Y-9202443D01*
X2314280Y-9199106D01*
X2304839Y-9194909D01*
X2295987Y-9189892D01*
X2287767Y-9184097D01*
X2280224Y-9177564D01*
X2273402Y-9170335D01*
X2267345Y-9162452D01*
X2262099Y-9153954D01*
X2257707Y-9144884D01*
X2254214Y-9135283D01*
X2251664Y-9125192D01*
X2250102Y-9114652D01*
X2249571Y-9103705D01*
X2250102Y-9092966D01*
X2251664Y-9082613D01*
X2254214Y-9072688D01*
X2257707Y-9063234D01*
X2262099Y-9054293D01*
X2267345Y-9045907D01*
X2273402Y-9038118D01*
X2280224Y-9030970D01*
X2287767Y-9024503D01*
X2295987Y-9018762D01*
X2304839Y-9013788D01*
X2314280Y-9009623D01*
X2324265Y-9006310D01*
X2334749Y-9003891D01*
X2345688Y-9002408D01*
X2357038Y-9001905D01*
X2368227Y-9002408D01*
X2379046Y-9003891D01*
X2389448Y-9006310D01*
X2399383Y-9009623D01*
X2408804Y-9013788D01*
X2417660Y-9018762D01*
X2425903Y-9024503D01*
X2433486Y-9030970D01*
X2440359Y-9038118D01*
X2446473Y-9045907D01*
X2451780Y-9054293D01*
X2456231Y-9063234D01*
X2459778Y-9072688D01*
X2462371Y-9082613D01*
X2463963Y-9092966D01*
X2464505Y-9103705D01*
G37*
G36*
X2066987Y-9335375D02*
G01*
X2091565Y-9336338D01*
X2115401Y-9337931D01*
X2138492Y-9340145D01*
X2160832Y-9342971D01*
X2182418Y-9346399D01*
X2203245Y-9350420D01*
X2223309Y-9355025D01*
X2242605Y-9360204D01*
X2261129Y-9365947D01*
X2278877Y-9372246D01*
X2295844Y-9379091D01*
X2312025Y-9386473D01*
X2327418Y-9394382D01*
X2342016Y-9402809D01*
X2355817Y-9411744D01*
X2368814Y-9421179D01*
X2381005Y-9431103D01*
X2392385Y-9441508D01*
X2402949Y-9452384D01*
X2412693Y-9463721D01*
X2421612Y-9475511D01*
X2429703Y-9487744D01*
X2436960Y-9500410D01*
X2443380Y-9513501D01*
X2448959Y-9527006D01*
X2453691Y-9540917D01*
X2457572Y-9555224D01*
X2460599Y-9569917D01*
X2462766Y-9584988D01*
X2464069Y-9600427D01*
X2464505Y-9616224D01*
X2464069Y-9632001D01*
X2462766Y-9647415D01*
X2460599Y-9662457D01*
X2457572Y-9677118D01*
X2453691Y-9691389D01*
X2448959Y-9705262D01*
X2443380Y-9718726D01*
X2436960Y-9731773D01*
X2429703Y-9744393D01*
X2421612Y-9756579D01*
X2412693Y-9768320D01*
X2402949Y-9779608D01*
X2392385Y-9790433D01*
X2381005Y-9800787D01*
X2368814Y-9810661D01*
X2355817Y-9820045D01*
X2342016Y-9828930D01*
X2327418Y-9837308D01*
X2312025Y-9845169D01*
X2295844Y-9852504D01*
X2278877Y-9859305D01*
X2261129Y-9865562D01*
X2242605Y-9871265D01*
X2223309Y-9876407D01*
X2203245Y-9880978D01*
X2182418Y-9884968D01*
X2160832Y-9888370D01*
X2138492Y-9891173D01*
X2115401Y-9893370D01*
X2091565Y-9894949D01*
X2066987Y-9895904D01*
X2041672Y-9896224D01*
X2016585Y-9895904D01*
X1992253Y-9894949D01*
X1968677Y-9893370D01*
X1945860Y-9891173D01*
X1923806Y-9888370D01*
X1902517Y-9884968D01*
X1881995Y-9880978D01*
X1862245Y-9876407D01*
X1843267Y-9871265D01*
X1825066Y-9865562D01*
X1807643Y-9859305D01*
X1791003Y-9852504D01*
X1775147Y-9845169D01*
X1760078Y-9837308D01*
X1745799Y-9828930D01*
X1732314Y-9820045D01*
X1719623Y-9810661D01*
X1707732Y-9800787D01*
X1696642Y-9790433D01*
X1686355Y-9779608D01*
X1676876Y-9768320D01*
X1668206Y-9756579D01*
X1660349Y-9744393D01*
X1653307Y-9731773D01*
X1647083Y-9718726D01*
X1641680Y-9705262D01*
X1637100Y-9691389D01*
X1633347Y-9677118D01*
X1630423Y-9662457D01*
X1628331Y-9647415D01*
X1627074Y-9632001D01*
X1626654Y-9616224D01*
X1755614Y-9616224D01*
X1756371Y-9629405D01*
X1758738Y-9642096D01*
X1762858Y-9654249D01*
X1768877Y-9665812D01*
X1776938Y-9676736D01*
X1787186Y-9686971D01*
X1799765Y-9696469D01*
X1806973Y-9700925D01*
X1814819Y-9705178D01*
X1823319Y-9709221D01*
X1832492Y-9713048D01*
X1842357Y-9716654D01*
X1852930Y-9720031D01*
X1864230Y-9723174D01*
X1876275Y-9726077D01*
X1889084Y-9728732D01*
X1902673Y-9731134D01*
X1917061Y-9733277D01*
X1932267Y-9735155D01*
X1948308Y-9736761D01*
X1965202Y-9738088D01*
X1982968Y-9739132D01*
X2001622Y-9739885D01*
X2021184Y-9740342D01*
X2041672Y-9740495D01*
X2062302Y-9740342D01*
X2082036Y-9739885D01*
X2100889Y-9739132D01*
X2118878Y-9738088D01*
X2136017Y-9736761D01*
X2152323Y-9735155D01*
X2167812Y-9733277D01*
X2182499Y-9731134D01*
X2196400Y-9728732D01*
X2209532Y-9726077D01*
X2221910Y-9723174D01*
X2233549Y-9720031D01*
X2244466Y-9716654D01*
X2254677Y-9713048D01*
X2264197Y-9709221D01*
X2273043Y-9705178D01*
X2281229Y-9700925D01*
X2288773Y-9696469D01*
X2295689Y-9691815D01*
X2301994Y-9686971D01*
X2312834Y-9676736D01*
X2321418Y-9665812D01*
X2327874Y-9654249D01*
X2332329Y-9642096D01*
X2334908Y-9629405D01*
X2335740Y-9616224D01*
X2334908Y-9602998D01*
X2332329Y-9590246D01*
X2327874Y-9578019D01*
X2321418Y-9566371D01*
X2312834Y-9555354D01*
X2301994Y-9545020D01*
X2295689Y-9540126D01*
X2288773Y-9535422D01*
X2281229Y-9530915D01*
X2273043Y-9526612D01*
X2264197Y-9522518D01*
X2254677Y-9518642D01*
X2244466Y-9514988D01*
X2233549Y-9511564D01*
X2221910Y-9508377D01*
X2209532Y-9505432D01*
X2196400Y-9502737D01*
X2182499Y-9500297D01*
X2167812Y-9498121D01*
X2152323Y-9496213D01*
X2136017Y-9494580D01*
X2118878Y-9493230D01*
X2100889Y-9492168D01*
X2082036Y-9491402D01*
X2062302Y-9490937D01*
X2041672Y-9490781D01*
X2021184Y-9490937D01*
X2001622Y-9491402D01*
X1982968Y-9492168D01*
X1965202Y-9493230D01*
X1948308Y-9494580D01*
X1932267Y-9496213D01*
X1917061Y-9498121D01*
X1902673Y-9500297D01*
X1889084Y-9502737D01*
X1876275Y-9505432D01*
X1864230Y-9508377D01*
X1852930Y-9511564D01*
X1842357Y-9514988D01*
X1832492Y-9518642D01*
X1823319Y-9522518D01*
X1814819Y-9526612D01*
X1806973Y-9530915D01*
X1799765Y-9535422D01*
X1793175Y-9540126D01*
X1781779Y-9550099D01*
X1772643Y-9560781D01*
X1765621Y-9572120D01*
X1760570Y-9584063D01*
X1757344Y-9596559D01*
X1755800Y-9609555D01*
X1755614Y-9616224D01*
X1626654Y-9616224D01*
X1627070Y-9600427D01*
X1628318Y-9584988D01*
X1630395Y-9569917D01*
X1633299Y-9555224D01*
X1637028Y-9540917D01*
X1641579Y-9527006D01*
X1646952Y-9513501D01*
X1653142Y-9500410D01*
X1660149Y-9487744D01*
X1667970Y-9475511D01*
X1676603Y-9463721D01*
X1686046Y-9452384D01*
X1696297Y-9441508D01*
X1707353Y-9431103D01*
X1719213Y-9421179D01*
X1731874Y-9411744D01*
X1745334Y-9402809D01*
X1759591Y-9394382D01*
X1774643Y-9386473D01*
X1790488Y-9379091D01*
X1807123Y-9372246D01*
X1824546Y-9365947D01*
X1842756Y-9360204D01*
X1861750Y-9355025D01*
X1881526Y-9350420D01*
X1902082Y-9346399D01*
X1923415Y-9342971D01*
X1945524Y-9340145D01*
X1968406Y-9337931D01*
X1992059Y-9336338D01*
X2016482Y-9335375D01*
X2041672Y-9335052D01*
X2066987Y-9335375D01*
G37*
D11*
G36*
X4630631Y249254D02*
G01*
X4630216Y225799D01*
X4628962Y202976D01*
X4626860Y180791D01*
X4623899Y159253D01*
X4620067Y138368D01*
X4615354Y118145D01*
X4609749Y98590D01*
X4603241Y79711D01*
X4595821Y61515D01*
X4587476Y44010D01*
X4578196Y27204D01*
X4567970Y11103D01*
X4556788Y-4285D01*
X4544638Y-18953D01*
X4531510Y-32893D01*
X4517394Y-46097D01*
X4502278Y-58559D01*
X4486151Y-70270D01*
X4469004Y-81224D01*
X4450824Y-91413D01*
X4431602Y-100829D01*
X4411326Y-109466D01*
X4389985Y-117315D01*
X4367570Y-124369D01*
X4344069Y-130622D01*
X4319471Y-136064D01*
X4293766Y-140690D01*
X4266942Y-144492D01*
X4238990Y-147461D01*
X4209898Y-149591D01*
X4179655Y-150875D01*
X4148251Y-151305D01*
X3583318Y-151305D01*
X3583318Y47509D01*
X4166325Y47509D01*
X4185904Y47738D01*
X4204667Y48420D01*
X4222629Y49549D01*
X4239802Y51119D01*
X4256198Y53124D01*
X4271830Y55557D01*
X4286711Y58414D01*
X4300854Y61687D01*
X4314270Y65370D01*
X4326973Y69457D01*
X4338976Y73943D01*
X4350290Y78820D01*
X4360930Y84084D01*
X4370906Y89727D01*
X4380233Y95744D01*
X4388922Y102128D01*
X4396987Y108873D01*
X4404439Y115974D01*
X4411293Y123424D01*
X4417559Y131217D01*
X4423252Y139347D01*
X4428383Y147807D01*
X4432965Y156592D01*
X4437011Y165696D01*
X4440534Y175112D01*
X4443546Y184834D01*
X4446060Y194856D01*
X4448089Y205172D01*
X4449644Y215776D01*
X4450740Y226662D01*
X4451388Y237823D01*
X4451601Y249254D01*
X4451388Y260410D01*
X4450740Y271297D01*
X4449644Y281909D01*
X4448089Y292242D01*
X4446060Y302289D01*
X4443546Y312044D01*
X4440534Y321503D01*
X4437011Y330659D01*
X4428383Y348042D01*
X4417559Y364147D01*
X4411293Y371708D01*
X4404439Y378932D01*
X4396987Y385814D01*
X4388922Y392349D01*
X4380233Y398532D01*
X4370906Y404356D01*
X4360930Y409816D01*
X4350290Y414907D01*
X4338976Y419623D01*
X4326973Y423957D01*
X4314270Y427906D01*
X4300854Y431463D01*
X4286711Y434622D01*
X4271830Y437378D01*
X4256198Y439725D01*
X4239802Y441658D01*
X4222629Y443172D01*
X4204667Y444259D01*
X4185904Y444916D01*
X4166325Y445136D01*
X3583318Y445136D01*
X3583318Y652499D01*
X4148251Y652499D01*
X4179655Y652057D01*
X4209898Y650739D01*
X4238990Y648554D01*
X4266942Y645510D01*
X4293766Y641617D01*
X4319471Y636885D01*
X4344069Y631322D01*
X4367570Y624937D01*
X4389985Y617741D01*
X4411326Y609741D01*
X4431602Y600948D01*
X4450824Y591370D01*
X4469004Y581017D01*
X4486151Y569898D01*
X4502278Y558022D01*
X4517394Y545398D01*
X4531510Y532036D01*
X4544638Y517944D01*
X4556788Y503133D01*
X4567970Y487611D01*
X4578196Y471387D01*
X4587476Y454471D01*
X4595821Y436871D01*
X4603241Y418598D01*
X4609749Y399660D01*
X4615354Y380066D01*
X4620067Y359826D01*
X4623899Y338949D01*
X4626860Y317444D01*
X4628962Y295320D01*
X4630216Y272587D01*
X4630631Y249254D01*
G37*
G36*
X4615000Y-400432D02*
G01*
X4615000Y-607795D01*
X3583318Y-607795D01*
X3583318Y-400432D01*
X4615000Y-400432D01*
G37*
G36*
X4615000Y-862540D02*
G01*
X4615000Y-1058667D01*
X4201741Y-1058667D01*
X4190693Y-1058622D01*
X4179583Y-1058492D01*
X4168415Y-1058278D01*
X4157194Y-1057987D01*
X4145926Y-1057620D01*
X4134618Y-1057182D01*
X4123273Y-1056678D01*
X4111897Y-1056110D01*
X4100497Y-1055483D01*
X4089077Y-1054800D01*
X4077643Y-1054065D01*
X4066200Y-1053283D01*
X4054754Y-1052457D01*
X4043310Y-1051590D01*
X4031874Y-1050687D01*
X4020451Y-1049752D01*
X4009047Y-1048788D01*
X3997667Y-1047799D01*
X3986316Y-1046790D01*
X3975000Y-1045763D01*
X3963725Y-1044723D01*
X3952495Y-1043674D01*
X3941317Y-1042619D01*
X3930196Y-1041562D01*
X3919137Y-1040508D01*
X3908146Y-1039459D01*
X3897227Y-1038421D01*
X3886388Y-1037396D01*
X3875632Y-1036388D01*
X3864966Y-1035402D01*
X3854395Y-1034442D01*
X3843925Y-1033510D01*
X3843925Y-1040349D01*
X4064720Y-1145373D01*
X4615000Y-1445059D01*
X4615000Y-1655108D01*
X3583318Y-1655108D01*
X3583318Y-1458981D01*
X3996821Y-1458981D01*
X4007644Y-1459029D01*
X4018581Y-1459173D01*
X4029626Y-1459405D01*
X4040766Y-1459724D01*
X4051995Y-1460124D01*
X4063302Y-1460601D01*
X4074678Y-1461150D01*
X4086115Y-1461767D01*
X4097602Y-1462448D01*
X4109130Y-1463188D01*
X4120691Y-1463983D01*
X4132275Y-1464828D01*
X4143874Y-1465720D01*
X4155476Y-1466654D01*
X4167075Y-1467625D01*
X4178660Y-1468628D01*
X4190221Y-1469661D01*
X4201751Y-1470718D01*
X4213240Y-1471794D01*
X4224677Y-1472886D01*
X4236056Y-1473990D01*
X4247365Y-1475100D01*
X4258596Y-1476212D01*
X4269739Y-1477322D01*
X4280786Y-1478426D01*
X4291728Y-1479519D01*
X4302554Y-1480596D01*
X4313256Y-1481654D01*
X4323824Y-1482689D01*
X4334250Y-1483694D01*
X4344524Y-1484667D01*
X4354637Y-1485603D01*
X4354637Y-1478520D01*
X4132376Y-1374961D01*
X3583318Y-1074054D01*
X3583318Y-862540D01*
X4615000Y-862540D01*
G37*
G36*
X4615000Y-1910830D02*
G01*
X4615000Y-2118192D01*
X3583318Y-2118192D01*
X3583318Y-1910830D01*
X4615000Y-1910830D01*
G37*
G36*
X4118447Y-2321709D02*
G01*
X4148919Y-2323348D01*
X4178593Y-2326057D01*
X4207454Y-2329817D01*
X4235489Y-2334608D01*
X4262685Y-2340412D01*
X4289028Y-2347210D01*
X4314504Y-2354982D01*
X4339101Y-2363710D01*
X4362803Y-2373374D01*
X4385599Y-2383956D01*
X4407473Y-2395437D01*
X4428413Y-2407797D01*
X4448405Y-2421018D01*
X4467435Y-2435081D01*
X4485490Y-2449966D01*
X4502556Y-2465654D01*
X4518619Y-2482127D01*
X4533666Y-2499366D01*
X4547684Y-2517351D01*
X4560658Y-2536064D01*
X4572576Y-2555486D01*
X4583423Y-2575596D01*
X4593186Y-2596378D01*
X4601851Y-2617811D01*
X4609405Y-2639876D01*
X4615834Y-2662555D01*
X4621125Y-2685828D01*
X4625263Y-2709677D01*
X4628236Y-2734083D01*
X4630030Y-2759025D01*
X4630631Y-2784487D01*
X4630030Y-2809970D01*
X4628236Y-2834934D01*
X4625263Y-2859359D01*
X4621125Y-2883226D01*
X4615834Y-2906516D01*
X4609405Y-2929211D01*
X4601851Y-2951291D01*
X4593186Y-2972737D01*
X4583423Y-2993531D01*
X4572576Y-3013653D01*
X4560658Y-3033085D01*
X4547684Y-3051807D01*
X4533666Y-3069801D01*
X4518619Y-3087047D01*
X4502556Y-3103527D01*
X4485490Y-3119222D01*
X4467435Y-3134112D01*
X4448405Y-3148179D01*
X4428413Y-3161404D01*
X4407473Y-3173768D01*
X4385599Y-3185252D01*
X4362803Y-3195836D01*
X4339101Y-3205503D01*
X4314504Y-3214232D01*
X4289028Y-3222006D01*
X4262685Y-3228804D01*
X4235489Y-3234609D01*
X4207454Y-3239401D01*
X4178593Y-3243160D01*
X4148919Y-3245870D01*
X4118447Y-3247509D01*
X4087191Y-3248060D01*
X4055958Y-3247509D01*
X4025555Y-3245870D01*
X3995994Y-3243160D01*
X3967285Y-3239401D01*
X3939437Y-3234609D01*
X3912463Y-3228804D01*
X3886372Y-3222006D01*
X3861174Y-3214232D01*
X3836882Y-3205503D01*
X3813504Y-3195836D01*
X3791052Y-3185252D01*
X3769536Y-3173768D01*
X3748966Y-3161404D01*
X3729354Y-3148179D01*
X3710710Y-3134112D01*
X3693044Y-3119222D01*
X3676367Y-3103527D01*
X3660689Y-3087047D01*
X3646021Y-3069801D01*
X3632374Y-3051807D01*
X3619758Y-3033085D01*
X3608184Y-3013653D01*
X3597662Y-2993531D01*
X3588203Y-2972737D01*
X3579817Y-2951291D01*
X3572514Y-2929211D01*
X3566307Y-2906516D01*
X3561204Y-2883226D01*
X3557217Y-2859359D01*
X3554356Y-2834934D01*
X3552632Y-2809970D01*
X3552055Y-2784487D01*
X3730108Y-2784487D01*
X3730498Y-2798769D01*
X3731663Y-2812715D01*
X3733594Y-2826317D01*
X3736285Y-2839566D01*
X3739726Y-2852455D01*
X3743910Y-2864978D01*
X3748829Y-2877125D01*
X3754475Y-2888889D01*
X3760839Y-2900263D01*
X3767914Y-2911239D01*
X3775692Y-2921810D01*
X3784165Y-2931967D01*
X3793324Y-2941703D01*
X3803163Y-2951011D01*
X3813672Y-2959882D01*
X3824843Y-2968310D01*
X3836670Y-2976286D01*
X3849143Y-2983803D01*
X3862255Y-2990853D01*
X3875997Y-2997429D01*
X3890363Y-3003522D01*
X3905343Y-3009126D01*
X3920930Y-3014233D01*
X3937115Y-3018834D01*
X3953891Y-3022923D01*
X3971250Y-3026491D01*
X3989183Y-3029531D01*
X4007683Y-3032036D01*
X4026742Y-3033997D01*
X4046352Y-3035408D01*
X4066504Y-3036260D01*
X4087191Y-3036545D01*
X4107791Y-3036260D01*
X4127911Y-3035408D01*
X4147538Y-3033997D01*
X4166662Y-3032036D01*
X4185271Y-3029531D01*
X4203354Y-3026491D01*
X4220900Y-3022923D01*
X4237896Y-3018834D01*
X4254332Y-3014233D01*
X4270197Y-3009126D01*
X4285478Y-3003522D01*
X4300166Y-2997429D01*
X4314247Y-2990853D01*
X4327712Y-2983803D01*
X4340548Y-2976286D01*
X4352744Y-2968310D01*
X4364289Y-2959882D01*
X4375171Y-2951011D01*
X4385380Y-2941703D01*
X4394903Y-2931967D01*
X4403730Y-2921810D01*
X4411849Y-2911239D01*
X4419249Y-2900263D01*
X4425917Y-2888889D01*
X4431844Y-2877125D01*
X4437018Y-2864978D01*
X4441426Y-2852455D01*
X4445059Y-2839566D01*
X4447904Y-2826317D01*
X4449950Y-2812715D01*
X4451186Y-2798769D01*
X4451601Y-2784487D01*
X4451186Y-2770226D01*
X4449950Y-2756301D01*
X4447904Y-2742719D01*
X4445059Y-2729488D01*
X4441426Y-2716616D01*
X4437018Y-2704109D01*
X4431844Y-2691977D01*
X4425917Y-2680226D01*
X4419249Y-2668864D01*
X4411849Y-2657899D01*
X4403730Y-2647339D01*
X4394903Y-2637191D01*
X4385380Y-2627463D01*
X4375171Y-2618163D01*
X4364289Y-2609299D01*
X4352744Y-2600877D01*
X4340548Y-2592907D01*
X4327712Y-2585394D01*
X4314247Y-2578348D01*
X4300166Y-2571776D01*
X4285478Y-2565685D01*
X4270197Y-2560084D01*
X4254332Y-2554980D01*
X4237896Y-2550380D01*
X4220900Y-2546293D01*
X4203354Y-2542725D01*
X4185271Y-2539686D01*
X4166662Y-2537181D01*
X4147538Y-2535220D01*
X4127911Y-2533810D01*
X4107791Y-2532958D01*
X4087191Y-2532672D01*
X4066504Y-2532958D01*
X4046352Y-2533810D01*
X4026742Y-2535220D01*
X4007683Y-2537181D01*
X3989183Y-2539686D01*
X3971250Y-2542725D01*
X3953891Y-2546293D01*
X3937115Y-2550380D01*
X3920930Y-2554980D01*
X3905343Y-2560084D01*
X3890363Y-2565685D01*
X3875997Y-2571776D01*
X3862255Y-2578348D01*
X3849143Y-2585394D01*
X3836670Y-2592907D01*
X3824843Y-2600877D01*
X3813672Y-2609299D01*
X3803163Y-2618163D01*
X3793324Y-2627463D01*
X3784165Y-2637191D01*
X3775692Y-2647339D01*
X3767914Y-2657899D01*
X3760839Y-2668864D01*
X3754475Y-2680226D01*
X3748829Y-2691977D01*
X3743910Y-2704109D01*
X3739726Y-2716616D01*
X3736285Y-2729488D01*
X3733594Y-2742719D01*
X3731663Y-2756301D01*
X3730498Y-2770226D01*
X3730108Y-2784487D01*
X3552055Y-2784487D01*
X3552628Y-2759025D01*
X3554340Y-2734083D01*
X3557182Y-2709677D01*
X3561144Y-2685828D01*
X3566216Y-2662555D01*
X3572389Y-2639876D01*
X3579652Y-2617811D01*
X3587996Y-2596378D01*
X3597412Y-2575596D01*
X3607889Y-2555486D01*
X3619417Y-2536064D01*
X3631988Y-2517351D01*
X3645591Y-2499366D01*
X3660216Y-2482127D01*
X3675854Y-2465654D01*
X3692494Y-2449966D01*
X3710128Y-2435081D01*
X3728746Y-2421018D01*
X3748337Y-2407797D01*
X3768892Y-2395437D01*
X3790401Y-2383956D01*
X3812855Y-2373374D01*
X3836243Y-2363710D01*
X3860556Y-2354982D01*
X3885785Y-2347210D01*
X3911919Y-2340412D01*
X3938948Y-2334608D01*
X3966864Y-2329817D01*
X3995656Y-2326057D01*
X4025314Y-2323348D01*
X4055829Y-2321709D01*
X4087191Y-2321158D01*
X4118447Y-2321709D01*
G37*
G36*
X4286737Y-3391675D02*
G01*
X4286737Y-3773915D01*
X4139947Y-3773915D01*
X4139947Y-3391675D01*
X4286737Y-3391675D01*
G37*
G36*
X4615000Y-3968332D02*
G01*
X4615000Y-4154689D01*
X4184888Y-4154689D01*
X4166028Y-4154498D01*
X4156250Y-4154265D01*
X4146263Y-4153946D01*
X4136082Y-4153546D01*
X4125724Y-4153069D01*
X4115206Y-4152520D01*
X4104543Y-4151903D01*
X4093753Y-4151222D01*
X4082852Y-4150482D01*
X4071855Y-4149687D01*
X4060781Y-4148842D01*
X4049644Y-4147950D01*
X4038461Y-4147016D01*
X4027249Y-4146045D01*
X4016024Y-4145042D01*
X4004803Y-4144009D01*
X3993602Y-4142952D01*
X3982438Y-4141876D01*
X3971326Y-4140784D01*
X3960283Y-4139680D01*
X3949326Y-4138570D01*
X3938471Y-4137458D01*
X3927734Y-4136348D01*
X3917133Y-4135244D01*
X3906683Y-4134151D01*
X3896400Y-4133074D01*
X3886301Y-4132016D01*
X3876403Y-4130981D01*
X3857275Y-4129003D01*
X3848077Y-4128067D01*
X3848077Y-4133684D01*
X4088412Y-4216238D01*
X4521210Y-4377194D01*
X4521210Y-4496141D01*
X4088412Y-4655875D01*
X3848077Y-4739895D01*
X3848077Y-4746734D01*
X3866722Y-4744624D01*
X3886299Y-4742434D01*
X3896395Y-4741319D01*
X3906674Y-4740196D01*
X3917120Y-4739067D01*
X3927715Y-4737937D01*
X3938444Y-4736810D01*
X3949289Y-4735689D01*
X3960233Y-4734578D01*
X3971261Y-4733480D01*
X3982356Y-4732400D01*
X3993500Y-4731341D01*
X4004678Y-4730307D01*
X4015872Y-4729301D01*
X4027066Y-4728327D01*
X4038244Y-4727390D01*
X4049388Y-4726492D01*
X4060482Y-4725637D01*
X4071510Y-4724829D01*
X4082455Y-4724072D01*
X4093300Y-4723370D01*
X4104028Y-4722726D01*
X4114624Y-4722143D01*
X4125069Y-4721626D01*
X4135348Y-4721179D01*
X4145445Y-4720804D01*
X4155341Y-4720507D01*
X4174469Y-4720157D01*
X4183667Y-4720111D01*
X4615000Y-4720111D01*
X4615000Y-4909155D01*
X3583318Y-4909155D01*
X3583318Y-4679567D01*
X4066186Y-4507376D01*
X4078140Y-4503212D01*
X4090181Y-4499138D01*
X4102299Y-4495142D01*
X4114485Y-4491210D01*
X4126728Y-4487330D01*
X4139018Y-4483488D01*
X4151345Y-4479672D01*
X4163700Y-4475869D01*
X4176071Y-4472065D01*
X4188450Y-4468249D01*
X4200826Y-4464407D01*
X4213189Y-4460527D01*
X4225530Y-4456595D01*
X4237837Y-4452599D01*
X4250101Y-4448525D01*
X4262313Y-4444361D01*
X4262313Y-4437522D01*
X4250101Y-4433597D01*
X4237837Y-4429696D01*
X4225530Y-4425812D01*
X4213189Y-4421940D01*
X4200826Y-4418076D01*
X4188450Y-4414214D01*
X4176071Y-4410348D01*
X4163700Y-4406473D01*
X4151345Y-4402584D01*
X4139018Y-4398675D01*
X4126728Y-4394741D01*
X4114485Y-4390777D01*
X4102299Y-4386776D01*
X4090181Y-4382735D01*
X4078140Y-4378647D01*
X4066186Y-4374508D01*
X3583318Y-4197920D01*
X3583318Y-3968332D01*
X4615000Y-3968332D01*
G37*
G36*
X4630631Y-5585952D02*
G01*
X4630476Y-5598499D01*
X4630012Y-5610905D01*
X4629239Y-5623170D01*
X4628160Y-5635294D01*
X4626774Y-5647277D01*
X4625085Y-5659118D01*
X4623092Y-5670817D01*
X4620796Y-5682375D01*
X4618200Y-5693790D01*
X4615305Y-5705062D01*
X4612111Y-5716191D01*
X4608619Y-5727177D01*
X4604832Y-5738020D01*
X4600749Y-5748719D01*
X4596373Y-5759273D01*
X4591705Y-5769684D01*
X4586745Y-5779950D01*
X4581495Y-5790071D01*
X4575957Y-5800047D01*
X4570131Y-5809878D01*
X4564018Y-5819563D01*
X4557621Y-5829103D01*
X4550939Y-5838496D01*
X4543974Y-5847742D01*
X4536728Y-5856842D01*
X4529202Y-5865796D01*
X4521396Y-5874601D01*
X4513313Y-5883260D01*
X4504953Y-5891770D01*
X4496317Y-5900133D01*
X4487407Y-5908347D01*
X4478224Y-5916413D01*
X4348775Y-5807236D01*
X4359912Y-5796598D01*
X4370584Y-5785650D01*
X4380757Y-5774380D01*
X4390395Y-5762776D01*
X4399464Y-5750826D01*
X4407928Y-5738517D01*
X4415753Y-5725838D01*
X4422903Y-5712775D01*
X4429342Y-5699318D01*
X4435037Y-5685454D01*
X4439952Y-5671170D01*
X4444052Y-5656454D01*
X4447302Y-5641296D01*
X4449667Y-5625681D01*
X4451112Y-5609598D01*
X4451601Y-5593035D01*
X4451202Y-5577841D01*
X4450012Y-5562994D01*
X4448040Y-5548502D01*
X4445292Y-5534375D01*
X4441779Y-5520620D01*
X4437509Y-5507249D01*
X4432490Y-5494268D01*
X4426730Y-5481687D01*
X4420239Y-5469516D01*
X4413025Y-5457762D01*
X4405096Y-5446435D01*
X4396462Y-5435543D01*
X4387130Y-5425096D01*
X4377108Y-5415103D01*
X4366407Y-5405571D01*
X4355034Y-5396511D01*
X4342997Y-5387932D01*
X4330305Y-5379841D01*
X4316968Y-5372248D01*
X4302992Y-5365162D01*
X4288388Y-5358592D01*
X4273162Y-5352546D01*
X4257325Y-5347034D01*
X4240884Y-5342064D01*
X4223849Y-5337646D01*
X4206226Y-5333788D01*
X4188026Y-5330499D01*
X4169257Y-5327788D01*
X4149926Y-5325664D01*
X4130044Y-5324136D01*
X4109618Y-5323212D01*
X4088656Y-5322903D01*
X4067944Y-5323244D01*
X4047761Y-5324260D01*
X4028115Y-5325936D01*
X4009016Y-5328257D01*
X3990471Y-5331209D01*
X3972489Y-5334778D01*
X3955079Y-5338949D01*
X3938248Y-5343709D01*
X3922006Y-5349043D01*
X3906360Y-5354936D01*
X3891319Y-5361374D01*
X3876892Y-5368343D01*
X3863086Y-5375829D01*
X3849911Y-5383817D01*
X3837374Y-5392294D01*
X3825484Y-5401244D01*
X3814250Y-5410653D01*
X3803680Y-5420507D01*
X3793782Y-5430792D01*
X3784564Y-5441494D01*
X3776036Y-5452598D01*
X3768205Y-5464089D01*
X3761080Y-5475954D01*
X3754669Y-5488179D01*
X3748981Y-5500748D01*
X3744024Y-5513648D01*
X3739807Y-5526864D01*
X3736338Y-5540382D01*
X3733625Y-5554188D01*
X3731676Y-5568267D01*
X3730501Y-5582605D01*
X3730108Y-5597187D01*
X3730529Y-5611679D01*
X3731771Y-5625762D01*
X3733801Y-5639455D01*
X3736588Y-5652772D01*
X3740099Y-5665730D01*
X3744301Y-5678344D01*
X3749164Y-5690632D01*
X3754654Y-5702609D01*
X3760740Y-5714291D01*
X3767388Y-5725694D01*
X3774568Y-5736835D01*
X3782246Y-5747729D01*
X3790391Y-5758393D01*
X3798970Y-5768842D01*
X3807951Y-5779093D01*
X3817302Y-5789162D01*
X3685167Y-5896873D01*
X3672120Y-5883839D01*
X3659322Y-5869933D01*
X3646853Y-5855173D01*
X3640768Y-5847478D01*
X3634796Y-5839576D01*
X3628947Y-5831468D01*
X3623232Y-5823156D01*
X3617661Y-5814644D01*
X3612245Y-5805932D01*
X3606992Y-5797023D01*
X3601915Y-5787919D01*
X3597022Y-5778622D01*
X3592324Y-5769134D01*
X3587832Y-5759458D01*
X3583555Y-5749594D01*
X3579504Y-5739545D01*
X3575689Y-5729314D01*
X3572121Y-5718902D01*
X3568809Y-5708312D01*
X3565764Y-5697545D01*
X3562996Y-5686603D01*
X3560515Y-5675489D01*
X3558332Y-5664205D01*
X3556457Y-5652752D01*
X3554899Y-5641133D01*
X3553670Y-5629350D01*
X3552779Y-5617404D01*
X3552238Y-5605299D01*
X3552055Y-5593035D01*
X3552640Y-5568617D01*
X3554390Y-5544478D01*
X3557294Y-5520650D01*
X3561341Y-5497166D01*
X3566521Y-5474058D01*
X3572822Y-5451360D01*
X3580235Y-5429102D01*
X3588748Y-5407319D01*
X3598352Y-5386043D01*
X3609035Y-5365305D01*
X3620787Y-5345139D01*
X3633598Y-5325578D01*
X3647456Y-5306653D01*
X3662352Y-5288398D01*
X3678274Y-5270845D01*
X3695211Y-5254026D01*
X3713155Y-5237975D01*
X3732093Y-5222723D01*
X3752015Y-5208303D01*
X3772911Y-5194748D01*
X3794769Y-5182090D01*
X3817581Y-5170362D01*
X3841333Y-5159597D01*
X3866017Y-5149826D01*
X3891622Y-5141083D01*
X3918136Y-5133400D01*
X3945550Y-5126810D01*
X3973853Y-5121345D01*
X4003034Y-5117038D01*
X4033082Y-5113921D01*
X4063987Y-5112027D01*
X4095739Y-5111388D01*
X4127831Y-5112007D01*
X4158982Y-5113841D01*
X4189186Y-5116863D01*
X4218440Y-5121041D01*
X4246737Y-5126345D01*
X4274072Y-5132747D01*
X4300441Y-5140215D01*
X4325839Y-5148719D01*
X4350260Y-5158231D01*
X4373698Y-5168719D01*
X4396150Y-5180154D01*
X4417610Y-5192507D01*
X4438073Y-5205746D01*
X4457534Y-5219842D01*
X4475987Y-5234765D01*
X4493428Y-5250485D01*
X4509851Y-5266972D01*
X4525252Y-5284196D01*
X4539625Y-5302127D01*
X4552965Y-5320736D01*
X4565267Y-5339992D01*
X4576526Y-5359865D01*
X4586737Y-5380325D01*
X4595895Y-5401343D01*
X4603995Y-5422888D01*
X4611031Y-5444930D01*
X4616999Y-5467440D01*
X4621893Y-5490387D01*
X4625708Y-5513742D01*
X4628440Y-5537475D01*
X4630082Y-5561555D01*
X4630631Y-5585952D01*
G37*
G36*
X4630631Y-6453747D02*
G01*
X4630216Y-6477202D01*
X4628962Y-6500025D01*
X4626860Y-6522209D01*
X4623899Y-6543748D01*
X4620067Y-6564632D01*
X4615354Y-6584856D01*
X4609749Y-6604411D01*
X4603241Y-6623290D01*
X4595821Y-6641485D01*
X4587476Y-6658990D01*
X4578196Y-6675797D01*
X4567970Y-6691898D01*
X4556788Y-6707286D01*
X4544638Y-6721954D01*
X4531510Y-6735893D01*
X4517394Y-6749098D01*
X4502278Y-6761559D01*
X4486151Y-6773271D01*
X4469004Y-6784225D01*
X4450824Y-6794413D01*
X4431602Y-6803830D01*
X4411326Y-6812466D01*
X4389985Y-6820315D01*
X4367570Y-6827370D01*
X4344069Y-6833622D01*
X4319471Y-6839065D01*
X4293766Y-6843691D01*
X4266942Y-6847492D01*
X4238990Y-6850462D01*
X4209898Y-6852592D01*
X4179655Y-6853876D01*
X4148251Y-6854305D01*
X3583318Y-6854305D01*
X3583318Y-6655492D01*
X4166325Y-6655492D01*
X4185904Y-6655263D01*
X4204667Y-6654581D01*
X4222629Y-6653452D01*
X4239802Y-6651882D01*
X4256198Y-6649877D01*
X4271830Y-6647443D01*
X4286711Y-6644587D01*
X4300854Y-6641314D01*
X4314270Y-6637631D01*
X4326973Y-6633544D01*
X4338976Y-6629058D01*
X4350290Y-6624180D01*
X4360930Y-6618917D01*
X4370906Y-6613274D01*
X4380233Y-6607257D01*
X4388922Y-6600873D01*
X4396987Y-6594127D01*
X4404439Y-6587026D01*
X4411293Y-6579577D01*
X4417559Y-6571784D01*
X4423252Y-6563654D01*
X4428383Y-6555193D01*
X4432965Y-6546408D01*
X4437011Y-6537305D01*
X4440534Y-6527889D01*
X4443546Y-6518167D01*
X4446060Y-6508145D01*
X4448089Y-6497829D01*
X4449644Y-6487225D01*
X4450740Y-6476339D01*
X4451388Y-6465178D01*
X4451601Y-6453747D01*
X4451388Y-6442591D01*
X4450740Y-6431704D01*
X4449644Y-6421091D01*
X4448089Y-6410759D01*
X4446060Y-6400712D01*
X4443546Y-6390957D01*
X4440534Y-6381498D01*
X4437011Y-6372342D01*
X4428383Y-6354959D01*
X4417559Y-6338853D01*
X4411293Y-6331293D01*
X4404439Y-6324069D01*
X4396987Y-6317187D01*
X4388922Y-6310651D01*
X4380233Y-6304469D01*
X4370906Y-6298645D01*
X4360930Y-6293184D01*
X4350290Y-6288094D01*
X4338976Y-6283378D01*
X4326973Y-6279043D01*
X4314270Y-6275095D01*
X4300854Y-6271538D01*
X4286711Y-6268379D01*
X4271830Y-6265623D01*
X4256198Y-6263276D01*
X4239802Y-6261342D01*
X4222629Y-6259829D01*
X4204667Y-6258741D01*
X4185904Y-6258084D01*
X4166325Y-6257864D01*
X3583318Y-6257864D01*
X3583318Y-6050502D01*
X4148251Y-6050502D01*
X4179655Y-6050944D01*
X4209898Y-6052262D01*
X4238990Y-6054447D01*
X4266942Y-6057491D01*
X4293766Y-6061383D01*
X4319471Y-6066116D01*
X4344069Y-6071679D01*
X4367570Y-6078063D01*
X4389985Y-6085260D01*
X4411326Y-6093260D01*
X4431602Y-6102053D01*
X4450824Y-6111631D01*
X4469004Y-6121984D01*
X4486151Y-6133103D01*
X4502278Y-6144979D01*
X4517394Y-6157603D01*
X4531510Y-6170965D01*
X4544638Y-6185056D01*
X4556788Y-6199868D01*
X4567970Y-6215390D01*
X4578196Y-6231614D01*
X4587476Y-6248530D01*
X4595821Y-6266129D01*
X4603241Y-6284403D01*
X4609749Y-6303341D01*
X4615354Y-6322935D01*
X4620067Y-6343175D01*
X4623899Y-6364052D01*
X4626860Y-6385557D01*
X4628962Y-6407680D01*
X4630216Y-6430414D01*
X4630631Y-6453747D01*
G37*
G36*
X4286737Y-7044571D02*
G01*
X4286737Y-7426811D01*
X4139947Y-7426811D01*
X4139947Y-7044571D01*
X4286737Y-7044571D01*
G37*
G36*
X4615000Y-7621228D02*
G01*
X4615000Y-8272379D01*
X4441587Y-8272379D01*
X4441587Y-7828590D01*
X4163394Y-7828590D01*
X4163394Y-8192512D01*
X3989738Y-8192512D01*
X3989738Y-7828590D01*
X3756974Y-7828590D01*
X3756974Y-8256992D01*
X3583318Y-8256992D01*
X3583318Y-7621228D01*
X4615000Y-7621228D01*
G37*
G36*
X4630631Y-8791395D02*
G01*
X4630212Y-8813547D01*
X4628971Y-8835117D01*
X4626929Y-8856097D01*
X4624107Y-8876479D01*
X4620528Y-8896255D01*
X4616212Y-8915418D01*
X4611182Y-8933959D01*
X4605459Y-8951871D01*
X4599065Y-8969145D01*
X4592021Y-8985773D01*
X4584349Y-9001748D01*
X4576071Y-9017061D01*
X4567209Y-9031706D01*
X4557783Y-9045672D01*
X4547817Y-9058954D01*
X4537330Y-9071542D01*
X4526346Y-9083429D01*
X4514885Y-9094607D01*
X4502969Y-9105067D01*
X4490621Y-9114802D01*
X4477861Y-9123805D01*
X4464711Y-9132066D01*
X4451193Y-9139578D01*
X4437328Y-9146334D01*
X4423139Y-9152324D01*
X4408646Y-9157542D01*
X4393872Y-9161978D01*
X4378838Y-9165626D01*
X4363565Y-9168477D01*
X4348076Y-9170523D01*
X4332392Y-9171757D01*
X4316535Y-9172170D01*
X4302634Y-9171929D01*
X4289136Y-9171212D01*
X4276034Y-9170025D01*
X4263319Y-9168377D01*
X4250984Y-9166273D01*
X4239022Y-9163721D01*
X4227425Y-9160728D01*
X4216185Y-9157302D01*
X4205295Y-9153449D01*
X4194746Y-9149177D01*
X4184532Y-9144493D01*
X4174644Y-9139403D01*
X4165076Y-9133916D01*
X4155818Y-9128038D01*
X4146865Y-9121777D01*
X4138207Y-9115139D01*
X4129838Y-9108132D01*
X4121749Y-9100763D01*
X4113933Y-9093039D01*
X4106383Y-9084968D01*
X4099091Y-9076555D01*
X4092049Y-9067810D01*
X4085249Y-9058738D01*
X4078684Y-9049346D01*
X4072346Y-9039643D01*
X4066228Y-9029635D01*
X4060322Y-9019330D01*
X4054620Y-9008733D01*
X4049115Y-8997854D01*
X4043798Y-8986698D01*
X4038663Y-8975273D01*
X4033702Y-8963587D01*
X3976060Y-8827788D01*
X3969552Y-8811450D01*
X3963162Y-8795557D01*
X3956806Y-8780192D01*
X3950403Y-8765441D01*
X3943870Y-8751386D01*
X3937124Y-8738113D01*
X3930082Y-8725704D01*
X3922663Y-8714245D01*
X3914782Y-8703819D01*
X3906358Y-8694511D01*
X3897308Y-8686403D01*
X3887549Y-8679582D01*
X3876999Y-8674130D01*
X3865574Y-8670131D01*
X3853193Y-8667670D01*
X3839773Y-8666832D01*
X3827150Y-8667498D01*
X3815215Y-8669475D01*
X3803985Y-8672727D01*
X3793477Y-8677219D01*
X3783709Y-8682917D01*
X3774699Y-8689784D01*
X3766463Y-8697786D01*
X3759020Y-8706887D01*
X3752387Y-8717054D01*
X3746581Y-8728250D01*
X3741621Y-8740441D01*
X3737523Y-8753591D01*
X3734305Y-8767666D01*
X3731985Y-8782630D01*
X3730580Y-8798449D01*
X3730108Y-8815087D01*
X3730467Y-8830921D01*
X3731537Y-8846381D01*
X3733310Y-8861487D01*
X3735775Y-8876258D01*
X3738922Y-8890717D01*
X3742743Y-8904882D01*
X3747227Y-8918775D01*
X3752364Y-8932415D01*
X3758146Y-8945824D01*
X3764562Y-8959021D01*
X3771602Y-8972027D01*
X3779258Y-8984862D01*
X3787519Y-8997548D01*
X3796375Y-9010103D01*
X3805818Y-9022549D01*
X3815837Y-9034905D01*
X3685167Y-9139930D01*
X3677264Y-9131948D01*
X3669585Y-9123759D01*
X3662131Y-9115370D01*
X3654904Y-9106788D01*
X3647906Y-9098019D01*
X3641139Y-9089071D01*
X3634604Y-9079949D01*
X3628304Y-9070660D01*
X3622240Y-9061212D01*
X3616414Y-9051610D01*
X3610828Y-9041862D01*
X3605483Y-9031974D01*
X3600381Y-9021953D01*
X3595525Y-9011805D01*
X3590915Y-9001537D01*
X3586554Y-8991155D01*
X3582443Y-8980668D01*
X3578585Y-8970080D01*
X3574981Y-8959399D01*
X3571632Y-8948631D01*
X3568541Y-8937783D01*
X3565710Y-8926862D01*
X3563139Y-8915875D01*
X3560832Y-8904827D01*
X3558789Y-8893726D01*
X3557013Y-8882579D01*
X3555506Y-8871391D01*
X3554268Y-8860170D01*
X3553302Y-8848923D01*
X3552610Y-8837655D01*
X3552194Y-8826374D01*
X3552055Y-8815087D01*
X3552434Y-8795600D01*
X3553561Y-8776488D01*
X3555419Y-8757768D01*
X3557991Y-8739454D01*
X3561261Y-8721564D01*
X3565212Y-8704112D01*
X3569827Y-8687116D01*
X3575090Y-8670591D01*
X3580984Y-8654552D01*
X3587493Y-8639017D01*
X3594599Y-8624000D01*
X3602287Y-8609518D01*
X3610539Y-8595587D01*
X3619339Y-8582223D01*
X3628670Y-8569441D01*
X3638517Y-8557258D01*
X3648861Y-8545690D01*
X3659686Y-8534752D01*
X3670977Y-8524461D01*
X3682715Y-8514833D01*
X3694885Y-8505883D01*
X3707470Y-8497627D01*
X3720453Y-8490082D01*
X3733817Y-8483264D01*
X3747547Y-8477188D01*
X3761624Y-8471870D01*
X3776034Y-8467326D01*
X3790758Y-8463573D01*
X3805781Y-8460626D01*
X3821086Y-8458502D01*
X3836655Y-8457215D01*
X3852473Y-8456783D01*
X3866497Y-8457087D01*
X3880132Y-8457988D01*
X3893383Y-8459465D01*
X3906254Y-8461501D01*
X3918752Y-8464074D01*
X3930880Y-8467167D01*
X3942644Y-8470760D01*
X3954048Y-8474834D01*
X3965097Y-8479369D01*
X3975796Y-8484346D01*
X3986149Y-8489747D01*
X3996163Y-8495551D01*
X4005840Y-8501740D01*
X4015187Y-8508295D01*
X4024208Y-8515195D01*
X4032908Y-8522423D01*
X4041291Y-8529958D01*
X4049363Y-8537782D01*
X4057129Y-8545875D01*
X4064593Y-8554217D01*
X4071759Y-8562791D01*
X4078634Y-8571576D01*
X4085221Y-8580554D01*
X4091526Y-8589704D01*
X4097553Y-8599009D01*
X4103308Y-8608448D01*
X4108794Y-8618002D01*
X4114017Y-8627652D01*
X4118982Y-8637380D01*
X4123694Y-8647165D01*
X4128157Y-8656989D01*
X4132376Y-8666832D01*
X4191238Y-8805317D01*
X4198491Y-8822319D01*
X4205478Y-8838580D01*
X4212300Y-8854049D01*
X4219059Y-8868679D01*
X4225855Y-8882420D01*
X4232789Y-8895224D01*
X4239962Y-8907041D01*
X4247475Y-8917822D01*
X4255429Y-8927518D01*
X4263924Y-8936080D01*
X4273062Y-8943460D01*
X4282944Y-8949607D01*
X4293670Y-8954474D01*
X4305341Y-8958011D01*
X4318058Y-8960170D01*
X4331922Y-8960900D01*
X4345341Y-8960229D01*
X4358102Y-8958223D01*
X4370176Y-8954891D01*
X4381534Y-8950245D01*
X4392148Y-8944293D01*
X4401989Y-8937046D01*
X4411029Y-8928514D01*
X4419239Y-8918707D01*
X4426590Y-8907635D01*
X4433054Y-8895307D01*
X4438602Y-8881735D01*
X4443205Y-8866927D01*
X4446835Y-8850895D01*
X4449464Y-8833647D01*
X4451062Y-8815195D01*
X4451601Y-8795547D01*
X4451063Y-8778433D01*
X4449472Y-8761194D01*
X4446864Y-8743875D01*
X4443274Y-8726522D01*
X4438736Y-8709183D01*
X4433286Y-8691902D01*
X4426958Y-8674727D01*
X4419788Y-8657703D01*
X4411812Y-8640876D01*
X4403063Y-8624294D01*
X4393577Y-8608001D01*
X4383389Y-8592044D01*
X4372534Y-8576469D01*
X4361047Y-8561322D01*
X4348964Y-8546650D01*
X4336318Y-8532498D01*
X4479445Y-8413307D01*
X4488388Y-8422874D01*
X4497082Y-8432655D01*
X4505523Y-8442645D01*
X4513710Y-8452835D01*
X4521641Y-8463219D01*
X4529313Y-8473790D01*
X4536724Y-8484541D01*
X4543871Y-8495465D01*
X4550754Y-8506555D01*
X4557368Y-8517804D01*
X4563713Y-8529205D01*
X4569785Y-8540751D01*
X4575583Y-8552435D01*
X4581104Y-8564250D01*
X4586347Y-8576190D01*
X4591308Y-8588246D01*
X4595986Y-8600413D01*
X4600378Y-8612683D01*
X4604483Y-8625050D01*
X4608297Y-8637505D01*
X4611819Y-8650043D01*
X4615047Y-8662656D01*
X4617978Y-8675338D01*
X4620609Y-8688081D01*
X4622940Y-8700878D01*
X4624967Y-8713723D01*
X4626688Y-8726608D01*
X4628102Y-8739526D01*
X4629205Y-8752471D01*
X4629996Y-8765436D01*
X4630472Y-8778413D01*
X4630631Y-8791395D01*
G37*
G36*
X4615000Y-9562714D02*
G01*
X4247414Y-9562714D01*
X4247414Y-9701200D01*
X4247102Y-9721947D01*
X4246164Y-9742406D01*
X4244595Y-9762554D01*
X4242392Y-9782365D01*
X4239550Y-9801815D01*
X4236067Y-9820881D01*
X4231937Y-9839537D01*
X4227157Y-9857760D01*
X4221723Y-9875524D01*
X4215631Y-9892807D01*
X4208878Y-9909582D01*
X4201458Y-9925827D01*
X4193369Y-9941517D01*
X4184606Y-9956626D01*
X4175165Y-9971132D01*
X4165043Y-9985010D01*
X4154235Y-9998235D01*
X4142738Y-10010784D01*
X4130548Y-10022630D01*
X4117660Y-10033752D01*
X4104071Y-10044123D01*
X4089777Y-10053721D01*
X4074773Y-10062519D01*
X4059057Y-10070495D01*
X4042624Y-10077624D01*
X4025469Y-10083881D01*
X4007590Y-10089242D01*
X3988982Y-10093683D01*
X3969642Y-10097179D01*
X3949564Y-10099707D01*
X3928746Y-10101241D01*
X3907184Y-10101758D01*
X3884916Y-10101245D01*
X3863578Y-10099719D01*
X3843156Y-10097204D01*
X3823634Y-10093722D01*
X3804998Y-10089296D01*
X3787234Y-10083948D01*
X3770326Y-10077702D01*
X3754261Y-10070579D01*
X3739023Y-10062603D01*
X3724598Y-10053795D01*
X3710972Y-10044179D01*
X3698129Y-10033778D01*
X3686055Y-10022613D01*
X3674735Y-10010708D01*
X3664155Y-9998084D01*
X3654301Y-9984766D01*
X3645157Y-9970775D01*
X3636709Y-9956134D01*
X3628942Y-9940865D01*
X3621842Y-9924992D01*
X3615394Y-9908537D01*
X3609583Y-9891522D01*
X3604395Y-9873971D01*
X3599816Y-9855905D01*
X3595829Y-9837348D01*
X3592422Y-9818321D01*
X3589579Y-9798849D01*
X3587286Y-9778952D01*
X3585528Y-9758655D01*
X3584290Y-9737979D01*
X3583558Y-9716947D01*
X3583318Y-9695582D01*
X3583318Y-9562714D01*
X3748670Y-9562714D01*
X3748670Y-9680195D01*
X3748789Y-9693393D01*
X3749149Y-9706194D01*
X3749758Y-9718597D01*
X3750623Y-9730600D01*
X3751750Y-9742203D01*
X3753148Y-9753403D01*
X3754822Y-9764200D01*
X3756780Y-9774591D01*
X3759029Y-9784576D01*
X3761575Y-9794152D01*
X3767591Y-9812073D01*
X3774882Y-9828344D01*
X3783505Y-9842952D01*
X3793517Y-9855886D01*
X3804972Y-9867134D01*
X3817929Y-9876684D01*
X3832442Y-9884523D01*
X3848567Y-9890641D01*
X3866362Y-9895026D01*
X3885882Y-9897666D01*
X3896307Y-9898327D01*
X3907184Y-9898548D01*
X3918004Y-9898347D01*
X3928484Y-9897743D01*
X3938623Y-9896734D01*
X3948421Y-9895321D01*
X3966992Y-9891274D01*
X3984197Y-9885596D01*
X4000033Y-9878277D01*
X4014500Y-9869311D01*
X4027596Y-9858688D01*
X4039319Y-9846402D01*
X4049669Y-9832445D01*
X4058643Y-9816808D01*
X4066240Y-9799484D01*
X4069522Y-9790186D01*
X4072460Y-9780464D01*
X4075052Y-9770317D01*
X4077300Y-9759742D01*
X4079202Y-9748740D01*
X4080758Y-9737309D01*
X4081969Y-9725448D01*
X4082835Y-9713157D01*
X4083354Y-9700434D01*
X4083527Y-9687278D01*
X4083527Y-9562714D01*
X3748670Y-9562714D01*
X3583318Y-9562714D01*
X3583318Y-9355352D01*
X4615000Y-9355352D01*
X4615000Y-9562714D01*
G37*
G36*
X4630631Y-10544571D02*
G01*
X4630316Y-10562978D01*
X4629376Y-10581182D01*
X4627817Y-10599157D01*
X4625644Y-10616879D01*
X4622862Y-10634321D01*
X4619479Y-10651461D01*
X4615498Y-10668271D01*
X4610928Y-10684728D01*
X4605772Y-10700806D01*
X4600037Y-10716481D01*
X4593728Y-10731727D01*
X4586852Y-10746520D01*
X4579414Y-10760835D01*
X4571420Y-10774646D01*
X4562875Y-10787929D01*
X4553786Y-10800659D01*
X4544158Y-10812811D01*
X4533997Y-10824359D01*
X4523309Y-10835280D01*
X4512099Y-10845547D01*
X4500374Y-10855137D01*
X4488138Y-10864023D01*
X4475399Y-10872182D01*
X4462161Y-10879588D01*
X4448430Y-10886216D01*
X4434212Y-10892041D01*
X4419514Y-10897038D01*
X4404340Y-10901183D01*
X4388696Y-10904450D01*
X4372588Y-10906815D01*
X4356023Y-10908252D01*
X4339005Y-10908737D01*
X4326777Y-10908476D01*
X4314824Y-10907702D01*
X4303147Y-10906425D01*
X4291748Y-10904658D01*
X4280628Y-10902412D01*
X4269788Y-10899698D01*
X4259230Y-10896528D01*
X4248956Y-10892914D01*
X4238966Y-10888867D01*
X4229263Y-10884399D01*
X4219847Y-10879521D01*
X4210720Y-10874244D01*
X4201884Y-10868581D01*
X4193340Y-10862542D01*
X4185089Y-10856140D01*
X4177133Y-10849386D01*
X4169473Y-10842291D01*
X4162111Y-10834867D01*
X4155048Y-10827125D01*
X4148286Y-10819078D01*
X4141825Y-10810736D01*
X4135668Y-10802111D01*
X4129816Y-10793214D01*
X4124270Y-10784058D01*
X4119031Y-10774654D01*
X4114102Y-10765013D01*
X4109484Y-10755146D01*
X4105177Y-10745066D01*
X4101184Y-10734784D01*
X4097505Y-10724311D01*
X4094143Y-10713659D01*
X4091099Y-10702840D01*
X4084016Y-10702840D01*
X4079867Y-10712811D01*
X4075526Y-10722524D01*
X4070993Y-10731976D01*
X4066268Y-10741164D01*
X4061351Y-10750082D01*
X4056241Y-10758728D01*
X4050939Y-10767097D01*
X4045444Y-10775185D01*
X4033876Y-10790505D01*
X4021535Y-10804656D01*
X4008420Y-10817607D01*
X3994531Y-10829327D01*
X3979866Y-10839785D01*
X3964425Y-10848949D01*
X3948205Y-10856789D01*
X3931207Y-10863273D01*
X3913429Y-10868371D01*
X3894870Y-10872050D01*
X3875529Y-10874281D01*
X3865564Y-10874843D01*
X3855404Y-10875031D01*
X3839324Y-10874635D01*
X3823691Y-10873457D01*
X3808510Y-10871509D01*
X3793784Y-10868805D01*
X3779519Y-10865357D01*
X3765719Y-10861179D01*
X3752386Y-10856283D01*
X3739526Y-10850683D01*
X3727143Y-10844392D01*
X3715240Y-10837423D01*
X3703822Y-10829788D01*
X3692893Y-10821502D01*
X3682457Y-10812576D01*
X3672518Y-10803025D01*
X3663080Y-10792861D01*
X3654148Y-10782097D01*
X3645725Y-10770746D01*
X3637816Y-10758821D01*
X3630425Y-10746336D01*
X3623555Y-10733303D01*
X3617211Y-10719736D01*
X3611397Y-10705647D01*
X3606118Y-10691050D01*
X3601376Y-10675958D01*
X3597178Y-10660383D01*
X3593525Y-10644339D01*
X3590423Y-10627839D01*
X3587876Y-10610896D01*
X3585888Y-10593523D01*
X3584463Y-10575732D01*
X3583605Y-10557538D01*
X3583318Y-10538953D01*
X3583465Y-10527615D01*
X3583905Y-10516404D01*
X3584632Y-10505319D01*
X3585643Y-10494358D01*
X3586934Y-10483518D01*
X3588500Y-10472796D01*
X3590338Y-10462192D01*
X3592442Y-10451701D01*
X3594810Y-10441322D01*
X3597437Y-10431053D01*
X3600318Y-10420892D01*
X3603449Y-10410836D01*
X3606827Y-10400882D01*
X3610447Y-10391029D01*
X3614305Y-10381275D01*
X3618397Y-10371616D01*
X3622719Y-10362051D01*
X3627266Y-10352578D01*
X3632034Y-10343194D01*
X3637020Y-10333896D01*
X3642219Y-10324684D01*
X3647627Y-10315553D01*
X3653239Y-10306503D01*
X3659052Y-10297530D01*
X3665062Y-10288633D01*
X3671263Y-10279809D01*
X3677653Y-10271057D01*
X3684227Y-10262372D01*
X3690980Y-10253754D01*
X3697909Y-10245201D01*
X3705010Y-10236709D01*
X3712278Y-10228276D01*
X3838551Y-10333300D01*
X3828010Y-10344828D01*
X3818014Y-10356343D01*
X3808582Y-10367870D01*
X3799732Y-10379432D01*
X3791483Y-10391051D01*
X3783854Y-10402749D01*
X3776864Y-10414551D01*
X3770530Y-10426479D01*
X3764871Y-10438556D01*
X3759907Y-10450804D01*
X3755656Y-10463247D01*
X3752135Y-10475908D01*
X3749365Y-10488809D01*
X3747363Y-10501973D01*
X3746148Y-10515424D01*
X3745739Y-10529183D01*
X3746280Y-10545271D01*
X3747887Y-10560459D01*
X3750540Y-10574727D01*
X3754219Y-10588057D01*
X3758902Y-10600430D01*
X3764570Y-10611826D01*
X3771200Y-10622226D01*
X3778773Y-10631613D01*
X3787268Y-10639966D01*
X3796663Y-10647267D01*
X3806938Y-10653496D01*
X3818073Y-10658636D01*
X3830047Y-10662666D01*
X3842838Y-10665569D01*
X3856427Y-10667324D01*
X3870792Y-10667913D01*
X3886848Y-10667173D01*
X3902280Y-10664886D01*
X3917032Y-10660956D01*
X3931047Y-10655285D01*
X3944267Y-10647775D01*
X3956637Y-10638328D01*
X3968098Y-10626847D01*
X3978594Y-10613233D01*
X3988069Y-10597390D01*
X3992405Y-10588602D01*
X3996465Y-10579220D01*
X4000240Y-10569232D01*
X4003725Y-10558625D01*
X4006911Y-10547387D01*
X4009792Y-10535507D01*
X4012361Y-10522971D01*
X4014611Y-10509768D01*
X4016534Y-10495886D01*
X4018123Y-10481312D01*
X4019371Y-10466034D01*
X4020272Y-10450040D01*
X4020817Y-10433318D01*
X4021001Y-10415855D01*
X4169501Y-10415855D01*
X4169675Y-10436508D01*
X4170196Y-10456212D01*
X4171060Y-10474985D01*
X4172262Y-10492848D01*
X4173798Y-10509819D01*
X4175664Y-10525917D01*
X4177856Y-10541162D01*
X4180369Y-10555573D01*
X4183201Y-10569169D01*
X4186346Y-10581970D01*
X4189800Y-10593995D01*
X4193560Y-10605263D01*
X4197622Y-10615794D01*
X4201980Y-10625606D01*
X4206631Y-10634720D01*
X4211571Y-10643153D01*
X4222302Y-10658058D01*
X4234139Y-10670475D01*
X4247049Y-10680559D01*
X4261000Y-10688464D01*
X4275958Y-10694344D01*
X4291891Y-10698352D01*
X4308765Y-10700645D01*
X4326549Y-10701374D01*
X4342288Y-10700548D01*
X4357159Y-10698105D01*
X4371142Y-10694100D01*
X4384217Y-10688590D01*
X4396363Y-10681628D01*
X4407560Y-10673270D01*
X4417787Y-10663572D01*
X4427024Y-10652587D01*
X4435251Y-10640372D01*
X4442447Y-10626981D01*
X4448592Y-10612469D01*
X4453666Y-10596892D01*
X4457647Y-10580305D01*
X4460516Y-10562762D01*
X4462253Y-10544319D01*
X4462836Y-10525031D01*
X4462306Y-10507656D01*
X4460746Y-10490700D01*
X4458204Y-10474155D01*
X4454727Y-10458017D01*
X4450360Y-10442280D01*
X4445152Y-10426937D01*
X4439149Y-10411984D01*
X4432397Y-10397414D01*
X4424945Y-10383222D01*
X4416838Y-10369403D01*
X4408123Y-10355949D01*
X4398848Y-10342856D01*
X4389060Y-10330119D01*
X4378804Y-10317730D01*
X4368128Y-10305685D01*
X4357079Y-10293977D01*
X4486528Y-10197501D01*
X4494204Y-10204436D01*
X4501751Y-10211593D01*
X4509159Y-10218977D01*
X4516422Y-10226590D01*
X4523532Y-10234435D01*
X4530482Y-10242514D01*
X4537264Y-10250832D01*
X4543871Y-10259390D01*
X4550296Y-10268192D01*
X4556531Y-10277241D01*
X4562569Y-10286539D01*
X4568402Y-10296089D01*
X4574022Y-10305895D01*
X4579423Y-10315959D01*
X4584598Y-10326284D01*
X4589537Y-10336873D01*
X4594235Y-10347728D01*
X4598684Y-10358854D01*
X4602875Y-10370252D01*
X4606803Y-10381926D01*
X4610459Y-10393879D01*
X4613836Y-10406113D01*
X4616927Y-10418631D01*
X4619724Y-10431436D01*
X4622220Y-10444532D01*
X4624407Y-10457921D01*
X4626278Y-10471606D01*
X4627825Y-10485589D01*
X4629042Y-10499875D01*
X4629920Y-10514465D01*
X4630452Y-10529362D01*
X4630631Y-10544571D01*
G37*
G36*
X4615000Y-11045757D02*
G01*
X4615000Y-11740139D01*
X4441587Y-11740139D01*
X4441587Y-11513482D01*
X4441731Y-11499189D01*
X4441977Y-11489177D01*
X4442335Y-11478841D01*
X4442795Y-11468233D01*
X4443350Y-11457407D01*
X4443992Y-11446416D01*
X4444711Y-11435313D01*
X4445501Y-11424153D01*
X4446352Y-11412988D01*
X4447257Y-11401871D01*
X4448207Y-11390856D01*
X4449195Y-11379996D01*
X4450210Y-11369345D01*
X4451247Y-11358955D01*
X4452296Y-11348880D01*
X4452822Y-11343977D01*
X4434674Y-11361241D01*
X4416591Y-11378347D01*
X4398571Y-11395270D01*
X4380615Y-11411985D01*
X4362720Y-11428466D01*
X4344885Y-11444687D01*
X4327111Y-11460622D01*
X4309394Y-11476246D01*
X4291736Y-11491534D01*
X4274134Y-11506459D01*
X4256588Y-11520997D01*
X4239096Y-11535121D01*
X4221658Y-11548806D01*
X4204272Y-11562025D01*
X4186937Y-11574755D01*
X4169653Y-11586968D01*
X4152419Y-11598640D01*
X4135232Y-11609745D01*
X4118093Y-11620256D01*
X4101000Y-11630149D01*
X4083953Y-11639398D01*
X4066950Y-11647977D01*
X4049990Y-11655861D01*
X4033072Y-11663023D01*
X4016195Y-11669439D01*
X3999359Y-11675083D01*
X3982561Y-11679928D01*
X3965802Y-11683951D01*
X3949079Y-11687123D01*
X3932393Y-11689421D01*
X3915741Y-11690819D01*
X3899124Y-11691291D01*
X3881413Y-11690911D01*
X3864102Y-11689781D01*
X3847199Y-11687911D01*
X3830717Y-11685314D01*
X3814665Y-11682001D01*
X3799055Y-11677984D01*
X3783897Y-11673275D01*
X3769202Y-11667885D01*
X3754980Y-11661827D01*
X3741244Y-11655112D01*
X3728002Y-11647752D01*
X3715266Y-11639758D01*
X3703047Y-11631142D01*
X3691355Y-11621917D01*
X3680201Y-11612094D01*
X3669596Y-11601684D01*
X3659551Y-11590700D01*
X3650076Y-11579153D01*
X3641182Y-11567054D01*
X3632880Y-11554417D01*
X3625180Y-11541252D01*
X3618094Y-11527571D01*
X3611631Y-11513386D01*
X3605803Y-11498709D01*
X3600621Y-11483551D01*
X3596095Y-11467925D01*
X3592235Y-11451842D01*
X3589054Y-11435313D01*
X3586560Y-11418351D01*
X3584766Y-11400968D01*
X3583682Y-11383174D01*
X3583318Y-11364982D01*
X3583482Y-11351867D01*
X3583974Y-11339029D01*
X3584790Y-11326460D01*
X3585931Y-11314151D01*
X3587393Y-11302090D01*
X3589175Y-11290270D01*
X3591275Y-11278681D01*
X3593690Y-11267312D01*
X3596420Y-11256155D01*
X3599462Y-11245199D01*
X3602815Y-11234436D01*
X3606476Y-11223856D01*
X3610444Y-11213449D01*
X3614716Y-11203206D01*
X3619291Y-11193118D01*
X3624167Y-11183174D01*
X3629343Y-11173365D01*
X3634815Y-11163682D01*
X3640583Y-11154116D01*
X3646644Y-11144656D01*
X3652997Y-11135293D01*
X3659640Y-11126017D01*
X3666570Y-11116820D01*
X3673787Y-11107691D01*
X3681287Y-11098622D01*
X3689070Y-11089602D01*
X3697133Y-11080622D01*
X3705474Y-11071672D01*
X3714092Y-11062743D01*
X3722985Y-11053826D01*
X3732151Y-11044910D01*
X3741587Y-11035987D01*
X3854183Y-11147850D01*
X3843466Y-11157935D01*
X3832974Y-11168228D01*
X3822771Y-11178736D01*
X3812921Y-11189467D01*
X3803490Y-11200428D01*
X3794540Y-11211628D01*
X3786137Y-11223073D01*
X3778346Y-11234770D01*
X3771229Y-11246728D01*
X3764853Y-11258955D01*
X3759281Y-11271456D01*
X3754578Y-11284241D01*
X3750807Y-11297316D01*
X3748035Y-11310689D01*
X3746324Y-11324368D01*
X3745739Y-11338360D01*
X3746461Y-11356486D01*
X3748605Y-11373575D01*
X3752141Y-11389609D01*
X3757035Y-11404569D01*
X3763258Y-11418437D01*
X3770778Y-11431194D01*
X3779563Y-11442824D01*
X3789581Y-11453307D01*
X3800801Y-11462624D01*
X3813192Y-11470759D01*
X3826722Y-11477692D01*
X3841360Y-11483406D01*
X3857074Y-11487881D01*
X3873833Y-11491101D01*
X3891605Y-11493046D01*
X3910359Y-11493698D01*
X3924521Y-11493180D01*
X3938851Y-11491635D01*
X3953359Y-11489080D01*
X3968053Y-11485530D01*
X3982945Y-11481001D01*
X3998044Y-11475508D01*
X4013361Y-11469068D01*
X4028904Y-11461695D01*
X4044685Y-11453405D01*
X4060713Y-11444215D01*
X4076999Y-11434139D01*
X4093551Y-11423193D01*
X4110381Y-11411394D01*
X4127497Y-11398756D01*
X4144911Y-11385295D01*
X4162631Y-11371027D01*
X4180669Y-11355968D01*
X4199033Y-11340133D01*
X4217735Y-11323538D01*
X4236783Y-11306199D01*
X4256189Y-11288131D01*
X4275961Y-11269349D01*
X4296110Y-11249871D01*
X4316645Y-11229710D01*
X4337578Y-11208883D01*
X4358917Y-11187406D01*
X4380673Y-11165293D01*
X4402856Y-11142562D01*
X4425475Y-11119227D01*
X4448541Y-11095304D01*
X4472064Y-11070809D01*
X4496053Y-11045757D01*
X4615000Y-11045757D01*
G37*
G36*
X4630631Y-12360272D02*
G01*
X4630476Y-12372818D01*
X4630012Y-12385224D01*
X4629239Y-12397490D01*
X4628160Y-12409614D01*
X4626774Y-12421596D01*
X4625085Y-12433438D01*
X4623092Y-12445137D01*
X4620796Y-12456694D01*
X4618200Y-12468109D01*
X4615305Y-12479381D01*
X4612111Y-12490511D01*
X4608619Y-12501497D01*
X4604832Y-12512339D01*
X4600749Y-12523038D01*
X4596373Y-12533593D01*
X4591705Y-12544004D01*
X4586745Y-12554270D01*
X4581495Y-12564391D01*
X4575957Y-12574367D01*
X4570131Y-12584198D01*
X4564018Y-12593883D01*
X4557621Y-12603422D01*
X4550939Y-12612815D01*
X4543974Y-12622062D01*
X4536728Y-12631162D01*
X4529202Y-12640115D01*
X4521396Y-12648921D01*
X4513313Y-12657579D01*
X4504953Y-12666090D01*
X4496317Y-12674452D01*
X4487407Y-12682667D01*
X4478224Y-12690732D01*
X4348775Y-12581556D01*
X4359912Y-12570918D01*
X4370584Y-12559970D01*
X4380757Y-12548700D01*
X4390395Y-12537096D01*
X4399464Y-12525146D01*
X4407928Y-12512837D01*
X4415753Y-12500157D01*
X4422903Y-12487095D01*
X4429342Y-12473638D01*
X4435037Y-12459773D01*
X4439952Y-12445489D01*
X4444052Y-12430774D01*
X4447302Y-12415615D01*
X4449667Y-12400000D01*
X4451112Y-12383918D01*
X4451601Y-12367355D01*
X4451202Y-12352161D01*
X4450012Y-12337313D01*
X4448040Y-12322822D01*
X4445292Y-12308694D01*
X4441779Y-12294940D01*
X4437509Y-12281568D01*
X4432490Y-12268588D01*
X4426730Y-12256007D01*
X4420239Y-12243835D01*
X4413025Y-12232081D01*
X4405096Y-12220754D01*
X4396462Y-12209863D01*
X4387130Y-12199416D01*
X4377108Y-12189422D01*
X4366407Y-12179891D01*
X4355034Y-12170831D01*
X4342997Y-12162251D01*
X4330305Y-12154160D01*
X4316968Y-12146568D01*
X4302992Y-12139482D01*
X4288388Y-12132911D01*
X4273162Y-12126866D01*
X4257325Y-12121354D01*
X4240884Y-12116384D01*
X4223849Y-12111966D01*
X4206226Y-12108108D01*
X4188026Y-12104819D01*
X4169257Y-12102108D01*
X4149926Y-12099984D01*
X4130044Y-12098456D01*
X4109618Y-12097532D01*
X4088656Y-12097222D01*
X4067944Y-12097564D01*
X4047761Y-12098580D01*
X4028115Y-12100256D01*
X4009016Y-12102577D01*
X3990471Y-12105529D01*
X3972489Y-12109098D01*
X3955079Y-12113269D01*
X3938248Y-12118029D01*
X3922006Y-12123362D01*
X3906360Y-12129255D01*
X3891319Y-12135694D01*
X3876892Y-12142663D01*
X3863086Y-12150149D01*
X3849911Y-12158137D01*
X3837374Y-12166613D01*
X3825484Y-12175563D01*
X3814250Y-12184973D01*
X3803680Y-12194827D01*
X3793782Y-12205112D01*
X3784564Y-12215814D01*
X3776036Y-12226917D01*
X3768205Y-12238409D01*
X3761080Y-12250274D01*
X3754669Y-12262498D01*
X3748981Y-12275068D01*
X3744024Y-12287967D01*
X3739807Y-12301183D01*
X3736338Y-12314701D01*
X3733625Y-12328507D01*
X3731676Y-12342586D01*
X3730501Y-12356924D01*
X3730108Y-12371507D01*
X3730529Y-12385998D01*
X3731771Y-12400082D01*
X3733801Y-12413774D01*
X3736588Y-12427091D01*
X3740099Y-12440049D01*
X3744301Y-12452664D01*
X3749164Y-12464952D01*
X3754654Y-12476928D01*
X3760740Y-12488610D01*
X3767388Y-12500014D01*
X3774568Y-12511154D01*
X3782246Y-12522048D01*
X3790391Y-12532712D01*
X3798970Y-12543162D01*
X3807951Y-12553413D01*
X3817302Y-12563482D01*
X3685167Y-12671193D01*
X3672120Y-12658158D01*
X3659322Y-12644253D01*
X3646853Y-12629493D01*
X3640768Y-12621798D01*
X3634796Y-12613895D01*
X3628947Y-12605787D01*
X3623232Y-12597476D01*
X3617661Y-12588963D01*
X3612245Y-12580252D01*
X3606992Y-12571343D01*
X3601915Y-12562239D01*
X3597022Y-12552942D01*
X3592324Y-12543454D01*
X3587832Y-12533777D01*
X3583555Y-12523913D01*
X3579504Y-12513865D01*
X3575689Y-12503634D01*
X3572121Y-12493222D01*
X3568809Y-12482631D01*
X3565764Y-12471864D01*
X3562996Y-12460923D01*
X3560515Y-12449809D01*
X3558332Y-12438524D01*
X3556457Y-12427072D01*
X3554899Y-12415453D01*
X3553670Y-12403669D01*
X3552779Y-12391724D01*
X3552238Y-12379618D01*
X3552055Y-12367355D01*
X3552640Y-12342937D01*
X3554390Y-12318798D01*
X3557294Y-12294970D01*
X3561341Y-12271486D01*
X3566521Y-12248378D01*
X3572822Y-12225679D01*
X3580235Y-12203422D01*
X3588748Y-12181639D01*
X3598352Y-12160362D01*
X3609035Y-12139625D01*
X3620787Y-12119459D01*
X3633598Y-12099898D01*
X3647456Y-12080973D01*
X3662352Y-12062718D01*
X3678274Y-12045165D01*
X3695211Y-12028346D01*
X3713155Y-12012294D01*
X3732093Y-11997042D01*
X3752015Y-11982622D01*
X3772911Y-11969067D01*
X3794769Y-11956410D01*
X3817581Y-11944682D01*
X3841333Y-11933916D01*
X3866017Y-11924146D01*
X3891622Y-11915403D01*
X3918136Y-11907720D01*
X3945550Y-11901130D01*
X3973853Y-11895665D01*
X4003034Y-11891357D01*
X4033082Y-11888241D01*
X4063987Y-11886347D01*
X4095739Y-11885708D01*
X4127831Y-11886326D01*
X4158982Y-11888161D01*
X4189186Y-11891182D01*
X4218440Y-11895360D01*
X4246737Y-11900665D01*
X4274072Y-11907066D01*
X4300441Y-11914534D01*
X4325839Y-11923039D01*
X4350260Y-11932551D01*
X4373698Y-11943039D01*
X4396150Y-11954474D01*
X4417610Y-11966826D01*
X4438073Y-11980065D01*
X4457534Y-11994161D01*
X4475987Y-12009084D01*
X4493428Y-12024804D01*
X4509851Y-12041291D01*
X4525252Y-12058516D01*
X4539625Y-12076447D01*
X4552965Y-12095056D01*
X4565267Y-12114311D01*
X4576526Y-12134184D01*
X4586737Y-12154645D01*
X4595895Y-12175662D01*
X4603995Y-12197207D01*
X4611031Y-12219250D01*
X4616999Y-12241760D01*
X4621893Y-12264707D01*
X4625708Y-12288062D01*
X4628440Y-12311794D01*
X4630082Y-12335874D01*
X4630631Y-12360272D01*
G37*
G36*
X4630631Y-13113028D02*
G01*
X4630316Y-13131436D01*
X4629376Y-13149640D01*
X4627817Y-13167615D01*
X4625644Y-13185337D01*
X4622862Y-13202779D01*
X4619479Y-13219918D01*
X4615498Y-13236729D01*
X4610928Y-13253186D01*
X4605772Y-13269264D01*
X4600037Y-13284939D01*
X4593728Y-13300185D01*
X4586852Y-13314978D01*
X4579414Y-13329293D01*
X4571420Y-13343104D01*
X4562875Y-13356387D01*
X4553786Y-13369117D01*
X4544158Y-13381269D01*
X4533997Y-13392817D01*
X4523309Y-13403738D01*
X4512099Y-13414005D01*
X4500374Y-13423595D01*
X4488138Y-13432481D01*
X4475399Y-13440640D01*
X4462161Y-13448046D01*
X4448430Y-13454673D01*
X4434212Y-13460499D01*
X4419514Y-13465496D01*
X4404340Y-13469641D01*
X4388696Y-13472908D01*
X4372588Y-13475273D01*
X4356023Y-13476710D01*
X4339005Y-13477194D01*
X4326777Y-13476934D01*
X4314824Y-13476159D01*
X4303147Y-13474883D01*
X4291748Y-13473116D01*
X4280628Y-13470870D01*
X4269788Y-13468156D01*
X4259230Y-13464986D01*
X4248956Y-13461372D01*
X4238966Y-13457325D01*
X4229263Y-13452857D01*
X4219847Y-13447978D01*
X4210720Y-13442702D01*
X4201884Y-13437038D01*
X4193340Y-13431000D01*
X4185089Y-13424598D01*
X4177133Y-13417843D01*
X4169473Y-13410748D01*
X4162111Y-13403324D01*
X4155048Y-13395583D01*
X4148286Y-13387535D01*
X4141825Y-13379193D01*
X4135668Y-13370568D01*
X4129816Y-13361672D01*
X4124270Y-13352516D01*
X4119031Y-13343112D01*
X4114102Y-13333470D01*
X4109484Y-13323604D01*
X4105177Y-13313524D01*
X4101184Y-13303242D01*
X4097505Y-13292769D01*
X4094143Y-13282117D01*
X4091099Y-13271298D01*
X4084016Y-13271298D01*
X4079867Y-13281268D01*
X4075526Y-13290982D01*
X4070993Y-13300434D01*
X4066268Y-13309621D01*
X4061351Y-13318540D01*
X4056241Y-13327186D01*
X4050939Y-13335555D01*
X4045444Y-13343643D01*
X4033876Y-13358963D01*
X4021535Y-13373114D01*
X4008420Y-13386065D01*
X3994531Y-13397785D01*
X3979866Y-13408243D01*
X3964425Y-13417407D01*
X3948205Y-13425247D01*
X3931207Y-13431731D01*
X3913429Y-13436828D01*
X3894870Y-13440508D01*
X3875529Y-13442738D01*
X3865564Y-13443301D01*
X3855404Y-13443489D01*
X3839324Y-13443093D01*
X3823691Y-13441915D01*
X3808510Y-13439967D01*
X3793784Y-13437263D01*
X3779519Y-13433815D01*
X3765719Y-13429636D01*
X3752386Y-13424741D01*
X3739526Y-13419141D01*
X3727143Y-13412850D01*
X3715240Y-13405880D01*
X3703822Y-13398246D01*
X3692893Y-13389960D01*
X3682457Y-13381034D01*
X3672518Y-13371483D01*
X3663080Y-13361319D01*
X3654148Y-13350554D01*
X3645725Y-13339204D01*
X3637816Y-13327279D01*
X3630425Y-13314794D01*
X3623555Y-13301761D01*
X3617211Y-13288194D01*
X3611397Y-13274105D01*
X3606118Y-13259508D01*
X3601376Y-13244416D01*
X3597178Y-13228841D01*
X3593525Y-13212797D01*
X3590423Y-13196297D01*
X3587876Y-13179354D01*
X3585888Y-13161980D01*
X3584463Y-13144190D01*
X3583605Y-13125996D01*
X3583318Y-13107411D01*
X3583465Y-13096072D01*
X3583905Y-13084862D01*
X3584632Y-13073777D01*
X3585643Y-13062816D01*
X3586934Y-13051976D01*
X3588500Y-13041254D01*
X3590338Y-13030649D01*
X3592442Y-13020159D01*
X3594810Y-13009780D01*
X3597437Y-12999511D01*
X3600318Y-12989350D01*
X3603449Y-12979293D01*
X3606827Y-12969340D01*
X3610447Y-12959487D01*
X3614305Y-12949732D01*
X3618397Y-12940074D01*
X3622719Y-12930509D01*
X3627266Y-12921036D01*
X3632034Y-12911651D01*
X3637020Y-12902354D01*
X3642219Y-12893141D01*
X3647627Y-12884011D01*
X3653239Y-12874961D01*
X3659052Y-12865988D01*
X3665062Y-12857091D01*
X3671263Y-12848267D01*
X3677653Y-12839514D01*
X3684227Y-12830830D01*
X3690980Y-12822212D01*
X3697909Y-12813658D01*
X3705010Y-12805166D01*
X3712278Y-12796734D01*
X3838551Y-12901758D01*
X3828010Y-12913285D01*
X3818014Y-12924801D01*
X3808582Y-12936328D01*
X3799732Y-12947890D01*
X3791483Y-12959508D01*
X3783854Y-12971207D01*
X3776864Y-12983009D01*
X3770530Y-12994937D01*
X3764871Y-13007014D01*
X3759907Y-13019262D01*
X3755656Y-13031705D01*
X3752135Y-13044366D01*
X3749365Y-13057267D01*
X3747363Y-13070431D01*
X3746148Y-13083881D01*
X3745739Y-13097641D01*
X3746280Y-13113729D01*
X3747887Y-13128917D01*
X3750540Y-13143185D01*
X3754219Y-13156515D01*
X3758902Y-13168887D01*
X3764570Y-13180283D01*
X3771200Y-13190684D01*
X3778773Y-13200070D01*
X3787268Y-13208423D01*
X3796663Y-13215724D01*
X3806938Y-13221954D01*
X3818073Y-13227094D01*
X3830047Y-13231124D01*
X3842838Y-13234026D01*
X3856427Y-13235782D01*
X3870792Y-13236371D01*
X3886848Y-13235631D01*
X3902280Y-13233344D01*
X3917032Y-13229414D01*
X3931047Y-13223743D01*
X3944267Y-13216233D01*
X3956637Y-13206786D01*
X3968098Y-13195304D01*
X3978594Y-13181691D01*
X3988069Y-13165848D01*
X3992405Y-13157060D01*
X3996465Y-13147678D01*
X4000240Y-13137689D01*
X4003725Y-13127083D01*
X4006911Y-13115845D01*
X4009792Y-13103965D01*
X4012361Y-13091429D01*
X4014611Y-13078226D01*
X4016534Y-13064344D01*
X4018123Y-13049770D01*
X4019371Y-13034492D01*
X4020272Y-13018498D01*
X4020817Y-13001775D01*
X4021001Y-12984312D01*
X4169501Y-12984312D01*
X4169675Y-13004966D01*
X4170196Y-13024670D01*
X4171060Y-13043443D01*
X4172262Y-13061306D01*
X4173798Y-13078276D01*
X4175664Y-13094375D01*
X4177856Y-13109620D01*
X4180369Y-13124031D01*
X4183201Y-13137627D01*
X4186346Y-13150428D01*
X4189800Y-13162453D01*
X4193560Y-13173721D01*
X4197622Y-13184252D01*
X4201980Y-13194064D01*
X4206631Y-13203177D01*
X4211571Y-13211611D01*
X4222302Y-13226516D01*
X4234139Y-13238933D01*
X4247049Y-13249017D01*
X4261000Y-13256922D01*
X4275958Y-13262801D01*
X4291891Y-13266810D01*
X4308765Y-13269102D01*
X4326549Y-13269832D01*
X4342288Y-13269006D01*
X4357159Y-13266563D01*
X4371142Y-13262558D01*
X4384217Y-13257048D01*
X4396363Y-13250086D01*
X4407560Y-13241728D01*
X4417787Y-13232029D01*
X4427024Y-13221045D01*
X4435251Y-13208829D01*
X4442447Y-13195438D01*
X4448592Y-13180927D01*
X4453666Y-13165350D01*
X4457647Y-13148762D01*
X4460516Y-13131220D01*
X4462253Y-13112777D01*
X4462836Y-13093489D01*
X4462306Y-13076114D01*
X4460746Y-13059157D01*
X4458204Y-13042613D01*
X4454727Y-13026475D01*
X4450360Y-13010737D01*
X4445152Y-12995395D01*
X4439149Y-12980442D01*
X4432397Y-12965872D01*
X4424945Y-12951680D01*
X4416838Y-12937860D01*
X4408123Y-12924407D01*
X4398848Y-12911314D01*
X4389060Y-12898576D01*
X4378804Y-12886188D01*
X4368128Y-12874143D01*
X4357079Y-12862435D01*
X4486528Y-12765959D01*
X4494204Y-12772893D01*
X4501751Y-12780051D01*
X4509159Y-12787435D01*
X4516422Y-12795047D01*
X4523532Y-12802892D01*
X4530482Y-12810972D01*
X4537264Y-12819290D01*
X4543871Y-12827848D01*
X4550296Y-12836650D01*
X4556531Y-12845699D01*
X4562569Y-12854997D01*
X4568402Y-12864547D01*
X4574022Y-12874353D01*
X4579423Y-12884416D01*
X4584598Y-12894741D01*
X4589537Y-12905330D01*
X4594235Y-12916186D01*
X4598684Y-12927312D01*
X4602875Y-12938710D01*
X4606803Y-12950384D01*
X4610459Y-12962337D01*
X4613836Y-12974570D01*
X4616927Y-12987089D01*
X4619724Y-12999894D01*
X4622220Y-13012990D01*
X4624407Y-13026379D01*
X4626278Y-13040063D01*
X4627825Y-13054047D01*
X4629042Y-13068332D01*
X4629920Y-13082922D01*
X4630452Y-13097820D01*
X4630631Y-13113028D01*
G37*
D12*
%TO.C,*%
D13*
%TO.C,U2*%
X26736571Y-5882857D02*
X27222285Y-5882857D01*
X27222285Y-5882857D02*
X27279428Y-5911428D01*
X27279428Y-5911428D02*
X27308000Y-5940000D01*
X27308000Y-5940000D02*
X27336571Y-5997142D01*
X27336571Y-5997142D02*
X27336571Y-6111428D01*
X27336571Y-6111428D02*
X27308000Y-6168571D01*
X27308000Y-6168571D02*
X27279428Y-6197142D01*
X27279428Y-6197142D02*
X27222285Y-6225714D01*
X27222285Y-6225714D02*
X26736571Y-6225714D01*
X26793714Y-6482856D02*
X26765142Y-6511428D01*
X26765142Y-6511428D02*
X26736571Y-6568571D01*
X26736571Y-6568571D02*
X26736571Y-6711428D01*
X26736571Y-6711428D02*
X26765142Y-6768571D01*
X26765142Y-6768571D02*
X26793714Y-6797142D01*
X26793714Y-6797142D02*
X26850857Y-6825713D01*
X26850857Y-6825713D02*
X26908000Y-6825713D01*
X26908000Y-6825713D02*
X26993714Y-6797142D01*
X26993714Y-6797142D02*
X27336571Y-6454285D01*
X27336571Y-6454285D02*
X27336571Y-6825713D01*
%TO.C,C1*%
X23690428Y-4680000D02*
X23719000Y-4651428D01*
X23719000Y-4651428D02*
X23747571Y-4565714D01*
X23747571Y-4565714D02*
X23747571Y-4508571D01*
X23747571Y-4508571D02*
X23719000Y-4422857D01*
X23719000Y-4422857D02*
X23661857Y-4365714D01*
X23661857Y-4365714D02*
X23604714Y-4337143D01*
X23604714Y-4337143D02*
X23490428Y-4308571D01*
X23490428Y-4308571D02*
X23404714Y-4308571D01*
X23404714Y-4308571D02*
X23290428Y-4337143D01*
X23290428Y-4337143D02*
X23233285Y-4365714D01*
X23233285Y-4365714D02*
X23176142Y-4422857D01*
X23176142Y-4422857D02*
X23147571Y-4508571D01*
X23147571Y-4508571D02*
X23147571Y-4565714D01*
X23147571Y-4565714D02*
X23176142Y-4651428D01*
X23176142Y-4651428D02*
X23204714Y-4680000D01*
X23747571Y-5251428D02*
X23747571Y-4908571D01*
X23747571Y-5080000D02*
X23147571Y-5080000D01*
X23147571Y-5080000D02*
X23233285Y-5022857D01*
X23233285Y-5022857D02*
X23290428Y-4965714D01*
X23290428Y-4965714D02*
X23319000Y-4908571D01*
%TO.C,HOLE2*%
X15560000Y2470000D02*
G75*
G03*
X15560000Y2470000I-900000J0D01*
G01*
%TO.C,HOLE1*%
X2810000Y1590000D02*
G75*
G03*
X2810000Y1590000I-900000J0D01*
G01*
%TO.C,HOLE3*%
X56040000Y2420000D02*
G75*
G03*
X56040000Y2420000I-900000J0D01*
G01*
%TO.C,HOLE4*%
X56040000Y-15070000D02*
G75*
G03*
X56040000Y-15070000I-900000J0D01*
G01*
%TO.C,HOLE5*%
X2810000Y-14210000D02*
G75*
G03*
X2810000Y-14210000I-900000J0D01*
G01*
D14*
%TO.C,J3*%
X15890000Y-16420000D02*
X15890000Y-13760000D01*
X51510000Y-16420000D02*
X15890000Y-16420000D01*
X51510000Y-16420000D02*
X51510000Y-13760000D01*
X52780000Y-16420000D02*
X54110000Y-16420000D01*
X54110000Y-16420000D02*
X54110000Y-15090000D01*
X51510000Y-13760000D02*
X15890000Y-13760000D01*
%TO.C,*%
G36*
X20951713Y-4044169D02*
G01*
X19468101Y-4044169D01*
X19468101Y-3728215D01*
X20951713Y-3728215D01*
X20951713Y-4044169D01*
G37*
G36*
X20361016Y-9429134D02*
G01*
X20058798Y-9429134D01*
X20058798Y-8797225D01*
X20361016Y-8797225D01*
X20361016Y-9429134D01*
G37*
G36*
X19615399Y-9392506D02*
G01*
X19657074Y-9416863D01*
X19719562Y-9453387D01*
X19799680Y-9500219D01*
X19894379Y-9555576D01*
X20000606Y-9617673D01*
X20115312Y-9684727D01*
X20235447Y-9754956D01*
X20357959Y-9826576D01*
X20952468Y-10174128D01*
X20948656Y-10360506D01*
X20944845Y-10546883D01*
X20216775Y-10970032D01*
X20205442Y-10976618D01*
X20076560Y-11051411D01*
X19954867Y-11121848D01*
X19842429Y-11186743D01*
X19741317Y-11244911D01*
X19653597Y-11295167D01*
X19581339Y-11336325D01*
X19526610Y-11367201D01*
X19491480Y-11386609D01*
X19478016Y-11393364D01*
X19476878Y-11392283D01*
X19473542Y-11372523D01*
X19471353Y-11331703D01*
X19470493Y-11274801D01*
X19471147Y-11206794D01*
X19474969Y-11020040D01*
X20049729Y-10689606D01*
X20624489Y-10359171D01*
X20509924Y-10293142D01*
X20509310Y-10292788D01*
X20470575Y-10270460D01*
X20411603Y-10236462D01*
X20335879Y-10192805D01*
X20246888Y-10141496D01*
X20148115Y-10084547D01*
X20043045Y-10023965D01*
X19935164Y-9961761D01*
X19474969Y-9696410D01*
X19471159Y-9501198D01*
X19467349Y-9305987D01*
X19615399Y-9392506D01*
G37*
G36*
X20058798Y-1406636D02*
G01*
X20937976Y-1406636D01*
X20937976Y-1722590D01*
X20361016Y-1722590D01*
X20361016Y-2691085D01*
X20649153Y-2897129D01*
X20937290Y-3103174D01*
X20937633Y-3300611D01*
X20937641Y-3305726D01*
X20937247Y-3383547D01*
X20935654Y-3437230D01*
X20932574Y-3469923D01*
X20927720Y-3484774D01*
X20920805Y-3484930D01*
X20916994Y-3482039D01*
X20885595Y-3458858D01*
X20839437Y-3425421D01*
X20782228Y-3384357D01*
X20717679Y-3338289D01*
X20649498Y-3289844D01*
X20581395Y-3241648D01*
X20517078Y-3196327D01*
X20460256Y-3156506D01*
X20414639Y-3124812D01*
X20383936Y-3103870D01*
X20371856Y-3096306D01*
X20370762Y-3096783D01*
X20363722Y-3112865D01*
X20356760Y-3144682D01*
X20350141Y-3175281D01*
X20314243Y-3261207D01*
X20256369Y-3341070D01*
X20180591Y-3409992D01*
X20090978Y-3463097D01*
X20026369Y-3485873D01*
X19927091Y-3499691D01*
X19827498Y-3491359D01*
X19735945Y-3460927D01*
X19713986Y-3449348D01*
X19631729Y-3391179D01*
X19560206Y-3317981D01*
X19507770Y-3237920D01*
X19474969Y-3171860D01*
X19474635Y-3094774D01*
X19797792Y-3094774D01*
X19830677Y-3133005D01*
X19846167Y-3149071D01*
X19877302Y-3166647D01*
X19921374Y-3171236D01*
X19953149Y-3169315D01*
X19986621Y-3156739D01*
X20018993Y-3126685D01*
X20058798Y-3082135D01*
X20058798Y-1722590D01*
X19797792Y-1722590D01*
X19797792Y-3094774D01*
X19474635Y-3094774D01*
X19467325Y-1406636D01*
X20058798Y-1406636D01*
G37*
G36*
X20948855Y-5146576D02*
G01*
X20944845Y-6015451D01*
X20908645Y-6092654D01*
X20867009Y-6166527D01*
X20793211Y-6252661D01*
X20701916Y-6317719D01*
X20679336Y-6329377D01*
X20633956Y-6347247D01*
X20583631Y-6357588D01*
X20517131Y-6363163D01*
X20512997Y-6363377D01*
X20453518Y-6365092D01*
X20410113Y-6361901D01*
X20372177Y-6352175D01*
X20329103Y-6334285D01*
X20314712Y-6327395D01*
X20223661Y-6268851D01*
X20146565Y-6193199D01*
X20089988Y-6106686D01*
X20051930Y-6029188D01*
X20045061Y-5353721D01*
X20038192Y-4678253D01*
X20004889Y-4642823D01*
X19983255Y-4624877D01*
X19933492Y-4607362D01*
X19879672Y-4612550D01*
X19829467Y-4640540D01*
X19790924Y-4673686D01*
X19787085Y-5519717D01*
X19783245Y-6365749D01*
X19467135Y-6365749D01*
X19474969Y-4614261D01*
X19508632Y-4545575D01*
X19544366Y-4485839D01*
X19608708Y-4410452D01*
X19684392Y-4348124D01*
X19763875Y-4305933D01*
X19798854Y-4294430D01*
X19901598Y-4278709D01*
X20003336Y-4287785D01*
X20099970Y-4319945D01*
X20187404Y-4373475D01*
X20261541Y-4446662D01*
X20318283Y-4537792D01*
X20354147Y-4614261D01*
X20361016Y-5294250D01*
X20361229Y-5314823D01*
X20362877Y-5448305D01*
X20364866Y-5573283D01*
X20367123Y-5687048D01*
X20369574Y-5786888D01*
X20372147Y-5870095D01*
X20374769Y-5933958D01*
X20377365Y-5975767D01*
X20379864Y-5992813D01*
X20391588Y-6005365D01*
X20428367Y-6026241D01*
X20473507Y-6039353D01*
X20514477Y-6040282D01*
X20549600Y-6025439D01*
X20583159Y-5999220D01*
X20615153Y-5965171D01*
X20618894Y-5121436D01*
X20622636Y-4277701D01*
X20952866Y-4277701D01*
X20948855Y-5146576D01*
G37*
G36*
X20393558Y-6551308D02*
G01*
X20412760Y-6556579D01*
X20543588Y-6608024D01*
X20660125Y-6681488D01*
X20760084Y-6774470D01*
X20841173Y-6884469D01*
X20901104Y-7008985D01*
X20937588Y-7145516D01*
X20938052Y-7148893D01*
X20940133Y-7180661D01*
X20941998Y-7236385D01*
X20943613Y-7313161D01*
X20944943Y-7408084D01*
X20945954Y-7518252D01*
X20946611Y-7640759D01*
X20946880Y-7772703D01*
X20946725Y-7911178D01*
X20944845Y-8611773D01*
X20783995Y-8615639D01*
X20623146Y-8619504D01*
X20619149Y-7880701D01*
X20615153Y-7141898D01*
X20578563Y-7073212D01*
X20564868Y-7049810D01*
X20527758Y-6997381D01*
X20489271Y-6953690D01*
X20484006Y-6948696D01*
X20401254Y-6888632D01*
X20310485Y-6852272D01*
X20215717Y-6838814D01*
X20120966Y-6847455D01*
X20030250Y-6877392D01*
X19947587Y-6927822D01*
X19876994Y-6997942D01*
X19822490Y-7086949D01*
X19818101Y-7096593D01*
X19811861Y-7111659D01*
X19806636Y-7128045D01*
X19802319Y-7148129D01*
X19798805Y-7174288D01*
X19795988Y-7208900D01*
X19793763Y-7254342D01*
X19792024Y-7312992D01*
X19790666Y-7387228D01*
X19789582Y-7479428D01*
X19788667Y-7591968D01*
X19787816Y-7727228D01*
X19786923Y-7887583D01*
X19782922Y-8619531D01*
X19628945Y-8615652D01*
X19474969Y-8611773D01*
X19471411Y-7900117D01*
X19470747Y-7755901D01*
X19470342Y-7606490D01*
X19470557Y-7479986D01*
X19471600Y-7373901D01*
X19473678Y-7285747D01*
X19476997Y-7213037D01*
X19481766Y-7153282D01*
X19488190Y-7103996D01*
X19496478Y-7062691D01*
X19506837Y-7026878D01*
X19519473Y-6994070D01*
X19534594Y-6961779D01*
X19552407Y-6927517D01*
X19592923Y-6864850D01*
X19653234Y-6792059D01*
X19723446Y-6721264D01*
X19796088Y-6659953D01*
X19863687Y-6615613D01*
X19894970Y-6600096D01*
X20014326Y-6557784D01*
X20142750Y-6534876D01*
X20271931Y-6532381D01*
X20393558Y-6551308D01*
G37*
G36*
X18348237Y-10779018D02*
G01*
X16153275Y-10779018D01*
X15632342Y-10778587D01*
X15163382Y-10776928D01*
X14790093Y-10773704D01*
X14503222Y-10768580D01*
X14293517Y-10761222D01*
X14151728Y-10751296D01*
X14068602Y-10738469D01*
X14034887Y-10722406D01*
X14041333Y-10702774D01*
X14086304Y-10667739D01*
X14217288Y-10570790D01*
X14423024Y-10420679D01*
X14693892Y-10224359D01*
X15020273Y-9988785D01*
X15392547Y-9720911D01*
X15801094Y-9427690D01*
X16236295Y-9116077D01*
X18348237Y-7605623D01*
X18348237Y-10779018D01*
G37*
G36*
X18348237Y-3729100D02*
G01*
X18348173Y-4021209D01*
X18347491Y-4479146D01*
X18345583Y-4840166D01*
X18341867Y-5114955D01*
X18335761Y-5314204D01*
X18326684Y-5448599D01*
X18314053Y-5528829D01*
X18297286Y-5565583D01*
X18275802Y-5569549D01*
X18249018Y-5551415D01*
X18225346Y-5531386D01*
X18119018Y-5442534D01*
X17940091Y-5293582D01*
X17698178Y-5092514D01*
X17402893Y-4847315D01*
X17063850Y-4565969D01*
X16690663Y-4256463D01*
X16292944Y-3926779D01*
X14436089Y-2387946D01*
X13823743Y-2387946D01*
X13802412Y-3365960D01*
X13793528Y-3710025D01*
X13781509Y-3995812D01*
X13764855Y-4207276D01*
X13741281Y-4364819D01*
X13708503Y-4488842D01*
X13664237Y-4599743D01*
X13658908Y-4611287D01*
X13438141Y-4956797D01*
X13140423Y-5224942D01*
X12779328Y-5406377D01*
X12368431Y-5491757D01*
X12166493Y-5497970D01*
X11760905Y-5439763D01*
X11411694Y-5283788D01*
X11121424Y-5031448D01*
X10892656Y-4684145D01*
X10722567Y-4343973D01*
X10704496Y-3082477D01*
X10686424Y-1820982D01*
X18348237Y-1820982D01*
X18348237Y-3729100D01*
G37*
G36*
X15010877Y-4499773D02*
G01*
X15081458Y-4553357D01*
X15224906Y-4668856D01*
X15429867Y-4836917D01*
X15684985Y-5048187D01*
X15978904Y-5293315D01*
X16300270Y-5562946D01*
X16372405Y-5623685D01*
X16686062Y-5888836D01*
X16967286Y-6128229D01*
X17205171Y-6332463D01*
X17388810Y-6492134D01*
X17507299Y-6597840D01*
X17549732Y-6640178D01*
X17548849Y-6641589D01*
X17491606Y-6687321D01*
X17350637Y-6791843D01*
X17133820Y-6949509D01*
X16849034Y-7154675D01*
X16504157Y-7401696D01*
X16107068Y-7684926D01*
X15665646Y-7998721D01*
X15187769Y-8337435D01*
X14681316Y-8695424D01*
X11810002Y-10722321D01*
X9446898Y-10722321D01*
X9453239Y-7561495D01*
X9453649Y-7377612D01*
X9456191Y-6667293D01*
X9460058Y-6067819D01*
X9465295Y-5577133D01*
X9471945Y-5193181D01*
X9480050Y-4913905D01*
X9489653Y-4737249D01*
X9500798Y-4661158D01*
X9513528Y-4683575D01*
X9584409Y-4962007D01*
X9789460Y-5424236D01*
X10087770Y-5835278D01*
X10470394Y-6185970D01*
X10928383Y-6467150D01*
X11452792Y-6669656D01*
X11758050Y-6727555D01*
X12144584Y-6749541D01*
X12552261Y-6732512D01*
X12937895Y-6678394D01*
X13258302Y-6589114D01*
X13508454Y-6476137D01*
X13953649Y-6185025D01*
X14332377Y-5811606D01*
X14632026Y-5369569D01*
X14839982Y-4872602D01*
X14847966Y-4846694D01*
X14911712Y-4663857D01*
X14968335Y-4538784D01*
X15006397Y-4497269D01*
X15010877Y-4499773D01*
G37*
G36*
X53208190Y-9220700D02*
G01*
X53201284Y-9227606D01*
X53194378Y-9220700D01*
X53201284Y-9213794D01*
X53208190Y-9220700D01*
G37*
G36*
X52531409Y-8253870D02*
G01*
X52524503Y-8260776D01*
X52517597Y-8253870D01*
X52524503Y-8246964D01*
X52531409Y-8253870D01*
G37*
G36*
X52407103Y-8336741D02*
G01*
X52400197Y-8343647D01*
X52393291Y-8336741D01*
X52400197Y-8329835D01*
X52407103Y-8336741D01*
G37*
G36*
X52365667Y-8364365D02*
G01*
X52358761Y-8371271D01*
X52351855Y-8364365D01*
X52358761Y-8357459D01*
X52365667Y-8364365D01*
G37*
G36*
X52268984Y-8336741D02*
G01*
X52262078Y-8343647D01*
X52255172Y-8336741D01*
X52262078Y-8329835D01*
X52268984Y-8336741D01*
G37*
G36*
X51882252Y-8419612D02*
G01*
X51875346Y-8426518D01*
X51868440Y-8419612D01*
X51875346Y-8412706D01*
X51882252Y-8419612D01*
G37*
G36*
X51840817Y-8419612D02*
G01*
X51833911Y-8426518D01*
X51827005Y-8419612D01*
X51833911Y-8412706D01*
X51840817Y-8419612D01*
G37*
G36*
X51730322Y-8378177D02*
G01*
X51723416Y-8385083D01*
X51716510Y-8378177D01*
X51723416Y-8371271D01*
X51730322Y-8378177D01*
G37*
G36*
X51702698Y-8336741D02*
G01*
X51695792Y-8343647D01*
X51688886Y-8336741D01*
X51695792Y-8329835D01*
X51702698Y-8336741D01*
G37*
G36*
X51633639Y-8336741D02*
G01*
X51626733Y-8343647D01*
X51619827Y-8336741D01*
X51626733Y-8329835D01*
X51633639Y-8336741D01*
G37*
G36*
X51592203Y-8267682D02*
G01*
X51585297Y-8274588D01*
X51578391Y-8267682D01*
X51585297Y-8260776D01*
X51592203Y-8267682D01*
G37*
G36*
X50929234Y-9110205D02*
G01*
X50922328Y-9117111D01*
X50915422Y-9110205D01*
X50922328Y-9103299D01*
X50929234Y-9110205D01*
G37*
G36*
X53152943Y-9075676D02*
G01*
X53151946Y-9082987D01*
X53143735Y-9084883D01*
X53142082Y-9082859D01*
X53143735Y-9066468D01*
X53147889Y-9064307D01*
X53152943Y-9075676D01*
G37*
G36*
X52402499Y-8251568D02*
G01*
X52404659Y-8255723D01*
X52393291Y-8260776D01*
X52385979Y-8259779D01*
X52384083Y-8251568D01*
X52386107Y-8249915D01*
X52402499Y-8251568D01*
G37*
G36*
X52227549Y-8454142D02*
G01*
X52226552Y-8461454D01*
X52218341Y-8463350D01*
X52216688Y-8461326D01*
X52218341Y-8444934D01*
X52222495Y-8442773D01*
X52227549Y-8454142D01*
G37*
G36*
X51884842Y-8334212D02*
G01*
X51891235Y-8339184D01*
X51876497Y-8342557D01*
X51862488Y-8341580D01*
X51858369Y-8335303D01*
X51863256Y-8332566D01*
X51884842Y-8334212D01*
G37*
G36*
X51829594Y-8334212D02*
G01*
X51835988Y-8339184D01*
X51821250Y-8342557D01*
X51807241Y-8341580D01*
X51803122Y-8335303D01*
X51808008Y-8332566D01*
X51829594Y-8334212D01*
G37*
G36*
X51808589Y-8417310D02*
G01*
X51810750Y-8421465D01*
X51799381Y-8426518D01*
X51792069Y-8425522D01*
X51790173Y-8417310D01*
X51792197Y-8415657D01*
X51808589Y-8417310D01*
G37*
G36*
X51780965Y-8334439D02*
G01*
X51783126Y-8338594D01*
X51771757Y-8343647D01*
X51764445Y-8342650D01*
X51762549Y-8334439D01*
X51764574Y-8332786D01*
X51780965Y-8334439D01*
G37*
G36*
X51592203Y-8233152D02*
G01*
X51591206Y-8240464D01*
X51582995Y-8242360D01*
X51581342Y-8240336D01*
X51582995Y-8223944D01*
X51587150Y-8221784D01*
X51592203Y-8233152D01*
G37*
G36*
X50943046Y-9048052D02*
G01*
X50942049Y-9055364D01*
X50933838Y-9057260D01*
X50932185Y-9055235D01*
X50933838Y-9038844D01*
X50937993Y-9036683D01*
X50943046Y-9048052D01*
G37*
G36*
X50887799Y-9213794D02*
G01*
X50886802Y-9221106D01*
X50878591Y-9223002D01*
X50876938Y-9220978D01*
X50878591Y-9204586D01*
X50882745Y-9202425D01*
X50887799Y-9213794D01*
G37*
G36*
X52225321Y-8376411D02*
G01*
X52227549Y-8398895D01*
X52225205Y-8414939D01*
X52215030Y-8426518D01*
X52208960Y-8420919D01*
X52209735Y-8398895D01*
X52214998Y-8382659D01*
X52222253Y-8371271D01*
X52225321Y-8376411D01*
G37*
G36*
X51941126Y-8331946D02*
G01*
X51944405Y-8343647D01*
X51941575Y-8347826D01*
X51930594Y-8357459D01*
X51928596Y-8356809D01*
X51916782Y-8343647D01*
X51915676Y-8336332D01*
X51930594Y-8329835D01*
X51941126Y-8331946D01*
G37*
G36*
X51736133Y-8330920D02*
G01*
X51737228Y-8343647D01*
X51734393Y-8347781D01*
X51722601Y-8357459D01*
X51721222Y-8357100D01*
X51716510Y-8343647D01*
X51717072Y-8339862D01*
X51731137Y-8329835D01*
X51736133Y-8330920D01*
G37*
G36*
X46537065Y-8495578D02*
G01*
X46537065Y-9269041D01*
X46288451Y-9269041D01*
X46039838Y-9269041D01*
X46039838Y-8495578D01*
X46039838Y-7722114D01*
X46288451Y-7722114D01*
X46537065Y-7722114D01*
X46537065Y-8495578D01*
G37*
G36*
X46550876Y-7300852D02*
G01*
X46550876Y-7487312D01*
X46288451Y-7487312D01*
X46026026Y-7487312D01*
X46026026Y-7300852D01*
X46026026Y-7114392D01*
X46288451Y-7114392D01*
X46550876Y-7114392D01*
X46550876Y-7300852D01*
G37*
G36*
X39575890Y-8999710D02*
G01*
X39575890Y-9269041D01*
X39327277Y-9269041D01*
X39078663Y-9269041D01*
X39078663Y-8999710D01*
X39078663Y-8730379D01*
X39327277Y-8730379D01*
X39575890Y-8730379D01*
X39575890Y-8999710D01*
G37*
G36*
X53156580Y-9113318D02*
G01*
X53155277Y-9135844D01*
X53151790Y-9147962D01*
X53146602Y-9156311D01*
X53141744Y-9139277D01*
X53141205Y-9136755D01*
X53134414Y-9121857D01*
X53122869Y-9132371D01*
X53122030Y-9133568D01*
X53112703Y-9144621D01*
X53114657Y-9132130D01*
X53119399Y-9122959D01*
X53141656Y-9109427D01*
X53156580Y-9113318D01*
G37*
G36*
X43608951Y-7397535D02*
G01*
X43608951Y-7583995D01*
X43443209Y-7583995D01*
X43277467Y-7583995D01*
X43277467Y-8240058D01*
X43277467Y-8896121D01*
X43443209Y-8896121D01*
X43608951Y-8896121D01*
X43608951Y-9082581D01*
X43608951Y-9269041D01*
X43015042Y-9269041D01*
X42421132Y-9269041D01*
X42421132Y-9082581D01*
X42421132Y-8896121D01*
X42586874Y-8896121D01*
X42752616Y-8896121D01*
X42752616Y-8240058D01*
X42752616Y-7583995D01*
X42586874Y-7583995D01*
X42421132Y-7583995D01*
X42421132Y-7397535D01*
X42421132Y-7211075D01*
X43015042Y-7211075D01*
X43608951Y-7211075D01*
X43608951Y-7397535D01*
G37*
G36*
X37642230Y-3930760D02*
G01*
X37642230Y-4310586D01*
X37780349Y-4310586D01*
X37918467Y-4310586D01*
X37918467Y-4407269D01*
X37918467Y-4503952D01*
X37780349Y-4503952D01*
X37642230Y-4503952D01*
X37642230Y-5360287D01*
X37642230Y-6216622D01*
X37545547Y-6216622D01*
X37448864Y-6216622D01*
X37448864Y-5360287D01*
X37448864Y-4503952D01*
X37317652Y-4503952D01*
X37186439Y-4503952D01*
X37186439Y-4407269D01*
X37186439Y-4310586D01*
X37317652Y-4310586D01*
X37448864Y-4310586D01*
X37448864Y-3930760D01*
X37448864Y-3550934D01*
X37545547Y-3550934D01*
X37642230Y-3550934D01*
X37642230Y-3930760D01*
G37*
G36*
X35872959Y-3568291D02*
G01*
X35893541Y-3589487D01*
X35917197Y-3623446D01*
X35952862Y-3682146D01*
X35799640Y-3759623D01*
X35796131Y-3761396D01*
X35736503Y-3791025D01*
X35685468Y-3815509D01*
X35648347Y-3832347D01*
X35630465Y-3839041D01*
X35622896Y-3836387D01*
X35603823Y-3816793D01*
X35582301Y-3785265D01*
X35563207Y-3750219D01*
X35551414Y-3720071D01*
X35551800Y-3703238D01*
X35566690Y-3694197D01*
X35601689Y-3676685D01*
X35649821Y-3654170D01*
X35704736Y-3629458D01*
X35760085Y-3605354D01*
X35809519Y-3584664D01*
X35846688Y-3570193D01*
X35865244Y-3564746D01*
X35872959Y-3568291D01*
G37*
G36*
X36820936Y-5614093D02*
G01*
X36845634Y-5635151D01*
X36876493Y-5666875D01*
X36928870Y-5724850D01*
X36889935Y-5753199D01*
X36867094Y-5770019D01*
X36825992Y-5800546D01*
X36774363Y-5839051D01*
X36718311Y-5880989D01*
X36717847Y-5881337D01*
X36665891Y-5919882D01*
X36622241Y-5951538D01*
X36591467Y-5973041D01*
X36578140Y-5981125D01*
X36567040Y-5973774D01*
X36541973Y-5951334D01*
X36509081Y-5918965D01*
X36447505Y-5856110D01*
X36482035Y-5829437D01*
X36507805Y-5810098D01*
X36554373Y-5776644D01*
X36608092Y-5739226D01*
X36664012Y-5701165D01*
X36717184Y-5665780D01*
X36762659Y-5636394D01*
X36795486Y-5616327D01*
X36810717Y-5608900D01*
X36820936Y-5614093D01*
G37*
G36*
X34672682Y-5511959D02*
G01*
X34672682Y-5781548D01*
X34672682Y-6216622D01*
X34575999Y-6216622D01*
X34479316Y-6216622D01*
X34479316Y-6154339D01*
X34479316Y-6092057D01*
X33792176Y-6095639D01*
X33105036Y-6099221D01*
X33100789Y-6157921D01*
X33096542Y-6216622D01*
X33000653Y-6216622D01*
X32904764Y-6216622D01*
X32904764Y-5926573D01*
X33097392Y-5926573D01*
X33788354Y-5926573D01*
X34479316Y-5926573D01*
X34479316Y-5719266D01*
X34479316Y-5511959D01*
X33792176Y-5515541D01*
X33105036Y-5519123D01*
X33101214Y-5722848D01*
X33097392Y-5926573D01*
X32904764Y-5926573D01*
X32904764Y-5781548D01*
X32904764Y-5346475D01*
X33788723Y-5346475D01*
X34672682Y-5346475D01*
X34672682Y-5511959D01*
G37*
G36*
X52218563Y-7718668D02*
G01*
X52237907Y-7720139D01*
X52246981Y-7726486D01*
X52255172Y-7750064D01*
X52252671Y-7764018D01*
X52237907Y-7782210D01*
X52233455Y-7783195D01*
X52204927Y-7785325D01*
X52156285Y-7786715D01*
X52092957Y-7787249D01*
X52020371Y-7786814D01*
X51985031Y-7786347D01*
X51917132Y-7785084D01*
X51870812Y-7783081D01*
X51841794Y-7779650D01*
X51825801Y-7774103D01*
X51818555Y-7765752D01*
X51815779Y-7753910D01*
X51814951Y-7746705D01*
X51816566Y-7737009D01*
X51825539Y-7730302D01*
X51845922Y-7725884D01*
X51881766Y-7723056D01*
X51937125Y-7721121D01*
X52016051Y-7719380D01*
X52048419Y-7718786D01*
X52118462Y-7717973D01*
X52176962Y-7717940D01*
X52218563Y-7718668D01*
G37*
G36*
X51080159Y-5991880D02*
G01*
X51183420Y-6001018D01*
X51275497Y-6018174D01*
X51364250Y-6044798D01*
X51457538Y-6082341D01*
X51459824Y-6083358D01*
X51514782Y-6111392D01*
X51544608Y-6134910D01*
X51548735Y-6153229D01*
X51526597Y-6165665D01*
X51516735Y-6167949D01*
X51448384Y-6173362D01*
X51370150Y-6165978D01*
X51293958Y-6146767D01*
X51236241Y-6127917D01*
X51147846Y-6102242D01*
X51053400Y-6077624D01*
X50960951Y-6056026D01*
X50878549Y-6039412D01*
X50814245Y-6029746D01*
X50805816Y-6028832D01*
X50758017Y-6021869D01*
X50735170Y-6014126D01*
X50734923Y-6004864D01*
X50754812Y-5998617D01*
X50799723Y-5993766D01*
X50866855Y-5990603D01*
X50953502Y-5989320D01*
X50957856Y-5989310D01*
X51080159Y-5991880D01*
G37*
G36*
X53107543Y-5983985D02*
G01*
X53173125Y-5986181D01*
X53234187Y-5990138D01*
X53284953Y-5995486D01*
X53319648Y-6001855D01*
X53332497Y-6008877D01*
X53329429Y-6011655D01*
X53305688Y-6018998D01*
X53263575Y-6027371D01*
X53209224Y-6035451D01*
X53199486Y-6036797D01*
X53135416Y-6048455D01*
X53056054Y-6066269D01*
X52970561Y-6088066D01*
X52888098Y-6111670D01*
X52805469Y-6135796D01*
X52713449Y-6158640D01*
X52640058Y-6170962D01*
X52581579Y-6173335D01*
X52534297Y-6166333D01*
X52511468Y-6155529D01*
X52511136Y-6139453D01*
X52536178Y-6117788D01*
X52587214Y-6089632D01*
X52643195Y-6065058D01*
X52751595Y-6029063D01*
X52868833Y-6001889D01*
X52983348Y-5986544D01*
X52985922Y-5986350D01*
X53043217Y-5983918D01*
X53107543Y-5983985D01*
G37*
G36*
X38893349Y-3664310D02*
G01*
X38922491Y-3696584D01*
X38945529Y-3725190D01*
X38954357Y-3740574D01*
X38953981Y-3741725D01*
X38940131Y-3756989D01*
X38909281Y-3784986D01*
X38865482Y-3822156D01*
X38812785Y-3864941D01*
X38754295Y-3912034D01*
X38693717Y-3961812D01*
X38640626Y-4006405D01*
X38602154Y-4039892D01*
X38566311Y-4071107D01*
X38537789Y-4093872D01*
X38523290Y-4102789D01*
X38520930Y-4102118D01*
X38503031Y-4088252D01*
X38475036Y-4061306D01*
X38442898Y-4027663D01*
X38412571Y-3993707D01*
X38390008Y-3965823D01*
X38381165Y-3950394D01*
X38389922Y-3938902D01*
X38417065Y-3913588D01*
X38458573Y-3878156D01*
X38510342Y-3835897D01*
X38568270Y-3790098D01*
X38628251Y-3744051D01*
X38686185Y-3701044D01*
X38737965Y-3664367D01*
X38832341Y-3599740D01*
X38893349Y-3664310D01*
G37*
G36*
X52123753Y-6638419D02*
G01*
X52131615Y-6652658D01*
X52137342Y-6680754D01*
X52141828Y-6727293D01*
X52145969Y-6796863D01*
X52149807Y-6852700D01*
X52156534Y-6916476D01*
X52164536Y-6967952D01*
X52172800Y-6999471D01*
X52177544Y-7012229D01*
X52180982Y-7061513D01*
X52157727Y-7103975D01*
X52107698Y-7139790D01*
X52095371Y-7145694D01*
X52060559Y-7158020D01*
X52038056Y-7159659D01*
X52032181Y-7156406D01*
X52021112Y-7135031D01*
X52025650Y-7108867D01*
X52044541Y-7091142D01*
X52061396Y-7083291D01*
X52091846Y-7062749D01*
X52097328Y-7057836D01*
X52107250Y-7043062D01*
X52105920Y-7022137D01*
X52093552Y-6985430D01*
X52089853Y-6973927D01*
X52079737Y-6921274D01*
X52073322Y-6854283D01*
X52071025Y-6783029D01*
X52073262Y-6717590D01*
X52080448Y-6668042D01*
X52092695Y-6640839D01*
X52114094Y-6633656D01*
X52123753Y-6638419D01*
G37*
G36*
X51514888Y-6428099D02*
G01*
X51541172Y-6460345D01*
X51549213Y-6492271D01*
X51532002Y-6518862D01*
X51527436Y-6522169D01*
X51506989Y-6524446D01*
X51478029Y-6506741D01*
X51457776Y-6492987D01*
X51411286Y-6478360D01*
X51370480Y-6489317D01*
X51338717Y-6525407D01*
X51337126Y-6528254D01*
X51306837Y-6566066D01*
X51269970Y-6594048D01*
X51244128Y-6604209D01*
X51184965Y-6609892D01*
X51127444Y-6595605D01*
X51079317Y-6564015D01*
X51048334Y-6517788D01*
X51032823Y-6476594D01*
X50943046Y-6486089D01*
X50898520Y-6491419D01*
X50863220Y-6496904D01*
X50847599Y-6501042D01*
X50849499Y-6510799D01*
X50864864Y-6531844D01*
X50879868Y-6551440D01*
X50885813Y-6577881D01*
X50866080Y-6594920D01*
X50840931Y-6596928D01*
X50803108Y-6577927D01*
X50764452Y-6535643D01*
X50757624Y-6525690D01*
X50738720Y-6485922D01*
X50742951Y-6455520D01*
X50770616Y-6429292D01*
X50784232Y-6422462D01*
X50806092Y-6416423D01*
X50838525Y-6411626D01*
X50884941Y-6407797D01*
X50948749Y-6404662D01*
X51033361Y-6401945D01*
X51142186Y-6399372D01*
X51479007Y-6392219D01*
X51514888Y-6428099D01*
G37*
G36*
X44722216Y-7696051D02*
G01*
X44853153Y-7746846D01*
X44984430Y-7825010D01*
X45073008Y-7886931D01*
X45073008Y-7804522D01*
X45073008Y-7722114D01*
X45321621Y-7722114D01*
X45570235Y-7722114D01*
X45570235Y-8495578D01*
X45570235Y-9269041D01*
X45321621Y-9269041D01*
X45073008Y-9269041D01*
X45073008Y-8711548D01*
X45073008Y-8154054D01*
X44986684Y-8114594D01*
X44986122Y-8114338D01*
X44924630Y-8090283D01*
X44863885Y-8076745D01*
X44789865Y-8070588D01*
X44737360Y-8069902D01*
X44669710Y-8077087D01*
X44619361Y-8096869D01*
X44580711Y-8131895D01*
X44548158Y-8184811D01*
X44513628Y-8253870D01*
X44509004Y-8761456D01*
X44504380Y-9269041D01*
X44255886Y-9269041D01*
X44007392Y-9269041D01*
X44013118Y-8685491D01*
X44013763Y-8621132D01*
X44015407Y-8479046D01*
X44017342Y-8360641D01*
X44019870Y-8263103D01*
X44023291Y-8183620D01*
X44027907Y-8119378D01*
X44034018Y-8067564D01*
X44041926Y-8025366D01*
X44051932Y-7989970D01*
X44064337Y-7958562D01*
X44079441Y-7928331D01*
X44097545Y-7896463D01*
X44154024Y-7819813D01*
X44230559Y-7755950D01*
X44325755Y-7709852D01*
X44441924Y-7680067D01*
X44462447Y-7676859D01*
X44591891Y-7672698D01*
X44722216Y-7696051D01*
G37*
G36*
X33886571Y-3554140D02*
G01*
X33928275Y-3578763D01*
X33965665Y-3603234D01*
X33982804Y-3623411D01*
X33981279Y-3645605D01*
X33962676Y-3676126D01*
X33928580Y-3721285D01*
X33912066Y-3742605D01*
X33885991Y-3775078D01*
X33865531Y-3801515D01*
X33852686Y-3822529D01*
X33849457Y-3838731D01*
X33857843Y-3850733D01*
X33879845Y-3859149D01*
X33917461Y-3864590D01*
X33972693Y-3867669D01*
X34047540Y-3868997D01*
X34144002Y-3869188D01*
X34264079Y-3868854D01*
X34409771Y-3868606D01*
X34990354Y-3868606D01*
X34990354Y-4124126D01*
X34990354Y-4379645D01*
X34893671Y-4379645D01*
X34796988Y-4379645D01*
X34796988Y-4213903D01*
X34796988Y-4048161D01*
X33781817Y-4048161D01*
X32766646Y-4048161D01*
X32766646Y-4213903D01*
X32766646Y-4379645D01*
X32669963Y-4379645D01*
X32573280Y-4379645D01*
X32573280Y-4124126D01*
X32573280Y-3868606D01*
X33149678Y-3868606D01*
X33726076Y-3868606D01*
X33671076Y-3831948D01*
X33653143Y-3819951D01*
X33624398Y-3800496D01*
X33610671Y-3790863D01*
X33614910Y-3779918D01*
X33633223Y-3752319D01*
X33662131Y-3713112D01*
X33697890Y-3667215D01*
X33736757Y-3619543D01*
X33774990Y-3575013D01*
X33825582Y-3518003D01*
X33886571Y-3554140D01*
G37*
G36*
X51317245Y-7356106D02*
G01*
X51344429Y-7363748D01*
X51355272Y-7390629D01*
X51361029Y-7415514D01*
X51372776Y-7440674D01*
X51382825Y-7448626D01*
X51421950Y-7463292D01*
X51483570Y-7476131D01*
X51564294Y-7487005D01*
X51660732Y-7495773D01*
X51769492Y-7502298D01*
X51887184Y-7506439D01*
X52010417Y-7508058D01*
X52135800Y-7507016D01*
X52259944Y-7503174D01*
X52379456Y-7496392D01*
X52490947Y-7486532D01*
X52562825Y-7477601D01*
X52624946Y-7465899D01*
X52666514Y-7451578D01*
X52691351Y-7433254D01*
X52703276Y-7409542D01*
X52703361Y-7409206D01*
X52716826Y-7383483D01*
X52742528Y-7379374D01*
X52755082Y-7382369D01*
X52769444Y-7397152D01*
X52773117Y-7430574D01*
X52772780Y-7440473D01*
X52765525Y-7471125D01*
X52746765Y-7496069D01*
X52713816Y-7516266D01*
X52663990Y-7532676D01*
X52594601Y-7546258D01*
X52502961Y-7557974D01*
X52386385Y-7568783D01*
X52347964Y-7571652D01*
X52216477Y-7578020D01*
X52073737Y-7580505D01*
X51926201Y-7579292D01*
X51780323Y-7574565D01*
X51642561Y-7566507D01*
X51519370Y-7555303D01*
X51417207Y-7541137D01*
X51356209Y-7525566D01*
X51307729Y-7497937D01*
X51282053Y-7458413D01*
X51277312Y-7405177D01*
X51281146Y-7377832D01*
X51292232Y-7360202D01*
X51315966Y-7356100D01*
X51317245Y-7356106D01*
G37*
G36*
X35860501Y-5318851D02*
G01*
X35860501Y-5401722D01*
X36558000Y-5401722D01*
X37255498Y-5401722D01*
X37255498Y-5484593D01*
X37255498Y-5567465D01*
X36558000Y-5567465D01*
X35860501Y-5567465D01*
X35860501Y-5741175D01*
X35860501Y-5914886D01*
X35902061Y-5956445D01*
X35943620Y-5998005D01*
X36172036Y-5993365D01*
X36246166Y-5991944D01*
X36309462Y-5991238D01*
X36352223Y-5991917D01*
X36378247Y-5994375D01*
X36391334Y-5999003D01*
X36395283Y-6006197D01*
X36393893Y-6016350D01*
X36391710Y-6026550D01*
X36384948Y-6064176D01*
X36377869Y-6109580D01*
X36368403Y-6175186D01*
X36122935Y-6175186D01*
X36108365Y-6175185D01*
X36023842Y-6174984D01*
X35961273Y-6174024D01*
X35915715Y-6171716D01*
X35882223Y-6167468D01*
X35855856Y-6160690D01*
X35831670Y-6150792D01*
X35804722Y-6137183D01*
X35766536Y-6115308D01*
X35732093Y-6088160D01*
X35707137Y-6055198D01*
X35690027Y-6012067D01*
X35679120Y-5954410D01*
X35672775Y-5877872D01*
X35669349Y-5778095D01*
X35664656Y-5567465D01*
X35444906Y-5567465D01*
X35225156Y-5567465D01*
X35225156Y-5484593D01*
X35225156Y-5401722D01*
X35446146Y-5401722D01*
X35667135Y-5401722D01*
X35667135Y-5318851D01*
X35667135Y-5235980D01*
X35763818Y-5235980D01*
X35860501Y-5235980D01*
X35860501Y-5318851D01*
G37*
G36*
X52927929Y-6399525D02*
G01*
X53024359Y-6402099D01*
X53131229Y-6406325D01*
X53211493Y-6411440D01*
X53265728Y-6417484D01*
X53294514Y-6424496D01*
X53317530Y-6439809D01*
X53332060Y-6471222D01*
X53321357Y-6510648D01*
X53285537Y-6556393D01*
X53260124Y-6580580D01*
X53233123Y-6599246D01*
X53213129Y-6599222D01*
X53194042Y-6582231D01*
X53186897Y-6571340D01*
X53188102Y-6552961D01*
X53208571Y-6526983D01*
X53240629Y-6492859D01*
X53193333Y-6492707D01*
X53145245Y-6490162D01*
X53095640Y-6484220D01*
X53086223Y-6482726D01*
X53056858Y-6481628D01*
X53038926Y-6493955D01*
X53021554Y-6525808D01*
X53016282Y-6536826D01*
X53002445Y-6564680D01*
X52995986Y-6575938D01*
X52993619Y-6576669D01*
X52973110Y-6583809D01*
X52938859Y-6596049D01*
X52935817Y-6597145D01*
X52896698Y-6610568D01*
X52871196Y-6614971D01*
X52847561Y-6610456D01*
X52814042Y-6597125D01*
X52813696Y-6596979D01*
X52771323Y-6568686D01*
X52737156Y-6528065D01*
X52722305Y-6505492D01*
X52697889Y-6484516D01*
X52665601Y-6479047D01*
X52631536Y-6485425D01*
X52591405Y-6508698D01*
X52578097Y-6520364D01*
X52557484Y-6529887D01*
X52538720Y-6520818D01*
X52532720Y-6515468D01*
X52519307Y-6492477D01*
X52527502Y-6466153D01*
X52558461Y-6431253D01*
X52599325Y-6392103D01*
X52927929Y-6399525D01*
G37*
G36*
X47534398Y-7939650D02*
G01*
X47538424Y-8668226D01*
X47575182Y-8746637D01*
X47609731Y-8805168D01*
X47666742Y-8861856D01*
X47740163Y-8899436D01*
X47831950Y-8918832D01*
X47944057Y-8920969D01*
X47993682Y-8916922D01*
X48089636Y-8896607D01*
X48165087Y-8859309D01*
X48222183Y-8803204D01*
X48263076Y-8726465D01*
X48289913Y-8627268D01*
X48293608Y-8593682D01*
X48296973Y-8532707D01*
X48299786Y-8446683D01*
X48302019Y-8336926D01*
X48303648Y-8204751D01*
X48304644Y-8051475D01*
X48304982Y-7878413D01*
X48304982Y-7211075D01*
X48567407Y-7211075D01*
X48829832Y-7211075D01*
X48829350Y-7905121D01*
X48829166Y-8031648D01*
X48828587Y-8183420D01*
X48827579Y-8311478D01*
X48826086Y-8418085D01*
X48824052Y-8505503D01*
X48821420Y-8575996D01*
X48818135Y-8631825D01*
X48814140Y-8675254D01*
X48809378Y-8708546D01*
X48809168Y-8709720D01*
X48772176Y-8844850D01*
X48713073Y-8963838D01*
X48632594Y-9066067D01*
X48531473Y-9150919D01*
X48410446Y-9217776D01*
X48270249Y-9266020D01*
X48111616Y-9295032D01*
X48097504Y-9296596D01*
X47894044Y-9306791D01*
X47703176Y-9292453D01*
X47524961Y-9253584D01*
X47461402Y-9232962D01*
X47371369Y-9194584D01*
X47293416Y-9146734D01*
X47217822Y-9084046D01*
X47175598Y-9041879D01*
X47114496Y-8962702D01*
X47068828Y-8872660D01*
X47033989Y-8763729D01*
X47030187Y-8748386D01*
X47024704Y-8723141D01*
X47020143Y-8695794D01*
X47016418Y-8663794D01*
X47013447Y-8624587D01*
X47011144Y-8575622D01*
X47009426Y-8514347D01*
X47008209Y-8438209D01*
X47007408Y-8344657D01*
X47006941Y-8231137D01*
X47006722Y-8095098D01*
X47006668Y-7933988D01*
X47006668Y-7211075D01*
X47268519Y-7211075D01*
X47530371Y-7211075D01*
X47534398Y-7939650D01*
G37*
G36*
X37839802Y-7677213D02*
G01*
X37963300Y-7685032D01*
X38071561Y-7703290D01*
X38172395Y-7733586D01*
X38273611Y-7777515D01*
X38368952Y-7832397D01*
X38475881Y-7919762D01*
X38561112Y-8024106D01*
X38624728Y-8145562D01*
X38666809Y-8284260D01*
X38687439Y-8440330D01*
X38689156Y-8540705D01*
X38672894Y-8693996D01*
X38633560Y-8832645D01*
X38571868Y-8955807D01*
X38488530Y-9062637D01*
X38384261Y-9152292D01*
X38259773Y-9223926D01*
X38115781Y-9276695D01*
X37952997Y-9309754D01*
X37836285Y-9318412D01*
X37696499Y-9314493D01*
X37555295Y-9297369D01*
X37421759Y-9268188D01*
X37304975Y-9228093D01*
X37241687Y-9200964D01*
X37241687Y-8993295D01*
X37241724Y-8936067D01*
X37242209Y-8872962D01*
X37243760Y-8830554D01*
X37246997Y-8804729D01*
X37252541Y-8791374D01*
X37261013Y-8786378D01*
X37273035Y-8785627D01*
X37274714Y-8785705D01*
X37302344Y-8795186D01*
X37342458Y-8817398D01*
X37386983Y-8847927D01*
X37399306Y-8856943D01*
X37493092Y-8910583D01*
X37595162Y-8946527D01*
X37700662Y-8964703D01*
X37804741Y-8965035D01*
X37902545Y-8947449D01*
X37989223Y-8911872D01*
X38059920Y-8858228D01*
X38065351Y-8852593D01*
X38109791Y-8799271D01*
X38140875Y-8743811D01*
X38160603Y-8679970D01*
X38170974Y-8601511D01*
X38173987Y-8502193D01*
X38173829Y-8448879D01*
X38172440Y-8392706D01*
X38168511Y-8351492D01*
X38160742Y-8317849D01*
X38147830Y-8284385D01*
X38128475Y-8243713D01*
X38093050Y-8181830D01*
X38032191Y-8111180D01*
X37958140Y-8062749D01*
X37868115Y-8034895D01*
X37759333Y-8025975D01*
X37691358Y-8030732D01*
X37591687Y-8052328D01*
X37495499Y-8088490D01*
X37410685Y-8136059D01*
X37345133Y-8191875D01*
X37319382Y-8209796D01*
X37280982Y-8219341D01*
X37241687Y-8219341D01*
X37241687Y-8006249D01*
X37241687Y-7793158D01*
X37321105Y-7763263D01*
X37361664Y-7748373D01*
X37468341Y-7714244D01*
X37566415Y-7692286D01*
X37666785Y-7680443D01*
X37780349Y-7676662D01*
X37839802Y-7677213D01*
G37*
G36*
X36357728Y-4379645D02*
G01*
X36357728Y-4476328D01*
X36357728Y-4573011D01*
X36606341Y-4573011D01*
X36854955Y-4573011D01*
X36854955Y-4476328D01*
X36854955Y-4379645D01*
X37048321Y-4379645D01*
X37048321Y-4724941D01*
X37048321Y-4752565D01*
X37048321Y-5291227D01*
X36951638Y-5291227D01*
X36854955Y-5291227D01*
X36854955Y-5180733D01*
X36854955Y-5070238D01*
X36606341Y-5070238D01*
X36357728Y-5070238D01*
X36357728Y-5160015D01*
X36357728Y-5249792D01*
X36261704Y-5249792D01*
X36165680Y-5249792D01*
X36161568Y-5163468D01*
X36157456Y-5077144D01*
X35905390Y-5073379D01*
X35653323Y-5069615D01*
X35653323Y-5152797D01*
X35653323Y-5235980D01*
X35556640Y-5235980D01*
X35459957Y-5235980D01*
X35459957Y-4724941D01*
X35459957Y-4724318D01*
X35653323Y-4724318D01*
X35653323Y-4821313D01*
X35653323Y-4918307D01*
X35909474Y-4918307D01*
X36165624Y-4918307D01*
X36357728Y-4918307D01*
X36606341Y-4918307D01*
X36854955Y-4918307D01*
X36854955Y-4821624D01*
X36854955Y-4724941D01*
X36606341Y-4724941D01*
X36357728Y-4724941D01*
X36357728Y-4821624D01*
X36357728Y-4918307D01*
X36165624Y-4918307D01*
X36161540Y-4825077D01*
X36157456Y-4731847D01*
X35905390Y-4728083D01*
X35653323Y-4724318D01*
X35459957Y-4724318D01*
X35459957Y-4573011D01*
X35653323Y-4573011D01*
X35908843Y-4573011D01*
X36164362Y-4573011D01*
X36164362Y-4476328D01*
X36164362Y-4379645D01*
X35908843Y-4379645D01*
X35653323Y-4379645D01*
X35653323Y-4476328D01*
X35653323Y-4573011D01*
X35459957Y-4573011D01*
X35459957Y-4213903D01*
X35812160Y-4213903D01*
X36164362Y-4213903D01*
X36164362Y-4124126D01*
X36164362Y-4034349D01*
X35729289Y-4034349D01*
X35294215Y-4034349D01*
X35294215Y-3951478D01*
X35294215Y-3868606D01*
X35729289Y-3868606D01*
X36164362Y-3868606D01*
X36164362Y-3709770D01*
X36164362Y-3550934D01*
X36261045Y-3550934D01*
X36357728Y-3550934D01*
X36357728Y-3709770D01*
X36357728Y-3868606D01*
X36772084Y-3868606D01*
X37186439Y-3868606D01*
X37186439Y-3951478D01*
X37186439Y-4034349D01*
X36772084Y-4034349D01*
X36357728Y-4034349D01*
X36357728Y-4124126D01*
X36357728Y-4213903D01*
X36703024Y-4213903D01*
X37048321Y-4213903D01*
X37048321Y-4379645D01*
X36357728Y-4379645D01*
G37*
G36*
X37019733Y-8495578D02*
G01*
X37019670Y-8507819D01*
X37006345Y-8667661D01*
X36970420Y-8812696D01*
X36912802Y-8941846D01*
X36834402Y-9054036D01*
X36736127Y-9148187D01*
X36618887Y-9223223D01*
X36483590Y-9278066D01*
X36331146Y-9311640D01*
X36329309Y-9311894D01*
X36256056Y-9317300D01*
X36166477Y-9317151D01*
X36070877Y-9311995D01*
X35979560Y-9302380D01*
X35902829Y-9288854D01*
X35794116Y-9255359D01*
X35670166Y-9192803D01*
X35562934Y-9108996D01*
X35473738Y-9005251D01*
X35403897Y-8882880D01*
X35354727Y-8743193D01*
X35346580Y-8704685D01*
X35336212Y-8618083D01*
X35332127Y-8525268D01*
X35840808Y-8525268D01*
X35842097Y-8605309D01*
X35846051Y-8665684D01*
X35853218Y-8712418D01*
X35864146Y-8751535D01*
X35870606Y-8768735D01*
X35912660Y-8846628D01*
X35968348Y-8910194D01*
X36032172Y-8952849D01*
X36058008Y-8963108D01*
X36141307Y-8979584D01*
X36226596Y-8975077D01*
X36307503Y-8951201D01*
X36377655Y-8909573D01*
X36430680Y-8851809D01*
X36447229Y-8824898D01*
X36470471Y-8777904D01*
X36486423Y-8727503D01*
X36496302Y-8667666D01*
X36501329Y-8592367D01*
X36502722Y-8495578D01*
X36502294Y-8446837D01*
X36497508Y-8349050D01*
X36486324Y-8271141D01*
X36467393Y-8207928D01*
X36439362Y-8154226D01*
X36400882Y-8104854D01*
X36370429Y-8074234D01*
X36316757Y-8037390D01*
X36254499Y-8017959D01*
X36175164Y-8012466D01*
X36122205Y-8015401D01*
X36039045Y-8035709D01*
X35971508Y-8076918D01*
X35917001Y-8140889D01*
X35872930Y-8229484D01*
X35871070Y-8234285D01*
X35858408Y-8271547D01*
X35849864Y-8309604D01*
X35844630Y-8355159D01*
X35841900Y-8414915D01*
X35840864Y-8495578D01*
X35840808Y-8525268D01*
X35332127Y-8525268D01*
X35331870Y-8519440D01*
X35333550Y-8418425D01*
X35341247Y-8324709D01*
X35354957Y-8247962D01*
X35391238Y-8137233D01*
X35456448Y-8010772D01*
X35541757Y-7902951D01*
X35646311Y-7814616D01*
X35769255Y-7746610D01*
X35909735Y-7699778D01*
X35952092Y-7691368D01*
X36044356Y-7680783D01*
X36148118Y-7676279D01*
X36253770Y-7677862D01*
X36351703Y-7685542D01*
X36432306Y-7699327D01*
X36496337Y-7717485D01*
X36630057Y-7774114D01*
X36745556Y-7850853D01*
X36841976Y-7946542D01*
X36918460Y-8060020D01*
X36974152Y-8190126D01*
X37008195Y-8335699D01*
X37019733Y-8495578D01*
G37*
G36*
X34058630Y-7679360D02*
G01*
X34069031Y-7681415D01*
X34148762Y-7705111D01*
X34237197Y-7742453D01*
X34324421Y-7788799D01*
X34400521Y-7839503D01*
X34465504Y-7889121D01*
X34465504Y-7805618D01*
X34465504Y-7722114D01*
X34714117Y-7722114D01*
X34962731Y-7722114D01*
X34962731Y-8495578D01*
X34962731Y-9269041D01*
X34714117Y-9269041D01*
X34465504Y-9269041D01*
X34465504Y-8711706D01*
X34465504Y-8154371D01*
X34371172Y-8110890D01*
X34326919Y-8092704D01*
X34236067Y-8069307D01*
X34151999Y-8065981D01*
X34078278Y-8082183D01*
X34018467Y-8117369D01*
X33976131Y-8170999D01*
X33975563Y-8172101D01*
X33968302Y-8187525D01*
X33962375Y-8204623D01*
X33957616Y-8226277D01*
X33953862Y-8255371D01*
X33950947Y-8294789D01*
X33948708Y-8347413D01*
X33946979Y-8416128D01*
X33945596Y-8503815D01*
X33944395Y-8613360D01*
X33943210Y-8747644D01*
X33938860Y-9269041D01*
X33691143Y-9269041D01*
X33443427Y-9269041D01*
X33443427Y-8710677D01*
X33443427Y-8152313D01*
X33364009Y-8113348D01*
X33311108Y-8090880D01*
X33252564Y-8076483D01*
X33181001Y-8070196D01*
X33172570Y-8069896D01*
X33091770Y-8073102D01*
X33031282Y-8089684D01*
X32986573Y-8121648D01*
X32953106Y-8170999D01*
X32946526Y-8185306D01*
X32940587Y-8202629D01*
X32935798Y-8224516D01*
X32931999Y-8253849D01*
X32929029Y-8293512D01*
X32926728Y-8346386D01*
X32924936Y-8415353D01*
X32923491Y-8503298D01*
X32922234Y-8613100D01*
X32921004Y-8747644D01*
X32916526Y-9269041D01*
X32667479Y-9269041D01*
X32418432Y-9269041D01*
X32425094Y-8685491D01*
X32425600Y-8641695D01*
X32427430Y-8497844D01*
X32429437Y-8377970D01*
X32431905Y-8279209D01*
X32435117Y-8198697D01*
X32439355Y-8133569D01*
X32444904Y-8080962D01*
X32452045Y-8038012D01*
X32461064Y-8001853D01*
X32472241Y-7969622D01*
X32485861Y-7938455D01*
X32502208Y-7905488D01*
X32538175Y-7848365D01*
X32608965Y-7776177D01*
X32696563Y-7721397D01*
X32796939Y-7685786D01*
X32906062Y-7671106D01*
X33019904Y-7679120D01*
X33058442Y-7687907D01*
X33143338Y-7717425D01*
X33236259Y-7760434D01*
X33329457Y-7813155D01*
X33415180Y-7871811D01*
X33504333Y-7939588D01*
X33540966Y-7881825D01*
X33566219Y-7846559D01*
X33640413Y-7774647D01*
X33731342Y-7720176D01*
X33834415Y-7684940D01*
X33945042Y-7670736D01*
X34058630Y-7679360D01*
G37*
G36*
X42088167Y-8185081D02*
G01*
X42088621Y-8196839D01*
X42086881Y-8311008D01*
X42079488Y-8422733D01*
X42066713Y-8523763D01*
X42048823Y-8605847D01*
X42045092Y-8618357D01*
X41985008Y-8770325D01*
X41903225Y-8906403D01*
X41801584Y-9025036D01*
X41681930Y-9124669D01*
X41546105Y-9203746D01*
X41395951Y-9260713D01*
X41233313Y-9294015D01*
X41137620Y-9304079D01*
X41050600Y-9307962D01*
X40964848Y-9304998D01*
X40867298Y-9295229D01*
X40783939Y-9282416D01*
X40619214Y-9239315D01*
X40471861Y-9175036D01*
X40342441Y-9090067D01*
X40231518Y-8984899D01*
X40139653Y-8860022D01*
X40067410Y-8715927D01*
X40015350Y-8553102D01*
X40010683Y-8532565D01*
X39993376Y-8419131D01*
X39985272Y-8291621D01*
X39985365Y-8280388D01*
X40529874Y-8280388D01*
X40533054Y-8371443D01*
X40541823Y-8448714D01*
X40543968Y-8460545D01*
X40577271Y-8578899D01*
X40628623Y-8685002D01*
X40695433Y-8775283D01*
X40775110Y-8846172D01*
X40865062Y-8894098D01*
X40930206Y-8912764D01*
X41034637Y-8923220D01*
X41139757Y-8913127D01*
X41238273Y-8883424D01*
X41322895Y-8835053D01*
X41363418Y-8799981D01*
X41434114Y-8712524D01*
X41488553Y-8605165D01*
X41525997Y-8480045D01*
X41545710Y-8339303D01*
X41546952Y-8185081D01*
X41544883Y-8151960D01*
X41524666Y-8001480D01*
X41487902Y-7872655D01*
X41434727Y-7765660D01*
X41365279Y-7680671D01*
X41279695Y-7617864D01*
X41178111Y-7577416D01*
X41060664Y-7559502D01*
X41025530Y-7558080D01*
X40968349Y-7559395D01*
X40920076Y-7567675D01*
X40868420Y-7584521D01*
X40866648Y-7585193D01*
X40770621Y-7635645D01*
X40689414Y-7708370D01*
X40622397Y-7804081D01*
X40568942Y-7923489D01*
X40564913Y-7935776D01*
X40549802Y-8003243D01*
X40538655Y-8088415D01*
X40531876Y-8183421D01*
X40529874Y-8280388D01*
X39985365Y-8280388D01*
X39986362Y-8159968D01*
X39996632Y-8034109D01*
X40016072Y-7923976D01*
X40022679Y-7898028D01*
X40077591Y-7740245D01*
X40153113Y-7599681D01*
X40248227Y-7477461D01*
X40361915Y-7374712D01*
X40493161Y-7292560D01*
X40640948Y-7232131D01*
X40728048Y-7208467D01*
X40886733Y-7182436D01*
X41050094Y-7175138D01*
X41212732Y-7186081D01*
X41369247Y-7214772D01*
X41514238Y-7260720D01*
X41642307Y-7323431D01*
X41657070Y-7332542D01*
X41774498Y-7422802D01*
X41876122Y-7534102D01*
X41960282Y-7663931D01*
X42025318Y-7809781D01*
X42069568Y-7969141D01*
X42074069Y-7994166D01*
X42084440Y-8088475D01*
X42088167Y-8185081D01*
G37*
G36*
X45943155Y-3799547D02*
G01*
X45943155Y-3896230D01*
X45073008Y-3896230D01*
X45038557Y-3896238D01*
X44888015Y-3896467D01*
X44746458Y-3896991D01*
X44616218Y-3897783D01*
X44499624Y-3898814D01*
X44399005Y-3900056D01*
X44316692Y-3901483D01*
X44255013Y-3903065D01*
X44216298Y-3904777D01*
X44202877Y-3906589D01*
X44210376Y-3914092D01*
X44237809Y-3936387D01*
X44282947Y-3971356D01*
X44343243Y-4017070D01*
X44416150Y-4071600D01*
X44499121Y-4133019D01*
X44589609Y-4199398D01*
X44976325Y-4481848D01*
X44976325Y-4624112D01*
X44976325Y-4766377D01*
X45604764Y-4766377D01*
X46233204Y-4766377D01*
X46233204Y-4863060D01*
X46233204Y-4959743D01*
X45604764Y-4959743D01*
X44976325Y-4959743D01*
X44976325Y-5402408D01*
X44976327Y-5426039D01*
X44976531Y-5552841D01*
X44977391Y-5655387D01*
X44979365Y-5736565D01*
X44982907Y-5799262D01*
X44988473Y-5846367D01*
X44996521Y-5880767D01*
X45007505Y-5905349D01*
X45021881Y-5923002D01*
X45040106Y-5936612D01*
X45062635Y-5949069D01*
X45075728Y-5955083D01*
X45099190Y-5961976D01*
X45130573Y-5966034D01*
X45174789Y-5967541D01*
X45236752Y-5966780D01*
X45321373Y-5964035D01*
X45361906Y-5962390D01*
X45433470Y-5958802D01*
X45493446Y-5954917D01*
X45536492Y-5951105D01*
X45557267Y-5947735D01*
X45564045Y-5945961D01*
X45570769Y-5950339D01*
X45572486Y-5967775D01*
X45569379Y-6003005D01*
X45561630Y-6060762D01*
X45558038Y-6086068D01*
X45550883Y-6136209D01*
X45545734Y-6171933D01*
X45543521Y-6186773D01*
X45542751Y-6187094D01*
X45523643Y-6188160D01*
X45481981Y-6188661D01*
X45421889Y-6188597D01*
X45347494Y-6187967D01*
X45262921Y-6186773D01*
X45244258Y-6186456D01*
X45152742Y-6184647D01*
X45083601Y-6182486D01*
X45032371Y-6179493D01*
X44994586Y-6175189D01*
X44965781Y-6169092D01*
X44941490Y-6160723D01*
X44917249Y-6149601D01*
X44874380Y-6124096D01*
X44812223Y-6063186D01*
X44768246Y-5981820D01*
X44767992Y-5981144D01*
X44762596Y-5958820D01*
X44758050Y-5922180D01*
X44754259Y-5869005D01*
X44751123Y-5797079D01*
X44748545Y-5704182D01*
X44746428Y-5588099D01*
X44744674Y-5446611D01*
X44739629Y-4959743D01*
X44146667Y-4959743D01*
X43553704Y-4959743D01*
X43553704Y-4863060D01*
X43553704Y-4766377D01*
X44147614Y-4766377D01*
X44741523Y-4766377D01*
X44741523Y-4671195D01*
X44741523Y-4576014D01*
X44292638Y-4246631D01*
X43843753Y-3917249D01*
X43843753Y-3810056D01*
X43843753Y-3702864D01*
X44893454Y-3702864D01*
X45943155Y-3702864D01*
X45943155Y-3799547D01*
G37*
G36*
X43084101Y-3834077D02*
G01*
X43084101Y-4103408D01*
X43263655Y-4103408D01*
X43443209Y-4103408D01*
X43443209Y-4193185D01*
X43443209Y-4282962D01*
X43263655Y-4282962D01*
X43084101Y-4282962D01*
X43084101Y-4578031D01*
X43084101Y-4873099D01*
X43260202Y-4924047D01*
X43272806Y-4927696D01*
X43338591Y-4946815D01*
X43394606Y-4963215D01*
X43435259Y-4975251D01*
X43454960Y-4981282D01*
X43460404Y-4984559D01*
X43466980Y-5000432D01*
X43467958Y-5033032D01*
X43463771Y-5087603D01*
X43463186Y-5093455D01*
X43457584Y-5142104D01*
X43452169Y-5178065D01*
X43448039Y-5193922D01*
X43444193Y-5193884D01*
X43419589Y-5188196D01*
X43377291Y-5176405D01*
X43323042Y-5160272D01*
X43262584Y-5141560D01*
X43201657Y-5122030D01*
X43146003Y-5103444D01*
X43101366Y-5087562D01*
X43100315Y-5087355D01*
X43095414Y-5093262D01*
X43091541Y-5112666D01*
X43088596Y-5147920D01*
X43086480Y-5201379D01*
X43085092Y-5275395D01*
X43084332Y-5372324D01*
X43084101Y-5494520D01*
X43084101Y-5907946D01*
X43117813Y-5939616D01*
X43119830Y-5941498D01*
X43136931Y-5955189D01*
X43156363Y-5963505D01*
X43184437Y-5967392D01*
X43227464Y-5967793D01*
X43291758Y-5965654D01*
X43431992Y-5960022D01*
X43422431Y-6049293D01*
X43417106Y-6093429D01*
X43410904Y-6134234D01*
X43405845Y-6156875D01*
X43404886Y-6158705D01*
X43391388Y-6166492D01*
X43361033Y-6171578D01*
X43310246Y-6174348D01*
X43235453Y-6175186D01*
X43216440Y-6175139D01*
X43134547Y-6173165D01*
X43073627Y-6167414D01*
X43028202Y-6156693D01*
X42992797Y-6139808D01*
X42961935Y-6115566D01*
X42946765Y-6101232D01*
X42929889Y-6083302D01*
X42916292Y-6063893D01*
X42905570Y-6040101D01*
X42897317Y-6009021D01*
X42891126Y-5967749D01*
X42886594Y-5913379D01*
X42883313Y-5843008D01*
X42880878Y-5753729D01*
X42878883Y-5642639D01*
X42876923Y-5506832D01*
X42870017Y-5011127D01*
X42721540Y-4964277D01*
X42573062Y-4917427D01*
X42573062Y-4815397D01*
X42573062Y-4713367D01*
X42686027Y-4748059D01*
X42702206Y-4753051D01*
X42757481Y-4770449D01*
X42803613Y-4785459D01*
X42831951Y-4795282D01*
X42854890Y-4803448D01*
X42870916Y-4807813D01*
X42871043Y-4807755D01*
X42872901Y-4793011D01*
X42874515Y-4755161D01*
X42875788Y-4698445D01*
X42876623Y-4627106D01*
X42876923Y-4545387D01*
X42876923Y-4282962D01*
X42718087Y-4282962D01*
X42559251Y-4282962D01*
X42559251Y-4193185D01*
X42559251Y-4103408D01*
X42718087Y-4103408D01*
X42876923Y-4103408D01*
X42876923Y-3834077D01*
X42876923Y-3564746D01*
X42980512Y-3564746D01*
X43084101Y-3564746D01*
X43084101Y-3834077D01*
G37*
G36*
X39451583Y-3882418D02*
G01*
X39451583Y-4213903D01*
X40038587Y-4213903D01*
X40625591Y-4213903D01*
X40625591Y-4310586D01*
X40625591Y-4407269D01*
X40092357Y-4407269D01*
X40074941Y-4407269D01*
X39942589Y-4407347D01*
X39835061Y-4407638D01*
X39749853Y-4408255D01*
X39684461Y-4409315D01*
X39636381Y-4410934D01*
X39603110Y-4413226D01*
X39582145Y-4416307D01*
X39570980Y-4420293D01*
X39567113Y-4425299D01*
X39568040Y-4431440D01*
X39572865Y-4442906D01*
X39595260Y-4485889D01*
X39629733Y-4544803D01*
X39673315Y-4615019D01*
X39723035Y-4691909D01*
X39775921Y-4770845D01*
X39829004Y-4847200D01*
X39879312Y-4916344D01*
X39923536Y-4973292D01*
X40010925Y-5077767D01*
X40110328Y-5188808D01*
X40216164Y-5300582D01*
X40322850Y-5407260D01*
X40424805Y-5503008D01*
X40516448Y-5581995D01*
X40563296Y-5620042D01*
X40613224Y-5660668D01*
X40653388Y-5693435D01*
X40677940Y-5713576D01*
X40712647Y-5742286D01*
X40640234Y-5834430D01*
X40627306Y-5850729D01*
X40595454Y-5889492D01*
X40571642Y-5916460D01*
X40560261Y-5926573D01*
X40546158Y-5920384D01*
X40513801Y-5896751D01*
X40467851Y-5858119D01*
X40411260Y-5807343D01*
X40346984Y-5747278D01*
X40277977Y-5680779D01*
X40207194Y-5610702D01*
X40137589Y-5539901D01*
X40072117Y-5471232D01*
X40013732Y-5407549D01*
X39965389Y-5351709D01*
X39877974Y-5241260D01*
X39750496Y-5062049D01*
X39630883Y-4872701D01*
X39525905Y-4683506D01*
X39458489Y-4552293D01*
X39454929Y-5391363D01*
X39451369Y-6230434D01*
X39347994Y-6230434D01*
X39244619Y-6230434D01*
X39241060Y-5391363D01*
X39237500Y-4552293D01*
X39144964Y-4728547D01*
X39057334Y-4886504D01*
X38896933Y-5137069D01*
X38721357Y-5367255D01*
X38532255Y-5574779D01*
X38491964Y-5613923D01*
X38434843Y-5666628D01*
X38374302Y-5720076D01*
X38314280Y-5771007D01*
X38258718Y-5816159D01*
X38211556Y-5852272D01*
X38176733Y-5876085D01*
X38158190Y-5884338D01*
X38153606Y-5881705D01*
X38133764Y-5862437D01*
X38103689Y-5828621D01*
X38067873Y-5785185D01*
X37989383Y-5686831D01*
X38067873Y-5638487D01*
X38215697Y-5539202D01*
X38408681Y-5383706D01*
X38591965Y-5205831D01*
X38762767Y-5008342D01*
X38918303Y-4794001D01*
X38921268Y-4789515D01*
X38961816Y-4726495D01*
X39003381Y-4659212D01*
X39043319Y-4592258D01*
X39078986Y-4530226D01*
X39107737Y-4477710D01*
X39126926Y-4439300D01*
X39133911Y-4419591D01*
X39133769Y-4419292D01*
X39117744Y-4416465D01*
X39077009Y-4413907D01*
X39014208Y-4411679D01*
X38931987Y-4409840D01*
X38832991Y-4408452D01*
X38719863Y-4407575D01*
X38595248Y-4407269D01*
X38056586Y-4407269D01*
X38056586Y-4310586D01*
X38056586Y-4213903D01*
X38650496Y-4213903D01*
X39244405Y-4213903D01*
X39244405Y-3882418D01*
X39244405Y-3550934D01*
X39347994Y-3550934D01*
X39451583Y-3550934D01*
X39451583Y-3882418D01*
G37*
G36*
X42286603Y-4780189D02*
G01*
X42268416Y-4845795D01*
X42262640Y-4865651D01*
X42236098Y-4944935D01*
X42201617Y-5036029D01*
X42163105Y-5129349D01*
X42124468Y-5215308D01*
X42089617Y-5284322D01*
X42060896Y-5333683D01*
X42004444Y-5422055D01*
X41938396Y-5517545D01*
X41868222Y-5612054D01*
X41839166Y-5649737D01*
X41954048Y-5724373D01*
X41995935Y-5750739D01*
X42115931Y-5819568D01*
X42248548Y-5887803D01*
X42383601Y-5950365D01*
X42510909Y-6002174D01*
X42556004Y-6019108D01*
X42605085Y-6037888D01*
X42639301Y-6051407D01*
X42653128Y-6057517D01*
X42653035Y-6058981D01*
X42643151Y-6076339D01*
X42621243Y-6108602D01*
X42590975Y-6150301D01*
X42524721Y-6239219D01*
X42417156Y-6193691D01*
X42334394Y-6157066D01*
X42168373Y-6075397D01*
X42003511Y-5984488D01*
X41852837Y-5891320D01*
X41837375Y-5881125D01*
X41781746Y-5844776D01*
X41735937Y-5815351D01*
X41704339Y-5795644D01*
X41691341Y-5788454D01*
X41689371Y-5789250D01*
X41670542Y-5801234D01*
X41636919Y-5824620D01*
X41594110Y-5855538D01*
X41565067Y-5876549D01*
X41399527Y-5985651D01*
X41220317Y-6085803D01*
X41020470Y-6180957D01*
X40946932Y-6213479D01*
X40864170Y-6114307D01*
X40781409Y-6015134D01*
X40914131Y-5969809D01*
X40936475Y-5962002D01*
X41013558Y-5933147D01*
X41092206Y-5901380D01*
X41158453Y-5872277D01*
X41196338Y-5853641D01*
X41258161Y-5820568D01*
X41323482Y-5783223D01*
X41386703Y-5745017D01*
X41442227Y-5709362D01*
X41484459Y-5679670D01*
X41507799Y-5659350D01*
X41510475Y-5648183D01*
X41500878Y-5625649D01*
X41475311Y-5590312D01*
X41431785Y-5539021D01*
X41409850Y-5513640D01*
X41327305Y-5409303D01*
X41248972Y-5297037D01*
X41176946Y-5180857D01*
X41113321Y-5064779D01*
X41060190Y-4952816D01*
X41019646Y-4848984D01*
X41000242Y-4780189D01*
X41217639Y-4780189D01*
X41226825Y-4811265D01*
X41231006Y-4824569D01*
X41256494Y-4891082D01*
X41292310Y-4970474D01*
X41334432Y-5054617D01*
X41378838Y-5135386D01*
X41421506Y-5204651D01*
X41437341Y-5227785D01*
X41487832Y-5296069D01*
X41542769Y-5364345D01*
X41592786Y-5420796D01*
X41683650Y-5516082D01*
X41753099Y-5427825D01*
X41756642Y-5423314D01*
X41860863Y-5280077D01*
X41944831Y-5140434D01*
X42012990Y-4996125D01*
X42069781Y-4838889D01*
X42088326Y-4780189D01*
X41652983Y-4780189D01*
X41217639Y-4780189D01*
X41000242Y-4780189D01*
X40993785Y-4757297D01*
X40984699Y-4681770D01*
X40984699Y-4600635D01*
X41274748Y-4600635D01*
X41564797Y-4600635D01*
X41564797Y-4393457D01*
X41564797Y-4186279D01*
X41198783Y-4186279D01*
X40832769Y-4186279D01*
X40832769Y-4089596D01*
X40832769Y-3992913D01*
X41198783Y-3992913D01*
X41564797Y-3992913D01*
X41564797Y-3771923D01*
X41564797Y-3550934D01*
X41668386Y-3550934D01*
X41771975Y-3550934D01*
X41771975Y-3771923D01*
X41771975Y-3992913D01*
X42124177Y-3992913D01*
X42476379Y-3992913D01*
X42476379Y-4089596D01*
X42476379Y-4186279D01*
X42124177Y-4186279D01*
X41771975Y-4186279D01*
X41771975Y-4393457D01*
X41771975Y-4600635D01*
X42124177Y-4600635D01*
X42476379Y-4600635D01*
X42476379Y-4690412D01*
X42476379Y-4780189D01*
X42286603Y-4780189D01*
G37*
G36*
X34644153Y-4487540D02*
G01*
X34678472Y-4518993D01*
X34766958Y-4595087D01*
X34847510Y-4658680D01*
X34987809Y-4763016D01*
X34923001Y-4826850D01*
X34889827Y-4858086D01*
X34861795Y-4881666D01*
X34846840Y-4890684D01*
X34840953Y-4888485D01*
X34815722Y-4872371D01*
X34776206Y-4843567D01*
X34726855Y-4805592D01*
X34672119Y-4761964D01*
X34616448Y-4716201D01*
X34564292Y-4671823D01*
X34520102Y-4632346D01*
X34436868Y-4555287D01*
X34323426Y-4665622D01*
X34290268Y-4696775D01*
X34226914Y-4752114D01*
X34163096Y-4803576D01*
X34108573Y-4843101D01*
X34007161Y-4910245D01*
X34080949Y-4935481D01*
X34126386Y-4950200D01*
X34239469Y-4982073D01*
X34371429Y-5014174D01*
X34516388Y-5045281D01*
X34668469Y-5074171D01*
X34821793Y-5099623D01*
X34970483Y-5120415D01*
X35164696Y-5144695D01*
X35108602Y-5237698D01*
X35088567Y-5269901D01*
X35062692Y-5305659D01*
X35042719Y-5322824D01*
X35024884Y-5325338D01*
X35007284Y-5322321D01*
X34965952Y-5315786D01*
X34909667Y-5307194D01*
X34845330Y-5297609D01*
X34630231Y-5261655D01*
X34275713Y-5182635D01*
X33936255Y-5081374D01*
X33773021Y-5026075D01*
X33623718Y-5075672D01*
X33564722Y-5094642D01*
X33313162Y-5162632D01*
X33041686Y-5216137D01*
X32748241Y-5255581D01*
X32686980Y-5262363D01*
X32634132Y-5267082D01*
X32597582Y-5265611D01*
X32571185Y-5255300D01*
X32548792Y-5233497D01*
X32524258Y-5197551D01*
X32491436Y-5144811D01*
X32438428Y-5060549D01*
X32661238Y-5052326D01*
X32749733Y-5048188D01*
X33048645Y-5020306D01*
X33331989Y-4971398D01*
X33340437Y-4969581D01*
X33418806Y-4952600D01*
X33471611Y-4939254D01*
X33500038Y-4926945D01*
X33505269Y-4913075D01*
X33488490Y-4895045D01*
X33450884Y-4870256D01*
X33393636Y-4836110D01*
X33303898Y-4779219D01*
X33209572Y-4712878D01*
X33120378Y-4644023D01*
X33042810Y-4577675D01*
X32983359Y-4518855D01*
X32960014Y-4491693D01*
X32942069Y-4462516D01*
X33217018Y-4462516D01*
X33264616Y-4512009D01*
X33273900Y-4521240D01*
X33325904Y-4565220D01*
X33395362Y-4615652D01*
X33476113Y-4668458D01*
X33561994Y-4719563D01*
X33646845Y-4764889D01*
X33672100Y-4777279D01*
X33721133Y-4800020D01*
X33758842Y-4815749D01*
X33778624Y-4821624D01*
X33801150Y-4815080D01*
X33842223Y-4795004D01*
X33895482Y-4764575D01*
X33955749Y-4727029D01*
X34017848Y-4685601D01*
X34076599Y-4643527D01*
X34126825Y-4604043D01*
X34159441Y-4576991D01*
X34196466Y-4546239D01*
X34223806Y-4521515D01*
X34239670Y-4502166D01*
X34242262Y-4487540D01*
X34229789Y-4476983D01*
X34200458Y-4469841D01*
X34152475Y-4465463D01*
X34084047Y-4463194D01*
X33993381Y-4462382D01*
X33878682Y-4462374D01*
X33738158Y-4462516D01*
X33217018Y-4462516D01*
X32942069Y-4462516D01*
X32941753Y-4462003D01*
X32934001Y-4428619D01*
X32932388Y-4379605D01*
X32932388Y-4296774D01*
X33553922Y-4296774D01*
X33603436Y-4296761D01*
X33748584Y-4296510D01*
X33868669Y-4295852D01*
X33965656Y-4294680D01*
X34041506Y-4292883D01*
X34098182Y-4290352D01*
X34137648Y-4286979D01*
X34161865Y-4282653D01*
X34172796Y-4277265D01*
X34172404Y-4270707D01*
X34162652Y-4262868D01*
X34156280Y-4257479D01*
X34134907Y-4234508D01*
X34107751Y-4201803D01*
X34065654Y-4148650D01*
X34159963Y-4106995D01*
X34254272Y-4065339D01*
X34324098Y-4156886D01*
X34353496Y-4193427D01*
X34419565Y-4267615D01*
X34499361Y-4350065D01*
X34587468Y-4435589D01*
X34644153Y-4487540D01*
G37*
G36*
X48885080Y-4103408D02*
G01*
X48885080Y-4759471D01*
X48885080Y-4766377D01*
X47890626Y-4766377D01*
X47890626Y-4994273D01*
X47890626Y-5222168D01*
X48277358Y-5222168D01*
X48664090Y-5222168D01*
X48664090Y-4994273D01*
X48664090Y-4766377D01*
X48885080Y-4766377D01*
X48885080Y-5608900D01*
X48774585Y-5608900D01*
X48664090Y-5608900D01*
X48664090Y-5512217D01*
X48664090Y-5415534D01*
X48279421Y-5415534D01*
X47894752Y-5415534D01*
X47886413Y-5633071D01*
X47884688Y-5672120D01*
X47879977Y-5749147D01*
X47874152Y-5817273D01*
X47867794Y-5870259D01*
X47861479Y-5901867D01*
X47835813Y-5959286D01*
X47781127Y-6025678D01*
X47705670Y-6074906D01*
X47610699Y-6105947D01*
X47600559Y-6107372D01*
X47560717Y-6110073D01*
X47498966Y-6112311D01*
X47419173Y-6114015D01*
X47325211Y-6115113D01*
X47220949Y-6115534D01*
X47110256Y-6115206D01*
X47073992Y-6114968D01*
X46949279Y-6113922D01*
X46848172Y-6112278D01*
X46767473Y-6109494D01*
X46703988Y-6105026D01*
X46654518Y-6098331D01*
X46615869Y-6088866D01*
X46584843Y-6076087D01*
X46558244Y-6059451D01*
X46532876Y-6038416D01*
X46505543Y-6012438D01*
X46476882Y-5978981D01*
X46447924Y-5928576D01*
X46422811Y-5862534D01*
X46400071Y-5776863D01*
X46378227Y-5667567D01*
X46374320Y-5645802D01*
X46364073Y-5589553D01*
X46355567Y-5544002D01*
X46350336Y-5517400D01*
X46349583Y-5513193D01*
X46351637Y-5498285D01*
X46365646Y-5485099D01*
X46396434Y-5470375D01*
X46448822Y-5450856D01*
X46463781Y-5445605D01*
X46510304Y-5430118D01*
X46543754Y-5420287D01*
X46557703Y-5418049D01*
X46560895Y-5431262D01*
X46567096Y-5466617D01*
X46575300Y-5518481D01*
X46584591Y-5581276D01*
X46599768Y-5671386D01*
X46620745Y-5755072D01*
X46646306Y-5817055D01*
X46677810Y-5860499D01*
X46716619Y-5888569D01*
X46716781Y-5888650D01*
X46733775Y-5895780D01*
X46755013Y-5901363D01*
X46783836Y-5905582D01*
X46823582Y-5908616D01*
X46877592Y-5910648D01*
X46949204Y-5911858D01*
X47041760Y-5912427D01*
X47158598Y-5912536D01*
X47231552Y-5912464D01*
X47339972Y-5911946D01*
X47425602Y-5910482D01*
X47491521Y-5907546D01*
X47540810Y-5902616D01*
X47576552Y-5895166D01*
X47601826Y-5884674D01*
X47619713Y-5870614D01*
X47633295Y-5852463D01*
X47645653Y-5829698D01*
X47655197Y-5807032D01*
X47662250Y-5777207D01*
X47666118Y-5736888D01*
X47667319Y-5680382D01*
X47666371Y-5601994D01*
X47662731Y-5422440D01*
X47162051Y-5418815D01*
X46661371Y-5415190D01*
X46661371Y-5222168D01*
X46882361Y-5222168D01*
X47275999Y-5222168D01*
X47669637Y-5222168D01*
X47669637Y-4994273D01*
X47669637Y-4766377D01*
X47275999Y-4766377D01*
X46882361Y-4766377D01*
X46882361Y-4994273D01*
X46882361Y-5222168D01*
X46661371Y-5222168D01*
X46661371Y-4662616D01*
X46661371Y-4102978D01*
X46882361Y-4102978D01*
X46882361Y-4337994D01*
X46882361Y-4573011D01*
X47276333Y-4573011D01*
X47670305Y-4573011D01*
X47890626Y-4573011D01*
X48277358Y-4573011D01*
X48664090Y-4573011D01*
X48664090Y-4338209D01*
X48664090Y-4103408D01*
X48277358Y-4103408D01*
X47890626Y-4103408D01*
X47890626Y-4338209D01*
X47890626Y-4573011D01*
X47670305Y-4573011D01*
X47666518Y-4341662D01*
X47662731Y-4110314D01*
X47272546Y-4106646D01*
X46882361Y-4102978D01*
X46661371Y-4102978D01*
X46661371Y-3910042D01*
X47165504Y-3910042D01*
X47669637Y-3910042D01*
X47669637Y-3737394D01*
X47669637Y-3564746D01*
X47780131Y-3564746D01*
X47890626Y-3564746D01*
X47890626Y-3737394D01*
X47890626Y-3910042D01*
X48387853Y-3910042D01*
X48885080Y-3910042D01*
X48885080Y-4103408D01*
G37*
G36*
X54225292Y-6590105D02*
G01*
X54229529Y-6682629D01*
X54213373Y-6795912D01*
X54176445Y-6899507D01*
X54125799Y-6987416D01*
X54047313Y-7081386D01*
X53953854Y-7152401D01*
X53844293Y-7201272D01*
X53717503Y-7228809D01*
X53677137Y-7234135D01*
X53631228Y-7241838D01*
X53603484Y-7250282D01*
X53588152Y-7261499D01*
X53579480Y-7277517D01*
X53576120Y-7285877D01*
X53550216Y-7338487D01*
X53512429Y-7403935D01*
X53467303Y-7475003D01*
X53419384Y-7544470D01*
X53373217Y-7605119D01*
X53348857Y-7634452D01*
X53277421Y-7712565D01*
X53201652Y-7782361D01*
X53116101Y-7848159D01*
X53015318Y-7914278D01*
X52893853Y-7985037D01*
X52752164Y-8064054D01*
X52827891Y-8101103D01*
X52859082Y-8118567D01*
X52910021Y-8154746D01*
X52949355Y-8191587D01*
X52953620Y-8196668D01*
X52966891Y-8215542D01*
X52999599Y-8262057D01*
X53050171Y-8351279D01*
X53104085Y-8461479D01*
X53160088Y-8589802D01*
X53216928Y-8733392D01*
X53273352Y-8889396D01*
X53328109Y-9054958D01*
X53337282Y-9083988D01*
X53358461Y-9150911D01*
X53376272Y-9207060D01*
X53389068Y-9247243D01*
X53395201Y-9266273D01*
X53391853Y-9276581D01*
X53369797Y-9280917D01*
X53324740Y-9280085D01*
X53248265Y-9275947D01*
X53214556Y-9179264D01*
X53213026Y-9174883D01*
X53195330Y-9125082D01*
X53180432Y-9084609D01*
X53171418Y-9061864D01*
X53165168Y-9043498D01*
X53158171Y-9008472D01*
X53154213Y-8986554D01*
X53147128Y-8968574D01*
X53141921Y-8967745D01*
X53131769Y-8982465D01*
X53122862Y-9009945D01*
X53117889Y-9040743D01*
X53119541Y-9065418D01*
X53122454Y-9083733D01*
X53111386Y-9082507D01*
X53105974Y-9081114D01*
X53099973Y-9091932D01*
X53098070Y-9122819D01*
X53099816Y-9177460D01*
X53105138Y-9282853D01*
X52030998Y-9282853D01*
X50956858Y-9282853D01*
X50956858Y-9254414D01*
X50959012Y-9238434D01*
X50967217Y-9232371D01*
X50973063Y-9232369D01*
X50979457Y-9214803D01*
X50981014Y-9180401D01*
X50978006Y-9135737D01*
X50970702Y-9087384D01*
X50959374Y-9041913D01*
X50933580Y-8960467D01*
X50918178Y-9004648D01*
X50917616Y-9006292D01*
X50909768Y-9043301D01*
X50911446Y-9071425D01*
X50914197Y-9083324D01*
X50906421Y-9085554D01*
X50904645Y-9085216D01*
X50892865Y-9098395D01*
X50876833Y-9131723D01*
X50859185Y-9179929D01*
X50825645Y-9282768D01*
X50772920Y-9282810D01*
X50743760Y-9281548D01*
X50727211Y-9274595D01*
X50727176Y-9258683D01*
X50728212Y-9255024D01*
X50735987Y-9226821D01*
X50748983Y-9179167D01*
X50765667Y-9117699D01*
X50784505Y-9048052D01*
X50833903Y-8872454D01*
X50885192Y-8707443D01*
X50935088Y-8566057D01*
X50984353Y-8446300D01*
X51033750Y-8346173D01*
X51084044Y-8263678D01*
X51118332Y-8223245D01*
X51154223Y-8192438D01*
X51514808Y-8192438D01*
X51515354Y-8210043D01*
X51515981Y-8214240D01*
X51526308Y-8248760D01*
X51543738Y-8288308D01*
X51546288Y-8293200D01*
X51561717Y-8319581D01*
X51570914Y-8323933D01*
X51578530Y-8309026D01*
X51584548Y-8295372D01*
X51590667Y-8297962D01*
X51597998Y-8325229D01*
X51598281Y-8326471D01*
X51610968Y-8358835D01*
X51627577Y-8376590D01*
X51635949Y-8378456D01*
X51645922Y-8370655D01*
X51649441Y-8344413D01*
X51647596Y-8295306D01*
X51647466Y-8293228D01*
X51648252Y-8267973D01*
X51653400Y-8262289D01*
X51656418Y-8268902D01*
X51661655Y-8297289D01*
X51665077Y-8338254D01*
X51666489Y-8362803D01*
X51671516Y-8391934D01*
X51683347Y-8405176D01*
X51706385Y-8410194D01*
X51730884Y-8416907D01*
X51736778Y-8427246D01*
X51738091Y-8436796D01*
X51756440Y-8455003D01*
X51786707Y-8474174D01*
X51820650Y-8489339D01*
X51850024Y-8495526D01*
X51868920Y-8498675D01*
X51885178Y-8511262D01*
X51888814Y-8513365D01*
X51897744Y-8499392D01*
X51908462Y-8471609D01*
X51918406Y-8437985D01*
X51925015Y-8406486D01*
X51925384Y-8395442D01*
X52020860Y-8395442D01*
X52029161Y-8406825D01*
X52054900Y-8412706D01*
X52067145Y-8412279D01*
X52085085Y-8405602D01*
X52086959Y-8386158D01*
X52074577Y-8347999D01*
X52059725Y-8309118D01*
X52158489Y-8309118D01*
X52160454Y-8318710D01*
X52175754Y-8330047D01*
X52183923Y-8332357D01*
X52172939Y-8342960D01*
X52169832Y-8345053D01*
X52159976Y-8360956D01*
X52168139Y-8386158D01*
X52168618Y-8387637D01*
X52179658Y-8412608D01*
X52192677Y-8449413D01*
X52197374Y-8462357D01*
X52220251Y-8484874D01*
X52258625Y-8485110D01*
X52270133Y-8479389D01*
X52278037Y-8463191D01*
X52281824Y-8431057D01*
X52282796Y-8377164D01*
X52282759Y-8360092D01*
X52281596Y-8314059D01*
X52278718Y-8295306D01*
X52296608Y-8295306D01*
X52300898Y-8318077D01*
X52313873Y-8330047D01*
X52323433Y-8332106D01*
X52312977Y-8341775D01*
X52312636Y-8341997D01*
X52300657Y-8365440D01*
X52300262Y-8377164D01*
X52299165Y-8409753D01*
X52299469Y-8413614D01*
X52303869Y-8446577D01*
X52312075Y-8457767D01*
X52327684Y-8452586D01*
X52341973Y-8439051D01*
X52353457Y-8408567D01*
X52353692Y-8404544D01*
X52356316Y-8389966D01*
X52361287Y-8401888D01*
X52362817Y-8407107D01*
X52372803Y-8418216D01*
X52394215Y-8408924D01*
X52409297Y-8394463D01*
X52418404Y-8366735D01*
X52420914Y-8319607D01*
X52420962Y-8316024D01*
X52437090Y-8316024D01*
X52438338Y-8334627D01*
X52445551Y-8364638D01*
X52458148Y-8368059D01*
X52475676Y-8344555D01*
X52479310Y-8337318D01*
X52490065Y-8299049D01*
X52484109Y-8271408D01*
X52462449Y-8260776D01*
X52446019Y-8264101D01*
X52437814Y-8280065D01*
X52437090Y-8316024D01*
X52420962Y-8316024D01*
X52421361Y-8286510D01*
X52425067Y-8259938D01*
X52435334Y-8249057D01*
X52455444Y-8246964D01*
X52503786Y-8246964D01*
X52504050Y-8271805D01*
X52505269Y-8299049D01*
X52505472Y-8303591D01*
X52507714Y-8316024D01*
X52508195Y-8315842D01*
X52518338Y-8302940D01*
X52535337Y-8275910D01*
X52545950Y-8255889D01*
X52558373Y-8215542D01*
X52553466Y-8188058D01*
X52531409Y-8177905D01*
X52525020Y-8178200D01*
X52511413Y-8184883D01*
X52510330Y-8188506D01*
X52505240Y-8205542D01*
X52504513Y-8226246D01*
X52503786Y-8246964D01*
X52455444Y-8246964D01*
X52477967Y-8242909D01*
X52489974Y-8226246D01*
X52488298Y-8215530D01*
X52471865Y-8206276D01*
X52437992Y-8218332D01*
X52423727Y-8225284D01*
X52388343Y-8239190D01*
X52379059Y-8243218D01*
X52367770Y-8260431D01*
X52368305Y-8295446D01*
X52368526Y-8297411D01*
X52368145Y-8331289D01*
X52358380Y-8343647D01*
X52348892Y-8333028D01*
X52348909Y-8302212D01*
X52350867Y-8283628D01*
X52345847Y-8265157D01*
X52325799Y-8260776D01*
X52325114Y-8260779D01*
X52302837Y-8268484D01*
X52296608Y-8295306D01*
X52278718Y-8295306D01*
X52277643Y-8288297D01*
X52269351Y-8277057D01*
X52255172Y-8274588D01*
X52237710Y-8278893D01*
X52227549Y-8301397D01*
X52225527Y-8317207D01*
X52215025Y-8335945D01*
X52208820Y-8334735D01*
X52209730Y-8316043D01*
X52209759Y-8315932D01*
X52209205Y-8294242D01*
X52187724Y-8288400D01*
X52170152Y-8292285D01*
X52158489Y-8309118D01*
X52059725Y-8309118D01*
X52058550Y-8311233D01*
X52040537Y-8343647D01*
X52027544Y-8371285D01*
X52020860Y-8395442D01*
X51925384Y-8395442D01*
X51925730Y-8385083D01*
X51924820Y-8375771D01*
X51931374Y-8374515D01*
X51931494Y-8374630D01*
X51944238Y-8371039D01*
X51960310Y-8348765D01*
X51966387Y-8336882D01*
X51977078Y-8311233D01*
X51972416Y-8302728D01*
X51951311Y-8306214D01*
X51934727Y-8308343D01*
X51923688Y-8302487D01*
X51921283Y-8299062D01*
X51899946Y-8290215D01*
X51863712Y-8282542D01*
X51851869Y-8280746D01*
X51804549Y-8273256D01*
X51767030Y-8266892D01*
X51761383Y-8265957D01*
X51736653Y-8267478D01*
X51728945Y-8284677D01*
X51728855Y-8286066D01*
X51725276Y-8293750D01*
X51717963Y-8274588D01*
X51707023Y-8252610D01*
X51681358Y-8240058D01*
X51665341Y-8238267D01*
X51646212Y-8229014D01*
X51640562Y-8224648D01*
X51613918Y-8212379D01*
X51575032Y-8198999D01*
X51546113Y-8190551D01*
X51535008Y-8188542D01*
X51777791Y-8188542D01*
X51779062Y-8189157D01*
X51799050Y-8194328D01*
X51837742Y-8202674D01*
X51888349Y-8212713D01*
X51892278Y-8213457D01*
X51952804Y-8223245D01*
X52010248Y-8229913D01*
X52052662Y-8232054D01*
X52085638Y-8229434D01*
X52140384Y-8221832D01*
X52201546Y-8211205D01*
X52258044Y-8199505D01*
X52298800Y-8188684D01*
X52299052Y-8188506D01*
X52285964Y-8187335D01*
X52249782Y-8186320D01*
X52194462Y-8185522D01*
X52123962Y-8184999D01*
X52042239Y-8184811D01*
X52031271Y-8184814D01*
X51950041Y-8185041D01*
X51879960Y-8185585D01*
X51825145Y-8186389D01*
X51789715Y-8187394D01*
X51777791Y-8188542D01*
X51535008Y-8188542D01*
X51522870Y-8186346D01*
X51514808Y-8192438D01*
X51154223Y-8192438D01*
X51178640Y-8171479D01*
X51248460Y-8126077D01*
X51318040Y-8094107D01*
X51368455Y-8076670D01*
X51262793Y-8022642D01*
X51209170Y-7994785D01*
X51103977Y-7936312D01*
X51015419Y-7880107D01*
X50936944Y-7821454D01*
X50862001Y-7755634D01*
X50784036Y-7677931D01*
X50736499Y-7627445D01*
X50682168Y-7565657D01*
X50638862Y-7509393D01*
X50600912Y-7451108D01*
X50562648Y-7383256D01*
X50532314Y-7327099D01*
X50507801Y-7284368D01*
X50489378Y-7258233D01*
X50473419Y-7244599D01*
X50456297Y-7239372D01*
X50434387Y-7238459D01*
X50399557Y-7236003D01*
X50346000Y-7228690D01*
X50289445Y-7218255D01*
X50221947Y-7199945D01*
X50116137Y-7150671D01*
X50025669Y-7078770D01*
X49949007Y-6983180D01*
X49895594Y-6889189D01*
X49858792Y-6788291D01*
X49844856Y-6685990D01*
X49846716Y-6658601D01*
X49970109Y-6658601D01*
X49970464Y-6703253D01*
X49972953Y-6754235D01*
X49979331Y-6792122D01*
X49991335Y-6825681D01*
X50010699Y-6863684D01*
X50034880Y-6902615D01*
X50100043Y-6979212D01*
X50177952Y-7042740D01*
X50260545Y-7086026D01*
X50291904Y-7096329D01*
X50346774Y-7109316D01*
X50392021Y-7114392D01*
X50392369Y-7114392D01*
X50427352Y-7112634D01*
X50441013Y-7105168D01*
X50439513Y-7088658D01*
X50428515Y-7047450D01*
X50413144Y-6968245D01*
X50398654Y-6868808D01*
X50385652Y-6753481D01*
X50374748Y-6626605D01*
X50368408Y-6540430D01*
X50489918Y-6540430D01*
X50492376Y-6585491D01*
X50497215Y-6644599D01*
X50503864Y-6712174D01*
X50511750Y-6782637D01*
X50520299Y-6850408D01*
X50528939Y-6909907D01*
X50537098Y-6955556D01*
X50575122Y-7105168D01*
X50576266Y-7109670D01*
X50631157Y-7256803D01*
X50702108Y-7389245D01*
X50792228Y-7512726D01*
X50904625Y-7632979D01*
X50999940Y-7717056D01*
X51160032Y-7829757D01*
X51336045Y-7923651D01*
X51523676Y-7996551D01*
X51718617Y-8046270D01*
X51742050Y-8050249D01*
X51802413Y-8058108D01*
X51873837Y-8065197D01*
X51949906Y-8071109D01*
X52024204Y-8075441D01*
X52090313Y-8077787D01*
X52141818Y-8077742D01*
X52172301Y-8074902D01*
X52178942Y-8073546D01*
X52210735Y-8068286D01*
X52259162Y-8061041D01*
X52316683Y-8052956D01*
X52433955Y-8030775D01*
X52588242Y-7985952D01*
X52743434Y-7925320D01*
X52890830Y-7852363D01*
X53021730Y-7770566D01*
X53032426Y-7762798D01*
X53107055Y-7701103D01*
X53187254Y-7624133D01*
X53265971Y-7539413D01*
X53336155Y-7454466D01*
X53390754Y-7376817D01*
X53403245Y-7356125D01*
X53472750Y-7212970D01*
X53504900Y-7114392D01*
X53640815Y-7114392D01*
X53697286Y-7114381D01*
X53721004Y-7112543D01*
X53785359Y-7095732D01*
X53855875Y-7064849D01*
X53923696Y-7024167D01*
X53979968Y-6977959D01*
X53994761Y-6962774D01*
X54043624Y-6902810D01*
X54075740Y-6840695D01*
X54094477Y-6768209D01*
X54103204Y-6677132D01*
X54104595Y-6643890D01*
X54105025Y-6590105D01*
X54100996Y-6550122D01*
X54091183Y-6514661D01*
X54074261Y-6474441D01*
X54046744Y-6424247D01*
X54009151Y-6370294D01*
X53967985Y-6321337D01*
X53928723Y-6283859D01*
X53896841Y-6264347D01*
X53880287Y-6263622D01*
X53850298Y-6277863D01*
X53808646Y-6312162D01*
X53780064Y-6337151D01*
X53762364Y-6350654D01*
X53750355Y-6359815D01*
X53733349Y-6368552D01*
X53732678Y-6368646D01*
X53725615Y-6383717D01*
X53720927Y-6421282D01*
X53719229Y-6476648D01*
X53718598Y-6505607D01*
X53717700Y-6546865D01*
X53710574Y-6662457D01*
X53698674Y-6784049D01*
X53683156Y-6900444D01*
X53665174Y-7000444D01*
X53640815Y-7114392D01*
X53504900Y-7114392D01*
X53526861Y-7047057D01*
X53565527Y-6858574D01*
X53588696Y-6647710D01*
X53598556Y-6505607D01*
X53563997Y-6521353D01*
X53560062Y-6523228D01*
X53540175Y-6538539D01*
X53534065Y-6552546D01*
X53528797Y-6564622D01*
X53521924Y-6609900D01*
X53520342Y-6623079D01*
X53498265Y-6708357D01*
X53458790Y-6779253D01*
X53404736Y-6830460D01*
X53376493Y-6846450D01*
X53329906Y-6864484D01*
X53271425Y-6878351D01*
X53197922Y-6888447D01*
X53106267Y-6895171D01*
X52993332Y-6898918D01*
X52855988Y-6900086D01*
X52784223Y-6900034D01*
X52700890Y-6899579D01*
X52637955Y-6898342D01*
X52591146Y-6895954D01*
X52556191Y-6892044D01*
X52528818Y-6886242D01*
X52504755Y-6878177D01*
X52479730Y-6867480D01*
X52453263Y-6853831D01*
X52401556Y-6819466D01*
X52360545Y-6783063D01*
X52339718Y-6755961D01*
X52309170Y-6704184D01*
X52282034Y-6646144D01*
X52262603Y-6591366D01*
X52255172Y-6549372D01*
X52254371Y-6542197D01*
X52244381Y-6529783D01*
X52218339Y-6521334D01*
X52170467Y-6514467D01*
X52162391Y-6513647D01*
X52103491Y-6510765D01*
X52033023Y-6511004D01*
X51964510Y-6514369D01*
X51843258Y-6523854D01*
X51843030Y-6525078D01*
X51833938Y-6573963D01*
X51812389Y-6653263D01*
X51765397Y-6743073D01*
X51697192Y-6815278D01*
X51607437Y-6870318D01*
X51597715Y-6874699D01*
X51575124Y-6883357D01*
X51549999Y-6889764D01*
X51518157Y-6894254D01*
X51475417Y-6897163D01*
X51417599Y-6898825D01*
X51340521Y-6899575D01*
X51240001Y-6899748D01*
X51181326Y-6899590D01*
X51056995Y-6897754D01*
X50955572Y-6893478D01*
X50873759Y-6886291D01*
X50808258Y-6875718D01*
X50755769Y-6861288D01*
X50712993Y-6842526D01*
X50676632Y-6818960D01*
X50674082Y-6816987D01*
X50619373Y-6757199D01*
X50584053Y-6681333D01*
X50570877Y-6595212D01*
X50568631Y-6562882D01*
X50558004Y-6538091D01*
X50533812Y-6522182D01*
X50506886Y-6512372D01*
X50491524Y-6511609D01*
X50490415Y-6514995D01*
X50489918Y-6540430D01*
X50368408Y-6540430D01*
X50365511Y-6501056D01*
X50614597Y-6501056D01*
X50614870Y-6577162D01*
X50616974Y-6600240D01*
X50634162Y-6679861D01*
X50667291Y-6740852D01*
X50718909Y-6785632D01*
X50791562Y-6816619D01*
X50887799Y-6836232D01*
X50913783Y-6839463D01*
X50999372Y-6847410D01*
X51096746Y-6853416D01*
X51198060Y-6857244D01*
X51295468Y-6858653D01*
X51381123Y-6857407D01*
X51447179Y-6853265D01*
X51496677Y-6846146D01*
X51594478Y-6817229D01*
X51671645Y-6770339D01*
X51728786Y-6705035D01*
X51766504Y-6620876D01*
X51772831Y-6598652D01*
X51785995Y-6525078D01*
X51782813Y-6496814D01*
X52311279Y-6496814D01*
X52313988Y-6564579D01*
X52338185Y-6648902D01*
X52361397Y-6699285D01*
X52408479Y-6760565D01*
X52472456Y-6805430D01*
X52556123Y-6835642D01*
X52662275Y-6852960D01*
X52701594Y-6856519D01*
X52784522Y-6861734D01*
X52864572Y-6862732D01*
X52951799Y-6859487D01*
X53056260Y-6851975D01*
X53174648Y-6840099D01*
X53269611Y-6824798D01*
X53342440Y-6804208D01*
X53395878Y-6776347D01*
X53432669Y-6739234D01*
X53455557Y-6690884D01*
X53467284Y-6629315D01*
X53470594Y-6552546D01*
X53469521Y-6498551D01*
X53463455Y-6450792D01*
X53449287Y-6419820D01*
X53423960Y-6399668D01*
X53384418Y-6384371D01*
X53337490Y-6372828D01*
X53253496Y-6360036D01*
X53151921Y-6350763D01*
X53038388Y-6345008D01*
X52918518Y-6342773D01*
X52797935Y-6344057D01*
X52682260Y-6348860D01*
X52577117Y-6357181D01*
X52488128Y-6369021D01*
X52420914Y-6384381D01*
X52371939Y-6405815D01*
X52330462Y-6444322D01*
X52311279Y-6496814D01*
X51782813Y-6496814D01*
X51779695Y-6469112D01*
X51752089Y-6427537D01*
X51701335Y-6397131D01*
X51625589Y-6374676D01*
X51622398Y-6373984D01*
X51541729Y-6361045D01*
X51442211Y-6351830D01*
X51329630Y-6346269D01*
X51209774Y-6344294D01*
X51088429Y-6345833D01*
X50971379Y-6350819D01*
X50864413Y-6359180D01*
X50773316Y-6370849D01*
X50703873Y-6385754D01*
X50699655Y-6387030D01*
X50655295Y-6409633D01*
X50627507Y-6446427D01*
X50614597Y-6501056D01*
X50365511Y-6501056D01*
X50357660Y-6394337D01*
X50315416Y-6376678D01*
X50280248Y-6357530D01*
X50276685Y-6354567D01*
X50487255Y-6354567D01*
X50487750Y-6387719D01*
X50491792Y-6422394D01*
X50502330Y-6443584D01*
X50522216Y-6459882D01*
X50522844Y-6460292D01*
X50548141Y-6474599D01*
X50560608Y-6477465D01*
X50561914Y-6475074D01*
X50571901Y-6454331D01*
X50587279Y-6420971D01*
X50593440Y-6408483D01*
X50619876Y-6373014D01*
X50658259Y-6347437D01*
X50713793Y-6329058D01*
X50791686Y-6315181D01*
X50870031Y-6305759D01*
X51002430Y-6295249D01*
X51137802Y-6290417D01*
X51271821Y-6291031D01*
X51400158Y-6296860D01*
X51518483Y-6307670D01*
X51622470Y-6323230D01*
X51707788Y-6343308D01*
X51770111Y-6367671D01*
X51770517Y-6367891D01*
X51798011Y-6392734D01*
X51819987Y-6428364D01*
X51838254Y-6472141D01*
X52046716Y-6467996D01*
X52255179Y-6463851D01*
X52276036Y-6423517D01*
X52285241Y-6408217D01*
X52312711Y-6379439D01*
X52352902Y-6355958D01*
X52408790Y-6336889D01*
X52483354Y-6321346D01*
X52579573Y-6308443D01*
X52700423Y-6297295D01*
X52707641Y-6296743D01*
X52806109Y-6291843D01*
X52914122Y-6290567D01*
X53025497Y-6292631D01*
X53134049Y-6297749D01*
X53233595Y-6305638D01*
X53317951Y-6316013D01*
X53380934Y-6328590D01*
X53397590Y-6333901D01*
X53451965Y-6362701D01*
X53494791Y-6402351D01*
X53518103Y-6446031D01*
X53518149Y-6446214D01*
X53529880Y-6473346D01*
X53547255Y-6475136D01*
X53573727Y-6451950D01*
X53574268Y-6451347D01*
X53583394Y-6438293D01*
X53589613Y-6420162D01*
X53593268Y-6392451D01*
X53594697Y-6350654D01*
X53594241Y-6290269D01*
X53592240Y-6206790D01*
X53591140Y-6168167D01*
X53588521Y-6094904D01*
X53585157Y-6041331D01*
X53580197Y-6001888D01*
X53572789Y-5971018D01*
X53562083Y-5943162D01*
X53547229Y-5912761D01*
X53501568Y-5829690D01*
X53420871Y-5710156D01*
X53333476Y-5614762D01*
X53236918Y-5541407D01*
X53128729Y-5487991D01*
X53006441Y-5452415D01*
X53005809Y-5452282D01*
X52955257Y-5442422D01*
X52924785Y-5439260D01*
X52907729Y-5442847D01*
X52897423Y-5453230D01*
X52875174Y-5484907D01*
X52846283Y-5514967D01*
X52812893Y-5531461D01*
X52765002Y-5541021D01*
X52759970Y-5541708D01*
X52690877Y-5547834D01*
X52601987Y-5551324D01*
X52500352Y-5552268D01*
X52393024Y-5550760D01*
X52287055Y-5546892D01*
X52189497Y-5540754D01*
X52107402Y-5532440D01*
X51987090Y-5513293D01*
X51821360Y-5477635D01*
X51651175Y-5431860D01*
X51484556Y-5378377D01*
X51329520Y-5319596D01*
X51194085Y-5257927D01*
X51171107Y-5246335D01*
X51135784Y-5229591D01*
X51117205Y-5224316D01*
X51109997Y-5229689D01*
X51108788Y-5244890D01*
X51101696Y-5275096D01*
X51082384Y-5321677D01*
X51054409Y-5377683D01*
X51021330Y-5436430D01*
X50986706Y-5491234D01*
X50954097Y-5535411D01*
X50952039Y-5537866D01*
X50909416Y-5583091D01*
X50855768Y-5632882D01*
X50802195Y-5676900D01*
X50790300Y-5686043D01*
X50717903Y-5750311D01*
X50658566Y-5821548D01*
X50609152Y-5904917D01*
X50566522Y-6005579D01*
X50527538Y-6128699D01*
X50524340Y-6140291D01*
X50504853Y-6221860D01*
X50491933Y-6296413D01*
X50487255Y-6354567D01*
X50276685Y-6354567D01*
X50253459Y-6335251D01*
X50229605Y-6313674D01*
X50194993Y-6291442D01*
X50172592Y-6281418D01*
X50154367Y-6281583D01*
X50133298Y-6295567D01*
X50101228Y-6326411D01*
X50080638Y-6349016D01*
X50040595Y-6401629D01*
X50008091Y-6454404D01*
X49997588Y-6475216D01*
X49983033Y-6510645D01*
X49974698Y-6547119D01*
X49970939Y-6593488D01*
X49970109Y-6658601D01*
X49846716Y-6658601D01*
X49852318Y-6576116D01*
X49866699Y-6513303D01*
X49895043Y-6434076D01*
X49931867Y-6356963D01*
X49973074Y-6290379D01*
X50014570Y-6242740D01*
X50024808Y-6233620D01*
X50048144Y-6209034D01*
X50054277Y-6189643D01*
X50046996Y-6166541D01*
X50036151Y-6129256D01*
X50031464Y-6085277D01*
X50029807Y-6064177D01*
X50020346Y-6015720D01*
X50005294Y-5965073D01*
X50001102Y-5953146D01*
X49965731Y-5832960D01*
X49934547Y-5692372D01*
X49908358Y-5537700D01*
X49887973Y-5375259D01*
X49874197Y-5211367D01*
X49867839Y-5052340D01*
X49869706Y-4904496D01*
X49870977Y-4879460D01*
X49887070Y-4712911D01*
X49915415Y-4551272D01*
X49954631Y-4400013D01*
X50003335Y-4264606D01*
X50060147Y-4150520D01*
X50077591Y-4123228D01*
X50136638Y-4046528D01*
X50210525Y-3966001D01*
X50292409Y-3888308D01*
X50375451Y-3820112D01*
X50452809Y-3768077D01*
X50500229Y-3738893D01*
X50557371Y-3695899D01*
X50590155Y-3658638D01*
X50599822Y-3642973D01*
X50665706Y-3559719D01*
X50753154Y-3477631D01*
X50857202Y-3400101D01*
X50972883Y-3330523D01*
X51095232Y-3272289D01*
X51219283Y-3228793D01*
X51300435Y-3209600D01*
X51420184Y-3190104D01*
X51556025Y-3175424D01*
X51701783Y-3165830D01*
X51851283Y-3161588D01*
X51998350Y-3162966D01*
X52136808Y-3170231D01*
X52260483Y-3183652D01*
X52345828Y-3197335D01*
X52610846Y-3257331D01*
X52864655Y-3342405D01*
X53108459Y-3453007D01*
X53343460Y-3589588D01*
X53344216Y-3590079D01*
X53428297Y-3646757D01*
X53503165Y-3702605D01*
X53573964Y-3762221D01*
X53645835Y-3830201D01*
X53723921Y-3911142D01*
X53813364Y-4009640D01*
X53817963Y-4014804D01*
X53902326Y-4107884D01*
X53972867Y-4181890D01*
X54032496Y-4239481D01*
X54084125Y-4283322D01*
X54130662Y-4316072D01*
X54175020Y-4340395D01*
X54194080Y-4350206D01*
X54234207Y-4375574D01*
X54261037Y-4398940D01*
X54281568Y-4440988D01*
X54281364Y-4491104D01*
X54259826Y-4539017D01*
X54218732Y-4577246D01*
X54188654Y-4595991D01*
X54165260Y-4611050D01*
X54160349Y-4617567D01*
X54156600Y-4637498D01*
X54156657Y-4673398D01*
X54160583Y-4729055D01*
X54168438Y-4808257D01*
X54168655Y-4810301D01*
X54176325Y-4898788D01*
X54182671Y-5001906D01*
X54187038Y-5107009D01*
X54188773Y-5201450D01*
X54189159Y-5245734D01*
X54192624Y-5348448D01*
X54199423Y-5431708D01*
X54209273Y-5491499D01*
X54217858Y-5529949D01*
X54226310Y-5575884D01*
X54229775Y-5606510D01*
X54229665Y-5610031D01*
X54216448Y-5644848D01*
X54187379Y-5680472D01*
X54151170Y-5708216D01*
X54116537Y-5719395D01*
X54110510Y-5719625D01*
X54098826Y-5723200D01*
X54088629Y-5734181D01*
X54078340Y-5756461D01*
X54066382Y-5793934D01*
X54051175Y-5850491D01*
X54031142Y-5930026D01*
X54020508Y-5972596D01*
X54003229Y-6041030D01*
X53988747Y-6097453D01*
X53978337Y-6136928D01*
X53973270Y-6154519D01*
X53976440Y-6164599D01*
X53996029Y-6187992D01*
X54028096Y-6216655D01*
X54087333Y-6273735D01*
X54153703Y-6368591D01*
X54203760Y-6481721D01*
X54224317Y-6568805D01*
X54225292Y-6590105D01*
G37*
D15*
%TO.C,U2*%
X24411000Y-4144000D02*
X24411000Y-8496000D01*
X24411000Y-8496000D02*
X29689000Y-8496000D01*
X29689000Y-4144000D02*
X24411000Y-4144000D01*
X29689000Y-8496000D02*
X29689000Y-4144000D01*
D12*
X24528000Y-2790000D02*
G75*
G03*
X24528000Y-2790000I-150000J0D01*
G01*
X25295000Y-4896000D02*
G75*
G03*
X25295000Y-4896000I-150000J0D01*
G01*
D14*
%TO.C,C1*%
X23040000Y-6427836D02*
X23040000Y-6212164D01*
X23760000Y-6427836D02*
X23760000Y-6212164D01*
%TO.C,J1*%
X15890000Y1140000D02*
X15890000Y3800000D01*
X51510000Y1140000D02*
X15890000Y1140000D01*
X51510000Y1140000D02*
X51510000Y3800000D01*
X52780000Y1140000D02*
X54110000Y1140000D01*
X54110000Y1140000D02*
X54110000Y2470000D01*
X51510000Y3800000D02*
X15890000Y3800000D01*
%TD*%
%LPC*%
D16*
%TO.C,HOLE2*%
X14660000Y2470000D03*
%TD*%
D17*
%TO.C,U3*%
X43199558Y-6350000D03*
X42351030Y-5501472D03*
X42351030Y-7198528D03*
X41502502Y-6350000D03*
%TD*%
D16*
%TO.C,HOLE1*%
X1910000Y1590000D03*
%TD*%
D18*
%TO.C,J2*%
X12140000Y2470000D03*
D19*
X9600000Y2470000D03*
X7060000Y2470000D03*
X4520000Y2470000D03*
%TD*%
D16*
%TO.C,HOLE3*%
X55140000Y2420000D03*
%TD*%
D20*
%TO.C,USB1*%
X5749000Y-3460000D03*
X5749000Y-9240000D03*
D21*
X6249000Y-2025000D03*
X6249000Y-10675000D03*
D22*
X2049000Y-2025000D03*
X2049000Y-10675000D03*
%TD*%
D16*
%TO.C,HOLE4*%
X55140000Y-15070000D03*
%TD*%
%TO.C,HOLE5*%
X1910000Y-14210000D03*
%TD*%
D18*
%TO.C,J3*%
X52780000Y-15090000D03*
D19*
X50240000Y-15090000D03*
X47700000Y-15090000D03*
X45160000Y-15090000D03*
X42620000Y-15090000D03*
X40080000Y-15090000D03*
X37540000Y-15090000D03*
X35000000Y-15090000D03*
X32460000Y-15090000D03*
X29920000Y-15090000D03*
X27380000Y-15090000D03*
X24840000Y-15090000D03*
X22300000Y-15090000D03*
X19760000Y-15090000D03*
X17220000Y-15090000D03*
%TD*%
D23*
%TO.C,U2*%
X25145000Y-2790000D03*
X26415000Y-2790000D03*
X27685000Y-2790000D03*
X28955000Y-2790000D03*
X28955000Y-9850000D03*
X27685000Y-9850000D03*
X26415000Y-9850000D03*
X25145000Y-9850000D03*
%TD*%
D24*
%TO.C,C1*%
X23400000Y-6800000D03*
X23400000Y-5840000D03*
%TD*%
D18*
%TO.C,J1*%
X52780000Y2470000D03*
D19*
X50240000Y2470000D03*
X47700000Y2470000D03*
X45160000Y2470000D03*
X42620000Y2470000D03*
X40080000Y2470000D03*
X37540000Y2470000D03*
X35000000Y2470000D03*
X32460000Y2470000D03*
X29920000Y2470000D03*
X27380000Y2470000D03*
X24840000Y2470000D03*
X22300000Y2470000D03*
X19760000Y2470000D03*
X17220000Y2470000D03*
%TD*%
M02*
