%TF.GenerationSoftware,KiCad,Pcbnew,(6.0.11)*%
%TF.CreationDate,2023-02-12T14:57:39+08:00*%
%TF.ProjectId,UINIO-MCU-ESP32C3,55494e49-4f2d-44d4-9355-2d4553503332,Version 3.2.0*%
%TF.SameCoordinates,PX735b400PY5c274f0*%
%TF.FileFunction,Legend,Bot*%
%TF.FilePolarity,Positive*%
%FSLAX46Y46*%
G04 Gerber Fmt 4.6, Leading zero omitted, Abs format (unit mm)*
G04 Created by KiCad (PCBNEW (6.0.11)) date 2023-02-12 14:57:39*
%MOMM*%
%LPD*%
G01*
G04 APERTURE LIST*
G04 Aperture macros list*
%AMRoundRect*
0 Rectangle with rounded corners*
0 $1 Rounding radius*
0 $2 $3 $4 $5 $6 $7 $8 $9 X,Y pos of 4 corners*
0 Add a 4 corners polygon primitive as box body*
4,1,4,$2,$3,$4,$5,$6,$7,$8,$9,$2,$3,0*
0 Add four circle primitives for the rounded corners*
1,1,$1+$1,$2,$3*
1,1,$1+$1,$4,$5*
1,1,$1+$1,$6,$7*
1,1,$1+$1,$8,$9*
0 Add four rect primitives between the rounded corners*
20,1,$1+$1,$2,$3,$4,$5,0*
20,1,$1+$1,$4,$5,$6,$7,0*
20,1,$1+$1,$6,$7,$8,$9,0*
20,1,$1+$1,$8,$9,$2,$3,0*%
G04 Aperture macros list end*
%ADD10C,0.150000*%
%ADD11C,0.200000*%
%ADD12C,0.300000*%
%ADD13C,0.100000*%
%ADD14C,0.152000*%
%ADD15C,0.120000*%
%ADD16C,1.200000*%
%ADD17C,0.610000*%
%ADD18R,1.700000X1.700000*%
%ADD19O,1.700000X1.700000*%
%ADD20C,0.650000*%
%ADD21O,2.100000X1.000000*%
%ADD22O,1.900000X1.000000*%
%ADD23O,0.630000X2.250000*%
%ADD24RoundRect,0.140000X0.170000X-0.140000X0.170000X0.140000X-0.170000X0.140000X-0.170000X-0.140000X0*%
G04 APERTURE END LIST*
D10*
X1656666Y-2956666D02*
X2356666Y-3190000D01*
X1656666Y-3423333D01*
X2323333Y-3923333D02*
X2356666Y-3856666D01*
X2356666Y-3723333D01*
X2323333Y-3656666D01*
X2256666Y-3623333D01*
X1990000Y-3623333D01*
X1923333Y-3656666D01*
X1890000Y-3723333D01*
X1890000Y-3856666D01*
X1923333Y-3923333D01*
X1990000Y-3956666D01*
X2056666Y-3956666D01*
X2123333Y-3623333D01*
X2356666Y-4256666D02*
X1890000Y-4256666D01*
X2023333Y-4256666D02*
X1956666Y-4290000D01*
X1923333Y-4323333D01*
X1890000Y-4390000D01*
X1890000Y-4456666D01*
X2323333Y-4656666D02*
X2356666Y-4723333D01*
X2356666Y-4856666D01*
X2323333Y-4923333D01*
X2256666Y-4956666D01*
X2223333Y-4956666D01*
X2156666Y-4923333D01*
X2123333Y-4856666D01*
X2123333Y-4756666D01*
X2090000Y-4690000D01*
X2023333Y-4656666D01*
X1990000Y-4656666D01*
X1923333Y-4690000D01*
X1890000Y-4756666D01*
X1890000Y-4856666D01*
X1923333Y-4923333D01*
X2356666Y-5256666D02*
X1890000Y-5256666D01*
X1656666Y-5256666D02*
X1690000Y-5223333D01*
X1723333Y-5256666D01*
X1690000Y-5290000D01*
X1656666Y-5256666D01*
X1723333Y-5256666D01*
X2356666Y-5690000D02*
X2323333Y-5623333D01*
X2290000Y-5590000D01*
X2223333Y-5556666D01*
X2023333Y-5556666D01*
X1956666Y-5590000D01*
X1923333Y-5623333D01*
X1890000Y-5690000D01*
X1890000Y-5790000D01*
X1923333Y-5856666D01*
X1956666Y-5890000D01*
X2023333Y-5923333D01*
X2223333Y-5923333D01*
X2290000Y-5890000D01*
X2323333Y-5856666D01*
X2356666Y-5790000D01*
X2356666Y-5690000D01*
X1890000Y-6223333D02*
X2356666Y-6223333D01*
X1956666Y-6223333D02*
X1923333Y-6256666D01*
X1890000Y-6323333D01*
X1890000Y-6423333D01*
X1923333Y-6490000D01*
X1990000Y-6523333D01*
X2356666Y-6523333D01*
X1656666Y-7323333D02*
X1656666Y-7756666D01*
X1923333Y-7523333D01*
X1923333Y-7623333D01*
X1956666Y-7690000D01*
X1990000Y-7723333D01*
X2056666Y-7756666D01*
X2223333Y-7756666D01*
X2290000Y-7723333D01*
X2323333Y-7690000D01*
X2356666Y-7623333D01*
X2356666Y-7423333D01*
X2323333Y-7356666D01*
X2290000Y-7323333D01*
X2290000Y-8056666D02*
X2323333Y-8090000D01*
X2356666Y-8056666D01*
X2323333Y-8023333D01*
X2290000Y-8056666D01*
X2356666Y-8056666D01*
X1723333Y-8356666D02*
X1690000Y-8390000D01*
X1656666Y-8456666D01*
X1656666Y-8623333D01*
X1690000Y-8690000D01*
X1723333Y-8723333D01*
X1790000Y-8756666D01*
X1856666Y-8756666D01*
X1956666Y-8723333D01*
X2356666Y-8323333D01*
X2356666Y-8756666D01*
X2290000Y-9056666D02*
X2323333Y-9090000D01*
X2356666Y-9056666D01*
X2323333Y-9023333D01*
X2290000Y-9056666D01*
X2356666Y-9056666D01*
X1656666Y-9523333D02*
X1656666Y-9590000D01*
X1690000Y-9656666D01*
X1723333Y-9690000D01*
X1790000Y-9723333D01*
X1923333Y-9756666D01*
X2090000Y-9756666D01*
X2223333Y-9723333D01*
X2290000Y-9690000D01*
X2323333Y-9656666D01*
X2356666Y-9590000D01*
X2356666Y-9523333D01*
X2323333Y-9456666D01*
X2290000Y-9423333D01*
X2223333Y-9390000D01*
X2090000Y-9356666D01*
X1923333Y-9356666D01*
X1790000Y-9390000D01*
X1723333Y-9423333D01*
X1690000Y-9456666D01*
X1656666Y-9523333D01*
D11*
X3684523Y450000D02*
X4372619Y450000D01*
X4453571Y409524D01*
X4494047Y369048D01*
X4534523Y288096D01*
X4534523Y126191D01*
X4494047Y45239D01*
X4453571Y4762D01*
X4372619Y-35714D01*
X3684523Y-35714D01*
X4534523Y-440476D02*
X3684523Y-440476D01*
X4534523Y-845238D02*
X3684523Y-845238D01*
X4534523Y-1330952D01*
X3684523Y-1330952D01*
X4534523Y-1735714D02*
X3684523Y-1735714D01*
X3684523Y-2302380D02*
X3684523Y-2464285D01*
X3725000Y-2545238D01*
X3805952Y-2626190D01*
X3967857Y-2666666D01*
X4251190Y-2666666D01*
X4413095Y-2626190D01*
X4494047Y-2545238D01*
X4534523Y-2464285D01*
X4534523Y-2302380D01*
X4494047Y-2221428D01*
X4413095Y-2140476D01*
X4251190Y-2100000D01*
X3967857Y-2100000D01*
X3805952Y-2140476D01*
X3725000Y-2221428D01*
X3684523Y-2302380D01*
X4210714Y-3030952D02*
X4210714Y-3678571D01*
X4534523Y-4083333D02*
X3684523Y-4083333D01*
X4291666Y-4366666D01*
X3684523Y-4650000D01*
X4534523Y-4650000D01*
X4453571Y-5540476D02*
X4494047Y-5500000D01*
X4534523Y-5378571D01*
X4534523Y-5297619D01*
X4494047Y-5176190D01*
X4413095Y-5095238D01*
X4332142Y-5054761D01*
X4170238Y-5014285D01*
X4048809Y-5014285D01*
X3886904Y-5054761D01*
X3805952Y-5095238D01*
X3725000Y-5176190D01*
X3684523Y-5297619D01*
X3684523Y-5378571D01*
X3725000Y-5500000D01*
X3765476Y-5540476D01*
X3684523Y-5904761D02*
X4372619Y-5904761D01*
X4453571Y-5945238D01*
X4494047Y-5985714D01*
X4534523Y-6066666D01*
X4534523Y-6228571D01*
X4494047Y-6309523D01*
X4453571Y-6350000D01*
X4372619Y-6390476D01*
X3684523Y-6390476D01*
X4210714Y-6795238D02*
X4210714Y-7442857D01*
X4089285Y-7847619D02*
X4089285Y-8130952D01*
X4534523Y-8252380D02*
X4534523Y-7847619D01*
X3684523Y-7847619D01*
X3684523Y-8252380D01*
X4494047Y-8576190D02*
X4534523Y-8697619D01*
X4534523Y-8900000D01*
X4494047Y-8980952D01*
X4453571Y-9021428D01*
X4372619Y-9061904D01*
X4291666Y-9061904D01*
X4210714Y-9021428D01*
X4170238Y-8980952D01*
X4129761Y-8900000D01*
X4089285Y-8738095D01*
X4048809Y-8657142D01*
X4008333Y-8616666D01*
X3927380Y-8576190D01*
X3846428Y-8576190D01*
X3765476Y-8616666D01*
X3725000Y-8657142D01*
X3684523Y-8738095D01*
X3684523Y-8940476D01*
X3725000Y-9061904D01*
X4534523Y-9426190D02*
X3684523Y-9426190D01*
X3684523Y-9750000D01*
X3725000Y-9830952D01*
X3765476Y-9871428D01*
X3846428Y-9911904D01*
X3967857Y-9911904D01*
X4048809Y-9871428D01*
X4089285Y-9830952D01*
X4129761Y-9750000D01*
X4129761Y-9426190D01*
X3684523Y-10195238D02*
X3684523Y-10721428D01*
X4008333Y-10438095D01*
X4008333Y-10559523D01*
X4048809Y-10640476D01*
X4089285Y-10680952D01*
X4170238Y-10721428D01*
X4372619Y-10721428D01*
X4453571Y-10680952D01*
X4494047Y-10640476D01*
X4534523Y-10559523D01*
X4534523Y-10316666D01*
X4494047Y-10235714D01*
X4453571Y-10195238D01*
X3765476Y-11045238D02*
X3725000Y-11085714D01*
X3684523Y-11166666D01*
X3684523Y-11369047D01*
X3725000Y-11450000D01*
X3765476Y-11490476D01*
X3846428Y-11530952D01*
X3927380Y-11530952D01*
X4048809Y-11490476D01*
X4534523Y-11004761D01*
X4534523Y-11530952D01*
X4453571Y-12380952D02*
X4494047Y-12340476D01*
X4534523Y-12219047D01*
X4534523Y-12138095D01*
X4494047Y-12016666D01*
X4413095Y-11935714D01*
X4332142Y-11895238D01*
X4170238Y-11854761D01*
X4048809Y-11854761D01*
X3886904Y-11895238D01*
X3805952Y-11935714D01*
X3725000Y-12016666D01*
X3684523Y-12138095D01*
X3684523Y-12219047D01*
X3725000Y-12340476D01*
X3765476Y-12380952D01*
X3684523Y-12664285D02*
X3684523Y-13190476D01*
X4008333Y-12907142D01*
X4008333Y-13028571D01*
X4048809Y-13109523D01*
X4089285Y-13150000D01*
X4170238Y-13190476D01*
X4372619Y-13190476D01*
X4453571Y-13150000D01*
X4494047Y-13109523D01*
X4534523Y-13028571D01*
X4534523Y-12785714D01*
X4494047Y-12704761D01*
X4453571Y-12664285D01*
D12*
%TO.C,*%
D13*
%TO.C,U2*%
X28293928Y-5822857D02*
X28779642Y-5822857D01*
X28836785Y-5851428D01*
X28865357Y-5880000D01*
X28893928Y-5937142D01*
X28893928Y-6051428D01*
X28865357Y-6108571D01*
X28836785Y-6137142D01*
X28779642Y-6165714D01*
X28293928Y-6165714D01*
X28351071Y-6422857D02*
X28322500Y-6451428D01*
X28293928Y-6508571D01*
X28293928Y-6651428D01*
X28322500Y-6708571D01*
X28351071Y-6737142D01*
X28408214Y-6765714D01*
X28465357Y-6765714D01*
X28551071Y-6737142D01*
X28893928Y-6394285D01*
X28893928Y-6765714D01*
%TO.C,C1*%
X25434285Y-4680000D02*
X25462857Y-4651428D01*
X25491428Y-4565714D01*
X25491428Y-4508571D01*
X25462857Y-4422857D01*
X25405714Y-4365714D01*
X25348571Y-4337142D01*
X25234285Y-4308571D01*
X25148571Y-4308571D01*
X25034285Y-4337142D01*
X24977142Y-4365714D01*
X24920000Y-4422857D01*
X24891428Y-4508571D01*
X24891428Y-4565714D01*
X24920000Y-4651428D01*
X24948571Y-4680000D01*
X25491428Y-5251428D02*
X25491428Y-4908571D01*
X25491428Y-5080000D02*
X24891428Y-5080000D01*
X24977142Y-5022857D01*
X25034285Y-4965714D01*
X25062857Y-4908571D01*
%TO.C,HOLE2*%
X15560000Y2470000D02*
G75*
G03*
X15560000Y2470000I-900000J0D01*
G01*
%TO.C,HOLE1*%
X2810000Y1590000D02*
G75*
G03*
X2810000Y1590000I-900000J0D01*
G01*
%TO.C,HOLE3*%
X56040000Y2420000D02*
G75*
G03*
X56040000Y2420000I-900000J0D01*
G01*
%TO.C,HOLE4*%
X56040000Y-15070000D02*
G75*
G03*
X56040000Y-15070000I-900000J0D01*
G01*
%TO.C,HOLE5*%
X2810000Y-14210000D02*
G75*
G03*
X2810000Y-14210000I-900000J0D01*
G01*
%TO.C,*%
G36*
X20943558Y-6631308D02*
G01*
X20962760Y-6636579D01*
X21093588Y-6688024D01*
X21210125Y-6761488D01*
X21310084Y-6854470D01*
X21391173Y-6964469D01*
X21451104Y-7088985D01*
X21487588Y-7225516D01*
X21488052Y-7228893D01*
X21490133Y-7260661D01*
X21491998Y-7316385D01*
X21493613Y-7393161D01*
X21494943Y-7488084D01*
X21495954Y-7598252D01*
X21496611Y-7720759D01*
X21496880Y-7852703D01*
X21496725Y-7991178D01*
X21494845Y-8691773D01*
X21333995Y-8695639D01*
X21173146Y-8699504D01*
X21169149Y-7960701D01*
X21165153Y-7221898D01*
X21128563Y-7153212D01*
X21114868Y-7129810D01*
X21077758Y-7077381D01*
X21039271Y-7033690D01*
X21034006Y-7028696D01*
X20951254Y-6968632D01*
X20860485Y-6932272D01*
X20765717Y-6918814D01*
X20670966Y-6927455D01*
X20580250Y-6957392D01*
X20497587Y-7007822D01*
X20426994Y-7077942D01*
X20372490Y-7166949D01*
X20368101Y-7176593D01*
X20361861Y-7191659D01*
X20356636Y-7208045D01*
X20352319Y-7228129D01*
X20348805Y-7254288D01*
X20345988Y-7288900D01*
X20343763Y-7334342D01*
X20342024Y-7392992D01*
X20340666Y-7467228D01*
X20339582Y-7559428D01*
X20338667Y-7671968D01*
X20337816Y-7807228D01*
X20336923Y-7967583D01*
X20332922Y-8699531D01*
X20178945Y-8695652D01*
X20024969Y-8691773D01*
X20021411Y-7980117D01*
X20020747Y-7835901D01*
X20020342Y-7686490D01*
X20020557Y-7559986D01*
X20021600Y-7453901D01*
X20023678Y-7365747D01*
X20026997Y-7293037D01*
X20031766Y-7233282D01*
X20038190Y-7183996D01*
X20046478Y-7142691D01*
X20056837Y-7106878D01*
X20069473Y-7074070D01*
X20084594Y-7041779D01*
X20102407Y-7007517D01*
X20142923Y-6944850D01*
X20203234Y-6872059D01*
X20273446Y-6801264D01*
X20346088Y-6739953D01*
X20413687Y-6695613D01*
X20444970Y-6680096D01*
X20564326Y-6637784D01*
X20692750Y-6614876D01*
X20821931Y-6612381D01*
X20943558Y-6631308D01*
G37*
G36*
X20911016Y-9509134D02*
G01*
X20608798Y-9509134D01*
X20608798Y-8877225D01*
X20911016Y-8877225D01*
X20911016Y-9509134D01*
G37*
G36*
X21487976Y-1802590D02*
G01*
X20911016Y-1802590D01*
X20911016Y-2771085D01*
X21199153Y-2977129D01*
X21487290Y-3183174D01*
X21487633Y-3380611D01*
X21487641Y-3385726D01*
X21487247Y-3463547D01*
X21485654Y-3517230D01*
X21482574Y-3549923D01*
X21477720Y-3564774D01*
X21470805Y-3564930D01*
X21466994Y-3562039D01*
X21435595Y-3538858D01*
X21389437Y-3505421D01*
X21332228Y-3464357D01*
X21267679Y-3418289D01*
X21199498Y-3369844D01*
X21131395Y-3321648D01*
X21067078Y-3276327D01*
X21010256Y-3236506D01*
X20964639Y-3204812D01*
X20933936Y-3183870D01*
X20921856Y-3176306D01*
X20920762Y-3176783D01*
X20913722Y-3192865D01*
X20906760Y-3224682D01*
X20900141Y-3255281D01*
X20864243Y-3341207D01*
X20806369Y-3421070D01*
X20730591Y-3489992D01*
X20640978Y-3543097D01*
X20576369Y-3565873D01*
X20477091Y-3579691D01*
X20377498Y-3571359D01*
X20285945Y-3540927D01*
X20263986Y-3529348D01*
X20181729Y-3471179D01*
X20110206Y-3397981D01*
X20057770Y-3317920D01*
X20024969Y-3251860D01*
X20024635Y-3174774D01*
X20347792Y-3174774D01*
X20380677Y-3213005D01*
X20396167Y-3229071D01*
X20427302Y-3246647D01*
X20471374Y-3251236D01*
X20503149Y-3249315D01*
X20536621Y-3236739D01*
X20568993Y-3206685D01*
X20608798Y-3162135D01*
X20608798Y-1802590D01*
X20347792Y-1802590D01*
X20347792Y-3174774D01*
X20024635Y-3174774D01*
X20017325Y-1486636D01*
X21487976Y-1486636D01*
X21487976Y-1802590D01*
G37*
G36*
X20165399Y-9472506D02*
G01*
X20207074Y-9496863D01*
X20269562Y-9533387D01*
X20349680Y-9580219D01*
X20444379Y-9635576D01*
X20550606Y-9697673D01*
X20665312Y-9764727D01*
X20785447Y-9834956D01*
X20907959Y-9906576D01*
X21502468Y-10254128D01*
X21498656Y-10440506D01*
X21494845Y-10626883D01*
X20766775Y-11050032D01*
X20755442Y-11056618D01*
X20626560Y-11131411D01*
X20504867Y-11201848D01*
X20392429Y-11266743D01*
X20291317Y-11324911D01*
X20203597Y-11375167D01*
X20131339Y-11416325D01*
X20076610Y-11447201D01*
X20041480Y-11466609D01*
X20028016Y-11473364D01*
X20026878Y-11472283D01*
X20023542Y-11452523D01*
X20021353Y-11411703D01*
X20020493Y-11354801D01*
X20021147Y-11286794D01*
X20024969Y-11100040D01*
X20599729Y-10769606D01*
X21174489Y-10439171D01*
X21059924Y-10373142D01*
X21059310Y-10372788D01*
X21020575Y-10350460D01*
X20961603Y-10316462D01*
X20885879Y-10272805D01*
X20796888Y-10221496D01*
X20698115Y-10164547D01*
X20593045Y-10103965D01*
X20485164Y-10041761D01*
X20024969Y-9776410D01*
X20021159Y-9581198D01*
X20017349Y-9385987D01*
X20165399Y-9472506D01*
G37*
G36*
X21501713Y-4124169D02*
G01*
X20018101Y-4124169D01*
X20018101Y-3808215D01*
X21501713Y-3808215D01*
X21501713Y-4124169D01*
G37*
G36*
X21498855Y-5226576D02*
G01*
X21494845Y-6095451D01*
X21458645Y-6172654D01*
X21417009Y-6246527D01*
X21343211Y-6332661D01*
X21251916Y-6397719D01*
X21229336Y-6409377D01*
X21183956Y-6427247D01*
X21133631Y-6437588D01*
X21067131Y-6443163D01*
X21062997Y-6443377D01*
X21003518Y-6445092D01*
X20960113Y-6441901D01*
X20922177Y-6432175D01*
X20879103Y-6414285D01*
X20864712Y-6407395D01*
X20773661Y-6348851D01*
X20696565Y-6273199D01*
X20639988Y-6186686D01*
X20601930Y-6109188D01*
X20595061Y-5433721D01*
X20588192Y-4758253D01*
X20554889Y-4722823D01*
X20533255Y-4704877D01*
X20483492Y-4687362D01*
X20429672Y-4692550D01*
X20379467Y-4720540D01*
X20340924Y-4753686D01*
X20337085Y-5599717D01*
X20333245Y-6445749D01*
X20017135Y-6445749D01*
X20024969Y-4694261D01*
X20058632Y-4625575D01*
X20094366Y-4565839D01*
X20158708Y-4490452D01*
X20234392Y-4428124D01*
X20313875Y-4385933D01*
X20348854Y-4374430D01*
X20451598Y-4358709D01*
X20553336Y-4367785D01*
X20649970Y-4399945D01*
X20737404Y-4453475D01*
X20811541Y-4526662D01*
X20868283Y-4617792D01*
X20904147Y-4694261D01*
X20911016Y-5374250D01*
X20911229Y-5394823D01*
X20912877Y-5528305D01*
X20914866Y-5653283D01*
X20917123Y-5767048D01*
X20919574Y-5866888D01*
X20922147Y-5950095D01*
X20924769Y-6013958D01*
X20927365Y-6055767D01*
X20929864Y-6072813D01*
X20941588Y-6085365D01*
X20978367Y-6106241D01*
X21023507Y-6119353D01*
X21064477Y-6120282D01*
X21099600Y-6105439D01*
X21133159Y-6079220D01*
X21165153Y-6045171D01*
X21168894Y-5201436D01*
X21172636Y-4357701D01*
X21502866Y-4357701D01*
X21498855Y-5226576D01*
G37*
G36*
X18968237Y-3829100D02*
G01*
X18968173Y-4121209D01*
X18967491Y-4579146D01*
X18965583Y-4940166D01*
X18961867Y-5214955D01*
X18955761Y-5414204D01*
X18946684Y-5548599D01*
X18934053Y-5628829D01*
X18917286Y-5665583D01*
X18895802Y-5669549D01*
X18869018Y-5651415D01*
X18845346Y-5631386D01*
X18739018Y-5542534D01*
X18560091Y-5393582D01*
X18318178Y-5192514D01*
X18022893Y-4947315D01*
X17683850Y-4665969D01*
X17310663Y-4356463D01*
X16912944Y-4026779D01*
X15056089Y-2487946D01*
X14443743Y-2487946D01*
X14422412Y-3465960D01*
X14413528Y-3810025D01*
X14401509Y-4095812D01*
X14384855Y-4307276D01*
X14361281Y-4464819D01*
X14328503Y-4588842D01*
X14284237Y-4699743D01*
X14278908Y-4711287D01*
X14058141Y-5056797D01*
X13760423Y-5324942D01*
X13399328Y-5506377D01*
X12988431Y-5591757D01*
X12786493Y-5597970D01*
X12380905Y-5539763D01*
X12031694Y-5383788D01*
X11741424Y-5131448D01*
X11512656Y-4784145D01*
X11342567Y-4443973D01*
X11324496Y-3182477D01*
X11306424Y-1920982D01*
X18968237Y-1920982D01*
X18968237Y-3829100D01*
G37*
G36*
X15630877Y-4599773D02*
G01*
X15701458Y-4653357D01*
X15844906Y-4768856D01*
X16049867Y-4936917D01*
X16304985Y-5148187D01*
X16598904Y-5393315D01*
X16920270Y-5662946D01*
X16992405Y-5723685D01*
X17306062Y-5988836D01*
X17587286Y-6228229D01*
X17825171Y-6432463D01*
X18008810Y-6592134D01*
X18127299Y-6697840D01*
X18169732Y-6740178D01*
X18168849Y-6741589D01*
X18111606Y-6787321D01*
X17970637Y-6891843D01*
X17753820Y-7049509D01*
X17469034Y-7254675D01*
X17124157Y-7501696D01*
X16727068Y-7784926D01*
X16285646Y-8098721D01*
X15807769Y-8437435D01*
X15301316Y-8795424D01*
X12430002Y-10822321D01*
X10066898Y-10822321D01*
X10073239Y-7661495D01*
X10073649Y-7477612D01*
X10076191Y-6767293D01*
X10080058Y-6167819D01*
X10085295Y-5677133D01*
X10091945Y-5293181D01*
X10100050Y-5013905D01*
X10109653Y-4837249D01*
X10120798Y-4761158D01*
X10133528Y-4783575D01*
X10204409Y-5062007D01*
X10409460Y-5524236D01*
X10707770Y-5935278D01*
X11090394Y-6285970D01*
X11548383Y-6567150D01*
X12072792Y-6769656D01*
X12378050Y-6827555D01*
X12764584Y-6849541D01*
X13172261Y-6832512D01*
X13557895Y-6778394D01*
X13878302Y-6689114D01*
X14128454Y-6576137D01*
X14573649Y-6285025D01*
X14952377Y-5911606D01*
X15252026Y-5469569D01*
X15459982Y-4972602D01*
X15467966Y-4946694D01*
X15531712Y-4763857D01*
X15588335Y-4638784D01*
X15626397Y-4597269D01*
X15630877Y-4599773D01*
G37*
G36*
X18968237Y-10879018D02*
G01*
X16773275Y-10879018D01*
X16252342Y-10878587D01*
X15783382Y-10876928D01*
X15410093Y-10873704D01*
X15123222Y-10868580D01*
X14913517Y-10861222D01*
X14771728Y-10851296D01*
X14688602Y-10838469D01*
X14654887Y-10822406D01*
X14661333Y-10802774D01*
X14706304Y-10767739D01*
X14837288Y-10670790D01*
X15043024Y-10520679D01*
X15313892Y-10324359D01*
X15640273Y-10088785D01*
X16012547Y-9820911D01*
X16421094Y-9527690D01*
X16856295Y-9216077D01*
X18968237Y-7705623D01*
X18968237Y-10879018D01*
G37*
G36*
X37211701Y-5567967D02*
G01*
X38479818Y-5567967D01*
X38479818Y-5718635D01*
X37211701Y-5718635D01*
X37211701Y-6034457D01*
X37249480Y-6072236D01*
X37287260Y-6110015D01*
X37494901Y-6105798D01*
X37562288Y-6104506D01*
X37619827Y-6103865D01*
X37658698Y-6104482D01*
X37682356Y-6106716D01*
X37694252Y-6110923D01*
X37697842Y-6117463D01*
X37696579Y-6126692D01*
X37694594Y-6135965D01*
X37688447Y-6170168D01*
X37682012Y-6211442D01*
X37673407Y-6271082D01*
X37450266Y-6271082D01*
X37437021Y-6271080D01*
X37360185Y-6270898D01*
X37303307Y-6270025D01*
X37261892Y-6267927D01*
X37231447Y-6264065D01*
X37207479Y-6257904D01*
X37185492Y-6248906D01*
X37160995Y-6236535D01*
X37126283Y-6216650D01*
X37094972Y-6191970D01*
X37072285Y-6162007D01*
X37056732Y-6122799D01*
X37046817Y-6070386D01*
X37041049Y-6000809D01*
X37037934Y-5910108D01*
X37033669Y-5718635D01*
X36634143Y-5718635D01*
X36634143Y-5567967D01*
X37035922Y-5567967D01*
X37035922Y-5417300D01*
X37211701Y-5417300D01*
X37211701Y-5567967D01*
G37*
G36*
X51638097Y-8273701D02*
G01*
X51631820Y-8279979D01*
X51625542Y-8273701D01*
X51631820Y-8267424D01*
X51638097Y-8273701D01*
G37*
G36*
X52127766Y-8236035D02*
G01*
X52121488Y-8242312D01*
X52115211Y-8236035D01*
X52121488Y-8229757D01*
X52127766Y-8236035D01*
G37*
G36*
X50872205Y-9033316D02*
G01*
X50871299Y-9039963D01*
X50863835Y-9041686D01*
X50862332Y-9039846D01*
X50863835Y-9024945D01*
X50867611Y-9022981D01*
X50872205Y-9033316D01*
G37*
G36*
X51512541Y-8173257D02*
G01*
X51506263Y-8179534D01*
X51499986Y-8173257D01*
X51506263Y-8166979D01*
X51512541Y-8173257D01*
G37*
G36*
X52366323Y-8160701D02*
G01*
X52360045Y-8166979D01*
X52353767Y-8160701D01*
X52360045Y-8154423D01*
X52366323Y-8160701D01*
G37*
G36*
X35956140Y-6308748D02*
G01*
X35956140Y-6195513D01*
X35331498Y-6198770D01*
X34706857Y-6202026D01*
X34699135Y-6308748D01*
X34524800Y-6308748D01*
X34524800Y-6045081D01*
X34699908Y-6045081D01*
X35956140Y-6045081D01*
X35956140Y-5668178D01*
X35331498Y-5671434D01*
X34706857Y-5674690D01*
X34703382Y-5859885D01*
X34699908Y-6045081D01*
X34524800Y-6045081D01*
X34524800Y-5517745D01*
X36131918Y-5517745D01*
X36131918Y-6308748D01*
X35956140Y-6308748D01*
G37*
G36*
X52090099Y-8342757D02*
G01*
X52089193Y-8349404D01*
X52081729Y-8351128D01*
X52080226Y-8349287D01*
X52081729Y-8334387D01*
X52085505Y-8332423D01*
X52090099Y-8342757D01*
G37*
G36*
X40476160Y-4488185D02*
G01*
X41543387Y-4488185D01*
X41543387Y-4663963D01*
X41058652Y-4663963D01*
X41042821Y-4663964D01*
X40922507Y-4664035D01*
X40824759Y-4664299D01*
X40747300Y-4664860D01*
X40687856Y-4665824D01*
X40644149Y-4667295D01*
X40613905Y-4669379D01*
X40594846Y-4672180D01*
X40584697Y-4675803D01*
X40581182Y-4680353D01*
X40582024Y-4685936D01*
X40586411Y-4696359D01*
X40606768Y-4735433D01*
X40638106Y-4788988D01*
X40677724Y-4852818D01*
X40722922Y-4922714D01*
X40770998Y-4994471D01*
X40819253Y-5063881D01*
X40864985Y-5126737D01*
X40905187Y-5178504D01*
X40984627Y-5273477D01*
X41074989Y-5374418D01*
X41171198Y-5476027D01*
X41268181Y-5573001D01*
X41360863Y-5660040D01*
X41444170Y-5731843D01*
X41486758Y-5766430D01*
X41532144Y-5803361D01*
X41568655Y-5833147D01*
X41590974Y-5851457D01*
X41622524Y-5877556D01*
X41556698Y-5961318D01*
X41544946Y-5976135D01*
X41515990Y-6011373D01*
X41494345Y-6035887D01*
X41483999Y-6045081D01*
X41471178Y-6039455D01*
X41441765Y-6017972D01*
X41399993Y-5982853D01*
X41348550Y-5936695D01*
X41290120Y-5882093D01*
X41227390Y-5821643D01*
X41163045Y-5757939D01*
X41099771Y-5693578D01*
X41040253Y-5631155D01*
X40987179Y-5573264D01*
X40943233Y-5522503D01*
X40863769Y-5422100D01*
X40747885Y-5259189D01*
X40639152Y-5087062D01*
X40543722Y-4915076D01*
X40482437Y-4795797D01*
X40479201Y-5558551D01*
X40475965Y-6321304D01*
X40288020Y-6321304D01*
X40284784Y-5558551D01*
X40281548Y-4795797D01*
X40197428Y-4956020D01*
X40117768Y-5099610D01*
X39971957Y-5327386D01*
X39812350Y-5536635D01*
X39640448Y-5725284D01*
X39603822Y-5760867D01*
X39551896Y-5808779D01*
X39496861Y-5857366D01*
X39442299Y-5903664D01*
X39391790Y-5944709D01*
X39348918Y-5977538D01*
X39317262Y-5999185D01*
X39300406Y-6006687D01*
X39296238Y-6004294D01*
X39278201Y-5986779D01*
X39250862Y-5956038D01*
X39218303Y-5916553D01*
X39146952Y-5827144D01*
X39218303Y-5783198D01*
X39352683Y-5692943D01*
X39528113Y-5551590D01*
X39694727Y-5389894D01*
X39849994Y-5210366D01*
X39991383Y-5015521D01*
X39994079Y-5011443D01*
X40030938Y-4954155D01*
X40068723Y-4892991D01*
X40105029Y-4832127D01*
X40137451Y-4775738D01*
X40163587Y-4727998D01*
X40181032Y-4693082D01*
X40187381Y-4675165D01*
X40187252Y-4674893D01*
X40172684Y-4672323D01*
X40135654Y-4669998D01*
X40078566Y-4667972D01*
X40003823Y-4666301D01*
X39913831Y-4665039D01*
X39810992Y-4664241D01*
X39697712Y-4663963D01*
X39208043Y-4663963D01*
X39208043Y-4488185D01*
X40287825Y-4488185D01*
X40287825Y-3885516D01*
X40476160Y-3885516D01*
X40476160Y-4488185D01*
G37*
G36*
X51776209Y-8311368D02*
G01*
X51769931Y-8317646D01*
X51763653Y-8311368D01*
X51769931Y-8305090D01*
X51776209Y-8311368D01*
G37*
G36*
X39010976Y-7636493D02*
G01*
X39123242Y-7643601D01*
X39221656Y-7660199D01*
X39313319Y-7687739D01*
X39405329Y-7727672D01*
X39491998Y-7777562D01*
X39589201Y-7856981D01*
X39666680Y-7951835D01*
X39724510Y-8062244D01*
X39762764Y-8188327D01*
X39781517Y-8330202D01*
X39783078Y-8421447D01*
X39768296Y-8560796D01*
X39732539Y-8686834D01*
X39676458Y-8798794D01*
X39600700Y-8895907D01*
X39505915Y-8977408D01*
X39392750Y-9042526D01*
X39261854Y-9090496D01*
X39113876Y-9120548D01*
X39007779Y-9128419D01*
X38880707Y-9124855D01*
X38752347Y-9109290D01*
X38630956Y-9082762D01*
X38524794Y-9046314D01*
X38467262Y-9021653D01*
X38467262Y-8832872D01*
X38467296Y-8780849D01*
X38467737Y-8723484D01*
X38469147Y-8684933D01*
X38472089Y-8661457D01*
X38477129Y-8649317D01*
X38484831Y-8644775D01*
X38495759Y-8644092D01*
X38497285Y-8644163D01*
X38522403Y-8652782D01*
X38558868Y-8672974D01*
X38599343Y-8700726D01*
X38610545Y-8708922D01*
X38695801Y-8757683D01*
X38788587Y-8790358D01*
X38884492Y-8806881D01*
X38979104Y-8807182D01*
X39068013Y-8791196D01*
X39146807Y-8758855D01*
X39211074Y-8710090D01*
X39216011Y-8704968D01*
X39256409Y-8656496D01*
X39284666Y-8606079D01*
X39302600Y-8548046D01*
X39312027Y-8476723D01*
X39314766Y-8386438D01*
X39314622Y-8337973D01*
X39313360Y-8286909D01*
X39309788Y-8249444D01*
X39302725Y-8218860D01*
X39290988Y-8188441D01*
X39273393Y-8151467D01*
X39241191Y-8095213D01*
X39185866Y-8030989D01*
X39118551Y-7986963D01*
X39036715Y-7961642D01*
X38937826Y-7953533D01*
X38876034Y-7957858D01*
X38785428Y-7977489D01*
X38697989Y-8010362D01*
X38620889Y-8053605D01*
X38561299Y-8104344D01*
X38537891Y-8120635D01*
X38502983Y-8129312D01*
X38467262Y-8129312D01*
X38467262Y-7741892D01*
X38539457Y-7714716D01*
X38576327Y-7701181D01*
X38673301Y-7670156D01*
X38762455Y-7650195D01*
X38853696Y-7639430D01*
X38956931Y-7635992D01*
X39010976Y-7636493D01*
G37*
G36*
X51612986Y-8236035D02*
G01*
X51606708Y-8242312D01*
X51600431Y-8236035D01*
X51606708Y-8229757D01*
X51612986Y-8236035D01*
G37*
G36*
X50922428Y-8882649D02*
G01*
X50921521Y-8889295D01*
X50914057Y-8891019D01*
X50912554Y-8889179D01*
X50914057Y-8874278D01*
X50917834Y-8872314D01*
X50922428Y-8882649D01*
G37*
G36*
X51995744Y-6692181D02*
G01*
X52002892Y-6705126D01*
X52008097Y-6730666D01*
X52012175Y-6772972D01*
X52015939Y-6836215D01*
X52019429Y-6886973D01*
X52025544Y-6944949D01*
X52032818Y-6991742D01*
X52040330Y-7020394D01*
X52044643Y-7031992D01*
X52047769Y-7076793D01*
X52026628Y-7115394D01*
X51981150Y-7147951D01*
X51969944Y-7153318D01*
X51938298Y-7164523D01*
X51917842Y-7166012D01*
X51912501Y-7163056D01*
X51902439Y-7143625D01*
X51906564Y-7119841D01*
X51923737Y-7103727D01*
X51939059Y-7096590D01*
X51966740Y-7077917D01*
X51971723Y-7073451D01*
X51980743Y-7060021D01*
X51979534Y-7040999D01*
X51968290Y-7007631D01*
X51964928Y-6997174D01*
X51955732Y-6949310D01*
X51949900Y-6888412D01*
X51947812Y-6823639D01*
X51949846Y-6764151D01*
X51956378Y-6719110D01*
X51967511Y-6694382D01*
X51986964Y-6687852D01*
X51995744Y-6692181D01*
G37*
G36*
X44255398Y-7551754D02*
G01*
X43954064Y-7551754D01*
X43954064Y-8744537D01*
X44255398Y-8744537D01*
X44255398Y-9083538D01*
X43175616Y-9083538D01*
X43175616Y-8744537D01*
X43476951Y-8744537D01*
X43476951Y-7551754D01*
X43175616Y-7551754D01*
X43175616Y-7212752D01*
X44255398Y-7212752D01*
X44255398Y-7551754D01*
G37*
G36*
X43031539Y-5080654D02*
G01*
X43007412Y-5152727D01*
X42976067Y-5235536D01*
X42941057Y-5320367D01*
X42905935Y-5398508D01*
X42874253Y-5461245D01*
X42848145Y-5506117D01*
X42796828Y-5586451D01*
X42736787Y-5673256D01*
X42672996Y-5759169D01*
X42646582Y-5793425D01*
X42751015Y-5861272D01*
X42789092Y-5885240D01*
X42898174Y-5947808D01*
X43018729Y-6009837D01*
X43141499Y-6066709D01*
X43257227Y-6113806D01*
X43298220Y-6129199D01*
X43342837Y-6146271D01*
X43373942Y-6158561D01*
X43386511Y-6164115D01*
X43386426Y-6165446D01*
X43377441Y-6181225D01*
X43357526Y-6210554D01*
X43330011Y-6248460D01*
X43269783Y-6329291D01*
X43172001Y-6287903D01*
X43096767Y-6254610D01*
X42945846Y-6180369D01*
X42795979Y-6097728D01*
X42659010Y-6013034D01*
X42644954Y-6003767D01*
X42594385Y-5970724D01*
X42552742Y-5943974D01*
X42524018Y-5926061D01*
X42512203Y-5919524D01*
X42510412Y-5920248D01*
X42493295Y-5931142D01*
X42462730Y-5952401D01*
X42423815Y-5980507D01*
X42397414Y-5999607D01*
X42246930Y-6098786D01*
X42084020Y-6189828D01*
X41902350Y-6276328D01*
X41835500Y-6305892D01*
X41760266Y-6215739D01*
X41685032Y-6125587D01*
X41805682Y-6084385D01*
X41825994Y-6077288D01*
X41896067Y-6051057D01*
X41967561Y-6022179D01*
X42027783Y-5995723D01*
X42062221Y-5978782D01*
X42118422Y-5948717D01*
X42177802Y-5914769D01*
X42235272Y-5880038D01*
X42285747Y-5847626D01*
X42324137Y-5820634D01*
X42345355Y-5802163D01*
X42347787Y-5792012D01*
X42339063Y-5771527D01*
X42315821Y-5739404D01*
X42276254Y-5692778D01*
X42256314Y-5669706D01*
X42181277Y-5574858D01*
X42110069Y-5472803D01*
X42044594Y-5367191D01*
X41986755Y-5261670D01*
X41938457Y-5159891D01*
X41901601Y-5065503D01*
X41883962Y-5002965D01*
X42081586Y-5002965D01*
X42089936Y-5031215D01*
X42093736Y-5043308D01*
X42116906Y-5103772D01*
X42149464Y-5175943D01*
X42187755Y-5252433D01*
X42228122Y-5325855D01*
X42266910Y-5388821D01*
X42281304Y-5409851D01*
X42327203Y-5471924D01*
X42377143Y-5533990D01*
X42422612Y-5585306D01*
X42505211Y-5671925D01*
X42568343Y-5591696D01*
X42571564Y-5587595D01*
X42666305Y-5457386D01*
X42742637Y-5330445D01*
X42804596Y-5199261D01*
X42856222Y-5056326D01*
X42873080Y-5002965D01*
X42081586Y-5002965D01*
X41883962Y-5002965D01*
X41878092Y-4982155D01*
X41869832Y-4913498D01*
X41869832Y-4839742D01*
X42397168Y-4839742D01*
X42397168Y-4463074D01*
X41731721Y-4463074D01*
X41731721Y-4287295D01*
X42397168Y-4287295D01*
X42397168Y-3885516D01*
X42585502Y-3885516D01*
X42585502Y-4287295D01*
X43225838Y-4287295D01*
X43225838Y-4463074D01*
X42585502Y-4463074D01*
X42585502Y-4839742D01*
X43225838Y-4839742D01*
X43225838Y-5002965D01*
X43053323Y-5002965D01*
X43036790Y-5062604D01*
X43031539Y-5080654D01*
G37*
G36*
X52931325Y-8907760D02*
G01*
X52930419Y-8914407D01*
X52922955Y-8916130D01*
X52921452Y-8914290D01*
X52922955Y-8899389D01*
X52926731Y-8897425D01*
X52931325Y-8907760D01*
G37*
G36*
X43778285Y-4387740D02*
G01*
X44104731Y-4387740D01*
X44104731Y-4550963D01*
X43778285Y-4550963D01*
X43778285Y-5087424D01*
X43938369Y-5133739D01*
X43949827Y-5137056D01*
X44009629Y-5154436D01*
X44060549Y-5169344D01*
X44097504Y-5180286D01*
X44115413Y-5185768D01*
X44120362Y-5188747D01*
X44126340Y-5203176D01*
X44127229Y-5232811D01*
X44123422Y-5282419D01*
X44122891Y-5287738D01*
X44117798Y-5331962D01*
X44112876Y-5364652D01*
X44109121Y-5379067D01*
X44105625Y-5379032D01*
X44083259Y-5373862D01*
X44044809Y-5363143D01*
X43995494Y-5348478D01*
X43940534Y-5331468D01*
X43885149Y-5313715D01*
X43834557Y-5296818D01*
X43793980Y-5282381D01*
X43793024Y-5282193D01*
X43788569Y-5287563D01*
X43785049Y-5305202D01*
X43782372Y-5337250D01*
X43780448Y-5385846D01*
X43779186Y-5453130D01*
X43778495Y-5541243D01*
X43778285Y-5652325D01*
X43778285Y-6028148D01*
X43808931Y-6056938D01*
X43810765Y-6058648D01*
X43826310Y-6071094D01*
X43843975Y-6078654D01*
X43869495Y-6082187D01*
X43908609Y-6082552D01*
X43967055Y-6080608D01*
X44094534Y-6075487D01*
X44085843Y-6156639D01*
X44081002Y-6196760D01*
X44075365Y-6233854D01*
X44070765Y-6254436D01*
X44069893Y-6256099D01*
X44057623Y-6263178D01*
X44030029Y-6267802D01*
X43983861Y-6270320D01*
X43915871Y-6271082D01*
X43898588Y-6271039D01*
X43824143Y-6269244D01*
X43768763Y-6264016D01*
X43727470Y-6254271D01*
X43695285Y-6238921D01*
X43667231Y-6216884D01*
X43653441Y-6203854D01*
X43638099Y-6187554D01*
X43625739Y-6169911D01*
X43615992Y-6148283D01*
X43608490Y-6120030D01*
X43602862Y-6082512D01*
X43598742Y-6033087D01*
X43595759Y-5969116D01*
X43593546Y-5887958D01*
X43591733Y-5786972D01*
X43589951Y-5663517D01*
X43583673Y-5212898D01*
X43448700Y-5170310D01*
X43313728Y-5127721D01*
X43313728Y-4942221D01*
X43416418Y-4973757D01*
X43431125Y-4978296D01*
X43481372Y-4994111D01*
X43523308Y-5007756D01*
X43549069Y-5016685D01*
X43569922Y-5024109D01*
X43584491Y-5028076D01*
X43584605Y-5028024D01*
X43586294Y-5014621D01*
X43587762Y-4980213D01*
X43588919Y-4928656D01*
X43589678Y-4863806D01*
X43589951Y-4789520D01*
X43589951Y-4550963D01*
X43301172Y-4550963D01*
X43301172Y-4387740D01*
X43589951Y-4387740D01*
X43589951Y-3898071D01*
X43778285Y-3898071D01*
X43778285Y-4387740D01*
G37*
G36*
X38253326Y-8536856D02*
G01*
X38220668Y-8668699D01*
X38168291Y-8786103D01*
X38097021Y-8888088D01*
X38007685Y-8973676D01*
X37901109Y-9041887D01*
X37778118Y-9091742D01*
X37639538Y-9122262D01*
X37637869Y-9122493D01*
X37571278Y-9127407D01*
X37489847Y-9127272D01*
X37402942Y-9122585D01*
X37319931Y-9113844D01*
X37250179Y-9101548D01*
X37151354Y-9071101D01*
X37038677Y-9014234D01*
X36941199Y-8938050D01*
X36860116Y-8843741D01*
X36796626Y-8732499D01*
X36751929Y-8605518D01*
X36744523Y-8570512D01*
X36735098Y-8491787D01*
X36731384Y-8407414D01*
X37193799Y-8407414D01*
X37194970Y-8480175D01*
X37198565Y-8535059D01*
X37205080Y-8577542D01*
X37215014Y-8613101D01*
X37220886Y-8628737D01*
X37259116Y-8699545D01*
X37309739Y-8757330D01*
X37367758Y-8796105D01*
X37391244Y-8805431D01*
X37466966Y-8820408D01*
X37544498Y-8816311D01*
X37618046Y-8794607D01*
X37681817Y-8756765D01*
X37730020Y-8704254D01*
X37745063Y-8679791D01*
X37766192Y-8637072D01*
X37780692Y-8591255D01*
X37789674Y-8536861D01*
X37794243Y-8468410D01*
X37795509Y-8380424D01*
X37795120Y-8336116D01*
X37790769Y-8247224D01*
X37780603Y-8176401D01*
X37763393Y-8118937D01*
X37737912Y-8070120D01*
X37702932Y-8025239D01*
X37675248Y-7997403D01*
X37626459Y-7963911D01*
X37569863Y-7946247D01*
X37497744Y-7941254D01*
X37449601Y-7943921D01*
X37374005Y-7962383D01*
X37312611Y-7999843D01*
X37263062Y-8057995D01*
X37222999Y-8138533D01*
X37221309Y-8142897D01*
X37209798Y-8176770D01*
X37202031Y-8211365D01*
X37197274Y-8252777D01*
X37194791Y-8307098D01*
X37193850Y-8380424D01*
X37193799Y-8407414D01*
X36731384Y-8407414D01*
X36731151Y-8402116D01*
X36732678Y-8310289D01*
X36739675Y-8225097D01*
X36752138Y-8155330D01*
X36785119Y-8054673D01*
X36844398Y-7939713D01*
X36921948Y-7841700D01*
X37016992Y-7761398D01*
X37128754Y-7699578D01*
X37256457Y-7657005D01*
X37294961Y-7649361D01*
X37378833Y-7639739D01*
X37473158Y-7635644D01*
X37569201Y-7637083D01*
X37658226Y-7644064D01*
X37731498Y-7656596D01*
X37789704Y-7673102D01*
X37911263Y-7724580D01*
X38016256Y-7794340D01*
X38103906Y-7881326D01*
X38173434Y-7984483D01*
X38224060Y-8102755D01*
X38255007Y-8235087D01*
X38265496Y-8380424D01*
X38265439Y-8391552D01*
X38253326Y-8536856D01*
G37*
G36*
X46377297Y-4199406D02*
G01*
X45586293Y-4199406D01*
X45554976Y-4199413D01*
X45418126Y-4199621D01*
X45289444Y-4200098D01*
X45171050Y-4200817D01*
X45065061Y-4201754D01*
X44973594Y-4202884D01*
X44898767Y-4204181D01*
X44842698Y-4205619D01*
X44807504Y-4207175D01*
X44795304Y-4208823D01*
X44802121Y-4215643D01*
X44827059Y-4235911D01*
X44868092Y-4267699D01*
X44922903Y-4309254D01*
X44989179Y-4358825D01*
X45064604Y-4414658D01*
X45146862Y-4474999D01*
X45498404Y-4731759D01*
X45498404Y-4990409D01*
X46640964Y-4990409D01*
X46640964Y-5166188D01*
X45498404Y-5166188D01*
X45498404Y-5568591D01*
X45498406Y-5590073D01*
X45498591Y-5705341D01*
X45499373Y-5798560D01*
X45501167Y-5872355D01*
X45504387Y-5929349D01*
X45509447Y-5972170D01*
X45516763Y-6003441D01*
X45526748Y-6025787D01*
X45539816Y-6041834D01*
X45556384Y-6054207D01*
X45576863Y-6065531D01*
X45588766Y-6070997D01*
X45610094Y-6077264D01*
X45638622Y-6080953D01*
X45678817Y-6082322D01*
X45735144Y-6081630D01*
X45812069Y-6079136D01*
X45848914Y-6077640D01*
X45913970Y-6074379D01*
X45968490Y-6070847D01*
X46007621Y-6067382D01*
X46026507Y-6064318D01*
X46032669Y-6062706D01*
X46038780Y-6066685D01*
X46040341Y-6082535D01*
X46037517Y-6114561D01*
X46030473Y-6167064D01*
X46027207Y-6190069D01*
X46020703Y-6235650D01*
X46016023Y-6268125D01*
X46014011Y-6281614D01*
X46013311Y-6281906D01*
X45995941Y-6282876D01*
X45958068Y-6283331D01*
X45903442Y-6283273D01*
X45835813Y-6282700D01*
X45758933Y-6281614D01*
X45741967Y-6281327D01*
X45658775Y-6279682D01*
X45595923Y-6277717D01*
X45549352Y-6274997D01*
X45515004Y-6271084D01*
X45488819Y-6265542D01*
X45466738Y-6257934D01*
X45444701Y-6247824D01*
X45405731Y-6224638D01*
X45349228Y-6169268D01*
X45309251Y-6095303D01*
X45309020Y-6094688D01*
X45304114Y-6074395D01*
X45299982Y-6041087D01*
X45296535Y-5992749D01*
X45293685Y-5927364D01*
X45291341Y-5842918D01*
X45289417Y-5737392D01*
X45287822Y-5608773D01*
X45283236Y-5166188D01*
X44205176Y-5166188D01*
X44205176Y-4990409D01*
X45284958Y-4990409D01*
X45284958Y-4817360D01*
X44876901Y-4517936D01*
X44468844Y-4218513D01*
X44468844Y-4023627D01*
X46377297Y-4023627D01*
X46377297Y-4199406D01*
G37*
G36*
X52253322Y-8236035D02*
G01*
X52247044Y-8242312D01*
X52240767Y-8236035D01*
X52247044Y-8229757D01*
X52253322Y-8236035D01*
G37*
G36*
X51829728Y-8231675D02*
G01*
X51832709Y-8242312D01*
X51830136Y-8246111D01*
X51820154Y-8254868D01*
X51818338Y-8254277D01*
X51807598Y-8242312D01*
X51806593Y-8235662D01*
X51820154Y-8229757D01*
X51829728Y-8231675D01*
G37*
G36*
X40589160Y-9083538D02*
G01*
X40137158Y-9083538D01*
X40137158Y-8593870D01*
X40589160Y-8593870D01*
X40589160Y-9083538D01*
G37*
G36*
X39968699Y-3988580D02*
G01*
X39995191Y-4017918D01*
X40016133Y-4043923D01*
X40024158Y-4057907D01*
X40023816Y-4058954D01*
X40011226Y-4072830D01*
X39983182Y-4098280D01*
X39943366Y-4132069D01*
X39895463Y-4170963D01*
X39842293Y-4213773D01*
X39787224Y-4259022D01*
X39738963Y-4299560D01*
X39703990Y-4330001D01*
X39671407Y-4358377D01*
X39645478Y-4379071D01*
X39632298Y-4387177D01*
X39630153Y-4386567D01*
X39613882Y-4373963D01*
X39588433Y-4349467D01*
X39559218Y-4318884D01*
X39531650Y-4288017D01*
X39511139Y-4262669D01*
X39503100Y-4248643D01*
X39511061Y-4238196D01*
X39535735Y-4215185D01*
X39573467Y-4182976D01*
X39620528Y-4144560D01*
X39673187Y-4102927D01*
X39727713Y-4061068D01*
X39780377Y-4021973D01*
X39827448Y-3988631D01*
X39913240Y-3929883D01*
X39968699Y-3988580D01*
G37*
G36*
X46917188Y-9083538D02*
G01*
X46465186Y-9083538D01*
X46465186Y-7677310D01*
X46917188Y-7677310D01*
X46917188Y-9083538D01*
G37*
G36*
X52837901Y-8249250D02*
G01*
X52886911Y-8349427D01*
X52937821Y-8466078D01*
X52989491Y-8596609D01*
X53040783Y-8738423D01*
X53090559Y-8888926D01*
X53098898Y-8915316D01*
X53118151Y-8976152D01*
X53134342Y-9027194D01*
X53145974Y-9063723D01*
X53151549Y-9081021D01*
X53148505Y-9090392D01*
X53128455Y-9094334D01*
X53087497Y-9093577D01*
X53017978Y-9089816D01*
X52987334Y-9001927D01*
X52985944Y-8997944D01*
X52969857Y-8952672D01*
X52956314Y-8915881D01*
X52948120Y-8895204D01*
X52942438Y-8878509D01*
X52936078Y-8846669D01*
X52932480Y-8826744D01*
X52926039Y-8810399D01*
X52921306Y-8809646D01*
X52912077Y-8823027D01*
X52903980Y-8848008D01*
X52899460Y-8876005D01*
X52900962Y-8898435D01*
X52903609Y-8915084D01*
X52893548Y-8913970D01*
X52888628Y-8912704D01*
X52883173Y-8922538D01*
X52881443Y-8950616D01*
X52883031Y-9000287D01*
X52887869Y-9096094D01*
X50934983Y-9096094D01*
X50934983Y-9070242D01*
X50936942Y-9055715D01*
X50944400Y-9050203D01*
X50949715Y-9050202D01*
X50955527Y-9034233D01*
X50956943Y-9002961D01*
X50954208Y-8962359D01*
X50947568Y-8918403D01*
X50937271Y-8877068D01*
X50913822Y-8803030D01*
X50899821Y-8843193D01*
X50899311Y-8844687D01*
X50892176Y-8878330D01*
X50893702Y-8903895D01*
X50896203Y-8914713D01*
X50889134Y-8916740D01*
X50887519Y-8916433D01*
X50876811Y-8928413D01*
X50862236Y-8958709D01*
X50846194Y-9002531D01*
X50815705Y-9096016D01*
X50767775Y-9096055D01*
X50741267Y-9094907D01*
X50726223Y-9088587D01*
X50726192Y-9074122D01*
X50727134Y-9070796D01*
X50734201Y-9045158D01*
X50746016Y-9001838D01*
X50761182Y-8945961D01*
X50778306Y-8882649D01*
X50823211Y-8723022D01*
X50869835Y-8573019D01*
X50915193Y-8444493D01*
X50959977Y-8335629D01*
X51004882Y-8244609D01*
X51050601Y-8169616D01*
X51081771Y-8132861D01*
X51114397Y-8104856D01*
X51442186Y-8104856D01*
X51442682Y-8120860D01*
X51443252Y-8124676D01*
X51452639Y-8156055D01*
X51468484Y-8192007D01*
X51470802Y-8196453D01*
X51484828Y-8220435D01*
X51493189Y-8224392D01*
X51500111Y-8210840D01*
X51505583Y-8198428D01*
X51511144Y-8200782D01*
X51517809Y-8225569D01*
X51518066Y-8226698D01*
X51529599Y-8256119D01*
X51544697Y-8272258D01*
X51552309Y-8273955D01*
X51561374Y-8266863D01*
X51564573Y-8243009D01*
X51562896Y-8198368D01*
X51562778Y-8196479D01*
X51563492Y-8173521D01*
X51568172Y-8168354D01*
X51570915Y-8174366D01*
X51575676Y-8200171D01*
X51578787Y-8237410D01*
X51580071Y-8259726D01*
X51584640Y-8286207D01*
X51595395Y-8298245D01*
X51616338Y-8302806D01*
X51638608Y-8308909D01*
X51643967Y-8318307D01*
X51645160Y-8326989D01*
X51661840Y-8343540D01*
X51689354Y-8360968D01*
X51720210Y-8374753D01*
X51746913Y-8380377D01*
X51764089Y-8383240D01*
X51778869Y-8394682D01*
X51782174Y-8396594D01*
X51790292Y-8383892D01*
X51800035Y-8358636D01*
X51809074Y-8328070D01*
X51815083Y-8299436D01*
X51815418Y-8289396D01*
X51902210Y-8289396D01*
X51909756Y-8299744D01*
X51933154Y-8305090D01*
X51944285Y-8304702D01*
X51960593Y-8298632D01*
X51962297Y-8280956D01*
X51951042Y-8246269D01*
X51937540Y-8210923D01*
X52027321Y-8210923D01*
X52029107Y-8219644D01*
X52043016Y-8229949D01*
X52050442Y-8232049D01*
X52040457Y-8241688D01*
X52037633Y-8243591D01*
X52028673Y-8258047D01*
X52036093Y-8280956D01*
X52036529Y-8282302D01*
X52046564Y-8305001D01*
X52058399Y-8338458D01*
X52062670Y-8350225D01*
X52083466Y-8370694D01*
X52118349Y-8370908D01*
X52128810Y-8365708D01*
X52135996Y-8350983D01*
X52139438Y-8321772D01*
X52140322Y-8272781D01*
X52140289Y-8257262D01*
X52139231Y-8215415D01*
X52136616Y-8198368D01*
X52152877Y-8198368D01*
X52156778Y-8219068D01*
X52168572Y-8229949D01*
X52177263Y-8231821D01*
X52167757Y-8240610D01*
X52167448Y-8240812D01*
X52156558Y-8262123D01*
X52156199Y-8272781D01*
X52155202Y-8302405D01*
X52155479Y-8305915D01*
X52159478Y-8335881D01*
X52166937Y-8346052D01*
X52181127Y-8341343D01*
X52194117Y-8329038D01*
X52204556Y-8301328D01*
X52204770Y-8297670D01*
X52207155Y-8284419D01*
X52211674Y-8295256D01*
X52213065Y-8300000D01*
X52222143Y-8310098D01*
X52241607Y-8301652D01*
X52255317Y-8288507D01*
X52263595Y-8263301D01*
X52265878Y-8220459D01*
X52265922Y-8217201D01*
X52280582Y-8217201D01*
X52281716Y-8234113D01*
X52288274Y-8261394D01*
X52299725Y-8264504D01*
X52315659Y-8243138D01*
X52318962Y-8236559D01*
X52328739Y-8201770D01*
X52323324Y-8176643D01*
X52303635Y-8166979D01*
X52288699Y-8170001D01*
X52281240Y-8184513D01*
X52280582Y-8217201D01*
X52265922Y-8217201D01*
X52266284Y-8190372D01*
X52269652Y-8166217D01*
X52278986Y-8156326D01*
X52297267Y-8154423D01*
X52341212Y-8154423D01*
X52341452Y-8177005D01*
X52342560Y-8201770D01*
X52342745Y-8205899D01*
X52344782Y-8217201D01*
X52345220Y-8217036D01*
X52354441Y-8205308D01*
X52369893Y-8180736D01*
X52379541Y-8162536D01*
X52390834Y-8125859D01*
X52386374Y-8100875D01*
X52366323Y-8091645D01*
X52360515Y-8091914D01*
X52348145Y-8097989D01*
X52347161Y-8101282D01*
X52342534Y-8116769D01*
X52341873Y-8135590D01*
X52341212Y-8154423D01*
X52297267Y-8154423D01*
X52317741Y-8150737D01*
X52328656Y-8135590D01*
X52327133Y-8125848D01*
X52312194Y-8117435D01*
X52281402Y-8128395D01*
X52268434Y-8134715D01*
X52236269Y-8147356D01*
X52227830Y-8151018D01*
X52217567Y-8166665D01*
X52218053Y-8198495D01*
X52218254Y-8200282D01*
X52217908Y-8231078D01*
X52209031Y-8242312D01*
X52200406Y-8232659D01*
X52200422Y-8204646D01*
X52202202Y-8187752D01*
X52197638Y-8170961D01*
X52179414Y-8166979D01*
X52178791Y-8166981D01*
X52158540Y-8173986D01*
X52152877Y-8198368D01*
X52136616Y-8198368D01*
X52135638Y-8191996D01*
X52128100Y-8181779D01*
X52115211Y-8179534D01*
X52099336Y-8183448D01*
X52090099Y-8203905D01*
X52088261Y-8218277D01*
X52078715Y-8235311D01*
X52073074Y-8234211D01*
X52073901Y-8217219D01*
X52073927Y-8217118D01*
X52073425Y-8197401D01*
X52053897Y-8192090D01*
X52037924Y-8195621D01*
X52027321Y-8210923D01*
X51937540Y-8210923D01*
X51936471Y-8212846D01*
X51920097Y-8242312D01*
X51908286Y-8267436D01*
X51902210Y-8289396D01*
X51815418Y-8289396D01*
X51815732Y-8279979D01*
X51814905Y-8271514D01*
X51820863Y-8270373D01*
X51820972Y-8270477D01*
X51832557Y-8267213D01*
X51847168Y-8246965D01*
X51852692Y-8236163D01*
X51862410Y-8212846D01*
X51858172Y-8205115D01*
X51838987Y-8208284D01*
X51823911Y-8210219D01*
X51813876Y-8204896D01*
X51811690Y-8201783D01*
X51792294Y-8193740D01*
X51759356Y-8186765D01*
X51748590Y-8185132D01*
X51705573Y-8178324D01*
X51671466Y-8172539D01*
X51666334Y-8171688D01*
X51643852Y-8173071D01*
X51636846Y-8188706D01*
X51636764Y-8189969D01*
X51633510Y-8196953D01*
X51626863Y-8179534D01*
X51616918Y-8159555D01*
X51593587Y-8148145D01*
X51579027Y-8146517D01*
X51561638Y-8138106D01*
X51556501Y-8134137D01*
X51532281Y-8122983D01*
X51496932Y-8110821D01*
X51470643Y-8103141D01*
X51460551Y-8101315D01*
X51681249Y-8101315D01*
X51682404Y-8101874D01*
X51700574Y-8106574D01*
X51735747Y-8114162D01*
X51781752Y-8123287D01*
X51785323Y-8123963D01*
X51840344Y-8132861D01*
X51892563Y-8138923D01*
X51931120Y-8140869D01*
X51961096Y-8138487D01*
X52010863Y-8131577D01*
X52066462Y-8121916D01*
X52117821Y-8111281D01*
X52154870Y-8101444D01*
X52155099Y-8101282D01*
X52143202Y-8100217D01*
X52110311Y-8099295D01*
X52060022Y-8098569D01*
X51995935Y-8098093D01*
X51921645Y-8097923D01*
X51911674Y-8097926D01*
X51837833Y-8098132D01*
X51774125Y-8098627D01*
X51724296Y-8099357D01*
X51692089Y-8100271D01*
X51681249Y-8101315D01*
X51460551Y-8101315D01*
X51449514Y-8099318D01*
X51442186Y-8104856D01*
X51114397Y-8104856D01*
X51136593Y-8085804D01*
X51200063Y-8044531D01*
X51263314Y-8015469D01*
X51309144Y-7999618D01*
X51213092Y-7950504D01*
X51164347Y-7925181D01*
X51068721Y-7872026D01*
X50988218Y-7820933D01*
X50916880Y-7767614D01*
X50848753Y-7707782D01*
X50777880Y-7637146D01*
X50734667Y-7591252D01*
X50685278Y-7535084D01*
X50645911Y-7483937D01*
X50611412Y-7430953D01*
X50576628Y-7369273D01*
X50549053Y-7318223D01*
X50526769Y-7279379D01*
X50510022Y-7255621D01*
X50495515Y-7243227D01*
X50479951Y-7238475D01*
X50460033Y-7237646D01*
X50428371Y-7235413D01*
X50379685Y-7228765D01*
X50328274Y-7219279D01*
X50266915Y-7202634D01*
X50170729Y-7157842D01*
X50088490Y-7092480D01*
X50018801Y-7005585D01*
X49970245Y-6920143D01*
X49936791Y-6828422D01*
X49924122Y-6735426D01*
X49925813Y-6710528D01*
X50037983Y-6710528D01*
X50038305Y-6751118D01*
X50040568Y-6797464D01*
X50046366Y-6831904D01*
X50057278Y-6862412D01*
X50074882Y-6896958D01*
X50096863Y-6932348D01*
X50156099Y-7001978D01*
X50226922Y-7059728D01*
X50302003Y-7099077D01*
X50330509Y-7108443D01*
X50380389Y-7120248D01*
X50421520Y-7124863D01*
X50421837Y-7124863D01*
X50453638Y-7123265D01*
X50466057Y-7116478D01*
X50464693Y-7101470D01*
X50454695Y-7064010D01*
X50440722Y-6992008D01*
X50427550Y-6901616D01*
X50415731Y-6796778D01*
X50405819Y-6681442D01*
X50400056Y-6603105D01*
X50510513Y-6603105D01*
X50512747Y-6644068D01*
X50517147Y-6697799D01*
X50523191Y-6759228D01*
X50530359Y-6823282D01*
X50538131Y-6884889D01*
X50545985Y-6938977D01*
X50553402Y-6980474D01*
X50587967Y-7116478D01*
X50589007Y-7120570D01*
X50638906Y-7254321D01*
X50703404Y-7374717D01*
X50785327Y-7486967D01*
X50887501Y-7596282D01*
X50974147Y-7672712D01*
X51119677Y-7775163D01*
X51279682Y-7860516D01*
X51450247Y-7926786D01*
X51627457Y-7971983D01*
X51648759Y-7975600D01*
X51703632Y-7982745D01*
X51768560Y-7989188D01*
X51837710Y-7994563D01*
X51905250Y-7998501D01*
X51965346Y-8000633D01*
X52012166Y-8000593D01*
X52039877Y-7998011D01*
X52045914Y-7996778D01*
X52074815Y-7991997D01*
X52118837Y-7985410D01*
X52171127Y-7978060D01*
X52277732Y-7957897D01*
X52417986Y-7917151D01*
X52559063Y-7862034D01*
X52693052Y-7795713D01*
X52812047Y-7721356D01*
X52821770Y-7714294D01*
X52889611Y-7658210D01*
X52962515Y-7588241D01*
X53034073Y-7511226D01*
X53097873Y-7434006D01*
X53147506Y-7363420D01*
X53158861Y-7344609D01*
X53222045Y-7214475D01*
X53251271Y-7124863D01*
X53374823Y-7124863D01*
X53426159Y-7124853D01*
X53447719Y-7123182D01*
X53506221Y-7107900D01*
X53570323Y-7079826D01*
X53631975Y-7042844D01*
X53683129Y-7000839D01*
X53696577Y-6987035D01*
X53740996Y-6932525D01*
X53770190Y-6876060D01*
X53787223Y-6810167D01*
X53795156Y-6727373D01*
X53796421Y-6697155D01*
X53796812Y-6648262D01*
X53793149Y-6611916D01*
X53784229Y-6579680D01*
X53768846Y-6543118D01*
X53743832Y-6497489D01*
X53709658Y-6448444D01*
X53672236Y-6403939D01*
X53636545Y-6369870D01*
X53607563Y-6352133D01*
X53592514Y-6351474D01*
X53565253Y-6364419D01*
X53527390Y-6395599D01*
X53501408Y-6418315D01*
X53485316Y-6430590D01*
X53474400Y-6438917D01*
X53458941Y-6446860D01*
X53458332Y-6446945D01*
X53451910Y-6460646D01*
X53447649Y-6494794D01*
X53446105Y-6545124D01*
X53445532Y-6571449D01*
X53444715Y-6608955D01*
X53438238Y-6714033D01*
X53427420Y-6824566D01*
X53413313Y-6930374D01*
X53396967Y-7021279D01*
X53374823Y-7124863D01*
X53251271Y-7124863D01*
X53271234Y-7063652D01*
X53306383Y-6892313D01*
X53327445Y-6700628D01*
X53336408Y-6571449D01*
X53304992Y-6585763D01*
X53301415Y-6587468D01*
X53283337Y-6601386D01*
X53277782Y-6614119D01*
X53272994Y-6625096D01*
X53266746Y-6666256D01*
X53265308Y-6678237D01*
X53245239Y-6755759D01*
X53209355Y-6820206D01*
X53160217Y-6866756D01*
X53134542Y-6881292D01*
X53092193Y-6897685D01*
X53039031Y-6910291D01*
X52972213Y-6919469D01*
X52888895Y-6925581D01*
X52786231Y-6928987D01*
X52661380Y-6930049D01*
X52596142Y-6930002D01*
X52520388Y-6929588D01*
X52463177Y-6928464D01*
X52420626Y-6926293D01*
X52388850Y-6922738D01*
X52363967Y-6917464D01*
X52342093Y-6910133D01*
X52319344Y-6900409D01*
X52295284Y-6888001D01*
X52248280Y-6856762D01*
X52210999Y-6823670D01*
X52192067Y-6799033D01*
X52164297Y-6751965D01*
X52139629Y-6699204D01*
X52121966Y-6649408D01*
X52115211Y-6611234D01*
X52114483Y-6604711D01*
X52105401Y-6593426D01*
X52081728Y-6585746D01*
X52038209Y-6579504D01*
X52030868Y-6578758D01*
X51977325Y-6576138D01*
X51913267Y-6576355D01*
X51850985Y-6579415D01*
X51740762Y-6588037D01*
X51740555Y-6589149D01*
X51732289Y-6633588D01*
X51712701Y-6705675D01*
X51669983Y-6787317D01*
X51607981Y-6852954D01*
X51526389Y-6902989D01*
X51517552Y-6906971D01*
X51497016Y-6914842D01*
X51474175Y-6920666D01*
X51445229Y-6924748D01*
X51406377Y-6927392D01*
X51353818Y-6928903D01*
X51283750Y-6929584D01*
X51192373Y-6929742D01*
X51139035Y-6929598D01*
X51026012Y-6927929D01*
X50933814Y-6924042D01*
X50859443Y-6917508D01*
X50799899Y-6907898D01*
X50752184Y-6894779D01*
X50713299Y-6877724D01*
X50680245Y-6856302D01*
X50677927Y-6854508D01*
X50628193Y-6800158D01*
X50596087Y-6731192D01*
X50584109Y-6652904D01*
X50582067Y-6623515D01*
X50572407Y-6600979D01*
X50550415Y-6586517D01*
X50525938Y-6577599D01*
X50511974Y-6576905D01*
X50510965Y-6579984D01*
X50510513Y-6603105D01*
X50400056Y-6603105D01*
X50397423Y-6567312D01*
X50623852Y-6567312D01*
X50624100Y-6636496D01*
X50626013Y-6657475D01*
X50641638Y-6729854D01*
X50671754Y-6785298D01*
X50718676Y-6826005D01*
X50784721Y-6854174D01*
X50872205Y-6872003D01*
X50895826Y-6874940D01*
X50973630Y-6882164D01*
X51062148Y-6887624D01*
X51154247Y-6891103D01*
X51242795Y-6892385D01*
X51320660Y-6891251D01*
X51380707Y-6887486D01*
X51425704Y-6881015D01*
X51514609Y-6854728D01*
X51584758Y-6812103D01*
X51636701Y-6752738D01*
X51670989Y-6676234D01*
X51676740Y-6656032D01*
X51688707Y-6589149D01*
X51685815Y-6563456D01*
X52166215Y-6563456D01*
X52168676Y-6625058D01*
X52190673Y-6701711D01*
X52211774Y-6747512D01*
X52254574Y-6803218D01*
X52312732Y-6844002D01*
X52388789Y-6871466D01*
X52485286Y-6887209D01*
X52521028Y-6890444D01*
X52596414Y-6895185D01*
X52669183Y-6896092D01*
X52748477Y-6893143D01*
X52843436Y-6886314D01*
X52951056Y-6875518D01*
X53037382Y-6861608D01*
X53103587Y-6842891D01*
X53152165Y-6817565D01*
X53185610Y-6783827D01*
X53206415Y-6739874D01*
X53217076Y-6683906D01*
X53220085Y-6614119D01*
X53219109Y-6565035D01*
X53213596Y-6521620D01*
X53200716Y-6493465D01*
X53177693Y-6475146D01*
X53141746Y-6461241D01*
X53099087Y-6450747D01*
X53022733Y-6439118D01*
X52930397Y-6430689D01*
X52827190Y-6425458D01*
X52718223Y-6423426D01*
X52608607Y-6424593D01*
X52503453Y-6428959D01*
X52407873Y-6436523D01*
X52326978Y-6447287D01*
X52265878Y-6461249D01*
X52221357Y-6480734D01*
X52183653Y-6515738D01*
X52166215Y-6563456D01*
X51685815Y-6563456D01*
X51682980Y-6538274D01*
X51657885Y-6500480D01*
X51611747Y-6472840D01*
X51542891Y-6452427D01*
X51539990Y-6451798D01*
X51466657Y-6440036D01*
X51376191Y-6431659D01*
X51273850Y-6426604D01*
X51164896Y-6424808D01*
X51054587Y-6426208D01*
X50948184Y-6430740D01*
X50850946Y-6438341D01*
X50768135Y-6448948D01*
X50705009Y-6462498D01*
X50701174Y-6463658D01*
X50660849Y-6484204D01*
X50635588Y-6517652D01*
X50623852Y-6567312D01*
X50397423Y-6567312D01*
X50390285Y-6470300D01*
X50351883Y-6454247D01*
X50319914Y-6436841D01*
X50316675Y-6434147D01*
X50508092Y-6434147D01*
X50508543Y-6464284D01*
X50512217Y-6495805D01*
X50521796Y-6515068D01*
X50539873Y-6529883D01*
X50540444Y-6530256D01*
X50563441Y-6543262D01*
X50574774Y-6545867D01*
X50575961Y-6543694D01*
X50585040Y-6524837D01*
X50599019Y-6494511D01*
X50604619Y-6483160D01*
X50628652Y-6450917D01*
X50663543Y-6427666D01*
X50714026Y-6410958D01*
X50784834Y-6398344D01*
X50856054Y-6389779D01*
X50976410Y-6380224D01*
X51099470Y-6375832D01*
X51221299Y-6376390D01*
X51337963Y-6381689D01*
X51445526Y-6391516D01*
X51540055Y-6405661D01*
X51617613Y-6423912D01*
X51674267Y-6446059D01*
X51674636Y-6446259D01*
X51699630Y-6468843D01*
X51719607Y-6501232D01*
X51736212Y-6541027D01*
X52115216Y-6533491D01*
X52134177Y-6496826D01*
X52142544Y-6482918D01*
X52167516Y-6456757D01*
X52204051Y-6435411D01*
X52254856Y-6418077D01*
X52322638Y-6403947D01*
X52410105Y-6392218D01*
X52519964Y-6382084D01*
X52526525Y-6381582D01*
X52616037Y-6377128D01*
X52714226Y-6375969D01*
X52815471Y-6377844D01*
X52914150Y-6382497D01*
X53004642Y-6389668D01*
X53081326Y-6399100D01*
X53138580Y-6410533D01*
X53153720Y-6415361D01*
X53203150Y-6441541D01*
X53242081Y-6477585D01*
X53263272Y-6517292D01*
X53263314Y-6517459D01*
X53273978Y-6542123D01*
X53289773Y-6543750D01*
X53313838Y-6522673D01*
X53314330Y-6522125D01*
X53322625Y-6510258D01*
X53328279Y-6493776D01*
X53331601Y-6468585D01*
X53332900Y-6430590D01*
X53332485Y-6375697D01*
X53330666Y-6299811D01*
X53329666Y-6264701D01*
X53327286Y-6198101D01*
X53324228Y-6149401D01*
X53319719Y-6113546D01*
X53312985Y-6085484D01*
X53303253Y-6060161D01*
X53289749Y-6032525D01*
X53248242Y-5957010D01*
X53174884Y-5848348D01*
X53095439Y-5761630D01*
X53007663Y-5694947D01*
X52909314Y-5646390D01*
X52798149Y-5614049D01*
X52797573Y-5613928D01*
X52751620Y-5604965D01*
X52723919Y-5602091D01*
X52708415Y-5605351D01*
X52699046Y-5614791D01*
X52678820Y-5643586D01*
X52652557Y-5670912D01*
X52622205Y-5685906D01*
X52578670Y-5694596D01*
X52574095Y-5695221D01*
X52511286Y-5700790D01*
X52430481Y-5703962D01*
X52338090Y-5704821D01*
X52240524Y-5703450D01*
X52144193Y-5699933D01*
X52055508Y-5694354D01*
X51980881Y-5686796D01*
X51871512Y-5669390D01*
X51720855Y-5636976D01*
X51566150Y-5595364D01*
X51414685Y-5546745D01*
X51273750Y-5493311D01*
X51150633Y-5437251D01*
X51129745Y-5426713D01*
X51097636Y-5411492D01*
X51080746Y-5406697D01*
X51074194Y-5411581D01*
X51073095Y-5425399D01*
X51066648Y-5452858D01*
X51049092Y-5495203D01*
X51023662Y-5546115D01*
X50993591Y-5599519D01*
X50962117Y-5649338D01*
X50932473Y-5689496D01*
X50930602Y-5691728D01*
X50891857Y-5732840D01*
X50843088Y-5778102D01*
X50794387Y-5818117D01*
X50783574Y-5826428D01*
X50717762Y-5884850D01*
X50663822Y-5949608D01*
X50618902Y-6025394D01*
X50580150Y-6116901D01*
X50544712Y-6228822D01*
X50541804Y-6239360D01*
X50524090Y-6313510D01*
X50512345Y-6381283D01*
X50508092Y-6434147D01*
X50316675Y-6434147D01*
X50295561Y-6416588D01*
X50273877Y-6396973D01*
X50242413Y-6376764D01*
X50222049Y-6367652D01*
X50205482Y-6367801D01*
X50186329Y-6380513D01*
X50157177Y-6408552D01*
X50138459Y-6429101D01*
X50102058Y-6476929D01*
X50072511Y-6524904D01*
X50062963Y-6543822D01*
X50049731Y-6576029D01*
X50042155Y-6609185D01*
X50038738Y-6651337D01*
X50037983Y-6710528D01*
X49925813Y-6710528D01*
X49930906Y-6635545D01*
X49943978Y-6578445D01*
X49969744Y-6506424D01*
X50003219Y-6436325D01*
X50040679Y-6375798D01*
X50078401Y-6332491D01*
X50087707Y-6324201D01*
X50108921Y-6301851D01*
X50114496Y-6284224D01*
X50107877Y-6263223D01*
X50098018Y-6229329D01*
X50093757Y-6189350D01*
X50092251Y-6170169D01*
X50083651Y-6126119D01*
X50069968Y-6080080D01*
X50066157Y-6069237D01*
X50034003Y-5959982D01*
X50005656Y-5832182D01*
X49981849Y-5691577D01*
X49963317Y-5543911D01*
X49950795Y-5394925D01*
X49945015Y-5250363D01*
X49946712Y-5115965D01*
X49947867Y-5093207D01*
X49962497Y-4941806D01*
X49988264Y-4794869D01*
X50023913Y-4657368D01*
X50068187Y-4534276D01*
X50119832Y-4430567D01*
X50135689Y-4405757D01*
X50189366Y-4336034D01*
X50256532Y-4262831D01*
X50330969Y-4192204D01*
X50406457Y-4130211D01*
X50476779Y-4082908D01*
X50519887Y-4056379D01*
X50571831Y-4017295D01*
X50601633Y-3983424D01*
X50610421Y-3969183D01*
X50670313Y-3893502D01*
X50749807Y-3818880D01*
X50844391Y-3748402D01*
X50949551Y-3685152D01*
X51060772Y-3632215D01*
X51173540Y-3592675D01*
X51247311Y-3575227D01*
X51356168Y-3557504D01*
X51479654Y-3544160D01*
X51612155Y-3535439D01*
X51748057Y-3531582D01*
X51881747Y-3532835D01*
X52007612Y-3539439D01*
X52120038Y-3551640D01*
X52197621Y-3564078D01*
X52438534Y-3618617D01*
X52669258Y-3695953D01*
X52890887Y-3796495D01*
X53104514Y-3920654D01*
X53105202Y-3921100D01*
X53181635Y-3972623D01*
X53249694Y-4023392D01*
X53314053Y-4077585D01*
X53379387Y-4139382D01*
X53450371Y-4212961D01*
X53531679Y-4302501D01*
X53535859Y-4307195D01*
X53612549Y-4391809D01*
X53676674Y-4459083D01*
X53730880Y-4511437D01*
X53777812Y-4551290D01*
X53820117Y-4581062D01*
X53860440Y-4603172D01*
X53877767Y-4612091D01*
X53914244Y-4635152D01*
X53938634Y-4656392D01*
X53957298Y-4694616D01*
X53957112Y-4740173D01*
X53937533Y-4783729D01*
X53900176Y-4818481D01*
X53872834Y-4835520D01*
X53851568Y-4849210D01*
X53847104Y-4855134D01*
X53843695Y-4873252D01*
X53843748Y-4905887D01*
X53847317Y-4956482D01*
X53854457Y-5028481D01*
X53854655Y-5030339D01*
X53861627Y-5110777D01*
X53867395Y-5204516D01*
X53871365Y-5300060D01*
X53872943Y-5385911D01*
X53873293Y-5426167D01*
X53876443Y-5519538D01*
X53882624Y-5595226D01*
X53891578Y-5649579D01*
X53899382Y-5684531D01*
X53907066Y-5726288D01*
X53910216Y-5754128D01*
X53910115Y-5757330D01*
X53898101Y-5788980D01*
X53871675Y-5821364D01*
X53838760Y-5846585D01*
X53807277Y-5856746D01*
X53801798Y-5856955D01*
X53791177Y-5860206D01*
X53781907Y-5870188D01*
X53772554Y-5890442D01*
X53761683Y-5924505D01*
X53747860Y-5975918D01*
X53729649Y-6048219D01*
X53719982Y-6086918D01*
X53704274Y-6149128D01*
X53691110Y-6200419D01*
X53681646Y-6236303D01*
X53677040Y-6252294D01*
X53679922Y-6261457D01*
X53697730Y-6282723D01*
X53726879Y-6308778D01*
X53780729Y-6360667D01*
X53841062Y-6446896D01*
X53886566Y-6549736D01*
X53905254Y-6628899D01*
X53906141Y-6648262D01*
X53909992Y-6732371D01*
X53895305Y-6835350D01*
X53861736Y-6929522D01*
X53815696Y-7009436D01*
X53744349Y-7094859D01*
X53659390Y-7159415D01*
X53559795Y-7203841D01*
X53444536Y-7228873D01*
X53407841Y-7233715D01*
X53366108Y-7240717D01*
X53340888Y-7248393D01*
X53326950Y-7258590D01*
X53319067Y-7273151D01*
X53316013Y-7280751D01*
X53292465Y-7328576D01*
X53258115Y-7388071D01*
X53217093Y-7452675D01*
X53173533Y-7515824D01*
X53131565Y-7570957D01*
X53109420Y-7597621D01*
X53044482Y-7668630D01*
X52975605Y-7732078D01*
X52897834Y-7791891D01*
X52806218Y-7851996D01*
X52695801Y-7916319D01*
X52566999Y-7988149D01*
X52635838Y-8021829D01*
X52664192Y-8037705D01*
X52710498Y-8070592D01*
X52746255Y-8104083D01*
X52750132Y-8108701D01*
X52762196Y-8125859D01*
X52791928Y-8168143D01*
X52837901Y-8249250D01*
G37*
G36*
X45267407Y-7653618D02*
G01*
X45386435Y-7699793D01*
X45505771Y-7770847D01*
X45586293Y-7827136D01*
X45586293Y-7677310D01*
X46038295Y-7677310D01*
X46038295Y-9083538D01*
X45586293Y-9083538D01*
X45586293Y-8069963D01*
X45507821Y-8034093D01*
X45507310Y-8033859D01*
X45451411Y-8011993D01*
X45396190Y-7999686D01*
X45328903Y-7994089D01*
X45281173Y-7993465D01*
X45219677Y-7999997D01*
X45173907Y-8017980D01*
X45138772Y-8049820D01*
X45109180Y-8097923D01*
X45077791Y-8160701D01*
X45073587Y-8622120D01*
X45069384Y-9083538D01*
X44617599Y-9083538D01*
X44622804Y-8553064D01*
X44623391Y-8494559D01*
X44624885Y-8365396D01*
X44626644Y-8257760D01*
X44628942Y-8169094D01*
X44632052Y-8096840D01*
X44636248Y-8038441D01*
X44641804Y-7991340D01*
X44648993Y-7952980D01*
X44658088Y-7920803D01*
X44669364Y-7892253D01*
X44683095Y-7864771D01*
X44699553Y-7835801D01*
X44750895Y-7766123D01*
X44820468Y-7708068D01*
X44907006Y-7666163D01*
X45012609Y-7639088D01*
X45031265Y-7636171D01*
X45148936Y-7632389D01*
X45267407Y-7653618D01*
G37*
G36*
X47823809Y-7875061D02*
G01*
X47827470Y-8537369D01*
X47860884Y-8608649D01*
X47892291Y-8661856D01*
X47944116Y-8713388D01*
X48010860Y-8747550D01*
X48094298Y-8765182D01*
X48196209Y-8767124D01*
X48241320Y-8763446D01*
X48328547Y-8744978D01*
X48397135Y-8711073D01*
X48449038Y-8660070D01*
X48486211Y-8590312D01*
X48510607Y-8500137D01*
X48513967Y-8469605D01*
X48517026Y-8414177D01*
X48519582Y-8335977D01*
X48521613Y-8236202D01*
X48523093Y-8116049D01*
X48523999Y-7976714D01*
X48524306Y-7819394D01*
X48524306Y-7212752D01*
X49001419Y-7212752D01*
X49000981Y-7843672D01*
X49000814Y-7958691D01*
X49000287Y-8096658D01*
X48999371Y-8213069D01*
X48998014Y-8309979D01*
X48996165Y-8389447D01*
X48993772Y-8453528D01*
X48990786Y-8504279D01*
X48987154Y-8543758D01*
X48982825Y-8574022D01*
X48982634Y-8575089D01*
X48949007Y-8697928D01*
X48895280Y-8806094D01*
X48822120Y-8899026D01*
X48730197Y-8976160D01*
X48620178Y-9036936D01*
X48492732Y-9080791D01*
X48348527Y-9107165D01*
X48335699Y-9108587D01*
X48150745Y-9117855D01*
X47977237Y-9104820D01*
X47815231Y-9069487D01*
X47757453Y-9050741D01*
X47675609Y-9015853D01*
X47604746Y-8972355D01*
X47536028Y-8915369D01*
X47497644Y-8877037D01*
X47442100Y-8805061D01*
X47400585Y-8723209D01*
X47368915Y-8624186D01*
X47365458Y-8610239D01*
X47360475Y-8587290D01*
X47356328Y-8562430D01*
X47352942Y-8533340D01*
X47350241Y-8497699D01*
X47348148Y-8453188D01*
X47346586Y-8397486D01*
X47345480Y-8328274D01*
X47344752Y-8243230D01*
X47344327Y-8140035D01*
X47344128Y-8016370D01*
X47344079Y-7869913D01*
X47344079Y-7212752D01*
X47820149Y-7212752D01*
X47823809Y-7875061D01*
G37*
G36*
X52215655Y-8261146D02*
G01*
X52209378Y-8267424D01*
X52203100Y-8261146D01*
X52209378Y-8254868D01*
X52215655Y-8261146D01*
G37*
G36*
X38115705Y-5467523D02*
G01*
X38115705Y-5266633D01*
X37663703Y-5266633D01*
X37663703Y-5429856D01*
X37489123Y-5429856D01*
X37485385Y-5351383D01*
X37481647Y-5272911D01*
X37252507Y-5269488D01*
X37023367Y-5266066D01*
X37023367Y-5417300D01*
X36847588Y-5417300D01*
X36847588Y-5128521D01*
X37023367Y-5128521D01*
X38115705Y-5128521D01*
X38115705Y-4952742D01*
X37663703Y-4952742D01*
X37663703Y-5128521D01*
X37489072Y-5128521D01*
X37485359Y-5043771D01*
X37481647Y-4959020D01*
X37023367Y-4952176D01*
X37023367Y-5128521D01*
X36847588Y-5128521D01*
X36847588Y-4814631D01*
X37023367Y-4814631D01*
X38115705Y-4814631D01*
X38115705Y-4638852D01*
X37663703Y-4638852D01*
X37663703Y-4814631D01*
X37487924Y-4814631D01*
X37487924Y-4638852D01*
X37023367Y-4638852D01*
X37023367Y-4814631D01*
X36847588Y-4814631D01*
X36847588Y-4488185D01*
X37487924Y-4488185D01*
X37487924Y-4324962D01*
X36696921Y-4324962D01*
X36696921Y-4174295D01*
X37487924Y-4174295D01*
X37487924Y-3885516D01*
X37663703Y-3885516D01*
X37663703Y-4174295D01*
X38417040Y-4174295D01*
X38417040Y-4324962D01*
X37663703Y-4324962D01*
X37663703Y-4488185D01*
X38291483Y-4488185D01*
X38291483Y-5467523D01*
X38115705Y-5467523D01*
G37*
G36*
X51442258Y-6500991D02*
G01*
X51466151Y-6530304D01*
X51473461Y-6559326D01*
X51457816Y-6583499D01*
X51453665Y-6586505D01*
X51435077Y-6588575D01*
X51408752Y-6572481D01*
X51390341Y-6559977D01*
X51348080Y-6546680D01*
X51310985Y-6556641D01*
X51282110Y-6589449D01*
X51280664Y-6592037D01*
X51253131Y-6626410D01*
X51219616Y-6651847D01*
X51196125Y-6661083D01*
X51142343Y-6666249D01*
X51090054Y-6653261D01*
X51046304Y-6624545D01*
X51018139Y-6582523D01*
X51004039Y-6545075D01*
X50922428Y-6553706D01*
X50881952Y-6558552D01*
X50849862Y-6563538D01*
X50835662Y-6567300D01*
X50837389Y-6576170D01*
X50851356Y-6595300D01*
X50864995Y-6613113D01*
X50870400Y-6637149D01*
X50852462Y-6652639D01*
X50829601Y-6654464D01*
X50795217Y-6637192D01*
X50760078Y-6598754D01*
X50753871Y-6589706D01*
X50736686Y-6553555D01*
X50740532Y-6525918D01*
X50765681Y-6502076D01*
X50778058Y-6495866D01*
X50797930Y-6490377D01*
X50827413Y-6486016D01*
X50869607Y-6482536D01*
X50927612Y-6479685D01*
X51004528Y-6477216D01*
X51103454Y-6474877D01*
X51409641Y-6468375D01*
X51442258Y-6500991D01*
G37*
G36*
X51684135Y-8233942D02*
G01*
X51686099Y-8237719D01*
X51675764Y-8242312D01*
X51669117Y-8241406D01*
X51667394Y-8233942D01*
X51669234Y-8232439D01*
X51684135Y-8233942D01*
G37*
G36*
X52934632Y-8941978D02*
G01*
X52933447Y-8962456D01*
X52930277Y-8973472D01*
X52925562Y-8981061D01*
X52921145Y-8965577D01*
X52920655Y-8963284D01*
X52914482Y-8949741D01*
X52903987Y-8959299D01*
X52903224Y-8960387D01*
X52894745Y-8970434D01*
X52896522Y-8959079D01*
X52900832Y-8950742D01*
X52921065Y-8938442D01*
X52934632Y-8941978D01*
G37*
G36*
X51047069Y-6104448D02*
G01*
X51140938Y-6112755D01*
X51224641Y-6128350D01*
X51305321Y-6152553D01*
X51390124Y-6186681D01*
X51392202Y-6187606D01*
X51442162Y-6213090D01*
X51469275Y-6234469D01*
X51473027Y-6251122D01*
X51452902Y-6262427D01*
X51443937Y-6264503D01*
X51381803Y-6269423D01*
X51310685Y-6262711D01*
X51241422Y-6245247D01*
X51188956Y-6228112D01*
X51108601Y-6204772D01*
X51022744Y-6182393D01*
X50938704Y-6162760D01*
X50863797Y-6147657D01*
X50805341Y-6138869D01*
X50797679Y-6138039D01*
X50754227Y-6131709D01*
X50733459Y-6124670D01*
X50733234Y-6116251D01*
X50751314Y-6110572D01*
X50792141Y-6106162D01*
X50853166Y-6103287D01*
X50931932Y-6102121D01*
X50935891Y-6102112D01*
X51047069Y-6104448D01*
G37*
G36*
X38831375Y-4576074D02*
G01*
X39082487Y-4576074D01*
X39082487Y-4751853D01*
X38831375Y-4751853D01*
X38831375Y-6308748D01*
X38655596Y-6308748D01*
X38655596Y-4751853D01*
X38417040Y-4751853D01*
X38417040Y-4576074D01*
X38655596Y-4576074D01*
X38655596Y-3885516D01*
X38831375Y-3885516D01*
X38831375Y-4576074D01*
G37*
G36*
X51778563Y-8233736D02*
G01*
X51784375Y-8238255D01*
X51770978Y-8241321D01*
X51758243Y-8240433D01*
X51754498Y-8234727D01*
X51758940Y-8232239D01*
X51778563Y-8233736D01*
G37*
G36*
X37223026Y-3901294D02*
G01*
X37241735Y-3920562D01*
X37263240Y-3951433D01*
X37295662Y-4004794D01*
X37156375Y-4075224D01*
X37153185Y-4076835D01*
X37098981Y-4103770D01*
X37052587Y-4126026D01*
X37018843Y-4141333D01*
X37002587Y-4147419D01*
X36995706Y-4145006D01*
X36978368Y-4127194D01*
X36958804Y-4098534D01*
X36941446Y-4066675D01*
X36930727Y-4039269D01*
X36931077Y-4023967D01*
X36944613Y-4015749D01*
X36976429Y-3999829D01*
X37020183Y-3979362D01*
X37070103Y-3956898D01*
X37120418Y-3934986D01*
X37165356Y-3916178D01*
X37199144Y-3903023D01*
X37216012Y-3898071D01*
X37223026Y-3901294D01*
G37*
G36*
X50909872Y-8939149D02*
G01*
X50903594Y-8945427D01*
X50897316Y-8939149D01*
X50903594Y-8932871D01*
X50909872Y-8939149D01*
G37*
G36*
X36217620Y-4834699D02*
G01*
X36290846Y-4892508D01*
X36418384Y-4987354D01*
X36359470Y-5045382D01*
X36329313Y-5073777D01*
X36303831Y-5095212D01*
X36290237Y-5103410D01*
X36284885Y-5101411D01*
X36261949Y-5086763D01*
X36226027Y-5060579D01*
X36181165Y-5026058D01*
X36131407Y-4986398D01*
X36080800Y-4944797D01*
X36033388Y-4904455D01*
X35993216Y-4868569D01*
X35917553Y-4798519D01*
X35814429Y-4898818D01*
X35784287Y-4927138D01*
X35726695Y-4977443D01*
X35668682Y-5024225D01*
X35619117Y-5060155D01*
X35526929Y-5121192D01*
X35594006Y-5144133D01*
X35635311Y-5157513D01*
X35738108Y-5186487D01*
X35858066Y-5215668D01*
X35989841Y-5243946D01*
X36128089Y-5270208D01*
X36267468Y-5293345D01*
X36402634Y-5312246D01*
X36579182Y-5334318D01*
X36528190Y-5418861D01*
X36509977Y-5448136D01*
X36486455Y-5480641D01*
X36468299Y-5496246D01*
X36452086Y-5498531D01*
X36436088Y-5495788D01*
X36398514Y-5489848D01*
X36347349Y-5482037D01*
X36288864Y-5473323D01*
X36093329Y-5440640D01*
X35771055Y-5368807D01*
X35462473Y-5276756D01*
X35314085Y-5226487D01*
X35178362Y-5271573D01*
X35124732Y-5288818D01*
X34896053Y-5350623D01*
X34649268Y-5399262D01*
X34382513Y-5435118D01*
X34326824Y-5441284D01*
X34278783Y-5445573D01*
X34245558Y-5444236D01*
X34221561Y-5434863D01*
X34201205Y-5415043D01*
X34178903Y-5382367D01*
X34149066Y-5334424D01*
X34100879Y-5257825D01*
X34303423Y-5250350D01*
X34383870Y-5246589D01*
X34655595Y-5221243D01*
X34913167Y-5176783D01*
X34920847Y-5175131D01*
X34992088Y-5159694D01*
X35040090Y-5147562D01*
X35065931Y-5136373D01*
X35070687Y-5123765D01*
X35055434Y-5107374D01*
X35021248Y-5084840D01*
X34969207Y-5053800D01*
X34887631Y-5002084D01*
X34801884Y-4941776D01*
X34720803Y-4879184D01*
X34650290Y-4818871D01*
X34596246Y-4765400D01*
X34575025Y-4740709D01*
X34558712Y-4714186D01*
X34808653Y-4714186D01*
X34851922Y-4759178D01*
X34860362Y-4767569D01*
X34907636Y-4807549D01*
X34970776Y-4853393D01*
X35044182Y-4901396D01*
X35122252Y-4947853D01*
X35199386Y-4989057D01*
X35222344Y-5000320D01*
X35266917Y-5020992D01*
X35301196Y-5035291D01*
X35319179Y-5040632D01*
X35339656Y-5034682D01*
X35376993Y-5016433D01*
X35425408Y-4988772D01*
X35480194Y-4954640D01*
X35536644Y-4916981D01*
X35590052Y-4878733D01*
X35635710Y-4842840D01*
X35665359Y-4818248D01*
X35699016Y-4790293D01*
X35723870Y-4767818D01*
X35738290Y-4750230D01*
X35740647Y-4736934D01*
X35729308Y-4727337D01*
X35702645Y-4720845D01*
X35659027Y-4716864D01*
X35596823Y-4714802D01*
X35514403Y-4714064D01*
X35410136Y-4714056D01*
X35282393Y-4714186D01*
X34808653Y-4714186D01*
X34558712Y-4714186D01*
X34558425Y-4713720D01*
X34551378Y-4683372D01*
X34549911Y-4638816D01*
X34549911Y-4563519D01*
X35114914Y-4563519D01*
X35159925Y-4563507D01*
X35291871Y-4563278D01*
X35401034Y-4562681D01*
X35489199Y-4561615D01*
X35558151Y-4559981D01*
X35609672Y-4557681D01*
X35645548Y-4554614D01*
X35667562Y-4550682D01*
X35677499Y-4545784D01*
X35677143Y-4539822D01*
X35668278Y-4532696D01*
X35662486Y-4527798D01*
X35643056Y-4506916D01*
X35618371Y-4477185D01*
X35580102Y-4428867D01*
X35665833Y-4391001D01*
X35751565Y-4353134D01*
X35815039Y-4436354D01*
X35841764Y-4469572D01*
X35901824Y-4537011D01*
X35974362Y-4611963D01*
X36054456Y-4689707D01*
X36105985Y-4736934D01*
X36137182Y-4765526D01*
X36217620Y-4834699D01*
G37*
G36*
X52088074Y-8272097D02*
G01*
X52090099Y-8292535D01*
X52087969Y-8307120D01*
X52078719Y-8317646D01*
X52073202Y-8312556D01*
X52073906Y-8292535D01*
X52078691Y-8277776D01*
X52085286Y-8267424D01*
X52088074Y-8272097D01*
G37*
G36*
X46929743Y-7463865D02*
G01*
X46452630Y-7463865D01*
X46452630Y-7124863D01*
X46929743Y-7124863D01*
X46929743Y-7463865D01*
G37*
G36*
X52981548Y-9039594D02*
G01*
X52975270Y-9045871D01*
X52968992Y-9039594D01*
X52975270Y-9033316D01*
X52981548Y-9039594D01*
G37*
G36*
X35417307Y-3888430D02*
G01*
X35455219Y-3910814D01*
X35489208Y-3933059D01*
X35504788Y-3951401D01*
X35503402Y-3971576D01*
X35486490Y-3999321D01*
X35455496Y-4040372D01*
X35440484Y-4059753D01*
X35416780Y-4089273D01*
X35398181Y-4113306D01*
X35386505Y-4132408D01*
X35383569Y-4147136D01*
X35391193Y-4158047D01*
X35411193Y-4165697D01*
X35445388Y-4170644D01*
X35495596Y-4173442D01*
X35563636Y-4174650D01*
X35651324Y-4174824D01*
X35760479Y-4174520D01*
X35892920Y-4174295D01*
X36420697Y-4174295D01*
X36420697Y-4638852D01*
X36244919Y-4638852D01*
X36244919Y-4337518D01*
X34399244Y-4337518D01*
X34399244Y-4638852D01*
X34223466Y-4638852D01*
X34223466Y-4174295D01*
X35271410Y-4174295D01*
X35221412Y-4140970D01*
X35205111Y-4130065D01*
X35178980Y-4112379D01*
X35166502Y-4103623D01*
X35170355Y-4093673D01*
X35187003Y-4068584D01*
X35213281Y-4032943D01*
X35245788Y-3991220D01*
X35281120Y-3947884D01*
X35315875Y-3907405D01*
X35361866Y-3855580D01*
X35417307Y-3888430D01*
G37*
G36*
X48850752Y-5756302D02*
G01*
X48850752Y-5580523D01*
X48151388Y-5580523D01*
X48143808Y-5778274D01*
X48142240Y-5813772D01*
X48137957Y-5883792D01*
X48132662Y-5945722D01*
X48126882Y-5993889D01*
X48121142Y-6022622D01*
X48097810Y-6074819D01*
X48048097Y-6135172D01*
X47979504Y-6179922D01*
X47893170Y-6208140D01*
X47883953Y-6209436D01*
X47847735Y-6211891D01*
X47791600Y-6213925D01*
X47719065Y-6215474D01*
X47633649Y-6216472D01*
X47538870Y-6216855D01*
X47438246Y-6216557D01*
X47405280Y-6216340D01*
X47291910Y-6215389D01*
X47199999Y-6213895D01*
X47126640Y-6211364D01*
X47068929Y-6207303D01*
X47023959Y-6201217D01*
X46988825Y-6192612D01*
X46960621Y-6180996D01*
X46936441Y-6165873D01*
X46913381Y-6146751D01*
X46888533Y-6123136D01*
X46862479Y-6092722D01*
X46836155Y-6046901D01*
X46813326Y-5986867D01*
X46792654Y-5908987D01*
X46772797Y-5809633D01*
X46769246Y-5789847D01*
X46759930Y-5738714D01*
X46752198Y-5697306D01*
X46747443Y-5673124D01*
X46746758Y-5669300D01*
X46748626Y-5655748D01*
X46761361Y-5643760D01*
X46789348Y-5630376D01*
X46836972Y-5612632D01*
X46850569Y-5607859D01*
X46892861Y-5593781D01*
X46923268Y-5584844D01*
X46935949Y-5582809D01*
X46938851Y-5594820D01*
X46944487Y-5626960D01*
X46951946Y-5674106D01*
X46960391Y-5731190D01*
X46974188Y-5813104D01*
X46993257Y-5889179D01*
X47016493Y-5945524D01*
X47045132Y-5985016D01*
X47080411Y-6010533D01*
X47080558Y-6010607D01*
X47096007Y-6017088D01*
X47115313Y-6022164D01*
X47141514Y-6025999D01*
X47177645Y-6028757D01*
X47226742Y-6030604D01*
X47291842Y-6031704D01*
X47375979Y-6032221D01*
X47482190Y-6032320D01*
X47548508Y-6032255D01*
X47647068Y-6031784D01*
X47724909Y-6030453D01*
X47784832Y-6027785D01*
X47829639Y-6023303D01*
X47862129Y-6016531D01*
X47885105Y-6006992D01*
X47901365Y-5994212D01*
X47913712Y-5977712D01*
X47924946Y-5957017D01*
X47933622Y-5936412D01*
X47940033Y-5909300D01*
X47943549Y-5872649D01*
X47944641Y-5821282D01*
X47943779Y-5750024D01*
X47940470Y-5586801D01*
X47485329Y-5583505D01*
X47030188Y-5580210D01*
X47030188Y-5404744D01*
X47231078Y-5404744D01*
X48850752Y-5404744D01*
X48850752Y-4990409D01*
X48147638Y-4990409D01*
X48147638Y-5404744D01*
X47946748Y-5404744D01*
X47946748Y-4990409D01*
X47231078Y-4990409D01*
X47231078Y-5404744D01*
X47030188Y-5404744D01*
X47030188Y-4814631D01*
X47231078Y-4814631D01*
X48850752Y-4814631D01*
X48850752Y-4387740D01*
X48147638Y-4387740D01*
X48147638Y-4814631D01*
X47947355Y-4814631D01*
X47943913Y-4604324D01*
X47940470Y-4394018D01*
X47585774Y-4390683D01*
X47231078Y-4387349D01*
X47231078Y-4814631D01*
X47030188Y-4814631D01*
X47030188Y-4211961D01*
X47946748Y-4211961D01*
X47946748Y-3898071D01*
X48147638Y-3898071D01*
X48147638Y-4211961D01*
X49051642Y-4211961D01*
X49051642Y-5756302D01*
X48850752Y-5756302D01*
G37*
G36*
X51728341Y-8233736D02*
G01*
X51734152Y-8238255D01*
X51720755Y-8241321D01*
X51708020Y-8240433D01*
X51704276Y-8234727D01*
X51708718Y-8232239D01*
X51728341Y-8233736D01*
G37*
G36*
X51512541Y-8141868D02*
G01*
X51511635Y-8148514D01*
X51504171Y-8150238D01*
X51502668Y-8148398D01*
X51504171Y-8133497D01*
X51507947Y-8131533D01*
X51512541Y-8141868D01*
G37*
G36*
X51643380Y-8230743D02*
G01*
X51644375Y-8242312D01*
X51641798Y-8246070D01*
X51631079Y-8254868D01*
X51629826Y-8254542D01*
X51625542Y-8242312D01*
X51626053Y-8238871D01*
X51638838Y-8229757D01*
X51643380Y-8230743D01*
G37*
G36*
X51262592Y-7344592D02*
G01*
X51287304Y-7351539D01*
X51297160Y-7375975D01*
X51302393Y-7398597D01*
X51313072Y-7421468D01*
X51322207Y-7428697D01*
X51357773Y-7442029D01*
X51413789Y-7453701D01*
X51487171Y-7463585D01*
X51574837Y-7471556D01*
X51673705Y-7477487D01*
X51780692Y-7481251D01*
X51892717Y-7482723D01*
X52006696Y-7481776D01*
X52119548Y-7478283D01*
X52228190Y-7472119D01*
X52329540Y-7463155D01*
X52394881Y-7455037D01*
X52451352Y-7444399D01*
X52489140Y-7431380D01*
X52511717Y-7414723D01*
X52522558Y-7393168D01*
X52522635Y-7392862D01*
X52534875Y-7369479D01*
X52558240Y-7365743D01*
X52569651Y-7368467D01*
X52582707Y-7381904D01*
X52586046Y-7412287D01*
X52585740Y-7421285D01*
X52579144Y-7449149D01*
X52562091Y-7471825D01*
X52532139Y-7490185D01*
X52486845Y-7505102D01*
X52423767Y-7517449D01*
X52340462Y-7528099D01*
X52234489Y-7537925D01*
X52199563Y-7540533D01*
X52080035Y-7546322D01*
X51950278Y-7548581D01*
X51816160Y-7547479D01*
X51683551Y-7543181D01*
X51558319Y-7535856D01*
X51446333Y-7525671D01*
X51353462Y-7512794D01*
X51298012Y-7498639D01*
X51253941Y-7473523D01*
X51230601Y-7437594D01*
X51226290Y-7389200D01*
X51229776Y-7364342D01*
X51239853Y-7348315D01*
X51261429Y-7344586D01*
X51262592Y-7344592D01*
G37*
G36*
X38084781Y-5761022D02*
G01*
X38107232Y-5780165D01*
X38135285Y-5809003D01*
X38182898Y-5861705D01*
X38147503Y-5887476D01*
X38126740Y-5902766D01*
X38089376Y-5930516D01*
X38042443Y-5965519D01*
X37991490Y-6003642D01*
X37991067Y-6003959D01*
X37943837Y-6038998D01*
X37904157Y-6067775D01*
X37876183Y-6087322D01*
X37864068Y-6094671D01*
X37853977Y-6087989D01*
X37831190Y-6067589D01*
X37801290Y-6038165D01*
X37745314Y-5981027D01*
X37776703Y-5956780D01*
X37800129Y-5939199D01*
X37842462Y-5908789D01*
X37891295Y-5874774D01*
X37942129Y-5840174D01*
X37990465Y-5808008D01*
X38031804Y-5781295D01*
X38061645Y-5763053D01*
X38075491Y-5756302D01*
X38084781Y-5761022D01*
G37*
G36*
X52249137Y-8158608D02*
G01*
X52251101Y-8162385D01*
X52240767Y-8166979D01*
X52234120Y-8166073D01*
X52232396Y-8158608D01*
X52234236Y-8157106D01*
X52249137Y-8158608D01*
G37*
G36*
X52726777Y-6475016D02*
G01*
X52814437Y-6477356D01*
X52911587Y-6481197D01*
X52984550Y-6485847D01*
X53033853Y-6491341D01*
X53060020Y-6497716D01*
X53080943Y-6511636D01*
X53094151Y-6540192D01*
X53084422Y-6576032D01*
X53051859Y-6617616D01*
X53028758Y-6639603D01*
X53004213Y-6656571D01*
X52986037Y-6656550D01*
X52968687Y-6641104D01*
X52962192Y-6631204D01*
X52963286Y-6614496D01*
X52981893Y-6590882D01*
X53011036Y-6559861D01*
X52968042Y-6559722D01*
X52924328Y-6557409D01*
X52879235Y-6552008D01*
X52870674Y-6550650D01*
X52843980Y-6549651D01*
X52827678Y-6560857D01*
X52811887Y-6589813D01*
X52807094Y-6599829D01*
X52794516Y-6625149D01*
X52788644Y-6635383D01*
X52786492Y-6636048D01*
X52767849Y-6642539D01*
X52736713Y-6653666D01*
X52733948Y-6654662D01*
X52698387Y-6666863D01*
X52675205Y-6670866D01*
X52653719Y-6666762D01*
X52623249Y-6654643D01*
X52622934Y-6654511D01*
X52584415Y-6628791D01*
X52553356Y-6591865D01*
X52539856Y-6571344D01*
X52517661Y-6552277D01*
X52488309Y-6547305D01*
X52457343Y-6553103D01*
X52420861Y-6574259D01*
X52408764Y-6584864D01*
X52390026Y-6593521D01*
X52372969Y-6585277D01*
X52367514Y-6580413D01*
X52355321Y-6559514D01*
X52362771Y-6535584D01*
X52390914Y-6503858D01*
X52428062Y-6468269D01*
X52726777Y-6475016D01*
G37*
G36*
X52890055Y-6097271D02*
G01*
X52949672Y-6099267D01*
X53005180Y-6102864D01*
X53051329Y-6107726D01*
X53082868Y-6113516D01*
X53094548Y-6119899D01*
X53091759Y-6122424D01*
X53070178Y-6129099D01*
X53031895Y-6136711D01*
X52982487Y-6144056D01*
X52973635Y-6145279D01*
X52915392Y-6155877D01*
X52843249Y-6172071D01*
X52765532Y-6191885D01*
X52690569Y-6213342D01*
X52615456Y-6235274D01*
X52531805Y-6256041D01*
X52465089Y-6267242D01*
X52411930Y-6269399D01*
X52368948Y-6263034D01*
X52348195Y-6253213D01*
X52347894Y-6238599D01*
X52370657Y-6218904D01*
X52417052Y-6193309D01*
X52467941Y-6170970D01*
X52566482Y-6138249D01*
X52673057Y-6113547D01*
X52777156Y-6099597D01*
X52779496Y-6099421D01*
X52831580Y-6097210D01*
X52890055Y-6097271D01*
G37*
G36*
X51709246Y-8309276D02*
G01*
X51711210Y-8313052D01*
X51700875Y-8317646D01*
X51694228Y-8316740D01*
X51692505Y-8309276D01*
X51694345Y-8307773D01*
X51709246Y-8309276D01*
G37*
G36*
X52081931Y-7674177D02*
G01*
X52099516Y-7675514D01*
X52107765Y-7681284D01*
X52115211Y-7702718D01*
X52112937Y-7715403D01*
X52099516Y-7731940D01*
X52095469Y-7732836D01*
X52069536Y-7734772D01*
X52025318Y-7736035D01*
X51967749Y-7736521D01*
X51901765Y-7736125D01*
X51869640Y-7735701D01*
X51807916Y-7734553D01*
X51765809Y-7732732D01*
X51739431Y-7729613D01*
X51724892Y-7724571D01*
X51718305Y-7716979D01*
X51715782Y-7706214D01*
X51715029Y-7699665D01*
X51716498Y-7690851D01*
X51724654Y-7684753D01*
X51743183Y-7680737D01*
X51775767Y-7678167D01*
X51826091Y-7676408D01*
X51897839Y-7674825D01*
X51927262Y-7674285D01*
X51990935Y-7673546D01*
X52044114Y-7673515D01*
X52081931Y-7674177D01*
G37*
G36*
X42871766Y-8212642D02*
G01*
X42865046Y-8314205D01*
X42853433Y-8406045D01*
X42837170Y-8480664D01*
X42833779Y-8492036D01*
X42779159Y-8630182D01*
X42704814Y-8753883D01*
X42612418Y-8861726D01*
X42503647Y-8952297D01*
X42380176Y-9024182D01*
X42243680Y-9075968D01*
X42095833Y-9106240D01*
X42008844Y-9115389D01*
X41929740Y-9118919D01*
X41851787Y-9116224D01*
X41763110Y-9107344D01*
X41687332Y-9095696D01*
X41537590Y-9056516D01*
X41403639Y-8998083D01*
X41285991Y-8920842D01*
X41185156Y-8825240D01*
X41101647Y-8711721D01*
X41035974Y-8580731D01*
X40988649Y-8432716D01*
X40984407Y-8414047D01*
X40968674Y-8310931D01*
X40961308Y-8195018D01*
X40961392Y-8184807D01*
X41456376Y-8184807D01*
X41459266Y-8267580D01*
X41467238Y-8337823D01*
X41469187Y-8348578D01*
X41499461Y-8456167D01*
X41546143Y-8552620D01*
X41606876Y-8634690D01*
X41679306Y-8699131D01*
X41761077Y-8742698D01*
X41820295Y-8759666D01*
X41915229Y-8769171D01*
X42010787Y-8759996D01*
X42100342Y-8732995D01*
X42177268Y-8689023D01*
X42214106Y-8657141D01*
X42278371Y-8577638D01*
X42327859Y-8480044D01*
X42361897Y-8366304D01*
X42379817Y-8238364D01*
X42380946Y-8098169D01*
X42379065Y-8068059D01*
X42360687Y-7931267D01*
X42327267Y-7814159D01*
X42278929Y-7716895D01*
X42215797Y-7639637D01*
X42137997Y-7582542D01*
X42045653Y-7545773D01*
X41938888Y-7529488D01*
X41906950Y-7528196D01*
X41854970Y-7529391D01*
X41811087Y-7536918D01*
X41764129Y-7552232D01*
X41762518Y-7552843D01*
X41675225Y-7598706D01*
X41601404Y-7664816D01*
X41540483Y-7751822D01*
X41491890Y-7860370D01*
X41488227Y-7871539D01*
X41474491Y-7932869D01*
X41464358Y-8010295D01*
X41458196Y-8096660D01*
X41456376Y-8184807D01*
X40961392Y-8184807D01*
X40962298Y-8075340D01*
X40971634Y-7960928D01*
X40989305Y-7860812D01*
X40995311Y-7837224D01*
X41045229Y-7693792D01*
X41113882Y-7566013D01*
X41200345Y-7454909D01*
X41303693Y-7361506D01*
X41423002Y-7286826D01*
X41557347Y-7231893D01*
X41636524Y-7210381D01*
X41780776Y-7186718D01*
X41929279Y-7180083D01*
X42077125Y-7190031D01*
X42219404Y-7216113D01*
X42351208Y-7257881D01*
X42467628Y-7314889D01*
X42481049Y-7323171D01*
X42587795Y-7405222D01*
X42680176Y-7506398D01*
X42756682Y-7624419D01*
X42815802Y-7757003D01*
X42856028Y-7901869D01*
X42860119Y-7924618D01*
X42869547Y-8010349D01*
X42872936Y-8098169D01*
X42873348Y-8108857D01*
X42871766Y-8212642D01*
G37*
G36*
X51738542Y-8311368D02*
G01*
X51732264Y-8317646D01*
X51725987Y-8311368D01*
X51732264Y-8305090D01*
X51738542Y-8311368D01*
G37*
G36*
X35573717Y-7638445D02*
G01*
X35583172Y-7640313D01*
X35655652Y-7661854D01*
X35736043Y-7695800D01*
X35815334Y-7737930D01*
X35884512Y-7784022D01*
X35943584Y-7829128D01*
X35943584Y-7677310D01*
X36395586Y-7677310D01*
X36395586Y-9083538D01*
X35943584Y-9083538D01*
X35943584Y-8070251D01*
X35857832Y-8030726D01*
X35817604Y-8014193D01*
X35735016Y-7992925D01*
X35658594Y-7989901D01*
X35591578Y-8004629D01*
X35537207Y-8036615D01*
X35498722Y-8085367D01*
X35498206Y-8086369D01*
X35491605Y-8100390D01*
X35486217Y-8115933D01*
X35481891Y-8135617D01*
X35478478Y-8162066D01*
X35475829Y-8197898D01*
X35473793Y-8245736D01*
X35472221Y-8308200D01*
X35470964Y-8387913D01*
X35469872Y-8487493D01*
X35468795Y-8609564D01*
X35464841Y-9083538D01*
X35014469Y-9083538D01*
X35014469Y-8068381D01*
X34942274Y-8032960D01*
X34894185Y-8012536D01*
X34840966Y-7999448D01*
X34775912Y-7993732D01*
X34768248Y-7993460D01*
X34694797Y-7996375D01*
X34639811Y-8011448D01*
X34599168Y-8040505D01*
X34568745Y-8085367D01*
X34562763Y-8098373D01*
X34557365Y-8114120D01*
X34553011Y-8134016D01*
X34549558Y-8160682D01*
X34546858Y-8196737D01*
X34544766Y-8244802D01*
X34543137Y-8307497D01*
X34541824Y-8387442D01*
X34540681Y-8487258D01*
X34539563Y-8609564D01*
X34535492Y-9083538D01*
X34082702Y-9083538D01*
X34088758Y-8553064D01*
X34089218Y-8513252D01*
X34090882Y-8382484D01*
X34092706Y-8273513D01*
X34094950Y-8183735D01*
X34097869Y-8110546D01*
X34101722Y-8051342D01*
X34106766Y-8003520D01*
X34113258Y-7964476D01*
X34121456Y-7931606D01*
X34131617Y-7902307D01*
X34143998Y-7873974D01*
X34158858Y-7844005D01*
X34191553Y-7792078D01*
X34255905Y-7726456D01*
X34335536Y-7676658D01*
X34426782Y-7644286D01*
X34525980Y-7630942D01*
X34629468Y-7638227D01*
X34664500Y-7646215D01*
X34741674Y-7673048D01*
X34826145Y-7712145D01*
X34910865Y-7760071D01*
X34988791Y-7813391D01*
X35069836Y-7875004D01*
X35103137Y-7822494D01*
X35126093Y-7790436D01*
X35193538Y-7725065D01*
X35276197Y-7675548D01*
X35369896Y-7643517D01*
X35470460Y-7630605D01*
X35573717Y-7638445D01*
G37*
G36*
X51550208Y-8236035D02*
G01*
X51543930Y-8242312D01*
X51537652Y-8236035D01*
X51543930Y-8229757D01*
X51550208Y-8236035D01*
G37*
D14*
%TO.C,U2*%
X31252500Y-8501000D02*
X31252500Y-4149000D01*
X25974500Y-4149000D02*
X25974500Y-8501000D01*
X25974500Y-8501000D02*
X31252500Y-8501000D01*
X31252500Y-4149000D02*
X25974500Y-4149000D01*
D12*
X26091500Y-2795000D02*
G75*
G03*
X26091500Y-2795000I-150000J0D01*
G01*
X26858500Y-4901000D02*
G75*
G03*
X26858500Y-4901000I-150000J0D01*
G01*
D15*
%TO.C,C1*%
X25580000Y-6432836D02*
X25580000Y-6217164D01*
X24860000Y-6432836D02*
X24860000Y-6217164D01*
%TD*%
%LPC*%
D16*
%TO.C,HOLE2*%
X14660000Y2470000D03*
%TD*%
D17*
%TO.C,U3*%
X43199558Y-6350000D03*
X42351030Y-5501472D03*
X41502502Y-6350000D03*
X42351030Y-7198528D03*
%TD*%
D18*
%TO.C,J3*%
X52780000Y-15090000D03*
D19*
X50240000Y-15090000D03*
X47700000Y-15090000D03*
X45160000Y-15090000D03*
X42620000Y-15090000D03*
X40080000Y-15090000D03*
X37540000Y-15090000D03*
X35000000Y-15090000D03*
X32460000Y-15090000D03*
X29920000Y-15090000D03*
X27380000Y-15090000D03*
X24840000Y-15090000D03*
X22300000Y-15090000D03*
X19760000Y-15090000D03*
X17220000Y-15090000D03*
%TD*%
D16*
%TO.C,HOLE1*%
X1910000Y1590000D03*
%TD*%
D18*
%TO.C,J2*%
X12150000Y2480000D03*
D19*
X9610000Y2480000D03*
X7070000Y2480000D03*
X4530000Y2480000D03*
%TD*%
D16*
%TO.C,HOLE3*%
X55140000Y2420000D03*
%TD*%
D20*
%TO.C,USB1*%
X5749000Y-3460000D03*
X5749000Y-9240000D03*
D21*
X6249000Y-2025000D03*
X6249000Y-10675000D03*
D22*
X2049000Y-2025000D03*
X2049000Y-10675000D03*
%TD*%
D16*
%TO.C,HOLE4*%
X55140000Y-15070000D03*
%TD*%
%TO.C,HOLE5*%
X1910000Y-14210000D03*
%TD*%
D18*
%TO.C,J1*%
X52780000Y2470000D03*
D19*
X50240000Y2470000D03*
X47700000Y2470000D03*
X45160000Y2470000D03*
X42620000Y2470000D03*
X40080000Y2470000D03*
X37540000Y2470000D03*
X35000000Y2470000D03*
X32460000Y2470000D03*
X29920000Y2470000D03*
X27380000Y2470000D03*
X24840000Y2470000D03*
X22300000Y2470000D03*
X19760000Y2470000D03*
X17220000Y2470000D03*
%TD*%
D23*
%TO.C,U2*%
X26708500Y-2795000D03*
X27978500Y-2795000D03*
X29248500Y-2795000D03*
X30518500Y-2795000D03*
X30518500Y-9855000D03*
X29248500Y-9855000D03*
X27978500Y-9855000D03*
X26708500Y-9855000D03*
%TD*%
D24*
%TO.C,C1*%
X25220000Y-6805000D03*
X25220000Y-5845000D03*
%TD*%
M02*
