%TF.GenerationSoftware,KiCad,Pcbnew,7.0.1*%
%TF.CreationDate,2023-03-19T18:10:57+08:00*%
%TF.ProjectId,UINIO-MCU-ESP32C3,55494e49-4f2d-44d4-9355-2d4553503332,Version 3.5.0*%
%TF.SameCoordinates,PX735b400PY5c274f0*%
%TF.FileFunction,Copper,L2,Bot*%
%TF.FilePolarity,Positive*%
%FSLAX46Y46*%
G04 Gerber Fmt 4.6, Leading zero omitted, Abs format (unit mm)*
G04 Created by KiCad (PCBNEW 7.0.1) date 2023-03-19 18:10:57*
%MOMM*%
%LPD*%
G01*
G04 APERTURE LIST*
G04 Aperture macros list*
%AMRoundRect*
0 Rectangle with rounded corners*
0 $1 Rounding radius*
0 $2 $3 $4 $5 $6 $7 $8 $9 X,Y pos of 4 corners*
0 Add a 4 corners polygon primitive as box body*
4,1,4,$2,$3,$4,$5,$6,$7,$8,$9,$2,$3,0*
0 Add four circle primitives for the rounded corners*
1,1,$1+$1,$2,$3*
1,1,$1+$1,$4,$5*
1,1,$1+$1,$6,$7*
1,1,$1+$1,$8,$9*
0 Add four rect primitives between the rounded corners*
20,1,$1+$1,$2,$3,$4,$5,0*
20,1,$1+$1,$4,$5,$6,$7,0*
20,1,$1+$1,$6,$7,$8,$9,0*
20,1,$1+$1,$8,$9,$2,$3,0*%
G04 Aperture macros list end*
%TA.AperFunction,ComponentPad*%
%ADD10C,1.200000*%
%TD*%
%TA.AperFunction,ComponentPad*%
%ADD11C,0.610000*%
%TD*%
%TA.AperFunction,ComponentPad*%
%ADD12R,1.700000X1.700000*%
%TD*%
%TA.AperFunction,ComponentPad*%
%ADD13O,1.700000X1.700000*%
%TD*%
%TA.AperFunction,ComponentPad*%
%ADD14R,0.500000X0.900000*%
%TD*%
%TA.AperFunction,ComponentPad*%
%ADD15O,2.100000X1.000000*%
%TD*%
%TA.AperFunction,ComponentPad*%
%ADD16O,1.900000X1.000000*%
%TD*%
%TA.AperFunction,SMDPad,CuDef*%
%ADD17O,0.630000X2.250000*%
%TD*%
%TA.AperFunction,SMDPad,CuDef*%
%ADD18RoundRect,0.140000X0.170000X-0.140000X0.170000X0.140000X-0.170000X0.140000X-0.170000X-0.140000X0*%
%TD*%
%TA.AperFunction,ViaPad*%
%ADD19C,0.700000*%
%TD*%
%TA.AperFunction,ViaPad*%
%ADD20C,0.500000*%
%TD*%
%TA.AperFunction,ViaPad*%
%ADD21C,1.100000*%
%TD*%
%TA.AperFunction,ViaPad*%
%ADD22C,0.900000*%
%TD*%
%TA.AperFunction,Conductor*%
%ADD23C,0.300000*%
%TD*%
%TA.AperFunction,Conductor*%
%ADD24C,0.400000*%
%TD*%
%TA.AperFunction,Conductor*%
%ADD25C,0.200000*%
%TD*%
%TA.AperFunction,Conductor*%
%ADD26C,0.900000*%
%TD*%
%TA.AperFunction,Conductor*%
%ADD27C,0.500000*%
%TD*%
G04 APERTURE END LIST*
D10*
%TO.P,HOLE2,*%
%TO.N,*%
X14660000Y2470000D03*
%TD*%
D11*
%TO.P,U3,*%
%TO.N,*%
X43199558Y-6350000D03*
X42351030Y-5501472D03*
X42351030Y-7198528D03*
X41502502Y-6350000D03*
%TD*%
D10*
%TO.P,HOLE1,*%
%TO.N,*%
X1910000Y1590000D03*
%TD*%
D12*
%TO.P,J2,1,Pin_1*%
%TO.N,/DTR*%
X12140000Y2470000D03*
D13*
%TO.P,J2,2,Pin_2*%
%TO.N,/U0TXD*%
X9600000Y2470000D03*
%TO.P,J2,3,Pin_3*%
%TO.N,/U0RXD*%
X7060000Y2470000D03*
%TO.P,J2,4,Pin_4*%
%TO.N,/RTS*%
X4520000Y2470000D03*
%TD*%
D14*
%TO.P,AE1,2,PCB_Trace*%
%TO.N,GND*%
X54530000Y300000D03*
%TD*%
D10*
%TO.P,HOLE3,*%
%TO.N,*%
X55140000Y2420000D03*
%TD*%
D15*
%TO.P,USB1,13,GND*%
%TO.N,GND*%
X6249000Y-2025000D03*
%TO.P,USB1,14,GND*%
X6249000Y-10675000D03*
D16*
%TO.P,USB1,15,GND*%
X2049000Y-2025000D03*
%TO.P,USB1,16,GND*%
X2049000Y-10675000D03*
%TD*%
D10*
%TO.P,HOLE4,*%
%TO.N,*%
X55140000Y-15070000D03*
%TD*%
%TO.P,HOLE5,*%
%TO.N,*%
X1910000Y-14210000D03*
%TD*%
D12*
%TO.P,J3,1,Pin_1*%
%TO.N,GND*%
X52780000Y-15090000D03*
D13*
%TO.P,J3,2,Pin_2*%
%TO.N,/VDD_3.3V*%
X50240000Y-15090000D03*
%TO.P,J3,3,Pin_3*%
%TO.N,/U0TXD*%
X47700000Y-15090000D03*
%TO.P,J3,4,Pin_4*%
%TO.N,/U0RXD*%
X45160000Y-15090000D03*
%TO.P,J3,5,Pin_5*%
%TO.N,/GPIO19{slash}USB_D+*%
X42620000Y-15090000D03*
%TO.P,J3,6,Pin_6*%
%TO.N,/GPIO18{slash}USB_D-*%
X40080000Y-15090000D03*
%TO.P,J3,7,Pin_7*%
%TO.N,/SPIQ*%
X37540000Y-15090000D03*
%TO.P,J3,8,Pin_8*%
%TO.N,/SPID*%
X35000000Y-15090000D03*
%TO.P,J3,9,Pin_9*%
%TO.N,/SPICLK*%
X32460000Y-15090000D03*
%TO.P,J3,10,Pin_10*%
%TO.N,/SPICS0*%
X29920000Y-15090000D03*
%TO.P,J3,11,Pin_11*%
%TO.N,/SPIWP{slash}GPIO13*%
X27380000Y-15090000D03*
%TO.P,J3,12,Pin_12*%
%TO.N,/SPIHD{slash}GPIO12*%
X24840000Y-15090000D03*
%TO.P,J3,13,Pin_13*%
%TO.N,/VDD_SPI{slash}GPIO11*%
X22300000Y-15090000D03*
%TO.P,J3,14,Pin_14*%
%TO.N,/VDD_5V*%
X19760000Y-15090000D03*
%TO.P,J3,15,Pin_15*%
%TO.N,GND*%
X17220000Y-15090000D03*
%TD*%
D17*
%TO.P,U2,1,CS#*%
%TO.N,/SPICS0*%
X25145000Y-2790000D03*
%TO.P,U2,2,DO(IO1)*%
%TO.N,/SPIQ*%
X26415000Y-2790000D03*
%TO.P,U2,3,WP#(IO2)*%
%TO.N,/VDD_3.3V*%
X27685000Y-2790000D03*
%TO.P,U2,4,GND*%
%TO.N,GND*%
X28955000Y-2790000D03*
%TO.P,U2,5,DI(IO0)*%
%TO.N,/SPID*%
X28955000Y-9850000D03*
%TO.P,U2,6,CLK*%
%TO.N,/SPICLK*%
X27685000Y-9850000D03*
%TO.P,U2,7,HOLD#/RESET#/(IO3)*%
%TO.N,/VDD_3.3V*%
X26415000Y-9850000D03*
%TO.P,U2,8,VCC*%
X25145000Y-9850000D03*
%TD*%
D18*
%TO.P,C1,1*%
%TO.N,/VDD_3.3V*%
X23400000Y-6800000D03*
%TO.P,C1,2*%
%TO.N,GND*%
X23400000Y-5840000D03*
%TD*%
D12*
%TO.P,J1,1,Pin_1*%
%TO.N,GND*%
X52780000Y2470000D03*
D13*
%TO.P,J1,2,Pin_2*%
%TO.N,/GPIO0*%
X50240000Y2470000D03*
%TO.P,J1,3,Pin_3*%
%TO.N,/GPIO1*%
X47700000Y2470000D03*
%TO.P,J1,4,Pin_4*%
%TO.N,/GPIO2*%
X45160000Y2470000D03*
%TO.P,J1,5,Pin_5*%
%TO.N,/CHIP_EN*%
X42620000Y2470000D03*
%TO.P,J1,6,Pin_6*%
%TO.N,/GPIO3*%
X40080000Y2470000D03*
%TO.P,J1,7,Pin_7*%
%TO.N,/GPIO4*%
X37540000Y2470000D03*
%TO.P,J1,8,Pin_8*%
%TO.N,/GPIO5*%
X35000000Y2470000D03*
%TO.P,J1,9,Pin_9*%
%TO.N,/GPIO6*%
X32460000Y2470000D03*
%TO.P,J1,10,Pin_10*%
%TO.N,/GPIO7*%
X29920000Y2470000D03*
%TO.P,J1,11,Pin_11*%
%TO.N,/GPIO8*%
X27380000Y2470000D03*
%TO.P,J1,12,Pin_12*%
%TO.N,/GPIO9{slash}BOOT*%
X24840000Y2470000D03*
%TO.P,J1,13,Pin_13*%
%TO.N,/GPIO10*%
X22300000Y2470000D03*
%TO.P,J1,14,Pin_14*%
%TO.N,/VDD_3.3V*%
X19760000Y2470000D03*
%TO.P,J1,15,Pin_15*%
%TO.N,GND*%
X17220000Y2470000D03*
%TD*%
D19*
%TO.N,/VDD_3.3V*%
X18200000Y-1229500D03*
D20*
X14930000Y-14910000D03*
D19*
X40220847Y-3089153D03*
X45165845Y-4595845D03*
X22180000Y-1200000D03*
D20*
X7150000Y-12230000D03*
D19*
X12770000Y-3290000D03*
X31519062Y-1210438D03*
X36750000Y-6600000D03*
X15880000Y-3290000D03*
X37900000Y-5410000D03*
X11460000Y-6005500D03*
X46540000Y-6340000D03*
D21*
X14930000Y-12990000D03*
D20*
%TO.N,GND*%
X50440000Y-4170000D03*
X21030000Y910000D03*
X49640000Y-5770000D03*
X52840000Y-6570000D03*
D19*
X15800000Y-12010000D03*
D20*
X51240000Y-170000D03*
X51240000Y-6570000D03*
X52840000Y-13770000D03*
X50440000Y-970000D03*
X53640000Y-8170000D03*
X48840000Y-4170000D03*
D19*
X46871089Y-12248911D03*
D20*
X53640000Y-12970000D03*
X53640000Y-4170000D03*
X53640000Y-4970000D03*
X22220000Y-6410000D03*
D19*
X43970000Y-6350000D03*
D20*
X53640000Y-170000D03*
X53640000Y-2570000D03*
X52040000Y-5770000D03*
X53640000Y-3370000D03*
D19*
X43010000Y-11450000D03*
D20*
X20190000Y-7310000D03*
X53640000Y-11370000D03*
X49640000Y-4970000D03*
X49640000Y-12170000D03*
X52840000Y680000D03*
X53640000Y-8970000D03*
X20010000Y-9100000D03*
X53640000Y-12170000D03*
X52840000Y-12970000D03*
D19*
X11580000Y490000D03*
D20*
X52040000Y-170000D03*
X45940000Y-7610000D03*
D19*
X8450000Y-11620000D03*
D20*
X53640000Y-13770000D03*
X52840000Y-3370000D03*
X53640000Y-970000D03*
X52840000Y-170000D03*
X53640000Y680000D03*
X52840000Y-5770000D03*
X15990000Y-9430000D03*
X52840000Y-4170000D03*
X48840000Y-970000D03*
X49640000Y-970000D03*
X17454647Y-2594647D03*
D19*
X42350000Y-7970000D03*
D20*
X51240000Y-970000D03*
X52040000Y-4170000D03*
X51240000Y-2570000D03*
X39100000Y-13520000D03*
D19*
X38440000Y-950000D03*
D20*
X46070000Y420000D03*
D19*
X30518500Y-4718500D03*
D20*
X52840000Y-2570000D03*
X33800000Y-950000D03*
X48840000Y-4970000D03*
X50440000Y-4970000D03*
X53640000Y-6570000D03*
X47170000Y-2660000D03*
X52840000Y-8970000D03*
X48840000Y-3360000D03*
X53640000Y-10570000D03*
X51240000Y-7370000D03*
X27970000Y900000D03*
X53640000Y-7370000D03*
D19*
X34500000Y-11450000D03*
D20*
X52040000Y-12970000D03*
X46076089Y-11453911D03*
X52040000Y-13770000D03*
X50440000Y-12170000D03*
X48440000Y405000D03*
X52840000Y-4970000D03*
X47680000Y-2110000D03*
X51240000Y-5770000D03*
X17460000Y-5590000D03*
D19*
X42360000Y-4740000D03*
D20*
X53640000Y-9770000D03*
D19*
X18570000Y-12010000D03*
D20*
X52040000Y-6570000D03*
X25330000Y910000D03*
X53640000Y-5770000D03*
X16160000Y490000D03*
X12570000Y-9010000D03*
X52040000Y-4970000D03*
X51240000Y-12970000D03*
X25190000Y-5840000D03*
X52040000Y-3370000D03*
X52840000Y-12170000D03*
X52040000Y-12170000D03*
X49640000Y-4170000D03*
X48260000Y-1520000D03*
X52840000Y-10570000D03*
X52040000Y-7370000D03*
X52040000Y680000D03*
X50440000Y-3360000D03*
D19*
X43515000Y80000D03*
D20*
X30120000Y-11450000D03*
X52840000Y-970000D03*
X52840000Y-7370000D03*
X52040000Y-2570000D03*
X52840000Y-11370000D03*
X52840000Y-9770000D03*
X51240000Y-3370000D03*
X23501916Y-2408452D03*
X50440000Y-5770000D03*
X25770000Y-12910000D03*
X31460000Y-10440000D03*
X51240000Y-4970000D03*
D19*
X37510000Y-8550000D03*
X11300000Y-10990000D03*
D20*
X49640000Y-3360000D03*
X52840000Y-8170000D03*
D19*
X40730000Y-6350000D03*
D20*
X51240000Y-4170000D03*
X48840000Y-12170000D03*
X52040000Y-970000D03*
X51240000Y-12170000D03*
D22*
%TO.N,/VDD_5V*%
X8660000Y-8740000D03*
X8660000Y-3890000D03*
D20*
%TO.N,/CHIP_EN*%
X40710000Y-1050000D03*
X40720000Y-2410000D03*
X37270000Y-4750000D03*
X31380000Y-7945000D03*
X34535000Y-4750000D03*
X42620000Y-1850000D03*
%TO.N,/GPIO0*%
X45876936Y-3106936D03*
%TO.N,/GPIO1*%
X45008738Y-3338738D03*
%TO.N,/GPIO2*%
X44089291Y-3551079D03*
%TO.N,/GPIO9{slash}BOOT*%
X31686800Y-4073200D03*
X32645000Y-3115000D03*
%TO.N,/DTR*%
X21030000Y-5570000D03*
X15130000Y-8810000D03*
%TO.N,/U0RXD*%
X10670000Y-1510000D03*
X44135185Y-9194815D03*
X8680000Y-1500000D03*
X10660000Y-130500D03*
X10670000Y-4510000D03*
%TO.N,/U0TXD*%
X10680000Y-5420000D03*
X44950000Y-9240000D03*
%TO.N,Net-(USB1-CC1)*%
X9410000Y-5110000D03*
X17430000Y-10050000D03*
X13870000Y-10940000D03*
X10270000Y-8770000D03*
%TO.N,/USB_Data-*%
X6070000Y-5600000D03*
X6070000Y-6600500D03*
%TO.N,Net-(VT2-B)*%
X19210000Y-5590000D03*
X21020000Y-1700000D03*
%TO.N,Net-(USB1-CC2)*%
X12550000Y-8090000D03*
X18210000Y-7330000D03*
%TD*%
D23*
%TO.N,/VDD_3.3V*%
X22180000Y-5570000D02*
X25145000Y-8535000D01*
X31519062Y-1210438D02*
X31508624Y-1200000D01*
X18200000Y-1229500D02*
X18199500Y-1230000D01*
X17940500Y-1229500D02*
X18200000Y-1229500D01*
X45110000Y-6350000D02*
X46530000Y-6350000D01*
X46530000Y-6350000D02*
X46540000Y-6340000D01*
X36760000Y-6600000D02*
X40280000Y-10120000D01*
X22180000Y-1200000D02*
X27740000Y-1200000D01*
X44670000Y-5910000D02*
X45110000Y-6350000D01*
X27740000Y-1200000D02*
X31508624Y-1200000D01*
X12170000Y-1230000D02*
X11460000Y-1940000D01*
X27740000Y-1200000D02*
X27685000Y-1255000D01*
X46540000Y-6340000D02*
X46540000Y-9230000D01*
X45630000Y-10120000D02*
X50180000Y-14670000D01*
X44830000Y-10120000D02*
X45630000Y-10120000D01*
X27685000Y-1255000D02*
X27685000Y-2790000D01*
X15880000Y-3290000D02*
X12770000Y-3290000D01*
X25145000Y-8535000D02*
X25145000Y-9850000D01*
X36750000Y-6600000D02*
X36760000Y-6600000D01*
X22180000Y-1200000D02*
X22180000Y-5570000D01*
X11460000Y-1940000D02*
X11460000Y-6005500D01*
X18199500Y-1230000D02*
X12170000Y-1230000D01*
X44670000Y-5091690D02*
X44670000Y-5910000D01*
X14930000Y-14910000D02*
X8330000Y-14910000D01*
X11460000Y-9520000D02*
X14930000Y-12990000D01*
X15880000Y-3290000D02*
X17940500Y-1229500D01*
X45650000Y-10120000D02*
X44830000Y-10120000D01*
X40280000Y-10120000D02*
X44830000Y-10120000D01*
X8330000Y-14910000D02*
X7150000Y-13730000D01*
X40220847Y-3089153D02*
X37900000Y-5410000D01*
X25145000Y-9850000D02*
X26415000Y-9850000D01*
X11460000Y-6005500D02*
X11460000Y-9520000D01*
X46540000Y-9230000D02*
X45650000Y-10120000D01*
X7150000Y-13730000D02*
X7150000Y-12230000D01*
X45165845Y-4595845D02*
X44670000Y-5091690D01*
D24*
%TO.N,GND*%
X18570000Y-12010000D02*
X15800000Y-12010000D01*
D25*
X42340000Y-4740000D02*
X40730000Y-6350000D01*
D23*
X43530000Y65000D02*
X43515000Y80000D01*
X44885000Y-11450000D02*
X44890000Y-11445000D01*
X46067178Y-11445000D02*
X46076089Y-11453911D01*
X43970000Y-4715000D02*
X44840000Y-3845000D01*
D25*
X45230000Y-7610000D02*
X43970000Y-6350000D01*
D23*
X46465000Y-3845000D02*
X52780000Y2470000D01*
D26*
X52840000Y300000D02*
X52780000Y360000D01*
X54530000Y300000D02*
X52840000Y300000D01*
D23*
X39470000Y80000D02*
X43515000Y80000D01*
X44840000Y-3845000D02*
X46465000Y-3845000D01*
X30518500Y-3488500D02*
X29820000Y-2790000D01*
X30518500Y-4718500D02*
X30518500Y-3488500D01*
X29820000Y-2790000D02*
X28955000Y-2790000D01*
X52780000Y360000D02*
X52780000Y-15090000D01*
X36950000Y-11450000D02*
X35140000Y-11450000D01*
D25*
X40730000Y-6350000D02*
X42350000Y-7970000D01*
D23*
X11580000Y490000D02*
X16160000Y490000D01*
D25*
X42350000Y-7970000D02*
X43970000Y-6350000D01*
X42360000Y-4740000D02*
X42340000Y-4740000D01*
D23*
X23660000Y-5840000D02*
X23650000Y-5850000D01*
X43530000Y-3570000D02*
X43530000Y65000D01*
X46076089Y-11453911D02*
X46871089Y-12248911D01*
D25*
X43970000Y-6350000D02*
X42360000Y-4740000D01*
D23*
X52780000Y2470000D02*
X52780000Y360000D01*
X38440000Y-950000D02*
X33800000Y-950000D01*
X25190000Y-5840000D02*
X23660000Y-5840000D01*
X44890000Y-11445000D02*
X46067178Y-11445000D01*
X35140000Y-11450000D02*
X44885000Y-11450000D01*
X34500000Y-11450000D02*
X35140000Y-11450000D01*
D25*
X45940000Y-7610000D02*
X45230000Y-7610000D01*
D23*
X43970000Y-6350000D02*
X43970000Y-4715000D01*
X42360000Y-4740000D02*
X43530000Y-3570000D01*
X36950000Y-9480000D02*
X36950000Y-11450000D01*
X39470000Y80000D02*
X38440000Y-950000D01*
D27*
%TO.N,/VDD_5V*%
X12310000Y-13990000D02*
X15750000Y-13990000D01*
X8660000Y-10340000D02*
X12310000Y-13990000D01*
X15750000Y-13990000D02*
X16510000Y-13230000D01*
X16510000Y-13230000D02*
X18360000Y-13230000D01*
X8660000Y-3890000D02*
X8660000Y-10340000D01*
X18360000Y-13230000D02*
X19760000Y-14630000D01*
D25*
%TO.N,/CHIP_EN*%
X34535000Y-4765000D02*
X34535000Y-4750000D01*
X39610000Y-2410000D02*
X40720000Y-2410000D01*
X41820000Y-1050000D02*
X40710000Y-1050000D01*
X31380000Y-7920000D02*
X34535000Y-4765000D01*
X37270000Y-4750000D02*
X39610000Y-2410000D01*
X42620000Y-1850000D02*
X41820000Y-1050000D01*
X31380000Y-7945000D02*
X31380000Y-7920000D01*
%TO.N,/GPIO0*%
X50240000Y1256128D02*
X50240000Y2470000D01*
X45876936Y-3106936D02*
X50240000Y1256128D01*
%TO.N,/GPIO1*%
X47700000Y-647477D02*
X47700000Y2470000D01*
X45008738Y-3338738D02*
X47700000Y-647477D01*
%TO.N,/GPIO2*%
X44089291Y-3551079D02*
X44089291Y1399291D01*
X44089291Y1399291D02*
X45160000Y2470000D01*
%TO.N,/GPIO9{slash}BOOT*%
X32645000Y-3115000D02*
X31686800Y-4073200D01*
%TO.N,/DTR*%
X17790000Y-8810000D02*
X21030000Y-5570000D01*
X15130000Y-8810000D02*
X17790000Y-8810000D01*
%TO.N,/U0RXD*%
X44135185Y-9194815D02*
X40834815Y-9194815D01*
X40834815Y-9194815D02*
X31780000Y-140000D01*
X8680000Y850000D02*
X7060000Y2470000D01*
X8680000Y-1500000D02*
X8680000Y850000D01*
X10670000Y-1510000D02*
X10670000Y-4510000D01*
X31780000Y-140000D02*
X10660000Y-140000D01*
%TO.N,/U0TXD*%
X9610000Y-4350000D02*
X9610000Y-580000D01*
X44950000Y-9240000D02*
X44540000Y-9650000D01*
X31665736Y-580000D02*
X9610000Y-580000D01*
X40735736Y-9650000D02*
X31665736Y-580000D01*
X9610000Y-580000D02*
X9610000Y2460000D01*
X44540000Y-9650000D02*
X40735736Y-9650000D01*
X10680000Y-5420000D02*
X9610000Y-4350000D01*
%TO.N,/SPIQ*%
X26415000Y-4285000D02*
X37070000Y-14940000D01*
X26415000Y-2790000D02*
X26415000Y-4285000D01*
%TO.N,/SPID*%
X35000000Y-15090000D02*
X29760000Y-9850000D01*
X29760000Y-9850000D02*
X28955000Y-9850000D01*
%TO.N,/SPICLK*%
X29420000Y-12050000D02*
X32460000Y-15090000D01*
X27685000Y-9850000D02*
X27685000Y-11315000D01*
X28420000Y-12050000D02*
X29420000Y-12050000D01*
X27685000Y-11315000D02*
X28420000Y-12050000D01*
%TO.N,/SPICS0*%
X25145000Y-2790000D02*
X25145000Y-4465000D01*
X27050000Y-12220000D02*
X29920000Y-15090000D01*
X25145000Y-4465000D02*
X27050000Y-6370000D01*
X27050000Y-6370000D02*
X27050000Y-12220000D01*
%TO.N,Net-(USB1-CC1)*%
X13870000Y-10940000D02*
X16540000Y-10940000D01*
X10270000Y-8770000D02*
X10270000Y-5970000D01*
X16540000Y-10940000D02*
X17430000Y-10050000D01*
X10270000Y-5970000D02*
X9410000Y-5110000D01*
%TO.N,/USB_Data-*%
X6070000Y-5600000D02*
X6070000Y-6600500D01*
%TO.N,Net-(VT2-B)*%
X20050000Y-4750000D02*
X20050000Y-2670000D01*
X20050000Y-2670000D02*
X21020000Y-1700000D01*
X19210000Y-5590000D02*
X20050000Y-4750000D01*
%TO.N,Net-(USB1-CC2)*%
X18210000Y-7330000D02*
X17450000Y-8090000D01*
X17450000Y-8090000D02*
X12550000Y-8090000D01*
%TD*%
%TA.AperFunction,Conductor*%
%TO.N,GND*%
G36*
X3445497Y3546236D02*
G01*
X3489922Y3509236D01*
X3513146Y3456290D01*
X3510279Y3398547D01*
X3481926Y3348165D01*
X3452670Y3316384D01*
X3444278Y3307268D01*
X3321139Y3118791D01*
X3230702Y2912612D01*
X3178665Y2707119D01*
X3175436Y2694368D01*
X3156844Y2470000D01*
X3175436Y2245632D01*
X3175436Y2245629D01*
X3175437Y2245628D01*
X3230702Y2027389D01*
X3230703Y2027386D01*
X3230704Y2027384D01*
X3234887Y2017848D01*
X3321139Y1821210D01*
X3426381Y1660125D01*
X3444278Y1632732D01*
X3587865Y1476756D01*
X3596762Y1467092D01*
X3774421Y1328813D01*
X3774424Y1328811D01*
X3972426Y1221658D01*
X4185365Y1148556D01*
X4407431Y1111500D01*
X4632566Y1111500D01*
X4632569Y1111500D01*
X4854635Y1148556D01*
X5067574Y1221658D01*
X5265576Y1328811D01*
X5443240Y1467094D01*
X5595722Y1632732D01*
X5684518Y1768646D01*
X5730031Y1810542D01*
X5790000Y1825728D01*
X5849969Y1810542D01*
X5895481Y1768646D01*
X5984278Y1632732D01*
X6127865Y1476756D01*
X6136762Y1467092D01*
X6314421Y1328813D01*
X6314424Y1328811D01*
X6395147Y1285126D01*
X6512427Y1221657D01*
X6571378Y1201420D01*
X6583041Y1196754D01*
X6599709Y1189100D01*
X6656784Y1171998D01*
X6661499Y1170482D01*
X6725365Y1148556D01*
X6739296Y1146232D01*
X6754711Y1142652D01*
X6958105Y1081701D01*
X7004574Y1070107D01*
X7006704Y1069680D01*
X7006714Y1069678D01*
X7053704Y1062503D01*
X7188649Y1048253D01*
X7343550Y1031894D01*
X7346142Y1031635D01*
X7348885Y1031359D01*
X7348945Y1031354D01*
X7349018Y1031346D01*
X7519416Y1015194D01*
X7550256Y1008288D01*
X7627134Y980567D01*
X7662587Y960839D01*
X7864530Y801018D01*
X7864833Y800820D01*
X7866867Y799169D01*
X7869027Y797459D01*
X7869005Y797432D01*
X7885031Y784420D01*
X8034595Y634856D01*
X8061909Y593979D01*
X8071500Y545761D01*
X8071500Y-941238D01*
X8070082Y-960088D01*
X8066672Y-982620D01*
X8066091Y-993105D01*
X8051704Y-1044962D01*
X8039933Y-1067250D01*
X8033462Y-1079927D01*
X8033204Y-1080450D01*
X8027630Y-1092121D01*
X7987991Y-1177893D01*
X7980406Y-1202505D01*
X7978925Y-1207010D01*
X7935838Y-1330149D01*
X7917602Y-1492002D01*
X7894950Y-1551095D01*
X7846426Y-1591721D01*
X7784271Y-1603632D01*
X7724165Y-1583822D01*
X7681272Y-1537290D01*
X7641176Y-1462276D01*
X7515212Y-1308787D01*
X7361723Y-1182823D01*
X7186609Y-1089223D01*
X6996603Y-1031584D01*
X6848521Y-1017000D01*
X6503000Y-1017000D01*
X6503000Y-1771000D01*
X7781516Y-1771000D01*
X7819996Y-1741022D01*
X7886935Y-1732943D01*
X7948455Y-1760535D01*
X7986941Y-1815896D01*
X7992290Y-1831182D01*
X8083229Y-1975910D01*
X8204089Y-2096770D01*
X8348816Y-2187709D01*
X8498676Y-2240147D01*
X8510150Y-2244162D01*
X8680000Y-2263299D01*
X8849850Y-2244162D01*
X8849852Y-2244161D01*
X8861393Y-2242861D01*
X8930170Y-2254547D01*
X8982187Y-2301033D01*
X9001500Y-2368069D01*
X9001500Y-2822071D01*
X8988046Y-2878722D01*
X8950558Y-2923275D01*
X8897041Y-2946216D01*
X8860506Y-2943971D01*
X8860249Y-2946584D01*
X8660000Y-2926861D01*
X8472100Y-2945367D01*
X8291424Y-3000176D01*
X8124908Y-3089179D01*
X7978958Y-3208958D01*
X7859179Y-3354908D01*
X7770176Y-3521424D01*
X7715367Y-3702100D01*
X7696861Y-3889999D01*
X7715367Y-4077899D01*
X7771723Y-4263679D01*
X7771887Y-4263611D01*
X7838798Y-4423524D01*
X7840247Y-4427144D01*
X7871386Y-4508551D01*
X7875810Y-4522495D01*
X7883612Y-4553166D01*
X7886829Y-4571251D01*
X7892928Y-4630176D01*
X7893575Y-4640758D01*
X7896373Y-4788256D01*
X7900654Y-4825000D01*
X7901500Y-4839579D01*
X7901500Y-8108259D01*
X7894135Y-8150707D01*
X7872899Y-8188192D01*
X7859181Y-8204907D01*
X7770176Y-8371424D01*
X7715367Y-8552100D01*
X7696861Y-8739999D01*
X7715367Y-8927899D01*
X7758520Y-9070150D01*
X7770177Y-9108577D01*
X7855643Y-9268474D01*
X7859181Y-9275092D01*
X7872899Y-9291808D01*
X7894135Y-9329293D01*
X7901500Y-9371741D01*
X7901500Y-10096287D01*
X7884205Y-10160000D01*
X7837066Y-10206221D01*
X7773026Y-10222263D01*
X7709665Y-10203720D01*
X7664378Y-10155683D01*
X7641176Y-10112276D01*
X7515212Y-9958787D01*
X7361723Y-9832823D01*
X7186609Y-9739223D01*
X6996603Y-9681584D01*
X6848521Y-9667000D01*
X6503000Y-9667000D01*
X6503000Y-11690556D01*
X6520061Y-11717708D01*
X6526340Y-11773430D01*
X6507819Y-11826359D01*
X6462290Y-11898816D01*
X6405838Y-12060147D01*
X6386701Y-12230000D01*
X6405838Y-12399850D01*
X6426499Y-12458896D01*
X6428377Y-12464714D01*
X6447571Y-12529493D01*
X6475181Y-12597526D01*
X6477657Y-12604155D01*
X6478882Y-12607739D01*
X6485371Y-12640051D01*
X6485544Y-12642628D01*
X6485823Y-12650030D01*
X6486421Y-12722622D01*
X6490794Y-12763756D01*
X6491500Y-12777075D01*
X6491500Y-13643389D01*
X6489128Y-13664874D01*
X6491438Y-13738369D01*
X6491500Y-13742327D01*
X6491500Y-13771436D01*
X6492055Y-13775832D01*
X6492986Y-13787656D01*
X6494437Y-13833831D01*
X6500421Y-13854427D01*
X6504429Y-13873782D01*
X6507117Y-13895061D01*
X6507117Y-13895063D01*
X6507118Y-13895064D01*
X6520909Y-13929898D01*
X6524124Y-13938017D01*
X6527967Y-13949244D01*
X6540854Y-13993600D01*
X6551770Y-14012058D01*
X6560467Y-14029810D01*
X6568364Y-14049756D01*
X6595514Y-14087123D01*
X6602030Y-14097042D01*
X6621300Y-14129626D01*
X6625549Y-14136810D01*
X6640710Y-14151971D01*
X6653550Y-14167004D01*
X6666157Y-14184355D01*
X6666158Y-14184356D01*
X6666159Y-14184357D01*
X6675501Y-14192085D01*
X6701751Y-14213801D01*
X6710531Y-14221791D01*
X7803125Y-15314385D01*
X7816642Y-15331256D01*
X7818583Y-15333079D01*
X7818584Y-15333080D01*
X7862362Y-15374190D01*
X7870256Y-15381603D01*
X7873067Y-15384327D01*
X7893667Y-15404927D01*
X7897170Y-15407644D01*
X7906197Y-15415354D01*
X7939867Y-15446972D01*
X7958666Y-15457307D01*
X7975185Y-15468159D01*
X7988404Y-15478413D01*
X7992132Y-15481304D01*
X8034534Y-15499653D01*
X8045182Y-15504870D01*
X8085659Y-15527122D01*
X8085663Y-15527124D01*
X8106432Y-15532456D01*
X8125134Y-15538859D01*
X8144824Y-15547380D01*
X8190448Y-15554605D01*
X8202067Y-15557011D01*
X8246812Y-15568500D01*
X8268259Y-15568500D01*
X8287967Y-15570050D01*
X8309152Y-15573406D01*
X8355140Y-15569058D01*
X8366996Y-15568500D01*
X14382934Y-15568500D01*
X14396252Y-15569206D01*
X14401575Y-15569771D01*
X14437382Y-15573578D01*
X14509992Y-15574174D01*
X14517323Y-15574450D01*
X14519949Y-15574626D01*
X14552266Y-15581115D01*
X14555859Y-15582344D01*
X14562444Y-15584804D01*
X14579837Y-15591862D01*
X14630495Y-15612423D01*
X14695297Y-15631624D01*
X14701057Y-15633484D01*
X14760150Y-15654162D01*
X14930000Y-15673299D01*
X15099850Y-15654162D01*
X15261183Y-15597709D01*
X15405909Y-15506771D01*
X15526771Y-15385909D01*
X15617709Y-15241183D01*
X15625998Y-15217492D01*
X15664748Y-15161911D01*
X15726686Y-15134436D01*
X15793899Y-15143015D01*
X15846950Y-15185168D01*
X15870497Y-15248703D01*
X15875931Y-15314284D01*
X15931179Y-15532454D01*
X16021580Y-15738548D01*
X16144675Y-15926959D01*
X16182606Y-15968162D01*
X16210960Y-16018547D01*
X16213827Y-16076291D01*
X16190603Y-16129236D01*
X16146178Y-16166236D01*
X16089905Y-16179500D01*
X3053539Y-16179500D01*
X3046474Y-16179302D01*
X2749219Y-16162608D01*
X2735178Y-16161026D01*
X2445155Y-16111749D01*
X2431380Y-16108605D01*
X2148696Y-16027165D01*
X2135359Y-16022498D01*
X1863574Y-15909921D01*
X1850843Y-15903790D01*
X1593369Y-15761489D01*
X1581405Y-15753972D01*
X1560009Y-15738791D01*
X1381907Y-15612421D01*
X1341488Y-15583742D01*
X1330441Y-15574932D01*
X1111086Y-15378904D01*
X1101095Y-15368913D01*
X905067Y-15149558D01*
X896257Y-15138511D01*
X867791Y-15098392D01*
X726023Y-14898588D01*
X718510Y-14886630D01*
X576209Y-14629156D01*
X570078Y-14616425D01*
X457501Y-14344640D01*
X452834Y-14331303D01*
X440230Y-14287552D01*
X417887Y-14209998D01*
X796750Y-14209998D01*
X803677Y-14284757D01*
X804071Y-14290385D01*
X807791Y-14368471D01*
X811522Y-14383850D01*
X814535Y-14401927D01*
X815705Y-14414557D01*
X824574Y-14445727D01*
X836198Y-14486583D01*
X837196Y-14490088D01*
X838454Y-14494864D01*
X857701Y-14574203D01*
X862828Y-14585429D01*
X869403Y-14603286D01*
X871924Y-14612149D01*
X908463Y-14685528D01*
X910285Y-14689348D01*
X945641Y-14766767D01*
X950787Y-14773993D01*
X960940Y-14790916D01*
X963495Y-14796048D01*
X984194Y-14823457D01*
X1014991Y-14864239D01*
X1017058Y-14867058D01*
X1068441Y-14939215D01*
X1072336Y-14942929D01*
X1085935Y-14958185D01*
X1087301Y-14959994D01*
X1152989Y-15019875D01*
X1155018Y-15021765D01*
X1221654Y-15085303D01*
X1221656Y-15085304D01*
X1223254Y-15086331D01*
X1238254Y-15097858D01*
X1317644Y-15147014D01*
X1319433Y-15148142D01*
X1399746Y-15199756D01*
X1399750Y-15199757D01*
X1400865Y-15200474D01*
X1409896Y-15205035D01*
X1503129Y-15241152D01*
X1504439Y-15241668D01*
X1596279Y-15278436D01*
X1596281Y-15278436D01*
X1599188Y-15279600D01*
X1605344Y-15280750D01*
X1605345Y-15280751D01*
X1636285Y-15286534D01*
X1702891Y-15298985D01*
X1703586Y-15299117D01*
X1804151Y-15318500D01*
X1807282Y-15318500D01*
X1962803Y-15318500D01*
X2012716Y-15318500D01*
X2012718Y-15318500D01*
X2059300Y-15309791D01*
X2070443Y-15308220D01*
X2120739Y-15303419D01*
X2162550Y-15291141D01*
X2174891Y-15288183D01*
X2214655Y-15280751D01*
X2262078Y-15262378D01*
X2272051Y-15258989D01*
X2323862Y-15243777D01*
X2359523Y-15225391D01*
X2371731Y-15219899D01*
X2406218Y-15206540D01*
X2452395Y-15177946D01*
X2460977Y-15173087D01*
X2512026Y-15146771D01*
X2540827Y-15124121D01*
X2552376Y-15116041D01*
X2580882Y-15098392D01*
X2623597Y-15059450D01*
X2630544Y-15053566D01*
X2678432Y-15015908D01*
X2685926Y-15007260D01*
X2700153Y-14990840D01*
X2710489Y-14980238D01*
X2732701Y-14959991D01*
X2769605Y-14911120D01*
X2774905Y-14904571D01*
X2817065Y-14855918D01*
X2831922Y-14830182D01*
X2840487Y-14817256D01*
X2856503Y-14796050D01*
X2885347Y-14738121D01*
X2888993Y-14731331D01*
X2922913Y-14672582D01*
X2931494Y-14647787D01*
X2937771Y-14632842D01*
X2939303Y-14629766D01*
X2948074Y-14612152D01*
X2966731Y-14546576D01*
X2968841Y-14539879D01*
X2992153Y-14472527D01*
X2995393Y-14449986D01*
X2998917Y-14433454D01*
X3004294Y-14414559D01*
X3010904Y-14343216D01*
X3011645Y-14336956D01*
X3022281Y-14262984D01*
X3021362Y-14243707D01*
X3021756Y-14226100D01*
X3023249Y-14210000D01*
X3016319Y-14135226D01*
X3015929Y-14129654D01*
X3012208Y-14051526D01*
X3009853Y-14041821D01*
X3008479Y-14036155D01*
X3005464Y-14018070D01*
X3004294Y-14005441D01*
X2999474Y-13988500D01*
X2982791Y-13929868D01*
X2981554Y-13925173D01*
X2962298Y-13845796D01*
X2957174Y-13834576D01*
X2950596Y-13816711D01*
X2948075Y-13807852D01*
X2948074Y-13807848D01*
X2911504Y-13734407D01*
X2909732Y-13730693D01*
X2874356Y-13653229D01*
X2874354Y-13653226D01*
X2869213Y-13646006D01*
X2859056Y-13629078D01*
X2858660Y-13628282D01*
X2856503Y-13623950D01*
X2853753Y-13620309D01*
X2834304Y-13594554D01*
X2805007Y-13555759D01*
X2802939Y-13552939D01*
X2802678Y-13552573D01*
X2765955Y-13501001D01*
X2751561Y-13480787D01*
X2751559Y-13480785D01*
X2747654Y-13477061D01*
X2734060Y-13461809D01*
X2732701Y-13460009D01*
X2666970Y-13400088D01*
X2664944Y-13398198D01*
X2598348Y-13334698D01*
X2596745Y-13333668D01*
X2581750Y-13322145D01*
X2502327Y-13272968D01*
X2500538Y-13271839D01*
X2419148Y-13219533D01*
X2410090Y-13214959D01*
X2316837Y-13178833D01*
X2315525Y-13178317D01*
X2223721Y-13141564D01*
X2223719Y-13141563D01*
X2220810Y-13140399D01*
X2117039Y-13121001D01*
X2116347Y-13120869D01*
X2015850Y-13101500D01*
X2015849Y-13101500D01*
X2012718Y-13101500D01*
X1807282Y-13101500D01*
X1807281Y-13101500D01*
X1760703Y-13110206D01*
X1749531Y-13111780D01*
X1699261Y-13116580D01*
X1657447Y-13128858D01*
X1645104Y-13131816D01*
X1605345Y-13139248D01*
X1557946Y-13157610D01*
X1547936Y-13161012D01*
X1496139Y-13176222D01*
X1464838Y-13192358D01*
X1460501Y-13194595D01*
X1460487Y-13194602D01*
X1448271Y-13200098D01*
X1413779Y-13213460D01*
X1367606Y-13242049D01*
X1359017Y-13246912D01*
X1307976Y-13273227D01*
X1279170Y-13295879D01*
X1267622Y-13303957D01*
X1239119Y-13321606D01*
X1196430Y-13360522D01*
X1189437Y-13366445D01*
X1141567Y-13404092D01*
X1119841Y-13429164D01*
X1109509Y-13439760D01*
X1087298Y-13460008D01*
X1050407Y-13508860D01*
X1045084Y-13515438D01*
X1002934Y-13564082D01*
X988076Y-13589817D01*
X979512Y-13602741D01*
X963497Y-13623950D01*
X934663Y-13681853D01*
X930995Y-13688684D01*
X897087Y-13747418D01*
X888504Y-13772213D01*
X882229Y-13787154D01*
X871925Y-13807848D01*
X853269Y-13873414D01*
X851150Y-13880140D01*
X827846Y-13947471D01*
X824606Y-13970007D01*
X821081Y-13986546D01*
X815705Y-14005442D01*
X809099Y-14076731D01*
X808355Y-14083034D01*
X797718Y-14157018D01*
X798636Y-14176283D01*
X798242Y-14193898D01*
X796750Y-14209998D01*
X417887Y-14209998D01*
X371392Y-14048611D01*
X368252Y-14034853D01*
X318972Y-13744819D01*
X317391Y-13730780D01*
X315520Y-13697470D01*
X300697Y-13433525D01*
X300500Y-13426461D01*
X300500Y-10929000D01*
X622693Y-10929000D01*
X663223Y-11062609D01*
X756823Y-11237723D01*
X882787Y-11391212D01*
X1036276Y-11517176D01*
X1211390Y-11610776D01*
X1401396Y-11668415D01*
X1549479Y-11683000D01*
X1795000Y-11683000D01*
X1795000Y-10929000D01*
X2303000Y-10929000D01*
X2303000Y-11683000D01*
X2548521Y-11683000D01*
X2696603Y-11668415D01*
X2886609Y-11610776D01*
X3061723Y-11517176D01*
X3215212Y-11391212D01*
X3341176Y-11237723D01*
X3434776Y-11062609D01*
X3475307Y-10929000D01*
X4722693Y-10929000D01*
X4763223Y-11062609D01*
X4856823Y-11237723D01*
X4982787Y-11391212D01*
X5136276Y-11517176D01*
X5311390Y-11610776D01*
X5501396Y-11668415D01*
X5649479Y-11683000D01*
X5995000Y-11683000D01*
X5995000Y-10929000D01*
X4722693Y-10929000D01*
X3475307Y-10929000D01*
X2303000Y-10929000D01*
X1795000Y-10929000D01*
X622693Y-10929000D01*
X300500Y-10929000D01*
X300500Y-10420999D01*
X622692Y-10420999D01*
X622693Y-10421000D01*
X1795000Y-10421000D01*
X1795000Y-9667000D01*
X2303000Y-9667000D01*
X2303000Y-10421000D01*
X3475307Y-10421000D01*
X3475307Y-10420999D01*
X4722692Y-10420999D01*
X4722693Y-10421000D01*
X5995000Y-10421000D01*
X5995000Y-9777230D01*
X6007213Y-9723115D01*
X6041483Y-9679491D01*
X6084582Y-9644427D01*
X6136665Y-9602054D01*
X6219971Y-9484037D01*
X6268346Y-9347921D01*
X6278204Y-9203801D01*
X6248814Y-9062366D01*
X6182354Y-8934105D01*
X6158737Y-8908817D01*
X6083755Y-8828530D01*
X5960330Y-8753475D01*
X5960329Y-8753474D01*
X5960328Y-8753474D01*
X5821228Y-8714500D01*
X5713051Y-8714500D01*
X5713048Y-8714500D01*
X5605890Y-8729228D01*
X5473389Y-8786782D01*
X5361336Y-8877944D01*
X5278029Y-8995963D01*
X5229654Y-9132079D01*
X5219872Y-9275095D01*
X5219796Y-9276199D01*
X5234700Y-9347920D01*
X5249186Y-9417635D01*
X5315645Y-9545895D01*
X5322749Y-9553501D01*
X5351277Y-9603056D01*
X5354965Y-9660116D01*
X5333056Y-9712930D01*
X5290060Y-9750624D01*
X5136274Y-9832824D01*
X4982787Y-9958787D01*
X4856823Y-10112276D01*
X4763223Y-10287390D01*
X4722692Y-10420999D01*
X3475307Y-10420999D01*
X3434776Y-10287390D01*
X3341176Y-10112276D01*
X3215212Y-9958787D01*
X3061723Y-9832823D01*
X2886609Y-9739223D01*
X2696603Y-9681584D01*
X2548521Y-9667000D01*
X2303000Y-9667000D01*
X1795000Y-9667000D01*
X1549479Y-9667000D01*
X1401396Y-9681584D01*
X1211390Y-9739223D01*
X1036276Y-9832823D01*
X882787Y-9958787D01*
X756823Y-10112276D01*
X663223Y-10287390D01*
X622692Y-10420999D01*
X300500Y-10420999D01*
X300500Y-6600500D01*
X5306701Y-6600500D01*
X5311410Y-6642291D01*
X5325838Y-6770352D01*
X5382290Y-6931683D01*
X5473229Y-7076410D01*
X5594089Y-7197270D01*
X5738816Y-7288209D01*
X5888624Y-7340629D01*
X5900150Y-7344662D01*
X6070000Y-7363799D01*
X6239850Y-7344662D01*
X6401183Y-7288209D01*
X6545909Y-7197271D01*
X6666771Y-7076409D01*
X6757709Y-6931683D01*
X6814162Y-6770350D01*
X6833299Y-6600500D01*
X6814162Y-6430650D01*
X6771070Y-6307502D01*
X6769589Y-6302999D01*
X6762004Y-6278385D01*
X6722374Y-6192637D01*
X6716369Y-6180092D01*
X6716096Y-6179541D01*
X6713056Y-6173600D01*
X6710062Y-6167747D01*
X6706246Y-6160521D01*
X6705490Y-6159090D01*
X6690906Y-6100243D01*
X6705494Y-6041398D01*
X6710046Y-6032779D01*
X6716086Y-6020975D01*
X6716361Y-6020420D01*
X6722370Y-6007868D01*
X6762001Y-5922120D01*
X6769595Y-5897474D01*
X6771045Y-5893069D01*
X6814162Y-5769850D01*
X6833299Y-5600000D01*
X6814162Y-5430150D01*
X6797133Y-5381485D01*
X6757709Y-5268816D01*
X6666770Y-5124089D01*
X6545910Y-5003229D01*
X6401183Y-4912290D01*
X6239852Y-4855838D01*
X6070000Y-4836701D01*
X5900147Y-4855838D01*
X5738816Y-4912290D01*
X5594089Y-5003229D01*
X5473229Y-5124089D01*
X5382290Y-5268816D01*
X5325838Y-5430147D01*
X5306701Y-5600000D01*
X5325838Y-5769852D01*
X5368918Y-5892967D01*
X5370401Y-5897475D01*
X5377990Y-5922103D01*
X5417620Y-6007853D01*
X5423965Y-6021088D01*
X5424211Y-6021583D01*
X5429948Y-6032773D01*
X5434512Y-6041417D01*
X5449090Y-6100250D01*
X5434511Y-6159082D01*
X5429937Y-6167742D01*
X5423462Y-6180427D01*
X5423204Y-6180950D01*
X5417630Y-6192621D01*
X5377991Y-6278393D01*
X5370406Y-6303005D01*
X5368925Y-6307510D01*
X5325838Y-6430649D01*
X5311698Y-6556144D01*
X5306701Y-6600500D01*
X300500Y-6600500D01*
X300500Y-2279000D01*
X622693Y-2279000D01*
X663223Y-2412609D01*
X756823Y-2587723D01*
X882787Y-2741212D01*
X1036276Y-2867176D01*
X1211390Y-2960776D01*
X1401396Y-3018415D01*
X1549479Y-3033000D01*
X1795000Y-3033000D01*
X1795000Y-2279000D01*
X2303000Y-2279000D01*
X2303000Y-3033000D01*
X2548521Y-3033000D01*
X2696603Y-3018415D01*
X2886609Y-2960776D01*
X3061723Y-2867176D01*
X3215212Y-2741212D01*
X3341176Y-2587723D01*
X3434776Y-2412609D01*
X3475307Y-2279000D01*
X4722693Y-2279000D01*
X4763223Y-2412609D01*
X4856823Y-2587723D01*
X4982787Y-2741212D01*
X5136276Y-2867176D01*
X5292148Y-2950491D01*
X5342405Y-2999546D01*
X5358596Y-3067884D01*
X5335691Y-3134274D01*
X5278029Y-3215963D01*
X5229654Y-3352079D01*
X5219796Y-3496197D01*
X5249186Y-3637635D01*
X5315645Y-3765894D01*
X5414244Y-3871469D01*
X5491231Y-3918285D01*
X5537672Y-3946526D01*
X5676772Y-3985500D01*
X5784949Y-3985500D01*
X5784952Y-3985500D01*
X5849246Y-3976662D01*
X5892111Y-3970771D01*
X6024609Y-3913219D01*
X6136665Y-3822054D01*
X6219971Y-3704037D01*
X6268346Y-3567921D01*
X6278204Y-3423801D01*
X6248814Y-3282366D01*
X6241695Y-3268628D01*
X6182354Y-3154105D01*
X6083756Y-3048531D01*
X6055532Y-3031368D01*
X6011171Y-2985465D01*
X5995000Y-2923711D01*
X5995000Y-2279000D01*
X6503000Y-2279000D01*
X6503000Y-3033000D01*
X6848521Y-3033000D01*
X6996603Y-3018415D01*
X7186609Y-2960776D01*
X7361723Y-2867176D01*
X7515212Y-2741212D01*
X7641176Y-2587723D01*
X7734776Y-2412609D01*
X7775307Y-2279000D01*
X6503000Y-2279000D01*
X5995000Y-2279000D01*
X4722693Y-2279000D01*
X3475307Y-2279000D01*
X2303000Y-2279000D01*
X1795000Y-2279000D01*
X622693Y-2279000D01*
X300500Y-2279000D01*
X300500Y-1770999D01*
X622692Y-1770999D01*
X622693Y-1771000D01*
X1795000Y-1771000D01*
X1795000Y-1017000D01*
X2303000Y-1017000D01*
X2303000Y-1771000D01*
X3475307Y-1771000D01*
X3475307Y-1770999D01*
X4722692Y-1770999D01*
X4722693Y-1771000D01*
X5995000Y-1771000D01*
X5995000Y-1017000D01*
X5649479Y-1017000D01*
X5501396Y-1031584D01*
X5311390Y-1089223D01*
X5136276Y-1182823D01*
X4982787Y-1308787D01*
X4856823Y-1462276D01*
X4763223Y-1637390D01*
X4722692Y-1770999D01*
X3475307Y-1770999D01*
X3434776Y-1637390D01*
X3341176Y-1462276D01*
X3215212Y-1308787D01*
X3061723Y-1182823D01*
X2886609Y-1089223D01*
X2696603Y-1031584D01*
X2548521Y-1017000D01*
X2303000Y-1017000D01*
X1795000Y-1017000D01*
X1549479Y-1017000D01*
X1401396Y-1031584D01*
X1211390Y-1089223D01*
X1036276Y-1182823D01*
X882787Y-1308787D01*
X756823Y-1462276D01*
X663223Y-1637390D01*
X622692Y-1770999D01*
X300500Y-1770999D01*
X300500Y806461D01*
X300698Y813526D01*
X317392Y1110786D01*
X318974Y1124827D01*
X319415Y1127420D01*
X368252Y1414858D01*
X371391Y1428608D01*
X417888Y1590002D01*
X796750Y1590002D01*
X803677Y1515243D01*
X804071Y1509615D01*
X807791Y1431529D01*
X811522Y1416150D01*
X814535Y1398073D01*
X815705Y1385443D01*
X825789Y1350001D01*
X834556Y1319188D01*
X837196Y1309912D01*
X838454Y1305136D01*
X857701Y1225797D01*
X862828Y1214571D01*
X869403Y1196714D01*
X871924Y1187851D01*
X908463Y1114472D01*
X910285Y1110652D01*
X945641Y1033233D01*
X950787Y1026007D01*
X960940Y1009084D01*
X963495Y1003952D01*
X981155Y980567D01*
X1014991Y935761D01*
X1017058Y932942D01*
X1068441Y860785D01*
X1072336Y857071D01*
X1085935Y841815D01*
X1087301Y840006D01*
X1152989Y780125D01*
X1155018Y778235D01*
X1221654Y714697D01*
X1221656Y714696D01*
X1223254Y713669D01*
X1238254Y702142D01*
X1317644Y652986D01*
X1319433Y651858D01*
X1399746Y600244D01*
X1399750Y600243D01*
X1400865Y599526D01*
X1409896Y594965D01*
X1503129Y558848D01*
X1504439Y558332D01*
X1596279Y521564D01*
X1596281Y521564D01*
X1599188Y520400D01*
X1605344Y519250D01*
X1605345Y519249D01*
X1636285Y513466D01*
X1702891Y501015D01*
X1703586Y500883D01*
X1804151Y481500D01*
X1807282Y481500D01*
X1962803Y481500D01*
X2012716Y481500D01*
X2012718Y481500D01*
X2059300Y490209D01*
X2070443Y491780D01*
X2120739Y496581D01*
X2162550Y508859D01*
X2174891Y511817D01*
X2214655Y519249D01*
X2262078Y537622D01*
X2272051Y541011D01*
X2323862Y556223D01*
X2359523Y574609D01*
X2371731Y580101D01*
X2406218Y593460D01*
X2452395Y622054D01*
X2460977Y626913D01*
X2512026Y653229D01*
X2540827Y675879D01*
X2552376Y683959D01*
X2580882Y701608D01*
X2623597Y740550D01*
X2630544Y746434D01*
X2678432Y784092D01*
X2692927Y800820D01*
X2700153Y809160D01*
X2710489Y819762D01*
X2732701Y840009D01*
X2769605Y888880D01*
X2774905Y895429D01*
X2817065Y944082D01*
X2831922Y969818D01*
X2840487Y982744D01*
X2856503Y1003950D01*
X2885347Y1061879D01*
X2888993Y1068669D01*
X2922913Y1127418D01*
X2931494Y1152213D01*
X2937771Y1167158D01*
X2948074Y1187848D01*
X2966731Y1253424D01*
X2968841Y1260121D01*
X2969698Y1262597D01*
X2992153Y1327473D01*
X2995393Y1350014D01*
X2998917Y1366546D01*
X3004294Y1385441D01*
X3010904Y1456784D01*
X3011645Y1463044D01*
X3022281Y1537016D01*
X3021362Y1556293D01*
X3021756Y1573900D01*
X3023249Y1590000D01*
X3016319Y1664774D01*
X3015929Y1670346D01*
X3012208Y1748474D01*
X3008479Y1763845D01*
X3005464Y1781930D01*
X3004294Y1794559D01*
X2993086Y1833950D01*
X2982791Y1870132D01*
X2981554Y1874827D01*
X2962298Y1954204D01*
X2957174Y1965424D01*
X2950596Y1983289D01*
X2948075Y1992148D01*
X2948074Y1992152D01*
X2911504Y2065593D01*
X2909732Y2069307D01*
X2874356Y2146771D01*
X2874354Y2146774D01*
X2869213Y2153994D01*
X2859056Y2170922D01*
X2856503Y2176050D01*
X2805007Y2244241D01*
X2802939Y2247061D01*
X2751561Y2319213D01*
X2751559Y2319215D01*
X2747654Y2322939D01*
X2734060Y2338191D01*
X2732701Y2339991D01*
X2666970Y2399912D01*
X2664944Y2401802D01*
X2598348Y2465302D01*
X2596745Y2466332D01*
X2581750Y2477855D01*
X2502327Y2527032D01*
X2500538Y2528161D01*
X2419148Y2580467D01*
X2410090Y2585041D01*
X2316837Y2621167D01*
X2315525Y2621683D01*
X2223721Y2658436D01*
X2223719Y2658437D01*
X2220810Y2659601D01*
X2117039Y2678999D01*
X2116347Y2679131D01*
X2015850Y2698500D01*
X2015849Y2698500D01*
X2012718Y2698500D01*
X1807282Y2698500D01*
X1807281Y2698500D01*
X1760703Y2689794D01*
X1749531Y2688220D01*
X1699261Y2683420D01*
X1657447Y2671142D01*
X1645104Y2668184D01*
X1605345Y2660752D01*
X1557946Y2642390D01*
X1547936Y2638988D01*
X1496139Y2623778D01*
X1460487Y2605398D01*
X1448271Y2599902D01*
X1413779Y2586540D01*
X1367606Y2557951D01*
X1359017Y2553088D01*
X1307976Y2526773D01*
X1279170Y2504121D01*
X1267622Y2496043D01*
X1239119Y2478394D01*
X1196430Y2439478D01*
X1189437Y2433555D01*
X1141567Y2395908D01*
X1119841Y2370836D01*
X1109509Y2360240D01*
X1087298Y2339992D01*
X1050407Y2291140D01*
X1045082Y2284560D01*
X1008880Y2242781D01*
X1000707Y2237153D01*
X998009Y2227389D01*
X988076Y2210185D01*
X979512Y2197259D01*
X963497Y2176050D01*
X934663Y2118147D01*
X930995Y2111316D01*
X897087Y2052582D01*
X888504Y2027787D01*
X882229Y2012846D01*
X871925Y1992152D01*
X853269Y1926586D01*
X851150Y1919860D01*
X827846Y1852529D01*
X824606Y1829993D01*
X821081Y1813454D01*
X815705Y1794558D01*
X809099Y1723269D01*
X808355Y1716966D01*
X797718Y1642982D01*
X798636Y1623717D01*
X798242Y1606102D01*
X796750Y1590002D01*
X417888Y1590002D01*
X452837Y1711313D01*
X457498Y1724633D01*
X570080Y1996431D01*
X576209Y2009157D01*
X578248Y2012846D01*
X718512Y2266636D01*
X726027Y2278594D01*
X786131Y2363304D01*
X803033Y2377531D01*
X810894Y2398204D01*
X896258Y2518512D01*
X905067Y2529559D01*
X921148Y2547553D01*
X1101095Y2748915D01*
X1111086Y2758905D01*
X1194519Y2833465D01*
X1330442Y2954935D01*
X1341478Y2963736D01*
X1581419Y3133982D01*
X1593364Y3141488D01*
X1850847Y3283794D01*
X1863569Y3289920D01*
X2135367Y3402502D01*
X2148687Y3407163D01*
X2431392Y3488609D01*
X2445142Y3491748D01*
X2735182Y3541028D01*
X2749214Y3542609D01*
X3046474Y3559303D01*
X3053539Y3559500D01*
X3094170Y3559500D01*
X3389224Y3559500D01*
X3445497Y3546236D01*
G37*
%TD.AperFunction*%
%TA.AperFunction,Conductor*%
G36*
X52971000Y2707119D02*
G01*
X53017119Y2661000D01*
X53034000Y2598000D01*
X53034000Y1112000D01*
X53678589Y1112000D01*
X53739093Y1118506D01*
X53875962Y1169555D01*
X53992904Y1257096D01*
X54053132Y1337550D01*
X54101658Y1376655D01*
X54162989Y1387720D01*
X54222121Y1368039D01*
X54264588Y1322426D01*
X54280000Y1262041D01*
X54280000Y-13882041D01*
X54264588Y-13942426D01*
X54222121Y-13988039D01*
X54162989Y-14007720D01*
X54101658Y-13996655D01*
X54053132Y-13957550D01*
X53992904Y-13877095D01*
X53875962Y-13789554D01*
X53739093Y-13738505D01*
X53678589Y-13732000D01*
X53034000Y-13732000D01*
X53034000Y-15218000D01*
X53017119Y-15281000D01*
X52971000Y-15327119D01*
X52908000Y-15344000D01*
X52652000Y-15344000D01*
X52589000Y-15327119D01*
X52542881Y-15281000D01*
X52526000Y-15218000D01*
X52526000Y-13732000D01*
X51881411Y-13732000D01*
X51820906Y-13738505D01*
X51684037Y-13789554D01*
X51567095Y-13877095D01*
X51479554Y-13994036D01*
X51435381Y-14112470D01*
X51398849Y-14164509D01*
X51341558Y-14192085D01*
X51278096Y-14188175D01*
X51224624Y-14153774D01*
X51163240Y-14087093D01*
X50985581Y-13948814D01*
X50985577Y-13948811D01*
X50985576Y-13948811D01*
X50886254Y-13895061D01*
X50787569Y-13841655D01*
X50766130Y-13834295D01*
X50746729Y-13825749D01*
X50743383Y-13823925D01*
X50737907Y-13820939D01*
X50567057Y-13755433D01*
X50426178Y-13701418D01*
X50415531Y-13697470D01*
X50303424Y-13657301D01*
X50205245Y-13622122D01*
X50195288Y-13618066D01*
X50076036Y-13563439D01*
X50056922Y-13552573D01*
X49939568Y-13471546D01*
X49925869Y-13460606D01*
X49715626Y-13267268D01*
X49693334Y-13250394D01*
X49680287Y-13239027D01*
X46660355Y-10219095D01*
X46627743Y-10162611D01*
X46627743Y-10097389D01*
X46660352Y-10040906D01*
X46944388Y-9756870D01*
X46961252Y-9743362D01*
X46963078Y-9741416D01*
X46963080Y-9741416D01*
X47011606Y-9689739D01*
X47014328Y-9686930D01*
X47034927Y-9666333D01*
X47037648Y-9662823D01*
X47045346Y-9653809D01*
X47076972Y-9620133D01*
X47087303Y-9601339D01*
X47098159Y-9584814D01*
X47111304Y-9567868D01*
X47129652Y-9525465D01*
X47134877Y-9514803D01*
X47144275Y-9497709D01*
X47157124Y-9474337D01*
X47162458Y-9453558D01*
X47168856Y-9434869D01*
X47177380Y-9415176D01*
X47184609Y-9369521D01*
X47187010Y-9357932D01*
X47197142Y-9318476D01*
X47198500Y-9313189D01*
X47198500Y-9291741D01*
X47200051Y-9272030D01*
X47200771Y-9267484D01*
X47203406Y-9250848D01*
X47199058Y-9204859D01*
X47198500Y-9193004D01*
X47198500Y-7097053D01*
X47199804Y-7078973D01*
X47203430Y-7053960D01*
X47203431Y-7053956D01*
X47207472Y-6971301D01*
X47216707Y-6929741D01*
X47219454Y-6923029D01*
X47223402Y-6914337D01*
X47260842Y-6839601D01*
X47265092Y-6830915D01*
X47265284Y-6830513D01*
X47269457Y-6821556D01*
X47325903Y-6697278D01*
X47325905Y-6697270D01*
X47326555Y-6695840D01*
X47327930Y-6693166D01*
X47344460Y-6642290D01*
X47384365Y-6519475D01*
X47403229Y-6340000D01*
X47384365Y-6160525D01*
X47328599Y-5988893D01*
X47290051Y-5922126D01*
X47238368Y-5832608D01*
X47163229Y-5749158D01*
X47117613Y-5698496D01*
X47101352Y-5686682D01*
X47039364Y-5641645D01*
X46971615Y-5592422D01*
X46806752Y-5519020D01*
X46630232Y-5481500D01*
X46449768Y-5481500D01*
X46273248Y-5519020D01*
X46273246Y-5519020D01*
X46273245Y-5519021D01*
X46223525Y-5541157D01*
X46209418Y-5546451D01*
X46179410Y-5555707D01*
X46055276Y-5613141D01*
X46041639Y-5619696D01*
X46041105Y-5619962D01*
X46029897Y-5625728D01*
X45952985Y-5666480D01*
X45945435Y-5670164D01*
X45941730Y-5671821D01*
X45897323Y-5682604D01*
X45872845Y-5683972D01*
X45824376Y-5686682D01*
X45824369Y-5686682D01*
X45824369Y-5686683D01*
X45802008Y-5690075D01*
X45783112Y-5691500D01*
X45454500Y-5691500D01*
X45391500Y-5674619D01*
X45345381Y-5628500D01*
X45328500Y-5565500D01*
X45328500Y-5544194D01*
X45338639Y-5494674D01*
X45367424Y-5453124D01*
X45410223Y-5426230D01*
X45468926Y-5404196D01*
X45468925Y-5404196D01*
X45468929Y-5404195D01*
X45503654Y-5385559D01*
X45511947Y-5381495D01*
X45597460Y-5343423D01*
X45743458Y-5237349D01*
X45864212Y-5103238D01*
X45954444Y-4946952D01*
X46010210Y-4775320D01*
X46029074Y-4595845D01*
X46010210Y-4416370D01*
X45954444Y-4244738D01*
X45939207Y-4218347D01*
X45864213Y-4088453D01*
X45852913Y-4075903D01*
X45850947Y-4073720D01*
X45820737Y-4012604D01*
X45826785Y-3944696D01*
X45867321Y-3889879D01*
X45930475Y-3864202D01*
X46046786Y-3851098D01*
X46208119Y-3794645D01*
X46352845Y-3703707D01*
X46473707Y-3582845D01*
X46564645Y-3438119D01*
X46576081Y-3405434D01*
X46583615Y-3388170D01*
X46594029Y-3368479D01*
X46626639Y-3279820D01*
X46631271Y-3266681D01*
X46631469Y-3266094D01*
X46635539Y-3253492D01*
X46642962Y-3229453D01*
X46669461Y-3182603D01*
X46676471Y-3174771D01*
X46689991Y-3156431D01*
X46702306Y-3142113D01*
X50312580Y468161D01*
X50321904Y476597D01*
X50350364Y499862D01*
X50436053Y591536D01*
X50438949Y594530D01*
X50636235Y791816D01*
X50648619Y802676D01*
X50648788Y802806D01*
X50673987Y822141D01*
X50687695Y840006D01*
X50698475Y854055D01*
X50698477Y854056D01*
X50765048Y940814D01*
X50771524Y949253D01*
X50802723Y1024576D01*
X50817260Y1050507D01*
X50871799Y1125422D01*
X50874975Y1129593D01*
X50998766Y1285144D01*
X51005293Y1292707D01*
X51019154Y1307535D01*
X51208457Y1510051D01*
X51218332Y1522891D01*
X51271128Y1562947D01*
X51336950Y1570671D01*
X51397587Y1543924D01*
X51436263Y1490106D01*
X51479554Y1374037D01*
X51567095Y1257096D01*
X51684037Y1169555D01*
X51820906Y1118506D01*
X51881411Y1112000D01*
X52526000Y1112000D01*
X52526000Y2598000D01*
X52542881Y2661000D01*
X52589000Y2707119D01*
X52652000Y2724000D01*
X52908000Y2724000D01*
X52971000Y2707119D01*
G37*
%TD.AperFunction*%
%TA.AperFunction,Conductor*%
G36*
X35319233Y-5111692D02*
G01*
X35366713Y-5141526D01*
X36093190Y-5868003D01*
X36125214Y-5922367D01*
X36126866Y-5985441D01*
X36097732Y-6041408D01*
X36051631Y-6092608D01*
X35961400Y-6248893D01*
X35905636Y-6420521D01*
X35905635Y-6420525D01*
X35886771Y-6600000D01*
X35905635Y-6779475D01*
X35905636Y-6779478D01*
X35961400Y-6951106D01*
X36051631Y-7107391D01*
X36132559Y-7197271D01*
X36172387Y-7241504D01*
X36318385Y-7347578D01*
X36406828Y-7386955D01*
X36414650Y-7390768D01*
X36449386Y-7409207D01*
X36577555Y-7456587D01*
X36589196Y-7460732D01*
X36589219Y-7460740D01*
X36589225Y-7460742D01*
X36589771Y-7460929D01*
X36602040Y-7464959D01*
X36684164Y-7490796D01*
X36692385Y-7493700D01*
X36697040Y-7495528D01*
X36735160Y-7519052D01*
X36791613Y-7569736D01*
X36810428Y-7583651D01*
X36824600Y-7595860D01*
X39753125Y-10524385D01*
X39766642Y-10541256D01*
X39820256Y-10591603D01*
X39823067Y-10594327D01*
X39843667Y-10614927D01*
X39847170Y-10617644D01*
X39856197Y-10625354D01*
X39889867Y-10656972D01*
X39908666Y-10667307D01*
X39925186Y-10678159D01*
X39942132Y-10691304D01*
X39984534Y-10709653D01*
X39995182Y-10714870D01*
X40035659Y-10737122D01*
X40035663Y-10737124D01*
X40056432Y-10742456D01*
X40075134Y-10748859D01*
X40094824Y-10757380D01*
X40140448Y-10764605D01*
X40152067Y-10767011D01*
X40196812Y-10778500D01*
X40218259Y-10778500D01*
X40237967Y-10780050D01*
X40259152Y-10783406D01*
X40305140Y-10779058D01*
X40316996Y-10778500D01*
X44746812Y-10778500D01*
X44871432Y-10778500D01*
X45305050Y-10778500D01*
X45353268Y-10788091D01*
X45394145Y-10815405D01*
X48131806Y-13553066D01*
X48163766Y-13607208D01*
X48165585Y-13670053D01*
X48136811Y-13725954D01*
X48084607Y-13760992D01*
X48021972Y-13766443D01*
X47812569Y-13731500D01*
X47587431Y-13731500D01*
X47365365Y-13768556D01*
X47365362Y-13768556D01*
X47365362Y-13768557D01*
X47152426Y-13841657D01*
X46954421Y-13948812D01*
X46776762Y-14087091D01*
X46624278Y-14252731D01*
X46535483Y-14388643D01*
X46489969Y-14430541D01*
X46430000Y-14445727D01*
X46370031Y-14430541D01*
X46324517Y-14388643D01*
X46291497Y-14338102D01*
X46235722Y-14252732D01*
X46083240Y-14087094D01*
X46083239Y-14087093D01*
X46083237Y-14087091D01*
X45905578Y-13948812D01*
X45707573Y-13841657D01*
X45534457Y-13782227D01*
X45494635Y-13768556D01*
X45272569Y-13731500D01*
X45047431Y-13731500D01*
X44825365Y-13768556D01*
X44825362Y-13768556D01*
X44825362Y-13768557D01*
X44612426Y-13841657D01*
X44414421Y-13948812D01*
X44236762Y-14087091D01*
X44084278Y-14252731D01*
X43995483Y-14388643D01*
X43949969Y-14430541D01*
X43890000Y-14445727D01*
X43830031Y-14430541D01*
X43784517Y-14388643D01*
X43751497Y-14338102D01*
X43695722Y-14252732D01*
X43543240Y-14087094D01*
X43543239Y-14087093D01*
X43543237Y-14087091D01*
X43365578Y-13948812D01*
X43167573Y-13841657D01*
X42994457Y-13782227D01*
X42954635Y-13768556D01*
X42732569Y-13731500D01*
X42507431Y-13731500D01*
X42285365Y-13768556D01*
X42285362Y-13768556D01*
X42285362Y-13768557D01*
X42072426Y-13841657D01*
X41874421Y-13948812D01*
X41696762Y-14087091D01*
X41544278Y-14252731D01*
X41455483Y-14388643D01*
X41409969Y-14430541D01*
X41350000Y-14445727D01*
X41290031Y-14430541D01*
X41244517Y-14388643D01*
X41211497Y-14338102D01*
X41155722Y-14252732D01*
X41003240Y-14087094D01*
X41003239Y-14087093D01*
X41003237Y-14087091D01*
X40825578Y-13948812D01*
X40627573Y-13841657D01*
X40454457Y-13782227D01*
X40414635Y-13768556D01*
X40192569Y-13731500D01*
X39967431Y-13731500D01*
X39745365Y-13768556D01*
X39745362Y-13768556D01*
X39745362Y-13768557D01*
X39532426Y-13841657D01*
X39334421Y-13948812D01*
X39156762Y-14087091D01*
X39004278Y-14252731D01*
X38915483Y-14388643D01*
X38869969Y-14430541D01*
X38810000Y-14445727D01*
X38750031Y-14430541D01*
X38704517Y-14388643D01*
X38671497Y-14338102D01*
X38615722Y-14252732D01*
X38463240Y-14087094D01*
X38463239Y-14087093D01*
X38463237Y-14087091D01*
X38285578Y-13948812D01*
X38087573Y-13841657D01*
X37914457Y-13782227D01*
X37874635Y-13768556D01*
X37652569Y-13731500D01*
X37652566Y-13731500D01*
X37546517Y-13731500D01*
X37536764Y-13731122D01*
X37497733Y-13728091D01*
X37442964Y-13731286D01*
X37435628Y-13731500D01*
X37427291Y-13731500D01*
X37414317Y-13732956D01*
X37177036Y-13746793D01*
X37177011Y-13746794D01*
X37177008Y-13746795D01*
X37161868Y-13747903D01*
X37161514Y-13747934D01*
X37161207Y-13747961D01*
X37147315Y-13749376D01*
X36932720Y-13774211D01*
X36916380Y-13775032D01*
X36853414Y-13774105D01*
X36811113Y-13766128D01*
X36801850Y-13762662D01*
X36766522Y-13742419D01*
X36618562Y-13622124D01*
X36612572Y-13617254D01*
X36608288Y-13614380D01*
X36589390Y-13598841D01*
X31768908Y-8778359D01*
X31739074Y-8730879D01*
X31732795Y-8675156D01*
X31751316Y-8622228D01*
X31790967Y-8582577D01*
X31816521Y-8566520D01*
X31855909Y-8541771D01*
X31976771Y-8420909D01*
X32067709Y-8276183D01*
X32081577Y-8236548D01*
X32088209Y-8221021D01*
X32089378Y-8218724D01*
X32099942Y-8197962D01*
X32131151Y-8108388D01*
X32138467Y-8085710D01*
X32138771Y-8084687D01*
X32144830Y-8062488D01*
X32150572Y-8039424D01*
X32170236Y-7996735D01*
X32180091Y-7982909D01*
X32193593Y-7966954D01*
X34580858Y-5579689D01*
X34594309Y-5568019D01*
X34615329Y-5552244D01*
X34630645Y-5538282D01*
X34674749Y-5512181D01*
X34698033Y-5504217D01*
X34705671Y-5501537D01*
X34706024Y-5501410D01*
X34713896Y-5498504D01*
X34801132Y-5465499D01*
X34818839Y-5455942D01*
X34837055Y-5447900D01*
X34866183Y-5437709D01*
X35010909Y-5346771D01*
X35131771Y-5225909D01*
X35170933Y-5163582D01*
X35210581Y-5123934D01*
X35263510Y-5105413D01*
X35319233Y-5111692D01*
G37*
%TD.AperFunction*%
%TA.AperFunction,Conductor*%
G36*
X21764805Y-6086065D02*
G01*
X22544595Y-6865855D01*
X22571909Y-6906732D01*
X22581500Y-6954950D01*
X22581500Y-7005484D01*
X22583066Y-7025381D01*
X22584394Y-7042256D01*
X22629430Y-7197270D01*
X22630106Y-7199597D01*
X22699919Y-7317645D01*
X22713514Y-7340632D01*
X22829367Y-7456485D01*
X22829369Y-7456486D01*
X22829371Y-7456488D01*
X22970403Y-7539894D01*
X23127746Y-7585606D01*
X23164516Y-7588500D01*
X23215050Y-7588500D01*
X23263268Y-7598091D01*
X23304145Y-7625405D01*
X24330888Y-8652148D01*
X24363550Y-8708820D01*
X24363398Y-8774231D01*
X24357209Y-8797046D01*
X24354534Y-8805670D01*
X24337067Y-8855589D01*
X24334548Y-8877946D01*
X24321500Y-8993752D01*
X24321500Y-10706248D01*
X24326333Y-10749140D01*
X24337067Y-10844408D01*
X24398356Y-11019563D01*
X24497088Y-11176694D01*
X24628305Y-11307911D01*
X24785436Y-11406643D01*
X24921418Y-11454225D01*
X24960594Y-11467933D01*
X25145000Y-11488711D01*
X25329406Y-11467933D01*
X25504564Y-11406643D01*
X25661693Y-11307912D01*
X25690905Y-11278699D01*
X25747388Y-11246088D01*
X25812612Y-11246088D01*
X25869094Y-11278699D01*
X25891635Y-11301240D01*
X25898308Y-11307913D01*
X26055436Y-11406643D01*
X26191418Y-11454225D01*
X26230594Y-11467933D01*
X26329609Y-11479089D01*
X26386479Y-11500191D01*
X26426899Y-11545421D01*
X26441500Y-11604297D01*
X26441500Y-12171864D01*
X26440422Y-12188307D01*
X26436250Y-12220000D01*
X26437566Y-12230000D01*
X26440422Y-12251690D01*
X26440422Y-12251697D01*
X26454269Y-12356875D01*
X26454269Y-12356876D01*
X26457161Y-12378849D01*
X26518476Y-12526878D01*
X26591521Y-12622072D01*
X26591524Y-12622074D01*
X26616010Y-12653984D01*
X26616011Y-12653985D01*
X26616013Y-12653987D01*
X26641379Y-12673451D01*
X26653769Y-12684318D01*
X27485856Y-13516405D01*
X27516594Y-13566564D01*
X27521210Y-13625211D01*
X27498697Y-13679561D01*
X27453964Y-13717767D01*
X27396761Y-13731500D01*
X27267431Y-13731500D01*
X27045365Y-13768556D01*
X27045362Y-13768556D01*
X27045362Y-13768557D01*
X26832426Y-13841657D01*
X26634421Y-13948812D01*
X26456762Y-14087091D01*
X26304278Y-14252731D01*
X26215483Y-14388643D01*
X26169969Y-14430541D01*
X26110000Y-14445727D01*
X26050031Y-14430541D01*
X26004517Y-14388643D01*
X25971497Y-14338102D01*
X25915722Y-14252732D01*
X25763240Y-14087094D01*
X25763239Y-14087093D01*
X25763237Y-14087091D01*
X25585578Y-13948812D01*
X25387573Y-13841657D01*
X25214457Y-13782227D01*
X25174635Y-13768556D01*
X24952569Y-13731500D01*
X24727431Y-13731500D01*
X24505365Y-13768556D01*
X24505362Y-13768556D01*
X24505362Y-13768557D01*
X24292426Y-13841657D01*
X24094421Y-13948812D01*
X23916762Y-14087091D01*
X23764278Y-14252731D01*
X23675483Y-14388643D01*
X23629969Y-14430541D01*
X23570000Y-14445727D01*
X23510031Y-14430541D01*
X23464517Y-14388643D01*
X23431497Y-14338102D01*
X23375722Y-14252732D01*
X23223240Y-14087094D01*
X23223239Y-14087093D01*
X23223237Y-14087091D01*
X23045578Y-13948812D01*
X22847573Y-13841657D01*
X22674457Y-13782227D01*
X22634635Y-13768556D01*
X22412569Y-13731500D01*
X22187431Y-13731500D01*
X21965365Y-13768556D01*
X21965362Y-13768556D01*
X21965362Y-13768557D01*
X21752426Y-13841657D01*
X21554421Y-13948812D01*
X21376762Y-14087091D01*
X21224278Y-14252731D01*
X21135483Y-14388643D01*
X21089969Y-14430541D01*
X21030000Y-14445727D01*
X20970031Y-14430541D01*
X20924517Y-14388643D01*
X20891497Y-14338102D01*
X20835722Y-14252732D01*
X20683240Y-14087094D01*
X20668871Y-14075910D01*
X20663596Y-14071569D01*
X20403896Y-13845796D01*
X20389359Y-13833158D01*
X20356423Y-13806820D01*
X20355650Y-13806252D01*
X20354881Y-13805687D01*
X20320032Y-13782223D01*
X20070751Y-13628820D01*
X20051586Y-13617591D01*
X20051584Y-13617590D01*
X20051574Y-13617584D01*
X20050691Y-13617092D01*
X20050689Y-13617091D01*
X20050673Y-13617082D01*
X20031161Y-13606754D01*
X19825359Y-13503442D01*
X19815859Y-13498147D01*
X19696937Y-13424964D01*
X19633627Y-13386004D01*
X19616997Y-13373785D01*
X19355579Y-13146519D01*
X19341458Y-13136399D01*
X19325761Y-13123080D01*
X18941909Y-12739228D01*
X18929937Y-12725375D01*
X18915470Y-12705943D01*
X18902911Y-12695405D01*
X18877127Y-12673769D01*
X18869032Y-12666351D01*
X18865101Y-12662420D01*
X18854186Y-12653789D01*
X18840528Y-12642989D01*
X18837690Y-12640677D01*
X18778622Y-12591113D01*
X18762110Y-12580594D01*
X18692205Y-12547996D01*
X18688909Y-12546401D01*
X18683622Y-12543746D01*
X18650031Y-12526876D01*
X18619996Y-12511792D01*
X18601504Y-12505365D01*
X18525942Y-12489762D01*
X18522367Y-12488969D01*
X18447356Y-12471191D01*
X18427885Y-12469202D01*
X18350741Y-12471447D01*
X18347077Y-12471500D01*
X16574441Y-12471500D01*
X16556180Y-12470170D01*
X16532211Y-12466659D01*
X16482353Y-12471021D01*
X16471372Y-12471500D01*
X16465815Y-12471500D01*
X16434708Y-12475135D01*
X16431067Y-12475507D01*
X16354251Y-12482228D01*
X16335139Y-12486465D01*
X16262653Y-12512846D01*
X16259198Y-12514047D01*
X16185995Y-12538305D01*
X16168372Y-12546837D01*
X16103932Y-12589220D01*
X16100842Y-12591189D01*
X16076705Y-12606077D01*
X16011627Y-12624831D01*
X15946240Y-12607184D01*
X15899437Y-12558233D01*
X15846340Y-12458896D01*
X15814369Y-12399082D01*
X15682094Y-12237905D01*
X15520916Y-12105630D01*
X15337029Y-12007339D01*
X15315622Y-12000846D01*
X15296211Y-11993150D01*
X15292052Y-11991087D01*
X15075250Y-11918296D01*
X15046548Y-11909584D01*
X15045235Y-11909227D01*
X15029504Y-11905433D01*
X15016473Y-11902290D01*
X15000001Y-11898816D01*
X14851504Y-11867497D01*
X14847854Y-11866669D01*
X14824780Y-11861080D01*
X14777793Y-11849698D01*
X14751580Y-11840172D01*
X14735157Y-11832045D01*
X14709704Y-11815347D01*
X14688151Y-11797129D01*
X14656917Y-11770729D01*
X14621296Y-11721364D01*
X14612975Y-11661059D01*
X14633899Y-11603892D01*
X14679183Y-11563206D01*
X14738256Y-11548500D01*
X16491864Y-11548500D01*
X16508307Y-11549577D01*
X16540000Y-11553750D01*
X16571693Y-11549577D01*
X16571703Y-11549577D01*
X16579884Y-11548500D01*
X16579885Y-11548500D01*
X16679456Y-11535391D01*
X16698851Y-11532838D01*
X16846876Y-11471524D01*
X16942072Y-11398477D01*
X16942072Y-11398476D01*
X16958629Y-11385772D01*
X16958632Y-11385769D01*
X16959546Y-11385067D01*
X16973987Y-11373987D01*
X16993457Y-11348611D01*
X17004309Y-11336238D01*
X17465177Y-10875370D01*
X17479495Y-10863055D01*
X17497835Y-10849535D01*
X17505667Y-10842525D01*
X17552517Y-10816026D01*
X17576556Y-10808603D01*
X17589158Y-10804533D01*
X17589745Y-10804335D01*
X17602884Y-10799703D01*
X17691543Y-10767093D01*
X17711234Y-10756679D01*
X17728498Y-10749145D01*
X17761183Y-10737709D01*
X17905909Y-10646771D01*
X18026771Y-10525909D01*
X18117709Y-10381183D01*
X18174162Y-10219850D01*
X18193299Y-10050000D01*
X18174162Y-9880150D01*
X18173075Y-9877044D01*
X18117709Y-9718816D01*
X18026770Y-9574089D01*
X18016196Y-9563515D01*
X17984716Y-9510996D01*
X17981712Y-9449838D01*
X18007892Y-9394486D01*
X18057073Y-9358011D01*
X18081432Y-9347921D01*
X18096876Y-9341524D01*
X18192072Y-9268477D01*
X18192072Y-9268476D01*
X18208629Y-9255772D01*
X18208632Y-9255769D01*
X18215045Y-9250848D01*
X18223987Y-9243987D01*
X18243457Y-9218611D01*
X18254309Y-9206238D01*
X21065176Y-6395370D01*
X21079489Y-6383059D01*
X21097835Y-6369535D01*
X21105671Y-6362522D01*
X21152516Y-6336027D01*
X21164304Y-6332386D01*
X21176556Y-6328603D01*
X21189158Y-6324533D01*
X21189745Y-6324335D01*
X21202884Y-6319703D01*
X21291543Y-6287093D01*
X21311234Y-6276679D01*
X21328498Y-6269145D01*
X21361183Y-6257709D01*
X21505909Y-6166771D01*
X21586616Y-6086063D01*
X21643098Y-6053453D01*
X21708321Y-6053453D01*
X21764805Y-6086065D01*
G37*
%TD.AperFunction*%
%TA.AperFunction,Conductor*%
G36*
X7985796Y-10720941D02*
G01*
X8030432Y-10764142D01*
X8057864Y-10808615D01*
X8061672Y-10814789D01*
X8074038Y-10829967D01*
X8074998Y-10830873D01*
X8074999Y-10830874D01*
X8101066Y-10855467D01*
X8130155Y-10882911D01*
X8132784Y-10885465D01*
X11283724Y-14036405D01*
X11314462Y-14086564D01*
X11319078Y-14145211D01*
X11296565Y-14199561D01*
X11251832Y-14237767D01*
X11194629Y-14251500D01*
X8654950Y-14251500D01*
X8606732Y-14241909D01*
X8565855Y-14214595D01*
X7845405Y-13494145D01*
X7818091Y-13453268D01*
X7808500Y-13405050D01*
X7808500Y-12777066D01*
X7809206Y-12763748D01*
X7811812Y-12739228D01*
X7813578Y-12722618D01*
X7814174Y-12650014D01*
X7814454Y-12642628D01*
X7814627Y-12640031D01*
X7821110Y-12607749D01*
X7821681Y-12606077D01*
X7822338Y-12604155D01*
X7824797Y-12597568D01*
X7852422Y-12529506D01*
X7871621Y-12464714D01*
X7873484Y-12458942D01*
X7894162Y-12399850D01*
X7913299Y-12230000D01*
X7894162Y-12060150D01*
X7873411Y-12000846D01*
X7837709Y-11898816D01*
X7746770Y-11754089D01*
X7625911Y-11633230D01*
X7596161Y-11614537D01*
X7542910Y-11581076D01*
X7496171Y-11528529D01*
X7484877Y-11459113D01*
X7512548Y-11394457D01*
X7641176Y-11237723D01*
X7734776Y-11062609D01*
X7792415Y-10872603D01*
X7797799Y-10817939D01*
X7818939Y-10759526D01*
X7865419Y-10718314D01*
X7925942Y-10704318D01*
X7985796Y-10720941D01*
G37*
%TD.AperFunction*%
%TA.AperFunction,Conductor*%
G36*
X29884450Y-10857232D02*
G01*
X29938664Y-10889213D01*
X32511523Y-13462072D01*
X32543054Y-13514761D01*
X32545937Y-13576096D01*
X32519489Y-13631511D01*
X32469990Y-13667845D01*
X32409196Y-13676470D01*
X32176316Y-13651877D01*
X32170994Y-13651343D01*
X32000582Y-13635190D01*
X31969732Y-13628282D01*
X31892862Y-13600564D01*
X31857409Y-13580836D01*
X31655468Y-13421016D01*
X31655161Y-13420816D01*
X31653095Y-13419138D01*
X31650973Y-13417459D01*
X31650994Y-13417432D01*
X31634968Y-13404419D01*
X29884315Y-11653766D01*
X29873448Y-11641375D01*
X29853986Y-11616011D01*
X29822074Y-11591524D01*
X29822074Y-11591525D01*
X29822072Y-11591523D01*
X29726876Y-11518476D01*
X29726875Y-11518475D01*
X29571761Y-11454225D01*
X29522580Y-11417749D01*
X29496400Y-11362397D01*
X29499405Y-11301240D01*
X29530882Y-11248722D01*
X29602912Y-11176693D01*
X29701643Y-11019564D01*
X29730641Y-10936690D01*
X29765609Y-10884357D01*
X29821531Y-10855467D01*
X29884450Y-10857232D01*
G37*
%TD.AperFunction*%
%TA.AperFunction,Conductor*%
G36*
X29958373Y-8688922D02*
G01*
X34695191Y-13425740D01*
X34726644Y-13478171D01*
X34729711Y-13539235D01*
X34703671Y-13594554D01*
X34654655Y-13631102D01*
X34594206Y-13640273D01*
X34540582Y-13635190D01*
X34509732Y-13628282D01*
X34432862Y-13600564D01*
X34397409Y-13580836D01*
X34195468Y-13421016D01*
X34195161Y-13420816D01*
X34193095Y-13419138D01*
X34190973Y-13417459D01*
X34190994Y-13417432D01*
X34174968Y-13404419D01*
X30224315Y-9453766D01*
X30213448Y-9441375D01*
X30193986Y-9416011D01*
X30162074Y-9391524D01*
X30162074Y-9391525D01*
X30162072Y-9391523D01*
X30066876Y-9318476D01*
X30066875Y-9318475D01*
X29962135Y-9275091D01*
X29918851Y-9257162D01*
X29918850Y-9257161D01*
X29918848Y-9257161D01*
X29899469Y-9254608D01*
X29899456Y-9254608D01*
X29888052Y-9253106D01*
X29832229Y-9231398D01*
X29792737Y-9186365D01*
X29778500Y-9128185D01*
X29778500Y-8993755D01*
X29777982Y-8989157D01*
X29762933Y-8855594D01*
X29750348Y-8819630D01*
X29745839Y-8752744D01*
X29776275Y-8693009D01*
X29833040Y-8657341D01*
X29900065Y-8655836D01*
X29958373Y-8688922D01*
G37*
%TD.AperFunction*%
%TA.AperFunction,Conductor*%
G36*
X9615532Y-9207238D02*
G01*
X9665103Y-9237784D01*
X9794089Y-9366770D01*
X9938816Y-9457709D01*
X10065396Y-9502001D01*
X10100150Y-9514162D01*
X10270000Y-9533299D01*
X10439850Y-9514162D01*
X10601183Y-9457709D01*
X10608462Y-9453134D01*
X10671965Y-9433871D01*
X10736448Y-9449542D01*
X10784025Y-9495803D01*
X10799817Y-9553659D01*
X10800507Y-9553572D01*
X10801120Y-9558430D01*
X10801500Y-9559821D01*
X10801500Y-9561436D01*
X10802055Y-9565832D01*
X10802986Y-9577656D01*
X10804437Y-9623831D01*
X10810421Y-9644427D01*
X10814429Y-9663782D01*
X10817117Y-9685061D01*
X10817117Y-9685063D01*
X10817118Y-9685064D01*
X10833533Y-9726526D01*
X10834124Y-9728017D01*
X10837967Y-9739244D01*
X10850854Y-9783600D01*
X10861770Y-9802058D01*
X10870467Y-9819810D01*
X10878364Y-9839756D01*
X10905514Y-9877123D01*
X10912033Y-9887046D01*
X10935549Y-9926810D01*
X10950710Y-9941971D01*
X10963550Y-9957004D01*
X10976157Y-9974355D01*
X11011751Y-10003801D01*
X11020531Y-10011791D01*
X13639641Y-12630901D01*
X13653910Y-12647941D01*
X13660888Y-12657951D01*
X13729587Y-12739228D01*
X13755347Y-12769704D01*
X13772045Y-12795157D01*
X13780171Y-12811577D01*
X13789698Y-12837793D01*
X13806667Y-12907841D01*
X13807497Y-12911504D01*
X13842663Y-13078241D01*
X13842195Y-13078339D01*
X13842769Y-13132418D01*
X13818664Y-13183460D01*
X13774692Y-13218856D01*
X13719678Y-13231500D01*
X12676371Y-13231500D01*
X12628153Y-13221909D01*
X12587276Y-13194595D01*
X9455405Y-10062724D01*
X9428091Y-10021847D01*
X9418500Y-9973629D01*
X9418500Y-9371741D01*
X9425865Y-9329293D01*
X9447101Y-9291808D01*
X9451942Y-9285909D01*
X9460820Y-9275091D01*
X9464887Y-9267481D01*
X9503455Y-9223864D01*
X9557519Y-9202243D01*
X9615532Y-9207238D01*
G37*
%TD.AperFunction*%
%TA.AperFunction,Conductor*%
G36*
X14300414Y-8713102D02*
G01*
X14345644Y-8753522D01*
X14366744Y-8810390D01*
X14377835Y-8908817D01*
X14385838Y-8979852D01*
X14442290Y-9141183D01*
X14533229Y-9285910D01*
X14654089Y-9406770D01*
X14798816Y-9497709D01*
X14960147Y-9554161D01*
X14960150Y-9554162D01*
X15130000Y-9573299D01*
X15299850Y-9554162D01*
X15423069Y-9511045D01*
X15427474Y-9509595D01*
X15452120Y-9502001D01*
X15537868Y-9462370D01*
X15550420Y-9456361D01*
X15550975Y-9456086D01*
X15562779Y-9450046D01*
X15585030Y-9438294D01*
X15636896Y-9423906D01*
X15647380Y-9423325D01*
X15657610Y-9421777D01*
X15669915Y-9419917D01*
X15688756Y-9418500D01*
X16703013Y-9418500D01*
X16767031Y-9435975D01*
X16813291Y-9483551D01*
X16828963Y-9548034D01*
X16809700Y-9611536D01*
X16742291Y-9718815D01*
X16730863Y-9751475D01*
X16723319Y-9768759D01*
X16712912Y-9788438D01*
X16680318Y-9877044D01*
X16679222Y-9880150D01*
X16676790Y-9887046D01*
X16675740Y-9890021D01*
X16675584Y-9890482D01*
X16671396Y-9903436D01*
X16663969Y-9927486D01*
X16637477Y-9974325D01*
X16630459Y-9982167D01*
X16616936Y-10000510D01*
X16604616Y-10014833D01*
X16324856Y-10294595D01*
X16283978Y-10321909D01*
X16235760Y-10331500D01*
X14428767Y-10331500D01*
X14409922Y-10330083D01*
X14387384Y-10326673D01*
X14376888Y-10326091D01*
X14325038Y-10311705D01*
X14302763Y-10299943D01*
X14291583Y-10294211D01*
X14291088Y-10293965D01*
X14277853Y-10287620D01*
X14192103Y-10247990D01*
X14167475Y-10240401D01*
X14162967Y-10238918D01*
X14039852Y-10195838D01*
X13870000Y-10176701D01*
X13700147Y-10195838D01*
X13538816Y-10252290D01*
X13394089Y-10343229D01*
X13393380Y-10343939D01*
X13388216Y-10346919D01*
X13382070Y-10350782D01*
X13381925Y-10350551D01*
X13336896Y-10376547D01*
X13271676Y-10376545D01*
X13215194Y-10343934D01*
X12155405Y-9284145D01*
X12128091Y-9243268D01*
X12118500Y-9195050D01*
X12118500Y-8920187D01*
X12132556Y-8862355D01*
X12171587Y-8817426D01*
X12226886Y-8795424D01*
X12286115Y-8801258D01*
X12380147Y-8834161D01*
X12380150Y-8834162D01*
X12550000Y-8853299D01*
X12719850Y-8834162D01*
X12843069Y-8791045D01*
X12847474Y-8789595D01*
X12872120Y-8782001D01*
X12957868Y-8742370D01*
X12970420Y-8736361D01*
X12970975Y-8736086D01*
X12982779Y-8730046D01*
X13005030Y-8718294D01*
X13056896Y-8703906D01*
X13067380Y-8703325D01*
X13077610Y-8701777D01*
X13089915Y-8699917D01*
X13108756Y-8698500D01*
X14241538Y-8698500D01*
X14300414Y-8713102D01*
G37*
%TD.AperFunction*%
%TA.AperFunction,Conductor*%
G36*
X41563979Y-1668091D02*
G01*
X41604856Y-1695405D01*
X41794616Y-1885165D01*
X41806940Y-1899492D01*
X41820458Y-1917829D01*
X41820460Y-1917831D01*
X41827472Y-1925666D01*
X41853969Y-1972513D01*
X41861376Y-1996501D01*
X41865312Y-2008706D01*
X41865486Y-2009224D01*
X41870310Y-2022934D01*
X41902908Y-2111552D01*
X41913321Y-2131243D01*
X41920864Y-2148527D01*
X41932291Y-2181184D01*
X42023229Y-2325910D01*
X42144089Y-2446770D01*
X42288816Y-2537709D01*
X42421826Y-2584251D01*
X42450150Y-2594162D01*
X42620000Y-2613299D01*
X42789850Y-2594162D01*
X42951183Y-2537709D01*
X43095909Y-2446771D01*
X43216771Y-2325909D01*
X43248104Y-2276042D01*
X43295084Y-2232125D01*
X43357619Y-2217112D01*
X43419417Y-2234916D01*
X43464378Y-2280898D01*
X43480791Y-2343080D01*
X43480791Y-2992317D01*
X43479373Y-3011167D01*
X43475963Y-3033699D01*
X43475382Y-3044184D01*
X43460995Y-3096041D01*
X43449224Y-3118329D01*
X43442753Y-3131006D01*
X43442495Y-3131529D01*
X43436921Y-3143200D01*
X43397282Y-3228972D01*
X43389697Y-3253584D01*
X43388216Y-3258089D01*
X43345129Y-3381228D01*
X43325992Y-3551079D01*
X43345129Y-3720931D01*
X43401581Y-3882262D01*
X43492520Y-4026989D01*
X43613380Y-4147849D01*
X43758107Y-4238788D01*
X43912336Y-4292755D01*
X43919441Y-4295241D01*
X44089291Y-4314378D01*
X44158505Y-4306579D01*
X44220373Y-4315191D01*
X44270504Y-4352462D01*
X44296574Y-4409230D01*
X44292172Y-4471543D01*
X44276488Y-4518711D01*
X44273127Y-4527670D01*
X44270327Y-4534349D01*
X44247468Y-4570269D01*
X44191886Y-4631569D01*
X44169472Y-4661582D01*
X44160371Y-4672437D01*
X44133025Y-4701558D01*
X44122689Y-4720358D01*
X44111843Y-4736869D01*
X44098696Y-4753819D01*
X44080350Y-4796214D01*
X44075130Y-4806869D01*
X44052876Y-4847350D01*
X44047542Y-4868125D01*
X44041139Y-4886825D01*
X44032620Y-4906510D01*
X44025393Y-4952142D01*
X44022986Y-4963763D01*
X44011500Y-5008501D01*
X44011500Y-5029949D01*
X44009949Y-5049657D01*
X44006594Y-5070842D01*
X44010455Y-5111692D01*
X44010941Y-5116828D01*
X44011500Y-5128686D01*
X44011500Y-5707289D01*
X43997767Y-5764492D01*
X43959561Y-5809225D01*
X43905211Y-5831738D01*
X43846564Y-5827122D01*
X43796405Y-5796384D01*
X43709978Y-5709957D01*
X43554756Y-5612425D01*
X43381724Y-5551878D01*
X43272551Y-5539577D01*
X43219622Y-5521056D01*
X43179971Y-5481404D01*
X43161452Y-5428480D01*
X43149152Y-5319306D01*
X43088605Y-5146274D01*
X42991074Y-4991054D01*
X42991073Y-4991053D01*
X42991072Y-4991051D01*
X42861450Y-4861429D01*
X42706228Y-4763897D01*
X42533196Y-4703350D01*
X42351030Y-4682825D01*
X42168863Y-4703350D01*
X41995831Y-4763897D01*
X41840609Y-4861429D01*
X41710987Y-4991051D01*
X41613455Y-5146273D01*
X41552908Y-5319305D01*
X41540607Y-5428477D01*
X41522086Y-5481405D01*
X41482435Y-5521056D01*
X41429507Y-5539577D01*
X41320335Y-5551878D01*
X41147303Y-5612425D01*
X40992081Y-5709957D01*
X40862459Y-5839579D01*
X40764927Y-5994801D01*
X40704380Y-6167833D01*
X40683855Y-6350000D01*
X40704380Y-6532166D01*
X40764927Y-6705198D01*
X40862459Y-6860420D01*
X40992081Y-6990042D01*
X40992083Y-6990043D01*
X40992084Y-6990044D01*
X41147304Y-7087575D01*
X41320336Y-7148122D01*
X41429510Y-7160422D01*
X41482434Y-7178941D01*
X41522086Y-7218592D01*
X41540607Y-7271521D01*
X41552908Y-7380694D01*
X41613455Y-7553726D01*
X41710987Y-7708948D01*
X41840609Y-7838570D01*
X41840611Y-7838571D01*
X41840612Y-7838572D01*
X41995832Y-7936103D01*
X42168864Y-7996650D01*
X42351030Y-8017175D01*
X42533196Y-7996650D01*
X42706228Y-7936103D01*
X42861448Y-7838572D01*
X42991074Y-7708946D01*
X43088605Y-7553726D01*
X43149152Y-7380694D01*
X43161453Y-7271516D01*
X43179972Y-7218593D01*
X43219623Y-7178942D01*
X43272546Y-7160423D01*
X43381724Y-7148122D01*
X43554756Y-7087575D01*
X43709976Y-6990044D01*
X43839602Y-6860418D01*
X43937133Y-6705198D01*
X43997680Y-6532166D01*
X44004970Y-6467461D01*
X44029842Y-6405356D01*
X44083004Y-6364736D01*
X44149467Y-6357057D01*
X44210490Y-6384485D01*
X44215553Y-6388674D01*
X44221750Y-6393800D01*
X44230531Y-6401791D01*
X44583125Y-6754385D01*
X44596642Y-6771256D01*
X44598583Y-6773079D01*
X44598584Y-6773080D01*
X44650206Y-6821556D01*
X44650256Y-6821603D01*
X44653067Y-6824327D01*
X44673667Y-6844927D01*
X44677170Y-6847644D01*
X44686197Y-6855354D01*
X44719867Y-6886972D01*
X44738666Y-6897307D01*
X44755185Y-6908159D01*
X44763134Y-6914325D01*
X44772132Y-6921304D01*
X44814534Y-6939653D01*
X44825182Y-6944870D01*
X44865659Y-6967122D01*
X44865663Y-6967124D01*
X44886432Y-6972456D01*
X44905134Y-6978859D01*
X44924824Y-6987380D01*
X44970448Y-6994605D01*
X44982067Y-6997011D01*
X45026812Y-7008500D01*
X45048259Y-7008500D01*
X45067967Y-7010050D01*
X45089152Y-7013406D01*
X45135140Y-7009058D01*
X45146996Y-7008500D01*
X45755500Y-7008500D01*
X45818500Y-7025381D01*
X45864619Y-7071500D01*
X45881500Y-7134500D01*
X45881500Y-8863949D01*
X45862187Y-8930985D01*
X45810170Y-8977471D01*
X45741393Y-8989157D01*
X45676941Y-8962460D01*
X45646745Y-8919904D01*
X45645262Y-8920837D01*
X45546770Y-8764089D01*
X45425910Y-8643229D01*
X45281183Y-8552290D01*
X45119852Y-8495838D01*
X44950000Y-8476701D01*
X44780149Y-8495838D01*
X44624358Y-8550351D01*
X44568636Y-8556629D01*
X44515709Y-8538109D01*
X44466366Y-8507105D01*
X44305037Y-8450653D01*
X44191801Y-8437895D01*
X44135185Y-8431516D01*
X44135184Y-8431516D01*
X43965334Y-8450653D01*
X43842195Y-8493740D01*
X43837690Y-8495221D01*
X43813078Y-8502806D01*
X43727306Y-8542445D01*
X43715635Y-8548019D01*
X43715086Y-8548290D01*
X43702459Y-8554736D01*
X43680145Y-8566520D01*
X43628297Y-8580906D01*
X43617801Y-8581488D01*
X43595264Y-8584898D01*
X43576419Y-8586315D01*
X41139054Y-8586315D01*
X41090836Y-8576724D01*
X41049959Y-8549410D01*
X38597430Y-6096881D01*
X38565406Y-6042515D01*
X38563755Y-5979439D01*
X38592890Y-5923475D01*
X38598367Y-5917393D01*
X38688599Y-5761107D01*
X38694356Y-5743385D01*
X38703165Y-5722744D01*
X38708350Y-5713084D01*
X38756319Y-5585282D01*
X38759878Y-5575499D01*
X38760026Y-5575079D01*
X38762988Y-5566427D01*
X38789352Y-5487128D01*
X38792713Y-5478175D01*
X38795514Y-5471494D01*
X38818375Y-5435572D01*
X38822353Y-5431185D01*
X38873958Y-5374274D01*
X38889092Y-5354006D01*
X38900940Y-5340318D01*
X40151162Y-4090095D01*
X40164859Y-4078241D01*
X40185121Y-4063111D01*
X40246419Y-4007527D01*
X40282341Y-3984667D01*
X40289028Y-3981863D01*
X40297975Y-3978505D01*
X40377274Y-3952141D01*
X40385926Y-3949179D01*
X40386346Y-3949031D01*
X40396129Y-3945472D01*
X40523931Y-3897503D01*
X40558656Y-3878867D01*
X40566949Y-3874803D01*
X40652462Y-3836731D01*
X40798460Y-3730657D01*
X40919214Y-3596546D01*
X41009446Y-3440260D01*
X41065212Y-3268628D01*
X41079036Y-3137103D01*
X41097408Y-3083641D01*
X41137307Y-3043592D01*
X41195909Y-3006771D01*
X41316771Y-2885909D01*
X41407709Y-2741183D01*
X41464162Y-2579850D01*
X41483299Y-2410000D01*
X41464162Y-2240150D01*
X41416380Y-2103596D01*
X41407709Y-2078816D01*
X41316770Y-1934089D01*
X41256276Y-1873595D01*
X41225538Y-1823436D01*
X41220922Y-1764789D01*
X41243435Y-1710439D01*
X41288168Y-1672233D01*
X41345371Y-1658500D01*
X41515761Y-1658500D01*
X41563979Y-1668091D01*
G37*
%TD.AperFunction*%
%TA.AperFunction,Conductor*%
G36*
X24258500Y-1875381D02*
G01*
X24304619Y-1921500D01*
X24321500Y-1984500D01*
X24321500Y-3646248D01*
X24328883Y-3711771D01*
X24337067Y-3784406D01*
X24355141Y-3836059D01*
X24360236Y-3855453D01*
X24361651Y-3863351D01*
X24392578Y-3943254D01*
X24394003Y-3947121D01*
X24398357Y-3959564D01*
X24400311Y-3962674D01*
X24406227Y-3973170D01*
X24424698Y-4009958D01*
X24427870Y-4016778D01*
X24452632Y-4074460D01*
X24454829Y-4079926D01*
X24483569Y-4156573D01*
X24485143Y-4161023D01*
X24516489Y-4255211D01*
X24517648Y-4258879D01*
X24531212Y-4304213D01*
X24536500Y-4340330D01*
X24536500Y-4416864D01*
X24535422Y-4433310D01*
X24531250Y-4464999D01*
X24535422Y-4496690D01*
X24535422Y-4496697D01*
X24547953Y-4591876D01*
X24547953Y-4591878D01*
X24552161Y-4623850D01*
X24613476Y-4771878D01*
X24686521Y-4867072D01*
X24686524Y-4867074D01*
X24711010Y-4898984D01*
X24711011Y-4898985D01*
X24711013Y-4898987D01*
X24723867Y-4908850D01*
X24736379Y-4918451D01*
X24748769Y-4929318D01*
X26404595Y-6585144D01*
X26431909Y-6626021D01*
X26441500Y-6674239D01*
X26441500Y-8095703D01*
X26426899Y-8154579D01*
X26386479Y-8199809D01*
X26329609Y-8220910D01*
X26274090Y-8227166D01*
X26230591Y-8232067D01*
X26055437Y-8293356D01*
X25947480Y-8361190D01*
X25892864Y-8379888D01*
X25835641Y-8372267D01*
X25787823Y-8339925D01*
X25759448Y-8289654D01*
X25754145Y-8271400D01*
X25754144Y-8271399D01*
X25754144Y-8271397D01*
X25743231Y-8252946D01*
X25734529Y-8235184D01*
X25733295Y-8232067D01*
X25726635Y-8215244D01*
X25714079Y-8197962D01*
X25699477Y-8177864D01*
X25692965Y-8167951D01*
X25669452Y-8128193D01*
X25654285Y-8113026D01*
X25641449Y-8097997D01*
X25639782Y-8095703D01*
X25628841Y-8080643D01*
X25606939Y-8062524D01*
X25593240Y-8051191D01*
X25584461Y-8043202D01*
X24255405Y-6714146D01*
X24228091Y-6673269D01*
X24218500Y-6625051D01*
X24218500Y-6594521D01*
X24218247Y-6591303D01*
X24215606Y-6557746D01*
X24169894Y-6400403D01*
X24159983Y-6383645D01*
X24142438Y-6319506D01*
X24159986Y-6255366D01*
X24169431Y-6239395D01*
X24211673Y-6094000D01*
X23921379Y-6094000D01*
X23857241Y-6076454D01*
X23829598Y-6060106D01*
X23672256Y-6014394D01*
X23661748Y-6013567D01*
X23635484Y-6011500D01*
X23635479Y-6011500D01*
X23604950Y-6011500D01*
X23556732Y-6001909D01*
X23515855Y-5974595D01*
X23182905Y-5641645D01*
X23155591Y-5600768D01*
X23146000Y-5552550D01*
X23146000Y-5053461D01*
X23654000Y-5053461D01*
X23654000Y-5586000D01*
X24211673Y-5586000D01*
X24169431Y-5440604D01*
X24086087Y-5299676D01*
X23970323Y-5183912D01*
X23829396Y-5100569D01*
X23672174Y-5054891D01*
X23654000Y-5053461D01*
X23146000Y-5053461D01*
X23127823Y-5054891D01*
X22999653Y-5092129D01*
X22941863Y-5095082D01*
X22888847Y-5071892D01*
X22851787Y-5027451D01*
X22838500Y-4971132D01*
X22838500Y-1984500D01*
X22855381Y-1921500D01*
X22901500Y-1875381D01*
X22964500Y-1858500D01*
X24195500Y-1858500D01*
X24258500Y-1875381D01*
G37*
%TD.AperFunction*%
%TA.AperFunction,Conductor*%
G36*
X30781114Y-1859929D02*
G01*
X30803368Y-1863311D01*
X30875898Y-1867386D01*
X30920435Y-1878243D01*
X30924003Y-1879845D01*
X30931498Y-1883513D01*
X30988814Y-1913956D01*
X31008566Y-1924447D01*
X31021082Y-1930877D01*
X31021654Y-1931161D01*
X31034240Y-1937198D01*
X31158319Y-1994654D01*
X31188406Y-2003946D01*
X31202449Y-2009219D01*
X31252310Y-2031418D01*
X31428830Y-2068938D01*
X31609292Y-2068938D01*
X31609294Y-2068938D01*
X31785814Y-2031418D01*
X31950677Y-1958016D01*
X31998296Y-1923418D01*
X32052641Y-1900907D01*
X32111288Y-1905523D01*
X32161448Y-1936261D01*
X32422898Y-2197711D01*
X32454879Y-2251924D01*
X32456644Y-2314843D01*
X32427754Y-2370765D01*
X32375419Y-2405735D01*
X32313815Y-2427291D01*
X32169089Y-2518229D01*
X32048229Y-2639089D01*
X31957291Y-2783815D01*
X31945863Y-2816475D01*
X31938319Y-2833759D01*
X31927912Y-2853438D01*
X31895318Y-2942044D01*
X31890740Y-2955021D01*
X31890584Y-2955482D01*
X31886396Y-2968435D01*
X31886396Y-2968436D01*
X31879131Y-2991963D01*
X31878969Y-2992486D01*
X31852477Y-3039325D01*
X31845459Y-3047167D01*
X31831934Y-3065513D01*
X31819613Y-3079836D01*
X31651636Y-3247813D01*
X31637313Y-3260134D01*
X31618967Y-3273659D01*
X31611125Y-3280677D01*
X31564287Y-3307168D01*
X31540279Y-3314582D01*
X31528038Y-3318530D01*
X31527686Y-3318648D01*
X31527495Y-3318713D01*
X31527481Y-3318717D01*
X31527463Y-3318724D01*
X31513908Y-3323495D01*
X31425233Y-3356114D01*
X31405556Y-3366520D01*
X31388272Y-3374063D01*
X31355618Y-3385489D01*
X31210889Y-3476429D01*
X31090029Y-3597289D01*
X30999090Y-3742016D01*
X30942638Y-3903347D01*
X30926018Y-4050863D01*
X30923501Y-4073200D01*
X30925220Y-4088453D01*
X30942638Y-4243052D01*
X30999090Y-4404383D01*
X31090029Y-4549110D01*
X31210889Y-4669970D01*
X31355616Y-4760909D01*
X31486963Y-4806869D01*
X31516950Y-4817362D01*
X31686800Y-4836499D01*
X31856650Y-4817362D01*
X32017983Y-4760909D01*
X32162709Y-4669971D01*
X32283571Y-4549109D01*
X32374509Y-4404383D01*
X32385945Y-4371698D01*
X32393479Y-4354434D01*
X32403893Y-4334743D01*
X32436503Y-4246084D01*
X32441135Y-4232945D01*
X32441333Y-4232358D01*
X32445403Y-4219756D01*
X32452826Y-4195717D01*
X32479325Y-4148867D01*
X32486335Y-4141035D01*
X32499855Y-4122695D01*
X32512170Y-4108377D01*
X32680177Y-3940370D01*
X32694495Y-3928055D01*
X32712835Y-3914535D01*
X32720667Y-3907525D01*
X32767517Y-3881026D01*
X32791556Y-3873603D01*
X32804158Y-3869533D01*
X32804745Y-3869335D01*
X32817884Y-3864703D01*
X32906543Y-3832093D01*
X32926234Y-3821679D01*
X32943498Y-3814145D01*
X32976183Y-3802709D01*
X33120909Y-3711771D01*
X33241771Y-3590909D01*
X33332709Y-3446183D01*
X33354265Y-3384578D01*
X33389233Y-3332246D01*
X33445155Y-3303355D01*
X33508074Y-3305120D01*
X33562288Y-3337101D01*
X34143472Y-3918285D01*
X34173306Y-3965764D01*
X34179585Y-4021486D01*
X34161065Y-4074414D01*
X34121415Y-4114066D01*
X34059089Y-4153229D01*
X33938231Y-4274087D01*
X33847291Y-4418816D01*
X33834419Y-4455601D01*
X33827427Y-4471829D01*
X33816179Y-4493594D01*
X33784404Y-4582814D01*
X33778076Y-4601738D01*
X33777821Y-4602554D01*
X33772454Y-4620898D01*
X33766209Y-4643809D01*
X33743246Y-4686573D01*
X33744276Y-4687317D01*
X33729724Y-4707458D01*
X33716687Y-4722762D01*
X31327031Y-7112418D01*
X31314163Y-7123649D01*
X31291324Y-7141001D01*
X31270743Y-7159996D01*
X31228517Y-7185754D01*
X31205781Y-7194058D01*
X31197187Y-7197282D01*
X31110751Y-7230607D01*
X31094441Y-7239533D01*
X31075574Y-7247928D01*
X31048815Y-7257291D01*
X30904089Y-7348229D01*
X30783229Y-7469089D01*
X30742421Y-7534034D01*
X30702770Y-7573684D01*
X30649842Y-7592204D01*
X30594119Y-7585925D01*
X30546640Y-7556091D01*
X27631177Y-4640628D01*
X27597431Y-4579571D01*
X27601343Y-4509918D01*
X27641712Y-4453022D01*
X27706160Y-4426326D01*
X27869406Y-4407933D01*
X28044564Y-4346643D01*
X28201693Y-4247912D01*
X28231258Y-4218346D01*
X28287741Y-4185736D01*
X28352964Y-4185735D01*
X28409448Y-4218347D01*
X28438619Y-4247518D01*
X28595654Y-4346190D01*
X28700999Y-4383052D01*
X28701000Y-4383052D01*
X28701000Y-3044000D01*
X29209000Y-3044000D01*
X29209000Y-4383052D01*
X29314345Y-4346190D01*
X29471380Y-4247518D01*
X29602518Y-4116380D01*
X29701190Y-3959345D01*
X29762442Y-3784296D01*
X29778000Y-3646219D01*
X29778000Y-3044000D01*
X29209000Y-3044000D01*
X28701000Y-3044000D01*
X28701000Y-2662000D01*
X28717881Y-2599000D01*
X28764000Y-2552881D01*
X28827000Y-2536000D01*
X29778000Y-2536000D01*
X29778000Y-1984500D01*
X29794881Y-1921500D01*
X29841000Y-1875381D01*
X29904000Y-1858500D01*
X30762188Y-1858500D01*
X30781114Y-1859929D01*
G37*
%TD.AperFunction*%
%TA.AperFunction,Conductor*%
G36*
X20275638Y-1202556D02*
G01*
X20320567Y-1241588D01*
X20342569Y-1296887D01*
X20336735Y-1356116D01*
X20320863Y-1401474D01*
X20313319Y-1418759D01*
X20302912Y-1438438D01*
X20270318Y-1527044D01*
X20265740Y-1540021D01*
X20265584Y-1540482D01*
X20261396Y-1553436D01*
X20253969Y-1577486D01*
X20227477Y-1624325D01*
X20220459Y-1632167D01*
X20206934Y-1650513D01*
X20194613Y-1664836D01*
X19653767Y-2205682D01*
X19641380Y-2216547D01*
X19616012Y-2236013D01*
X19588973Y-2271251D01*
X19588950Y-2271279D01*
X19518476Y-2363122D01*
X19457183Y-2511094D01*
X19457161Y-2511149D01*
X19440422Y-2638303D01*
X19440422Y-2638310D01*
X19436250Y-2670000D01*
X19440422Y-2701690D01*
X19441500Y-2718136D01*
X19441500Y-4445760D01*
X19431909Y-4493978D01*
X19404595Y-4534856D01*
X19174833Y-4764616D01*
X19160510Y-4776936D01*
X19142167Y-4790459D01*
X19134325Y-4797477D01*
X19087487Y-4823968D01*
X19063479Y-4831382D01*
X19051238Y-4835330D01*
X19050886Y-4835448D01*
X19050695Y-4835513D01*
X19050681Y-4835517D01*
X19050663Y-4835524D01*
X19037108Y-4840295D01*
X18948433Y-4872914D01*
X18928756Y-4883320D01*
X18911472Y-4890863D01*
X18878818Y-4902289D01*
X18734089Y-4993229D01*
X18613229Y-5114089D01*
X18522290Y-5258816D01*
X18465838Y-5420147D01*
X18447152Y-5586000D01*
X18446701Y-5590000D01*
X18451039Y-5628500D01*
X18465838Y-5759852D01*
X18522290Y-5921183D01*
X18613229Y-6065910D01*
X18734089Y-6186770D01*
X18878816Y-6277709D01*
X19012066Y-6324335D01*
X19040150Y-6334162D01*
X19108318Y-6341842D01*
X19172768Y-6368537D01*
X19213138Y-6425433D01*
X19217050Y-6495086D01*
X19183305Y-6556144D01*
X18935161Y-6804289D01*
X18878676Y-6836901D01*
X18813454Y-6836901D01*
X18756970Y-6804289D01*
X18685910Y-6733229D01*
X18541183Y-6642290D01*
X18379852Y-6585838D01*
X18210000Y-6566701D01*
X18040147Y-6585838D01*
X17878816Y-6642290D01*
X17734089Y-6733229D01*
X17613229Y-6854089D01*
X17522291Y-6998815D01*
X17510863Y-7031475D01*
X17503319Y-7048759D01*
X17492912Y-7068438D01*
X17460318Y-7157044D01*
X17460299Y-7157099D01*
X17456225Y-7168647D01*
X17455740Y-7170021D01*
X17455584Y-7170482D01*
X17455572Y-7170520D01*
X17451396Y-7183436D01*
X17447124Y-7197271D01*
X17443969Y-7207486D01*
X17417477Y-7254325D01*
X17410459Y-7262167D01*
X17396936Y-7280510D01*
X17384616Y-7294833D01*
X17234856Y-7444595D01*
X17193979Y-7471909D01*
X17145760Y-7481500D01*
X13108767Y-7481500D01*
X13089922Y-7480083D01*
X13067384Y-7476673D01*
X13056888Y-7476091D01*
X13005038Y-7461705D01*
X12982763Y-7449943D01*
X12971583Y-7444211D01*
X12971088Y-7443965D01*
X12957853Y-7437620D01*
X12872103Y-7397990D01*
X12847475Y-7390401D01*
X12842967Y-7388918D01*
X12719852Y-7345838D01*
X12550000Y-7326701D01*
X12380147Y-7345838D01*
X12286115Y-7378742D01*
X12226886Y-7384576D01*
X12171587Y-7362574D01*
X12132556Y-7317645D01*
X12118500Y-7259813D01*
X12118500Y-6762553D01*
X12119804Y-6744473D01*
X12123430Y-6719460D01*
X12123431Y-6719456D01*
X12127472Y-6636801D01*
X12136707Y-6595241D01*
X12139454Y-6588529D01*
X12143402Y-6579837D01*
X12180842Y-6505101D01*
X12185092Y-6496415D01*
X12185284Y-6496013D01*
X12189457Y-6487056D01*
X12245903Y-6362778D01*
X12245905Y-6362770D01*
X12246555Y-6361340D01*
X12247930Y-6358666D01*
X12259020Y-6324533D01*
X12304365Y-6184975D01*
X12323229Y-6005500D01*
X12304365Y-5826025D01*
X12267669Y-5713084D01*
X12247931Y-5652335D01*
X12246555Y-5649660D01*
X12245904Y-5648227D01*
X12245903Y-5648223D01*
X12189457Y-5523944D01*
X12185284Y-5514985D01*
X12185092Y-5514583D01*
X12185073Y-5514543D01*
X12180862Y-5505938D01*
X12180842Y-5505897D01*
X12143403Y-5431161D01*
X12139452Y-5422463D01*
X12138504Y-5420147D01*
X12136704Y-5415747D01*
X12127472Y-5374193D01*
X12123431Y-5291544D01*
X12119804Y-5266527D01*
X12118500Y-5248447D01*
X12118500Y-4125111D01*
X12137067Y-4059276D01*
X12187297Y-4012844D01*
X12254386Y-3999499D01*
X12318561Y-4023175D01*
X12338385Y-4037578D01*
X12503248Y-4110980D01*
X12679768Y-4148500D01*
X12860230Y-4148500D01*
X12860232Y-4148500D01*
X13036752Y-4110980D01*
X13083657Y-4090096D01*
X13098523Y-4084571D01*
X13127278Y-4075903D01*
X13251556Y-4019457D01*
X13260513Y-4015284D01*
X13260539Y-4015271D01*
X13260566Y-4015259D01*
X13260926Y-4015087D01*
X13266000Y-4012604D01*
X13269601Y-4010842D01*
X13344329Y-3973406D01*
X13353032Y-3969453D01*
X13359742Y-3966707D01*
X13401303Y-3957472D01*
X13483955Y-3953431D01*
X13508973Y-3949803D01*
X13527052Y-3948500D01*
X15122947Y-3948500D01*
X15141027Y-3949804D01*
X15166044Y-3953431D01*
X15248694Y-3957472D01*
X15290255Y-3966707D01*
X15296966Y-3969453D01*
X15305682Y-3973412D01*
X15315845Y-3978504D01*
X15380430Y-4010859D01*
X15389003Y-4015054D01*
X15389083Y-4015092D01*
X15389485Y-4015284D01*
X15398444Y-4019457D01*
X15522723Y-4075903D01*
X15529344Y-4077899D01*
X15551474Y-4084571D01*
X15566357Y-4090102D01*
X15613248Y-4110980D01*
X15789768Y-4148500D01*
X15970230Y-4148500D01*
X15970232Y-4148500D01*
X16146752Y-4110980D01*
X16311615Y-4037578D01*
X16457613Y-3931504D01*
X16578367Y-3797393D01*
X16668599Y-3641107D01*
X16674356Y-3623385D01*
X16683165Y-3602744D01*
X16688350Y-3593084D01*
X16736319Y-3465282D01*
X16739878Y-3455499D01*
X16740026Y-3455079D01*
X16742988Y-3446427D01*
X16769352Y-3367128D01*
X16772713Y-3358175D01*
X16773577Y-3356114D01*
X16775514Y-3351494D01*
X16798375Y-3315572D01*
X16799273Y-3314582D01*
X16853958Y-3254274D01*
X16869086Y-3234014D01*
X16880939Y-3220319D01*
X17978598Y-2122660D01*
X18023270Y-2093847D01*
X18075853Y-2086022D01*
X18154300Y-2091114D01*
X18154302Y-2091113D01*
X18154305Y-2091114D01*
X18193419Y-2088319D01*
X18202397Y-2088000D01*
X18290230Y-2088000D01*
X18290232Y-2088000D01*
X18466752Y-2050480D01*
X18631615Y-1977078D01*
X18777613Y-1871004D01*
X18898367Y-1736893D01*
X18988599Y-1580607D01*
X19044365Y-1408975D01*
X19055679Y-1301327D01*
X19076531Y-1244041D01*
X19121836Y-1203248D01*
X19180989Y-1188500D01*
X20217806Y-1188500D01*
X20275638Y-1202556D01*
G37*
%TD.AperFunction*%
%TA.AperFunction,Conductor*%
G36*
X17411000Y2707119D02*
G01*
X17457119Y2661000D01*
X17474000Y2598000D01*
X17474000Y1135609D01*
X17554514Y1149045D01*
X17767368Y1222117D01*
X17965302Y1329234D01*
X18142903Y1467467D01*
X18295323Y1633040D01*
X18384217Y1769101D01*
X18429730Y1811000D01*
X18489700Y1826186D01*
X18549669Y1811000D01*
X18595183Y1769102D01*
X18666381Y1660125D01*
X18684278Y1632732D01*
X18827865Y1476756D01*
X18836762Y1467092D01*
X19014421Y1328813D01*
X19014424Y1328811D01*
X19212426Y1221658D01*
X19425365Y1148556D01*
X19647431Y1111500D01*
X19872566Y1111500D01*
X19872569Y1111500D01*
X20094635Y1148556D01*
X20307574Y1221658D01*
X20505576Y1328811D01*
X20683240Y1467094D01*
X20835722Y1632732D01*
X20924518Y1768646D01*
X20970031Y1810542D01*
X21030000Y1825728D01*
X21089969Y1810542D01*
X21135481Y1768646D01*
X21224278Y1632732D01*
X21367865Y1476756D01*
X21376762Y1467092D01*
X21554421Y1328813D01*
X21554424Y1328811D01*
X21752426Y1221658D01*
X21965365Y1148556D01*
X22187431Y1111500D01*
X22412566Y1111500D01*
X22412569Y1111500D01*
X22634635Y1148556D01*
X22847574Y1221658D01*
X23045576Y1328811D01*
X23223240Y1467094D01*
X23375722Y1632732D01*
X23464518Y1768646D01*
X23510031Y1810542D01*
X23570000Y1825728D01*
X23629969Y1810542D01*
X23675481Y1768646D01*
X23764278Y1632732D01*
X23907865Y1476756D01*
X23916762Y1467092D01*
X24094421Y1328813D01*
X24094424Y1328811D01*
X24292426Y1221658D01*
X24505365Y1148556D01*
X24727431Y1111500D01*
X24952566Y1111500D01*
X24952569Y1111500D01*
X25174635Y1148556D01*
X25387574Y1221658D01*
X25585576Y1328811D01*
X25763240Y1467094D01*
X25915722Y1632732D01*
X26004518Y1768646D01*
X26050031Y1810542D01*
X26110000Y1825728D01*
X26169969Y1810542D01*
X26215481Y1768646D01*
X26304278Y1632732D01*
X26447865Y1476756D01*
X26456762Y1467092D01*
X26634421Y1328813D01*
X26634424Y1328811D01*
X26832426Y1221658D01*
X27045365Y1148556D01*
X27267431Y1111500D01*
X27492566Y1111500D01*
X27492569Y1111500D01*
X27714635Y1148556D01*
X27927574Y1221658D01*
X28125576Y1328811D01*
X28303240Y1467094D01*
X28455722Y1632732D01*
X28544518Y1768646D01*
X28590031Y1810542D01*
X28650000Y1825728D01*
X28709969Y1810542D01*
X28755481Y1768646D01*
X28844278Y1632732D01*
X28987865Y1476756D01*
X28996762Y1467092D01*
X29174421Y1328813D01*
X29174424Y1328811D01*
X29372426Y1221658D01*
X29585365Y1148556D01*
X29807431Y1111500D01*
X30032566Y1111500D01*
X30032569Y1111500D01*
X30254635Y1148556D01*
X30467574Y1221658D01*
X30665576Y1328811D01*
X30843240Y1467094D01*
X30995722Y1632732D01*
X31084518Y1768646D01*
X31130031Y1810542D01*
X31190000Y1825728D01*
X31249969Y1810542D01*
X31295481Y1768646D01*
X31384278Y1632732D01*
X31527865Y1476756D01*
X31536762Y1467092D01*
X31714421Y1328813D01*
X31714424Y1328811D01*
X31912426Y1221658D01*
X32125365Y1148556D01*
X32347431Y1111500D01*
X32572566Y1111500D01*
X32572569Y1111500D01*
X32794635Y1148556D01*
X33007574Y1221658D01*
X33205576Y1328811D01*
X33383240Y1467094D01*
X33535722Y1632732D01*
X33624518Y1768646D01*
X33670031Y1810542D01*
X33730000Y1825728D01*
X33789969Y1810542D01*
X33835481Y1768646D01*
X33924278Y1632732D01*
X34067865Y1476756D01*
X34076762Y1467092D01*
X34254421Y1328813D01*
X34254424Y1328811D01*
X34452426Y1221658D01*
X34665365Y1148556D01*
X34887431Y1111500D01*
X35112566Y1111500D01*
X35112569Y1111500D01*
X35334635Y1148556D01*
X35547574Y1221658D01*
X35745576Y1328811D01*
X35923240Y1467094D01*
X36075722Y1632732D01*
X36164518Y1768646D01*
X36210031Y1810542D01*
X36270000Y1825728D01*
X36329969Y1810542D01*
X36375481Y1768646D01*
X36464278Y1632732D01*
X36607865Y1476756D01*
X36616762Y1467092D01*
X36794421Y1328813D01*
X36794424Y1328811D01*
X36992426Y1221658D01*
X37205365Y1148556D01*
X37427431Y1111500D01*
X37652566Y1111500D01*
X37652569Y1111500D01*
X37874635Y1148556D01*
X38087574Y1221658D01*
X38285576Y1328811D01*
X38463240Y1467094D01*
X38615722Y1632732D01*
X38704518Y1768646D01*
X38750031Y1810542D01*
X38810000Y1825728D01*
X38869969Y1810542D01*
X38915481Y1768646D01*
X39004278Y1632732D01*
X39147865Y1476756D01*
X39156762Y1467092D01*
X39334421Y1328813D01*
X39334424Y1328811D01*
X39532426Y1221658D01*
X39745365Y1148556D01*
X39967431Y1111500D01*
X40192566Y1111500D01*
X40192569Y1111500D01*
X40414635Y1148556D01*
X40627574Y1221658D01*
X40825576Y1328811D01*
X41003240Y1467094D01*
X41155722Y1632732D01*
X41244518Y1768646D01*
X41290031Y1810542D01*
X41350000Y1825728D01*
X41409969Y1810542D01*
X41455481Y1768646D01*
X41544278Y1632732D01*
X41687865Y1476756D01*
X41696762Y1467092D01*
X41874421Y1328813D01*
X41874424Y1328811D01*
X42072426Y1221658D01*
X42285365Y1148556D01*
X42507431Y1111500D01*
X42732566Y1111500D01*
X42732569Y1111500D01*
X42954635Y1148556D01*
X43167574Y1221658D01*
X43294822Y1290522D01*
X43357395Y1305680D01*
X43419289Y1287948D01*
X43464342Y1241954D01*
X43480791Y1179707D01*
X43480791Y-1356920D01*
X43464378Y-1419102D01*
X43419417Y-1465084D01*
X43357619Y-1482888D01*
X43295084Y-1467875D01*
X43248104Y-1423957D01*
X43216768Y-1374087D01*
X43095910Y-1253229D01*
X42951184Y-1162291D01*
X42918527Y-1150864D01*
X42901243Y-1143321D01*
X42881552Y-1132908D01*
X42792934Y-1100310D01*
X42779244Y-1095493D01*
X42778670Y-1095300D01*
X42766547Y-1091391D01*
X42766533Y-1091386D01*
X42766503Y-1091377D01*
X42742514Y-1083969D01*
X42695667Y-1057472D01*
X42687832Y-1050460D01*
X42687833Y-1050460D01*
X42687830Y-1050458D01*
X42669489Y-1036937D01*
X42655162Y-1024613D01*
X42284315Y-653766D01*
X42273448Y-641375D01*
X42253988Y-616014D01*
X42226597Y-594996D01*
X42222074Y-591525D01*
X42222072Y-591523D01*
X42126876Y-518476D01*
X42126875Y-518475D01*
X42022204Y-475119D01*
X41978851Y-457162D01*
X41978850Y-457161D01*
X41978848Y-457161D01*
X41959468Y-454608D01*
X41959456Y-454608D01*
X41945469Y-452766D01*
X41851703Y-440422D01*
X41851691Y-440422D01*
X41820000Y-436250D01*
X41788307Y-440422D01*
X41771864Y-441500D01*
X41268767Y-441500D01*
X41249922Y-440083D01*
X41227384Y-436673D01*
X41216888Y-436091D01*
X41165038Y-421705D01*
X41142763Y-409943D01*
X41131583Y-404211D01*
X41131088Y-403965D01*
X41117853Y-397620D01*
X41032103Y-357990D01*
X41007475Y-350401D01*
X41002967Y-348918D01*
X40879852Y-305838D01*
X40710000Y-286701D01*
X40540147Y-305838D01*
X40378816Y-362290D01*
X40234089Y-453229D01*
X40113229Y-574089D01*
X40022290Y-718816D01*
X39965838Y-880147D01*
X39946701Y-1050000D01*
X39965838Y-1219852D01*
X40022290Y-1381183D01*
X40113229Y-1525910D01*
X40173724Y-1586405D01*
X40204462Y-1636564D01*
X40209078Y-1695211D01*
X40186565Y-1749561D01*
X40141832Y-1787767D01*
X40084629Y-1801500D01*
X39658136Y-1801500D01*
X39641692Y-1800422D01*
X39610000Y-1796250D01*
X39578307Y-1800422D01*
X39578294Y-1800423D01*
X39470583Y-1814602D01*
X39470562Y-1814605D01*
X39470543Y-1814608D01*
X39456254Y-1816489D01*
X39451147Y-1817162D01*
X39303121Y-1878476D01*
X39208696Y-1950932D01*
X39208476Y-1951102D01*
X39176011Y-1976014D01*
X39156545Y-2001381D01*
X39145681Y-2013768D01*
X37234836Y-3924613D01*
X37220513Y-3936934D01*
X37202167Y-3950459D01*
X37194325Y-3957477D01*
X37147487Y-3983968D01*
X37123479Y-3991382D01*
X37111238Y-3995330D01*
X37110886Y-3995448D01*
X37110695Y-3995513D01*
X37110681Y-3995517D01*
X37110663Y-3995524D01*
X37097108Y-4000295D01*
X37008433Y-4032914D01*
X36988756Y-4043320D01*
X36971472Y-4050863D01*
X36938818Y-4062289D01*
X36793001Y-4153913D01*
X36740073Y-4172434D01*
X36684350Y-4166155D01*
X36636870Y-4136321D01*
X32244315Y256234D01*
X32233448Y268625D01*
X32213986Y293989D01*
X32182074Y318476D01*
X32182074Y318475D01*
X32182072Y318477D01*
X32086876Y391524D01*
X32086875Y391525D01*
X31982204Y434881D01*
X31938851Y452838D01*
X31938850Y452839D01*
X31938848Y452839D01*
X31919468Y455392D01*
X31919456Y455392D01*
X31905469Y457234D01*
X31811703Y469578D01*
X31811691Y469578D01*
X31780000Y473750D01*
X31748307Y469578D01*
X31731864Y468500D01*
X11219308Y468500D01*
X11199390Y470084D01*
X11174461Y474075D01*
X11174614Y475037D01*
X11127146Y489216D01*
X11106344Y501012D01*
X11089683Y510057D01*
X11088930Y510448D01*
X11088929Y510449D01*
X11088903Y510462D01*
X11072041Y518828D01*
X10998590Y553605D01*
X10992111Y557159D01*
X10987901Y558887D01*
X10973345Y563507D01*
X10969852Y564673D01*
X10829852Y613662D01*
X10660000Y632799D01*
X10490149Y613662D01*
X10459494Y602935D01*
X10386112Y577258D01*
X10326887Y571424D01*
X10271588Y593426D01*
X10232556Y638355D01*
X10218500Y696187D01*
X10218500Y697320D01*
X10221134Y722946D01*
X10221364Y724055D01*
X10221365Y724059D01*
X10250664Y980454D01*
X10261410Y1018867D01*
X10296165Y1094290D01*
X10312744Y1120926D01*
X10419898Y1252995D01*
X10422516Y1256249D01*
X10597505Y1475553D01*
X10650481Y1514457D01*
X10715846Y1521389D01*
X10775807Y1494458D01*
X10814046Y1440996D01*
X10821198Y1421821D01*
X10839111Y1373795D01*
X10926738Y1256739D01*
X11043794Y1169112D01*
X11043795Y1169112D01*
X11043796Y1169111D01*
X11180799Y1118011D01*
X11241362Y1111500D01*
X13038638Y1111500D01*
X13099201Y1118011D01*
X13236204Y1169111D01*
X13353261Y1256739D01*
X13440889Y1373796D01*
X13491989Y1510799D01*
X13498500Y1571362D01*
X13498500Y1792719D01*
X13513862Y1853011D01*
X13556201Y1898602D01*
X13615194Y1918375D01*
X13676457Y1907508D01*
X13725050Y1868651D01*
X13764972Y1815786D01*
X13767058Y1812942D01*
X13818441Y1740785D01*
X13822336Y1737071D01*
X13835935Y1721815D01*
X13837301Y1720006D01*
X13902989Y1660125D01*
X13905018Y1658235D01*
X13971654Y1594697D01*
X13971656Y1594696D01*
X13973254Y1593669D01*
X13988254Y1582142D01*
X14067644Y1532986D01*
X14069433Y1531858D01*
X14149746Y1480244D01*
X14149750Y1480243D01*
X14150865Y1479526D01*
X14159896Y1474965D01*
X14253129Y1438848D01*
X14254439Y1438332D01*
X14346279Y1401564D01*
X14346281Y1401564D01*
X14349188Y1400400D01*
X14355344Y1399250D01*
X14355345Y1399249D01*
X14386285Y1393466D01*
X14452891Y1381015D01*
X14453586Y1380883D01*
X14554151Y1361500D01*
X14557282Y1361500D01*
X14712803Y1361500D01*
X14762716Y1361500D01*
X14762718Y1361500D01*
X14809300Y1370209D01*
X14820443Y1371780D01*
X14870739Y1376581D01*
X14912550Y1388859D01*
X14924891Y1391817D01*
X14964655Y1399249D01*
X15012078Y1417622D01*
X15022051Y1421011D01*
X15073862Y1436223D01*
X15109523Y1454609D01*
X15121731Y1460101D01*
X15156218Y1473460D01*
X15202395Y1502054D01*
X15210977Y1506913D01*
X15262026Y1533229D01*
X15290827Y1555879D01*
X15302376Y1563959D01*
X15330882Y1581608D01*
X15373597Y1620550D01*
X15380544Y1626434D01*
X15428432Y1664092D01*
X15450152Y1689160D01*
X15460489Y1699762D01*
X15482701Y1720009D01*
X15519605Y1768880D01*
X15524905Y1775429D01*
X15567065Y1824082D01*
X15581922Y1849818D01*
X15590487Y1862744D01*
X15606503Y1883950D01*
X15635347Y1941879D01*
X15638993Y1948669D01*
X15672913Y2007418D01*
X15681494Y2032213D01*
X15687770Y2047156D01*
X15690472Y2052582D01*
X15694331Y2060333D01*
X15733656Y2106535D01*
X15790016Y2129002D01*
X15850342Y2122523D01*
X15900646Y2088602D01*
X15929264Y2035103D01*
X15931176Y2027551D01*
X16021580Y1821452D01*
X16144678Y1633038D01*
X16297096Y1467467D01*
X16474697Y1329234D01*
X16672631Y1222117D01*
X16885485Y1149045D01*
X16966000Y1135609D01*
X16966000Y2598000D01*
X16982881Y2661000D01*
X17029000Y2707119D01*
X17092000Y2724000D01*
X17348000Y2724000D01*
X17411000Y2707119D01*
G37*
%TD.AperFunction*%
%TA.AperFunction,Conductor*%
G36*
X46495797Y1804889D02*
G01*
X46539853Y1757864D01*
X46646263Y1560389D01*
X46646266Y1560384D01*
X46646269Y1560379D01*
X46670841Y1519456D01*
X46672045Y1517647D01*
X46700292Y1479206D01*
X46700297Y1479200D01*
X46883569Y1252646D01*
X46885048Y1250838D01*
X46887097Y1248332D01*
X46934096Y1191490D01*
X46996149Y1116440D01*
X47013078Y1089742D01*
X47047836Y1015783D01*
X47058955Y976764D01*
X47080274Y793671D01*
X47088380Y724055D01*
X47088741Y720959D01*
X47088814Y720611D01*
X47089080Y718041D01*
X47089404Y715265D01*
X47089369Y715261D01*
X47091500Y694735D01*
X47091500Y-343238D01*
X47081909Y-391456D01*
X47054597Y-432330D01*
X45311071Y-2175855D01*
X44973574Y-2513352D01*
X44959251Y-2525672D01*
X44940905Y-2539197D01*
X44933063Y-2546215D01*
X44886225Y-2572706D01*
X44861426Y-2580365D01*
X44861359Y-2580148D01*
X44803799Y-2584526D01*
X44749576Y-2561946D01*
X44711481Y-2517240D01*
X44697791Y-2460122D01*
X44697791Y963340D01*
X44714843Y1026635D01*
X44761383Y1072799D01*
X44824813Y1089336D01*
X45100382Y1087096D01*
X45100382Y1087097D01*
X45100388Y1087096D01*
X45158380Y1089908D01*
X45158427Y1089913D01*
X45161008Y1090185D01*
X45218354Y1099535D01*
X45239214Y1104161D01*
X45268270Y1110604D01*
X45274778Y1111869D01*
X45494635Y1148556D01*
X45615267Y1189970D01*
X45619938Y1191471D01*
X45654316Y1201763D01*
X45661369Y1205054D01*
X45673716Y1210035D01*
X45707569Y1221656D01*
X45707570Y1221657D01*
X45707574Y1221658D01*
X45905576Y1328811D01*
X46083240Y1467094D01*
X46235722Y1632732D01*
X46323450Y1767010D01*
X46371316Y1810149D01*
X46434252Y1823982D01*
X46495797Y1804889D01*
G37*
%TD.AperFunction*%
%TA.AperFunction,Conductor*%
G36*
X49028682Y1810152D02*
G01*
X49076547Y1767014D01*
X49096110Y1737071D01*
X49097377Y1735132D01*
X49101202Y1728888D01*
X49141731Y1658200D01*
X49178325Y1594374D01*
X49191118Y1573917D01*
X49199162Y1561054D01*
X49200171Y1559569D01*
X49209064Y1547526D01*
X49223887Y1527451D01*
X49343174Y1378395D01*
X49368574Y1323233D01*
X49365221Y1262597D01*
X49333893Y1210572D01*
X48523592Y400271D01*
X48473436Y369534D01*
X48414789Y364918D01*
X48360439Y387431D01*
X48322233Y432164D01*
X48308500Y489367D01*
X48308500Y694734D01*
X48310631Y715262D01*
X48310596Y715266D01*
X48310923Y718080D01*
X48311187Y720617D01*
X48311259Y720960D01*
X48341043Y976772D01*
X48352160Y1015783D01*
X48386921Y1089750D01*
X48403841Y1116433D01*
X48512820Y1248233D01*
X48516301Y1252490D01*
X48699701Y1479199D01*
X48727953Y1517647D01*
X48729157Y1519456D01*
X48753728Y1560378D01*
X48860145Y1757869D01*
X48904201Y1804892D01*
X48965746Y1823985D01*
X49028682Y1810152D01*
G37*
%TD.AperFunction*%
%TD*%
%TA.AperFunction,Conductor*%
%TO.N,/VDD_3.3V*%
G36*
X46406923Y-6022974D02*
G01*
X46410741Y-6027858D01*
X46539119Y-6335493D01*
X46540021Y-6339999D01*
X46539119Y-6344505D01*
X46410679Y-6652290D01*
X46406902Y-6657143D01*
X46401186Y-6659411D01*
X46395110Y-6658467D01*
X46271546Y-6603278D01*
X46271292Y-6603161D01*
X46174878Y-6557312D01*
X46089261Y-6525139D01*
X45987359Y-6506201D01*
X45871229Y-6501247D01*
X45853189Y-6500477D01*
X45845241Y-6496884D01*
X45841989Y-6488789D01*
X45841989Y-6211064D01*
X45845188Y-6203025D01*
X45853034Y-6199382D01*
X45988229Y-6191825D01*
X46089748Y-6168142D01*
X46174554Y-6130211D01*
X46270385Y-6079434D01*
X46270908Y-6079173D01*
X46395032Y-6021744D01*
X46401145Y-6020726D01*
X46406923Y-6022974D01*
G37*
%TD.AperFunction*%
%TD*%
%TA.AperFunction,Conductor*%
%TO.N,/VDD_3.3V*%
G36*
X37074003Y-6472315D02*
G01*
X37077629Y-6477290D01*
X37125867Y-6604102D01*
X37125979Y-6604410D01*
X37161233Y-6705529D01*
X37198422Y-6789384D01*
X37256644Y-6875346D01*
X37347491Y-6974656D01*
X37350555Y-6982813D01*
X37347131Y-6990826D01*
X37150752Y-7187205D01*
X37142794Y-7190628D01*
X37134663Y-7187638D01*
X37033931Y-7097200D01*
X36945782Y-7041536D01*
X36859453Y-7007632D01*
X36756152Y-6975131D01*
X36755606Y-6974944D01*
X36627436Y-6927563D01*
X36622404Y-6923956D01*
X36619917Y-6918286D01*
X36620671Y-6912143D01*
X36747437Y-6603805D01*
X36749984Y-6599984D01*
X36753805Y-6597437D01*
X37062248Y-6470628D01*
X37068353Y-6469868D01*
X37074003Y-6472315D01*
G37*
%TD.AperFunction*%
%TD*%
%TA.AperFunction,Conductor*%
%TO.N,/VDD_3.3V*%
G36*
X22324925Y-881631D02*
G01*
X22449235Y-938091D01*
X22449577Y-938254D01*
X22546083Y-986599D01*
X22631632Y-1021601D01*
X22733716Y-1042845D01*
X22840671Y-1048076D01*
X22868872Y-1049456D01*
X22876773Y-1053073D01*
X22880000Y-1061142D01*
X22880000Y-1338858D01*
X22876773Y-1346927D01*
X22868872Y-1350544D01*
X22776196Y-1355076D01*
X22733716Y-1357154D01*
X22631632Y-1378397D01*
X22631632Y-1378398D01*
X22546077Y-1413402D01*
X22449607Y-1461729D01*
X22449205Y-1461921D01*
X22324927Y-1518367D01*
X22318833Y-1519346D01*
X22313087Y-1517088D01*
X22309291Y-1512220D01*
X22180880Y-1204506D01*
X22179978Y-1200000D01*
X22180880Y-1195494D01*
X22240313Y-1053073D01*
X22309292Y-887777D01*
X22313087Y-882911D01*
X22318832Y-880653D01*
X22324925Y-881631D01*
G37*
%TD.AperFunction*%
%TD*%
%TA.AperFunction,Conductor*%
%TO.N,/VDD_3.3V*%
G36*
X31385964Y-893292D02*
G01*
X31389740Y-898144D01*
X31518181Y-1205932D01*
X31519083Y-1210438D01*
X31518181Y-1214944D01*
X31389804Y-1522576D01*
X31385985Y-1527461D01*
X31380206Y-1529708D01*
X31374090Y-1528687D01*
X31250011Y-1471231D01*
X31249439Y-1470947D01*
X31153649Y-1420069D01*
X31118574Y-1404322D01*
X31068870Y-1382008D01*
X31068868Y-1382007D01*
X31068867Y-1382007D01*
X30967379Y-1358218D01*
X30925112Y-1355842D01*
X30832181Y-1350620D01*
X30824336Y-1346977D01*
X30821138Y-1338939D01*
X30821138Y-1061215D01*
X30824391Y-1053119D01*
X30832341Y-1049525D01*
X30966471Y-1043839D01*
X31068362Y-1025002D01*
X31153984Y-992952D01*
X31250471Y-947175D01*
X31250576Y-947127D01*
X31374175Y-891965D01*
X31380249Y-891023D01*
X31385964Y-893292D01*
G37*
%TD.AperFunction*%
%TD*%
%TA.AperFunction,Conductor*%
%TO.N,/VDD_3.3V*%
G36*
X46544505Y-6340880D02*
G01*
X46852220Y-6469291D01*
X46857088Y-6473087D01*
X46859346Y-6478833D01*
X46858367Y-6484927D01*
X46801921Y-6609205D01*
X46801729Y-6609607D01*
X46753402Y-6706077D01*
X46718398Y-6791632D01*
X46697154Y-6893718D01*
X46690544Y-7028872D01*
X46686927Y-7036773D01*
X46678858Y-7040000D01*
X46401142Y-7040000D01*
X46393073Y-7036773D01*
X46389456Y-7028872D01*
X46388076Y-7000671D01*
X46382845Y-6893716D01*
X46361601Y-6791632D01*
X46326599Y-6706083D01*
X46278254Y-6609577D01*
X46278091Y-6609235D01*
X46221631Y-6484925D01*
X46220653Y-6478832D01*
X46222911Y-6473087D01*
X46227777Y-6469292D01*
X46535496Y-6340879D01*
X46539999Y-6339978D01*
X46544505Y-6340880D01*
G37*
%TD.AperFunction*%
%TD*%
%TA.AperFunction,Conductor*%
%TO.N,/VDD_3.3V*%
G36*
X49368046Y-13645250D02*
G01*
X49611110Y-13868769D01*
X49811258Y-14006963D01*
X49925341Y-14059221D01*
X50006299Y-14096307D01*
X50169615Y-14154823D01*
X50242196Y-14180830D01*
X50242320Y-14180875D01*
X50554074Y-14300405D01*
X50559037Y-14304041D01*
X50561470Y-14309692D01*
X50560699Y-14315796D01*
X50243696Y-15083466D01*
X50239383Y-15088727D01*
X50232872Y-15090700D01*
X49402335Y-15090010D01*
X49396309Y-15088333D01*
X49392008Y-15083790D01*
X49390662Y-15077683D01*
X49407672Y-14761540D01*
X49407710Y-14761040D01*
X49433365Y-14509164D01*
X49425967Y-14297381D01*
X49344421Y-14089675D01*
X49163225Y-13868769D01*
X49154380Y-13857985D01*
X49151740Y-13849989D01*
X49155152Y-13842293D01*
X49351856Y-13645589D01*
X49359883Y-13642166D01*
X49368046Y-13645250D01*
G37*
%TD.AperFunction*%
%TD*%
%TA.AperFunction,Conductor*%
%TO.N,/VDD_3.3V*%
G36*
X27832980Y-1352540D02*
G01*
X27837099Y-1359058D01*
X27863201Y-1471677D01*
X27891413Y-1583501D01*
X27919611Y-1685368D01*
X27947817Y-1777366D01*
X27974775Y-1855825D01*
X27974878Y-1863116D01*
X27696168Y-2755251D01*
X27691931Y-2761188D01*
X27685000Y-2763462D01*
X27678069Y-2761188D01*
X27673832Y-2755251D01*
X27598352Y-2513646D01*
X27395121Y-1863113D01*
X27395223Y-1855828D01*
X27422182Y-1777364D01*
X27450386Y-1685373D01*
X27478591Y-1583481D01*
X27506795Y-1471690D01*
X27532901Y-1359058D01*
X27537020Y-1352540D01*
X27544299Y-1350000D01*
X27825701Y-1350000D01*
X27832980Y-1352540D01*
G37*
%TD.AperFunction*%
%TD*%
%TA.AperFunction,Conductor*%
%TO.N,/VDD_3.3V*%
G36*
X12914925Y-2971631D02*
G01*
X13039235Y-3028091D01*
X13039577Y-3028254D01*
X13136083Y-3076599D01*
X13221632Y-3111601D01*
X13323716Y-3132845D01*
X13430671Y-3138076D01*
X13458872Y-3139456D01*
X13466773Y-3143073D01*
X13470000Y-3151142D01*
X13470000Y-3428858D01*
X13466773Y-3436927D01*
X13458872Y-3440544D01*
X13366196Y-3445076D01*
X13323716Y-3447154D01*
X13221631Y-3468398D01*
X13221632Y-3468398D01*
X13136077Y-3503402D01*
X13039607Y-3551729D01*
X13039205Y-3551921D01*
X12914927Y-3608367D01*
X12908833Y-3609346D01*
X12903087Y-3607088D01*
X12899291Y-3602220D01*
X12770880Y-3294505D01*
X12769978Y-3289999D01*
X12770879Y-3285496D01*
X12899292Y-2977777D01*
X12903087Y-2972911D01*
X12908832Y-2970653D01*
X12914925Y-2971631D01*
G37*
%TD.AperFunction*%
%TD*%
%TA.AperFunction,Conductor*%
%TO.N,/VDD_3.3V*%
G36*
X15746912Y-2972911D02*
G01*
X15750708Y-2977779D01*
X15879119Y-3285493D01*
X15880021Y-3289999D01*
X15879119Y-3294505D01*
X15750708Y-3602220D01*
X15746912Y-3607088D01*
X15741166Y-3609346D01*
X15735072Y-3608367D01*
X15610793Y-3551921D01*
X15610391Y-3551729D01*
X15513921Y-3503402D01*
X15505320Y-3499883D01*
X15428367Y-3468398D01*
X15326282Y-3447154D01*
X15272330Y-3444515D01*
X15191128Y-3440544D01*
X15183227Y-3436927D01*
X15180000Y-3428858D01*
X15180000Y-3151142D01*
X15183227Y-3143073D01*
X15191128Y-3139456D01*
X15218923Y-3138096D01*
X15326282Y-3132845D01*
X15428367Y-3111601D01*
X15513916Y-3076599D01*
X15610442Y-3028244D01*
X15610743Y-3028100D01*
X15735075Y-2971631D01*
X15741167Y-2970653D01*
X15746912Y-2972911D01*
G37*
%TD.AperFunction*%
%TD*%
%TA.AperFunction,Conductor*%
%TO.N,/VDD_3.3V*%
G36*
X25164208Y-8351599D02*
G01*
X25169095Y-8357461D01*
X25209883Y-8464960D01*
X25257083Y-8579460D01*
X25304301Y-8684100D01*
X25351495Y-8778788D01*
X25396435Y-8859529D01*
X25397546Y-8868124D01*
X25155915Y-9810879D01*
X25151875Y-9817122D01*
X25144889Y-9819670D01*
X25137779Y-9817493D01*
X25133416Y-9811472D01*
X25133230Y-9810879D01*
X24855155Y-8923212D01*
X24855313Y-8915750D01*
X24873291Y-8865899D01*
X24892605Y-8802443D01*
X24911918Y-8729088D01*
X24931232Y-8645832D01*
X24949836Y-8556099D01*
X24953016Y-8550206D01*
X25149884Y-8353338D01*
X25156745Y-8349997D01*
X25164208Y-8351599D01*
G37*
%TD.AperFunction*%
%TD*%
%TA.AperFunction,Conductor*%
%TO.N,/VDD_3.3V*%
G36*
X22184504Y-1200879D02*
G01*
X22492220Y-1329291D01*
X22497088Y-1333087D01*
X22499346Y-1338833D01*
X22498367Y-1344927D01*
X22441921Y-1469205D01*
X22441729Y-1469607D01*
X22393402Y-1566077D01*
X22358398Y-1651632D01*
X22337154Y-1753718D01*
X22330544Y-1888872D01*
X22326927Y-1896773D01*
X22318858Y-1900000D01*
X22041142Y-1900000D01*
X22033073Y-1896773D01*
X22029456Y-1888872D01*
X22028076Y-1860671D01*
X22022845Y-1753716D01*
X22001601Y-1651632D01*
X21966599Y-1566083D01*
X21918254Y-1469577D01*
X21918091Y-1469235D01*
X21861631Y-1344925D01*
X21860653Y-1338832D01*
X21862911Y-1333087D01*
X21867777Y-1329292D01*
X22175495Y-1200879D01*
X22180000Y-1199978D01*
X22184504Y-1200879D01*
G37*
%TD.AperFunction*%
%TD*%
%TA.AperFunction,Conductor*%
%TO.N,/VDD_3.3V*%
G36*
X11606927Y-5308727D02*
G01*
X11610544Y-5316628D01*
X11617154Y-5451782D01*
X11638398Y-5553866D01*
X11673402Y-5639421D01*
X11721729Y-5735891D01*
X11721921Y-5736293D01*
X11778367Y-5860572D01*
X11779346Y-5866666D01*
X11777088Y-5872412D01*
X11772220Y-5876208D01*
X11464505Y-6004619D01*
X11459999Y-6005521D01*
X11455493Y-6004619D01*
X11147779Y-5876208D01*
X11142911Y-5872412D01*
X11140653Y-5866667D01*
X11141631Y-5860575D01*
X11198100Y-5736243D01*
X11198244Y-5735942D01*
X11246599Y-5639416D01*
X11281601Y-5553867D01*
X11302845Y-5451782D01*
X11309455Y-5316628D01*
X11313073Y-5308727D01*
X11321142Y-5305500D01*
X11598858Y-5305500D01*
X11606927Y-5308727D01*
G37*
%TD.AperFunction*%
%TD*%
%TA.AperFunction,Conductor*%
%TO.N,/VDD_3.3V*%
G36*
X18066912Y-912414D02*
G01*
X18070710Y-917283D01*
X18199119Y-1224993D01*
X18200021Y-1229499D01*
X18199119Y-1234005D01*
X18070707Y-1541724D01*
X18066912Y-1546591D01*
X18061168Y-1548850D01*
X18055074Y-1547872D01*
X17930838Y-1491492D01*
X17930443Y-1491304D01*
X17879403Y-1465801D01*
X17833964Y-1443096D01*
X17799102Y-1428890D01*
X17748410Y-1408234D01*
X17646336Y-1387106D01*
X17511231Y-1380541D01*
X17503327Y-1376925D01*
X17500099Y-1368855D01*
X17500099Y-1091138D01*
X17503325Y-1083071D01*
X17511223Y-1079452D01*
X17646379Y-1072794D01*
X17748435Y-1051428D01*
X17833948Y-1016279D01*
X17930413Y-967816D01*
X17930785Y-967639D01*
X18055071Y-911137D01*
X18061166Y-910156D01*
X18066912Y-912414D01*
G37*
%TD.AperFunction*%
%TD*%
%TA.AperFunction,Conductor*%
%TO.N,/VDD_3.3V*%
G36*
X14832500Y-14683421D02*
G01*
X14838797Y-14689706D01*
X14929109Y-14905483D01*
X14930016Y-14910000D01*
X14929109Y-14914517D01*
X14838797Y-15130293D01*
X14832500Y-15136578D01*
X14823604Y-15136617D01*
X14738924Y-15102249D01*
X14669100Y-15078383D01*
X14668343Y-15078230D01*
X14606533Y-15065777D01*
X14574991Y-15063663D01*
X14532940Y-15060846D01*
X14441604Y-15060095D01*
X14433393Y-15056634D01*
X14430000Y-15048395D01*
X14430000Y-14771604D01*
X14433393Y-14763365D01*
X14441602Y-14759904D01*
X14532936Y-14759153D01*
X14606533Y-14754222D01*
X14669095Y-14741616D01*
X14738926Y-14717748D01*
X14823605Y-14683382D01*
X14832500Y-14683421D01*
G37*
%TD.AperFunction*%
%TD*%
%TA.AperFunction,Conductor*%
%TO.N,/VDD_3.3V*%
G36*
X14266465Y-12113061D02*
G01*
X14437662Y-12257766D01*
X14587679Y-12331997D01*
X14736212Y-12367978D01*
X14910506Y-12404737D01*
X14911808Y-12405091D01*
X15128613Y-12477883D01*
X15133831Y-12481430D01*
X15136449Y-12487169D01*
X15135706Y-12493434D01*
X14932562Y-12986204D01*
X14930018Y-12990018D01*
X14926204Y-12992562D01*
X14433434Y-13195706D01*
X14427169Y-13196449D01*
X14421430Y-13193831D01*
X14417883Y-13188613D01*
X14345092Y-12971812D01*
X14344736Y-12970502D01*
X14307979Y-12796219D01*
X14307978Y-12796212D01*
X14271997Y-12647679D01*
X14197766Y-12497662D01*
X14053061Y-12326465D01*
X14050308Y-12318424D01*
X14053724Y-12310641D01*
X14250641Y-12113724D01*
X14258424Y-12110308D01*
X14266465Y-12113061D01*
G37*
%TD.AperFunction*%
%TD*%
%TA.AperFunction,Conductor*%
%TO.N,/VDD_3.3V*%
G36*
X17960874Y-990326D02*
G01*
X18197247Y-1225353D01*
X18199805Y-1229166D01*
X18200697Y-1233672D01*
X18200025Y-1567041D01*
X18198321Y-1573098D01*
X18193725Y-1577396D01*
X18187567Y-1578692D01*
X18074535Y-1571355D01*
X18073717Y-1571273D01*
X17977170Y-1558149D01*
X17895506Y-1556958D01*
X17815521Y-1584755D01*
X17731773Y-1651973D01*
X17723812Y-1654531D01*
X17716177Y-1651121D01*
X17519646Y-1454590D01*
X17516219Y-1446380D01*
X17519557Y-1438134D01*
X17520694Y-1436971D01*
X17622544Y-1332895D01*
X17699318Y-1250332D01*
X17764656Y-1178085D01*
X17841355Y-1095602D01*
X17841504Y-1095445D01*
X17944266Y-990439D01*
X17949506Y-987348D01*
X17955592Y-987306D01*
X17960874Y-990326D01*
G37*
%TD.AperFunction*%
%TD*%
%TA.AperFunction,Conductor*%
%TO.N,/VDD_3.3V*%
G36*
X16276786Y-2696838D02*
G01*
X16473161Y-2893213D01*
X16476585Y-2901200D01*
X16473555Y-2909345D01*
X16382661Y-3009587D01*
X16325498Y-3096793D01*
X16289753Y-3182042D01*
X16255715Y-3284417D01*
X16255567Y-3284837D01*
X16207598Y-3412639D01*
X16203981Y-3417642D01*
X16198321Y-3420107D01*
X16192195Y-3419349D01*
X15883808Y-3292563D01*
X15879984Y-3290015D01*
X15877436Y-3286191D01*
X15750648Y-2977800D01*
X15749891Y-2971677D01*
X15752356Y-2966017D01*
X15757355Y-2962402D01*
X15885162Y-2914431D01*
X15885574Y-2914286D01*
X15948951Y-2893213D01*
X15987962Y-2880242D01*
X16073205Y-2844500D01*
X16160411Y-2787338D01*
X16260654Y-2696443D01*
X16268799Y-2693414D01*
X16276786Y-2696838D01*
G37*
%TD.AperFunction*%
%TD*%
%TA.AperFunction,Conductor*%
%TO.N,/VDD_3.3V*%
G36*
X39908647Y-2959801D02*
G01*
X40217039Y-3086589D01*
X40220862Y-3089137D01*
X40223410Y-3092961D01*
X40350196Y-3401348D01*
X40350954Y-3407474D01*
X40348489Y-3413134D01*
X40343486Y-3416751D01*
X40215684Y-3464720D01*
X40215264Y-3464868D01*
X40112889Y-3498906D01*
X40027640Y-3534651D01*
X39940434Y-3591814D01*
X39840192Y-3682708D01*
X39832047Y-3685738D01*
X39824060Y-3682314D01*
X39627685Y-3485939D01*
X39624261Y-3477952D01*
X39627291Y-3469807D01*
X39718185Y-3369564D01*
X39775347Y-3282358D01*
X39811089Y-3197115D01*
X39845133Y-3094727D01*
X39845281Y-3094307D01*
X39845786Y-3092961D01*
X39893249Y-2966508D01*
X39896864Y-2961509D01*
X39902524Y-2959044D01*
X39908647Y-2959801D01*
G37*
%TD.AperFunction*%
%TD*%
%TA.AperFunction,Conductor*%
%TO.N,/VDD_3.3V*%
G36*
X38296786Y-4816838D02*
G01*
X38493161Y-5013213D01*
X38496585Y-5021200D01*
X38493555Y-5029345D01*
X38402661Y-5129587D01*
X38345498Y-5216793D01*
X38309753Y-5302042D01*
X38275715Y-5404417D01*
X38275567Y-5404837D01*
X38227598Y-5532639D01*
X38223981Y-5537642D01*
X38218321Y-5540107D01*
X38212195Y-5539349D01*
X37903808Y-5412563D01*
X37899984Y-5410015D01*
X37897436Y-5406191D01*
X37770648Y-5097800D01*
X37769891Y-5091677D01*
X37772356Y-5086017D01*
X37777355Y-5082402D01*
X37905162Y-5034431D01*
X37905574Y-5034286D01*
X37968951Y-5013213D01*
X38007962Y-5000242D01*
X38093205Y-4964500D01*
X38180411Y-4907338D01*
X38280654Y-4816443D01*
X38288799Y-4813414D01*
X38296786Y-4816838D01*
G37*
%TD.AperFunction*%
%TD*%
%TA.AperFunction,Conductor*%
%TO.N,/VDD_3.3V*%
G36*
X26107576Y-9542552D02*
G01*
X26407687Y-9841714D01*
X26410727Y-9846966D01*
X26410727Y-9853034D01*
X26407687Y-9858286D01*
X26107576Y-10157447D01*
X26099821Y-10160850D01*
X26091801Y-10158128D01*
X26037003Y-10112202D01*
X26030335Y-10107662D01*
X25973999Y-10069300D01*
X25971257Y-10067863D01*
X25911002Y-10036300D01*
X25847995Y-10013198D01*
X25804341Y-10004052D01*
X25794300Y-10001948D01*
X25787618Y-9997874D01*
X25785000Y-9990498D01*
X25785000Y-9709502D01*
X25787618Y-9702126D01*
X25794300Y-9698051D01*
X25825175Y-9691582D01*
X25847996Y-9686801D01*
X25847997Y-9686800D01*
X25848000Y-9686800D01*
X25910999Y-9663700D01*
X25974000Y-9630700D01*
X26037000Y-9587800D01*
X26091802Y-9541870D01*
X26099820Y-9539149D01*
X26107576Y-9542552D01*
G37*
%TD.AperFunction*%
%TD*%
%TA.AperFunction,Conductor*%
%TO.N,/VDD_3.3V*%
G36*
X25468198Y-9541871D02*
G01*
X25523000Y-9587800D01*
X25585999Y-9630700D01*
X25616129Y-9646482D01*
X25648997Y-9663699D01*
X25649000Y-9663700D01*
X25712000Y-9686800D01*
X25712002Y-9686800D01*
X25712004Y-9686801D01*
X25734824Y-9691582D01*
X25765699Y-9698051D01*
X25772382Y-9702126D01*
X25775000Y-9709502D01*
X25775000Y-9990498D01*
X25772382Y-9997874D01*
X25765699Y-10001948D01*
X25757181Y-10003733D01*
X25712004Y-10013198D01*
X25648996Y-10036300D01*
X25586001Y-10069299D01*
X25522996Y-10112202D01*
X25468198Y-10158128D01*
X25460178Y-10160850D01*
X25452423Y-10157447D01*
X25152312Y-9858286D01*
X25149272Y-9853034D01*
X25149272Y-9846966D01*
X25152312Y-9841714D01*
X25452424Y-9542551D01*
X25460178Y-9539149D01*
X25468198Y-9541871D01*
G37*
%TD.AperFunction*%
%TD*%
%TA.AperFunction,Conductor*%
%TO.N,/VDD_3.3V*%
G36*
X11464504Y-6006379D02*
G01*
X11772220Y-6134791D01*
X11777088Y-6138587D01*
X11779346Y-6144333D01*
X11778367Y-6150427D01*
X11721921Y-6274705D01*
X11721729Y-6275107D01*
X11673402Y-6371577D01*
X11638398Y-6457132D01*
X11617154Y-6559218D01*
X11610544Y-6694372D01*
X11606927Y-6702273D01*
X11598858Y-6705500D01*
X11321142Y-6705500D01*
X11313073Y-6702273D01*
X11309456Y-6694372D01*
X11308076Y-6666171D01*
X11302845Y-6559216D01*
X11281601Y-6457132D01*
X11246599Y-6371583D01*
X11198254Y-6275077D01*
X11198091Y-6274735D01*
X11141631Y-6150425D01*
X11140653Y-6144332D01*
X11142911Y-6138587D01*
X11147777Y-6134792D01*
X11455495Y-6006379D01*
X11460000Y-6005478D01*
X11464504Y-6006379D01*
G37*
%TD.AperFunction*%
%TD*%
%TA.AperFunction,Conductor*%
%TO.N,/VDD_3.3V*%
G36*
X7154514Y-12230889D02*
G01*
X7370293Y-12321202D01*
X7376578Y-12327499D01*
X7376617Y-12336395D01*
X7342249Y-12421074D01*
X7318383Y-12490898D01*
X7305777Y-12553468D01*
X7300846Y-12627058D01*
X7300095Y-12718396D01*
X7296634Y-12726607D01*
X7288395Y-12730000D01*
X7011604Y-12730000D01*
X7003365Y-12726607D01*
X6999904Y-12718397D01*
X6999153Y-12627063D01*
X6994222Y-12553466D01*
X6981616Y-12490904D01*
X6957748Y-12421073D01*
X6923382Y-12336394D01*
X6923421Y-12327499D01*
X6929704Y-12321203D01*
X7145485Y-12230889D01*
X7150000Y-12229983D01*
X7154514Y-12230889D01*
G37*
%TD.AperFunction*%
%TD*%
%TA.AperFunction,Conductor*%
%TO.N,/VDD_3.3V*%
G36*
X44853645Y-4466493D02*
G01*
X45162037Y-4593281D01*
X45165860Y-4595829D01*
X45168408Y-4599653D01*
X45295194Y-4908040D01*
X45295952Y-4914166D01*
X45293487Y-4919826D01*
X45288484Y-4923443D01*
X45160682Y-4971412D01*
X45160262Y-4971560D01*
X45057887Y-5005598D01*
X44972638Y-5041343D01*
X44885432Y-5098506D01*
X44785190Y-5189400D01*
X44777045Y-5192430D01*
X44769058Y-5189006D01*
X44572683Y-4992631D01*
X44569259Y-4984644D01*
X44572289Y-4976499D01*
X44663183Y-4876256D01*
X44720345Y-4789050D01*
X44756087Y-4703807D01*
X44790131Y-4601419D01*
X44790279Y-4600999D01*
X44790784Y-4599653D01*
X44838247Y-4473200D01*
X44841862Y-4468201D01*
X44847522Y-4465736D01*
X44853645Y-4466493D01*
G37*
%TD.AperFunction*%
%TD*%
%TA.AperFunction,Conductor*%
%TO.N,/VDD_5V*%
G36*
X8664497Y-3890873D02*
G01*
X9064930Y-4057701D01*
X9069729Y-4061402D01*
X9072034Y-4067010D01*
X9071222Y-4073017D01*
X9003669Y-4234460D01*
X8955702Y-4359861D01*
X8927209Y-4471890D01*
X8913525Y-4604098D01*
X8910218Y-4778522D01*
X8906714Y-4786651D01*
X8898520Y-4790000D01*
X8421480Y-4790000D01*
X8413286Y-4786651D01*
X8409782Y-4778522D01*
X8406473Y-4604098D01*
X8406473Y-4604097D01*
X8392790Y-4471892D01*
X8364295Y-4359860D01*
X8316335Y-4234474D01*
X8248777Y-4073017D01*
X8247965Y-4067010D01*
X8250270Y-4061402D01*
X8255067Y-4057702D01*
X8655504Y-3890872D01*
X8659999Y-3889974D01*
X8664497Y-3890873D01*
G37*
%TD.AperFunction*%
%TD*%
%TA.AperFunction,Conductor*%
%TO.N,/VDD_5V*%
G36*
X19018678Y-13534050D02*
G01*
X19319752Y-13795792D01*
X19416107Y-13855087D01*
X19570276Y-13949961D01*
X19800753Y-14065660D01*
X19801636Y-14066152D01*
X20050912Y-14219553D01*
X20052456Y-14220687D01*
X20351583Y-14480737D01*
X20355054Y-14486012D01*
X20355278Y-14492323D01*
X20352190Y-14497830D01*
X19762360Y-15089049D01*
X19758543Y-15091600D01*
X18987264Y-15410093D01*
X18980683Y-15410786D01*
X18974779Y-15407799D01*
X18971441Y-15402088D01*
X18880085Y-15032450D01*
X18879755Y-15029151D01*
X18892853Y-14722195D01*
X18892905Y-14721486D01*
X18921783Y-14451579D01*
X18887208Y-14257708D01*
X18873949Y-14183355D01*
X18662674Y-13888513D01*
X18660523Y-13880742D01*
X18663910Y-13873426D01*
X19002730Y-13534606D01*
X19010594Y-13531187D01*
X19018678Y-13534050D01*
G37*
%TD.AperFunction*%
%TD*%
%TA.AperFunction,Conductor*%
%TO.N,/CHIP_EN*%
G36*
X40625195Y-2185347D02*
G01*
X40629014Y-2190224D01*
X40719109Y-2405482D01*
X40720016Y-2409999D01*
X40719109Y-2414516D01*
X40629014Y-2629775D01*
X40625195Y-2634652D01*
X40619422Y-2636896D01*
X40613314Y-2635879D01*
X40527565Y-2596249D01*
X40527014Y-2595976D01*
X40458392Y-2559737D01*
X40397582Y-2532680D01*
X40375625Y-2527591D01*
X40324802Y-2515812D01*
X40231052Y-2510613D01*
X40223201Y-2506972D01*
X40220000Y-2498931D01*
X40220000Y-2321069D01*
X40223201Y-2313028D01*
X40231052Y-2309387D01*
X40277618Y-2306803D01*
X40324804Y-2304186D01*
X40397582Y-2287319D01*
X40458392Y-2260262D01*
X40527034Y-2224011D01*
X40527549Y-2223757D01*
X40613316Y-2184119D01*
X40619422Y-2183103D01*
X40625195Y-2185347D01*
G37*
%TD.AperFunction*%
%TD*%
%TA.AperFunction,Conductor*%
%TO.N,/CHIP_EN*%
G36*
X40816682Y-824119D02*
G01*
X40902448Y-863756D01*
X40902977Y-864019D01*
X40971607Y-900262D01*
X41032416Y-927319D01*
X41105195Y-944186D01*
X41137880Y-945999D01*
X41198948Y-949387D01*
X41206799Y-953028D01*
X41210000Y-961069D01*
X41210000Y-1138931D01*
X41206799Y-1146972D01*
X41198948Y-1150613D01*
X41105196Y-1155812D01*
X41032416Y-1172680D01*
X40971606Y-1199737D01*
X40902990Y-1235972D01*
X40902435Y-1236247D01*
X40816687Y-1275878D01*
X40810577Y-1276895D01*
X40804804Y-1274651D01*
X40800985Y-1269774D01*
X40746221Y-1138931D01*
X40710889Y-1054514D01*
X40709983Y-1050000D01*
X40710889Y-1045485D01*
X40800986Y-830221D01*
X40804804Y-825347D01*
X40810577Y-823103D01*
X40816682Y-824119D01*
G37*
%TD.AperFunction*%
%TD*%
%TA.AperFunction,Conductor*%
%TO.N,/CHIP_EN*%
G36*
X31655805Y-7518670D02*
G01*
X31781583Y-7644448D01*
X31785002Y-7652297D01*
X31782160Y-7660374D01*
X31720546Y-7731632D01*
X31684777Y-7797323D01*
X31665541Y-7862126D01*
X31646545Y-7938415D01*
X31646241Y-7939438D01*
X31615032Y-8029012D01*
X31611467Y-8034156D01*
X31605760Y-8036726D01*
X31599546Y-8035988D01*
X31383824Y-7947564D01*
X31379988Y-7945011D01*
X31377435Y-7941175D01*
X31318471Y-7797324D01*
X31288859Y-7725083D01*
X31288103Y-7718997D01*
X31290531Y-7713362D01*
X31295474Y-7709732D01*
X31381882Y-7676418D01*
X31452998Y-7650446D01*
X31511691Y-7622949D01*
X31571972Y-7580762D01*
X31639598Y-7518344D01*
X31647766Y-7515245D01*
X31655805Y-7518670D01*
G37*
%TD.AperFunction*%
%TD*%
%TA.AperFunction,Conductor*%
%TO.N,/CHIP_EN*%
G36*
X34315373Y-4658978D02*
G01*
X34531176Y-4747435D01*
X34535011Y-4749988D01*
X34537564Y-4753824D01*
X34626110Y-4969844D01*
X34626863Y-4975956D01*
X34624408Y-4981605D01*
X34619424Y-4985224D01*
X34532188Y-5018229D01*
X34531835Y-5018356D01*
X34459566Y-5043077D01*
X34399489Y-5069127D01*
X34337961Y-5110254D01*
X34269404Y-5172746D01*
X34261251Y-5175796D01*
X34253249Y-5172372D01*
X34127474Y-5046597D01*
X34124053Y-5038708D01*
X34126947Y-5030614D01*
X34188953Y-4959879D01*
X34226231Y-4895100D01*
X34247326Y-4831355D01*
X34267890Y-4755901D01*
X34268145Y-4755086D01*
X34299916Y-4665879D01*
X34303496Y-4660777D01*
X34309187Y-4658237D01*
X34315373Y-4658978D01*
G37*
%TD.AperFunction*%
%TD*%
%TA.AperFunction,Conductor*%
%TO.N,/CHIP_EN*%
G36*
X37560669Y-4333562D02*
G01*
X37686436Y-4459329D01*
X37689859Y-4467278D01*
X37686882Y-4475404D01*
X37624264Y-4545377D01*
X37584730Y-4608763D01*
X37560863Y-4670896D01*
X37537967Y-4745035D01*
X37537769Y-4745622D01*
X37505159Y-4834281D01*
X37501558Y-4839321D01*
X37495889Y-4841816D01*
X37489741Y-4841068D01*
X37273824Y-4752564D01*
X37269988Y-4750011D01*
X37267435Y-4746175D01*
X37267208Y-4745622D01*
X37178930Y-4530256D01*
X37178183Y-4524110D01*
X37180678Y-4518441D01*
X37185716Y-4514841D01*
X37274390Y-4482222D01*
X37274946Y-4482035D01*
X37349104Y-4459135D01*
X37411234Y-4435268D01*
X37474623Y-4395732D01*
X37544597Y-4333114D01*
X37552720Y-4330139D01*
X37560669Y-4333562D01*
G37*
%TD.AperFunction*%
%TD*%
%TA.AperFunction,Conductor*%
%TO.N,/CHIP_EN*%
G36*
X42345403Y-1433115D02*
G01*
X42408094Y-1489216D01*
X42415377Y-1495733D01*
X42436505Y-1508910D01*
X42478764Y-1535268D01*
X42540895Y-1559135D01*
X42540899Y-1559136D01*
X42540901Y-1559137D01*
X42615035Y-1582030D01*
X42615618Y-1582226D01*
X42704281Y-1614840D01*
X42709321Y-1618441D01*
X42711816Y-1624110D01*
X42711068Y-1630258D01*
X42622564Y-1846175D01*
X42620011Y-1850011D01*
X42616175Y-1852564D01*
X42400258Y-1941068D01*
X42394110Y-1941816D01*
X42388441Y-1939321D01*
X42384840Y-1934281D01*
X42354098Y-1850707D01*
X42352226Y-1845618D01*
X42352030Y-1845035D01*
X42329137Y-1770901D01*
X42329135Y-1770895D01*
X42305268Y-1708764D01*
X42265732Y-1645376D01*
X42203115Y-1575403D01*
X42200139Y-1567279D01*
X42203561Y-1559331D01*
X42329331Y-1433561D01*
X42337279Y-1430139D01*
X42345403Y-1433115D01*
G37*
%TD.AperFunction*%
%TD*%
%TA.AperFunction,Conductor*%
%TO.N,/GPIO0*%
G36*
X50246238Y2465163D02*
G01*
X50833061Y1876958D01*
X50836476Y1868885D01*
X50833325Y1860705D01*
X50612798Y1624784D01*
X50464689Y1438676D01*
X50343464Y1272161D01*
X50343160Y1271761D01*
X50195498Y1086214D01*
X50194890Y1085510D01*
X49975230Y850513D01*
X49969964Y847273D01*
X49963782Y847168D01*
X49958410Y850230D01*
X49832213Y976427D01*
X49828853Y983451D01*
X49830643Y991024D01*
X49974924Y1215378D01*
X49948445Y1416005D01*
X49948445Y1416007D01*
X49810201Y1616642D01*
X49803685Y1624784D01*
X49624808Y1848301D01*
X49623801Y1849782D01*
X49461314Y2133187D01*
X49459776Y2139538D01*
X49461885Y2145724D01*
X49466979Y2149811D01*
X50233473Y2467708D01*
X50240242Y2468374D01*
X50246238Y2465163D01*
G37*
%TD.AperFunction*%
%TD*%
%TA.AperFunction,Conductor*%
%TO.N,/GPIO0*%
G36*
X46167605Y-2690498D02*
G01*
X46293372Y-2816265D01*
X46296795Y-2824214D01*
X46293818Y-2832340D01*
X46231200Y-2902313D01*
X46191666Y-2965699D01*
X46167799Y-3027832D01*
X46144903Y-3101971D01*
X46144705Y-3102558D01*
X46112095Y-3191217D01*
X46108494Y-3196257D01*
X46102825Y-3198752D01*
X46096677Y-3198004D01*
X45880760Y-3109500D01*
X45876924Y-3106947D01*
X45874371Y-3103111D01*
X45874144Y-3102558D01*
X45785866Y-2887192D01*
X45785119Y-2881046D01*
X45787614Y-2875377D01*
X45792652Y-2871777D01*
X45881326Y-2839158D01*
X45881882Y-2838971D01*
X45956040Y-2816071D01*
X46018170Y-2792204D01*
X46081559Y-2752668D01*
X46151533Y-2690050D01*
X46159656Y-2687075D01*
X46167605Y-2690498D01*
G37*
%TD.AperFunction*%
%TD*%
%TA.AperFunction,Conductor*%
%TO.N,/GPIO1*%
G36*
X47704488Y2469135D02*
G01*
X48057481Y2322472D01*
X48473349Y2149684D01*
X48478383Y2145676D01*
X48480537Y2139614D01*
X48479160Y2133329D01*
X48301681Y1803967D01*
X48300477Y1802158D01*
X48117156Y1575546D01*
X48117077Y1575449D01*
X47956575Y1381334D01*
X47843054Y1139776D01*
X47801205Y780347D01*
X47797364Y772962D01*
X47789584Y770000D01*
X47610416Y770000D01*
X47602636Y772962D01*
X47598795Y780347D01*
X47556944Y1139776D01*
X47443422Y1381334D01*
X47282920Y1575449D01*
X47282841Y1575546D01*
X47099521Y1802158D01*
X47098317Y1803967D01*
X46920838Y2133331D01*
X46919462Y2139614D01*
X46921616Y2145676D01*
X46926647Y2149683D01*
X47695512Y2469136D01*
X47699999Y2470030D01*
X47704488Y2469135D01*
G37*
%TD.AperFunction*%
%TD*%
%TA.AperFunction,Conductor*%
%TO.N,/GPIO1*%
G36*
X45299407Y-2922300D02*
G01*
X45425174Y-3048068D01*
X45428597Y-3056017D01*
X45425620Y-3064143D01*
X45363002Y-3134116D01*
X45323468Y-3197502D01*
X45299601Y-3259634D01*
X45276705Y-3333774D01*
X45276507Y-3334361D01*
X45243897Y-3423019D01*
X45240296Y-3428059D01*
X45234627Y-3430554D01*
X45228479Y-3429806D01*
X45012562Y-3341302D01*
X45008726Y-3338749D01*
X45006173Y-3334913D01*
X44975316Y-3259634D01*
X44917668Y-3118994D01*
X44916921Y-3112848D01*
X44919416Y-3107179D01*
X44924454Y-3103579D01*
X45013128Y-3070960D01*
X45013684Y-3070773D01*
X45087842Y-3047873D01*
X45149972Y-3024006D01*
X45213361Y-2984470D01*
X45283335Y-2921852D01*
X45291458Y-2918877D01*
X45299407Y-2922300D01*
G37*
%TD.AperFunction*%
%TD*%
%TA.AperFunction,Conductor*%
%TO.N,/GPIO2*%
G36*
X44186263Y-3054280D02*
G01*
X44189904Y-3062131D01*
X44195103Y-3155881D01*
X44211971Y-3228660D01*
X44239028Y-3289471D01*
X44275267Y-3358093D01*
X44275540Y-3358644D01*
X44315170Y-3444392D01*
X44316187Y-3450501D01*
X44313943Y-3456274D01*
X44309066Y-3460093D01*
X44093808Y-3550188D01*
X44089291Y-3551095D01*
X44084774Y-3550188D01*
X43869515Y-3460093D01*
X43864638Y-3456274D01*
X43862394Y-3450501D01*
X43863410Y-3444395D01*
X43903048Y-3358628D01*
X43903302Y-3358113D01*
X43939553Y-3289471D01*
X43966610Y-3228661D01*
X43983477Y-3155883D01*
X43988677Y-3062131D01*
X43992319Y-3054280D01*
X44000360Y-3051079D01*
X44178222Y-3051079D01*
X44186263Y-3054280D01*
G37*
%TD.AperFunction*%
%TD*%
%TA.AperFunction,Conductor*%
%TO.N,/GPIO2*%
G36*
X44385398Y2790865D02*
G01*
X45155512Y2472854D01*
X45159316Y2470316D01*
X45161856Y2466513D01*
X45479953Y1697581D01*
X45480633Y1690906D01*
X45477534Y1684955D01*
X45471675Y1681685D01*
X45107182Y1600856D01*
X45104554Y1600579D01*
X44806280Y1603003D01*
X44753903Y1603428D01*
X44753900Y1603428D01*
X44462019Y1601236D01*
X44262919Y1501942D01*
X44262919Y1501941D01*
X44191539Y1222307D01*
X44187380Y1215961D01*
X44180203Y1213501D01*
X44001288Y1213501D01*
X43995353Y1215118D01*
X43991059Y1219522D01*
X43989592Y1225495D01*
X43996541Y1501941D01*
X43999453Y1617825D01*
X43999539Y1618969D01*
X44007765Y1684955D01*
X44035128Y1904468D01*
X44035484Y1906215D01*
X44104289Y2147439D01*
X44104693Y2148614D01*
X44214997Y2420131D01*
X44370169Y2784635D01*
X44376503Y2790879D01*
X44385398Y2790865D01*
G37*
%TD.AperFunction*%
%TD*%
%TA.AperFunction,Conductor*%
%TO.N,/GPIO9{slash}BOOT*%
G36*
X31977469Y-3656762D02*
G01*
X32103236Y-3782529D01*
X32106659Y-3790478D01*
X32103682Y-3798604D01*
X32041064Y-3868577D01*
X32001530Y-3931963D01*
X31977663Y-3994096D01*
X31954767Y-4068235D01*
X31954569Y-4068822D01*
X31921959Y-4157481D01*
X31918358Y-4162521D01*
X31912689Y-4165016D01*
X31906541Y-4164268D01*
X31690624Y-4075764D01*
X31686788Y-4073211D01*
X31684235Y-4069375D01*
X31684008Y-4068822D01*
X31595730Y-3853456D01*
X31594983Y-3847310D01*
X31597478Y-3841641D01*
X31602516Y-3838041D01*
X31691190Y-3805422D01*
X31691746Y-3805235D01*
X31765904Y-3782335D01*
X31828034Y-3758468D01*
X31891423Y-3718932D01*
X31961397Y-3656314D01*
X31969520Y-3653339D01*
X31977469Y-3656762D01*
G37*
%TD.AperFunction*%
%TD*%
%TA.AperFunction,Conductor*%
%TO.N,/GPIO9{slash}BOOT*%
G36*
X32425256Y-3023930D02*
G01*
X32641176Y-3112435D01*
X32645011Y-3114988D01*
X32647564Y-3118824D01*
X32736068Y-3334741D01*
X32736816Y-3340889D01*
X32734321Y-3346558D01*
X32729281Y-3350159D01*
X32640622Y-3382769D01*
X32640035Y-3382967D01*
X32565896Y-3405863D01*
X32503763Y-3429730D01*
X32440377Y-3469264D01*
X32370404Y-3531882D01*
X32362278Y-3534859D01*
X32354329Y-3531436D01*
X32228562Y-3405669D01*
X32225139Y-3397720D01*
X32228114Y-3389597D01*
X32290732Y-3319623D01*
X32330268Y-3256234D01*
X32354135Y-3194104D01*
X32377035Y-3119946D01*
X32377228Y-3119375D01*
X32378842Y-3114988D01*
X32409841Y-3030716D01*
X32413441Y-3025678D01*
X32419110Y-3023183D01*
X32425256Y-3023930D01*
G37*
%TD.AperFunction*%
%TD*%
%TA.AperFunction,Conductor*%
%TO.N,/DTR*%
G36*
X20810256Y-5478930D02*
G01*
X21026176Y-5567435D01*
X21030011Y-5569988D01*
X21032564Y-5573824D01*
X21121068Y-5789741D01*
X21121816Y-5795889D01*
X21119321Y-5801558D01*
X21114281Y-5805159D01*
X21025622Y-5837769D01*
X21025035Y-5837967D01*
X20950896Y-5860863D01*
X20888763Y-5884730D01*
X20825377Y-5924264D01*
X20755404Y-5986882D01*
X20747278Y-5989859D01*
X20739329Y-5986436D01*
X20613562Y-5860669D01*
X20610139Y-5852720D01*
X20613114Y-5844597D01*
X20675732Y-5774623D01*
X20715268Y-5711234D01*
X20739135Y-5649104D01*
X20762035Y-5574946D01*
X20762228Y-5574375D01*
X20763842Y-5569988D01*
X20794841Y-5485716D01*
X20798441Y-5480678D01*
X20804110Y-5478183D01*
X20810256Y-5478930D01*
G37*
%TD.AperFunction*%
%TD*%
%TA.AperFunction,Conductor*%
%TO.N,/DTR*%
G36*
X15236682Y-8584119D02*
G01*
X15322448Y-8623756D01*
X15322977Y-8624019D01*
X15391607Y-8660262D01*
X15452416Y-8687319D01*
X15525195Y-8704186D01*
X15557880Y-8705999D01*
X15618948Y-8709387D01*
X15626799Y-8713028D01*
X15630000Y-8721069D01*
X15630000Y-8898931D01*
X15626799Y-8906972D01*
X15618948Y-8910613D01*
X15525196Y-8915812D01*
X15452416Y-8932680D01*
X15391606Y-8959737D01*
X15322990Y-8995972D01*
X15322435Y-8996247D01*
X15236687Y-9035878D01*
X15230577Y-9036895D01*
X15224804Y-9034651D01*
X15220985Y-9029774D01*
X15166221Y-8898931D01*
X15130889Y-8814514D01*
X15129983Y-8810000D01*
X15130889Y-8805485D01*
X15220986Y-8590221D01*
X15224804Y-8585347D01*
X15230577Y-8583103D01*
X15236682Y-8584119D01*
G37*
%TD.AperFunction*%
%TD*%
%TA.AperFunction,Conductor*%
%TO.N,/U0RXD*%
G36*
X44040380Y-8970162D02*
G01*
X44044199Y-8975039D01*
X44134294Y-9190298D01*
X44135201Y-9194815D01*
X44134294Y-9199332D01*
X44044199Y-9414590D01*
X44040380Y-9419467D01*
X44034607Y-9421711D01*
X44028499Y-9420694D01*
X43942750Y-9381064D01*
X43942199Y-9380791D01*
X43873577Y-9344552D01*
X43812767Y-9317495D01*
X43790810Y-9312406D01*
X43739987Y-9300627D01*
X43646237Y-9295428D01*
X43638386Y-9291787D01*
X43635185Y-9283746D01*
X43635185Y-9105884D01*
X43638386Y-9097843D01*
X43646237Y-9094202D01*
X43692803Y-9091618D01*
X43739989Y-9089001D01*
X43812767Y-9072134D01*
X43873577Y-9045077D01*
X43942219Y-9008826D01*
X43942734Y-9008572D01*
X44028501Y-8968934D01*
X44034607Y-8967918D01*
X44040380Y-8970162D01*
G37*
%TD.AperFunction*%
%TD*%
%TA.AperFunction,Conductor*%
%TO.N,/U0RXD*%
G36*
X7845541Y2788305D02*
G01*
X7849012Y2782888D01*
X7956410Y2424493D01*
X7956837Y2422363D01*
X7987444Y2132539D01*
X7987397Y2132535D01*
X7987458Y2132414D01*
X8011230Y1881625D01*
X8101764Y1630545D01*
X8326327Y1346798D01*
X8328833Y1338859D01*
X8325426Y1331264D01*
X8198736Y1204574D01*
X8191141Y1201167D01*
X8183202Y1203673D01*
X7899455Y1428236D01*
X7648375Y1518770D01*
X7397604Y1542541D01*
X7397479Y1542554D01*
X7107637Y1573163D01*
X7105507Y1573590D01*
X6832248Y1655476D01*
X6747111Y1680989D01*
X6741695Y1684459D01*
X6738931Y1690269D01*
X6739656Y1696660D01*
X7057439Y2466220D01*
X7059978Y2470022D01*
X7063780Y2472561D01*
X7833340Y2790344D01*
X7839731Y2791069D01*
X7845541Y2788305D01*
G37*
%TD.AperFunction*%
%TD*%
%TA.AperFunction,Conductor*%
%TO.N,/U0RXD*%
G36*
X8776972Y-1003201D02*
G01*
X8780613Y-1011052D01*
X8785812Y-1104802D01*
X8802680Y-1177581D01*
X8829737Y-1238392D01*
X8865976Y-1307014D01*
X8866249Y-1307565D01*
X8905879Y-1393313D01*
X8906896Y-1399422D01*
X8904652Y-1405195D01*
X8899775Y-1409014D01*
X8684517Y-1499109D01*
X8680000Y-1500016D01*
X8675483Y-1499109D01*
X8460224Y-1409014D01*
X8455347Y-1405195D01*
X8453103Y-1399422D01*
X8454119Y-1393316D01*
X8493757Y-1307549D01*
X8494011Y-1307034D01*
X8530262Y-1238392D01*
X8557319Y-1177582D01*
X8574186Y-1104804D01*
X8579386Y-1011052D01*
X8583028Y-1003201D01*
X8591069Y-1000000D01*
X8768931Y-1000000D01*
X8776972Y-1003201D01*
G37*
%TD.AperFunction*%
%TD*%
%TA.AperFunction,Conductor*%
%TO.N,/U0RXD*%
G36*
X10674514Y-1510889D02*
G01*
X10884751Y-1598883D01*
X10889774Y-1600985D01*
X10894651Y-1604804D01*
X10896895Y-1610577D01*
X10895878Y-1616687D01*
X10856247Y-1702435D01*
X10855972Y-1702990D01*
X10819737Y-1771606D01*
X10792680Y-1832416D01*
X10775812Y-1905196D01*
X10770613Y-1998948D01*
X10766972Y-2006799D01*
X10758931Y-2010000D01*
X10581069Y-2010000D01*
X10573028Y-2006799D01*
X10569387Y-1998948D01*
X10564186Y-1905196D01*
X10564186Y-1905195D01*
X10547319Y-1832416D01*
X10520262Y-1771607D01*
X10484019Y-1702977D01*
X10483756Y-1702448D01*
X10444119Y-1616682D01*
X10443103Y-1610577D01*
X10445347Y-1604804D01*
X10450221Y-1600986D01*
X10665485Y-1510889D01*
X10670000Y-1509983D01*
X10674514Y-1510889D01*
G37*
%TD.AperFunction*%
%TD*%
%TA.AperFunction,Conductor*%
%TO.N,/U0RXD*%
G36*
X10766972Y-4013201D02*
G01*
X10770613Y-4021052D01*
X10775812Y-4114802D01*
X10792680Y-4187581D01*
X10819737Y-4248392D01*
X10855976Y-4317014D01*
X10856249Y-4317565D01*
X10895879Y-4403313D01*
X10896896Y-4409422D01*
X10894652Y-4415195D01*
X10889775Y-4419014D01*
X10674517Y-4509109D01*
X10670000Y-4510016D01*
X10665483Y-4509109D01*
X10450224Y-4419014D01*
X10445347Y-4415195D01*
X10443103Y-4409422D01*
X10444119Y-4403316D01*
X10483757Y-4317549D01*
X10484011Y-4317034D01*
X10520262Y-4248392D01*
X10547319Y-4187582D01*
X10564186Y-4114804D01*
X10569386Y-4021052D01*
X10573028Y-4013201D01*
X10581069Y-4010000D01*
X10758931Y-4010000D01*
X10766972Y-4013201D01*
G37*
%TD.AperFunction*%
%TD*%
%TA.AperFunction,Conductor*%
%TO.N,/U0RXD*%
G36*
X10766740Y95230D02*
G01*
X10852292Y54724D01*
X10853045Y54333D01*
X10921010Y15792D01*
X10981088Y-14043D01*
X11053318Y-33220D01*
X11132517Y-38344D01*
X11147165Y-39292D01*
X11154946Y-42966D01*
X11158110Y-50968D01*
X11158110Y-228840D01*
X11154876Y-236916D01*
X11146962Y-240526D01*
X11131913Y-241237D01*
X11054186Y-244910D01*
X10981574Y-259592D01*
X10920686Y-283962D01*
X10852101Y-317857D01*
X10851738Y-318029D01*
X10766637Y-356510D01*
X10760551Y-357480D01*
X10754816Y-355224D01*
X10751023Y-350366D01*
X10737489Y-318029D01*
X10660889Y-135014D01*
X10659983Y-130500D01*
X10660889Y-125985D01*
X10750942Y89174D01*
X10754789Y94070D01*
X10760605Y96299D01*
X10766740Y95230D01*
G37*
%TD.AperFunction*%
%TD*%
%TA.AperFunction,Conductor*%
%TO.N,/U0TXD*%
G36*
X44730256Y-9148930D02*
G01*
X44946176Y-9237435D01*
X44950011Y-9239988D01*
X44952564Y-9243824D01*
X45041068Y-9459741D01*
X45041816Y-9465889D01*
X45039321Y-9471558D01*
X45034281Y-9475159D01*
X44945622Y-9507769D01*
X44945035Y-9507967D01*
X44870896Y-9530863D01*
X44808763Y-9554730D01*
X44745377Y-9594264D01*
X44675404Y-9656882D01*
X44667278Y-9659859D01*
X44659329Y-9656436D01*
X44533562Y-9530669D01*
X44530139Y-9522720D01*
X44533114Y-9514597D01*
X44595732Y-9444623D01*
X44635268Y-9381234D01*
X44659135Y-9319104D01*
X44682035Y-9244946D01*
X44682228Y-9244375D01*
X44683842Y-9239988D01*
X44714841Y-9155716D01*
X44718441Y-9150678D01*
X44724110Y-9148183D01*
X44730256Y-9148930D01*
G37*
%TD.AperFunction*%
%TD*%
%TA.AperFunction,Conductor*%
%TO.N,/U0TXD*%
G36*
X9604488Y2469135D02*
G01*
X10373375Y2149673D01*
X10378404Y2145672D01*
X10380562Y2139620D01*
X10379198Y2133340D01*
X10203161Y1804951D01*
X10201994Y1803182D01*
X10021195Y1576599D01*
X10021136Y1576524D01*
X9863399Y1382107D01*
X9752128Y1140639D01*
X9711185Y782361D01*
X9707350Y774959D01*
X9699561Y771989D01*
X9520390Y771989D01*
X9512621Y774940D01*
X9508772Y782306D01*
X9465954Y1141959D01*
X9465953Y1141960D01*
X9350051Y1382849D01*
X9186641Y1576027D01*
X9000786Y1801995D01*
X8999538Y1803849D01*
X8998940Y1804951D01*
X8820886Y2133315D01*
X8819493Y2139606D01*
X8821642Y2145681D01*
X8826680Y2149697D01*
X9595512Y2469136D01*
X9599999Y2470030D01*
X9604488Y2469135D01*
G37*
%TD.AperFunction*%
%TD*%
%TA.AperFunction,Conductor*%
%TO.N,/U0TXD*%
G36*
X10405403Y-5003115D02*
G01*
X10468094Y-5059216D01*
X10475377Y-5065733D01*
X10496505Y-5078910D01*
X10538764Y-5105268D01*
X10600895Y-5129135D01*
X10600899Y-5129136D01*
X10600901Y-5129137D01*
X10675035Y-5152030D01*
X10675618Y-5152226D01*
X10764281Y-5184840D01*
X10769321Y-5188441D01*
X10771816Y-5194110D01*
X10771068Y-5200258D01*
X10682564Y-5416175D01*
X10680011Y-5420011D01*
X10676175Y-5422564D01*
X10460258Y-5511068D01*
X10454110Y-5511816D01*
X10448441Y-5509321D01*
X10444840Y-5504281D01*
X10414098Y-5420707D01*
X10412226Y-5415618D01*
X10412030Y-5415035D01*
X10389137Y-5340901D01*
X10389135Y-5340895D01*
X10365268Y-5278764D01*
X10325732Y-5215376D01*
X10263115Y-5145403D01*
X10260139Y-5137279D01*
X10263561Y-5129331D01*
X10389331Y-5003561D01*
X10397279Y-5000139D01*
X10405403Y-5003115D01*
G37*
%TD.AperFunction*%
%TD*%
%TA.AperFunction,Conductor*%
%TO.N,/SPIQ*%
G36*
X36288643Y-14015691D02*
G01*
X36523834Y-14206907D01*
X36735000Y-14285918D01*
X36950431Y-14289089D01*
X37206300Y-14259477D01*
X37206902Y-14259424D01*
X37527630Y-14240721D01*
X37533759Y-14242048D01*
X37538324Y-14246350D01*
X37540010Y-14252391D01*
X37540700Y-15082872D01*
X37538727Y-15089383D01*
X37533466Y-15093696D01*
X36766037Y-15410600D01*
X36759850Y-15411359D01*
X36754151Y-15408832D01*
X36750559Y-15403739D01*
X36635195Y-15082334D01*
X36634946Y-15081553D01*
X36564943Y-14832574D01*
X36493084Y-14623383D01*
X36493083Y-14623380D01*
X36368204Y-14410595D01*
X36368203Y-14410594D01*
X36368202Y-14410592D01*
X36261163Y-14289089D01*
X36146292Y-14158694D01*
X36143378Y-14150592D01*
X36146798Y-14142690D01*
X36272992Y-14016496D01*
X36280663Y-14013085D01*
X36288643Y-14015691D01*
G37*
%TD.AperFunction*%
%TD*%
%TA.AperFunction,Conductor*%
%TO.N,/SPIQ*%
G36*
X26421931Y-2818811D02*
G01*
X26426168Y-2824748D01*
X26704612Y-3716032D01*
X26703900Y-3724771D01*
X26667814Y-3796640D01*
X26629614Y-3885621D01*
X26591407Y-3987520D01*
X26553206Y-4102301D01*
X26517497Y-4221654D01*
X26513276Y-4227684D01*
X26506288Y-4230000D01*
X26323712Y-4230000D01*
X26316724Y-4227684D01*
X26312503Y-4221654D01*
X26306869Y-4202825D01*
X26276795Y-4102309D01*
X26238591Y-3987518D01*
X26200386Y-3885626D01*
X26162182Y-3796635D01*
X26126098Y-3724769D01*
X26125387Y-3716034D01*
X26403832Y-2824747D01*
X26408069Y-2818811D01*
X26415000Y-2816537D01*
X26421931Y-2818811D01*
G37*
%TD.AperFunction*%
%TD*%
%TA.AperFunction,Conductor*%
%TO.N,/SPID*%
G36*
X33876797Y-13823672D02*
G01*
X34160543Y-14048234D01*
X34302132Y-14099288D01*
X34411624Y-14138769D01*
X34662412Y-14162540D01*
X34947096Y-14192604D01*
X34952361Y-14193160D01*
X34954491Y-14193587D01*
X35312889Y-14300988D01*
X35318304Y-14304458D01*
X35321068Y-14310268D01*
X35320342Y-14316661D01*
X35002562Y-15086214D01*
X35000021Y-15090021D01*
X34996214Y-15092562D01*
X34226661Y-15410342D01*
X34220268Y-15411068D01*
X34214458Y-15408304D01*
X34210988Y-15402889D01*
X34103587Y-15044491D01*
X34103160Y-15042361D01*
X34072551Y-14752518D01*
X34072538Y-14752393D01*
X34048769Y-14501624D01*
X33982075Y-14316661D01*
X33958234Y-14250543D01*
X33733672Y-13966797D01*
X33731166Y-13958858D01*
X33734572Y-13951264D01*
X33861264Y-13824572D01*
X33868858Y-13821166D01*
X33876797Y-13823672D01*
G37*
%TD.AperFunction*%
%TD*%
%TA.AperFunction,Conductor*%
%TO.N,/SPID*%
G36*
X29273001Y-9540466D02*
G01*
X29278255Y-9543633D01*
X29332996Y-9600879D01*
X29381552Y-9642839D01*
X29395999Y-9655323D01*
X29459000Y-9698323D01*
X29459002Y-9698324D01*
X29521997Y-9729881D01*
X29521999Y-9729881D01*
X29522000Y-9729882D01*
X29576859Y-9747400D01*
X29582748Y-9751645D01*
X29585000Y-9758546D01*
X29585000Y-9941454D01*
X29582748Y-9948355D01*
X29576860Y-9952599D01*
X29559684Y-9958083D01*
X29521997Y-9970117D01*
X29459001Y-10001674D01*
X29395999Y-10044676D01*
X29332996Y-10099119D01*
X29278255Y-10156366D01*
X29273001Y-10159533D01*
X29266867Y-10159607D01*
X29261539Y-10156566D01*
X28962311Y-9858285D01*
X28959272Y-9853034D01*
X28959272Y-9846966D01*
X28962312Y-9841714D01*
X29054317Y-9750000D01*
X29261541Y-9543431D01*
X29266867Y-9540392D01*
X29273001Y-9540466D01*
G37*
%TD.AperFunction*%
%TD*%
%TA.AperFunction,Conductor*%
%TO.N,/SPICLK*%
G36*
X31336797Y-13823672D02*
G01*
X31620543Y-14048234D01*
X31762132Y-14099288D01*
X31871624Y-14138769D01*
X32122412Y-14162540D01*
X32407096Y-14192604D01*
X32412361Y-14193160D01*
X32414491Y-14193587D01*
X32772889Y-14300988D01*
X32778304Y-14304458D01*
X32781068Y-14310268D01*
X32780342Y-14316661D01*
X32462562Y-15086214D01*
X32460021Y-15090021D01*
X32456214Y-15092562D01*
X31686661Y-15410342D01*
X31680268Y-15411068D01*
X31674458Y-15408304D01*
X31670988Y-15402889D01*
X31563587Y-15044491D01*
X31563160Y-15042361D01*
X31532551Y-14752518D01*
X31532538Y-14752393D01*
X31508769Y-14501624D01*
X31442075Y-14316661D01*
X31418234Y-14250543D01*
X31193672Y-13966797D01*
X31191166Y-13958858D01*
X31194572Y-13951264D01*
X31321264Y-13824572D01*
X31328858Y-13821166D01*
X31336797Y-13823672D01*
G37*
%TD.AperFunction*%
%TD*%
%TA.AperFunction,Conductor*%
%TO.N,/SPICLK*%
G36*
X27691931Y-9878811D02*
G01*
X27696168Y-9884748D01*
X27974612Y-10776032D01*
X27973900Y-10784771D01*
X27937814Y-10856640D01*
X27899614Y-10945621D01*
X27861407Y-11047520D01*
X27823206Y-11162301D01*
X27787497Y-11281654D01*
X27783276Y-11287684D01*
X27776288Y-11290000D01*
X27593712Y-11290000D01*
X27586724Y-11287684D01*
X27582503Y-11281654D01*
X27576869Y-11262825D01*
X27546795Y-11162309D01*
X27508591Y-11047518D01*
X27470386Y-10945626D01*
X27432182Y-10856635D01*
X27396098Y-10784769D01*
X27395387Y-10776034D01*
X27673832Y-9884747D01*
X27678069Y-9878811D01*
X27685000Y-9876537D01*
X27691931Y-9878811D01*
G37*
%TD.AperFunction*%
%TD*%
%TA.AperFunction,Conductor*%
%TO.N,/SPICS0*%
G36*
X25151931Y-2818811D02*
G01*
X25156168Y-2824748D01*
X25434612Y-3716032D01*
X25433900Y-3724771D01*
X25397814Y-3796640D01*
X25359614Y-3885621D01*
X25321407Y-3987520D01*
X25283206Y-4102301D01*
X25247497Y-4221654D01*
X25243276Y-4227684D01*
X25236288Y-4230000D01*
X25053712Y-4230000D01*
X25046724Y-4227684D01*
X25042503Y-4221654D01*
X25036869Y-4202825D01*
X25006795Y-4102309D01*
X24968591Y-3987518D01*
X24930386Y-3885626D01*
X24892182Y-3796635D01*
X24856098Y-3724769D01*
X24855387Y-3716034D01*
X25133832Y-2824747D01*
X25138069Y-2818811D01*
X25145000Y-2816537D01*
X25151931Y-2818811D01*
G37*
%TD.AperFunction*%
%TD*%
%TA.AperFunction,Conductor*%
%TO.N,/SPICS0*%
G36*
X28796797Y-13823672D02*
G01*
X29080543Y-14048234D01*
X29222132Y-14099288D01*
X29331624Y-14138769D01*
X29582412Y-14162540D01*
X29867096Y-14192604D01*
X29872361Y-14193160D01*
X29874491Y-14193587D01*
X30232889Y-14300988D01*
X30238304Y-14304458D01*
X30241068Y-14310268D01*
X30240342Y-14316661D01*
X29922562Y-15086214D01*
X29920021Y-15090021D01*
X29916214Y-15092562D01*
X29146661Y-15410342D01*
X29140268Y-15411068D01*
X29134458Y-15408304D01*
X29130988Y-15402889D01*
X29023587Y-15044491D01*
X29023160Y-15042361D01*
X28992551Y-14752518D01*
X28992538Y-14752393D01*
X28968769Y-14501624D01*
X28902075Y-14316661D01*
X28878234Y-14250543D01*
X28653672Y-13966797D01*
X28651166Y-13958858D01*
X28654572Y-13951264D01*
X28781264Y-13824572D01*
X28788858Y-13821166D01*
X28796797Y-13823672D01*
G37*
%TD.AperFunction*%
%TD*%
%TA.AperFunction,Conductor*%
%TO.N,Net-(USB1-CC1)*%
G36*
X13976682Y-10714119D02*
G01*
X14062448Y-10753756D01*
X14062977Y-10754019D01*
X14131607Y-10790262D01*
X14192416Y-10817319D01*
X14265195Y-10834186D01*
X14297880Y-10835999D01*
X14358948Y-10839387D01*
X14366799Y-10843028D01*
X14370000Y-10851069D01*
X14370000Y-11028931D01*
X14366799Y-11036972D01*
X14358948Y-11040613D01*
X14265196Y-11045812D01*
X14192416Y-11062680D01*
X14131606Y-11089737D01*
X14062990Y-11125972D01*
X14062435Y-11126247D01*
X13976687Y-11165878D01*
X13970577Y-11166895D01*
X13964804Y-11164651D01*
X13960985Y-11159774D01*
X13906221Y-11028931D01*
X13870889Y-10944514D01*
X13869983Y-10940000D01*
X13870889Y-10935485D01*
X13960986Y-10720221D01*
X13964804Y-10715347D01*
X13970577Y-10713103D01*
X13976682Y-10714119D01*
G37*
%TD.AperFunction*%
%TD*%
%TA.AperFunction,Conductor*%
%TO.N,Net-(USB1-CC1)*%
G36*
X10366972Y-8273201D02*
G01*
X10370613Y-8281052D01*
X10375812Y-8374802D01*
X10392680Y-8447581D01*
X10419737Y-8508392D01*
X10455976Y-8577014D01*
X10456249Y-8577565D01*
X10495879Y-8663313D01*
X10496896Y-8669422D01*
X10494652Y-8675195D01*
X10489775Y-8679014D01*
X10274517Y-8769109D01*
X10270000Y-8770016D01*
X10265483Y-8769109D01*
X10050224Y-8679014D01*
X10045347Y-8675195D01*
X10043103Y-8669422D01*
X10044119Y-8663316D01*
X10083757Y-8577549D01*
X10084011Y-8577034D01*
X10120262Y-8508392D01*
X10147319Y-8447582D01*
X10164186Y-8374804D01*
X10169386Y-8281052D01*
X10173028Y-8273201D01*
X10181069Y-8270000D01*
X10358931Y-8270000D01*
X10366972Y-8273201D01*
G37*
%TD.AperFunction*%
%TD*%
%TA.AperFunction,Conductor*%
%TO.N,Net-(USB1-CC1)*%
G36*
X17210256Y-9958930D02*
G01*
X17426176Y-10047435D01*
X17430011Y-10049988D01*
X17432564Y-10053824D01*
X17521068Y-10269741D01*
X17521816Y-10275889D01*
X17519321Y-10281558D01*
X17514281Y-10285159D01*
X17425622Y-10317769D01*
X17425035Y-10317967D01*
X17350896Y-10340863D01*
X17288763Y-10364730D01*
X17225377Y-10404264D01*
X17155404Y-10466882D01*
X17147278Y-10469859D01*
X17139329Y-10466436D01*
X17013562Y-10340669D01*
X17010139Y-10332720D01*
X17013114Y-10324597D01*
X17075732Y-10254623D01*
X17115268Y-10191234D01*
X17139135Y-10129104D01*
X17162035Y-10054946D01*
X17162228Y-10054375D01*
X17163842Y-10049988D01*
X17194841Y-9965716D01*
X17198441Y-9960678D01*
X17204110Y-9958183D01*
X17210256Y-9958930D01*
G37*
%TD.AperFunction*%
%TD*%
%TA.AperFunction,Conductor*%
%TO.N,Net-(USB1-CC1)*%
G36*
X9641558Y-5020678D02*
G01*
X9645159Y-5025718D01*
X9677769Y-5114375D01*
X9677967Y-5114962D01*
X9700863Y-5189102D01*
X9724730Y-5251234D01*
X9764264Y-5314621D01*
X9826882Y-5384595D01*
X9829859Y-5392721D01*
X9826436Y-5400670D01*
X9700670Y-5526436D01*
X9692721Y-5529859D01*
X9684595Y-5526882D01*
X9614621Y-5464264D01*
X9551234Y-5424730D01*
X9489102Y-5400863D01*
X9414962Y-5377967D01*
X9414375Y-5377769D01*
X9325718Y-5345159D01*
X9320678Y-5341558D01*
X9318183Y-5335889D01*
X9318930Y-5329743D01*
X9407436Y-5113821D01*
X9409988Y-5109988D01*
X9413821Y-5107436D01*
X9629743Y-5018930D01*
X9635889Y-5018183D01*
X9641558Y-5020678D01*
G37*
%TD.AperFunction*%
%TD*%
%TA.AperFunction,Conductor*%
%TO.N,/USB_Data-*%
G36*
X6074514Y-5600889D02*
G01*
X6284751Y-5688883D01*
X6289774Y-5690985D01*
X6294651Y-5694804D01*
X6296895Y-5700577D01*
X6295878Y-5706687D01*
X6256247Y-5792435D01*
X6255972Y-5792990D01*
X6219737Y-5861606D01*
X6192680Y-5922416D01*
X6175812Y-5995196D01*
X6170613Y-6088948D01*
X6166972Y-6096799D01*
X6158931Y-6100000D01*
X5981069Y-6100000D01*
X5973028Y-6096799D01*
X5969387Y-6088948D01*
X5964186Y-5995196D01*
X5964186Y-5995195D01*
X5947319Y-5922416D01*
X5920262Y-5861607D01*
X5884019Y-5792977D01*
X5883756Y-5792448D01*
X5844119Y-5706682D01*
X5843103Y-5700577D01*
X5845347Y-5694804D01*
X5850221Y-5690986D01*
X6065485Y-5600889D01*
X6070000Y-5599983D01*
X6074514Y-5600889D01*
G37*
%TD.AperFunction*%
%TD*%
%TA.AperFunction,Conductor*%
%TO.N,/USB_Data-*%
G36*
X6166972Y-6103701D02*
G01*
X6170613Y-6111552D01*
X6175812Y-6205302D01*
X6192680Y-6278081D01*
X6219737Y-6338892D01*
X6255976Y-6407514D01*
X6256249Y-6408065D01*
X6295879Y-6493813D01*
X6296896Y-6499922D01*
X6294652Y-6505695D01*
X6289775Y-6509514D01*
X6074516Y-6599609D01*
X6069999Y-6600516D01*
X6065482Y-6599609D01*
X5850224Y-6509514D01*
X5845347Y-6505695D01*
X5843103Y-6499922D01*
X5844119Y-6493816D01*
X5883757Y-6408049D01*
X5884011Y-6407534D01*
X5920262Y-6338892D01*
X5947319Y-6278082D01*
X5964186Y-6205304D01*
X5969386Y-6111552D01*
X5973028Y-6103701D01*
X5981069Y-6100500D01*
X6158931Y-6100500D01*
X6166972Y-6103701D01*
G37*
%TD.AperFunction*%
%TD*%
%TA.AperFunction,Conductor*%
%TO.N,Net-(VT2-B)*%
G36*
X20800256Y-1608930D02*
G01*
X21016176Y-1697435D01*
X21020011Y-1699988D01*
X21022564Y-1703824D01*
X21111068Y-1919741D01*
X21111816Y-1925889D01*
X21109321Y-1931558D01*
X21104281Y-1935159D01*
X21015622Y-1967769D01*
X21015035Y-1967967D01*
X20940896Y-1990863D01*
X20878763Y-2014730D01*
X20815377Y-2054264D01*
X20745404Y-2116882D01*
X20737278Y-2119859D01*
X20729329Y-2116436D01*
X20603562Y-1990669D01*
X20600139Y-1982720D01*
X20603114Y-1974597D01*
X20665732Y-1904623D01*
X20705268Y-1841234D01*
X20729135Y-1779104D01*
X20752035Y-1704946D01*
X20752228Y-1704375D01*
X20753842Y-1699988D01*
X20784841Y-1615716D01*
X20788441Y-1610678D01*
X20794110Y-1608183D01*
X20800256Y-1608930D01*
G37*
%TD.AperFunction*%
%TD*%
%TA.AperFunction,Conductor*%
%TO.N,Net-(VT2-B)*%
G36*
X19500669Y-5173562D02*
G01*
X19626436Y-5299329D01*
X19629859Y-5307278D01*
X19626882Y-5315404D01*
X19564264Y-5385377D01*
X19524730Y-5448763D01*
X19500863Y-5510896D01*
X19477967Y-5585035D01*
X19477769Y-5585622D01*
X19445159Y-5674281D01*
X19441558Y-5679321D01*
X19435889Y-5681816D01*
X19429741Y-5681068D01*
X19213824Y-5592564D01*
X19209988Y-5590011D01*
X19207435Y-5586175D01*
X19207208Y-5585622D01*
X19118930Y-5370256D01*
X19118183Y-5364110D01*
X19120678Y-5358441D01*
X19125716Y-5354841D01*
X19214390Y-5322222D01*
X19214946Y-5322035D01*
X19289104Y-5299135D01*
X19351234Y-5275268D01*
X19414623Y-5235732D01*
X19484597Y-5173114D01*
X19492720Y-5170139D01*
X19500669Y-5173562D01*
G37*
%TD.AperFunction*%
%TD*%
%TA.AperFunction,Conductor*%
%TO.N,Net-(USB1-CC2)*%
G36*
X17990256Y-7238930D02*
G01*
X18206176Y-7327435D01*
X18210011Y-7329988D01*
X18212564Y-7333824D01*
X18301068Y-7549741D01*
X18301816Y-7555889D01*
X18299321Y-7561558D01*
X18294281Y-7565159D01*
X18205622Y-7597769D01*
X18205035Y-7597967D01*
X18130896Y-7620863D01*
X18068763Y-7644730D01*
X18005377Y-7684264D01*
X17935404Y-7746882D01*
X17927278Y-7749859D01*
X17919329Y-7746436D01*
X17793562Y-7620669D01*
X17790139Y-7612720D01*
X17793114Y-7604597D01*
X17855732Y-7534623D01*
X17895268Y-7471234D01*
X17919135Y-7409104D01*
X17942035Y-7334946D01*
X17942228Y-7334375D01*
X17943842Y-7329988D01*
X17974841Y-7245716D01*
X17978441Y-7240678D01*
X17984110Y-7238183D01*
X17990256Y-7238930D01*
G37*
%TD.AperFunction*%
%TD*%
%TA.AperFunction,Conductor*%
%TO.N,Net-(USB1-CC2)*%
G36*
X12656682Y-7864119D02*
G01*
X12742448Y-7903756D01*
X12742977Y-7904019D01*
X12811607Y-7940262D01*
X12872416Y-7967319D01*
X12945195Y-7984186D01*
X12977880Y-7985999D01*
X13038948Y-7989387D01*
X13046799Y-7993028D01*
X13050000Y-8001069D01*
X13050000Y-8178931D01*
X13046799Y-8186972D01*
X13038948Y-8190613D01*
X12945196Y-8195812D01*
X12872416Y-8212680D01*
X12811606Y-8239737D01*
X12742990Y-8275972D01*
X12742435Y-8276247D01*
X12656687Y-8315878D01*
X12650577Y-8316895D01*
X12644804Y-8314651D01*
X12640985Y-8309774D01*
X12586221Y-8178931D01*
X12550889Y-8094514D01*
X12549983Y-8090000D01*
X12550889Y-8085485D01*
X12640986Y-7870221D01*
X12644804Y-7865347D01*
X12650577Y-7863103D01*
X12656682Y-7864119D01*
G37*
%TD.AperFunction*%
%TD*%
M02*
