%TF.GenerationSoftware,KiCad,Pcbnew,7.0.11*%
%TF.CreationDate,2024-03-05T15:51:11+08:00*%
%TF.ProjectId,UINIO-MCU-ESP32C3,55494e49-4f2d-44d4-9355-2d4553503332,Version 3.6.0*%
%TF.SameCoordinates,PX7367750PY5b66700*%
%TF.FileFunction,Soldermask,Bot*%
%TF.FilePolarity,Negative*%
%FSLAX46Y46*%
G04 Gerber Fmt 4.6, Leading zero omitted, Abs format (unit mm)*
G04 Created by KiCad (PCBNEW 7.0.11) date 2024-03-05 15:51:11*
%MOMM*%
%LPD*%
G01*
G04 APERTURE LIST*
G04 Aperture macros list*
%AMRoundRect*
0 Rectangle with rounded corners*
0 $1 Rounding radius*
0 $2 $3 $4 $5 $6 $7 $8 $9 X,Y pos of 4 corners*
0 Add a 4 corners polygon primitive as box body*
4,1,4,$2,$3,$4,$5,$6,$7,$8,$9,$2,$3,0*
0 Add four circle primitives for the rounded corners*
1,1,$1+$1,$2,$3*
1,1,$1+$1,$4,$5*
1,1,$1+$1,$6,$7*
1,1,$1+$1,$8,$9*
0 Add four rect primitives between the rounded corners*
20,1,$1+$1,$2,$3,$4,$5,0*
20,1,$1+$1,$4,$5,$6,$7,0*
20,1,$1+$1,$6,$7,$8,$9,0*
20,1,$1+$1,$8,$9,$2,$3,0*%
G04 Aperture macros list end*
%ADD10C,1.200000*%
%ADD11C,0.610000*%
%ADD12R,1.700000X1.700000*%
%ADD13O,1.700000X1.700000*%
%ADD14C,0.650000*%
%ADD15O,2.100000X1.000000*%
%ADD16O,1.900000X1.000000*%
%ADD17O,0.630000X2.250000*%
%ADD18RoundRect,0.140000X0.170000X-0.140000X0.170000X0.140000X-0.170000X0.140000X-0.170000X-0.140000X0*%
G04 APERTURE END LIST*
D10*
%TO.C,HOLE2*%
X14610000Y1680000D03*
%TD*%
D11*
%TO.C,U3*%
X43149558Y-7140000D03*
X42301030Y-6291472D03*
X42301030Y-7988528D03*
X41452502Y-7140000D03*
%TD*%
D10*
%TO.C,HOLE1*%
X1860000Y800000D03*
%TD*%
D12*
%TO.C,J2*%
X12090000Y1680000D03*
D13*
X9550000Y1680000D03*
X7010000Y1680000D03*
X4470000Y1680000D03*
%TD*%
D10*
%TO.C,HOLE3*%
X55090000Y1680000D03*
%TD*%
D14*
%TO.C,USB1*%
X5699000Y-4250000D03*
X5699000Y-10030000D03*
D15*
X6199000Y-2815000D03*
X6199000Y-11465000D03*
D16*
X1999000Y-2815000D03*
X1999000Y-11465000D03*
%TD*%
D10*
%TO.C,HOLE4*%
X55090000Y-15950000D03*
%TD*%
%TO.C,HOLE5*%
X1860000Y-15000000D03*
%TD*%
D12*
%TO.C,J3*%
X52720000Y-15950000D03*
D13*
X50180000Y-15950000D03*
X47640000Y-15950000D03*
X45100000Y-15950000D03*
X42560000Y-15950000D03*
X40020000Y-15950000D03*
X37480000Y-15950000D03*
X34940000Y-15950000D03*
X32400000Y-15950000D03*
X29860000Y-15950000D03*
X27320000Y-15950000D03*
X24780000Y-15950000D03*
X22240000Y-15950000D03*
X19700000Y-15950000D03*
X17160000Y-15950000D03*
%TD*%
D17*
%TO.C,U2*%
X25095000Y-3580000D03*
X26365000Y-3580000D03*
X27635000Y-3580000D03*
X28905000Y-3580000D03*
X28905000Y-10640000D03*
X27635000Y-10640000D03*
X26365000Y-10640000D03*
X25095000Y-10640000D03*
%TD*%
D18*
%TO.C,C1*%
X23350000Y-7590000D03*
X23350000Y-6630000D03*
%TD*%
D12*
%TO.C,J1*%
X52730000Y1680000D03*
D13*
X50190000Y1680000D03*
X47650000Y1680000D03*
X45110000Y1680000D03*
X42570000Y1680000D03*
X40030000Y1680000D03*
X37490000Y1680000D03*
X34950000Y1680000D03*
X32410000Y1680000D03*
X29870000Y1680000D03*
X27330000Y1680000D03*
X24790000Y1680000D03*
X22250000Y1680000D03*
X19710000Y1680000D03*
X17170000Y1680000D03*
%TD*%
M02*
