%TF.GenerationSoftware,KiCad,Pcbnew,7.0.11*%
%TF.CreationDate,2024-03-30T21:52:11+08:00*%
%TF.ProjectId,UINIO-MCU-ESP32C3,55494e49-4f2d-44d4-9355-2d4553503332,Version 3.6.2*%
%TF.SameCoordinates,PX7367750PY5b66700*%
%TF.FileFunction,Soldermask,Top*%
%TF.FilePolarity,Negative*%
%FSLAX46Y46*%
G04 Gerber Fmt 4.6, Leading zero omitted, Abs format (unit mm)*
G04 Created by KiCad (PCBNEW 7.0.11) date 2024-03-30 21:52:11*
%MOMM*%
%LPD*%
G01*
G04 APERTURE LIST*
G04 Aperture macros list*
%AMRoundRect*
0 Rectangle with rounded corners*
0 $1 Rounding radius*
0 $2 $3 $4 $5 $6 $7 $8 $9 X,Y pos of 4 corners*
0 Add a 4 corners polygon primitive as box body*
4,1,4,$2,$3,$4,$5,$6,$7,$8,$9,$2,$3,0*
0 Add four circle primitives for the rounded corners*
1,1,$1+$1,$2,$3*
1,1,$1+$1,$4,$5*
1,1,$1+$1,$6,$7*
1,1,$1+$1,$8,$9*
0 Add four rect primitives between the rounded corners*
20,1,$1+$1,$2,$3,$4,$5,0*
20,1,$1+$1,$4,$5,$6,$7,0*
20,1,$1+$1,$6,$7,$8,$9,0*
20,1,$1+$1,$8,$9,$2,$3,0*%
%AMRotRect*
0 Rectangle, with rotation*
0 The origin of the aperture is its center*
0 $1 length*
0 $2 width*
0 $3 Rotation angle, in degrees counterclockwise*
0 Add horizontal line*
21,1,$1,$2,0,0,$3*%
G04 Aperture macros list end*
%ADD10R,1.070000X0.532000*%
%ADD11RoundRect,0.135000X-0.135000X-0.185000X0.135000X-0.185000X0.135000X0.185000X-0.135000X0.185000X0*%
%ADD12RotRect,3.800000X3.800000X225.000000*%
%ADD13RotRect,0.280000X0.650000X225.000000*%
%ADD14RotRect,0.650000X0.280000X225.000000*%
%ADD15C,0.610000*%
%ADD16RoundRect,0.135000X0.135000X0.185000X-0.135000X0.185000X-0.135000X-0.185000X0.135000X-0.185000X0*%
%ADD17C,1.200000*%
%ADD18R,1.200000X0.650000*%
%ADD19RoundRect,0.140000X0.170000X-0.140000X0.170000X0.140000X-0.170000X0.140000X-0.170000X-0.140000X0*%
%ADD20R,1.200000X1.400000*%
%ADD21RoundRect,0.140000X-0.140000X-0.170000X0.140000X-0.170000X0.140000X0.170000X-0.140000X0.170000X0*%
%ADD22RoundRect,0.140000X0.140000X0.170000X-0.140000X0.170000X-0.140000X-0.170000X0.140000X-0.170000X0*%
%ADD23R,1.700000X1.700000*%
%ADD24O,1.700000X1.700000*%
%ADD25C,0.650000*%
%ADD26O,2.100000X1.000000*%
%ADD27O,1.900000X1.000000*%
%ADD28R,1.150000X0.600000*%
%ADD29R,1.150000X0.300000*%
%ADD30RoundRect,0.218750X-0.218750X-0.256250X0.218750X-0.256250X0.218750X0.256250X-0.218750X0.256250X0*%
%ADD31R,1.000000X0.600000*%
%ADD32R,0.250000X0.750000*%
%ADD33R,0.750000X0.250000*%
%ADD34RoundRect,0.140000X-0.170000X0.140000X-0.170000X-0.140000X0.170000X-0.140000X0.170000X0.140000X0*%
G04 APERTURE END LIST*
D10*
%TO.C,VT2*%
X20975000Y-3430000D03*
X20975000Y-5330000D03*
X23245000Y-4380000D03*
%TD*%
D11*
%TO.C,R1*%
X6050000Y-13810000D03*
X7070000Y-13810000D03*
%TD*%
D12*
%TO.C,U3*%
X42301030Y-7140000D03*
D13*
X45290677Y-7654774D03*
X44937124Y-8008327D03*
X44583571Y-8361881D03*
X44230017Y-8715434D03*
X43876464Y-9068987D03*
X43522911Y-9422541D03*
X43169357Y-9776094D03*
X42815804Y-10129647D03*
D14*
X41786256Y-10129647D03*
X41432703Y-9776094D03*
X41079149Y-9422541D03*
X40725596Y-9068987D03*
X40372043Y-8715434D03*
X40018489Y-8361881D03*
X39664936Y-8008327D03*
X39311383Y-7654774D03*
D13*
X39311383Y-6625226D03*
X39664936Y-6271673D03*
X40018489Y-5918119D03*
X40372043Y-5564566D03*
X40725596Y-5211013D03*
X41079149Y-4857459D03*
X41432703Y-4503906D03*
X41786256Y-4150353D03*
D14*
X42815804Y-4150353D03*
X43169357Y-4503906D03*
X43522911Y-4857459D03*
X43876464Y-5211013D03*
X44230017Y-5564566D03*
X44583571Y-5918119D03*
X44937124Y-6271673D03*
X45290677Y-6625226D03*
D15*
X41452502Y-7140000D03*
X42301030Y-7988528D03*
X42301030Y-6291472D03*
X43149558Y-7140000D03*
%TD*%
D11*
%TO.C,R6*%
X18150000Y-7220000D03*
X19170000Y-7220000D03*
%TD*%
D16*
%TO.C,R7*%
X19170000Y-3450000D03*
X18150000Y-3450000D03*
%TD*%
D17*
%TO.C,HOLE1*%
X1860000Y460000D03*
%TD*%
D18*
%TO.C,SW2*%
X29500000Y-5505000D03*
X25200000Y-5505000D03*
X29500000Y-3355000D03*
X25200000Y-3355000D03*
%TD*%
D19*
%TO.C,C11*%
X13580000Y-11070000D03*
X13580000Y-10110000D03*
%TD*%
%TO.C,C16*%
X15070000Y-4090000D03*
X15070000Y-3130000D03*
%TD*%
D11*
%TO.C,R2*%
X39640000Y-2630000D03*
X40660000Y-2630000D03*
%TD*%
D20*
%TO.C,Y1*%
X47970000Y-9610000D03*
X47970000Y-11810000D03*
X49670000Y-11810000D03*
X49670000Y-9610000D03*
%TD*%
D19*
%TO.C,C4*%
X44800000Y-3134155D03*
X44800000Y-2174155D03*
%TD*%
D21*
%TO.C,C14*%
X34940000Y-2800000D03*
X35900000Y-2800000D03*
%TD*%
D19*
%TO.C,C5*%
X45880000Y-3134155D03*
X45880000Y-2174155D03*
%TD*%
D22*
%TO.C,C18*%
X35920000Y-7400000D03*
X34960000Y-7400000D03*
%TD*%
D23*
%TO.C,J2*%
X12090000Y1680000D03*
D24*
X9550000Y1680000D03*
X7010000Y1680000D03*
X4470000Y1680000D03*
%TD*%
D10*
%TO.C,VT1*%
X20955000Y-8900000D03*
X20955000Y-10800000D03*
X23225000Y-9850000D03*
%TD*%
D21*
%TO.C,C12*%
X47670000Y-7890000D03*
X48630000Y-7890000D03*
%TD*%
D19*
%TO.C,C15*%
X51190000Y-10170000D03*
X51190000Y-9210000D03*
%TD*%
D11*
%TO.C,R5*%
X18150000Y-5330000D03*
X19170000Y-5330000D03*
%TD*%
D21*
%TO.C,C10*%
X47670000Y-6970000D03*
X48630000Y-6970000D03*
%TD*%
D19*
%TO.C,C3*%
X13800000Y-14750000D03*
X13800000Y-13790000D03*
%TD*%
D11*
%TO.C,R8*%
X18140000Y-9070000D03*
X19160000Y-9070000D03*
%TD*%
%TO.C,R3*%
X18150000Y-10900000D03*
X19170000Y-10900000D03*
%TD*%
D17*
%TO.C,HOLE3*%
X55540000Y1680000D03*
%TD*%
D25*
%TO.C,USB1*%
X5699000Y-4250000D03*
X5699000Y-10030000D03*
D26*
X6199000Y-2815000D03*
X6199000Y-11465000D03*
D27*
X1999000Y-2815000D03*
X1999000Y-11465000D03*
D28*
X6961000Y-3940000D03*
X6961000Y-4740000D03*
D29*
X6961000Y-5890000D03*
X6961000Y-6890000D03*
X6961000Y-7390000D03*
X6961000Y-8390000D03*
D28*
X6961000Y-10340000D03*
X6961000Y-9540000D03*
D29*
X6961000Y-8890000D03*
X6961000Y-7890000D03*
X6961000Y-6390000D03*
X6961000Y-5390000D03*
%TD*%
D30*
%TO.C,D1*%
X5222500Y-15370000D03*
X6797500Y-15370000D03*
%TD*%
D31*
%TO.C,U1*%
X9966000Y-13790000D03*
X9966000Y-14740000D03*
X9966000Y-15690000D03*
X12566000Y-15690000D03*
X12566000Y-13790000D03*
%TD*%
D19*
%TO.C,C9*%
X43730000Y-3134155D03*
X43730000Y-2174155D03*
%TD*%
D32*
%TO.C,U4*%
X15078000Y-5620000D03*
X14579000Y-5620000D03*
X14078000Y-5620000D03*
X13579000Y-5620000D03*
D33*
X12880000Y-6320000D03*
X12880000Y-6820000D03*
X12880000Y-7320000D03*
X12880000Y-7820000D03*
D32*
X13580000Y-8520000D03*
X14080000Y-8520000D03*
X14580000Y-8520000D03*
X15079000Y-8520000D03*
D33*
X15780000Y-7820000D03*
X15780000Y-7320000D03*
X15780000Y-6820000D03*
X15780000Y-6320000D03*
D23*
X14330000Y-7070000D03*
%TD*%
D19*
%TO.C,C2*%
X8730000Y-14750000D03*
X8730000Y-13790000D03*
%TD*%
D16*
%TO.C,R4*%
X35950000Y-3890000D03*
X34930000Y-3890000D03*
%TD*%
D34*
%TO.C,C17*%
X51190000Y-11300000D03*
X51190000Y-12260000D03*
%TD*%
D22*
%TO.C,C19*%
X35920000Y-8480000D03*
X34960000Y-8480000D03*
%TD*%
D19*
%TO.C,C7*%
X46950000Y-3134155D03*
X46950000Y-2174155D03*
%TD*%
D34*
%TO.C,C13*%
X13570000Y-3120000D03*
X13570000Y-4080000D03*
%TD*%
D17*
%TO.C,HOLE4*%
X55540000Y-15950000D03*
%TD*%
%TO.C,HOLE5*%
X1860000Y-14750000D03*
%TD*%
D18*
%TO.C,SW1*%
X29500000Y-10885000D03*
X25200000Y-10885000D03*
X29500000Y-8735000D03*
X25200000Y-8735000D03*
%TD*%
D23*
%TO.C,J3*%
X52720000Y-15950000D03*
D24*
X50180000Y-15950000D03*
X47640000Y-15950000D03*
X45100000Y-15950000D03*
X42560000Y-15950000D03*
X40020000Y-15950000D03*
X37480000Y-15950000D03*
X34940000Y-15950000D03*
X32400000Y-15950000D03*
X29860000Y-15950000D03*
X27320000Y-15950000D03*
X24780000Y-15950000D03*
X22240000Y-15950000D03*
X19700000Y-15950000D03*
X17160000Y-15950000D03*
%TD*%
D23*
%TO.C,J1*%
X52730000Y1680000D03*
D24*
X50190000Y1680000D03*
X47650000Y1680000D03*
X45110000Y1680000D03*
X42570000Y1680000D03*
X40030000Y1680000D03*
X37490000Y1680000D03*
X34950000Y1680000D03*
X32410000Y1680000D03*
X29870000Y1680000D03*
X27330000Y1680000D03*
X24790000Y1680000D03*
X22250000Y1680000D03*
X19710000Y1680000D03*
X17170000Y1680000D03*
%TD*%
M02*
