M48
; DRILL file {KiCad (6.0.9)} date Thu Dec  8 03:02:36 2022
; FORMAT={-:-/ absolute / metric / decimal}
; #@! TF.CreationDate,2022-12-08T03:02:36+08:00
; #@! TF.GenerationSoftware,Kicad,Pcbnew,(6.0.9)
; #@! TF.FileFunction,MixedPlating,1,2
FMAT,2
METRIC
; #@! TA.AperFunction,Plated,PTH,ViaDrill
T1C0.300
; #@! TA.AperFunction,Plated,PTH,ComponentDrill
T2C0.300
; #@! TA.AperFunction,Plated,PTH,ComponentDrill
T3C0.304
; #@! TA.AperFunction,Plated,PTH,ViaDrill
T4C0.400
; #@! TA.AperFunction,Plated,PTH,ViaDrill
T5C0.500
; #@! TA.AperFunction,Plated,PTH,ComponentDrill
T6C0.600
; #@! TA.AperFunction,Plated,PTH,ComponentDrill
T7C1.000
; #@! TA.AperFunction,Plated,PTH,ComponentDrill
T8C1.200
; #@! TA.AperFunction,NonPlated,NPTH,ComponentDrill
T9C0.650
%
G90
G05
T1
X126.92Y-102.18
X126.92Y-103.18
X130.96Y-101.13
X131.31Y-105.41
X131.62Y-96.76
X131.62Y-97.659
X131.63Y-101.73
X131.945Y-96.141
X132.42Y-102.635
X133.69Y-99.96
X136.09Y-105.44
X136.92Y-100.77
X137.12Y-96.14
X138.18Y-97.859
X138.18Y-99.14
X139.17Y-103.35
X140.17Y-103.02
X141.01Y-103.83
X141.98Y-98.33
X141.99Y-102.2
X144.462Y-99.038
X145.14Y-97.83
X147.86Y-102.74
X151.305Y-108.13
X151.478Y-102.801
X152.479Y-97.84
X152.647Y-100.703
X153.19Y-104.57
X153.59Y-99.75
X154.62Y-108.08
X154.76Y-97.58
X155.35Y-101.525
X157.91Y-106.11
X158.24Y-104.11
X158.275Y-101.55
X159.193Y-102.367
X160.13Y-109.44
X160.99Y-96.56
X161.509Y-100.047
X161.67Y-97.77
X161.68Y-99.24
X161.69Y-102.98
X162.68Y-98.48
X163.31Y-104.6
X163.32Y-101.37
X163.909Y-98.49
X164.08Y-108.13
X164.475Y-96.55
X164.93Y-102.98
X165.049Y-100.181
X165.095Y-105.825
X165.804Y-105.756
X165.969Y-99.969
X166.126Y-101.226
X166.837Y-99.737
X167.03Y-96.21
X167.5Y-102.97
X167.831Y-108.879
X168.0Y-99.5
X168.6Y-98.9
X169.2Y-98.3
X169.4Y-96.225
X169.8Y-97.7
X169.8Y-101.6
X170.6Y-97.6
X170.6Y-100.8
X170.6Y-101.6
X170.6Y-102.4
X171.4Y-97.6
X171.4Y-100.8
X171.4Y-101.6
X171.4Y-102.4
X171.4Y-108.8
X172.2Y-96.8
X172.2Y-97.6
X172.2Y-99.2
X172.2Y-100.0
X172.2Y-100.8
X172.2Y-101.6
X172.2Y-102.4
X172.2Y-103.2
X172.2Y-104.0
X172.2Y-108.8
X172.2Y-109.6
X173.0Y-96.8
X173.0Y-97.6
X173.0Y-99.2
X173.0Y-100.0
X173.0Y-100.8
X173.0Y-101.6
X173.0Y-102.4
X173.0Y-103.2
X173.0Y-104.0
X173.0Y-108.8
X173.0Y-109.6
X173.8Y-96.8
X173.8Y-97.6
X173.8Y-99.2
X173.8Y-100.0
X173.8Y-100.8
X173.8Y-101.6
X173.8Y-102.4
X173.8Y-103.2
X173.8Y-104.0
X173.8Y-104.8
X173.8Y-105.6
X173.8Y-106.4
X173.8Y-107.2
X173.8Y-108.0
X173.8Y-108.8
X173.8Y-109.6
X174.6Y-96.8
X174.6Y-97.6
X174.6Y-99.2
X174.6Y-100.0
X174.6Y-100.8
X174.6Y-101.6
X174.6Y-102.4
X174.6Y-103.2
X174.6Y-104.0
X174.6Y-104.8
X174.6Y-105.6
X174.6Y-106.4
X174.6Y-107.2
X174.6Y-108.0
X174.6Y-108.8
X174.6Y-109.6
T2
X175.49Y-96.33
T3
X162.463Y-102.98
X163.311Y-102.131
X163.311Y-103.829
X164.16Y-102.98
T4
X129.62Y-100.52
X129.62Y-105.37
T5
X135.89Y-109.62
T7
X125.49Y-94.15
X128.03Y-94.15
X130.57Y-94.15
X133.11Y-94.15
X138.18Y-94.16
X138.18Y-111.72
X140.72Y-94.16
X140.72Y-111.72
X143.26Y-94.16
X143.26Y-111.72
X145.8Y-94.16
X145.8Y-111.72
X148.34Y-94.16
X148.34Y-111.72
X150.88Y-94.16
X150.88Y-111.72
X153.42Y-94.16
X153.42Y-111.72
X155.96Y-94.16
X155.96Y-111.72
X158.5Y-94.16
X158.5Y-111.72
X161.04Y-94.16
X161.04Y-111.72
X163.58Y-94.16
X163.58Y-111.72
X166.12Y-94.16
X166.12Y-111.72
X168.66Y-94.16
X168.66Y-111.72
X171.2Y-94.16
X171.2Y-111.72
X173.74Y-94.16
X173.74Y-111.72
T8
X122.87Y-95.04
X122.87Y-110.84
X135.62Y-94.16
X176.1Y-94.21
X176.1Y-111.7
T9
X126.709Y-100.09
X126.709Y-105.87
T6
G00X123.459Y-98.655
M15
G01X122.559Y-98.655
M16
G05
G00X123.459Y-107.305
M15
G01X122.559Y-107.305
M16
G05
G00X127.809Y-98.655
M15
G01X126.609Y-98.655
M16
G05
G00X127.809Y-107.305
M15
G01X126.609Y-107.305
M16
G05
T0
M30
