%TF.GenerationSoftware,KiCad,Pcbnew,8.0.6*%
%TF.CreationDate,2024-11-23T01:57:25+08:00*%
%TF.ProjectId,UINIO-MCU-ESP32C3,55494e49-4f2d-44d4-9355-2d4553503332,Version 5.0.0*%
%TF.SameCoordinates,PX7367750PY5b66700*%
%TF.FileFunction,Copper,L2,Bot*%
%TF.FilePolarity,Positive*%
%FSLAX46Y46*%
G04 Gerber Fmt 4.6, Leading zero omitted, Abs format (unit mm)*
G04 Created by KiCad (PCBNEW 8.0.6) date 2024-11-23 01:57:25*
%MOMM*%
%LPD*%
G01*
G04 APERTURE LIST*
%TA.AperFunction,ComponentPad*%
%ADD10R,1.700000X1.700000*%
%TD*%
%TA.AperFunction,ComponentPad*%
%ADD11O,1.700000X1.700000*%
%TD*%
%TA.AperFunction,ComponentPad*%
%ADD12C,0.610000*%
%TD*%
%TA.AperFunction,ComponentPad*%
%ADD13R,0.500000X0.900000*%
%TD*%
%TA.AperFunction,ComponentPad*%
%ADD14O,2.100000X1.000000*%
%TD*%
%TA.AperFunction,ComponentPad*%
%ADD15O,1.900000X1.000000*%
%TD*%
%TA.AperFunction,ViaPad*%
%ADD16C,0.500000*%
%TD*%
%TA.AperFunction,ViaPad*%
%ADD17C,0.700000*%
%TD*%
%TA.AperFunction,ViaPad*%
%ADD18C,0.900000*%
%TD*%
%TA.AperFunction,Conductor*%
%ADD19C,0.500000*%
%TD*%
%TA.AperFunction,Conductor*%
%ADD20C,0.300000*%
%TD*%
%TA.AperFunction,Conductor*%
%ADD21C,0.200000*%
%TD*%
G04 APERTURE END LIST*
D10*
%TO.P,J2,1,Pin_1*%
%TO.N,GND*%
X58380000Y-24060000D03*
D11*
%TO.P,J2,2,Pin_2*%
%TO.N,/U0TXD*%
X55840000Y-24060000D03*
%TO.P,J2,3,Pin_3*%
%TO.N,/U0RXD*%
X53300000Y-24060000D03*
%TO.P,J2,4,Pin_4*%
%TO.N,/GPIO19{slash}USB_D+*%
X50760000Y-24060000D03*
%TO.P,J2,5,Pin_5*%
%TO.N,/GPIO18{slash}USB_D-*%
X48220000Y-24060000D03*
%TO.P,J2,6,Pin_6*%
%TO.N,/SPIQ*%
X45680000Y-24060000D03*
%TO.P,J2,7,Pin_7*%
%TO.N,/SPID*%
X43140000Y-24060000D03*
%TO.P,J2,8,Pin_8*%
%TO.N,/SPICLK*%
X40600000Y-24060000D03*
%TO.P,J2,9,Pin_9*%
%TO.N,/SPICS0*%
X38060000Y-24060000D03*
%TO.P,J2,10,Pin_10*%
%TO.N,/SPIWP{slash}GPIO13*%
X35520000Y-24060000D03*
%TO.P,J2,11,Pin_11*%
%TO.N,/SPIHD{slash}GPIO12*%
X32980000Y-24060000D03*
%TO.P,J2,12,Pin_12*%
%TO.N,/VDD_SPI{slash}GPIO11*%
X30440000Y-24060000D03*
%TO.P,J2,13,Pin_13*%
%TO.N,/VDD_5V*%
X27900000Y-24060000D03*
%TO.P,J2,14,Pin_14*%
%TO.N,GND*%
X25360000Y-24060000D03*
%TO.P,J2,15,Pin_15*%
%TO.N,/VDD_5V*%
X22820000Y-24060000D03*
%TO.P,J2,16,Pin_16*%
%TO.N,GND*%
X20280000Y-24060000D03*
%TO.P,J2,17,Pin_17*%
%TO.N,/VDD_5V*%
X17740000Y-24060000D03*
%TO.P,J2,18,Pin_18*%
%TO.N,GND*%
X15200000Y-24060000D03*
%TO.P,J2,19,Pin_19*%
%TO.N,/VDD_5V*%
X12660000Y-24060000D03*
%TO.P,J2,20,Pin_20*%
%TO.N,GND*%
X10120000Y-24060000D03*
%TO.P,J2,21,Pin_21*%
%TO.N,/VDD_5V*%
X7580000Y-24060000D03*
%TO.P,J2,22,Pin_22*%
%TO.N,GND*%
X5040000Y-24060000D03*
%TD*%
D12*
%TO.P,U3,33,EP*%
%TO.N,GND*%
X50236591Y-12674774D03*
X49388063Y-11826246D03*
X49388063Y-13523302D03*
X48539535Y-12674774D03*
%TD*%
D13*
%TO.P,AE1,2,PCB_Trace*%
%TO.N,GND*%
X60020000Y-6050000D03*
%TD*%
D14*
%TO.P,USB1,13,GND*%
%TO.N,GND*%
X2707000Y-8375000D03*
%TO.P,USB1,14,GND*%
X2707000Y-17025000D03*
D15*
%TO.P,USB1,15,GND*%
X-1493000Y-8375000D03*
%TO.P,USB1,16,GND*%
X-1493000Y-17025000D03*
%TD*%
D10*
%TO.P,J1,1,Pin_1*%
%TO.N,/GPIO0*%
X58380000Y-1340000D03*
D11*
%TO.P,J1,2,Pin_2*%
%TO.N,/GPIO1*%
X55840000Y-1340000D03*
%TO.P,J1,3,Pin_3*%
%TO.N,/GPIO2*%
X53300000Y-1340000D03*
%TO.P,J1,4,Pin_4*%
%TO.N,/CHIP_EN*%
X50760000Y-1340000D03*
%TO.P,J1,5,Pin_5*%
%TO.N,/GPIO3*%
X48220000Y-1340000D03*
%TO.P,J1,6,Pin_6*%
%TO.N,/GPIO4*%
X45680000Y-1340000D03*
%TO.P,J1,7,Pin_7*%
%TO.N,/GPIO5*%
X43140000Y-1340000D03*
%TO.P,J1,8,Pin_8*%
%TO.N,/GPIO6*%
X40600000Y-1340000D03*
%TO.P,J1,9,Pin_9*%
%TO.N,/GPIO7*%
X38060000Y-1340000D03*
%TO.P,J1,10,Pin_10*%
%TO.N,/GPIO8*%
X35520000Y-1340000D03*
%TO.P,J1,11,Pin_11*%
%TO.N,/GPIO9{slash}BOOT*%
X32980000Y-1340000D03*
%TO.P,J1,12,Pin_12*%
%TO.N,/GPIO10*%
X30440000Y-1340000D03*
%TO.P,J1,13,Pin_13*%
%TO.N,/VDD_3.3V*%
X27900000Y-1340000D03*
%TO.P,J1,14,Pin_14*%
%TO.N,GND*%
X25360000Y-1340000D03*
%TO.P,J1,15,Pin_15*%
%TO.N,/VDD_3.3V*%
X22820000Y-1340000D03*
%TO.P,J1,16,Pin_16*%
%TO.N,GND*%
X20280000Y-1340000D03*
%TO.P,J1,17,Pin_17*%
%TO.N,/VDD_3.3V*%
X17740000Y-1340000D03*
%TO.P,J1,18,Pin_18*%
%TO.N,GND*%
X15200000Y-1340000D03*
%TO.P,J1,19,Pin_19*%
%TO.N,/VDD_3.3V*%
X12660000Y-1340000D03*
%TO.P,J1,20,Pin_20*%
%TO.N,GND*%
X10120000Y-1340000D03*
%TO.P,J1,21,Pin_21*%
%TO.N,/VDD_3.3V*%
X7580000Y-1340000D03*
%TO.P,J1,22,Pin_22*%
%TO.N,GND*%
X5040000Y-1340000D03*
%TD*%
D16*
%TO.N,GND*%
X59440000Y-18110000D03*
X59440000Y-17110000D03*
X59440000Y-16110000D03*
X59440000Y-15110000D03*
X53940000Y-15210000D03*
X54940000Y-15210000D03*
X-1960000Y-6210000D03*
X-960000Y-6210000D03*
X1040000Y-7210000D03*
X1040000Y-5210000D03*
X1040000Y-6210000D03*
X3040000Y-5210000D03*
X40000Y-7210000D03*
X-1960000Y-7210000D03*
X-960000Y-5210000D03*
X2040000Y-5210000D03*
X2040000Y-6210000D03*
X40000Y-6210000D03*
X3040000Y-6210000D03*
X2040000Y-7210000D03*
X-960000Y-7210000D03*
X40000Y-5210000D03*
X3040000Y-7210000D03*
X-1960000Y-5210000D03*
X40000Y-20160000D03*
X1040000Y-20160000D03*
X-1960000Y-20160000D03*
X3040000Y-20160000D03*
X-960000Y-20160000D03*
X2040000Y-20160000D03*
X2040000Y-19160000D03*
X-1960000Y-19160000D03*
X3040000Y-19160000D03*
X40000Y-19160000D03*
X-960000Y-19160000D03*
X1040000Y-19160000D03*
X1040000Y-18160000D03*
X3040000Y-18160000D03*
X40000Y-18160000D03*
X-1960000Y-18160000D03*
X2040000Y-18160000D03*
X-960000Y-18160000D03*
X38740000Y-19310000D03*
X39740000Y-19310000D03*
X37740000Y-19310000D03*
X25740000Y-19310000D03*
X23740000Y-19310000D03*
X22740000Y-19310000D03*
X29740000Y-19310000D03*
X27740000Y-19310000D03*
X24740000Y-19310000D03*
X21740000Y-19310000D03*
X20740000Y-19310000D03*
X19740000Y-19310000D03*
X31740000Y-19310000D03*
X30740000Y-19310000D03*
X28740000Y-19310000D03*
X26740000Y-19310000D03*
X9532893Y-12710000D03*
X8118679Y-11295786D03*
X8825786Y-12002893D03*
X10240000Y-13417107D03*
X10590000Y-15110000D03*
X11590000Y-15110000D03*
X9590000Y-15110000D03*
X8590000Y-15110000D03*
X7590000Y-15110000D03*
D17*
X41990000Y-14160000D03*
X40929340Y-13099340D03*
X43050660Y-15220660D03*
D16*
X46940000Y-21110000D03*
X49490000Y-21110000D03*
X49490000Y-20110000D03*
X49490000Y-19110000D03*
X51990000Y-21160000D03*
X51990000Y-20160000D03*
X51990000Y-19160000D03*
X54570000Y-21160000D03*
X54570000Y-20160000D03*
X54570000Y-19160000D03*
X55240000Y-5160000D03*
X55240000Y-4160000D03*
X55240000Y-3160000D03*
X51430000Y-4160000D03*
X54080000Y-4160000D03*
X52755000Y-4160000D03*
X54080000Y-3160000D03*
X52755000Y-3160000D03*
X53340000Y-9960000D03*
X55340000Y-7960000D03*
X56340000Y-6960000D03*
X54340000Y-8960000D03*
X54190000Y-11410000D03*
X55190000Y-11410000D03*
X53940000Y-14360000D03*
X54940000Y-14360000D03*
X52940000Y-14360000D03*
X58440000Y-10160000D03*
X57440000Y-10160000D03*
X59440000Y-10160000D03*
X58440000Y-9160000D03*
X57440000Y-9160000D03*
X59440000Y-9160000D03*
X58440000Y-7160000D03*
X58440000Y-6160000D03*
X57440000Y-6160000D03*
X59440000Y-7160000D03*
X58440000Y-5160000D03*
X59440000Y-5160000D03*
X57440000Y-4160000D03*
X59440000Y-4160000D03*
X59440000Y-3160000D03*
X57440000Y-3160000D03*
X59440000Y-11160000D03*
X58440000Y-11160000D03*
X57440000Y-11160000D03*
X57440000Y-12160000D03*
X58440000Y-12160000D03*
X59440000Y-12160000D03*
X57440000Y-22160000D03*
X58440000Y-22160000D03*
X59440000Y-22160000D03*
X59440000Y-21160000D03*
X58440000Y-21160000D03*
X57440000Y-21160000D03*
X59440000Y-20160000D03*
X57440000Y-20160000D03*
X58440000Y-20160000D03*
X59440000Y-19160000D03*
X57440000Y-19160000D03*
X58440000Y-19160000D03*
X57440000Y-14160000D03*
X59440000Y-13160000D03*
X59440000Y-14160000D03*
X58440000Y-14160000D03*
X57440000Y-13160000D03*
X58440000Y-13160000D03*
X56440000Y-22160000D03*
X56440000Y-21160000D03*
X56440000Y-20160000D03*
X56440000Y-19160000D03*
X56440000Y-14160000D03*
X56440000Y-13160000D03*
X56440000Y-12160000D03*
X56440000Y-11160000D03*
X56440000Y-10160000D03*
X56440000Y-5160000D03*
X56440000Y-4160000D03*
X56440000Y-3160000D03*
D17*
%TO.N,/VDD_3.3V*%
X44760000Y-5190000D03*
X19490000Y-10040000D03*
X19490000Y-5860000D03*
X19470000Y-13040000D03*
X54190000Y-12460000D03*
X20490000Y-6860000D03*
X22970000Y-12623500D03*
X20490000Y-4860000D03*
X51430000Y-7670000D03*
X19490000Y-6860000D03*
X19490000Y-4860000D03*
D18*
X42490000Y-9820000D03*
D17*
X52750000Y-8160000D03*
X20470000Y-13040000D03*
X20470000Y-12040000D03*
D18*
X35620000Y-9800000D03*
D17*
X42490000Y-5180000D03*
X48030000Y-5190000D03*
X20490000Y-10040000D03*
X19470000Y-12040000D03*
X16040000Y-17620000D03*
X20490000Y-5860000D03*
X52750000Y-10670000D03*
D16*
%TO.N,GND*%
X49390000Y-8290000D03*
X28860000Y-11840000D03*
X26860000Y-11840000D03*
X22340000Y-11700000D03*
X34650000Y-11840000D03*
X44050000Y-10510000D03*
X45730000Y-5930000D03*
X29860000Y-11840000D03*
X27860000Y-11840000D03*
X52755000Y-5110000D03*
X32860000Y-11840000D03*
X29230000Y-5210000D03*
D17*
X17930000Y-14520000D03*
D16*
X45690000Y-3100000D03*
X13010000Y-16280000D03*
X51430000Y-9020000D03*
X44400000Y-22140000D03*
X25860000Y-11840000D03*
X50240000Y-3760000D03*
X54570000Y-22140000D03*
X45720000Y-5180000D03*
X13810000Y-17080000D03*
X54080000Y-5110000D03*
X13810000Y-16280000D03*
X46940000Y-22140000D03*
X51990000Y-22140000D03*
X13840000Y-13820000D03*
X50240000Y-2910000D03*
X30860000Y-11840000D03*
X50240000Y-4610000D03*
X49350000Y-3760000D03*
X34930000Y-5210000D03*
X44858469Y-20007841D03*
X41500000Y-4520000D03*
X31860000Y-11840000D03*
X38430000Y-5210000D03*
X45100000Y-13340000D03*
X43630000Y-3100000D03*
X49490000Y-22140000D03*
X42240000Y-22140000D03*
X51430000Y-5110000D03*
X13010000Y-17080000D03*
D17*
%TO.N,/VDD_5V*%
X9720000Y-10010000D03*
X8715000Y-10010000D03*
X7710000Y-10000000D03*
X4860000Y-16750000D03*
X4860000Y-19110000D03*
X9680000Y-21960000D03*
X4860000Y-17930000D03*
X4860000Y-10300000D03*
D16*
%TO.N,/CHIP_EN*%
X33870000Y-8710000D03*
X48345000Y-3755000D03*
%TO.N,/GPIO9{slash}BOOT*%
X32980000Y-8720000D03*
X25860000Y-10630000D03*
X24630000Y-11860000D03*
%TO.N,/DTR*%
X21700000Y-10960000D03*
X11960000Y-18190000D03*
X24550000Y-10960000D03*
X21700000Y-13950000D03*
%TO.N,/U0RXD*%
X37740000Y-20960000D03*
X51381314Y-15738686D03*
%TO.N,/U0TXD*%
X51381314Y-15025132D03*
X38430000Y-20457841D03*
%TO.N,/RTS*%
X22730000Y-17330000D03*
X12650000Y-18760000D03*
%TO.N,/SPIQ*%
X38370000Y-14770000D03*
X45680000Y-18857710D03*
%TO.N,/SPID*%
X40910000Y-10470000D03*
X47099947Y-16659947D03*
%TO.N,/SPICLK*%
X39640000Y-10470000D03*
X46146748Y-16976748D03*
%TO.N,/SPICS0*%
X42337841Y-20007841D03*
X37100000Y-14770000D03*
%TO.N,/USB_Data-*%
X2630000Y-12950000D03*
X2630000Y-11950000D03*
%TO.N,GND*%
X34740000Y-19310000D03*
X32740000Y-19310000D03*
X36740000Y-19310000D03*
X35740000Y-19310000D03*
X33740000Y-19310000D03*
%TD*%
D19*
%TO.N,/VDD_3.3V*%
X20880000Y-12610000D02*
X20470000Y-12200000D01*
X47400000Y-18060000D02*
X43870000Y-18060000D01*
X54190000Y-12460000D02*
X53000000Y-12460000D01*
X53000000Y-12460000D02*
X47400000Y-18060000D01*
X43870000Y-18060000D02*
X38420000Y-12610000D01*
X38420000Y-12610000D02*
X20880000Y-12610000D01*
D20*
X42490000Y-9820000D02*
X42490000Y-5180000D01*
D19*
X49280000Y-9820000D02*
X51430000Y-7670000D01*
D20*
X42490000Y-9820000D02*
X44760000Y-9820000D01*
X19470000Y-14190000D02*
X19470000Y-13200000D01*
D19*
X20710000Y-9820000D02*
X42490000Y-9820000D01*
X20490000Y-10040000D02*
X20710000Y-9820000D01*
D20*
X52750000Y-8160000D02*
X52750000Y-10670000D01*
D19*
X42490000Y-9820000D02*
X49280000Y-9820000D01*
D20*
X48950000Y-5190000D02*
X51430000Y-7670000D01*
X16040000Y-17620000D02*
X19470000Y-14190000D01*
X44760000Y-9820000D02*
X44760000Y-5190000D01*
X48030000Y-5190000D02*
X48950000Y-5190000D01*
D21*
%TO.N,/CHIP_EN*%
X33870000Y-8710000D02*
X38820000Y-3760000D01*
X38820000Y-3760000D02*
X48340000Y-3760000D01*
X48345000Y-3755000D02*
X50760000Y-1340000D01*
X48340000Y-3760000D02*
X48345000Y-3755000D01*
%TO.N,/GPIO9{slash}BOOT*%
X32980000Y-8720000D02*
X32980000Y-1340000D01*
X24630000Y-11860000D02*
X25860000Y-10630000D01*
D20*
%TO.N,/DTR*%
X24550000Y-10960000D02*
X21700000Y-10960000D01*
X17460000Y-18190000D02*
X11960000Y-18190000D01*
X21700000Y-13950000D02*
X17460000Y-18190000D01*
D21*
%TO.N,/U0RXD*%
X46170000Y-20960000D02*
X51381314Y-15748686D01*
X51381314Y-15748686D02*
X51381314Y-15738686D01*
X37740000Y-20960000D02*
X46170000Y-20960000D01*
%TO.N,/U0TXD*%
X38430000Y-20457841D02*
X45952159Y-20457841D01*
X45952159Y-20457841D02*
X51384868Y-15025132D01*
%TO.N,/RTS*%
X21300000Y-18760000D02*
X12650000Y-18760000D01*
X22730000Y-17330000D02*
X21300000Y-18760000D01*
%TO.N,/SPIQ*%
X45680000Y-18857710D02*
X42457710Y-18857710D01*
X42457710Y-18857710D02*
X38370000Y-14770000D01*
%TO.N,/SPID*%
X47099947Y-16659947D02*
X40910000Y-10470000D01*
%TO.N,/SPICLK*%
X46146748Y-16976748D02*
X39640000Y-10470000D01*
%TO.N,/SPICS0*%
X42337841Y-20007841D02*
X37100000Y-14770000D01*
%TO.N,/USB_Data-*%
X2630000Y-12950000D02*
X2630000Y-11950000D01*
%TD*%
%TA.AperFunction,Conductor*%
%TO.N,GND*%
G36*
X6961091Y-220185D02*
G01*
X7006846Y-272989D01*
X7016790Y-342147D01*
X6987765Y-405703D01*
X6959329Y-429927D01*
X6913960Y-458017D01*
X6913958Y-458019D01*
X6763237Y-595418D01*
X6640327Y-758178D01*
X6549422Y-940739D01*
X6549417Y-940752D01*
X6493602Y-1136917D01*
X6474785Y-1339999D01*
X6474785Y-1340000D01*
X6493602Y-1543082D01*
X6549417Y-1739247D01*
X6549422Y-1739260D01*
X6640327Y-1921821D01*
X6763237Y-2084581D01*
X6913958Y-2221980D01*
X6913960Y-2221982D01*
X7013141Y-2283392D01*
X7087363Y-2329348D01*
X7277544Y-2403024D01*
X7478024Y-2440500D01*
X7478026Y-2440500D01*
X7681974Y-2440500D01*
X7681976Y-2440500D01*
X7882456Y-2403024D01*
X8072637Y-2329348D01*
X8246041Y-2221981D01*
X8396764Y-2084579D01*
X8519673Y-1921821D01*
X8610582Y-1739250D01*
X8666397Y-1543083D01*
X8685215Y-1340000D01*
X8676814Y-1249342D01*
X8666397Y-1136917D01*
X8636228Y-1030886D01*
X8610582Y-940750D01*
X8519673Y-758179D01*
X8396764Y-595421D01*
X8396762Y-595418D01*
X8246041Y-458019D01*
X8246039Y-458017D01*
X8200671Y-429927D01*
X8154035Y-377900D01*
X8142931Y-308918D01*
X8170884Y-244884D01*
X8229019Y-206127D01*
X8265948Y-200500D01*
X11974052Y-200500D01*
X12041091Y-220185D01*
X12086846Y-272989D01*
X12096790Y-342147D01*
X12067765Y-405703D01*
X12039329Y-429927D01*
X11993960Y-458017D01*
X11993958Y-458019D01*
X11843237Y-595418D01*
X11720327Y-758178D01*
X11629422Y-940739D01*
X11629417Y-940752D01*
X11573602Y-1136917D01*
X11554785Y-1339999D01*
X11554785Y-1340000D01*
X11573602Y-1543082D01*
X11629417Y-1739247D01*
X11629422Y-1739260D01*
X11720327Y-1921821D01*
X11843237Y-2084581D01*
X11993958Y-2221980D01*
X11993960Y-2221982D01*
X12093141Y-2283392D01*
X12167363Y-2329348D01*
X12357544Y-2403024D01*
X12558024Y-2440500D01*
X12558026Y-2440500D01*
X12761974Y-2440500D01*
X12761976Y-2440500D01*
X12962456Y-2403024D01*
X13152637Y-2329348D01*
X13326041Y-2221981D01*
X13476764Y-2084579D01*
X13599673Y-1921821D01*
X13690582Y-1739250D01*
X13746397Y-1543083D01*
X13765215Y-1340000D01*
X13756814Y-1249342D01*
X13746397Y-1136917D01*
X13716228Y-1030886D01*
X13690582Y-940750D01*
X13599673Y-758179D01*
X13476764Y-595421D01*
X13476762Y-595418D01*
X13326041Y-458019D01*
X13326039Y-458017D01*
X13280671Y-429927D01*
X13234035Y-377900D01*
X13222931Y-308918D01*
X13250884Y-244884D01*
X13309019Y-206127D01*
X13345948Y-200500D01*
X17054052Y-200500D01*
X17121091Y-220185D01*
X17166846Y-272989D01*
X17176790Y-342147D01*
X17147765Y-405703D01*
X17119329Y-429927D01*
X17073960Y-458017D01*
X17073958Y-458019D01*
X16923237Y-595418D01*
X16800327Y-758178D01*
X16709422Y-940739D01*
X16709417Y-940752D01*
X16653602Y-1136917D01*
X16634785Y-1339999D01*
X16634785Y-1340000D01*
X16653602Y-1543082D01*
X16709417Y-1739247D01*
X16709422Y-1739260D01*
X16800327Y-1921821D01*
X16923237Y-2084581D01*
X17073958Y-2221980D01*
X17073960Y-2221982D01*
X17173141Y-2283392D01*
X17247363Y-2329348D01*
X17437544Y-2403024D01*
X17638024Y-2440500D01*
X17638026Y-2440500D01*
X17841974Y-2440500D01*
X17841976Y-2440500D01*
X18042456Y-2403024D01*
X18232637Y-2329348D01*
X18406041Y-2221981D01*
X18556764Y-2084579D01*
X18679673Y-1921821D01*
X18770582Y-1739250D01*
X18826397Y-1543083D01*
X18845215Y-1340000D01*
X18836814Y-1249342D01*
X18826397Y-1136917D01*
X18796228Y-1030886D01*
X18770582Y-940750D01*
X18679673Y-758179D01*
X18556764Y-595421D01*
X18556762Y-595418D01*
X18406041Y-458019D01*
X18406039Y-458017D01*
X18360671Y-429927D01*
X18314035Y-377900D01*
X18302931Y-308918D01*
X18330884Y-244884D01*
X18389019Y-206127D01*
X18425948Y-200500D01*
X22134052Y-200500D01*
X22201091Y-220185D01*
X22246846Y-272989D01*
X22256790Y-342147D01*
X22227765Y-405703D01*
X22199329Y-429927D01*
X22153960Y-458017D01*
X22153958Y-458019D01*
X22003237Y-595418D01*
X21880327Y-758178D01*
X21789422Y-940739D01*
X21789417Y-940752D01*
X21733602Y-1136917D01*
X21714785Y-1339999D01*
X21714785Y-1340000D01*
X21733602Y-1543082D01*
X21789417Y-1739247D01*
X21789422Y-1739260D01*
X21880327Y-1921821D01*
X22003237Y-2084581D01*
X22153958Y-2221980D01*
X22153960Y-2221982D01*
X22253141Y-2283392D01*
X22327363Y-2329348D01*
X22517544Y-2403024D01*
X22718024Y-2440500D01*
X22718026Y-2440500D01*
X22921974Y-2440500D01*
X22921976Y-2440500D01*
X23122456Y-2403024D01*
X23312637Y-2329348D01*
X23486041Y-2221981D01*
X23636764Y-2084579D01*
X23759673Y-1921821D01*
X23850582Y-1739250D01*
X23906397Y-1543083D01*
X23925215Y-1340000D01*
X23916814Y-1249342D01*
X23906397Y-1136917D01*
X23876228Y-1030886D01*
X23850582Y-940750D01*
X23759673Y-758179D01*
X23636764Y-595421D01*
X23636762Y-595418D01*
X23486041Y-458019D01*
X23486039Y-458017D01*
X23440671Y-429927D01*
X23394035Y-377900D01*
X23382931Y-308918D01*
X23410884Y-244884D01*
X23469019Y-206127D01*
X23505948Y-200500D01*
X27214052Y-200500D01*
X27281091Y-220185D01*
X27326846Y-272989D01*
X27336790Y-342147D01*
X27307765Y-405703D01*
X27279329Y-429927D01*
X27233960Y-458017D01*
X27233958Y-458019D01*
X27083237Y-595418D01*
X26960327Y-758178D01*
X26869422Y-940739D01*
X26869417Y-940752D01*
X26813602Y-1136917D01*
X26794785Y-1339999D01*
X26794785Y-1340000D01*
X26813602Y-1543082D01*
X26869417Y-1739247D01*
X26869422Y-1739260D01*
X26960327Y-1921821D01*
X27083237Y-2084581D01*
X27233958Y-2221980D01*
X27233960Y-2221982D01*
X27333141Y-2283392D01*
X27407363Y-2329348D01*
X27597544Y-2403024D01*
X27798024Y-2440500D01*
X27798026Y-2440500D01*
X28001974Y-2440500D01*
X28001976Y-2440500D01*
X28202456Y-2403024D01*
X28392637Y-2329348D01*
X28566041Y-2221981D01*
X28716764Y-2084579D01*
X28839673Y-1921821D01*
X28930582Y-1739250D01*
X28986397Y-1543083D01*
X29005215Y-1340000D01*
X28996814Y-1249342D01*
X28986397Y-1136917D01*
X28956228Y-1030886D01*
X28930582Y-940750D01*
X28839673Y-758179D01*
X28716764Y-595421D01*
X28716762Y-595418D01*
X28566041Y-458019D01*
X28566039Y-458017D01*
X28520671Y-429927D01*
X28474035Y-377900D01*
X28462931Y-308918D01*
X28490884Y-244884D01*
X28549019Y-206127D01*
X28585948Y-200500D01*
X29754052Y-200500D01*
X29821091Y-220185D01*
X29866846Y-272989D01*
X29876790Y-342147D01*
X29847765Y-405703D01*
X29819329Y-429927D01*
X29773960Y-458017D01*
X29773958Y-458019D01*
X29623237Y-595418D01*
X29500327Y-758178D01*
X29409422Y-940739D01*
X29409417Y-940752D01*
X29353602Y-1136917D01*
X29334785Y-1339999D01*
X29334785Y-1340000D01*
X29353602Y-1543082D01*
X29409417Y-1739247D01*
X29409422Y-1739260D01*
X29500327Y-1921821D01*
X29623237Y-2084581D01*
X29773958Y-2221980D01*
X29773960Y-2221982D01*
X29873141Y-2283392D01*
X29947363Y-2329348D01*
X30137544Y-2403024D01*
X30338024Y-2440500D01*
X30338026Y-2440500D01*
X30541974Y-2440500D01*
X30541976Y-2440500D01*
X30742456Y-2403024D01*
X30932637Y-2329348D01*
X31106041Y-2221981D01*
X31256764Y-2084579D01*
X31379673Y-1921821D01*
X31470582Y-1739250D01*
X31526397Y-1543083D01*
X31545215Y-1340000D01*
X31536814Y-1249342D01*
X31526397Y-1136917D01*
X31496228Y-1030886D01*
X31470582Y-940750D01*
X31379673Y-758179D01*
X31256764Y-595421D01*
X31256762Y-595418D01*
X31106041Y-458019D01*
X31106039Y-458017D01*
X31060671Y-429927D01*
X31014035Y-377900D01*
X31002931Y-308918D01*
X31030884Y-244884D01*
X31089019Y-206127D01*
X31125948Y-200500D01*
X32294052Y-200500D01*
X32361091Y-220185D01*
X32406846Y-272989D01*
X32416790Y-342147D01*
X32387765Y-405703D01*
X32359329Y-429927D01*
X32313960Y-458017D01*
X32313958Y-458019D01*
X32163237Y-595418D01*
X32040327Y-758178D01*
X31949422Y-940739D01*
X31949417Y-940752D01*
X31893602Y-1136917D01*
X31874785Y-1339999D01*
X31874785Y-1340000D01*
X31893602Y-1543082D01*
X31893603Y-1543084D01*
X31949415Y-1739244D01*
X31949417Y-1739249D01*
X31967038Y-1774638D01*
X31974573Y-1793503D01*
X31975914Y-1797871D01*
X31975916Y-1797875D01*
X32010434Y-1861933D01*
X32012250Y-1865435D01*
X32040327Y-1921821D01*
X32042915Y-1925248D01*
X32053122Y-1941154D01*
X32153387Y-2127223D01*
X32153399Y-2127244D01*
X32165611Y-2147582D01*
X32165616Y-2147590D01*
X32165620Y-2147596D01*
X32166824Y-2149405D01*
X32180880Y-2168534D01*
X32238917Y-2240277D01*
X32364273Y-2395237D01*
X32365994Y-2397341D01*
X32495933Y-2554492D01*
X32512594Y-2580767D01*
X32579375Y-2722866D01*
X32590318Y-2761265D01*
X32625011Y-3059212D01*
X32626040Y-3064297D01*
X32625520Y-3064402D01*
X32629500Y-3092308D01*
X32629500Y-8180910D01*
X32625592Y-8211795D01*
X32624279Y-8216897D01*
X32624278Y-8216908D01*
X32620892Y-8277924D01*
X32617880Y-8299054D01*
X32616616Y-8304507D01*
X32609109Y-8326918D01*
X32602012Y-8342867D01*
X32598372Y-8350359D01*
X32568089Y-8407703D01*
X32564848Y-8414050D01*
X32564615Y-8414522D01*
X32561839Y-8420337D01*
X32554723Y-8435735D01*
X32522169Y-8506175D01*
X32521214Y-8508294D01*
X32520097Y-8510774D01*
X32519933Y-8511148D01*
X32518259Y-8515057D01*
X32517001Y-8521260D01*
X32508272Y-8548117D01*
X32494834Y-8577542D01*
X32474353Y-8720000D01*
X32494834Y-8862456D01*
X32554622Y-8993371D01*
X32554623Y-8993373D01*
X32648872Y-9102143D01*
X32648873Y-9102143D01*
X32654680Y-9108845D01*
X32653598Y-9109781D01*
X32686236Y-9160565D01*
X32686236Y-9230434D01*
X32648462Y-9289213D01*
X32584907Y-9318238D01*
X32567259Y-9319500D01*
X21519500Y-9319500D01*
X21452461Y-9299815D01*
X21406706Y-9247011D01*
X21395500Y-9195500D01*
X21395500Y-3784010D01*
X21395500Y-3784000D01*
X21388518Y-3719059D01*
X21377312Y-3667548D01*
X21366354Y-3629342D01*
X21309675Y-3532429D01*
X21263920Y-3479625D01*
X21263918Y-3479623D01*
X21263908Y-3479612D01*
X21219192Y-3437451D01*
X21219189Y-3437449D01*
X21219187Y-3437447D01*
X21119111Y-3386561D01*
X21119110Y-3386560D01*
X21119109Y-3386560D01*
X21052078Y-3366877D01*
X21052072Y-3366876D01*
X20966000Y-3354500D01*
X19014000Y-3354500D01*
X19013991Y-3354500D01*
X19013990Y-3354501D01*
X18949064Y-3361481D01*
X18949052Y-3361483D01*
X18897546Y-3372688D01*
X18859345Y-3383644D01*
X18859341Y-3383646D01*
X18762431Y-3440323D01*
X18762428Y-3440325D01*
X18709623Y-3486081D01*
X18709612Y-3486091D01*
X18667451Y-3530807D01*
X18667445Y-3530816D01*
X18616560Y-3630890D01*
X18596877Y-3697921D01*
X18596876Y-3697928D01*
X18584500Y-3784000D01*
X18584500Y-13636000D01*
X18584501Y-13636009D01*
X18591481Y-13700935D01*
X18591483Y-13700947D01*
X18602688Y-13752453D01*
X18613644Y-13790654D01*
X18613646Y-13790658D01*
X18670323Y-13887568D01*
X18670325Y-13887571D01*
X18716081Y-13940376D01*
X18716091Y-13940387D01*
X18760807Y-13982548D01*
X18760809Y-13982549D01*
X18760813Y-13982553D01*
X18840729Y-14023188D01*
X18891564Y-14071118D01*
X18908417Y-14138925D01*
X18885935Y-14205079D01*
X18872207Y-14221400D01*
X16278342Y-16815263D01*
X16254447Y-16833918D01*
X16249032Y-16837166D01*
X16249022Y-16837173D01*
X16170800Y-16908101D01*
X16155484Y-16919947D01*
X16132304Y-16935142D01*
X16122294Y-16941703D01*
X16102266Y-16952349D01*
X16074467Y-16964005D01*
X16062475Y-16969034D01*
X16053654Y-16972344D01*
X15965065Y-17001801D01*
X15960648Y-17003312D01*
X15960404Y-17003398D01*
X15955355Y-17005234D01*
X15827435Y-17053247D01*
X15823408Y-17054799D01*
X15822977Y-17054970D01*
X15819883Y-17056217D01*
X15819882Y-17056218D01*
X15809989Y-17062789D01*
X15788840Y-17074056D01*
X15737156Y-17095465D01*
X15611719Y-17191716D01*
X15515463Y-17317160D01*
X15454956Y-17463237D01*
X15454955Y-17463239D01*
X15434318Y-17619998D01*
X15434318Y-17620002D01*
X15438177Y-17649316D01*
X15427411Y-17718351D01*
X15381031Y-17770606D01*
X15315238Y-17789500D01*
X12487744Y-17789500D01*
X12462553Y-17786914D01*
X12460398Y-17786467D01*
X12450501Y-17784413D01*
X12450494Y-17784412D01*
X12370299Y-17783752D01*
X12363033Y-17783479D01*
X12325562Y-17780969D01*
X12309359Y-17778803D01*
X12295680Y-17776047D01*
X12280062Y-17771824D01*
X12243799Y-17759428D01*
X12237280Y-17756993D01*
X12162475Y-17726635D01*
X12156231Y-17725422D01*
X12144957Y-17722677D01*
X12031963Y-17689500D01*
X12031961Y-17689500D01*
X11888039Y-17689500D01*
X11888036Y-17689500D01*
X11749949Y-17730045D01*
X11628873Y-17807856D01*
X11534623Y-17916626D01*
X11534622Y-17916628D01*
X11474834Y-18047543D01*
X11454353Y-18190000D01*
X11474834Y-18332456D01*
X11533311Y-18460500D01*
X11534623Y-18463373D01*
X11628872Y-18572143D01*
X11749947Y-18649953D01*
X11749950Y-18649954D01*
X11749949Y-18649954D01*
X11888036Y-18690499D01*
X11888038Y-18690500D01*
X12026914Y-18690500D01*
X12093953Y-18710185D01*
X12139708Y-18762989D01*
X12149652Y-18796854D01*
X12164834Y-18902456D01*
X12209458Y-19000167D01*
X12224623Y-19033373D01*
X12318872Y-19142143D01*
X12439947Y-19219953D01*
X12439950Y-19219954D01*
X12439949Y-19219954D01*
X12578036Y-19260499D01*
X12578038Y-19260500D01*
X12578039Y-19260500D01*
X12721961Y-19260500D01*
X12860053Y-19219953D01*
X12860055Y-19219951D01*
X12865276Y-19217566D01*
X12869958Y-19214996D01*
X12925558Y-19189298D01*
X12949627Y-19178174D01*
X12955872Y-19175184D01*
X12956427Y-19174909D01*
X12962301Y-19171904D01*
X13019668Y-19141608D01*
X13027105Y-19137995D01*
X13043095Y-19130880D01*
X13065495Y-19123378D01*
X13070958Y-19122112D01*
X13092068Y-19119105D01*
X13153097Y-19115721D01*
X13158117Y-19114503D01*
X13160223Y-19113993D01*
X13189446Y-19110500D01*
X21346142Y-19110500D01*
X21346144Y-19110500D01*
X21435288Y-19086614D01*
X21442528Y-19082434D01*
X21442529Y-19082434D01*
X21515205Y-19040474D01*
X21515204Y-19040474D01*
X21515212Y-19040470D01*
X22596649Y-17959030D01*
X22621259Y-17939951D01*
X22625785Y-17937278D01*
X22671340Y-17896511D01*
X22688396Y-17883710D01*
X22693157Y-17880740D01*
X22714303Y-17870208D01*
X22730603Y-17863947D01*
X22738477Y-17861222D01*
X22800381Y-17842105D01*
X22800388Y-17842102D01*
X22800426Y-17842091D01*
X22806697Y-17840065D01*
X22807284Y-17839867D01*
X22813821Y-17837563D01*
X22902480Y-17804953D01*
X22907001Y-17803241D01*
X22907399Y-17803086D01*
X22911578Y-17801416D01*
X22911593Y-17801405D01*
X22914150Y-17800066D01*
X22936805Y-17790906D01*
X22940053Y-17789953D01*
X23061128Y-17712143D01*
X23155377Y-17603373D01*
X23215165Y-17472457D01*
X23235647Y-17330000D01*
X23215165Y-17187543D01*
X23155377Y-17056627D01*
X23061128Y-16947857D01*
X22940053Y-16870047D01*
X22940051Y-16870046D01*
X22940049Y-16870045D01*
X22940050Y-16870045D01*
X22801963Y-16829500D01*
X22801961Y-16829500D01*
X22658039Y-16829500D01*
X22658036Y-16829500D01*
X22519949Y-16870045D01*
X22398873Y-16947856D01*
X22304623Y-17056626D01*
X22271980Y-17128100D01*
X22264981Y-17141266D01*
X22255046Y-17157515D01*
X22222705Y-17245435D01*
X22222706Y-17245436D01*
X22222494Y-17246010D01*
X22220164Y-17252610D01*
X22219994Y-17253111D01*
X22217922Y-17259520D01*
X22198776Y-17321517D01*
X22196051Y-17329392D01*
X22189790Y-17345691D01*
X22179254Y-17366840D01*
X22176290Y-17371593D01*
X22163477Y-17388667D01*
X22122719Y-17434214D01*
X22122715Y-17434219D01*
X22118899Y-17440479D01*
X22100705Y-17463612D01*
X21191137Y-18373181D01*
X21129814Y-18406666D01*
X21103456Y-18409500D01*
X18106255Y-18409500D01*
X18039216Y-18389815D01*
X17993461Y-18337011D01*
X17983517Y-18267853D01*
X18012542Y-18204297D01*
X18018574Y-18197819D01*
X18614524Y-17601869D01*
X21610031Y-14606359D01*
X21629663Y-14590382D01*
X21639962Y-14583623D01*
X21697134Y-14527380D01*
X21702429Y-14522467D01*
X21730748Y-14497705D01*
X21743714Y-14487797D01*
X21755353Y-14480062D01*
X21769356Y-14472020D01*
X21803788Y-14455129D01*
X21810092Y-14452254D01*
X21884472Y-14420821D01*
X21884480Y-14420815D01*
X21886423Y-14419763D01*
X21908587Y-14410622D01*
X21910045Y-14409955D01*
X21910053Y-14409953D01*
X22031128Y-14332143D01*
X22125377Y-14223373D01*
X22185165Y-14092457D01*
X22205647Y-13950000D01*
X22185165Y-13807543D01*
X22125377Y-13676627D01*
X22031128Y-13567857D01*
X21910053Y-13490047D01*
X21910051Y-13490046D01*
X21910049Y-13490045D01*
X21910050Y-13490045D01*
X21771963Y-13449500D01*
X21771961Y-13449500D01*
X21628039Y-13449500D01*
X21628035Y-13449500D01*
X21554434Y-13471111D01*
X21484564Y-13471111D01*
X21425786Y-13433336D01*
X21396762Y-13369780D01*
X21395500Y-13352134D01*
X21395500Y-13234500D01*
X21415185Y-13167461D01*
X21467989Y-13121706D01*
X21519500Y-13110500D01*
X22576149Y-13110500D01*
X22643188Y-13130185D01*
X22651636Y-13136125D01*
X22667157Y-13148035D01*
X22667158Y-13148035D01*
X22667159Y-13148036D01*
X22813238Y-13208544D01*
X22891619Y-13218863D01*
X22969999Y-13229182D01*
X22970000Y-13229182D01*
X22970001Y-13229182D01*
X23022254Y-13222302D01*
X23126762Y-13208544D01*
X23272841Y-13148036D01*
X23288364Y-13136125D01*
X23353533Y-13110930D01*
X23363851Y-13110500D01*
X38161324Y-13110500D01*
X38228363Y-13130185D01*
X38249005Y-13146819D01*
X43397715Y-18295529D01*
X43431200Y-18356852D01*
X43426216Y-18426544D01*
X43384344Y-18482477D01*
X43318880Y-18506894D01*
X43310034Y-18507210D01*
X42654254Y-18507210D01*
X42587215Y-18487525D01*
X42566573Y-18470891D01*
X38999034Y-14903352D01*
X38979954Y-14878743D01*
X38977278Y-14874213D01*
X38936514Y-14828661D01*
X38923698Y-14811580D01*
X38920736Y-14806829D01*
X38910207Y-14785692D01*
X38903936Y-14769367D01*
X38901216Y-14761502D01*
X38882091Y-14699573D01*
X38880082Y-14693352D01*
X38880077Y-14693337D01*
X38880065Y-14693300D01*
X38879867Y-14692713D01*
X38877562Y-14686174D01*
X38844952Y-14597517D01*
X38843241Y-14592998D01*
X38843086Y-14592600D01*
X38841416Y-14588421D01*
X38833556Y-14576563D01*
X38824129Y-14559586D01*
X38795377Y-14496627D01*
X38701128Y-14387857D01*
X38580053Y-14310047D01*
X38580051Y-14310046D01*
X38580049Y-14310045D01*
X38580050Y-14310045D01*
X38441963Y-14269500D01*
X38441961Y-14269500D01*
X38298039Y-14269500D01*
X38298036Y-14269500D01*
X38159949Y-14310045D01*
X38038873Y-14387856D01*
X37944623Y-14496626D01*
X37944622Y-14496628D01*
X37884834Y-14627543D01*
X37869611Y-14733425D01*
X37840586Y-14796981D01*
X37781807Y-14834755D01*
X37711938Y-14834755D01*
X37653160Y-14796980D01*
X37628395Y-14752367D01*
X37612091Y-14699572D01*
X37612086Y-14699559D01*
X37612076Y-14699524D01*
X37610082Y-14693352D01*
X37610077Y-14693337D01*
X37610065Y-14693300D01*
X37609867Y-14692713D01*
X37607562Y-14686174D01*
X37574952Y-14597517D01*
X37573241Y-14592998D01*
X37573086Y-14592600D01*
X37571416Y-14588421D01*
X37563556Y-14576563D01*
X37554129Y-14559586D01*
X37525377Y-14496627D01*
X37431128Y-14387857D01*
X37310053Y-14310047D01*
X37310051Y-14310046D01*
X37310049Y-14310045D01*
X37310050Y-14310045D01*
X37171963Y-14269500D01*
X37171961Y-14269500D01*
X37028039Y-14269500D01*
X37028036Y-14269500D01*
X36889949Y-14310045D01*
X36768873Y-14387856D01*
X36674623Y-14496626D01*
X36674622Y-14496628D01*
X36614834Y-14627543D01*
X36594353Y-14770000D01*
X36614834Y-14912456D01*
X36674622Y-15043371D01*
X36674623Y-15043373D01*
X36768872Y-15152143D01*
X36768874Y-15152144D01*
X36768876Y-15152146D01*
X36889942Y-15229951D01*
X36889945Y-15229952D01*
X36889947Y-15229953D01*
X36899284Y-15232694D01*
X36921845Y-15242694D01*
X36922036Y-15242300D01*
X36927516Y-15244951D01*
X36927517Y-15244952D01*
X37016174Y-15277562D01*
X37019747Y-15278821D01*
X37022661Y-15279849D01*
X37022682Y-15279856D01*
X37022713Y-15279867D01*
X37023300Y-15280065D01*
X37023337Y-15280077D01*
X37023352Y-15280082D01*
X37025751Y-15280856D01*
X37029572Y-15282091D01*
X37069790Y-15294510D01*
X37091502Y-15301216D01*
X37099367Y-15303936D01*
X37115695Y-15310208D01*
X37136839Y-15320742D01*
X37141589Y-15323704D01*
X37158667Y-15336520D01*
X37204211Y-15377277D01*
X37210474Y-15381095D01*
X37233608Y-15399290D01*
X41708803Y-19874485D01*
X41727881Y-19899091D01*
X41730558Y-19903622D01*
X41734158Y-19908541D01*
X41732304Y-19909897D01*
X41757938Y-19963751D01*
X41749091Y-20033059D01*
X41704179Y-20086581D01*
X41637460Y-20107325D01*
X41635495Y-20107341D01*
X38969091Y-20107341D01*
X38938203Y-20103432D01*
X38933104Y-20102120D01*
X38872072Y-20098734D01*
X38850943Y-20095722D01*
X38845494Y-20094459D01*
X38823082Y-20086951D01*
X38807120Y-20079849D01*
X38799630Y-20076209D01*
X38742309Y-20045939D01*
X38736734Y-20043081D01*
X38736183Y-20042807D01*
X38729625Y-20039663D01*
X38649951Y-20002841D01*
X38645264Y-20000268D01*
X38638717Y-19997278D01*
X38633509Y-19995653D01*
X38626692Y-19993964D01*
X38501963Y-19957341D01*
X38501961Y-19957341D01*
X38358039Y-19957341D01*
X38358036Y-19957341D01*
X38219949Y-19997886D01*
X38098873Y-20075697D01*
X38098872Y-20075697D01*
X38098872Y-20075698D01*
X38095275Y-20079849D01*
X38004623Y-20184467D01*
X38004622Y-20184469D01*
X37944834Y-20315384D01*
X37939406Y-20353146D01*
X37910382Y-20416702D01*
X37851604Y-20454477D01*
X37816668Y-20459500D01*
X37668036Y-20459500D01*
X37529949Y-20500045D01*
X37408873Y-20577856D01*
X37314623Y-20686626D01*
X37314622Y-20686628D01*
X37254834Y-20817543D01*
X37234353Y-20960000D01*
X37254834Y-21102456D01*
X37300300Y-21202011D01*
X37314623Y-21233373D01*
X37408872Y-21342143D01*
X37529947Y-21419953D01*
X37529950Y-21419954D01*
X37529949Y-21419954D01*
X37668036Y-21460499D01*
X37668038Y-21460500D01*
X37668039Y-21460500D01*
X37811961Y-21460500D01*
X37950053Y-21419953D01*
X37950055Y-21419951D01*
X37955276Y-21417566D01*
X37959958Y-21414996D01*
X37996272Y-21398211D01*
X38039627Y-21378174D01*
X38045872Y-21375184D01*
X38046427Y-21374909D01*
X38052301Y-21371904D01*
X38109668Y-21341608D01*
X38117105Y-21337995D01*
X38133095Y-21330880D01*
X38155495Y-21323378D01*
X38160958Y-21322112D01*
X38182068Y-21319105D01*
X38243097Y-21315721D01*
X38248117Y-21314503D01*
X38250223Y-21313993D01*
X38279446Y-21310500D01*
X46216142Y-21310500D01*
X46216144Y-21310500D01*
X46305288Y-21286614D01*
X46312528Y-21282434D01*
X46312529Y-21282434D01*
X46385205Y-21240474D01*
X46385204Y-21240474D01*
X46385212Y-21240470D01*
X51254958Y-16370722D01*
X51278915Y-16352031D01*
X51284257Y-16348832D01*
X51331100Y-16306394D01*
X51346525Y-16294489D01*
X51354349Y-16289377D01*
X51374456Y-16278736D01*
X51389749Y-16272363D01*
X51398501Y-16269098D01*
X51457734Y-16249506D01*
X51457787Y-16249488D01*
X51462351Y-16247930D01*
X51462648Y-16247825D01*
X51462798Y-16247773D01*
X51465878Y-16246653D01*
X51467650Y-16246010D01*
X51555359Y-16213137D01*
X51559092Y-16211705D01*
X51559423Y-16211575D01*
X51562920Y-16210171D01*
X51562931Y-16210163D01*
X51565737Y-16208691D01*
X51588470Y-16199489D01*
X51591367Y-16198639D01*
X51712442Y-16120829D01*
X51806691Y-16012059D01*
X51866479Y-15881143D01*
X51886961Y-15738686D01*
X51866479Y-15596229D01*
X51806691Y-15465313D01*
X51804784Y-15463112D01*
X51803575Y-15460464D01*
X51801896Y-15457852D01*
X51802271Y-15457610D01*
X51775759Y-15399561D01*
X51785700Y-15330402D01*
X51804782Y-15300707D01*
X51806691Y-15298505D01*
X51866479Y-15167589D01*
X51886961Y-15025132D01*
X51866479Y-14882675D01*
X51806691Y-14751759D01*
X51712442Y-14642989D01*
X51712440Y-14642987D01*
X51706634Y-14636287D01*
X51707636Y-14635417D01*
X51674804Y-14584332D01*
X51674802Y-14514463D01*
X51706097Y-14461715D01*
X53170995Y-12996819D01*
X53232318Y-12963334D01*
X53258676Y-12960500D01*
X53449972Y-12960500D01*
X53481347Y-12964535D01*
X53484082Y-12965250D01*
X53485814Y-12965703D01*
X53622876Y-12973865D01*
X53640070Y-12976103D01*
X53722858Y-12992839D01*
X53731805Y-12994996D01*
X53823173Y-13020662D01*
X53832376Y-13023063D01*
X53832738Y-13023150D01*
X53833208Y-13023264D01*
X53842473Y-13025317D01*
X53963970Y-13049876D01*
X53981580Y-13052797D01*
X53981597Y-13052799D01*
X53981614Y-13052802D01*
X53983236Y-13053013D01*
X54001005Y-13054696D01*
X54162449Y-13064311D01*
X54169550Y-13064635D01*
X54170213Y-13064656D01*
X54176966Y-13064772D01*
X54189220Y-13065682D01*
X54190000Y-13065682D01*
X54346762Y-13045044D01*
X54492841Y-12984536D01*
X54618282Y-12888282D01*
X54714536Y-12762841D01*
X54775044Y-12616762D01*
X54795682Y-12460000D01*
X54795269Y-12456865D01*
X54780290Y-12343082D01*
X54775044Y-12303238D01*
X54714536Y-12157159D01*
X54618282Y-12031718D01*
X54492841Y-11935464D01*
X54480678Y-11930426D01*
X54399249Y-11896697D01*
X54346762Y-11874956D01*
X54294508Y-11868076D01*
X54190002Y-11854318D01*
X54190000Y-11854318D01*
X54186129Y-11854827D01*
X54165178Y-11855793D01*
X54162453Y-11855687D01*
X54000985Y-11865304D01*
X53983232Y-11866986D01*
X53981591Y-11867199D01*
X53963975Y-11870121D01*
X53892049Y-11884660D01*
X53842474Y-11894682D01*
X53842446Y-11894688D01*
X53842437Y-11894690D01*
X53833380Y-11896693D01*
X53832524Y-11896899D01*
X53823204Y-11899328D01*
X53731813Y-11924999D01*
X53722849Y-11927161D01*
X53640073Y-11943893D01*
X53622878Y-11946132D01*
X53514785Y-11952570D01*
X53485813Y-11954296D01*
X53479220Y-11955916D01*
X53449626Y-11959500D01*
X52934108Y-11959500D01*
X52806812Y-11993608D01*
X52692686Y-12059500D01*
X52692683Y-12059502D01*
X47764571Y-16987614D01*
X47703248Y-17021099D01*
X47633556Y-17016115D01*
X47577623Y-16974243D01*
X47553206Y-16908779D01*
X47564095Y-16848423D01*
X47585112Y-16802404D01*
X47605594Y-16659947D01*
X47585112Y-16517490D01*
X47525324Y-16386574D01*
X47431075Y-16277804D01*
X47310000Y-16199994D01*
X47309998Y-16199993D01*
X47309996Y-16199992D01*
X47300669Y-16197254D01*
X47278106Y-16187253D01*
X47277916Y-16187647D01*
X47272439Y-16184996D01*
X47183771Y-16152381D01*
X47176953Y-16149982D01*
X47176368Y-16149785D01*
X47170386Y-16147857D01*
X47108431Y-16128725D01*
X47100565Y-16126003D01*
X47084246Y-16119734D01*
X47063110Y-16109205D01*
X47061102Y-16107953D01*
X47061068Y-16107931D01*
X47058341Y-16106230D01*
X47041279Y-16093425D01*
X47018521Y-16073060D01*
X46995731Y-16052666D01*
X46989475Y-16048852D01*
X46966338Y-16030656D01*
X41539034Y-10603352D01*
X41519954Y-10578743D01*
X41517278Y-10574213D01*
X41505225Y-10560744D01*
X41477147Y-10529367D01*
X41447111Y-10466283D01*
X41455948Y-10396975D01*
X41500854Y-10343447D01*
X41567571Y-10322694D01*
X41590580Y-10324996D01*
X41590585Y-10324959D01*
X41592716Y-10325209D01*
X41596047Y-10325543D01*
X41596632Y-10325671D01*
X41755082Y-10328676D01*
X41765492Y-10329313D01*
X41854214Y-10338495D01*
X41872002Y-10341660D01*
X41935756Y-10357875D01*
X41949477Y-10362227D01*
X42040318Y-10396975D01*
X42048744Y-10400198D01*
X42052297Y-10401620D01*
X42208359Y-10466921D01*
X42208359Y-10466920D01*
X42208363Y-10466922D01*
X42209319Y-10467327D01*
X42213339Y-10469048D01*
X42214138Y-10469339D01*
X42240416Y-10480334D01*
X42245882Y-10481295D01*
X42404944Y-10520500D01*
X42575056Y-10520500D01*
X42740222Y-10479791D01*
X42740223Y-10479790D01*
X42740225Y-10479790D01*
X42744805Y-10477385D01*
X42766027Y-10468644D01*
X42771629Y-10466922D01*
X42771641Y-10466920D01*
X42927688Y-10401624D01*
X42931202Y-10400217D01*
X43030523Y-10362226D01*
X43044234Y-10357876D01*
X43107995Y-10341659D01*
X43125778Y-10338495D01*
X43214504Y-10329312D01*
X43224913Y-10328676D01*
X43383368Y-10325671D01*
X43392651Y-10323686D01*
X43394746Y-10323239D01*
X43420664Y-10320500D01*
X49345890Y-10320500D01*
X49345892Y-10320500D01*
X49473186Y-10286392D01*
X49587314Y-10220500D01*
X51260633Y-8547179D01*
X51285673Y-8527847D01*
X51289652Y-8525519D01*
X51392345Y-8434370D01*
X51406074Y-8423803D01*
X51476464Y-8377084D01*
X51484287Y-8372301D01*
X51567065Y-8325830D01*
X51575338Y-8320979D01*
X51576080Y-8320525D01*
X51584020Y-8315463D01*
X51687260Y-8246942D01*
X51701782Y-8236555D01*
X51703079Y-8235557D01*
X51716873Y-8224152D01*
X51837831Y-8116792D01*
X51843204Y-8111885D01*
X51843686Y-8111432D01*
X51848369Y-8106905D01*
X51857732Y-8098832D01*
X51858281Y-8098283D01*
X51861306Y-8094341D01*
X51931647Y-8002669D01*
X51988073Y-7961468D01*
X52057819Y-7957313D01*
X52118740Y-7991525D01*
X52151493Y-8053242D01*
X52152961Y-8094341D01*
X52144318Y-8159997D01*
X52144318Y-8160001D01*
X52164955Y-8316760D01*
X52164956Y-8316762D01*
X52169163Y-8326918D01*
X52188869Y-8374494D01*
X52195041Y-8393673D01*
X52199000Y-8410581D01*
X52199004Y-8410592D01*
X52251203Y-8525519D01*
X52255461Y-8534893D01*
X52256099Y-8536263D01*
X52257454Y-8539175D01*
X52257629Y-8539542D01*
X52259803Y-8543991D01*
X52301692Y-8627610D01*
X52305589Y-8636188D01*
X52315308Y-8659944D01*
X52321928Y-8676123D01*
X52328561Y-8697814D01*
X52336648Y-8736674D01*
X52339101Y-8755879D01*
X52344261Y-8861357D01*
X52346148Y-8869308D01*
X52349500Y-8897943D01*
X52349500Y-9932430D01*
X52345791Y-9962533D01*
X52344261Y-9968645D01*
X52339101Y-10074119D01*
X52336648Y-10093324D01*
X52328561Y-10132182D01*
X52321928Y-10153871D01*
X52305587Y-10193812D01*
X52301688Y-10202396D01*
X52259802Y-10286009D01*
X52257751Y-10290198D01*
X52257633Y-10290444D01*
X52255472Y-10295081D01*
X52199006Y-10419406D01*
X52197418Y-10422971D01*
X52197333Y-10423165D01*
X52195687Y-10427023D01*
X52193346Y-10438635D01*
X52186355Y-10461571D01*
X52164956Y-10513235D01*
X52144318Y-10669998D01*
X52144318Y-10670001D01*
X52164955Y-10826760D01*
X52164956Y-10826762D01*
X52213911Y-10944951D01*
X52225464Y-10972841D01*
X52321718Y-11098282D01*
X52447159Y-11194536D01*
X52593238Y-11255044D01*
X52671619Y-11265363D01*
X52749999Y-11275682D01*
X52750000Y-11275682D01*
X52750001Y-11275682D01*
X52802254Y-11268802D01*
X52906762Y-11255044D01*
X53052841Y-11194536D01*
X53178282Y-11098282D01*
X53274536Y-10972841D01*
X53335044Y-10826762D01*
X53348802Y-10722254D01*
X53355682Y-10670001D01*
X53355682Y-10669998D01*
X53337504Y-10531923D01*
X53335044Y-10513238D01*
X53321190Y-10479791D01*
X53311127Y-10455496D01*
X53304952Y-10436308D01*
X53300997Y-10419414D01*
X53244551Y-10295135D01*
X53242474Y-10290678D01*
X53242282Y-10290276D01*
X53240168Y-10285955D01*
X53198311Y-10202399D01*
X53194413Y-10193818D01*
X53178070Y-10153875D01*
X53171435Y-10132178D01*
X53165814Y-10105165D01*
X53165812Y-10105156D01*
X53163347Y-10093316D01*
X53160895Y-10074118D01*
X53155739Y-9968648D01*
X53154288Y-9962533D01*
X53153851Y-9960690D01*
X53150500Y-9932059D01*
X53150500Y-8897564D01*
X53154209Y-8867464D01*
X53154248Y-8867305D01*
X53155739Y-8861350D01*
X53160896Y-8755872D01*
X53163347Y-8736681D01*
X53169522Y-8707013D01*
X53171434Y-8697822D01*
X53178069Y-8676124D01*
X53194413Y-8636178D01*
X53198308Y-8627606D01*
X53240158Y-8544065D01*
X53242242Y-8539804D01*
X53242246Y-8539794D01*
X53242282Y-8539722D01*
X53242474Y-8539320D01*
X53244551Y-8534863D01*
X53300997Y-8410585D01*
X53302510Y-8407188D01*
X53302655Y-8406856D01*
X53304311Y-8402977D01*
X53306650Y-8391370D01*
X53313640Y-8368433D01*
X53335044Y-8316762D01*
X53355682Y-8160000D01*
X53349345Y-8111869D01*
X53335044Y-8003239D01*
X53335044Y-8003238D01*
X53274536Y-7857159D01*
X53178282Y-7731718D01*
X53052841Y-7635464D01*
X53014795Y-7619705D01*
X52906762Y-7574956D01*
X52906760Y-7574955D01*
X52750001Y-7554318D01*
X52749999Y-7554318D01*
X52593239Y-7574955D01*
X52593237Y-7574956D01*
X52447160Y-7635463D01*
X52321715Y-7731720D01*
X52248351Y-7827330D01*
X52191923Y-7868533D01*
X52122177Y-7872687D01*
X52061257Y-7838474D01*
X52028505Y-7776756D01*
X52027037Y-7735663D01*
X52035682Y-7670000D01*
X52015044Y-7513238D01*
X51954536Y-7367159D01*
X51858282Y-7241718D01*
X51858280Y-7241717D01*
X51858280Y-7241716D01*
X51732841Y-7145464D01*
X51732840Y-7145463D01*
X51675097Y-7121545D01*
X51657170Y-7112347D01*
X51648475Y-7106951D01*
X51642424Y-7103196D01*
X51514577Y-7055210D01*
X51509762Y-7053458D01*
X51509310Y-7053299D01*
X51505030Y-7051833D01*
X51416341Y-7022344D01*
X51407516Y-7019032D01*
X51367736Y-7002352D01*
X51347708Y-6991705D01*
X51314512Y-6969946D01*
X51299196Y-6958099D01*
X51220970Y-6887168D01*
X51213998Y-6882870D01*
X51191388Y-6864996D01*
X49195915Y-4869522D01*
X49195914Y-4869521D01*
X49195913Y-4869520D01*
X49150250Y-4843156D01*
X49104589Y-4816793D01*
X49053657Y-4803146D01*
X49002727Y-4789500D01*
X49002726Y-4789500D01*
X48767572Y-4789500D01*
X48737475Y-4785792D01*
X48731353Y-4784260D01*
X48695051Y-4782484D01*
X48625880Y-4779101D01*
X48606674Y-4776648D01*
X48567814Y-4768561D01*
X48546123Y-4761928D01*
X48506193Y-4745591D01*
X48497610Y-4741692D01*
X48413991Y-4699803D01*
X48409531Y-4697624D01*
X48409170Y-4697451D01*
X48404826Y-4695430D01*
X48280536Y-4638980D01*
X48277066Y-4637435D01*
X48276757Y-4637301D01*
X48272977Y-4635688D01*
X48272974Y-4635687D01*
X48261364Y-4633346D01*
X48238425Y-4626355D01*
X48208899Y-4614125D01*
X48186762Y-4604956D01*
X48186760Y-4604955D01*
X48030001Y-4584318D01*
X48029999Y-4584318D01*
X47873239Y-4604955D01*
X47873237Y-4604956D01*
X47727160Y-4665463D01*
X47601718Y-4761718D01*
X47505463Y-4887160D01*
X47444956Y-5033237D01*
X47444955Y-5033239D01*
X47424318Y-5189998D01*
X47424318Y-5190001D01*
X47444955Y-5346760D01*
X47444956Y-5346762D01*
X47479679Y-5430592D01*
X47505464Y-5492841D01*
X47601718Y-5618282D01*
X47727159Y-5714536D01*
X47873238Y-5775044D01*
X47951619Y-5785363D01*
X48029999Y-5795682D01*
X48030000Y-5795682D01*
X48030001Y-5795682D01*
X48053768Y-5792552D01*
X48186762Y-5775044D01*
X48231120Y-5756670D01*
X48244502Y-5751127D01*
X48263688Y-5744952D01*
X48280585Y-5740997D01*
X48404863Y-5684551D01*
X48409320Y-5682474D01*
X48409722Y-5682282D01*
X48414047Y-5680166D01*
X48451167Y-5661570D01*
X48451166Y-5661569D01*
X48497612Y-5638304D01*
X48506163Y-5634419D01*
X48546130Y-5618066D01*
X48567806Y-5611437D01*
X48577013Y-5609522D01*
X48577012Y-5609521D01*
X48606678Y-5603348D01*
X48625877Y-5600896D01*
X48731350Y-5595739D01*
X48731355Y-5595737D01*
X48731758Y-5595718D01*
X48799679Y-5612104D01*
X48825496Y-5631889D01*
X50625263Y-7431656D01*
X50643921Y-7455556D01*
X50647168Y-7460970D01*
X50647170Y-7460973D01*
X50647173Y-7460976D01*
X50688386Y-7506427D01*
X50718836Y-7569312D01*
X50710454Y-7638677D01*
X50699841Y-7658293D01*
X50676201Y-7693910D01*
X50665628Y-7707650D01*
X50574476Y-7810350D01*
X50570953Y-7816169D01*
X50552567Y-7839617D01*
X49109005Y-9283181D01*
X49047682Y-9316666D01*
X49021324Y-9319500D01*
X45284500Y-9319500D01*
X45217461Y-9299815D01*
X45171706Y-9247011D01*
X45160500Y-9195500D01*
X45160500Y-5927564D01*
X45164209Y-5897464D01*
X45164248Y-5897305D01*
X45165739Y-5891350D01*
X45170896Y-5785872D01*
X45173347Y-5766681D01*
X45179522Y-5737013D01*
X45181434Y-5727822D01*
X45188069Y-5706124D01*
X45204413Y-5666178D01*
X45208308Y-5657606D01*
X45250158Y-5574065D01*
X45252242Y-5569804D01*
X45252246Y-5569794D01*
X45252282Y-5569722D01*
X45252474Y-5569320D01*
X45254551Y-5564863D01*
X45310997Y-5440585D01*
X45312510Y-5437188D01*
X45312655Y-5436856D01*
X45314311Y-5432977D01*
X45316650Y-5421370D01*
X45323640Y-5398433D01*
X45345044Y-5346762D01*
X45365682Y-5190000D01*
X45364365Y-5180000D01*
X45345044Y-5033239D01*
X45345044Y-5033238D01*
X45284536Y-4887159D01*
X45188282Y-4761718D01*
X45062841Y-4665464D01*
X45038696Y-4655463D01*
X44916762Y-4604956D01*
X44916760Y-4604955D01*
X44760001Y-4584318D01*
X44759999Y-4584318D01*
X44603239Y-4604955D01*
X44603237Y-4604956D01*
X44457160Y-4665463D01*
X44331718Y-4761718D01*
X44235463Y-4887160D01*
X44174956Y-5033237D01*
X44174955Y-5033239D01*
X44154318Y-5189998D01*
X44154318Y-5190001D01*
X44174955Y-5346760D01*
X44174956Y-5346761D01*
X44198869Y-5404494D01*
X44205041Y-5423673D01*
X44209000Y-5440581D01*
X44209004Y-5440592D01*
X44265051Y-5563991D01*
X44265461Y-5564893D01*
X44267344Y-5568938D01*
X44267454Y-5569175D01*
X44267629Y-5569542D01*
X44269803Y-5573991D01*
X44311692Y-5657610D01*
X44315591Y-5666193D01*
X44331928Y-5706123D01*
X44338561Y-5727814D01*
X44346648Y-5766674D01*
X44349101Y-5785879D01*
X44354261Y-5891357D01*
X44356148Y-5899308D01*
X44359500Y-5927943D01*
X44359500Y-9195500D01*
X44339815Y-9262539D01*
X44287011Y-9308294D01*
X44235500Y-9319500D01*
X43420417Y-9319500D01*
X43393926Y-9316637D01*
X43383368Y-9314328D01*
X43383370Y-9314328D01*
X43224907Y-9311320D01*
X43214497Y-9310683D01*
X43125792Y-9301503D01*
X43107991Y-9298336D01*
X43048823Y-9283287D01*
X42988704Y-9247685D01*
X42972689Y-9226290D01*
X42972554Y-9226062D01*
X42969697Y-9220967D01*
X42969449Y-9220500D01*
X42935120Y-9155748D01*
X42925495Y-9131896D01*
X42909979Y-9077870D01*
X42905468Y-9052363D01*
X42900603Y-8983369D01*
X42895634Y-8912904D01*
X42894328Y-8907771D01*
X42890500Y-8877199D01*
X42890500Y-5917564D01*
X42894209Y-5887464D01*
X42894248Y-5887305D01*
X42895739Y-5881350D01*
X42900896Y-5775872D01*
X42903347Y-5756681D01*
X42909522Y-5727013D01*
X42911434Y-5717822D01*
X42918069Y-5696124D01*
X42934413Y-5656178D01*
X42938308Y-5647606D01*
X42980158Y-5564065D01*
X42982242Y-5559804D01*
X42982246Y-5559794D01*
X42982282Y-5559722D01*
X42982474Y-5559320D01*
X42984551Y-5554863D01*
X43040997Y-5430585D01*
X43042510Y-5427188D01*
X43042655Y-5426856D01*
X43044311Y-5422977D01*
X43046650Y-5411370D01*
X43053640Y-5388433D01*
X43075044Y-5336762D01*
X43094365Y-5190001D01*
X43095682Y-5180001D01*
X43095682Y-5179998D01*
X43076361Y-5033239D01*
X43075044Y-5023238D01*
X43014536Y-4877159D01*
X42918282Y-4751718D01*
X42792841Y-4655464D01*
X42771487Y-4646619D01*
X42646762Y-4594956D01*
X42646760Y-4594955D01*
X42490001Y-4574318D01*
X42489999Y-4574318D01*
X42333239Y-4594955D01*
X42333237Y-4594956D01*
X42187160Y-4655463D01*
X42061718Y-4751718D01*
X41965463Y-4877160D01*
X41904956Y-5023237D01*
X41904955Y-5023239D01*
X41884318Y-5179998D01*
X41884318Y-5180001D01*
X41904955Y-5336760D01*
X41904956Y-5336762D01*
X41909098Y-5346761D01*
X41928869Y-5394494D01*
X41935041Y-5413673D01*
X41939000Y-5430581D01*
X41939004Y-5430592D01*
X41995420Y-5554803D01*
X41995461Y-5554893D01*
X41997344Y-5558938D01*
X41997454Y-5559175D01*
X41997629Y-5559542D01*
X41999803Y-5563991D01*
X42041692Y-5647610D01*
X42045589Y-5656188D01*
X42056258Y-5682266D01*
X42061928Y-5696123D01*
X42068561Y-5717814D01*
X42076648Y-5756674D01*
X42079101Y-5775879D01*
X42084261Y-5881357D01*
X42086148Y-5889308D01*
X42089500Y-5917943D01*
X42089500Y-8877477D01*
X42085115Y-8910160D01*
X42084366Y-8912898D01*
X42074530Y-9052365D01*
X42070019Y-9077870D01*
X42054504Y-9131892D01*
X42044880Y-9155740D01*
X42010292Y-9220979D01*
X42007313Y-9226280D01*
X42007169Y-9226522D01*
X41955971Y-9274067D01*
X41931172Y-9283287D01*
X41872004Y-9298336D01*
X41854204Y-9301503D01*
X41765501Y-9310683D01*
X41755090Y-9311320D01*
X41596629Y-9314328D01*
X41585255Y-9316760D01*
X41559331Y-9319500D01*
X36181019Y-9319500D01*
X36113980Y-9299815D01*
X36098800Y-9288322D01*
X36020852Y-9219266D01*
X36020850Y-9219265D01*
X36020849Y-9219264D01*
X35870226Y-9140210D01*
X35705056Y-9099500D01*
X35534944Y-9099500D01*
X35369773Y-9140210D01*
X35219150Y-9219264D01*
X35210958Y-9226522D01*
X35141206Y-9288316D01*
X35077976Y-9318037D01*
X35058981Y-9319500D01*
X34269659Y-9319500D01*
X34202620Y-9299815D01*
X34156865Y-9247011D01*
X34146921Y-9177853D01*
X34175946Y-9114297D01*
X34194588Y-9098143D01*
X34194423Y-9097953D01*
X34201120Y-9092147D01*
X34201128Y-9092143D01*
X34295377Y-8983373D01*
X34328023Y-8911888D01*
X34335025Y-8898716D01*
X34344953Y-8882480D01*
X34377563Y-8793821D01*
X34379867Y-8787284D01*
X34380065Y-8786697D01*
X34382091Y-8780426D01*
X34401222Y-8718475D01*
X34403947Y-8710603D01*
X34410208Y-8694303D01*
X34420740Y-8673157D01*
X34423710Y-8668396D01*
X34436504Y-8651347D01*
X34477278Y-8605785D01*
X34481091Y-8599528D01*
X34499282Y-8576398D01*
X38928863Y-4146819D01*
X38990186Y-4113334D01*
X39016544Y-4110500D01*
X47807902Y-4110500D01*
X47838274Y-4114277D01*
X47844042Y-4115734D01*
X47906537Y-4118931D01*
X47926393Y-4121567D01*
X47932664Y-4122922D01*
X47934441Y-4123306D01*
X47956396Y-4130238D01*
X47971900Y-4136771D01*
X47980092Y-4140581D01*
X48036355Y-4169290D01*
X48038919Y-4170564D01*
X48041198Y-4171697D01*
X48041218Y-4171707D01*
X48041263Y-4171729D01*
X48041718Y-4171949D01*
X48046751Y-4174315D01*
X48046796Y-4174336D01*
X48121744Y-4208582D01*
X48121755Y-4208586D01*
X48125076Y-4210103D01*
X48128884Y-4212185D01*
X48136657Y-4215734D01*
X48140035Y-4216786D01*
X48140039Y-4216788D01*
X48140043Y-4216788D01*
X48141058Y-4217105D01*
X48148861Y-4219038D01*
X48221691Y-4240423D01*
X48273038Y-4255500D01*
X48273039Y-4255500D01*
X48416962Y-4255500D01*
X48416962Y-4255499D01*
X48547724Y-4217105D01*
X48555050Y-4214954D01*
X48555050Y-4214953D01*
X48555053Y-4214953D01*
X48676128Y-4137143D01*
X48770377Y-4028373D01*
X48803023Y-3956888D01*
X48810025Y-3943716D01*
X48819953Y-3927480D01*
X48852563Y-3838821D01*
X48854867Y-3832284D01*
X48855065Y-3831697D01*
X48857091Y-3825426D01*
X48876222Y-3763475D01*
X48878947Y-3755603D01*
X48885208Y-3739303D01*
X48895740Y-3718157D01*
X48898710Y-3713396D01*
X48911504Y-3696347D01*
X48952278Y-3650785D01*
X48956091Y-3644528D01*
X48974282Y-3621398D01*
X49768546Y-2827134D01*
X49790839Y-2810911D01*
X49790233Y-2809968D01*
X49795352Y-2806677D01*
X49795351Y-2806677D01*
X49795356Y-2806675D01*
X50030565Y-2620524D01*
X50065439Y-2601118D01*
X50213151Y-2547856D01*
X50243493Y-2541062D01*
X50446504Y-2521819D01*
X50448822Y-2521588D01*
X50448947Y-2521575D01*
X50449034Y-2521565D01*
X50449122Y-2521557D01*
X50449123Y-2521574D01*
X50449187Y-2521550D01*
X50449351Y-2521533D01*
X50449535Y-2521513D01*
X50449560Y-2521511D01*
X50739168Y-2490927D01*
X50739176Y-2490926D01*
X50739178Y-2490925D01*
X50739194Y-2490924D01*
X50762582Y-2487353D01*
X50762605Y-2487348D01*
X50762613Y-2487347D01*
X50763671Y-2487134D01*
X50764712Y-2486926D01*
X50787833Y-2481157D01*
X51019226Y-2411815D01*
X51032005Y-2408715D01*
X51062456Y-2403024D01*
X51105368Y-2386399D01*
X51114534Y-2383254D01*
X51146229Y-2373758D01*
X51146236Y-2373755D01*
X51146255Y-2373750D01*
X51155866Y-2370601D01*
X51158559Y-2369719D01*
X51159666Y-2369325D01*
X51171509Y-2364776D01*
X51174518Y-2362769D01*
X51198500Y-2350319D01*
X51252637Y-2329348D01*
X51426041Y-2221981D01*
X51576764Y-2084579D01*
X51699673Y-1921821D01*
X51790582Y-1739250D01*
X51846397Y-1543083D01*
X51865215Y-1340000D01*
X51856814Y-1249342D01*
X51846397Y-1136917D01*
X51816228Y-1030886D01*
X51790582Y-940750D01*
X51699673Y-758179D01*
X51576764Y-595421D01*
X51576762Y-595418D01*
X51426041Y-458019D01*
X51426039Y-458017D01*
X51380671Y-429927D01*
X51334035Y-377900D01*
X51322931Y-308918D01*
X51350884Y-244884D01*
X51409019Y-206127D01*
X51445948Y-200500D01*
X52614052Y-200500D01*
X52681091Y-220185D01*
X52726846Y-272989D01*
X52736790Y-342147D01*
X52707765Y-405703D01*
X52679329Y-429927D01*
X52633960Y-458017D01*
X52633958Y-458019D01*
X52483237Y-595418D01*
X52360327Y-758178D01*
X52269422Y-940739D01*
X52269417Y-940752D01*
X52213602Y-1136917D01*
X52194785Y-1339999D01*
X52194785Y-1340000D01*
X52213602Y-1543082D01*
X52269417Y-1739247D01*
X52269422Y-1739260D01*
X52360327Y-1921821D01*
X52483237Y-2084581D01*
X52633958Y-2221980D01*
X52633960Y-2221982D01*
X52733141Y-2283392D01*
X52807363Y-2329348D01*
X52997544Y-2403024D01*
X53198024Y-2440500D01*
X53198026Y-2440500D01*
X53401974Y-2440500D01*
X53401976Y-2440500D01*
X53602456Y-2403024D01*
X53792637Y-2329348D01*
X53966041Y-2221981D01*
X54116764Y-2084579D01*
X54239673Y-1921821D01*
X54330582Y-1739250D01*
X54386397Y-1543083D01*
X54405215Y-1340000D01*
X54396814Y-1249342D01*
X54386397Y-1136917D01*
X54356228Y-1030886D01*
X54330582Y-940750D01*
X54239673Y-758179D01*
X54116764Y-595421D01*
X54116762Y-595418D01*
X53966041Y-458019D01*
X53966039Y-458017D01*
X53920671Y-429927D01*
X53874035Y-377900D01*
X53862931Y-308918D01*
X53890884Y-244884D01*
X53949019Y-206127D01*
X53985948Y-200500D01*
X55154052Y-200500D01*
X55221091Y-220185D01*
X55266846Y-272989D01*
X55276790Y-342147D01*
X55247765Y-405703D01*
X55219329Y-429927D01*
X55173960Y-458017D01*
X55173958Y-458019D01*
X55023237Y-595418D01*
X54900327Y-758178D01*
X54809422Y-940739D01*
X54809417Y-940752D01*
X54753602Y-1136917D01*
X54734785Y-1339999D01*
X54734785Y-1340000D01*
X54753602Y-1543082D01*
X54809417Y-1739247D01*
X54809422Y-1739260D01*
X54900327Y-1921821D01*
X55023237Y-2084581D01*
X55173958Y-2221980D01*
X55173960Y-2221982D01*
X55273141Y-2283392D01*
X55347363Y-2329348D01*
X55537544Y-2403024D01*
X55738024Y-2440500D01*
X55738026Y-2440500D01*
X55941974Y-2440500D01*
X55941976Y-2440500D01*
X56142456Y-2403024D01*
X56332637Y-2329348D01*
X56506041Y-2221981D01*
X56656764Y-2084579D01*
X56779673Y-1921821D01*
X56870582Y-1739250D01*
X56926397Y-1543083D01*
X56945215Y-1340000D01*
X56936814Y-1249342D01*
X56926397Y-1136917D01*
X56896228Y-1030886D01*
X56870582Y-940750D01*
X56779673Y-758179D01*
X56656764Y-595421D01*
X56656762Y-595418D01*
X56506041Y-458019D01*
X56506039Y-458017D01*
X56460671Y-429927D01*
X56414035Y-377900D01*
X56402931Y-308918D01*
X56430884Y-244884D01*
X56489019Y-206127D01*
X56525948Y-200500D01*
X57190176Y-200500D01*
X57257215Y-220185D01*
X57302970Y-272989D01*
X57312914Y-342147D01*
X57298126Y-380738D01*
X57298707Y-380979D01*
X57294032Y-392264D01*
X57279500Y-465321D01*
X57279500Y-2214678D01*
X57294032Y-2287735D01*
X57294033Y-2287739D01*
X57294034Y-2287740D01*
X57349399Y-2370601D01*
X57406436Y-2408711D01*
X57432260Y-2425966D01*
X57432264Y-2425967D01*
X57505321Y-2440499D01*
X57505324Y-2440500D01*
X57505326Y-2440500D01*
X59254676Y-2440500D01*
X59254677Y-2440499D01*
X59327740Y-2425966D01*
X59410601Y-2370601D01*
X59465966Y-2287740D01*
X59480500Y-2214674D01*
X59480500Y-465326D01*
X59480500Y-465323D01*
X59480499Y-465321D01*
X59465967Y-392264D01*
X59465966Y-392263D01*
X59465966Y-392260D01*
X59465964Y-392257D01*
X59461293Y-380979D01*
X59462657Y-380413D01*
X59445844Y-326710D01*
X59464330Y-259331D01*
X59516310Y-212642D01*
X59569824Y-200500D01*
X59746000Y-200500D01*
X59813039Y-220185D01*
X59858794Y-272989D01*
X59870000Y-324500D01*
X59870000Y-25075500D01*
X59850315Y-25142539D01*
X59797511Y-25188294D01*
X59746000Y-25199500D01*
X56525948Y-25199500D01*
X56458909Y-25179815D01*
X56413154Y-25127011D01*
X56403210Y-25057853D01*
X56432235Y-24994297D01*
X56460671Y-24970073D01*
X56506039Y-24941982D01*
X56506038Y-24941982D01*
X56506041Y-24941981D01*
X56656764Y-24804579D01*
X56779673Y-24641821D01*
X56870582Y-24459250D01*
X56926397Y-24263083D01*
X56945215Y-24060000D01*
X56931566Y-23912706D01*
X56926397Y-23856917D01*
X56925849Y-23854991D01*
X56870582Y-23660750D01*
X56844426Y-23608222D01*
X56814704Y-23548531D01*
X56779673Y-23478179D01*
X56711513Y-23387920D01*
X56656762Y-23315418D01*
X56506041Y-23178019D01*
X56506039Y-23178017D01*
X56332642Y-23070655D01*
X56332635Y-23070651D01*
X56191767Y-23016079D01*
X56142456Y-22996976D01*
X55941976Y-22959500D01*
X55738024Y-22959500D01*
X55537544Y-22996976D01*
X55537541Y-22996976D01*
X55537541Y-22996977D01*
X55347364Y-23070651D01*
X55347357Y-23070655D01*
X55173960Y-23178017D01*
X55173958Y-23178019D01*
X55023237Y-23315418D01*
X54900327Y-23478178D01*
X54809422Y-23660739D01*
X54809417Y-23660752D01*
X54753602Y-23856917D01*
X54734785Y-24059999D01*
X54734785Y-24060000D01*
X54753602Y-24263082D01*
X54809417Y-24459247D01*
X54809422Y-24459260D01*
X54900327Y-24641821D01*
X55023237Y-24804581D01*
X55173958Y-24941980D01*
X55173960Y-24941982D01*
X55219329Y-24970073D01*
X55265965Y-25022100D01*
X55277069Y-25091082D01*
X55249116Y-25155116D01*
X55190981Y-25193873D01*
X55154052Y-25199500D01*
X53985948Y-25199500D01*
X53918909Y-25179815D01*
X53873154Y-25127011D01*
X53863210Y-25057853D01*
X53892235Y-24994297D01*
X53920671Y-24970073D01*
X53966039Y-24941982D01*
X53966038Y-24941982D01*
X53966041Y-24941981D01*
X54116764Y-24804579D01*
X54239673Y-24641821D01*
X54330582Y-24459250D01*
X54386397Y-24263083D01*
X54405215Y-24060000D01*
X54391566Y-23912706D01*
X54386397Y-23856917D01*
X54385849Y-23854991D01*
X54330582Y-23660750D01*
X54304426Y-23608222D01*
X54274704Y-23548531D01*
X54239673Y-23478179D01*
X54171513Y-23387920D01*
X54116762Y-23315418D01*
X53966041Y-23178019D01*
X53966039Y-23178017D01*
X53792642Y-23070655D01*
X53792635Y-23070651D01*
X53651767Y-23016079D01*
X53602456Y-22996976D01*
X53401976Y-22959500D01*
X53198024Y-22959500D01*
X52997544Y-22996976D01*
X52997541Y-22996976D01*
X52997541Y-22996977D01*
X52807364Y-23070651D01*
X52807357Y-23070655D01*
X52633960Y-23178017D01*
X52633958Y-23178019D01*
X52483237Y-23315418D01*
X52360327Y-23478178D01*
X52269422Y-23660739D01*
X52269417Y-23660752D01*
X52213602Y-23856917D01*
X52194785Y-24059999D01*
X52194785Y-24060000D01*
X52213602Y-24263082D01*
X52269417Y-24459247D01*
X52269422Y-24459260D01*
X52360327Y-24641821D01*
X52483237Y-24804581D01*
X52633958Y-24941980D01*
X52633960Y-24941982D01*
X52679329Y-24970073D01*
X52725965Y-25022100D01*
X52737069Y-25091082D01*
X52709116Y-25155116D01*
X52650981Y-25193873D01*
X52614052Y-25199500D01*
X51445948Y-25199500D01*
X51378909Y-25179815D01*
X51333154Y-25127011D01*
X51323210Y-25057853D01*
X51352235Y-24994297D01*
X51380671Y-24970073D01*
X51426039Y-24941982D01*
X51426038Y-24941982D01*
X51426041Y-24941981D01*
X51576764Y-24804579D01*
X51699673Y-24641821D01*
X51790582Y-24459250D01*
X51846397Y-24263083D01*
X51865215Y-24060000D01*
X51851566Y-23912706D01*
X51846397Y-23856917D01*
X51845849Y-23854991D01*
X51790582Y-23660750D01*
X51764426Y-23608222D01*
X51734704Y-23548531D01*
X51699673Y-23478179D01*
X51631513Y-23387920D01*
X51576762Y-23315418D01*
X51426041Y-23178019D01*
X51426039Y-23178017D01*
X51252642Y-23070655D01*
X51252635Y-23070651D01*
X51111767Y-23016079D01*
X51062456Y-22996976D01*
X50861976Y-22959500D01*
X50658024Y-22959500D01*
X50457544Y-22996976D01*
X50457541Y-22996976D01*
X50457541Y-22996977D01*
X50267364Y-23070651D01*
X50267357Y-23070655D01*
X50093960Y-23178017D01*
X50093958Y-23178019D01*
X49943237Y-23315418D01*
X49820327Y-23478178D01*
X49729422Y-23660739D01*
X49729417Y-23660752D01*
X49673602Y-23856917D01*
X49654785Y-24059999D01*
X49654785Y-24060000D01*
X49673602Y-24263082D01*
X49729417Y-24459247D01*
X49729422Y-24459260D01*
X49820327Y-24641821D01*
X49943237Y-24804581D01*
X50093958Y-24941980D01*
X50093960Y-24941982D01*
X50139329Y-24970073D01*
X50185965Y-25022100D01*
X50197069Y-25091082D01*
X50169116Y-25155116D01*
X50110981Y-25193873D01*
X50074052Y-25199500D01*
X48905948Y-25199500D01*
X48838909Y-25179815D01*
X48793154Y-25127011D01*
X48783210Y-25057853D01*
X48812235Y-24994297D01*
X48840671Y-24970073D01*
X48886039Y-24941982D01*
X48886038Y-24941982D01*
X48886041Y-24941981D01*
X49036764Y-24804579D01*
X49159673Y-24641821D01*
X49250582Y-24459250D01*
X49306397Y-24263083D01*
X49325215Y-24060000D01*
X49311566Y-23912706D01*
X49306397Y-23856917D01*
X49305849Y-23854991D01*
X49250582Y-23660750D01*
X49224426Y-23608222D01*
X49194704Y-23548531D01*
X49159673Y-23478179D01*
X49091513Y-23387920D01*
X49036762Y-23315418D01*
X48886041Y-23178019D01*
X48886039Y-23178017D01*
X48712642Y-23070655D01*
X48712635Y-23070651D01*
X48571767Y-23016079D01*
X48522456Y-22996976D01*
X48321976Y-22959500D01*
X48118024Y-22959500D01*
X47917544Y-22996976D01*
X47917541Y-22996976D01*
X47917541Y-22996977D01*
X47727364Y-23070651D01*
X47727357Y-23070655D01*
X47553960Y-23178017D01*
X47553958Y-23178019D01*
X47403237Y-23315418D01*
X47280327Y-23478178D01*
X47189422Y-23660739D01*
X47189417Y-23660752D01*
X47133602Y-23856917D01*
X47114785Y-24059999D01*
X47114785Y-24060000D01*
X47133602Y-24263082D01*
X47189417Y-24459247D01*
X47189422Y-24459260D01*
X47280327Y-24641821D01*
X47403237Y-24804581D01*
X47553958Y-24941980D01*
X47553960Y-24941982D01*
X47599329Y-24970073D01*
X47645965Y-25022100D01*
X47657069Y-25091082D01*
X47629116Y-25155116D01*
X47570981Y-25193873D01*
X47534052Y-25199500D01*
X46365948Y-25199500D01*
X46298909Y-25179815D01*
X46253154Y-25127011D01*
X46243210Y-25057853D01*
X46272235Y-24994297D01*
X46300671Y-24970073D01*
X46346039Y-24941982D01*
X46346038Y-24941982D01*
X46346041Y-24941981D01*
X46496764Y-24804579D01*
X46619673Y-24641821D01*
X46710582Y-24459250D01*
X46766397Y-24263083D01*
X46785215Y-24060000D01*
X46771566Y-23912706D01*
X46766397Y-23856917D01*
X46765849Y-23854991D01*
X46710582Y-23660750D01*
X46684426Y-23608222D01*
X46654704Y-23548531D01*
X46619673Y-23478179D01*
X46551513Y-23387920D01*
X46496762Y-23315418D01*
X46346041Y-23178019D01*
X46346039Y-23178017D01*
X46172642Y-23070655D01*
X46172635Y-23070651D01*
X46031767Y-23016079D01*
X45982456Y-22996976D01*
X45781976Y-22959500D01*
X45578024Y-22959500D01*
X45377544Y-22996976D01*
X45377541Y-22996976D01*
X45377541Y-22996977D01*
X45187364Y-23070651D01*
X45187357Y-23070655D01*
X45013960Y-23178017D01*
X45013958Y-23178019D01*
X44863237Y-23315418D01*
X44740327Y-23478178D01*
X44649422Y-23660739D01*
X44649417Y-23660752D01*
X44593602Y-23856917D01*
X44574785Y-24059999D01*
X44574785Y-24060000D01*
X44593602Y-24263082D01*
X44649417Y-24459247D01*
X44649422Y-24459260D01*
X44740327Y-24641821D01*
X44863237Y-24804581D01*
X45013958Y-24941980D01*
X45013960Y-24941982D01*
X45059329Y-24970073D01*
X45105965Y-25022100D01*
X45117069Y-25091082D01*
X45089116Y-25155116D01*
X45030981Y-25193873D01*
X44994052Y-25199500D01*
X43825948Y-25199500D01*
X43758909Y-25179815D01*
X43713154Y-25127011D01*
X43703210Y-25057853D01*
X43732235Y-24994297D01*
X43760671Y-24970073D01*
X43806039Y-24941982D01*
X43806038Y-24941982D01*
X43806041Y-24941981D01*
X43956764Y-24804579D01*
X44079673Y-24641821D01*
X44170582Y-24459250D01*
X44226397Y-24263083D01*
X44245215Y-24060000D01*
X44231566Y-23912706D01*
X44226397Y-23856917D01*
X44225849Y-23854991D01*
X44170582Y-23660750D01*
X44144426Y-23608222D01*
X44114704Y-23548531D01*
X44079673Y-23478179D01*
X44011513Y-23387920D01*
X43956762Y-23315418D01*
X43806041Y-23178019D01*
X43806039Y-23178017D01*
X43632642Y-23070655D01*
X43632635Y-23070651D01*
X43491767Y-23016079D01*
X43442456Y-22996976D01*
X43241976Y-22959500D01*
X43038024Y-22959500D01*
X42837544Y-22996976D01*
X42837541Y-22996976D01*
X42837541Y-22996977D01*
X42647364Y-23070651D01*
X42647357Y-23070655D01*
X42473960Y-23178017D01*
X42473958Y-23178019D01*
X42323237Y-23315418D01*
X42200327Y-23478178D01*
X42109422Y-23660739D01*
X42109417Y-23660752D01*
X42053602Y-23856917D01*
X42034785Y-24059999D01*
X42034785Y-24060000D01*
X42053602Y-24263082D01*
X42109417Y-24459247D01*
X42109422Y-24459260D01*
X42200327Y-24641821D01*
X42323237Y-24804581D01*
X42473958Y-24941980D01*
X42473960Y-24941982D01*
X42519329Y-24970073D01*
X42565965Y-25022100D01*
X42577069Y-25091082D01*
X42549116Y-25155116D01*
X42490981Y-25193873D01*
X42454052Y-25199500D01*
X41285948Y-25199500D01*
X41218909Y-25179815D01*
X41173154Y-25127011D01*
X41163210Y-25057853D01*
X41192235Y-24994297D01*
X41220671Y-24970073D01*
X41266039Y-24941982D01*
X41266038Y-24941982D01*
X41266041Y-24941981D01*
X41416764Y-24804579D01*
X41539673Y-24641821D01*
X41630582Y-24459250D01*
X41686397Y-24263083D01*
X41705215Y-24060000D01*
X41691566Y-23912706D01*
X41686397Y-23856917D01*
X41685849Y-23854991D01*
X41630582Y-23660750D01*
X41604426Y-23608222D01*
X41574704Y-23548531D01*
X41539673Y-23478179D01*
X41471513Y-23387920D01*
X41416762Y-23315418D01*
X41266041Y-23178019D01*
X41266039Y-23178017D01*
X41092642Y-23070655D01*
X41092635Y-23070651D01*
X40951767Y-23016079D01*
X40902456Y-22996976D01*
X40701976Y-22959500D01*
X40498024Y-22959500D01*
X40297544Y-22996976D01*
X40297541Y-22996976D01*
X40297541Y-22996977D01*
X40107364Y-23070651D01*
X40107357Y-23070655D01*
X39933960Y-23178017D01*
X39933958Y-23178019D01*
X39783237Y-23315418D01*
X39660327Y-23478178D01*
X39569422Y-23660739D01*
X39569417Y-23660752D01*
X39513602Y-23856917D01*
X39494785Y-24059999D01*
X39494785Y-24060000D01*
X39513602Y-24263082D01*
X39569417Y-24459247D01*
X39569422Y-24459260D01*
X39660327Y-24641821D01*
X39783237Y-24804581D01*
X39933958Y-24941980D01*
X39933960Y-24941982D01*
X39979329Y-24970073D01*
X40025965Y-25022100D01*
X40037069Y-25091082D01*
X40009116Y-25155116D01*
X39950981Y-25193873D01*
X39914052Y-25199500D01*
X38745948Y-25199500D01*
X38678909Y-25179815D01*
X38633154Y-25127011D01*
X38623210Y-25057853D01*
X38652235Y-24994297D01*
X38680671Y-24970073D01*
X38726039Y-24941982D01*
X38726038Y-24941982D01*
X38726041Y-24941981D01*
X38876764Y-24804579D01*
X38999673Y-24641821D01*
X39090582Y-24459250D01*
X39146397Y-24263083D01*
X39165215Y-24060000D01*
X39151566Y-23912706D01*
X39146397Y-23856917D01*
X39145849Y-23854991D01*
X39090582Y-23660750D01*
X39064426Y-23608222D01*
X39034704Y-23548531D01*
X38999673Y-23478179D01*
X38931513Y-23387920D01*
X38876762Y-23315418D01*
X38726041Y-23178019D01*
X38726039Y-23178017D01*
X38552642Y-23070655D01*
X38552635Y-23070651D01*
X38411767Y-23016079D01*
X38362456Y-22996976D01*
X38161976Y-22959500D01*
X37958024Y-22959500D01*
X37757544Y-22996976D01*
X37757541Y-22996976D01*
X37757541Y-22996977D01*
X37567364Y-23070651D01*
X37567357Y-23070655D01*
X37393960Y-23178017D01*
X37393958Y-23178019D01*
X37243237Y-23315418D01*
X37120327Y-23478178D01*
X37029422Y-23660739D01*
X37029417Y-23660752D01*
X36973602Y-23856917D01*
X36954785Y-24059999D01*
X36954785Y-24060000D01*
X36973602Y-24263082D01*
X37029417Y-24459247D01*
X37029422Y-24459260D01*
X37120327Y-24641821D01*
X37243237Y-24804581D01*
X37393958Y-24941980D01*
X37393960Y-24941982D01*
X37439329Y-24970073D01*
X37485965Y-25022100D01*
X37497069Y-25091082D01*
X37469116Y-25155116D01*
X37410981Y-25193873D01*
X37374052Y-25199500D01*
X36205948Y-25199500D01*
X36138909Y-25179815D01*
X36093154Y-25127011D01*
X36083210Y-25057853D01*
X36112235Y-24994297D01*
X36140671Y-24970073D01*
X36186039Y-24941982D01*
X36186038Y-24941982D01*
X36186041Y-24941981D01*
X36336764Y-24804579D01*
X36459673Y-24641821D01*
X36550582Y-24459250D01*
X36606397Y-24263083D01*
X36625215Y-24060000D01*
X36611566Y-23912706D01*
X36606397Y-23856917D01*
X36605849Y-23854991D01*
X36550582Y-23660750D01*
X36524426Y-23608222D01*
X36494704Y-23548531D01*
X36459673Y-23478179D01*
X36391513Y-23387920D01*
X36336762Y-23315418D01*
X36186041Y-23178019D01*
X36186039Y-23178017D01*
X36012642Y-23070655D01*
X36012635Y-23070651D01*
X35871767Y-23016079D01*
X35822456Y-22996976D01*
X35621976Y-22959500D01*
X35418024Y-22959500D01*
X35217544Y-22996976D01*
X35217541Y-22996976D01*
X35217541Y-22996977D01*
X35027364Y-23070651D01*
X35027357Y-23070655D01*
X34853960Y-23178017D01*
X34853958Y-23178019D01*
X34703237Y-23315418D01*
X34580327Y-23478178D01*
X34489422Y-23660739D01*
X34489417Y-23660752D01*
X34433602Y-23856917D01*
X34414785Y-24059999D01*
X34414785Y-24060000D01*
X34433602Y-24263082D01*
X34489417Y-24459247D01*
X34489422Y-24459260D01*
X34580327Y-24641821D01*
X34703237Y-24804581D01*
X34853958Y-24941980D01*
X34853960Y-24941982D01*
X34899329Y-24970073D01*
X34945965Y-25022100D01*
X34957069Y-25091082D01*
X34929116Y-25155116D01*
X34870981Y-25193873D01*
X34834052Y-25199500D01*
X33665948Y-25199500D01*
X33598909Y-25179815D01*
X33553154Y-25127011D01*
X33543210Y-25057853D01*
X33572235Y-24994297D01*
X33600671Y-24970073D01*
X33646039Y-24941982D01*
X33646038Y-24941982D01*
X33646041Y-24941981D01*
X33796764Y-24804579D01*
X33919673Y-24641821D01*
X34010582Y-24459250D01*
X34066397Y-24263083D01*
X34085215Y-24060000D01*
X34071566Y-23912706D01*
X34066397Y-23856917D01*
X34065849Y-23854991D01*
X34010582Y-23660750D01*
X33984426Y-23608222D01*
X33954704Y-23548531D01*
X33919673Y-23478179D01*
X33851513Y-23387920D01*
X33796762Y-23315418D01*
X33646041Y-23178019D01*
X33646039Y-23178017D01*
X33472642Y-23070655D01*
X33472635Y-23070651D01*
X33331767Y-23016079D01*
X33282456Y-22996976D01*
X33081976Y-22959500D01*
X32878024Y-22959500D01*
X32677544Y-22996976D01*
X32677541Y-22996976D01*
X32677541Y-22996977D01*
X32487364Y-23070651D01*
X32487357Y-23070655D01*
X32313960Y-23178017D01*
X32313958Y-23178019D01*
X32163237Y-23315418D01*
X32040327Y-23478178D01*
X31949422Y-23660739D01*
X31949417Y-23660752D01*
X31893602Y-23856917D01*
X31874785Y-24059999D01*
X31874785Y-24060000D01*
X31893602Y-24263082D01*
X31949417Y-24459247D01*
X31949422Y-24459260D01*
X32040327Y-24641821D01*
X32163237Y-24804581D01*
X32313958Y-24941980D01*
X32313960Y-24941982D01*
X32359329Y-24970073D01*
X32405965Y-25022100D01*
X32417069Y-25091082D01*
X32389116Y-25155116D01*
X32330981Y-25193873D01*
X32294052Y-25199500D01*
X31125948Y-25199500D01*
X31058909Y-25179815D01*
X31013154Y-25127011D01*
X31003210Y-25057853D01*
X31032235Y-24994297D01*
X31060671Y-24970073D01*
X31106039Y-24941982D01*
X31106038Y-24941982D01*
X31106041Y-24941981D01*
X31256764Y-24804579D01*
X31379673Y-24641821D01*
X31470582Y-24459250D01*
X31526397Y-24263083D01*
X31545215Y-24060000D01*
X31531566Y-23912706D01*
X31526397Y-23856917D01*
X31525849Y-23854991D01*
X31470582Y-23660750D01*
X31444426Y-23608222D01*
X31414704Y-23548531D01*
X31379673Y-23478179D01*
X31311513Y-23387920D01*
X31256762Y-23315418D01*
X31106041Y-23178019D01*
X31106039Y-23178017D01*
X30932642Y-23070655D01*
X30932635Y-23070651D01*
X30791767Y-23016079D01*
X30742456Y-22996976D01*
X30541976Y-22959500D01*
X30338024Y-22959500D01*
X30137544Y-22996976D01*
X30137541Y-22996976D01*
X30137541Y-22996977D01*
X29947364Y-23070651D01*
X29947357Y-23070655D01*
X29773960Y-23178017D01*
X29773958Y-23178019D01*
X29623236Y-23315419D01*
X29619375Y-23319656D01*
X29618378Y-23318747D01*
X29567603Y-23356425D01*
X29497891Y-23361115D01*
X29436709Y-23327371D01*
X29403484Y-23265907D01*
X29400761Y-23239684D01*
X29405119Y-21805628D01*
X29405119Y-21805616D01*
X29405118Y-21805615D01*
X29405119Y-21805608D01*
X29395986Y-21718789D01*
X29384782Y-21666902D01*
X29361933Y-21594640D01*
X29294873Y-21486943D01*
X29294872Y-21486942D01*
X29294871Y-21486940D01*
X29249124Y-21434145D01*
X29249120Y-21434141D01*
X29249118Y-21434139D01*
X29171546Y-21364958D01*
X29171544Y-21364957D01*
X29171543Y-21364956D01*
X29056910Y-21310611D01*
X28989870Y-21290926D01*
X28989862Y-21290924D01*
X28875623Y-21274500D01*
X6649032Y-21274500D01*
X6581993Y-21254815D01*
X6536238Y-21202011D01*
X6525032Y-21150610D01*
X6515968Y-10889610D01*
X6535593Y-10822553D01*
X6588357Y-10776751D01*
X6639968Y-10765500D01*
X12665991Y-10765500D01*
X12666000Y-10765500D01*
X12752199Y-10756232D01*
X12803710Y-10745026D01*
X12875360Y-10722310D01*
X12983057Y-10655250D01*
X13035861Y-10609495D01*
X13105042Y-10531923D01*
X13159389Y-10417285D01*
X13179074Y-10350246D01*
X13195500Y-10236000D01*
X13195500Y-6684000D01*
X13186232Y-6597801D01*
X13175026Y-6546290D01*
X13152310Y-6474640D01*
X13085250Y-6366943D01*
X13085249Y-6366942D01*
X13085248Y-6366940D01*
X13039501Y-6314145D01*
X13039497Y-6314141D01*
X13039495Y-6314139D01*
X12961923Y-6244958D01*
X12961921Y-6244957D01*
X12961920Y-6244956D01*
X12847287Y-6190611D01*
X12780247Y-6170926D01*
X12780239Y-6170924D01*
X12666000Y-6154500D01*
X4214067Y-6154500D01*
X4127757Y-6163791D01*
X4076189Y-6175024D01*
X4076175Y-6175028D01*
X4004446Y-6197801D01*
X3932670Y-6242547D01*
X3896783Y-6264920D01*
X3896782Y-6264921D01*
X3896771Y-6264929D01*
X3844010Y-6310696D01*
X3844002Y-6310704D01*
X3774865Y-6388311D01*
X3774861Y-6388317D01*
X3720579Y-6502981D01*
X3720576Y-6502991D01*
X3700932Y-6570025D01*
X3700930Y-6570037D01*
X3684567Y-6684278D01*
X3684567Y-6684284D01*
X3685287Y-8010448D01*
X3692261Y-8080961D01*
X3693101Y-8089447D01*
X3697568Y-8111869D01*
X3702537Y-8136818D01*
X3702538Y-8136822D01*
X3725588Y-8212773D01*
X3725596Y-8212795D01*
X3728307Y-8219340D01*
X3735359Y-8242590D01*
X3741027Y-8271084D01*
X3749617Y-8314270D01*
X3752000Y-8338458D01*
X3752000Y-8411542D01*
X3749617Y-8435731D01*
X3743955Y-8464193D01*
X3735360Y-8507404D01*
X3728311Y-8530648D01*
X3725985Y-8536263D01*
X3702891Y-8612432D01*
X3693453Y-8659944D01*
X3685682Y-8739176D01*
X3685682Y-8739182D01*
X3689992Y-16671808D01*
X3689992Y-16671813D01*
X3697803Y-16750799D01*
X3704892Y-16786389D01*
X3707240Y-16798174D01*
X3718088Y-16833918D01*
X3730298Y-16874148D01*
X3730360Y-16874321D01*
X3730456Y-16874669D01*
X3731178Y-16877047D01*
X3731119Y-16877064D01*
X3735217Y-16891877D01*
X3738579Y-16908779D01*
X3744772Y-16939911D01*
X3749617Y-16964263D01*
X3752000Y-16988457D01*
X3752000Y-17061542D01*
X3749617Y-17085734D01*
X3735154Y-17158441D01*
X3731414Y-17171967D01*
X3731565Y-17172013D01*
X3707582Y-17251107D01*
X3698147Y-17298605D01*
X3698145Y-17298620D01*
X3690374Y-17377847D01*
X3690374Y-17377853D01*
X3693405Y-22954468D01*
X3693405Y-22954479D01*
X3701483Y-23022947D01*
X3704485Y-23048395D01*
X3717821Y-23104267D01*
X3745277Y-23182656D01*
X3765691Y-23212716D01*
X3816555Y-23287613D01*
X3857320Y-23331051D01*
X3864365Y-23338558D01*
X3944618Y-23404609D01*
X4061321Y-23454368D01*
X4092998Y-23462320D01*
X4129083Y-23471379D01*
X4129084Y-23471379D01*
X4129088Y-23471380D01*
X4232321Y-23483558D01*
X4357399Y-23462322D01*
X4423605Y-23439995D01*
X4526610Y-23387923D01*
X4607001Y-23331632D01*
X4625711Y-23320830D01*
X4740068Y-23267504D01*
X4760369Y-23260115D01*
X4882228Y-23227463D01*
X4903506Y-23223712D01*
X4930025Y-23221393D01*
X4930024Y-23221392D01*
X5008707Y-23214510D01*
X5008717Y-23214507D01*
X5029197Y-23212716D01*
X5050800Y-23212716D01*
X5176493Y-23223712D01*
X5197765Y-23227463D01*
X5319633Y-23260116D01*
X5339935Y-23267505D01*
X5454280Y-23320826D01*
X5472996Y-23331632D01*
X5576343Y-23403996D01*
X5592901Y-23417890D01*
X5682111Y-23507100D01*
X5696005Y-23523658D01*
X5768364Y-23626998D01*
X5779171Y-23645716D01*
X5832487Y-23760052D01*
X5839880Y-23780364D01*
X5872533Y-23902228D01*
X5876286Y-23923513D01*
X5887282Y-24049189D01*
X5887282Y-24070805D01*
X5876286Y-24196485D01*
X5872533Y-24217771D01*
X5839881Y-24339630D01*
X5832488Y-24359940D01*
X5779171Y-24474280D01*
X5768365Y-24492998D01*
X5733848Y-24542293D01*
X5733848Y-24542294D01*
X5688963Y-24625670D01*
X5667803Y-24679143D01*
X5645291Y-24759210D01*
X5643481Y-24886057D01*
X5643482Y-24886064D01*
X5653425Y-24955220D01*
X5677640Y-25042268D01*
X5676642Y-25112130D01*
X5638032Y-25170363D01*
X5574069Y-25198477D01*
X5558176Y-25199500D01*
X3481Y-25199500D01*
X-3472Y-25199305D01*
X-306494Y-25182287D01*
X-320312Y-25180730D01*
X-616080Y-25130477D01*
X-629637Y-25127383D01*
X-917928Y-25044327D01*
X-931052Y-25039734D01*
X-1208223Y-24924927D01*
X-1220752Y-24918894D01*
X-1483329Y-24773772D01*
X-1495103Y-24766374D01*
X-1739786Y-24592763D01*
X-1750658Y-24584092D01*
X-1974353Y-24384184D01*
X-1984185Y-24374352D01*
X-2184093Y-24150657D01*
X-2192764Y-24139785D01*
X-2204204Y-24123662D01*
X-2329503Y-23947069D01*
X-2366375Y-23895102D01*
X-2373773Y-23883328D01*
X-2430673Y-23780375D01*
X-2518899Y-23620744D01*
X-2524928Y-23608222D01*
X-2639735Y-23331051D01*
X-2644328Y-23317927D01*
X-2705883Y-23104267D01*
X-2727385Y-23029634D01*
X-2730478Y-23016079D01*
X-2780733Y-22720301D01*
X-2782287Y-22706503D01*
X-2785460Y-22650000D01*
X-1845291Y-22650000D01*
X-1826149Y-22929862D01*
X-1826148Y-22929864D01*
X-1769079Y-23204499D01*
X-1769074Y-23204516D01*
X-1677450Y-23462320D01*
X-1675136Y-23468830D01*
X-1546081Y-23717896D01*
X-1384312Y-23947069D01*
X-1384308Y-23947073D01*
X-1384308Y-23947074D01*
X-1204329Y-24139785D01*
X-1192845Y-24152081D01*
X-975246Y-24329111D01*
X-975244Y-24329112D01*
X-975243Y-24329113D01*
X-735567Y-24474863D01*
X-526743Y-24565567D01*
X-478275Y-24586620D01*
X-208161Y-24662303D01*
X36159Y-24695884D01*
X69741Y-24700500D01*
X69742Y-24700500D01*
X350259Y-24700500D01*
X380219Y-24696381D01*
X628161Y-24662303D01*
X898275Y-24586620D01*
X1113815Y-24492998D01*
X1155566Y-24474863D01*
X1181241Y-24459250D01*
X1395246Y-24329111D01*
X1612845Y-24152081D01*
X1804312Y-23947069D01*
X1966081Y-23717896D01*
X2095136Y-23468830D01*
X2189075Y-23204511D01*
X2189076Y-23204504D01*
X2189078Y-23204499D01*
X2221518Y-23048388D01*
X2246148Y-22929862D01*
X2265291Y-22650000D01*
X2246148Y-22370138D01*
X2226443Y-22275315D01*
X2189078Y-22095500D01*
X2189073Y-22095483D01*
X2095136Y-21831171D01*
X2095136Y-21831170D01*
X1966081Y-21582104D01*
X1804312Y-21352931D01*
X1804307Y-21352925D01*
X1612845Y-21147919D01*
X1395242Y-20970886D01*
X1155566Y-20825136D01*
X898276Y-20713380D01*
X628166Y-20637698D01*
X628162Y-20637697D01*
X628161Y-20637697D01*
X489209Y-20618598D01*
X350259Y-20599500D01*
X350258Y-20599500D01*
X69742Y-20599500D01*
X69741Y-20599500D01*
X-208161Y-20637697D01*
X-208167Y-20637698D01*
X-478277Y-20713380D01*
X-735567Y-20825136D01*
X-975243Y-20970886D01*
X-1192846Y-21147919D01*
X-1384308Y-21352925D01*
X-1384308Y-21352926D01*
X-1384311Y-21352928D01*
X-1384312Y-21352931D01*
X-1431622Y-21419954D01*
X-1546081Y-21582103D01*
X-1675137Y-21831171D01*
X-1769074Y-22095483D01*
X-1769079Y-22095500D01*
X-1826148Y-22370135D01*
X-1826149Y-22370137D01*
X-1845291Y-22650000D01*
X-2785460Y-22650000D01*
X-2799305Y-22403472D01*
X-2799500Y-22396519D01*
X-2799500Y-15520817D01*
X1681500Y-15520817D01*
X1681500Y-15659182D01*
X1717312Y-15792835D01*
X1717313Y-15792838D01*
X1786492Y-15912661D01*
X1786494Y-15912664D01*
X1786495Y-15912665D01*
X1884335Y-16010505D01*
X1884336Y-16010506D01*
X1884338Y-16010507D01*
X1919238Y-16030656D01*
X2004164Y-16079688D01*
X2137817Y-16115500D01*
X2137819Y-16115500D01*
X2276181Y-16115500D01*
X2276183Y-16115500D01*
X2409836Y-16079688D01*
X2529665Y-16010505D01*
X2627505Y-15912665D01*
X2696688Y-15792836D01*
X2732500Y-15659183D01*
X2732500Y-15520817D01*
X2696688Y-15387164D01*
X2648639Y-15303941D01*
X2627507Y-15267338D01*
X2627503Y-15267333D01*
X2529666Y-15169496D01*
X2529661Y-15169492D01*
X2409838Y-15100313D01*
X2409837Y-15100312D01*
X2409836Y-15100312D01*
X2276183Y-15064500D01*
X2137817Y-15064500D01*
X2004164Y-15100312D01*
X2004161Y-15100313D01*
X1884338Y-15169492D01*
X1884333Y-15169496D01*
X1786496Y-15267333D01*
X1786492Y-15267338D01*
X1717313Y-15387161D01*
X1717312Y-15387164D01*
X1681500Y-15520817D01*
X-2799500Y-15520817D01*
X-2799500Y-11950000D01*
X2124353Y-11950000D01*
X2144834Y-12092456D01*
X2151846Y-12107811D01*
X2161355Y-12128631D01*
X2169104Y-12151072D01*
X2172189Y-12163869D01*
X2172191Y-12163874D01*
X2193278Y-12209500D01*
X2211823Y-12249627D01*
X2211836Y-12249654D01*
X2214966Y-12256184D01*
X2215240Y-12256734D01*
X2218062Y-12262240D01*
X2218067Y-12262249D01*
X2218088Y-12262289D01*
X2248376Y-12319644D01*
X2252010Y-12327123D01*
X2259113Y-12343087D01*
X2266620Y-12365504D01*
X2267881Y-12370946D01*
X2270892Y-12392068D01*
X2273725Y-12443128D01*
X2273725Y-12456865D01*
X2270893Y-12507921D01*
X2267880Y-12529054D01*
X2266616Y-12534507D01*
X2259109Y-12556918D01*
X2252012Y-12572867D01*
X2248372Y-12580359D01*
X2218089Y-12637703D01*
X2214848Y-12644050D01*
X2214615Y-12644522D01*
X2211839Y-12650337D01*
X2172181Y-12736149D01*
X2170097Y-12740774D01*
X2169933Y-12741148D01*
X2168259Y-12745057D01*
X2167001Y-12751260D01*
X2158272Y-12778117D01*
X2144834Y-12807542D01*
X2124353Y-12950000D01*
X2144834Y-13092456D01*
X2197850Y-13208543D01*
X2204623Y-13223373D01*
X2298872Y-13332143D01*
X2419947Y-13409953D01*
X2419950Y-13409954D01*
X2419949Y-13409954D01*
X2499583Y-13433336D01*
X2554633Y-13449500D01*
X2558036Y-13450499D01*
X2558038Y-13450500D01*
X2558039Y-13450500D01*
X2701962Y-13450500D01*
X2701962Y-13450499D01*
X2840053Y-13409953D01*
X2961128Y-13332143D01*
X3055377Y-13223373D01*
X3115165Y-13092457D01*
X3135647Y-12950000D01*
X3115165Y-12807543D01*
X3098642Y-12771365D01*
X3090890Y-12748912D01*
X3087808Y-12736126D01*
X3087807Y-12736123D01*
X3048177Y-12650375D01*
X3045189Y-12644134D01*
X3044916Y-12643583D01*
X3041907Y-12637701D01*
X3011618Y-12580347D01*
X3007983Y-12572865D01*
X3000882Y-12556907D01*
X2993384Y-12534522D01*
X2993381Y-12534507D01*
X2992117Y-12529054D01*
X2989105Y-12507933D01*
X2986272Y-12456850D01*
X2986272Y-12443147D01*
X2989105Y-12392065D01*
X2992112Y-12370958D01*
X2993378Y-12365495D01*
X3000880Y-12343095D01*
X3007995Y-12327105D01*
X3011608Y-12319668D01*
X3041904Y-12262301D01*
X3044909Y-12256427D01*
X3045184Y-12255872D01*
X3048174Y-12249627D01*
X3087805Y-12163879D01*
X3089846Y-12159347D01*
X3090018Y-12158955D01*
X3091739Y-12154940D01*
X3092992Y-12148758D01*
X3101724Y-12121887D01*
X3115165Y-12092457D01*
X3135647Y-11950000D01*
X3115165Y-11807543D01*
X3055377Y-11676627D01*
X2961128Y-11567857D01*
X2840053Y-11490047D01*
X2840051Y-11490046D01*
X2840049Y-11490045D01*
X2840050Y-11490045D01*
X2701963Y-11449500D01*
X2701961Y-11449500D01*
X2558039Y-11449500D01*
X2558036Y-11449500D01*
X2419949Y-11490045D01*
X2298873Y-11567856D01*
X2298872Y-11567856D01*
X2298872Y-11567857D01*
X2286290Y-11582377D01*
X2204623Y-11676626D01*
X2204622Y-11676628D01*
X2144834Y-11807543D01*
X2124353Y-11950000D01*
X-2799500Y-11950000D01*
X-2799500Y-9740817D01*
X1681500Y-9740817D01*
X1681500Y-9879183D01*
X1705470Y-9968638D01*
X1717312Y-10012835D01*
X1717313Y-10012838D01*
X1786492Y-10132661D01*
X1786494Y-10132664D01*
X1786495Y-10132665D01*
X1884335Y-10230505D01*
X1884336Y-10230506D01*
X1884338Y-10230507D01*
X1944249Y-10265096D01*
X2004164Y-10299688D01*
X2137817Y-10335500D01*
X2137819Y-10335500D01*
X2276181Y-10335500D01*
X2276183Y-10335500D01*
X2409836Y-10299688D01*
X2529665Y-10230505D01*
X2627505Y-10132665D01*
X2696688Y-10012836D01*
X2732500Y-9879183D01*
X2732500Y-9740817D01*
X2696688Y-9607164D01*
X2627505Y-9487335D01*
X2529665Y-9389495D01*
X2529664Y-9389494D01*
X2529661Y-9389492D01*
X2409838Y-9320313D01*
X2409837Y-9320312D01*
X2409836Y-9320312D01*
X2276183Y-9284500D01*
X2137817Y-9284500D01*
X2004164Y-9320312D01*
X2004161Y-9320313D01*
X1884338Y-9389492D01*
X1884333Y-9389496D01*
X1786496Y-9487333D01*
X1786492Y-9487338D01*
X1717313Y-9607161D01*
X1717312Y-9607164D01*
X1681500Y-9740817D01*
X-2799500Y-9740817D01*
X-2799500Y-3003480D01*
X-2799305Y-2996527D01*
X-2796827Y-2952395D01*
X-2783214Y-2710000D01*
X-1845291Y-2710000D01*
X-1826149Y-2989862D01*
X-1826148Y-2989864D01*
X-1769079Y-3264499D01*
X-1769074Y-3264516D01*
X-1675137Y-3528828D01*
X-1675136Y-3528830D01*
X-1546081Y-3777896D01*
X-1384312Y-4007069D01*
X-1384308Y-4007073D01*
X-1384308Y-4007074D01*
X-1197392Y-4207212D01*
X-1192845Y-4212081D01*
X-975246Y-4389111D01*
X-975244Y-4389112D01*
X-975243Y-4389113D01*
X-735567Y-4534863D01*
X-526743Y-4625567D01*
X-478275Y-4646620D01*
X-208161Y-4722303D01*
X36159Y-4755884D01*
X69741Y-4760500D01*
X69742Y-4760500D01*
X350259Y-4760500D01*
X380219Y-4756381D01*
X628161Y-4722303D01*
X898275Y-4646620D01*
X1155568Y-4534862D01*
X1395246Y-4389111D01*
X1612845Y-4212081D01*
X1804312Y-4007069D01*
X1966081Y-3777896D01*
X2095136Y-3528830D01*
X2189075Y-3264511D01*
X2189076Y-3264504D01*
X2189078Y-3264499D01*
X2224859Y-3092308D01*
X2246148Y-2989862D01*
X2265291Y-2710000D01*
X2246148Y-2430138D01*
X2225594Y-2331229D01*
X2189078Y-2155500D01*
X2189073Y-2155483D01*
X2136139Y-2006542D01*
X2095136Y-1891170D01*
X1966081Y-1642104D01*
X1804312Y-1412931D01*
X1804307Y-1412925D01*
X1612845Y-1207919D01*
X1395242Y-1030886D01*
X1155566Y-885136D01*
X898276Y-773380D01*
X628166Y-697698D01*
X628162Y-697697D01*
X628161Y-697697D01*
X489209Y-678598D01*
X350259Y-659500D01*
X350258Y-659500D01*
X69742Y-659500D01*
X69741Y-659500D01*
X-208161Y-697697D01*
X-208167Y-697698D01*
X-478277Y-773380D01*
X-735567Y-885136D01*
X-975243Y-1030886D01*
X-1192846Y-1207919D01*
X-1384308Y-1412925D01*
X-1384308Y-1412926D01*
X-1384311Y-1412928D01*
X-1384312Y-1412931D01*
X-1449018Y-1504597D01*
X-1546081Y-1642103D01*
X-1675137Y-1891171D01*
X-1769074Y-2155483D01*
X-1769079Y-2155500D01*
X-1826148Y-2430135D01*
X-1826149Y-2430137D01*
X-1845291Y-2710000D01*
X-2783214Y-2710000D01*
X-2782287Y-2693494D01*
X-2780733Y-2679700D01*
X-2730477Y-2383915D01*
X-2727384Y-2370363D01*
X-2725774Y-2364777D01*
X-2644327Y-2082068D01*
X-2639735Y-2068948D01*
X-2580212Y-1925246D01*
X-2524925Y-1791768D01*
X-2518903Y-1779262D01*
X-2373770Y-1516665D01*
X-2366375Y-1504897D01*
X-2366292Y-1504780D01*
X-2192755Y-1260201D01*
X-2184104Y-1249354D01*
X-1984184Y-1025645D01*
X-1974353Y-1015815D01*
X-1942946Y-987748D01*
X-1750646Y-815896D01*
X-1739799Y-807245D01*
X-1495098Y-633621D01*
X-1483335Y-626230D01*
X-1220738Y-481097D01*
X-1208232Y-475075D01*
X-931052Y-360265D01*
X-917932Y-355673D01*
X-629631Y-272614D01*
X-616085Y-269523D01*
X-320300Y-219267D01*
X-306506Y-217713D01*
X-3472Y-200695D01*
X3481Y-200500D01*
X39882Y-200500D01*
X6894052Y-200500D01*
X6961091Y-220185D01*
G37*
%TD.AperFunction*%
%TA.AperFunction,Conductor*%
G36*
X10256493Y-23223712D02*
G01*
X10277765Y-23227463D01*
X10399633Y-23260116D01*
X10419935Y-23267505D01*
X10534280Y-23320826D01*
X10552996Y-23331632D01*
X10656343Y-23403996D01*
X10672901Y-23417890D01*
X10762111Y-23507100D01*
X10776005Y-23523658D01*
X10848364Y-23626998D01*
X10859171Y-23645716D01*
X10912487Y-23760052D01*
X10919880Y-23780364D01*
X10952533Y-23902228D01*
X10956286Y-23923513D01*
X10967282Y-24049189D01*
X10967282Y-24070805D01*
X10956286Y-24196485D01*
X10952533Y-24217771D01*
X10919881Y-24339630D01*
X10912488Y-24359940D01*
X10859171Y-24474280D01*
X10848365Y-24492998D01*
X10813848Y-24542293D01*
X10813848Y-24542294D01*
X10768963Y-24625670D01*
X10747803Y-24679143D01*
X10725291Y-24759210D01*
X10723481Y-24886057D01*
X10723482Y-24886064D01*
X10733425Y-24955220D01*
X10757640Y-25042268D01*
X10756642Y-25112130D01*
X10718032Y-25170363D01*
X10654069Y-25198477D01*
X10638176Y-25199500D01*
X9598438Y-25199500D01*
X9531399Y-25179815D01*
X9485644Y-25127011D01*
X9475700Y-25057853D01*
X9484372Y-25026868D01*
X9486405Y-25022100D01*
X9492600Y-25007570D01*
X9509610Y-24939802D01*
X9511365Y-24924927D01*
X9521785Y-24836579D01*
X9521784Y-24836574D01*
X9500549Y-24711503D01*
X9478222Y-24645298D01*
X9478219Y-24645292D01*
X9451664Y-24592763D01*
X9426150Y-24542294D01*
X9391629Y-24492993D01*
X9380831Y-24474291D01*
X9327507Y-24359936D01*
X9320116Y-24339629D01*
X9317298Y-24329111D01*
X9287463Y-24217768D01*
X9283712Y-24196489D01*
X9283712Y-24196485D01*
X9272716Y-24070800D01*
X9272716Y-24049192D01*
X9272717Y-24049189D01*
X9283712Y-23923504D01*
X9287463Y-23902228D01*
X9320114Y-23780372D01*
X9327507Y-23760063D01*
X9327512Y-23760052D01*
X9380832Y-23645707D01*
X9391635Y-23626998D01*
X9464003Y-23523644D01*
X9477887Y-23507098D01*
X9567098Y-23417887D01*
X9583644Y-23404003D01*
X9687001Y-23331632D01*
X9705707Y-23320832D01*
X9820065Y-23267506D01*
X9840372Y-23260114D01*
X9962228Y-23227463D01*
X9983506Y-23223712D01*
X10010025Y-23221393D01*
X10010024Y-23221392D01*
X10088707Y-23214510D01*
X10088717Y-23214507D01*
X10109197Y-23212716D01*
X10130800Y-23212716D01*
X10256493Y-23223712D01*
G37*
%TD.AperFunction*%
%TA.AperFunction,Conductor*%
G36*
X15336493Y-23223712D02*
G01*
X15357765Y-23227463D01*
X15479633Y-23260116D01*
X15499935Y-23267505D01*
X15614280Y-23320826D01*
X15632996Y-23331632D01*
X15736343Y-23403996D01*
X15752901Y-23417890D01*
X15842111Y-23507100D01*
X15856005Y-23523658D01*
X15928364Y-23626998D01*
X15939171Y-23645716D01*
X15992487Y-23760052D01*
X15999880Y-23780364D01*
X16032533Y-23902228D01*
X16036286Y-23923513D01*
X16047282Y-24049189D01*
X16047282Y-24070805D01*
X16036286Y-24196485D01*
X16032533Y-24217771D01*
X15999881Y-24339630D01*
X15992488Y-24359940D01*
X15939171Y-24474280D01*
X15928365Y-24492998D01*
X15893848Y-24542293D01*
X15893848Y-24542294D01*
X15848963Y-24625670D01*
X15827803Y-24679143D01*
X15805291Y-24759210D01*
X15803481Y-24886057D01*
X15803482Y-24886064D01*
X15813425Y-24955220D01*
X15837640Y-25042268D01*
X15836642Y-25112130D01*
X15798032Y-25170363D01*
X15734069Y-25198477D01*
X15718176Y-25199500D01*
X14678438Y-25199500D01*
X14611399Y-25179815D01*
X14565644Y-25127011D01*
X14555700Y-25057853D01*
X14564372Y-25026868D01*
X14566405Y-25022100D01*
X14572600Y-25007570D01*
X14589610Y-24939802D01*
X14591365Y-24924927D01*
X14601785Y-24836579D01*
X14601784Y-24836574D01*
X14580549Y-24711503D01*
X14558222Y-24645298D01*
X14558219Y-24645292D01*
X14531664Y-24592763D01*
X14506150Y-24542294D01*
X14471629Y-24492993D01*
X14460831Y-24474291D01*
X14407507Y-24359936D01*
X14400116Y-24339629D01*
X14397298Y-24329111D01*
X14367463Y-24217768D01*
X14363712Y-24196489D01*
X14363712Y-24196485D01*
X14352716Y-24070800D01*
X14352716Y-24049192D01*
X14352717Y-24049189D01*
X14363712Y-23923504D01*
X14367463Y-23902228D01*
X14400114Y-23780372D01*
X14407507Y-23760063D01*
X14407512Y-23760052D01*
X14460832Y-23645707D01*
X14471635Y-23626998D01*
X14544003Y-23523644D01*
X14557887Y-23507098D01*
X14647098Y-23417887D01*
X14663644Y-23404003D01*
X14767001Y-23331632D01*
X14785707Y-23320832D01*
X14900065Y-23267506D01*
X14920372Y-23260114D01*
X15042228Y-23227463D01*
X15063506Y-23223712D01*
X15090025Y-23221393D01*
X15090024Y-23221392D01*
X15168707Y-23214510D01*
X15168717Y-23214507D01*
X15189197Y-23212716D01*
X15210800Y-23212716D01*
X15336493Y-23223712D01*
G37*
%TD.AperFunction*%
%TA.AperFunction,Conductor*%
G36*
X20416493Y-23223712D02*
G01*
X20437765Y-23227463D01*
X20559633Y-23260116D01*
X20579935Y-23267505D01*
X20694280Y-23320826D01*
X20712996Y-23331632D01*
X20816343Y-23403996D01*
X20832901Y-23417890D01*
X20922111Y-23507100D01*
X20936005Y-23523658D01*
X21008364Y-23626998D01*
X21019171Y-23645716D01*
X21072487Y-23760052D01*
X21079880Y-23780364D01*
X21112533Y-23902228D01*
X21116286Y-23923513D01*
X21127282Y-24049189D01*
X21127282Y-24070805D01*
X21116286Y-24196485D01*
X21112533Y-24217771D01*
X21079881Y-24339630D01*
X21072488Y-24359940D01*
X21019171Y-24474280D01*
X21008365Y-24492998D01*
X20973848Y-24542293D01*
X20973848Y-24542294D01*
X20928963Y-24625670D01*
X20907803Y-24679143D01*
X20885291Y-24759210D01*
X20883481Y-24886057D01*
X20883482Y-24886064D01*
X20893425Y-24955220D01*
X20917640Y-25042268D01*
X20916642Y-25112130D01*
X20878032Y-25170363D01*
X20814069Y-25198477D01*
X20798176Y-25199500D01*
X19758438Y-25199500D01*
X19691399Y-25179815D01*
X19645644Y-25127011D01*
X19635700Y-25057853D01*
X19644372Y-25026868D01*
X19646405Y-25022100D01*
X19652600Y-25007570D01*
X19669610Y-24939802D01*
X19671365Y-24924927D01*
X19681785Y-24836579D01*
X19681784Y-24836574D01*
X19660549Y-24711503D01*
X19638222Y-24645298D01*
X19638219Y-24645292D01*
X19611664Y-24592763D01*
X19586150Y-24542294D01*
X19551629Y-24492993D01*
X19540831Y-24474291D01*
X19487507Y-24359936D01*
X19480116Y-24339629D01*
X19477298Y-24329111D01*
X19447463Y-24217768D01*
X19443712Y-24196489D01*
X19443712Y-24196485D01*
X19432716Y-24070800D01*
X19432716Y-24049192D01*
X19432717Y-24049189D01*
X19443712Y-23923504D01*
X19447463Y-23902228D01*
X19480114Y-23780372D01*
X19487507Y-23760063D01*
X19487512Y-23760052D01*
X19540832Y-23645707D01*
X19551635Y-23626998D01*
X19624003Y-23523644D01*
X19637887Y-23507098D01*
X19727098Y-23417887D01*
X19743644Y-23404003D01*
X19847001Y-23331632D01*
X19865707Y-23320832D01*
X19980065Y-23267506D01*
X20000372Y-23260114D01*
X20122228Y-23227463D01*
X20143506Y-23223712D01*
X20170025Y-23221393D01*
X20170024Y-23221392D01*
X20248707Y-23214510D01*
X20248717Y-23214507D01*
X20269197Y-23212716D01*
X20290800Y-23212716D01*
X20416493Y-23223712D01*
G37*
%TD.AperFunction*%
%TA.AperFunction,Conductor*%
G36*
X25496493Y-23223712D02*
G01*
X25517765Y-23227463D01*
X25639633Y-23260116D01*
X25659935Y-23267505D01*
X25774280Y-23320826D01*
X25792996Y-23331632D01*
X25896343Y-23403996D01*
X25912901Y-23417890D01*
X26002111Y-23507100D01*
X26016005Y-23523658D01*
X26088364Y-23626998D01*
X26099171Y-23645716D01*
X26152487Y-23760052D01*
X26159880Y-23780364D01*
X26192533Y-23902228D01*
X26196286Y-23923513D01*
X26207282Y-24049189D01*
X26207282Y-24070805D01*
X26196286Y-24196485D01*
X26192533Y-24217771D01*
X26159881Y-24339630D01*
X26152488Y-24359940D01*
X26099171Y-24474280D01*
X26088365Y-24492998D01*
X26053848Y-24542293D01*
X26053848Y-24542294D01*
X26008963Y-24625670D01*
X25987803Y-24679143D01*
X25965291Y-24759210D01*
X25963481Y-24886057D01*
X25963482Y-24886064D01*
X25973425Y-24955220D01*
X25997640Y-25042268D01*
X25996642Y-25112130D01*
X25958032Y-25170363D01*
X25894069Y-25198477D01*
X25878176Y-25199500D01*
X24838438Y-25199500D01*
X24771399Y-25179815D01*
X24725644Y-25127011D01*
X24715700Y-25057853D01*
X24724372Y-25026868D01*
X24726405Y-25022100D01*
X24732600Y-25007570D01*
X24749610Y-24939802D01*
X24751365Y-24924927D01*
X24761785Y-24836579D01*
X24761784Y-24836574D01*
X24740549Y-24711503D01*
X24718222Y-24645298D01*
X24718219Y-24645292D01*
X24691664Y-24592763D01*
X24666150Y-24542294D01*
X24631629Y-24492993D01*
X24620831Y-24474291D01*
X24567507Y-24359936D01*
X24560116Y-24339629D01*
X24557298Y-24329111D01*
X24527463Y-24217768D01*
X24523712Y-24196489D01*
X24523712Y-24196485D01*
X24512716Y-24070800D01*
X24512716Y-24049192D01*
X24512717Y-24049189D01*
X24523712Y-23923504D01*
X24527463Y-23902228D01*
X24560114Y-23780372D01*
X24567507Y-23760063D01*
X24567512Y-23760052D01*
X24620832Y-23645707D01*
X24631635Y-23626998D01*
X24704003Y-23523644D01*
X24717887Y-23507098D01*
X24807098Y-23417887D01*
X24823644Y-23404003D01*
X24927001Y-23331632D01*
X24945707Y-23320832D01*
X25060065Y-23267506D01*
X25080372Y-23260114D01*
X25202228Y-23227463D01*
X25223506Y-23223712D01*
X25250025Y-23221393D01*
X25250024Y-23221392D01*
X25328707Y-23214510D01*
X25328717Y-23214507D01*
X25349197Y-23212716D01*
X25370800Y-23212716D01*
X25496493Y-23223712D01*
G37*
%TD.AperFunction*%
%TA.AperFunction,Conductor*%
G36*
X47121495Y-18580185D02*
G01*
X47167250Y-18632989D01*
X47177194Y-18702147D01*
X47148169Y-18765703D01*
X47142137Y-18772181D01*
X45843296Y-20071022D01*
X45781973Y-20104507D01*
X45755615Y-20107341D01*
X42965241Y-20107341D01*
X42898202Y-20087656D01*
X42852447Y-20034852D01*
X42842503Y-20000988D01*
X42823006Y-19865384D01*
X42763218Y-19734469D01*
X42763217Y-19734467D01*
X42668969Y-19625698D01*
X42547894Y-19547888D01*
X42547892Y-19547887D01*
X42547890Y-19547886D01*
X42538563Y-19545148D01*
X42516000Y-19535147D01*
X42515810Y-19535541D01*
X42510333Y-19532890D01*
X42421665Y-19500275D01*
X42414847Y-19497876D01*
X42414262Y-19497679D01*
X42408280Y-19495751D01*
X42346325Y-19476619D01*
X42338459Y-19473897D01*
X42322140Y-19467628D01*
X42301004Y-19457099D01*
X42298996Y-19455847D01*
X42298962Y-19455825D01*
X42296235Y-19454124D01*
X42279172Y-19441319D01*
X42238256Y-19404704D01*
X42201427Y-19345333D01*
X42202543Y-19275472D01*
X42241251Y-19217305D01*
X42305262Y-19189298D01*
X42353034Y-19192526D01*
X42411566Y-19208210D01*
X45140911Y-19208210D01*
X45171801Y-19212119D01*
X45176902Y-19213431D01*
X45237931Y-19216815D01*
X45259062Y-19219828D01*
X45264522Y-19221094D01*
X45286907Y-19228592D01*
X45302865Y-19235693D01*
X45310349Y-19239329D01*
X45367666Y-19269599D01*
X45367695Y-19269613D01*
X45367701Y-19269617D01*
X45373583Y-19272626D01*
X45374134Y-19272899D01*
X45380376Y-19275888D01*
X45460055Y-19312713D01*
X45464717Y-19315273D01*
X45469942Y-19317660D01*
X45469947Y-19317663D01*
X45469952Y-19317664D01*
X45471271Y-19318267D01*
X45475052Y-19319447D01*
X45475059Y-19319450D01*
X45475065Y-19319451D01*
X45476487Y-19319895D01*
X45483289Y-19321580D01*
X45566970Y-19346151D01*
X45608038Y-19358210D01*
X45608039Y-19358210D01*
X45751962Y-19358210D01*
X45751962Y-19358209D01*
X45881794Y-19320088D01*
X45890050Y-19317664D01*
X45890050Y-19317663D01*
X45890053Y-19317663D01*
X46011128Y-19239853D01*
X46105377Y-19131083D01*
X46165165Y-19000167D01*
X46185647Y-18857710D01*
X46165165Y-18715253D01*
X46163903Y-18706475D01*
X46166393Y-18706116D01*
X46166392Y-18649570D01*
X46204164Y-18590790D01*
X46267718Y-18561763D01*
X46285370Y-18560500D01*
X47054456Y-18560500D01*
X47121495Y-18580185D01*
G37*
%TD.AperFunction*%
%TA.AperFunction,Conductor*%
G36*
X35171170Y-10340185D02*
G01*
X35186358Y-10351685D01*
X35219145Y-10380732D01*
X35219154Y-10380738D01*
X35369222Y-10459500D01*
X35369775Y-10459790D01*
X35534944Y-10500500D01*
X35705056Y-10500500D01*
X35870225Y-10459790D01*
X35982439Y-10400895D01*
X36020845Y-10380738D01*
X36020847Y-10380736D01*
X36020852Y-10380734D01*
X36046657Y-10357873D01*
X36053642Y-10351685D01*
X36116875Y-10321963D01*
X36135869Y-10320500D01*
X39012744Y-10320500D01*
X39079783Y-10340185D01*
X39125538Y-10392989D01*
X39135482Y-10462146D01*
X39134353Y-10469998D01*
X39134353Y-10469999D01*
X39154834Y-10612456D01*
X39213299Y-10740474D01*
X39214623Y-10743373D01*
X39308872Y-10852143D01*
X39308874Y-10852144D01*
X39308876Y-10852146D01*
X39429942Y-10929951D01*
X39429945Y-10929952D01*
X39429947Y-10929953D01*
X39439284Y-10932694D01*
X39461845Y-10942694D01*
X39462036Y-10942300D01*
X39467516Y-10944951D01*
X39467517Y-10944952D01*
X39556174Y-10977562D01*
X39559747Y-10978821D01*
X39562661Y-10979849D01*
X39562682Y-10979856D01*
X39562713Y-10979867D01*
X39563300Y-10980065D01*
X39563337Y-10980077D01*
X39563352Y-10980082D01*
X39565751Y-10980856D01*
X39569572Y-10982091D01*
X39609790Y-10994510D01*
X39631502Y-11001216D01*
X39639367Y-11003936D01*
X39655695Y-11010208D01*
X39676839Y-11020742D01*
X39681589Y-11023704D01*
X39698667Y-11036520D01*
X39744211Y-11077277D01*
X39750474Y-11081095D01*
X39773608Y-11099290D01*
X45517708Y-16843389D01*
X45536785Y-16867993D01*
X45539465Y-16872529D01*
X45539468Y-16872534D01*
X45580225Y-16918079D01*
X45593031Y-16935142D01*
X45594729Y-16937865D01*
X45594754Y-16937903D01*
X45596006Y-16939911D01*
X45606535Y-16961047D01*
X45612804Y-16977366D01*
X45615526Y-16985232D01*
X45634658Y-17047187D01*
X45636594Y-17053193D01*
X45636789Y-17053772D01*
X45639181Y-17060570D01*
X45641055Y-17065664D01*
X45658126Y-17112072D01*
X45671808Y-17149268D01*
X45673492Y-17153712D01*
X45673695Y-17154234D01*
X45675328Y-17158322D01*
X45675333Y-17158331D01*
X45683186Y-17170178D01*
X45692623Y-17187173D01*
X45719510Y-17246047D01*
X45721371Y-17250121D01*
X45811640Y-17354298D01*
X45840665Y-17417853D01*
X45830721Y-17487012D01*
X45784966Y-17539816D01*
X45717927Y-17559500D01*
X44128676Y-17559500D01*
X44061637Y-17539815D01*
X44040995Y-17523181D01*
X38727316Y-12209502D01*
X38727314Y-12209500D01*
X38670250Y-12176554D01*
X38613187Y-12143608D01*
X38549539Y-12126554D01*
X38485892Y-12109500D01*
X38485891Y-12109500D01*
X25254349Y-12109500D01*
X25187310Y-12089815D01*
X25141555Y-12037011D01*
X25131611Y-11967853D01*
X25137405Y-11944266D01*
X25137536Y-11943894D01*
X25137563Y-11943821D01*
X25139867Y-11937284D01*
X25140065Y-11936697D01*
X25142091Y-11930426D01*
X25161222Y-11868475D01*
X25163947Y-11860603D01*
X25170208Y-11844303D01*
X25180740Y-11823157D01*
X25183710Y-11818396D01*
X25196504Y-11801347D01*
X25237278Y-11755785D01*
X25241091Y-11749528D01*
X25259282Y-11726398D01*
X25726652Y-11259028D01*
X25751262Y-11239949D01*
X25755785Y-11237278D01*
X25801340Y-11196511D01*
X25818396Y-11183710D01*
X25823157Y-11180740D01*
X25844303Y-11170208D01*
X25860603Y-11163947D01*
X25868477Y-11161222D01*
X25930381Y-11142105D01*
X25930388Y-11142102D01*
X25930426Y-11142091D01*
X25936697Y-11140065D01*
X25937284Y-11139867D01*
X25943821Y-11137563D01*
X26032480Y-11104953D01*
X26037001Y-11103241D01*
X26037399Y-11103086D01*
X26041578Y-11101416D01*
X26041593Y-11101405D01*
X26044150Y-11100066D01*
X26066805Y-11090906D01*
X26070053Y-11089953D01*
X26191128Y-11012143D01*
X26285377Y-10903373D01*
X26345165Y-10772457D01*
X26365647Y-10630000D01*
X26346963Y-10500047D01*
X26345165Y-10487542D01*
X26342785Y-10479438D01*
X26342783Y-10409569D01*
X26380556Y-10350789D01*
X26444110Y-10321763D01*
X26461761Y-10320500D01*
X35104131Y-10320500D01*
X35171170Y-10340185D01*
G37*
%TD.AperFunction*%
%TA.AperFunction,Conductor*%
G36*
X24047453Y-11363086D02*
G01*
X24059503Y-11365586D01*
X24125190Y-11366125D01*
X24192062Y-11386359D01*
X24237382Y-11439537D01*
X24246758Y-11508775D01*
X24217885Y-11571321D01*
X24204623Y-11586627D01*
X24204622Y-11586628D01*
X24144834Y-11717543D01*
X24129651Y-11823149D01*
X24124353Y-11860000D01*
X24138143Y-11955916D01*
X24139860Y-11967853D01*
X24129916Y-12037011D01*
X24084161Y-12089815D01*
X24017122Y-12109500D01*
X23322942Y-12109500D01*
X23275489Y-12100061D01*
X23257131Y-12092457D01*
X23126762Y-12038456D01*
X23126760Y-12038455D01*
X22970001Y-12017818D01*
X22969999Y-12017818D01*
X22813239Y-12038455D01*
X22813237Y-12038456D01*
X22664511Y-12100061D01*
X22617058Y-12109500D01*
X21519500Y-12109500D01*
X21452461Y-12089815D01*
X21406706Y-12037011D01*
X21395500Y-11985500D01*
X21395500Y-11557865D01*
X21415185Y-11490826D01*
X21467989Y-11445071D01*
X21537147Y-11435127D01*
X21554432Y-11438887D01*
X21556645Y-11439537D01*
X21628038Y-11460500D01*
X21628039Y-11460500D01*
X21771961Y-11460500D01*
X21885143Y-11427266D01*
X21896748Y-11424458D01*
X21902481Y-11423361D01*
X21977315Y-11392988D01*
X21983780Y-11390573D01*
X22020072Y-11378168D01*
X22035672Y-11373950D01*
X22049357Y-11371193D01*
X22065546Y-11369029D01*
X22100513Y-11366687D01*
X22103051Y-11366517D01*
X22110317Y-11366244D01*
X22190495Y-11365586D01*
X22202918Y-11363034D01*
X22227861Y-11360500D01*
X24022262Y-11360500D01*
X24047453Y-11363086D01*
G37*
%TD.AperFunction*%
%TA.AperFunction,Conductor*%
G36*
X34901091Y-220185D02*
G01*
X34946846Y-272989D01*
X34956790Y-342147D01*
X34927765Y-405703D01*
X34899329Y-429927D01*
X34853960Y-458017D01*
X34853958Y-458019D01*
X34703237Y-595418D01*
X34580327Y-758178D01*
X34489422Y-940739D01*
X34489417Y-940752D01*
X34433602Y-1136917D01*
X34414785Y-1339999D01*
X34414785Y-1340000D01*
X34433602Y-1543082D01*
X34489417Y-1739247D01*
X34489422Y-1739260D01*
X34580327Y-1921821D01*
X34703237Y-2084581D01*
X34853958Y-2221980D01*
X34853960Y-2221982D01*
X34953141Y-2283392D01*
X35027363Y-2329348D01*
X35217544Y-2403024D01*
X35418024Y-2440500D01*
X35418026Y-2440500D01*
X35621974Y-2440500D01*
X35621976Y-2440500D01*
X35822456Y-2403024D01*
X36012637Y-2329348D01*
X36186041Y-2221981D01*
X36336764Y-2084579D01*
X36459673Y-1921821D01*
X36550582Y-1739250D01*
X36606397Y-1543083D01*
X36625215Y-1340000D01*
X36616814Y-1249342D01*
X36606397Y-1136917D01*
X36576228Y-1030886D01*
X36550582Y-940750D01*
X36459673Y-758179D01*
X36336764Y-595421D01*
X36336762Y-595418D01*
X36186041Y-458019D01*
X36186039Y-458017D01*
X36140671Y-429927D01*
X36094035Y-377900D01*
X36082931Y-308918D01*
X36110884Y-244884D01*
X36169019Y-206127D01*
X36205948Y-200500D01*
X37374052Y-200500D01*
X37441091Y-220185D01*
X37486846Y-272989D01*
X37496790Y-342147D01*
X37467765Y-405703D01*
X37439329Y-429927D01*
X37393960Y-458017D01*
X37393958Y-458019D01*
X37243237Y-595418D01*
X37120327Y-758178D01*
X37029422Y-940739D01*
X37029417Y-940752D01*
X36973602Y-1136917D01*
X36954785Y-1339999D01*
X36954785Y-1340000D01*
X36973602Y-1543082D01*
X37029417Y-1739247D01*
X37029422Y-1739260D01*
X37120327Y-1921821D01*
X37243237Y-2084581D01*
X37393958Y-2221980D01*
X37393960Y-2221982D01*
X37493141Y-2283392D01*
X37567363Y-2329348D01*
X37757544Y-2403024D01*
X37958024Y-2440500D01*
X37958026Y-2440500D01*
X38161974Y-2440500D01*
X38161976Y-2440500D01*
X38362456Y-2403024D01*
X38552637Y-2329348D01*
X38726041Y-2221981D01*
X38876764Y-2084579D01*
X38999673Y-1921821D01*
X39090582Y-1739250D01*
X39146397Y-1543083D01*
X39165215Y-1340000D01*
X39156814Y-1249342D01*
X39146397Y-1136917D01*
X39116228Y-1030886D01*
X39090582Y-940750D01*
X38999673Y-758179D01*
X38876764Y-595421D01*
X38876762Y-595418D01*
X38726041Y-458019D01*
X38726039Y-458017D01*
X38680671Y-429927D01*
X38634035Y-377900D01*
X38622931Y-308918D01*
X38650884Y-244884D01*
X38709019Y-206127D01*
X38745948Y-200500D01*
X39914052Y-200500D01*
X39981091Y-220185D01*
X40026846Y-272989D01*
X40036790Y-342147D01*
X40007765Y-405703D01*
X39979329Y-429927D01*
X39933960Y-458017D01*
X39933958Y-458019D01*
X39783237Y-595418D01*
X39660327Y-758178D01*
X39569422Y-940739D01*
X39569417Y-940752D01*
X39513602Y-1136917D01*
X39494785Y-1339999D01*
X39494785Y-1340000D01*
X39513602Y-1543082D01*
X39569417Y-1739247D01*
X39569422Y-1739260D01*
X39660327Y-1921821D01*
X39783237Y-2084581D01*
X39933958Y-2221980D01*
X39933960Y-2221982D01*
X40033141Y-2283392D01*
X40107363Y-2329348D01*
X40297544Y-2403024D01*
X40498024Y-2440500D01*
X40498026Y-2440500D01*
X40701974Y-2440500D01*
X40701976Y-2440500D01*
X40902456Y-2403024D01*
X41092637Y-2329348D01*
X41266041Y-2221981D01*
X41416764Y-2084579D01*
X41539673Y-1921821D01*
X41630582Y-1739250D01*
X41686397Y-1543083D01*
X41705215Y-1340000D01*
X41696814Y-1249342D01*
X41686397Y-1136917D01*
X41656228Y-1030886D01*
X41630582Y-940750D01*
X41539673Y-758179D01*
X41416764Y-595421D01*
X41416762Y-595418D01*
X41266041Y-458019D01*
X41266039Y-458017D01*
X41220671Y-429927D01*
X41174035Y-377900D01*
X41162931Y-308918D01*
X41190884Y-244884D01*
X41249019Y-206127D01*
X41285948Y-200500D01*
X42454052Y-200500D01*
X42521091Y-220185D01*
X42566846Y-272989D01*
X42576790Y-342147D01*
X42547765Y-405703D01*
X42519329Y-429927D01*
X42473960Y-458017D01*
X42473958Y-458019D01*
X42323237Y-595418D01*
X42200327Y-758178D01*
X42109422Y-940739D01*
X42109417Y-940752D01*
X42053602Y-1136917D01*
X42034785Y-1339999D01*
X42034785Y-1340000D01*
X42053602Y-1543082D01*
X42109417Y-1739247D01*
X42109422Y-1739260D01*
X42200327Y-1921821D01*
X42323237Y-2084581D01*
X42473958Y-2221980D01*
X42473960Y-2221982D01*
X42573141Y-2283392D01*
X42647363Y-2329348D01*
X42837544Y-2403024D01*
X43038024Y-2440500D01*
X43038026Y-2440500D01*
X43241974Y-2440500D01*
X43241976Y-2440500D01*
X43442456Y-2403024D01*
X43632637Y-2329348D01*
X43806041Y-2221981D01*
X43956764Y-2084579D01*
X44079673Y-1921821D01*
X44170582Y-1739250D01*
X44226397Y-1543083D01*
X44245215Y-1340000D01*
X44236814Y-1249342D01*
X44226397Y-1136917D01*
X44196228Y-1030886D01*
X44170582Y-940750D01*
X44079673Y-758179D01*
X43956764Y-595421D01*
X43956762Y-595418D01*
X43806041Y-458019D01*
X43806039Y-458017D01*
X43760671Y-429927D01*
X43714035Y-377900D01*
X43702931Y-308918D01*
X43730884Y-244884D01*
X43789019Y-206127D01*
X43825948Y-200500D01*
X44994052Y-200500D01*
X45061091Y-220185D01*
X45106846Y-272989D01*
X45116790Y-342147D01*
X45087765Y-405703D01*
X45059329Y-429927D01*
X45013960Y-458017D01*
X45013958Y-458019D01*
X44863237Y-595418D01*
X44740327Y-758178D01*
X44649422Y-940739D01*
X44649417Y-940752D01*
X44593602Y-1136917D01*
X44574785Y-1339999D01*
X44574785Y-1340000D01*
X44593602Y-1543082D01*
X44649417Y-1739247D01*
X44649422Y-1739260D01*
X44740327Y-1921821D01*
X44863237Y-2084581D01*
X45013958Y-2221980D01*
X45013960Y-2221982D01*
X45113141Y-2283392D01*
X45187363Y-2329348D01*
X45377544Y-2403024D01*
X45578024Y-2440500D01*
X45578026Y-2440500D01*
X45781974Y-2440500D01*
X45781976Y-2440500D01*
X45982456Y-2403024D01*
X46172637Y-2329348D01*
X46346041Y-2221981D01*
X46496764Y-2084579D01*
X46619673Y-1921821D01*
X46710582Y-1739250D01*
X46766397Y-1543083D01*
X46785215Y-1340000D01*
X46776814Y-1249342D01*
X46766397Y-1136917D01*
X46736228Y-1030886D01*
X46710582Y-940750D01*
X46619673Y-758179D01*
X46496764Y-595421D01*
X46496762Y-595418D01*
X46346041Y-458019D01*
X46346039Y-458017D01*
X46300671Y-429927D01*
X46254035Y-377900D01*
X46242931Y-308918D01*
X46270884Y-244884D01*
X46329019Y-206127D01*
X46365948Y-200500D01*
X47534052Y-200500D01*
X47601091Y-220185D01*
X47646846Y-272989D01*
X47656790Y-342147D01*
X47627765Y-405703D01*
X47599329Y-429927D01*
X47553960Y-458017D01*
X47553958Y-458019D01*
X47403237Y-595418D01*
X47280327Y-758178D01*
X47189422Y-940739D01*
X47189417Y-940752D01*
X47133602Y-1136917D01*
X47114785Y-1339999D01*
X47114785Y-1340000D01*
X47133602Y-1543082D01*
X47189417Y-1739247D01*
X47189422Y-1739260D01*
X47280327Y-1921821D01*
X47403237Y-2084581D01*
X47553958Y-2221980D01*
X47553960Y-2221982D01*
X47653141Y-2283392D01*
X47727363Y-2329348D01*
X47917544Y-2403024D01*
X48118024Y-2440500D01*
X48118026Y-2440500D01*
X48321974Y-2440500D01*
X48321976Y-2440500D01*
X48522456Y-2403024D01*
X48712637Y-2329348D01*
X48886041Y-2221981D01*
X49036764Y-2084579D01*
X49159673Y-1921821D01*
X49250582Y-1739250D01*
X49306397Y-1543083D01*
X49325215Y-1340000D01*
X49316814Y-1249342D01*
X49306397Y-1136917D01*
X49276228Y-1030886D01*
X49250582Y-940750D01*
X49159673Y-758179D01*
X49036764Y-595421D01*
X49036762Y-595418D01*
X48886041Y-458019D01*
X48886039Y-458017D01*
X48840671Y-429927D01*
X48794035Y-377900D01*
X48782931Y-308918D01*
X48810884Y-244884D01*
X48869019Y-206127D01*
X48905948Y-200500D01*
X50074052Y-200500D01*
X50141091Y-220185D01*
X50186846Y-272989D01*
X50196790Y-342147D01*
X50167765Y-405703D01*
X50139329Y-429927D01*
X50093960Y-458017D01*
X50093958Y-458019D01*
X49943237Y-595418D01*
X49820326Y-758180D01*
X49729418Y-940749D01*
X49729416Y-940753D01*
X49716044Y-987748D01*
X49715560Y-989405D01*
X49633245Y-1264094D01*
X49633245Y-1264095D01*
X49618837Y-1312172D01*
X49613082Y-1335230D01*
X49613080Y-1335238D01*
X49612653Y-1337365D01*
X49612652Y-1337371D01*
X49609073Y-1360793D01*
X49578456Y-1650716D01*
X49578188Y-1653388D01*
X49558936Y-1856495D01*
X49552137Y-1886854D01*
X49498882Y-2034546D01*
X49479468Y-2069437D01*
X49293319Y-2304649D01*
X49290452Y-2308971D01*
X49290013Y-2308679D01*
X49273087Y-2331229D01*
X48478355Y-3125961D01*
X48453757Y-3145034D01*
X48449219Y-3147715D01*
X48449215Y-3147717D01*
X48403667Y-3188477D01*
X48386593Y-3201290D01*
X48381840Y-3204254D01*
X48360697Y-3214787D01*
X48344398Y-3221049D01*
X48336516Y-3223777D01*
X48274514Y-3242924D01*
X48268531Y-3244853D01*
X48267954Y-3245047D01*
X48261808Y-3247211D01*
X48261184Y-3247431D01*
X48233395Y-3257652D01*
X48172471Y-3280063D01*
X48167480Y-3281959D01*
X48167465Y-3281965D01*
X48167095Y-3282110D01*
X48163421Y-3283583D01*
X48163414Y-3283586D01*
X48160883Y-3284915D01*
X48138207Y-3294089D01*
X48135895Y-3294768D01*
X48134943Y-3295048D01*
X48130635Y-3297015D01*
X48125055Y-3300095D01*
X48044297Y-3337899D01*
X48037276Y-3341317D01*
X48036600Y-3341659D01*
X48029105Y-3345610D01*
X47970958Y-3377505D01*
X47964251Y-3380924D01*
X47948053Y-3388569D01*
X47925137Y-3396745D01*
X47922952Y-3397290D01*
X47900412Y-3400751D01*
X47841602Y-3404300D01*
X47835116Y-3405898D01*
X47805448Y-3409500D01*
X38773856Y-3409500D01*
X38684712Y-3433386D01*
X38684709Y-3433387D01*
X38604791Y-3479527D01*
X38604786Y-3479531D01*
X34003355Y-8080961D01*
X33978757Y-8100034D01*
X33974219Y-8102715D01*
X33974215Y-8102717D01*
X33928667Y-8143477D01*
X33911593Y-8156290D01*
X33906840Y-8159254D01*
X33885697Y-8169787D01*
X33869398Y-8176049D01*
X33861516Y-8178777D01*
X33799514Y-8197924D01*
X33793531Y-8199853D01*
X33792954Y-8200047D01*
X33786808Y-8202211D01*
X33786184Y-8202431D01*
X33760728Y-8211795D01*
X33697471Y-8235063D01*
X33692480Y-8236959D01*
X33692465Y-8236965D01*
X33692095Y-8237110D01*
X33688421Y-8238583D01*
X33688418Y-8238584D01*
X33688410Y-8238588D01*
X33685878Y-8239917D01*
X33663207Y-8249089D01*
X33659951Y-8250045D01*
X33659947Y-8250047D01*
X33549575Y-8320979D01*
X33531411Y-8332652D01*
X33530102Y-8330615D01*
X33478339Y-8354241D01*
X33409182Y-8344281D01*
X33356389Y-8298514D01*
X33336911Y-8238365D01*
X33335721Y-8216902D01*
X33333993Y-8209776D01*
X33330500Y-8180553D01*
X33330500Y-3092631D01*
X33334790Y-3065394D01*
X33333696Y-3065157D01*
X33334987Y-3059211D01*
X33334991Y-3059202D01*
X33369679Y-2761264D01*
X33380621Y-2722868D01*
X33447405Y-2580762D01*
X33464065Y-2554489D01*
X33491315Y-2521533D01*
X33527594Y-2477654D01*
X33594054Y-2397278D01*
X33594365Y-2396900D01*
X33594379Y-2396882D01*
X33594443Y-2396805D01*
X33595796Y-2395147D01*
X33779117Y-2168535D01*
X33793174Y-2149405D01*
X33794378Y-2147596D01*
X33806604Y-2127234D01*
X33906870Y-1941161D01*
X33917072Y-1925264D01*
X33919673Y-1921821D01*
X33947754Y-1865424D01*
X33949590Y-1861883D01*
X33959051Y-1844323D01*
X33984083Y-1797872D01*
X33989861Y-1786477D01*
X33990366Y-1785416D01*
X33995618Y-1773623D01*
X33995620Y-1773608D01*
X33996524Y-1770772D01*
X34003687Y-1753095D01*
X34010582Y-1739250D01*
X34066397Y-1543083D01*
X34085215Y-1340000D01*
X34076814Y-1249342D01*
X34066397Y-1136917D01*
X34036228Y-1030886D01*
X34010582Y-940750D01*
X33919673Y-758179D01*
X33796764Y-595421D01*
X33796762Y-595418D01*
X33646041Y-458019D01*
X33646039Y-458017D01*
X33600671Y-429927D01*
X33554035Y-377900D01*
X33542931Y-308918D01*
X33570884Y-244884D01*
X33629019Y-206127D01*
X33665948Y-200500D01*
X34834052Y-200500D01*
X34901091Y-220185D01*
G37*
%TD.AperFunction*%
%TD*%
%TA.AperFunction,Conductor*%
%TO.N,/VDD_3.3V*%
G36*
X21033039Y-3679685D02*
G01*
X21078794Y-3732489D01*
X21090000Y-3784000D01*
X21090000Y-13636000D01*
X21070315Y-13703039D01*
X21017511Y-13748794D01*
X20966000Y-13760000D01*
X19014000Y-13760000D01*
X18946961Y-13740315D01*
X18901206Y-13687511D01*
X18890000Y-13636000D01*
X18890000Y-3784000D01*
X18909685Y-3716961D01*
X18962489Y-3671206D01*
X19014000Y-3660000D01*
X20966000Y-3660000D01*
X21033039Y-3679685D01*
G37*
%TD.AperFunction*%
%TD*%
%TA.AperFunction,Conductor*%
%TO.N,/VDD_5V*%
G36*
X12733039Y-6579685D02*
G01*
X12778794Y-6632489D01*
X12790000Y-6684000D01*
X12790000Y-10236000D01*
X12770315Y-10303039D01*
X12717511Y-10348794D01*
X12666000Y-10360000D01*
X6110000Y-10360000D01*
X6119999Y-21680000D01*
X6120000Y-21680000D01*
X28875623Y-21680000D01*
X28942662Y-21699685D01*
X28988417Y-21752489D01*
X28999621Y-21804376D01*
X28992104Y-24277979D01*
X28990376Y-24846377D01*
X28970488Y-24913356D01*
X28917545Y-24958950D01*
X28866377Y-24970000D01*
X26487592Y-24970000D01*
X26420553Y-24950315D01*
X26374798Y-24897511D01*
X26364854Y-24828353D01*
X26386015Y-24774878D01*
X26447102Y-24687639D01*
X26539575Y-24489330D01*
X26596207Y-24277977D01*
X26615277Y-24060000D01*
X26596207Y-23842023D01*
X26539575Y-23630670D01*
X26447102Y-23432362D01*
X26447100Y-23432359D01*
X26447099Y-23432357D01*
X26321599Y-23253124D01*
X26321596Y-23253121D01*
X26166877Y-23098402D01*
X25987642Y-22972900D01*
X25987638Y-22972897D01*
X25888484Y-22926661D01*
X25789330Y-22880425D01*
X25789326Y-22880424D01*
X25789322Y-22880422D01*
X25577977Y-22823793D01*
X25360002Y-22804723D01*
X25359998Y-22804723D01*
X25214682Y-22817436D01*
X25142023Y-22823793D01*
X25142020Y-22823793D01*
X24930677Y-22880422D01*
X24930668Y-22880426D01*
X24732361Y-22972898D01*
X24732357Y-22972900D01*
X24553121Y-23098402D01*
X24398402Y-23253121D01*
X24272900Y-23432357D01*
X24272898Y-23432361D01*
X24180426Y-23630668D01*
X24180422Y-23630677D01*
X24123793Y-23842020D01*
X24123793Y-23842024D01*
X24104723Y-24059997D01*
X24104723Y-24060002D01*
X24123793Y-24277975D01*
X24123793Y-24277979D01*
X24180422Y-24489322D01*
X24180424Y-24489326D01*
X24180425Y-24489330D01*
X24226661Y-24588484D01*
X24272897Y-24687638D01*
X24272898Y-24687639D01*
X24333983Y-24774878D01*
X24356310Y-24841082D01*
X24339300Y-24908850D01*
X24288352Y-24956663D01*
X24232408Y-24970000D01*
X21407592Y-24970000D01*
X21340553Y-24950315D01*
X21294798Y-24897511D01*
X21284854Y-24828353D01*
X21306015Y-24774878D01*
X21367102Y-24687639D01*
X21459575Y-24489330D01*
X21516207Y-24277977D01*
X21535277Y-24060000D01*
X21516207Y-23842023D01*
X21459575Y-23630670D01*
X21367102Y-23432362D01*
X21367100Y-23432359D01*
X21367099Y-23432357D01*
X21241599Y-23253124D01*
X21241596Y-23253121D01*
X21086877Y-23098402D01*
X20907642Y-22972900D01*
X20907638Y-22972897D01*
X20808484Y-22926661D01*
X20709330Y-22880425D01*
X20709326Y-22880424D01*
X20709322Y-22880422D01*
X20497977Y-22823793D01*
X20280002Y-22804723D01*
X20279998Y-22804723D01*
X20134682Y-22817436D01*
X20062023Y-22823793D01*
X20062020Y-22823793D01*
X19850677Y-22880422D01*
X19850668Y-22880426D01*
X19652361Y-22972898D01*
X19652357Y-22972900D01*
X19473121Y-23098402D01*
X19318402Y-23253121D01*
X19192900Y-23432357D01*
X19192898Y-23432361D01*
X19100426Y-23630668D01*
X19100422Y-23630677D01*
X19043793Y-23842020D01*
X19043793Y-23842024D01*
X19024723Y-24059997D01*
X19024723Y-24060002D01*
X19043793Y-24277975D01*
X19043793Y-24277979D01*
X19100422Y-24489322D01*
X19100424Y-24489326D01*
X19100425Y-24489330D01*
X19146661Y-24588484D01*
X19192897Y-24687638D01*
X19192898Y-24687639D01*
X19253983Y-24774878D01*
X19276310Y-24841082D01*
X19259300Y-24908850D01*
X19208352Y-24956663D01*
X19152408Y-24970000D01*
X16327592Y-24970000D01*
X16260553Y-24950315D01*
X16214798Y-24897511D01*
X16204854Y-24828353D01*
X16226015Y-24774878D01*
X16287102Y-24687639D01*
X16379575Y-24489330D01*
X16436207Y-24277977D01*
X16455277Y-24060000D01*
X16436207Y-23842023D01*
X16379575Y-23630670D01*
X16287102Y-23432362D01*
X16287100Y-23432359D01*
X16287099Y-23432357D01*
X16161599Y-23253124D01*
X16161596Y-23253121D01*
X16006877Y-23098402D01*
X15827642Y-22972900D01*
X15827638Y-22972897D01*
X15728484Y-22926661D01*
X15629330Y-22880425D01*
X15629326Y-22880424D01*
X15629322Y-22880422D01*
X15417977Y-22823793D01*
X15200002Y-22804723D01*
X15199998Y-22804723D01*
X15054682Y-22817436D01*
X14982023Y-22823793D01*
X14982020Y-22823793D01*
X14770677Y-22880422D01*
X14770668Y-22880426D01*
X14572361Y-22972898D01*
X14572357Y-22972900D01*
X14393121Y-23098402D01*
X14238402Y-23253121D01*
X14112900Y-23432357D01*
X14112898Y-23432361D01*
X14020426Y-23630668D01*
X14020422Y-23630677D01*
X13963793Y-23842020D01*
X13963793Y-23842024D01*
X13944723Y-24059997D01*
X13944723Y-24060002D01*
X13963793Y-24277975D01*
X13963793Y-24277979D01*
X14020422Y-24489322D01*
X14020424Y-24489326D01*
X14020425Y-24489330D01*
X14066661Y-24588484D01*
X14112897Y-24687638D01*
X14112898Y-24687639D01*
X14173983Y-24774878D01*
X14196310Y-24841082D01*
X14179300Y-24908850D01*
X14128352Y-24956663D01*
X14072408Y-24970000D01*
X11247592Y-24970000D01*
X11180553Y-24950315D01*
X11134798Y-24897511D01*
X11124854Y-24828353D01*
X11146015Y-24774878D01*
X11207102Y-24687639D01*
X11299575Y-24489330D01*
X11356207Y-24277977D01*
X11375277Y-24060000D01*
X11356207Y-23842023D01*
X11299575Y-23630670D01*
X11207102Y-23432362D01*
X11207100Y-23432359D01*
X11207099Y-23432357D01*
X11081599Y-23253124D01*
X11081596Y-23253121D01*
X10926877Y-23098402D01*
X10747642Y-22972900D01*
X10747638Y-22972897D01*
X10648484Y-22926661D01*
X10549330Y-22880425D01*
X10549326Y-22880424D01*
X10549322Y-22880422D01*
X10337977Y-22823793D01*
X10120002Y-22804723D01*
X10119998Y-22804723D01*
X9974682Y-22817436D01*
X9902023Y-22823793D01*
X9902020Y-22823793D01*
X9690677Y-22880422D01*
X9690668Y-22880426D01*
X9492361Y-22972898D01*
X9492357Y-22972900D01*
X9313121Y-23098402D01*
X9158402Y-23253121D01*
X9032900Y-23432357D01*
X9032898Y-23432361D01*
X8940426Y-23630668D01*
X8940422Y-23630677D01*
X8883793Y-23842020D01*
X8883793Y-23842024D01*
X8864723Y-24059997D01*
X8864723Y-24060002D01*
X8883793Y-24277975D01*
X8883793Y-24277979D01*
X8940422Y-24489322D01*
X8940424Y-24489326D01*
X8940425Y-24489330D01*
X8986661Y-24588484D01*
X9032897Y-24687638D01*
X9032898Y-24687639D01*
X9093983Y-24774878D01*
X9116310Y-24841082D01*
X9099300Y-24908850D01*
X9048352Y-24956663D01*
X8992408Y-24970000D01*
X6167592Y-24970000D01*
X6100553Y-24950315D01*
X6054798Y-24897511D01*
X6044854Y-24828353D01*
X6066015Y-24774878D01*
X6127102Y-24687639D01*
X6219575Y-24489330D01*
X6276207Y-24277977D01*
X6295277Y-24060000D01*
X6276207Y-23842023D01*
X6219575Y-23630670D01*
X6127102Y-23432362D01*
X6127100Y-23432359D01*
X6127099Y-23432357D01*
X6001599Y-23253124D01*
X6001596Y-23253121D01*
X5846877Y-23098402D01*
X5667642Y-22972900D01*
X5667638Y-22972897D01*
X5568484Y-22926661D01*
X5469330Y-22880425D01*
X5469326Y-22880424D01*
X5469322Y-22880422D01*
X5257977Y-22823793D01*
X5040002Y-22804723D01*
X5039998Y-22804723D01*
X4894682Y-22817436D01*
X4822023Y-22823793D01*
X4822020Y-22823793D01*
X4610677Y-22880422D01*
X4610668Y-22880426D01*
X4412361Y-22972898D01*
X4412359Y-22972899D01*
X4294026Y-23055756D01*
X4227820Y-23078083D01*
X4160053Y-23061071D01*
X4112241Y-23010123D01*
X4098905Y-22954251D01*
X4095875Y-17377621D01*
X4105312Y-17330111D01*
X4122894Y-17287666D01*
X4157500Y-17113691D01*
X4157500Y-16936309D01*
X4157500Y-16936306D01*
X4157499Y-16936304D01*
X4154889Y-16923182D01*
X4122894Y-16762334D01*
X4104928Y-16718961D01*
X4095492Y-16671588D01*
X4091183Y-8738950D01*
X4100620Y-8691439D01*
X4122894Y-8637666D01*
X4157500Y-8463691D01*
X4157500Y-8286309D01*
X4157500Y-8286306D01*
X4157499Y-8286304D01*
X4122896Y-8112341D01*
X4122894Y-8112336D01*
X4122894Y-8112334D01*
X4100225Y-8057606D01*
X4090787Y-8010227D01*
X4090067Y-6684065D01*
X4109715Y-6617017D01*
X4162494Y-6571234D01*
X4214067Y-6560000D01*
X12666000Y-6560000D01*
X12733039Y-6579685D01*
G37*
%TD.AperFunction*%
%TD*%
%TA.AperFunction,Conductor*%
%TO.N,/VDD_3.3V*%
G36*
X20842334Y-12042179D02*
G01*
X20871217Y-12143935D01*
X20900861Y-12229254D01*
X20952117Y-12316062D01*
X21045838Y-12422284D01*
X20692284Y-12775838D01*
X20574429Y-12656051D01*
X20492425Y-12569438D01*
X20422370Y-12493884D01*
X20340366Y-12407272D01*
X20222513Y-12287487D01*
X20469293Y-12039293D01*
X20793358Y-11906061D01*
X20842334Y-12042179D01*
G37*
%TD.AperFunction*%
%TD*%
%TA.AperFunction,Conductor*%
%TO.N,/VDD_3.3V*%
G36*
X54186102Y-12113665D02*
G01*
X54190014Y-12121719D01*
X54190035Y-12122382D01*
X54191000Y-12460000D01*
X54191000Y-12460066D01*
X54190035Y-12797617D01*
X54186584Y-12805881D01*
X54178302Y-12809284D01*
X54177639Y-12809263D01*
X54016195Y-12799648D01*
X54014573Y-12799437D01*
X53893115Y-12774886D01*
X53892269Y-12774682D01*
X53787314Y-12745200D01*
X53664626Y-12720400D01*
X53664614Y-12720399D01*
X53501004Y-12710655D01*
X53492950Y-12706743D01*
X53490000Y-12698976D01*
X53490000Y-12221023D01*
X53493427Y-12212750D01*
X53501002Y-12209344D01*
X53664623Y-12199600D01*
X53787311Y-12174800D01*
X53892286Y-12145312D01*
X53893097Y-12145117D01*
X54014577Y-12120561D01*
X54016191Y-12120351D01*
X54177639Y-12110736D01*
X54186102Y-12113665D01*
G37*
%TD.AperFunction*%
%TD*%
%TA.AperFunction,Conductor*%
%TO.N,/VDD_3.3V*%
G36*
X22968118Y-12364052D02*
G01*
X22972587Y-12371812D01*
X22972685Y-12373326D01*
X22972685Y-12848850D01*
X22969258Y-12857123D01*
X22961548Y-12860536D01*
X22879441Y-12864489D01*
X22804010Y-12869299D01*
X22801848Y-12869237D01*
X22743109Y-12862072D01*
X22738184Y-12860290D01*
X22691555Y-12830215D01*
X22687854Y-12826386D01*
X22647628Y-12759089D01*
X22646236Y-12755557D01*
X22618669Y-12627541D01*
X22618739Y-12622310D01*
X22644207Y-12517760D01*
X22646802Y-12512788D01*
X22716959Y-12433311D01*
X22720726Y-12430479D01*
X22828971Y-12379321D01*
X22832451Y-12378298D01*
X22959471Y-12361724D01*
X22968118Y-12364052D01*
G37*
%TD.AperFunction*%
%TD*%
%TA.AperFunction,Conductor*%
%TO.N,/VDD_3.3V*%
G36*
X42494478Y-5180868D02*
G01*
X42802220Y-5309291D01*
X42808535Y-5315640D01*
X42808512Y-5324595D01*
X42808367Y-5324927D01*
X42751921Y-5449205D01*
X42751729Y-5449607D01*
X42703400Y-5546083D01*
X42668398Y-5631632D01*
X42659382Y-5674952D01*
X42647153Y-5733717D01*
X42647153Y-5733722D01*
X42640544Y-5868871D01*
X42636717Y-5876967D01*
X42628858Y-5880000D01*
X42351142Y-5880000D01*
X42342869Y-5876573D01*
X42339456Y-5868872D01*
X42332845Y-5733721D01*
X42332845Y-5733717D01*
X42332845Y-5733716D01*
X42311601Y-5631632D01*
X42276599Y-5546083D01*
X42228254Y-5449577D01*
X42228091Y-5449235D01*
X42171631Y-5324925D01*
X42171331Y-5315978D01*
X42177447Y-5309436D01*
X42177754Y-5309301D01*
X42485494Y-5180879D01*
X42494449Y-5180857D01*
X42494478Y-5180868D01*
G37*
%TD.AperFunction*%
%TD*%
%TA.AperFunction,Conductor*%
%TO.N,/VDD_3.3V*%
G36*
X42637369Y-8923427D02*
G01*
X42640767Y-8930877D01*
X42653405Y-9110091D01*
X42653405Y-9110094D01*
X42690846Y-9240459D01*
X42690848Y-9240464D01*
X42748146Y-9348541D01*
X42748167Y-9348578D01*
X42820921Y-9471418D01*
X42821399Y-9472311D01*
X42900399Y-9636668D01*
X42900895Y-9645609D01*
X42894923Y-9652282D01*
X42894354Y-9652537D01*
X42494500Y-9819125D01*
X42485545Y-9819144D01*
X42485500Y-9819125D01*
X42085645Y-9652537D01*
X42079326Y-9646192D01*
X42079345Y-9637237D01*
X42079588Y-9636692D01*
X42158611Y-9472286D01*
X42159063Y-9471441D01*
X42231840Y-9348563D01*
X42289153Y-9240460D01*
X42326594Y-9110090D01*
X42339233Y-8930877D01*
X42343233Y-8922865D01*
X42350904Y-8920000D01*
X42629096Y-8920000D01*
X42637369Y-8923427D01*
G37*
%TD.AperFunction*%
%TD*%
%TA.AperFunction,Conductor*%
%TO.N,/VDD_3.3V*%
G36*
X51190810Y-7430789D02*
G01*
X51191292Y-7431242D01*
X51430707Y-7669293D01*
X51430755Y-7669341D01*
X51668756Y-7908706D01*
X51672159Y-7916988D01*
X51668708Y-7925252D01*
X51668226Y-7925705D01*
X51547268Y-8033065D01*
X51545971Y-8034063D01*
X51442731Y-8102584D01*
X51441989Y-8103038D01*
X51346915Y-8156413D01*
X51242638Y-8225623D01*
X51242635Y-8225625D01*
X51120047Y-8334432D01*
X51111584Y-8337361D01*
X51104007Y-8333955D01*
X50766044Y-7995992D01*
X50762617Y-7987719D01*
X50765567Y-7979952D01*
X50874372Y-7857365D01*
X50943589Y-7753075D01*
X50996971Y-7657989D01*
X50997403Y-7657283D01*
X51065941Y-7554017D01*
X51066924Y-7552739D01*
X51174296Y-7431770D01*
X51182347Y-7427860D01*
X51190810Y-7430789D01*
G37*
%TD.AperFunction*%
%TD*%
%TA.AperFunction,Conductor*%
%TO.N,/VDD_3.3V*%
G36*
X42672762Y-9409345D02*
G01*
X42673320Y-9409595D01*
X42837703Y-9488607D01*
X42838566Y-9489069D01*
X42961436Y-9561840D01*
X43069539Y-9619153D01*
X43183021Y-9651744D01*
X43199904Y-9656593D01*
X43199908Y-9656594D01*
X43379125Y-9669233D01*
X43387135Y-9673232D01*
X43390000Y-9680903D01*
X43390000Y-9959096D01*
X43386573Y-9967369D01*
X43379123Y-9970767D01*
X43199906Y-9983405D01*
X43199903Y-9983405D01*
X43069539Y-10020846D01*
X43069534Y-10020848D01*
X42961457Y-10078146D01*
X42961420Y-10078167D01*
X42838580Y-10150921D01*
X42837687Y-10151399D01*
X42673331Y-10230399D01*
X42664390Y-10230895D01*
X42657717Y-10224923D01*
X42657462Y-10224354D01*
X42572676Y-10020846D01*
X42490873Y-9824498D01*
X42490855Y-9815547D01*
X42657462Y-9415644D01*
X42663807Y-9409326D01*
X42672762Y-9409345D01*
G37*
%TD.AperFunction*%
%TD*%
%TA.AperFunction,Conductor*%
%TO.N,/VDD_3.3V*%
G36*
X19793358Y-13173939D02*
G01*
X19731830Y-13309406D01*
X19683400Y-13406083D01*
X19648398Y-13491632D01*
X19627154Y-13593716D01*
X19620000Y-13740000D01*
X19320000Y-13740000D01*
X19312845Y-13593716D01*
X19291601Y-13491632D01*
X19256599Y-13406083D01*
X19208169Y-13309406D01*
X19146642Y-13173939D01*
X19470000Y-13039000D01*
X19793358Y-13173939D01*
G37*
%TD.AperFunction*%
%TD*%
%TA.AperFunction,Conductor*%
%TO.N,/VDD_3.3V*%
G36*
X35335591Y-9917936D02*
G01*
X35373832Y-9922031D01*
X35376413Y-9922610D01*
X35439661Y-9944629D01*
X35446345Y-9950584D01*
X35446862Y-9959524D01*
X35441329Y-9965994D01*
X35322515Y-10029531D01*
X35313604Y-10030411D01*
X35311482Y-10029532D01*
X35214243Y-9977548D01*
X35208563Y-9970626D01*
X35209268Y-9962051D01*
X35210516Y-9959524D01*
X35232679Y-9914628D01*
X35239414Y-9908727D01*
X35244413Y-9908174D01*
X35335591Y-9917936D01*
G37*
%TD.AperFunction*%
%TA.AperFunction,Conductor*%
G36*
X35635353Y-9586636D02*
G01*
X35687690Y-9631678D01*
X35691725Y-9639671D01*
X35690746Y-9645305D01*
X35638410Y-9762825D01*
X35631914Y-9768988D01*
X35622962Y-9768753D01*
X35616799Y-9762257D01*
X35616022Y-9758065D01*
X35616022Y-9595505D01*
X35619449Y-9587232D01*
X35627722Y-9583805D01*
X35635353Y-9586636D01*
G37*
%TD.AperFunction*%
%TD*%
%TA.AperFunction,Conductor*%
%TO.N,/VDD_3.3V*%
G36*
X42322291Y-9415054D02*
G01*
X42322298Y-9415070D01*
X42489125Y-9815500D01*
X42489144Y-9824455D01*
X42489125Y-9824500D01*
X42322298Y-10224929D01*
X42315953Y-10231248D01*
X42306998Y-10231229D01*
X42306982Y-10231222D01*
X42145537Y-10163669D01*
X42020133Y-10115701D01*
X41908104Y-10087208D01*
X41775902Y-10073526D01*
X41601478Y-10070217D01*
X41593271Y-10066634D01*
X41590000Y-10058519D01*
X41590000Y-9581480D01*
X41593427Y-9573207D01*
X41601477Y-9569782D01*
X41775902Y-9566473D01*
X41908106Y-9552790D01*
X42020138Y-9524295D01*
X42145524Y-9476335D01*
X42306982Y-9408776D01*
X42315937Y-9408745D01*
X42322291Y-9415054D01*
G37*
%TD.AperFunction*%
%TD*%
%TA.AperFunction,Conductor*%
%TO.N,/VDD_3.3V*%
G36*
X21101732Y-9573770D02*
G01*
X21105815Y-9581740D01*
X21105853Y-9582683D01*
X21105853Y-10059933D01*
X21102426Y-10068206D01*
X21095900Y-10071502D01*
X21090000Y-10072392D01*
X21090000Y-10072393D01*
X20972430Y-10090145D01*
X20889414Y-10142171D01*
X20824917Y-10213460D01*
X20747054Y-10291395D01*
X20623939Y-10363358D01*
X20489000Y-10040000D01*
X20490000Y-9690000D01*
X20644399Y-9677520D01*
X20751955Y-9647760D01*
X20843897Y-9612240D01*
X20951453Y-9582480D01*
X21093212Y-9571021D01*
X21101732Y-9573770D01*
G37*
%TD.AperFunction*%
%TD*%
%TA.AperFunction,Conductor*%
%TO.N,/VDD_3.3V*%
G36*
X52754478Y-8160868D02*
G01*
X53062220Y-8289291D01*
X53068535Y-8295640D01*
X53068512Y-8304595D01*
X53068367Y-8304927D01*
X53011921Y-8429205D01*
X53011729Y-8429607D01*
X52963400Y-8526083D01*
X52928398Y-8611632D01*
X52919382Y-8654952D01*
X52907153Y-8713717D01*
X52907153Y-8713722D01*
X52900544Y-8848871D01*
X52896717Y-8856967D01*
X52888858Y-8860000D01*
X52611142Y-8860000D01*
X52602869Y-8856573D01*
X52599456Y-8848872D01*
X52592845Y-8713721D01*
X52592845Y-8713717D01*
X52592845Y-8713716D01*
X52571601Y-8611632D01*
X52536599Y-8526083D01*
X52488254Y-8429577D01*
X52488091Y-8429235D01*
X52431631Y-8304925D01*
X52431331Y-8295978D01*
X52437447Y-8289436D01*
X52437754Y-8289301D01*
X52745494Y-8160879D01*
X52754449Y-8160857D01*
X52754478Y-8160868D01*
G37*
%TD.AperFunction*%
%TD*%
%TA.AperFunction,Conductor*%
%TO.N,/VDD_3.3V*%
G36*
X52897131Y-9973427D02*
G01*
X52900544Y-9981128D01*
X52907153Y-10116276D01*
X52907153Y-10116280D01*
X52916169Y-10159602D01*
X52928398Y-10218367D01*
X52963400Y-10303916D01*
X53011729Y-10400391D01*
X53011921Y-10400793D01*
X53068367Y-10525072D01*
X53068668Y-10534021D01*
X53062552Y-10540563D01*
X53062220Y-10540708D01*
X52754506Y-10669119D01*
X52745551Y-10669142D01*
X52745494Y-10669119D01*
X52437779Y-10540708D01*
X52431464Y-10534359D01*
X52431487Y-10525404D01*
X52431607Y-10525129D01*
X52488100Y-10400743D01*
X52488244Y-10400442D01*
X52536599Y-10303916D01*
X52571601Y-10218367D01*
X52592845Y-10116282D01*
X52599456Y-9981128D01*
X52603283Y-9973033D01*
X52611142Y-9970000D01*
X52888858Y-9970000D01*
X52897131Y-9973427D01*
G37*
%TD.AperFunction*%
%TD*%
%TA.AperFunction,Conductor*%
%TO.N,/VDD_3.3V*%
G36*
X42673000Y-9408769D02*
G01*
X42834474Y-9476335D01*
X42959860Y-9524295D01*
X43071892Y-9552790D01*
X43204097Y-9566473D01*
X43378522Y-9569782D01*
X43386729Y-9573365D01*
X43390000Y-9581480D01*
X43390000Y-10058519D01*
X43386573Y-10066792D01*
X43378522Y-10070217D01*
X43204096Y-10073526D01*
X43071893Y-10087208D01*
X42959864Y-10115701D01*
X42834460Y-10163669D01*
X42673017Y-10231222D01*
X42664062Y-10231254D01*
X42657708Y-10224945D01*
X42657701Y-10224929D01*
X42632177Y-10163664D01*
X42490873Y-9824498D01*
X42490855Y-9815547D01*
X42657702Y-9415068D01*
X42664046Y-9408751D01*
X42673000Y-9408769D01*
G37*
%TD.AperFunction*%
%TD*%
%TA.AperFunction,Conductor*%
%TO.N,/VDD_3.3V*%
G36*
X51049345Y-7076444D02*
G01*
X51149585Y-7167336D01*
X51149587Y-7167337D01*
X51149588Y-7167338D01*
X51236794Y-7224500D01*
X51322036Y-7260242D01*
X51322040Y-7260243D01*
X51322044Y-7260245D01*
X51424416Y-7294283D01*
X51424836Y-7294431D01*
X51552639Y-7342401D01*
X51559181Y-7348517D01*
X51559482Y-7357466D01*
X51559349Y-7357804D01*
X51432563Y-7666191D01*
X51426248Y-7672540D01*
X51426191Y-7672563D01*
X51117804Y-7799349D01*
X51108849Y-7799326D01*
X51102534Y-7792977D01*
X51102401Y-7792639D01*
X51054431Y-7664836D01*
X51054283Y-7664416D01*
X51020245Y-7562044D01*
X51020242Y-7562037D01*
X50984500Y-7476794D01*
X50927336Y-7389585D01*
X50836444Y-7289345D01*
X50833425Y-7280914D01*
X50836837Y-7273214D01*
X51033214Y-7076837D01*
X51041486Y-7073411D01*
X51049345Y-7076444D01*
G37*
%TD.AperFunction*%
%TD*%
%TA.AperFunction,Conductor*%
%TO.N,/VDD_3.3V*%
G36*
X16436786Y-17026838D02*
G01*
X16633161Y-17223213D01*
X16636588Y-17231486D01*
X16633555Y-17239345D01*
X16542662Y-17339585D01*
X16485497Y-17426794D01*
X16449757Y-17512033D01*
X16449754Y-17512041D01*
X16415715Y-17614417D01*
X16415567Y-17614837D01*
X16367598Y-17742639D01*
X16361482Y-17749181D01*
X16352533Y-17749482D01*
X16352195Y-17749349D01*
X16043808Y-17622563D01*
X16037460Y-17616249D01*
X15910649Y-17307801D01*
X15910672Y-17298848D01*
X15917021Y-17292533D01*
X15917284Y-17292429D01*
X16045162Y-17244431D01*
X16045574Y-17244286D01*
X16147953Y-17210245D01*
X16147953Y-17210244D01*
X16147962Y-17210242D01*
X16233205Y-17174500D01*
X16320411Y-17117338D01*
X16420654Y-17026443D01*
X16429085Y-17023425D01*
X16436786Y-17026838D01*
G37*
%TD.AperFunction*%
%TD*%
%TA.AperFunction,Conductor*%
%TO.N,/VDD_3.3V*%
G36*
X44764478Y-5190868D02*
G01*
X45072220Y-5319291D01*
X45078535Y-5325640D01*
X45078512Y-5334595D01*
X45078367Y-5334927D01*
X45021921Y-5459205D01*
X45021729Y-5459607D01*
X44973400Y-5556083D01*
X44938398Y-5641632D01*
X44929382Y-5684952D01*
X44917153Y-5743717D01*
X44917153Y-5743722D01*
X44910544Y-5878871D01*
X44906717Y-5886967D01*
X44898858Y-5890000D01*
X44621142Y-5890000D01*
X44612869Y-5886573D01*
X44609456Y-5878872D01*
X44602845Y-5743721D01*
X44602845Y-5743717D01*
X44602845Y-5743716D01*
X44581601Y-5641632D01*
X44546599Y-5556083D01*
X44498254Y-5459577D01*
X44498091Y-5459235D01*
X44441631Y-5334925D01*
X44441331Y-5325978D01*
X44447447Y-5319436D01*
X44447754Y-5319301D01*
X44755494Y-5190879D01*
X44764449Y-5190857D01*
X44764478Y-5190868D01*
G37*
%TD.AperFunction*%
%TD*%
%TA.AperFunction,Conductor*%
%TO.N,/VDD_3.3V*%
G36*
X48174595Y-4871487D02*
G01*
X48174893Y-4871617D01*
X48299235Y-4928091D01*
X48299577Y-4928254D01*
X48396083Y-4976599D01*
X48481632Y-5011601D01*
X48583716Y-5032845D01*
X48718872Y-5039455D01*
X48726967Y-5043282D01*
X48730000Y-5051141D01*
X48730000Y-5328858D01*
X48726573Y-5337131D01*
X48718871Y-5340544D01*
X48583722Y-5347153D01*
X48583717Y-5347153D01*
X48524952Y-5359382D01*
X48481632Y-5368398D01*
X48396083Y-5403400D01*
X48336727Y-5433133D01*
X48299607Y-5451729D01*
X48299205Y-5451921D01*
X48174927Y-5508367D01*
X48165978Y-5508668D01*
X48159436Y-5502552D01*
X48159291Y-5502220D01*
X48091596Y-5340000D01*
X48030879Y-5194505D01*
X48030857Y-5185551D01*
X48030880Y-5185494D01*
X48159291Y-4877778D01*
X48165640Y-4871464D01*
X48174595Y-4871487D01*
G37*
%TD.AperFunction*%
%TD*%
%TA.AperFunction,Conductor*%
%TO.N,/CHIP_EN*%
G36*
X34160669Y-8293562D02*
G01*
X34286436Y-8419329D01*
X34289863Y-8427602D01*
X34286882Y-8435404D01*
X34224265Y-8505377D01*
X34184730Y-8568763D01*
X34184728Y-8568766D01*
X34160862Y-8630899D01*
X34137967Y-8705035D01*
X34137769Y-8705622D01*
X34105159Y-8794281D01*
X34099087Y-8800863D01*
X34090139Y-8801223D01*
X34089741Y-8801068D01*
X33873824Y-8712564D01*
X33867468Y-8706255D01*
X33867435Y-8706175D01*
X33867208Y-8705622D01*
X33778931Y-8490257D01*
X33778964Y-8481304D01*
X33785320Y-8474995D01*
X33785690Y-8474850D01*
X33874390Y-8442222D01*
X33874946Y-8442035D01*
X33949104Y-8419135D01*
X34011234Y-8395268D01*
X34074623Y-8355732D01*
X34144597Y-8293114D01*
X34153044Y-8290153D01*
X34160669Y-8293562D01*
G37*
%TD.AperFunction*%
%TD*%
%TA.AperFunction,Conductor*%
%TO.N,/CHIP_EN*%
G36*
X48253840Y-3534836D02*
G01*
X48254037Y-3535279D01*
X48344109Y-3750483D01*
X48344142Y-3759437D01*
X48344109Y-3759517D01*
X48253994Y-3974823D01*
X48247638Y-3981132D01*
X48238684Y-3981099D01*
X48238338Y-3980948D01*
X48224933Y-3974823D01*
X48152938Y-3941926D01*
X48152483Y-3941706D01*
X48083879Y-3906700D01*
X48023023Y-3881056D01*
X47950330Y-3865338D01*
X47857097Y-3860568D01*
X47849010Y-3856723D01*
X47845995Y-3848883D01*
X47845995Y-3671015D01*
X47849422Y-3662742D01*
X47856988Y-3659336D01*
X47950788Y-3653677D01*
X48023279Y-3635593D01*
X48083707Y-3607074D01*
X48151993Y-3569618D01*
X48152645Y-3569288D01*
X48238284Y-3529200D01*
X48247229Y-3528796D01*
X48253840Y-3534836D01*
G37*
%TD.AperFunction*%
%TD*%
%TA.AperFunction,Conductor*%
%TO.N,/CHIP_EN*%
G36*
X49986654Y-1019654D02*
G01*
X50756215Y-1337438D01*
X50762552Y-1343761D01*
X50762562Y-1343785D01*
X51080342Y-2113337D01*
X51080333Y-2122292D01*
X51073994Y-2128617D01*
X51072887Y-2129011D01*
X50714491Y-2236410D01*
X50712361Y-2236837D01*
X50422518Y-2267446D01*
X50422393Y-2267459D01*
X50171621Y-2291230D01*
X49920545Y-2381763D01*
X49636797Y-2606327D01*
X49628183Y-2608774D01*
X49621263Y-2605426D01*
X49494573Y-2478736D01*
X49491146Y-2470463D01*
X49493671Y-2463204D01*
X49718234Y-2179455D01*
X49808769Y-1928374D01*
X49832540Y-1677586D01*
X49863160Y-1387635D01*
X49863587Y-1385507D01*
X49877992Y-1337437D01*
X49970988Y-1027109D01*
X49976645Y-1020171D01*
X49985554Y-1019263D01*
X49986654Y-1019654D01*
G37*
%TD.AperFunction*%
%TD*%
%TA.AperFunction,Conductor*%
%TO.N,/CHIP_EN*%
G36*
X48635669Y-3338562D02*
G01*
X48761436Y-3464329D01*
X48764863Y-3472602D01*
X48761882Y-3480404D01*
X48699265Y-3550377D01*
X48659730Y-3613763D01*
X48659728Y-3613766D01*
X48635862Y-3675899D01*
X48612967Y-3750035D01*
X48612769Y-3750622D01*
X48580159Y-3839281D01*
X48574087Y-3845863D01*
X48565139Y-3846223D01*
X48564741Y-3846068D01*
X48348824Y-3757564D01*
X48342468Y-3751255D01*
X48342435Y-3751175D01*
X48342208Y-3750622D01*
X48253931Y-3535257D01*
X48253964Y-3526304D01*
X48260320Y-3519995D01*
X48260690Y-3519850D01*
X48349390Y-3487222D01*
X48349946Y-3487035D01*
X48424104Y-3464135D01*
X48486234Y-3440268D01*
X48549623Y-3400732D01*
X48619597Y-3338114D01*
X48628044Y-3335153D01*
X48635669Y-3338562D01*
G37*
%TD.AperFunction*%
%TD*%
%TA.AperFunction,Conductor*%
%TO.N,/GPIO9{slash}BOOT*%
G36*
X32984484Y-1340863D02*
G01*
X33753349Y-1660316D01*
X33759674Y-1666655D01*
X33759665Y-1675610D01*
X33759160Y-1676671D01*
X33581681Y-2006033D01*
X33580477Y-2007842D01*
X33397156Y-2234454D01*
X33397077Y-2234550D01*
X33236578Y-2428662D01*
X33236574Y-2428669D01*
X33123054Y-2670225D01*
X33081205Y-3029653D01*
X33076845Y-3037474D01*
X33069584Y-3040000D01*
X32890416Y-3040000D01*
X32882143Y-3036573D01*
X32878795Y-3029653D01*
X32836944Y-2670225D01*
X32836945Y-2670225D01*
X32723423Y-2428669D01*
X32723422Y-2428667D01*
X32723421Y-2428666D01*
X32723421Y-2428665D01*
X32562896Y-2234522D01*
X32379521Y-2007842D01*
X32378317Y-2006033D01*
X32200838Y-1676669D01*
X32199931Y-1667762D01*
X32205589Y-1660821D01*
X32206637Y-1660322D01*
X32975511Y-1340864D01*
X32984466Y-1340856D01*
X32984484Y-1340863D01*
G37*
%TD.AperFunction*%
%TD*%
%TA.AperFunction,Conductor*%
%TO.N,/GPIO9{slash}BOOT*%
G36*
X33077204Y-8223427D02*
G01*
X33080613Y-8231052D01*
X33085813Y-8324804D01*
X33102679Y-8397582D01*
X33129735Y-8458389D01*
X33129738Y-8458394D01*
X33165976Y-8527014D01*
X33166249Y-8527565D01*
X33205879Y-8613313D01*
X33206239Y-8622260D01*
X33200167Y-8628842D01*
X33199775Y-8629014D01*
X32984517Y-8719109D01*
X32975563Y-8719142D01*
X32975483Y-8719109D01*
X32760224Y-8629014D01*
X32753915Y-8622658D01*
X32753948Y-8613704D01*
X32754098Y-8613362D01*
X32793757Y-8527549D01*
X32794011Y-8527034D01*
X32830262Y-8458392D01*
X32857319Y-8397582D01*
X32874186Y-8324804D01*
X32879387Y-8231052D01*
X32883267Y-8222981D01*
X32891069Y-8220000D01*
X33068931Y-8220000D01*
X33077204Y-8223427D01*
G37*
%TD.AperFunction*%
%TD*%
%TA.AperFunction,Conductor*%
%TO.N,/GPIO9{slash}BOOT*%
G36*
X25640241Y-10538924D02*
G01*
X25856175Y-10627435D01*
X25862531Y-10633744D01*
X25862564Y-10633824D01*
X25951068Y-10849741D01*
X25951035Y-10858695D01*
X25944679Y-10865004D01*
X25944281Y-10865159D01*
X25855622Y-10897769D01*
X25855035Y-10897967D01*
X25780899Y-10920862D01*
X25718766Y-10944728D01*
X25718763Y-10944730D01*
X25655377Y-10984265D01*
X25585404Y-11046882D01*
X25576954Y-11049845D01*
X25569329Y-11046436D01*
X25443562Y-10920669D01*
X25440135Y-10912396D01*
X25443114Y-10904597D01*
X25505732Y-10834623D01*
X25545268Y-10771234D01*
X25569135Y-10709104D01*
X25592035Y-10634946D01*
X25592228Y-10634375D01*
X25592431Y-10633824D01*
X25624840Y-10545716D01*
X25630913Y-10539136D01*
X25639860Y-10538776D01*
X25640241Y-10538924D01*
G37*
%TD.AperFunction*%
%TD*%
%TA.AperFunction,Conductor*%
%TO.N,/GPIO9{slash}BOOT*%
G36*
X24920669Y-11443562D02*
G01*
X25046436Y-11569329D01*
X25049863Y-11577602D01*
X25046882Y-11585404D01*
X24984265Y-11655377D01*
X24944730Y-11718763D01*
X24944728Y-11718766D01*
X24920862Y-11780899D01*
X24897967Y-11855035D01*
X24897769Y-11855622D01*
X24865159Y-11944281D01*
X24859087Y-11950863D01*
X24850139Y-11951223D01*
X24849741Y-11951068D01*
X24633824Y-11862564D01*
X24627468Y-11856255D01*
X24627435Y-11856175D01*
X24627208Y-11855622D01*
X24538931Y-11640257D01*
X24538964Y-11631304D01*
X24545320Y-11624995D01*
X24545690Y-11624850D01*
X24634390Y-11592222D01*
X24634946Y-11592035D01*
X24709104Y-11569135D01*
X24771234Y-11545268D01*
X24834623Y-11505732D01*
X24904597Y-11443114D01*
X24913044Y-11440153D01*
X24920669Y-11443562D01*
G37*
%TD.AperFunction*%
%TD*%
%TA.AperFunction,Conductor*%
%TO.N,/DTR*%
G36*
X21891073Y-10767748D02*
G01*
X21891082Y-10767751D01*
X21891087Y-10767753D01*
X21960890Y-10791612D01*
X21960898Y-10791614D01*
X21960904Y-10791616D01*
X21960914Y-10791618D01*
X22023450Y-10804219D01*
X22023453Y-10804219D01*
X22023466Y-10804222D01*
X22097063Y-10809153D01*
X22188397Y-10809904D01*
X22196641Y-10813399D01*
X22200000Y-10821604D01*
X22200000Y-11098395D01*
X22196573Y-11106668D01*
X22188396Y-11110095D01*
X22099054Y-11110829D01*
X22097063Y-11110846D01*
X22097056Y-11110846D01*
X22032665Y-11115160D01*
X22023466Y-11115777D01*
X21963115Y-11127936D01*
X21960899Y-11128383D01*
X21960890Y-11128385D01*
X21891087Y-11152244D01*
X21891059Y-11152255D01*
X21806395Y-11186617D01*
X21797440Y-11186553D01*
X21791202Y-11180293D01*
X21769476Y-11128385D01*
X21700889Y-10964515D01*
X21700857Y-10955563D01*
X21791203Y-10739704D01*
X21797558Y-10733397D01*
X21806394Y-10733382D01*
X21891073Y-10767748D01*
G37*
%TD.AperFunction*%
%TD*%
%TA.AperFunction,Conductor*%
%TO.N,/DTR*%
G36*
X24452559Y-10733446D02*
G01*
X24458797Y-10739706D01*
X24549109Y-10955483D01*
X24549142Y-10964437D01*
X24549109Y-10964517D01*
X24458797Y-11180293D01*
X24452441Y-11186602D01*
X24443604Y-11186617D01*
X24358939Y-11152255D01*
X24358911Y-11152244D01*
X24289108Y-11128385D01*
X24289099Y-11128383D01*
X24289096Y-11128382D01*
X24289095Y-11128382D01*
X24226533Y-11115777D01*
X24189734Y-11113311D01*
X24152938Y-11110846D01*
X24061604Y-11110095D01*
X24053359Y-11106600D01*
X24050000Y-11098395D01*
X24050000Y-10821604D01*
X24053427Y-10813331D01*
X24061602Y-10809904D01*
X24152936Y-10809153D01*
X24226533Y-10804222D01*
X24289095Y-10791616D01*
X24289103Y-10791613D01*
X24289108Y-10791612D01*
X24358903Y-10767756D01*
X24358905Y-10767754D01*
X24358926Y-10767748D01*
X24443605Y-10733382D01*
X24452559Y-10733446D01*
G37*
%TD.AperFunction*%
%TD*%
%TA.AperFunction,Conductor*%
%TO.N,/DTR*%
G36*
X12151073Y-17997748D02*
G01*
X12151082Y-17997751D01*
X12151087Y-17997753D01*
X12220890Y-18021612D01*
X12220898Y-18021614D01*
X12220904Y-18021616D01*
X12220914Y-18021618D01*
X12283450Y-18034219D01*
X12283453Y-18034219D01*
X12283466Y-18034222D01*
X12357063Y-18039153D01*
X12448397Y-18039904D01*
X12456641Y-18043399D01*
X12460000Y-18051604D01*
X12460000Y-18328395D01*
X12456573Y-18336668D01*
X12448396Y-18340095D01*
X12359054Y-18340829D01*
X12357063Y-18340846D01*
X12357056Y-18340846D01*
X12292665Y-18345160D01*
X12283466Y-18345777D01*
X12223115Y-18357936D01*
X12220899Y-18358383D01*
X12220890Y-18358385D01*
X12151087Y-18382244D01*
X12151059Y-18382255D01*
X12066395Y-18416617D01*
X12057440Y-18416553D01*
X12051202Y-18410293D01*
X12029476Y-18358385D01*
X11960889Y-18194515D01*
X11960857Y-18185563D01*
X12051203Y-17969704D01*
X12057558Y-17963397D01*
X12066394Y-17963382D01*
X12151073Y-17997748D01*
G37*
%TD.AperFunction*%
%TD*%
%TA.AperFunction,Conductor*%
%TO.N,/DTR*%
G36*
X21479737Y-13858717D02*
G01*
X21696175Y-13947435D01*
X21702531Y-13953744D01*
X21702564Y-13953824D01*
X21791281Y-14170261D01*
X21791248Y-14179215D01*
X21785010Y-14185475D01*
X21700823Y-14221054D01*
X21634578Y-14253551D01*
X21634571Y-14253555D01*
X21581429Y-14288873D01*
X21581422Y-14288878D01*
X21525904Y-14337423D01*
X21525902Y-14337424D01*
X21460785Y-14401481D01*
X21452484Y-14404840D01*
X21444307Y-14401413D01*
X21248586Y-14205692D01*
X21245159Y-14197419D01*
X21248517Y-14189215D01*
X21312568Y-14124101D01*
X21361122Y-14068573D01*
X21396447Y-14015421D01*
X21428947Y-13949167D01*
X21464524Y-13864988D01*
X21470901Y-13858703D01*
X21479737Y-13858717D01*
G37*
%TD.AperFunction*%
%TD*%
%TA.AperFunction,Conductor*%
%TO.N,/U0RXD*%
G36*
X51161649Y-15647649D02*
G01*
X51377489Y-15736121D01*
X51383845Y-15742430D01*
X51383878Y-15742510D01*
X51472410Y-15958496D01*
X51472377Y-15967450D01*
X51466021Y-15973759D01*
X51465690Y-15973889D01*
X51377981Y-16006762D01*
X51377549Y-16006914D01*
X51304675Y-16031019D01*
X51243892Y-16056351D01*
X51198240Y-16086172D01*
X51181744Y-16096948D01*
X51181743Y-16096949D01*
X51181740Y-16096951D01*
X51112719Y-16159478D01*
X51104287Y-16162493D01*
X51096591Y-16159080D01*
X50970818Y-16033307D01*
X50967391Y-16025034D01*
X50970318Y-16017293D01*
X51032524Y-15946815D01*
X51070555Y-15882498D01*
X51092576Y-15819287D01*
X51113922Y-15744254D01*
X51114151Y-15743541D01*
X51146205Y-15654510D01*
X51152230Y-15647888D01*
X51161175Y-15647467D01*
X51161649Y-15647649D01*
G37*
%TD.AperFunction*%
%TD*%
%TA.AperFunction,Conductor*%
%TO.N,/U0RXD*%
G36*
X37846295Y-20733948D02*
G01*
X37846635Y-20734097D01*
X37932448Y-20773756D01*
X37932977Y-20774019D01*
X38001607Y-20810262D01*
X38001609Y-20810263D01*
X38062415Y-20837319D01*
X38079282Y-20841227D01*
X38135195Y-20854186D01*
X38228950Y-20859387D01*
X38237019Y-20863266D01*
X38240000Y-20871068D01*
X38240000Y-21048931D01*
X38236573Y-21057204D01*
X38228948Y-21060613D01*
X38135194Y-21065813D01*
X38062415Y-21082679D01*
X38001609Y-21109735D01*
X38001604Y-21109738D01*
X37932990Y-21145972D01*
X37932435Y-21146247D01*
X37846687Y-21185878D01*
X37837739Y-21186238D01*
X37831157Y-21180166D01*
X37830985Y-21179774D01*
X37801671Y-21109737D01*
X37740889Y-20964515D01*
X37740857Y-20955563D01*
X37830986Y-20740222D01*
X37837341Y-20733915D01*
X37846295Y-20733948D01*
G37*
%TD.AperFunction*%
%TD*%
%TA.AperFunction,Conductor*%
%TO.N,/U0TXD*%
G36*
X38536295Y-20231789D02*
G01*
X38536635Y-20231938D01*
X38622448Y-20271597D01*
X38622977Y-20271860D01*
X38691607Y-20308103D01*
X38691609Y-20308104D01*
X38752415Y-20335160D01*
X38769282Y-20339068D01*
X38825195Y-20352027D01*
X38918950Y-20357228D01*
X38927019Y-20361107D01*
X38930000Y-20368909D01*
X38930000Y-20546772D01*
X38926573Y-20555045D01*
X38918948Y-20558454D01*
X38825194Y-20563654D01*
X38752415Y-20580520D01*
X38691609Y-20607576D01*
X38691604Y-20607579D01*
X38622990Y-20643813D01*
X38622435Y-20644088D01*
X38536687Y-20683719D01*
X38527739Y-20684079D01*
X38521157Y-20678007D01*
X38520985Y-20677615D01*
X38491671Y-20607578D01*
X38430889Y-20462356D01*
X38430857Y-20453404D01*
X38520986Y-20238063D01*
X38527341Y-20231756D01*
X38536295Y-20231789D01*
G37*
%TD.AperFunction*%
%TD*%
%TA.AperFunction,Conductor*%
%TO.N,/U0TXD*%
G36*
X51161546Y-14934052D02*
G01*
X51377491Y-15022568D01*
X51383845Y-15028876D01*
X51383878Y-15028956D01*
X51472392Y-15244897D01*
X51472359Y-15253851D01*
X51466003Y-15260160D01*
X51465629Y-15260306D01*
X51377306Y-15293011D01*
X51376798Y-15293185D01*
X51303080Y-15316521D01*
X51288531Y-15322276D01*
X51241435Y-15340906D01*
X51178485Y-15380819D01*
X51178482Y-15380821D01*
X51108851Y-15443405D01*
X51100407Y-15446386D01*
X51092757Y-15442976D01*
X50966987Y-15317206D01*
X50963560Y-15308933D01*
X50966520Y-15301155D01*
X51028991Y-15231003D01*
X51067992Y-15167283D01*
X51091204Y-15104767D01*
X51113554Y-15030292D01*
X51113751Y-15029697D01*
X51146172Y-14940887D01*
X51152229Y-14934291D01*
X51161175Y-14933909D01*
X51161546Y-14934052D01*
G37*
%TD.AperFunction*%
%TD*%
%TA.AperFunction,Conductor*%
%TO.N,/RTS*%
G36*
X12756295Y-18533948D02*
G01*
X12756635Y-18534097D01*
X12842448Y-18573756D01*
X12842977Y-18574019D01*
X12911607Y-18610262D01*
X12911609Y-18610263D01*
X12972415Y-18637319D01*
X12989282Y-18641227D01*
X13045195Y-18654186D01*
X13138950Y-18659387D01*
X13147019Y-18663266D01*
X13150000Y-18671068D01*
X13150000Y-18848931D01*
X13146573Y-18857204D01*
X13138948Y-18860613D01*
X13045194Y-18865813D01*
X12972415Y-18882679D01*
X12911609Y-18909735D01*
X12911604Y-18909738D01*
X12842990Y-18945972D01*
X12842435Y-18946247D01*
X12756687Y-18985878D01*
X12747739Y-18986238D01*
X12741157Y-18980166D01*
X12740985Y-18979774D01*
X12711671Y-18909737D01*
X12650889Y-18764515D01*
X12650857Y-18755563D01*
X12740986Y-18540222D01*
X12747341Y-18533915D01*
X12756295Y-18533948D01*
G37*
%TD.AperFunction*%
%TD*%
%TA.AperFunction,Conductor*%
%TO.N,/RTS*%
G36*
X22510241Y-17238924D02*
G01*
X22726175Y-17327435D01*
X22732531Y-17333744D01*
X22732564Y-17333824D01*
X22821068Y-17549741D01*
X22821035Y-17558695D01*
X22814679Y-17565004D01*
X22814281Y-17565159D01*
X22725622Y-17597769D01*
X22725035Y-17597967D01*
X22650899Y-17620862D01*
X22588766Y-17644728D01*
X22588763Y-17644730D01*
X22525377Y-17684265D01*
X22455404Y-17746882D01*
X22446954Y-17749845D01*
X22439329Y-17746436D01*
X22313562Y-17620669D01*
X22310135Y-17612396D01*
X22313114Y-17604597D01*
X22375732Y-17534623D01*
X22415268Y-17471234D01*
X22439135Y-17409104D01*
X22462035Y-17334946D01*
X22462228Y-17334375D01*
X22462431Y-17333824D01*
X22494840Y-17245716D01*
X22500913Y-17239136D01*
X22509860Y-17238776D01*
X22510241Y-17238924D01*
G37*
%TD.AperFunction*%
%TD*%
%TA.AperFunction,Conductor*%
%TO.N,/SPIQ*%
G36*
X45588842Y-18637543D02*
G01*
X45589014Y-18637934D01*
X45679109Y-18853193D01*
X45679142Y-18862147D01*
X45679109Y-18862227D01*
X45589014Y-19077485D01*
X45582658Y-19083794D01*
X45573704Y-19083761D01*
X45573340Y-19083601D01*
X45487565Y-19043959D01*
X45487014Y-19043686D01*
X45418394Y-19007448D01*
X45418389Y-19007445D01*
X45357582Y-18980389D01*
X45284804Y-18963523D01*
X45191052Y-18958323D01*
X45182981Y-18954443D01*
X45180000Y-18946641D01*
X45180000Y-18768778D01*
X45183427Y-18760505D01*
X45191049Y-18757097D01*
X45284804Y-18751896D01*
X45357582Y-18735029D01*
X45418392Y-18707972D01*
X45487034Y-18671721D01*
X45487549Y-18671467D01*
X45573315Y-18631829D01*
X45582260Y-18631470D01*
X45588842Y-18637543D01*
G37*
%TD.AperFunction*%
%TD*%
%TA.AperFunction,Conductor*%
%TO.N,/SPIQ*%
G36*
X38598695Y-14678964D02*
G01*
X38605004Y-14685320D01*
X38605159Y-14685718D01*
X38637769Y-14774375D01*
X38637967Y-14774962D01*
X38660862Y-14849099D01*
X38684728Y-14911231D01*
X38684730Y-14911234D01*
X38724266Y-14974623D01*
X38786883Y-15044595D01*
X38789846Y-15053044D01*
X38786437Y-15060669D01*
X38660669Y-15186437D01*
X38652396Y-15189864D01*
X38644595Y-15186883D01*
X38574623Y-15124266D01*
X38511234Y-15084730D01*
X38511231Y-15084728D01*
X38449099Y-15060862D01*
X38374962Y-15037967D01*
X38374375Y-15037769D01*
X38285718Y-15005159D01*
X38279136Y-14999087D01*
X38278776Y-14990139D01*
X38278916Y-14989777D01*
X38367436Y-14773822D01*
X38373743Y-14767468D01*
X38589742Y-14678931D01*
X38598695Y-14678964D01*
G37*
%TD.AperFunction*%
%TD*%
%TA.AperFunction,Conductor*%
%TO.N,/SPID*%
G36*
X41138695Y-10378964D02*
G01*
X41145004Y-10385320D01*
X41145159Y-10385718D01*
X41177769Y-10474375D01*
X41177967Y-10474962D01*
X41200862Y-10549099D01*
X41224728Y-10611231D01*
X41224730Y-10611234D01*
X41264266Y-10674623D01*
X41326883Y-10744595D01*
X41329846Y-10753044D01*
X41326437Y-10760669D01*
X41200669Y-10886437D01*
X41192396Y-10889864D01*
X41184595Y-10886883D01*
X41114623Y-10824266D01*
X41051234Y-10784730D01*
X41051231Y-10784728D01*
X40989099Y-10760862D01*
X40914962Y-10737967D01*
X40914375Y-10737769D01*
X40825718Y-10705159D01*
X40819136Y-10699087D01*
X40818776Y-10690139D01*
X40818916Y-10689777D01*
X40907436Y-10473822D01*
X40913743Y-10467468D01*
X41129742Y-10378931D01*
X41138695Y-10378964D01*
G37*
%TD.AperFunction*%
%TD*%
%TA.AperFunction,Conductor*%
%TO.N,/SPID*%
G36*
X46825350Y-16243062D02*
G01*
X46895323Y-16305679D01*
X46924263Y-16323729D01*
X46958705Y-16345212D01*
X46958708Y-16345213D01*
X46958711Y-16345215D01*
X47020842Y-16369082D01*
X47020848Y-16369083D01*
X47020851Y-16369085D01*
X47094982Y-16391977D01*
X47095565Y-16392173D01*
X47184228Y-16424787D01*
X47190810Y-16430860D01*
X47191170Y-16439807D01*
X47191015Y-16440205D01*
X47102511Y-16656122D01*
X47096202Y-16662478D01*
X47096122Y-16662511D01*
X46880205Y-16751015D01*
X46871251Y-16750982D01*
X46864942Y-16744626D01*
X46864787Y-16744228D01*
X46834045Y-16660654D01*
X46832173Y-16655565D01*
X46831977Y-16654982D01*
X46809085Y-16580851D01*
X46809082Y-16580842D01*
X46785215Y-16518711D01*
X46785213Y-16518708D01*
X46785212Y-16518705D01*
X46763729Y-16484263D01*
X46745679Y-16455323D01*
X46683062Y-16385350D01*
X46680100Y-16376902D01*
X46683508Y-16369278D01*
X46809278Y-16243508D01*
X46817550Y-16240082D01*
X46825350Y-16243062D01*
G37*
%TD.AperFunction*%
%TD*%
%TA.AperFunction,Conductor*%
%TO.N,/SPICLK*%
G36*
X45872151Y-16559863D02*
G01*
X45942124Y-16622480D01*
X45971064Y-16640530D01*
X46005506Y-16662013D01*
X46005509Y-16662014D01*
X46005512Y-16662016D01*
X46067643Y-16685883D01*
X46067649Y-16685884D01*
X46067652Y-16685886D01*
X46141783Y-16708778D01*
X46142366Y-16708974D01*
X46231029Y-16741588D01*
X46237611Y-16747661D01*
X46237971Y-16756608D01*
X46237816Y-16757006D01*
X46149312Y-16972923D01*
X46143003Y-16979279D01*
X46142923Y-16979312D01*
X45927006Y-17067816D01*
X45918052Y-17067783D01*
X45911743Y-17061427D01*
X45911588Y-17061029D01*
X45880846Y-16977455D01*
X45878974Y-16972366D01*
X45878778Y-16971783D01*
X45855886Y-16897652D01*
X45855883Y-16897643D01*
X45832016Y-16835512D01*
X45832014Y-16835509D01*
X45832013Y-16835506D01*
X45810530Y-16801064D01*
X45792480Y-16772124D01*
X45729863Y-16702151D01*
X45726901Y-16693703D01*
X45730309Y-16686079D01*
X45856079Y-16560309D01*
X45864351Y-16556883D01*
X45872151Y-16559863D01*
G37*
%TD.AperFunction*%
%TD*%
%TA.AperFunction,Conductor*%
%TO.N,/SPICLK*%
G36*
X39868695Y-10378964D02*
G01*
X39875004Y-10385320D01*
X39875159Y-10385718D01*
X39907769Y-10474375D01*
X39907967Y-10474962D01*
X39930862Y-10549099D01*
X39954728Y-10611231D01*
X39954730Y-10611234D01*
X39994266Y-10674623D01*
X40056883Y-10744595D01*
X40059846Y-10753044D01*
X40056437Y-10760669D01*
X39930669Y-10886437D01*
X39922396Y-10889864D01*
X39914595Y-10886883D01*
X39844623Y-10824266D01*
X39781234Y-10784730D01*
X39781231Y-10784728D01*
X39719099Y-10760862D01*
X39644962Y-10737967D01*
X39644375Y-10737769D01*
X39555718Y-10705159D01*
X39549136Y-10699087D01*
X39548776Y-10690139D01*
X39548916Y-10689777D01*
X39637436Y-10473822D01*
X39643743Y-10467468D01*
X39859742Y-10378931D01*
X39868695Y-10378964D01*
G37*
%TD.AperFunction*%
%TD*%
%TA.AperFunction,Conductor*%
%TO.N,/SPICS0*%
G36*
X37328695Y-14678964D02*
G01*
X37335004Y-14685320D01*
X37335159Y-14685718D01*
X37367769Y-14774375D01*
X37367967Y-14774962D01*
X37390862Y-14849099D01*
X37414728Y-14911231D01*
X37414730Y-14911234D01*
X37454266Y-14974623D01*
X37516883Y-15044595D01*
X37519846Y-15053044D01*
X37516437Y-15060669D01*
X37390669Y-15186437D01*
X37382396Y-15189864D01*
X37374595Y-15186883D01*
X37304623Y-15124266D01*
X37241234Y-15084730D01*
X37241231Y-15084728D01*
X37179099Y-15060862D01*
X37104962Y-15037967D01*
X37104375Y-15037769D01*
X37015718Y-15005159D01*
X37009136Y-14999087D01*
X37008776Y-14990139D01*
X37008916Y-14989777D01*
X37097436Y-14773822D01*
X37103743Y-14767468D01*
X37319742Y-14678931D01*
X37328695Y-14678964D01*
G37*
%TD.AperFunction*%
%TD*%
%TA.AperFunction,Conductor*%
%TO.N,/SPICS0*%
G36*
X42063244Y-19590956D02*
G01*
X42133217Y-19653573D01*
X42162157Y-19671623D01*
X42196599Y-19693106D01*
X42196602Y-19693107D01*
X42196605Y-19693109D01*
X42258736Y-19716976D01*
X42258742Y-19716977D01*
X42258745Y-19716979D01*
X42332876Y-19739871D01*
X42333459Y-19740067D01*
X42422122Y-19772681D01*
X42428704Y-19778754D01*
X42429064Y-19787701D01*
X42428909Y-19788099D01*
X42340405Y-20004016D01*
X42334096Y-20010372D01*
X42334016Y-20010405D01*
X42118099Y-20098909D01*
X42109145Y-20098876D01*
X42102836Y-20092520D01*
X42102681Y-20092122D01*
X42071939Y-20008548D01*
X42070067Y-20003459D01*
X42069871Y-20002876D01*
X42046979Y-19928745D01*
X42046976Y-19928736D01*
X42023109Y-19866605D01*
X42023107Y-19866602D01*
X42023106Y-19866599D01*
X42001623Y-19832157D01*
X41983573Y-19803217D01*
X41920956Y-19733244D01*
X41917994Y-19724796D01*
X41921402Y-19717172D01*
X42047172Y-19591402D01*
X42055444Y-19587976D01*
X42063244Y-19590956D01*
G37*
%TD.AperFunction*%
%TD*%
%TA.AperFunction,Conductor*%
%TO.N,/USB_Data-*%
G36*
X2727204Y-12453427D02*
G01*
X2730613Y-12461052D01*
X2735813Y-12554804D01*
X2752679Y-12627582D01*
X2779735Y-12688389D01*
X2779738Y-12688394D01*
X2815976Y-12757014D01*
X2816249Y-12757565D01*
X2855879Y-12843313D01*
X2856239Y-12852260D01*
X2850167Y-12858842D01*
X2849775Y-12859014D01*
X2634517Y-12949109D01*
X2625563Y-12949142D01*
X2625483Y-12949109D01*
X2410224Y-12859014D01*
X2403915Y-12852658D01*
X2403948Y-12843704D01*
X2404098Y-12843362D01*
X2443757Y-12757549D01*
X2444011Y-12757034D01*
X2480262Y-12688392D01*
X2507319Y-12627582D01*
X2524186Y-12554804D01*
X2529387Y-12461052D01*
X2533267Y-12452981D01*
X2541069Y-12450000D01*
X2718931Y-12450000D01*
X2727204Y-12453427D01*
G37*
%TD.AperFunction*%
%TD*%
%TA.AperFunction,Conductor*%
%TO.N,/USB_Data-*%
G36*
X2844751Y-12038883D02*
G01*
X2849774Y-12040985D01*
X2856083Y-12047341D01*
X2856050Y-12056295D01*
X2855878Y-12056687D01*
X2816247Y-12142435D01*
X2815972Y-12142990D01*
X2779738Y-12211604D01*
X2779735Y-12211609D01*
X2752679Y-12272415D01*
X2735813Y-12345194D01*
X2730613Y-12438948D01*
X2726733Y-12447019D01*
X2718931Y-12450000D01*
X2541069Y-12450000D01*
X2532796Y-12446573D01*
X2529387Y-12438948D01*
X2528872Y-12429677D01*
X2524186Y-12345195D01*
X2507319Y-12272416D01*
X2480262Y-12211607D01*
X2444019Y-12142977D01*
X2443756Y-12142448D01*
X2404119Y-12056684D01*
X2403760Y-12047739D01*
X2409832Y-12041157D01*
X2410183Y-12041002D01*
X2625484Y-11950889D01*
X2634437Y-11950857D01*
X2844751Y-12038883D01*
G37*
%TD.AperFunction*%
%TD*%
M02*
