%TF.GenerationSoftware,KiCad,Pcbnew,(6.0.9)*%
%TF.CreationDate,2022-12-08T03:02:34+08:00*%
%TF.ProjectId,UINIO-MCU-ESP32C3,55494e49-4f2d-44d4-9355-2d4553503332,Version 1.0.0*%
%TF.SameCoordinates,Original*%
%TF.FileFunction,Legend,Bot*%
%TF.FilePolarity,Positive*%
%FSLAX46Y46*%
G04 Gerber Fmt 4.6, Leading zero omitted, Abs format (unit mm)*
G04 Created by KiCad (PCBNEW (6.0.9)) date 2022-12-08 03:02:34*
%MOMM*%
%LPD*%
G01*
G04 APERTURE LIST*
G04 Aperture macros list*
%AMRoundRect*
0 Rectangle with rounded corners*
0 $1 Rounding radius*
0 $2 $3 $4 $5 $6 $7 $8 $9 X,Y pos of 4 corners*
0 Add a 4 corners polygon primitive as box body*
4,1,4,$2,$3,$4,$5,$6,$7,$8,$9,$2,$3,0*
0 Add four circle primitives for the rounded corners*
1,1,$1+$1,$2,$3*
1,1,$1+$1,$4,$5*
1,1,$1+$1,$6,$7*
1,1,$1+$1,$8,$9*
0 Add four rect primitives between the rounded corners*
20,1,$1+$1,$2,$3,$4,$5,0*
20,1,$1+$1,$4,$5,$6,$7,0*
20,1,$1+$1,$6,$7,$8,$9,0*
20,1,$1+$1,$8,$9,$2,$3,0*%
G04 Aperture macros list end*
%ADD10C,0.100000*%
%ADD11C,0.150000*%
%ADD12C,0.300000*%
%ADD13C,0.152000*%
%ADD14C,0.120000*%
%ADD15C,1.200000*%
%ADD16C,0.610000*%
%ADD17R,1.700000X1.700000*%
%ADD18O,1.700000X1.700000*%
%ADD19C,0.650000*%
%ADD20O,2.100000X1.000000*%
%ADD21O,1.900000X1.000000*%
%ADD22O,0.630000X2.250000*%
%ADD23RoundRect,0.140000X0.170000X-0.140000X0.170000X0.140000X-0.170000X0.140000X-0.170000X-0.140000X0*%
G04 APERTURE END LIST*
D10*
X143093690Y-108759761D02*
X142593690Y-108759761D01*
X142593690Y-109093095D02*
X142593690Y-109188333D01*
X142617500Y-109235952D01*
X142665119Y-109283571D01*
X142760357Y-109307380D01*
X142927023Y-109307380D01*
X143022261Y-109283571D01*
X143069880Y-109235952D01*
X143093690Y-109188333D01*
X143093690Y-109093095D01*
X143069880Y-109045476D01*
X143022261Y-108997857D01*
X142927023Y-108974047D01*
X142760357Y-108974047D01*
X142665119Y-108997857D01*
X142617500Y-109045476D01*
X142593690Y-109093095D01*
X143093690Y-109783571D02*
X143093690Y-109497857D01*
X143093690Y-109640714D02*
X142593690Y-109640714D01*
X142665119Y-109593095D01*
X142712738Y-109545476D01*
X142736547Y-109497857D01*
X143093690Y-110259761D02*
X143093690Y-109974047D01*
X143093690Y-110116904D02*
X142593690Y-110116904D01*
X142665119Y-110069285D01*
X142712738Y-110021666D01*
X142736547Y-109974047D01*
X143398690Y-107378809D02*
X143898690Y-107545476D01*
X143398690Y-107712142D01*
X143898690Y-107878809D02*
X143398690Y-107878809D01*
X143398690Y-107997857D01*
X143422500Y-108069285D01*
X143470119Y-108116904D01*
X143517738Y-108140714D01*
X143612976Y-108164523D01*
X143684404Y-108164523D01*
X143779642Y-108140714D01*
X143827261Y-108116904D01*
X143874880Y-108069285D01*
X143898690Y-107997857D01*
X143898690Y-107878809D01*
X143898690Y-108378809D02*
X143398690Y-108378809D01*
X143398690Y-108497857D01*
X143422500Y-108569285D01*
X143470119Y-108616904D01*
X143517738Y-108640714D01*
X143612976Y-108664523D01*
X143684404Y-108664523D01*
X143779642Y-108640714D01*
X143827261Y-108616904D01*
X143874880Y-108569285D01*
X143898690Y-108497857D01*
X143898690Y-108378809D01*
X143946309Y-108759761D02*
X143946309Y-109140714D01*
X143874880Y-109235952D02*
X143898690Y-109307380D01*
X143898690Y-109426428D01*
X143874880Y-109474047D01*
X143851071Y-109497857D01*
X143803452Y-109521666D01*
X143755833Y-109521666D01*
X143708214Y-109497857D01*
X143684404Y-109474047D01*
X143660595Y-109426428D01*
X143636785Y-109331190D01*
X143612976Y-109283571D01*
X143589166Y-109259761D01*
X143541547Y-109235952D01*
X143493928Y-109235952D01*
X143446309Y-109259761D01*
X143422500Y-109283571D01*
X143398690Y-109331190D01*
X143398690Y-109450238D01*
X143422500Y-109521666D01*
X143898690Y-109735952D02*
X143398690Y-109735952D01*
X143398690Y-109926428D01*
X143422500Y-109974047D01*
X143446309Y-109997857D01*
X143493928Y-110021666D01*
X143565357Y-110021666D01*
X143612976Y-109997857D01*
X143636785Y-109974047D01*
X143660595Y-109926428D01*
X143660595Y-109735952D01*
X143898690Y-110235952D02*
X143398690Y-110235952D01*
X163788571Y-95939761D02*
X163812380Y-95915952D01*
X163836190Y-95844523D01*
X163836190Y-95796904D01*
X163812380Y-95725476D01*
X163764761Y-95677857D01*
X163717142Y-95654047D01*
X163621904Y-95630238D01*
X163550476Y-95630238D01*
X163455238Y-95654047D01*
X163407619Y-95677857D01*
X163360000Y-95725476D01*
X163336190Y-95796904D01*
X163336190Y-95844523D01*
X163360000Y-95915952D01*
X163383809Y-95939761D01*
X163836190Y-96154047D02*
X163336190Y-96154047D01*
X163574285Y-96154047D02*
X163574285Y-96439761D01*
X163836190Y-96439761D02*
X163336190Y-96439761D01*
X163836190Y-96677857D02*
X163336190Y-96677857D01*
X163836190Y-96915952D02*
X163336190Y-96915952D01*
X163336190Y-97106428D01*
X163360000Y-97154047D01*
X163383809Y-97177857D01*
X163431428Y-97201666D01*
X163502857Y-97201666D01*
X163550476Y-97177857D01*
X163574285Y-97154047D01*
X163598095Y-97106428D01*
X163598095Y-96915952D01*
X163883809Y-97296904D02*
X163883809Y-97677857D01*
X163574285Y-97796904D02*
X163574285Y-97963571D01*
X163836190Y-98035000D02*
X163836190Y-97796904D01*
X163336190Y-97796904D01*
X163336190Y-98035000D01*
X163836190Y-98249285D02*
X163336190Y-98249285D01*
X163836190Y-98535000D01*
X163336190Y-98535000D01*
D11*
X122556666Y-99506666D02*
X123256666Y-99740000D01*
X122556666Y-99973333D01*
X123223333Y-100473333D02*
X123256666Y-100406666D01*
X123256666Y-100273333D01*
X123223333Y-100206666D01*
X123156666Y-100173333D01*
X122890000Y-100173333D01*
X122823333Y-100206666D01*
X122790000Y-100273333D01*
X122790000Y-100406666D01*
X122823333Y-100473333D01*
X122890000Y-100506666D01*
X122956666Y-100506666D01*
X123023333Y-100173333D01*
X123256666Y-100806666D02*
X122790000Y-100806666D01*
X122923333Y-100806666D02*
X122856666Y-100840000D01*
X122823333Y-100873333D01*
X122790000Y-100940000D01*
X122790000Y-101006666D01*
X123223333Y-101206666D02*
X123256666Y-101273333D01*
X123256666Y-101406666D01*
X123223333Y-101473333D01*
X123156666Y-101506666D01*
X123123333Y-101506666D01*
X123056666Y-101473333D01*
X123023333Y-101406666D01*
X123023333Y-101306666D01*
X122990000Y-101240000D01*
X122923333Y-101206666D01*
X122890000Y-101206666D01*
X122823333Y-101240000D01*
X122790000Y-101306666D01*
X122790000Y-101406666D01*
X122823333Y-101473333D01*
X123256666Y-101806666D02*
X122790000Y-101806666D01*
X122556666Y-101806666D02*
X122590000Y-101773333D01*
X122623333Y-101806666D01*
X122590000Y-101840000D01*
X122556666Y-101806666D01*
X122623333Y-101806666D01*
X123256666Y-102240000D02*
X123223333Y-102173333D01*
X123190000Y-102140000D01*
X123123333Y-102106666D01*
X122923333Y-102106666D01*
X122856666Y-102140000D01*
X122823333Y-102173333D01*
X122790000Y-102240000D01*
X122790000Y-102340000D01*
X122823333Y-102406666D01*
X122856666Y-102440000D01*
X122923333Y-102473333D01*
X123123333Y-102473333D01*
X123190000Y-102440000D01*
X123223333Y-102406666D01*
X123256666Y-102340000D01*
X123256666Y-102240000D01*
X122790000Y-102773333D02*
X123256666Y-102773333D01*
X122856666Y-102773333D02*
X122823333Y-102806666D01*
X122790000Y-102873333D01*
X122790000Y-102973333D01*
X122823333Y-103040000D01*
X122890000Y-103073333D01*
X123256666Y-103073333D01*
X123256666Y-104306666D02*
X123256666Y-103906666D01*
X123256666Y-104106666D02*
X122556666Y-104106666D01*
X122656666Y-104040000D01*
X122723333Y-103973333D01*
X122756666Y-103906666D01*
X123190000Y-104606666D02*
X123223333Y-104640000D01*
X123256666Y-104606666D01*
X123223333Y-104573333D01*
X123190000Y-104606666D01*
X123256666Y-104606666D01*
X122556666Y-105073333D02*
X122556666Y-105140000D01*
X122590000Y-105206666D01*
X122623333Y-105240000D01*
X122690000Y-105273333D01*
X122823333Y-105306666D01*
X122990000Y-105306666D01*
X123123333Y-105273333D01*
X123190000Y-105240000D01*
X123223333Y-105206666D01*
X123256666Y-105140000D01*
X123256666Y-105073333D01*
X123223333Y-105006666D01*
X123190000Y-104973333D01*
X123123333Y-104940000D01*
X122990000Y-104906666D01*
X122823333Y-104906666D01*
X122690000Y-104940000D01*
X122623333Y-104973333D01*
X122590000Y-105006666D01*
X122556666Y-105073333D01*
X123190000Y-105606666D02*
X123223333Y-105640000D01*
X123256666Y-105606666D01*
X123223333Y-105573333D01*
X123190000Y-105606666D01*
X123256666Y-105606666D01*
X122556666Y-106073333D02*
X122556666Y-106140000D01*
X122590000Y-106206666D01*
X122623333Y-106240000D01*
X122690000Y-106273333D01*
X122823333Y-106306666D01*
X122990000Y-106306666D01*
X123123333Y-106273333D01*
X123190000Y-106240000D01*
X123223333Y-106206666D01*
X123256666Y-106140000D01*
X123256666Y-106073333D01*
X123223333Y-106006666D01*
X123190000Y-105973333D01*
X123123333Y-105940000D01*
X122990000Y-105906666D01*
X122823333Y-105906666D01*
X122690000Y-105940000D01*
X122623333Y-105973333D01*
X122590000Y-106006666D01*
X122556666Y-106073333D01*
D10*
X171023690Y-95684047D02*
X170523690Y-95684047D01*
X170523690Y-96017380D02*
X170523690Y-96112619D01*
X170547500Y-96160238D01*
X170595119Y-96207857D01*
X170690357Y-96231666D01*
X170857023Y-96231666D01*
X170952261Y-96207857D01*
X170999880Y-96160238D01*
X171023690Y-96112619D01*
X171023690Y-96017380D01*
X170999880Y-95969761D01*
X170952261Y-95922142D01*
X170857023Y-95898333D01*
X170690357Y-95898333D01*
X170595119Y-95922142D01*
X170547500Y-95969761D01*
X170523690Y-96017380D01*
X170523690Y-96541190D02*
X170523690Y-96588809D01*
X170547500Y-96636428D01*
X170571309Y-96660238D01*
X170618928Y-96684047D01*
X170714166Y-96707857D01*
X170833214Y-96707857D01*
X170928452Y-96684047D01*
X170976071Y-96660238D01*
X170999880Y-96636428D01*
X171023690Y-96588809D01*
X171023690Y-96541190D01*
X170999880Y-96493571D01*
X170976071Y-96469761D01*
X170928452Y-96445952D01*
X170833214Y-96422142D01*
X170714166Y-96422142D01*
X170618928Y-96445952D01*
X170571309Y-96469761D01*
X170547500Y-96493571D01*
X170523690Y-96541190D01*
X171328690Y-95612619D02*
X171328690Y-95898333D01*
X171828690Y-95755476D02*
X171328690Y-95755476D01*
X171328690Y-96017380D02*
X171828690Y-96350714D01*
X171328690Y-96350714D02*
X171828690Y-96017380D01*
X171828690Y-96541190D02*
X171328690Y-96541190D01*
X171328690Y-96660238D01*
X171352500Y-96731666D01*
X171400119Y-96779285D01*
X171447738Y-96803095D01*
X171542976Y-96826904D01*
X171614404Y-96826904D01*
X171709642Y-96803095D01*
X171757261Y-96779285D01*
X171804880Y-96731666D01*
X171828690Y-96660238D01*
X171828690Y-96541190D01*
X171828690Y-97303095D02*
X171828690Y-97017380D01*
X171828690Y-97160238D02*
X171328690Y-97160238D01*
X171400119Y-97112619D01*
X171447738Y-97065000D01*
X171471547Y-97017380D01*
X160873690Y-108769761D02*
X160373690Y-108769761D01*
X160373690Y-109103095D02*
X160373690Y-109198333D01*
X160397500Y-109245952D01*
X160445119Y-109293571D01*
X160540357Y-109317380D01*
X160707023Y-109317380D01*
X160802261Y-109293571D01*
X160849880Y-109245952D01*
X160873690Y-109198333D01*
X160873690Y-109103095D01*
X160849880Y-109055476D01*
X160802261Y-109007857D01*
X160707023Y-108984047D01*
X160540357Y-108984047D01*
X160445119Y-109007857D01*
X160397500Y-109055476D01*
X160373690Y-109103095D01*
X160873690Y-109793571D02*
X160873690Y-109507857D01*
X160873690Y-109650714D02*
X160373690Y-109650714D01*
X160445119Y-109603095D01*
X160492738Y-109555476D01*
X160516547Y-109507857D01*
X160587976Y-110079285D02*
X160564166Y-110031666D01*
X160540357Y-110007857D01*
X160492738Y-109984047D01*
X160468928Y-109984047D01*
X160421309Y-110007857D01*
X160397500Y-110031666D01*
X160373690Y-110079285D01*
X160373690Y-110174523D01*
X160397500Y-110222142D01*
X160421309Y-110245952D01*
X160468928Y-110269761D01*
X160492738Y-110269761D01*
X160540357Y-110245952D01*
X160564166Y-110222142D01*
X160587976Y-110174523D01*
X160587976Y-110079285D01*
X160611785Y-110031666D01*
X160635595Y-110007857D01*
X160683214Y-109984047D01*
X160778452Y-109984047D01*
X160826071Y-110007857D01*
X160849880Y-110031666D01*
X160873690Y-110079285D01*
X160873690Y-110174523D01*
X160849880Y-110222142D01*
X160826071Y-110245952D01*
X160778452Y-110269761D01*
X160683214Y-110269761D01*
X160635595Y-110245952D01*
X160611785Y-110222142D01*
X160587976Y-110174523D01*
X161178690Y-107484047D02*
X161583452Y-107484047D01*
X161631071Y-107507857D01*
X161654880Y-107531666D01*
X161678690Y-107579285D01*
X161678690Y-107674523D01*
X161654880Y-107722142D01*
X161631071Y-107745952D01*
X161583452Y-107769761D01*
X161178690Y-107769761D01*
X161654880Y-107984047D02*
X161678690Y-108055476D01*
X161678690Y-108174523D01*
X161654880Y-108222142D01*
X161631071Y-108245952D01*
X161583452Y-108269761D01*
X161535833Y-108269761D01*
X161488214Y-108245952D01*
X161464404Y-108222142D01*
X161440595Y-108174523D01*
X161416785Y-108079285D01*
X161392976Y-108031666D01*
X161369166Y-108007857D01*
X161321547Y-107984047D01*
X161273928Y-107984047D01*
X161226309Y-108007857D01*
X161202500Y-108031666D01*
X161178690Y-108079285D01*
X161178690Y-108198333D01*
X161202500Y-108269761D01*
X161416785Y-108650714D02*
X161440595Y-108722142D01*
X161464404Y-108745952D01*
X161512023Y-108769761D01*
X161583452Y-108769761D01*
X161631071Y-108745952D01*
X161654880Y-108722142D01*
X161678690Y-108674523D01*
X161678690Y-108484047D01*
X161178690Y-108484047D01*
X161178690Y-108650714D01*
X161202500Y-108698333D01*
X161226309Y-108722142D01*
X161273928Y-108745952D01*
X161321547Y-108745952D01*
X161369166Y-108722142D01*
X161392976Y-108698333D01*
X161416785Y-108650714D01*
X161416785Y-108484047D01*
X161726309Y-108865000D02*
X161726309Y-109245952D01*
X161678690Y-109365000D02*
X161178690Y-109365000D01*
X161178690Y-109484047D01*
X161202500Y-109555476D01*
X161250119Y-109603095D01*
X161297738Y-109626904D01*
X161392976Y-109650714D01*
X161464404Y-109650714D01*
X161559642Y-109626904D01*
X161607261Y-109603095D01*
X161654880Y-109555476D01*
X161678690Y-109484047D01*
X161678690Y-109365000D01*
X161488214Y-109865000D02*
X161488214Y-110245952D01*
X148183690Y-95644047D02*
X147683690Y-95644047D01*
X147683690Y-95977380D02*
X147683690Y-96072619D01*
X147707500Y-96120238D01*
X147755119Y-96167857D01*
X147850357Y-96191666D01*
X148017023Y-96191666D01*
X148112261Y-96167857D01*
X148159880Y-96120238D01*
X148183690Y-96072619D01*
X148183690Y-95977380D01*
X148159880Y-95929761D01*
X148112261Y-95882142D01*
X148017023Y-95858333D01*
X147850357Y-95858333D01*
X147755119Y-95882142D01*
X147707500Y-95929761D01*
X147683690Y-95977380D01*
X147897976Y-96477380D02*
X147874166Y-96429761D01*
X147850357Y-96405952D01*
X147802738Y-96382142D01*
X147778928Y-96382142D01*
X147731309Y-96405952D01*
X147707500Y-96429761D01*
X147683690Y-96477380D01*
X147683690Y-96572619D01*
X147707500Y-96620238D01*
X147731309Y-96644047D01*
X147778928Y-96667857D01*
X147802738Y-96667857D01*
X147850357Y-96644047D01*
X147874166Y-96620238D01*
X147897976Y-96572619D01*
X147897976Y-96477380D01*
X147921785Y-96429761D01*
X147945595Y-96405952D01*
X147993214Y-96382142D01*
X148088452Y-96382142D01*
X148136071Y-96405952D01*
X148159880Y-96429761D01*
X148183690Y-96477380D01*
X148183690Y-96572619D01*
X148159880Y-96620238D01*
X148136071Y-96644047D01*
X148088452Y-96667857D01*
X147993214Y-96667857D01*
X147945595Y-96644047D01*
X147921785Y-96620238D01*
X147897976Y-96572619D01*
X148988690Y-95644047D02*
X148488690Y-95644047D01*
X148488690Y-95834523D01*
X148512500Y-95882142D01*
X148536309Y-95905952D01*
X148583928Y-95929761D01*
X148655357Y-95929761D01*
X148702976Y-95905952D01*
X148726785Y-95882142D01*
X148750595Y-95834523D01*
X148750595Y-95644047D01*
X148488690Y-96096428D02*
X148988690Y-96215476D01*
X148631547Y-96310714D01*
X148988690Y-96405952D01*
X148488690Y-96525000D01*
X148988690Y-96715476D02*
X148488690Y-96715476D01*
X148845833Y-96882142D01*
X148488690Y-97048809D01*
X148988690Y-97048809D01*
X145633690Y-95564047D02*
X145133690Y-95564047D01*
X145133690Y-95897380D02*
X145133690Y-95992619D01*
X145157500Y-96040238D01*
X145205119Y-96087857D01*
X145300357Y-96111666D01*
X145467023Y-96111666D01*
X145562261Y-96087857D01*
X145609880Y-96040238D01*
X145633690Y-95992619D01*
X145633690Y-95897380D01*
X145609880Y-95849761D01*
X145562261Y-95802142D01*
X145467023Y-95778333D01*
X145300357Y-95778333D01*
X145205119Y-95802142D01*
X145157500Y-95849761D01*
X145133690Y-95897380D01*
X145633690Y-96349761D02*
X145633690Y-96445000D01*
X145609880Y-96492619D01*
X145586071Y-96516428D01*
X145514642Y-96564047D01*
X145419404Y-96587857D01*
X145228928Y-96587857D01*
X145181309Y-96564047D01*
X145157500Y-96540238D01*
X145133690Y-96492619D01*
X145133690Y-96397380D01*
X145157500Y-96349761D01*
X145181309Y-96325952D01*
X145228928Y-96302142D01*
X145347976Y-96302142D01*
X145395595Y-96325952D01*
X145419404Y-96349761D01*
X145443214Y-96397380D01*
X145443214Y-96492619D01*
X145419404Y-96540238D01*
X145395595Y-96564047D01*
X145347976Y-96587857D01*
X146176785Y-95730714D02*
X146200595Y-95802142D01*
X146224404Y-95825952D01*
X146272023Y-95849761D01*
X146343452Y-95849761D01*
X146391071Y-95825952D01*
X146414880Y-95802142D01*
X146438690Y-95754523D01*
X146438690Y-95564047D01*
X145938690Y-95564047D01*
X145938690Y-95730714D01*
X145962500Y-95778333D01*
X145986309Y-95802142D01*
X146033928Y-95825952D01*
X146081547Y-95825952D01*
X146129166Y-95802142D01*
X146152976Y-95778333D01*
X146176785Y-95730714D01*
X146176785Y-95564047D01*
X145938690Y-96159285D02*
X145938690Y-96254523D01*
X145962500Y-96302142D01*
X146010119Y-96349761D01*
X146105357Y-96373571D01*
X146272023Y-96373571D01*
X146367261Y-96349761D01*
X146414880Y-96302142D01*
X146438690Y-96254523D01*
X146438690Y-96159285D01*
X146414880Y-96111666D01*
X146367261Y-96064047D01*
X146272023Y-96040238D01*
X146105357Y-96040238D01*
X146010119Y-96064047D01*
X145962500Y-96111666D01*
X145938690Y-96159285D01*
X145938690Y-96683095D02*
X145938690Y-96778333D01*
X145962500Y-96825952D01*
X146010119Y-96873571D01*
X146105357Y-96897380D01*
X146272023Y-96897380D01*
X146367261Y-96873571D01*
X146414880Y-96825952D01*
X146438690Y-96778333D01*
X146438690Y-96683095D01*
X146414880Y-96635476D01*
X146367261Y-96587857D01*
X146272023Y-96564047D01*
X146105357Y-96564047D01*
X146010119Y-96587857D01*
X145962500Y-96635476D01*
X145938690Y-96683095D01*
X145938690Y-97040238D02*
X145938690Y-97325952D01*
X146438690Y-97183095D02*
X145938690Y-97183095D01*
X155238333Y-95670238D02*
X155238333Y-95908333D01*
X155381190Y-95622619D02*
X154881190Y-95789285D01*
X155381190Y-95955952D01*
X155381190Y-96122619D02*
X154881190Y-96122619D01*
X154881190Y-96241666D01*
X154905000Y-96313095D01*
X154952619Y-96360714D01*
X155000238Y-96384523D01*
X155095476Y-96408333D01*
X155166904Y-96408333D01*
X155262142Y-96384523D01*
X155309761Y-96360714D01*
X155357380Y-96313095D01*
X155381190Y-96241666D01*
X155381190Y-96122619D01*
X155333571Y-96908333D02*
X155357380Y-96884523D01*
X155381190Y-96813095D01*
X155381190Y-96765476D01*
X155357380Y-96694047D01*
X155309761Y-96646428D01*
X155262142Y-96622619D01*
X155166904Y-96598809D01*
X155095476Y-96598809D01*
X155000238Y-96622619D01*
X154952619Y-96646428D01*
X154905000Y-96694047D01*
X154881190Y-96765476D01*
X154881190Y-96813095D01*
X154905000Y-96884523D01*
X154928809Y-96908333D01*
X155381190Y-97384523D02*
X155381190Y-97098809D01*
X155381190Y-97241666D02*
X154881190Y-97241666D01*
X154952619Y-97194047D01*
X155000238Y-97146428D01*
X155024047Y-97098809D01*
X156186190Y-95694047D02*
X155686190Y-95694047D01*
X155686190Y-96027380D02*
X155686190Y-96122619D01*
X155710000Y-96170238D01*
X155757619Y-96217857D01*
X155852857Y-96241666D01*
X156019523Y-96241666D01*
X156114761Y-96217857D01*
X156162380Y-96170238D01*
X156186190Y-96122619D01*
X156186190Y-96027380D01*
X156162380Y-95979761D01*
X156114761Y-95932142D01*
X156019523Y-95908333D01*
X155852857Y-95908333D01*
X155757619Y-95932142D01*
X155710000Y-95979761D01*
X155686190Y-96027380D01*
X155852857Y-96670238D02*
X156186190Y-96670238D01*
X155662380Y-96551190D02*
X156019523Y-96432142D01*
X156019523Y-96741666D01*
X156967380Y-95670238D02*
X156991190Y-95741666D01*
X156991190Y-95860714D01*
X156967380Y-95908333D01*
X156943571Y-95932142D01*
X156895952Y-95955952D01*
X156848333Y-95955952D01*
X156800714Y-95932142D01*
X156776904Y-95908333D01*
X156753095Y-95860714D01*
X156729285Y-95765476D01*
X156705476Y-95717857D01*
X156681666Y-95694047D01*
X156634047Y-95670238D01*
X156586428Y-95670238D01*
X156538809Y-95694047D01*
X156515000Y-95717857D01*
X156491190Y-95765476D01*
X156491190Y-95884523D01*
X156515000Y-95955952D01*
X156991190Y-96170238D02*
X156491190Y-96170238D01*
X156491190Y-96289285D01*
X156515000Y-96360714D01*
X156562619Y-96408333D01*
X156610238Y-96432142D01*
X156705476Y-96455952D01*
X156776904Y-96455952D01*
X156872142Y-96432142D01*
X156919761Y-96408333D01*
X156967380Y-96360714D01*
X156991190Y-96289285D01*
X156991190Y-96170238D01*
X156848333Y-96646428D02*
X156848333Y-96884523D01*
X156991190Y-96598809D02*
X156491190Y-96765476D01*
X156991190Y-96932142D01*
X145623690Y-108749761D02*
X145123690Y-108749761D01*
X145123690Y-109083095D02*
X145123690Y-109178333D01*
X145147500Y-109225952D01*
X145195119Y-109273571D01*
X145290357Y-109297380D01*
X145457023Y-109297380D01*
X145552261Y-109273571D01*
X145599880Y-109225952D01*
X145623690Y-109178333D01*
X145623690Y-109083095D01*
X145599880Y-109035476D01*
X145552261Y-108987857D01*
X145457023Y-108964047D01*
X145290357Y-108964047D01*
X145195119Y-108987857D01*
X145147500Y-109035476D01*
X145123690Y-109083095D01*
X145623690Y-109773571D02*
X145623690Y-109487857D01*
X145623690Y-109630714D02*
X145123690Y-109630714D01*
X145195119Y-109583095D01*
X145242738Y-109535476D01*
X145266547Y-109487857D01*
X145171309Y-109964047D02*
X145147500Y-109987857D01*
X145123690Y-110035476D01*
X145123690Y-110154523D01*
X145147500Y-110202142D01*
X145171309Y-110225952D01*
X145218928Y-110249761D01*
X145266547Y-110249761D01*
X145337976Y-110225952D01*
X145623690Y-109940238D01*
X145623690Y-110249761D01*
X146404880Y-108202142D02*
X146428690Y-108273571D01*
X146428690Y-108392619D01*
X146404880Y-108440238D01*
X146381071Y-108464047D01*
X146333452Y-108487857D01*
X146285833Y-108487857D01*
X146238214Y-108464047D01*
X146214404Y-108440238D01*
X146190595Y-108392619D01*
X146166785Y-108297380D01*
X146142976Y-108249761D01*
X146119166Y-108225952D01*
X146071547Y-108202142D01*
X146023928Y-108202142D01*
X145976309Y-108225952D01*
X145952500Y-108249761D01*
X145928690Y-108297380D01*
X145928690Y-108416428D01*
X145952500Y-108487857D01*
X146428690Y-108702142D02*
X145928690Y-108702142D01*
X145928690Y-108892619D01*
X145952500Y-108940238D01*
X145976309Y-108964047D01*
X146023928Y-108987857D01*
X146095357Y-108987857D01*
X146142976Y-108964047D01*
X146166785Y-108940238D01*
X146190595Y-108892619D01*
X146190595Y-108702142D01*
X146428690Y-109202142D02*
X145928690Y-109202142D01*
X146428690Y-109440238D02*
X145928690Y-109440238D01*
X146166785Y-109440238D02*
X146166785Y-109725952D01*
X146428690Y-109725952D02*
X145928690Y-109725952D01*
X146428690Y-109964047D02*
X145928690Y-109964047D01*
X145928690Y-110083095D01*
X145952500Y-110154523D01*
X146000119Y-110202142D01*
X146047738Y-110225952D01*
X146142976Y-110249761D01*
X146214404Y-110249761D01*
X146309642Y-110225952D01*
X146357261Y-110202142D01*
X146404880Y-110154523D01*
X146428690Y-110083095D01*
X146428690Y-109964047D01*
X148173690Y-108749761D02*
X147673690Y-108749761D01*
X147673690Y-109083095D02*
X147673690Y-109178333D01*
X147697500Y-109225952D01*
X147745119Y-109273571D01*
X147840357Y-109297380D01*
X148007023Y-109297380D01*
X148102261Y-109273571D01*
X148149880Y-109225952D01*
X148173690Y-109178333D01*
X148173690Y-109083095D01*
X148149880Y-109035476D01*
X148102261Y-108987857D01*
X148007023Y-108964047D01*
X147840357Y-108964047D01*
X147745119Y-108987857D01*
X147697500Y-109035476D01*
X147673690Y-109083095D01*
X148173690Y-109773571D02*
X148173690Y-109487857D01*
X148173690Y-109630714D02*
X147673690Y-109630714D01*
X147745119Y-109583095D01*
X147792738Y-109535476D01*
X147816547Y-109487857D01*
X147673690Y-109940238D02*
X147673690Y-110249761D01*
X147864166Y-110083095D01*
X147864166Y-110154523D01*
X147887976Y-110202142D01*
X147911785Y-110225952D01*
X147959404Y-110249761D01*
X148078452Y-110249761D01*
X148126071Y-110225952D01*
X148149880Y-110202142D01*
X148173690Y-110154523D01*
X148173690Y-110011666D01*
X148149880Y-109964047D01*
X148126071Y-109940238D01*
X148954880Y-108154523D02*
X148978690Y-108225952D01*
X148978690Y-108345000D01*
X148954880Y-108392619D01*
X148931071Y-108416428D01*
X148883452Y-108440238D01*
X148835833Y-108440238D01*
X148788214Y-108416428D01*
X148764404Y-108392619D01*
X148740595Y-108345000D01*
X148716785Y-108249761D01*
X148692976Y-108202142D01*
X148669166Y-108178333D01*
X148621547Y-108154523D01*
X148573928Y-108154523D01*
X148526309Y-108178333D01*
X148502500Y-108202142D01*
X148478690Y-108249761D01*
X148478690Y-108368809D01*
X148502500Y-108440238D01*
X148978690Y-108654523D02*
X148478690Y-108654523D01*
X148478690Y-108845000D01*
X148502500Y-108892619D01*
X148526309Y-108916428D01*
X148573928Y-108940238D01*
X148645357Y-108940238D01*
X148692976Y-108916428D01*
X148716785Y-108892619D01*
X148740595Y-108845000D01*
X148740595Y-108654523D01*
X148978690Y-109154523D02*
X148478690Y-109154523D01*
X148478690Y-109345000D02*
X148978690Y-109464047D01*
X148621547Y-109559285D01*
X148978690Y-109654523D01*
X148478690Y-109773571D01*
X148978690Y-109964047D02*
X148478690Y-109964047D01*
X148478690Y-110154523D01*
X148502500Y-110202142D01*
X148526309Y-110225952D01*
X148573928Y-110249761D01*
X148645357Y-110249761D01*
X148692976Y-110225952D01*
X148716785Y-110202142D01*
X148740595Y-110154523D01*
X148740595Y-109964047D01*
X157788333Y-95670238D02*
X157788333Y-95908333D01*
X157931190Y-95622619D02*
X157431190Y-95789285D01*
X157931190Y-95955952D01*
X157931190Y-96122619D02*
X157431190Y-96122619D01*
X157431190Y-96241666D01*
X157455000Y-96313095D01*
X157502619Y-96360714D01*
X157550238Y-96384523D01*
X157645476Y-96408333D01*
X157716904Y-96408333D01*
X157812142Y-96384523D01*
X157859761Y-96360714D01*
X157907380Y-96313095D01*
X157931190Y-96241666D01*
X157931190Y-96122619D01*
X157883571Y-96908333D02*
X157907380Y-96884523D01*
X157931190Y-96813095D01*
X157931190Y-96765476D01*
X157907380Y-96694047D01*
X157859761Y-96646428D01*
X157812142Y-96622619D01*
X157716904Y-96598809D01*
X157645476Y-96598809D01*
X157550238Y-96622619D01*
X157502619Y-96646428D01*
X157455000Y-96694047D01*
X157431190Y-96765476D01*
X157431190Y-96813095D01*
X157455000Y-96884523D01*
X157478809Y-96908333D01*
X157478809Y-97098809D02*
X157455000Y-97122619D01*
X157431190Y-97170238D01*
X157431190Y-97289285D01*
X157455000Y-97336904D01*
X157478809Y-97360714D01*
X157526428Y-97384523D01*
X157574047Y-97384523D01*
X157645476Y-97360714D01*
X157931190Y-97075000D01*
X157931190Y-97384523D01*
X158736190Y-95694047D02*
X158236190Y-95694047D01*
X158236190Y-96027380D02*
X158236190Y-96122619D01*
X158260000Y-96170238D01*
X158307619Y-96217857D01*
X158402857Y-96241666D01*
X158569523Y-96241666D01*
X158664761Y-96217857D01*
X158712380Y-96170238D01*
X158736190Y-96122619D01*
X158736190Y-96027380D01*
X158712380Y-95979761D01*
X158664761Y-95932142D01*
X158569523Y-95908333D01*
X158402857Y-95908333D01*
X158307619Y-95932142D01*
X158260000Y-95979761D01*
X158236190Y-96027380D01*
X158236190Y-96694047D02*
X158236190Y-96455952D01*
X158474285Y-96432142D01*
X158450476Y-96455952D01*
X158426666Y-96503571D01*
X158426666Y-96622619D01*
X158450476Y-96670238D01*
X158474285Y-96694047D01*
X158521904Y-96717857D01*
X158640952Y-96717857D01*
X158688571Y-96694047D01*
X158712380Y-96670238D01*
X158736190Y-96622619D01*
X158736190Y-96503571D01*
X158712380Y-96455952D01*
X158688571Y-96432142D01*
X159517380Y-95670238D02*
X159541190Y-95741666D01*
X159541190Y-95860714D01*
X159517380Y-95908333D01*
X159493571Y-95932142D01*
X159445952Y-95955952D01*
X159398333Y-95955952D01*
X159350714Y-95932142D01*
X159326904Y-95908333D01*
X159303095Y-95860714D01*
X159279285Y-95765476D01*
X159255476Y-95717857D01*
X159231666Y-95694047D01*
X159184047Y-95670238D01*
X159136428Y-95670238D01*
X159088809Y-95694047D01*
X159065000Y-95717857D01*
X159041190Y-95765476D01*
X159041190Y-95884523D01*
X159065000Y-95955952D01*
X159493571Y-96455952D02*
X159517380Y-96432142D01*
X159541190Y-96360714D01*
X159541190Y-96313095D01*
X159517380Y-96241666D01*
X159469761Y-96194047D01*
X159422142Y-96170238D01*
X159326904Y-96146428D01*
X159255476Y-96146428D01*
X159160238Y-96170238D01*
X159112619Y-96194047D01*
X159065000Y-96241666D01*
X159041190Y-96313095D01*
X159041190Y-96360714D01*
X159065000Y-96432142D01*
X159088809Y-96455952D01*
X159541190Y-96908333D02*
X159541190Y-96670238D01*
X159041190Y-96670238D01*
D11*
X124581904Y-96590000D02*
X125229523Y-96590000D01*
X125305714Y-96628095D01*
X125343809Y-96666190D01*
X125381904Y-96742380D01*
X125381904Y-96894761D01*
X125343809Y-96970952D01*
X125305714Y-97009047D01*
X125229523Y-97047142D01*
X124581904Y-97047142D01*
X125381904Y-97428095D02*
X124581904Y-97428095D01*
X125381904Y-97809047D02*
X124581904Y-97809047D01*
X125381904Y-98266190D01*
X124581904Y-98266190D01*
X125381904Y-98647142D02*
X124581904Y-98647142D01*
X124581904Y-99180476D02*
X124581904Y-99332857D01*
X124620000Y-99409047D01*
X124696190Y-99485238D01*
X124848571Y-99523333D01*
X125115238Y-99523333D01*
X125267619Y-99485238D01*
X125343809Y-99409047D01*
X125381904Y-99332857D01*
X125381904Y-99180476D01*
X125343809Y-99104285D01*
X125267619Y-99028095D01*
X125115238Y-98990000D01*
X124848571Y-98990000D01*
X124696190Y-99028095D01*
X124620000Y-99104285D01*
X124581904Y-99180476D01*
X125077142Y-99866190D02*
X125077142Y-100475714D01*
X125381904Y-100856666D02*
X124581904Y-100856666D01*
X125153333Y-101123333D01*
X124581904Y-101390000D01*
X125381904Y-101390000D01*
X125305714Y-102228095D02*
X125343809Y-102190000D01*
X125381904Y-102075714D01*
X125381904Y-101999523D01*
X125343809Y-101885238D01*
X125267619Y-101809047D01*
X125191428Y-101770952D01*
X125039047Y-101732857D01*
X124924761Y-101732857D01*
X124772380Y-101770952D01*
X124696190Y-101809047D01*
X124620000Y-101885238D01*
X124581904Y-101999523D01*
X124581904Y-102075714D01*
X124620000Y-102190000D01*
X124658095Y-102228095D01*
X124581904Y-102570952D02*
X125229523Y-102570952D01*
X125305714Y-102609047D01*
X125343809Y-102647142D01*
X125381904Y-102723333D01*
X125381904Y-102875714D01*
X125343809Y-102951904D01*
X125305714Y-102990000D01*
X125229523Y-103028095D01*
X124581904Y-103028095D01*
X125077142Y-103409047D02*
X125077142Y-104018571D01*
X124962857Y-104399523D02*
X124962857Y-104666190D01*
X125381904Y-104780476D02*
X125381904Y-104399523D01*
X124581904Y-104399523D01*
X124581904Y-104780476D01*
X125343809Y-105085238D02*
X125381904Y-105199523D01*
X125381904Y-105390000D01*
X125343809Y-105466190D01*
X125305714Y-105504285D01*
X125229523Y-105542380D01*
X125153333Y-105542380D01*
X125077142Y-105504285D01*
X125039047Y-105466190D01*
X125000952Y-105390000D01*
X124962857Y-105237619D01*
X124924761Y-105161428D01*
X124886666Y-105123333D01*
X124810476Y-105085238D01*
X124734285Y-105085238D01*
X124658095Y-105123333D01*
X124620000Y-105161428D01*
X124581904Y-105237619D01*
X124581904Y-105428095D01*
X124620000Y-105542380D01*
X125381904Y-105885238D02*
X124581904Y-105885238D01*
X124581904Y-106190000D01*
X124620000Y-106266190D01*
X124658095Y-106304285D01*
X124734285Y-106342380D01*
X124848571Y-106342380D01*
X124924761Y-106304285D01*
X124962857Y-106266190D01*
X125000952Y-106190000D01*
X125000952Y-105885238D01*
X124581904Y-106609047D02*
X124581904Y-107104285D01*
X124886666Y-106837619D01*
X124886666Y-106951904D01*
X124924761Y-107028095D01*
X124962857Y-107066190D01*
X125039047Y-107104285D01*
X125229523Y-107104285D01*
X125305714Y-107066190D01*
X125343809Y-107028095D01*
X125381904Y-106951904D01*
X125381904Y-106723333D01*
X125343809Y-106647142D01*
X125305714Y-106609047D01*
X124658095Y-107409047D02*
X124620000Y-107447142D01*
X124581904Y-107523333D01*
X124581904Y-107713809D01*
X124620000Y-107790000D01*
X124658095Y-107828095D01*
X124734285Y-107866190D01*
X124810476Y-107866190D01*
X124924761Y-107828095D01*
X125381904Y-107370952D01*
X125381904Y-107866190D01*
X125305714Y-108666190D02*
X125343809Y-108628095D01*
X125381904Y-108513809D01*
X125381904Y-108437619D01*
X125343809Y-108323333D01*
X125267619Y-108247142D01*
X125191428Y-108209047D01*
X125039047Y-108170952D01*
X124924761Y-108170952D01*
X124772380Y-108209047D01*
X124696190Y-108247142D01*
X124620000Y-108323333D01*
X124581904Y-108437619D01*
X124581904Y-108513809D01*
X124620000Y-108628095D01*
X124658095Y-108666190D01*
X124581904Y-108932857D02*
X124581904Y-109428095D01*
X124886666Y-109161428D01*
X124886666Y-109275714D01*
X124924761Y-109351904D01*
X124962857Y-109390000D01*
X125039047Y-109428095D01*
X125229523Y-109428095D01*
X125305714Y-109390000D01*
X125343809Y-109351904D01*
X125381904Y-109275714D01*
X125381904Y-109047142D01*
X125343809Y-108970952D01*
X125305714Y-108932857D01*
D10*
X168473690Y-95614047D02*
X167973690Y-95614047D01*
X167973690Y-95947380D02*
X167973690Y-96042619D01*
X167997500Y-96090238D01*
X168045119Y-96137857D01*
X168140357Y-96161666D01*
X168307023Y-96161666D01*
X168402261Y-96137857D01*
X168449880Y-96090238D01*
X168473690Y-96042619D01*
X168473690Y-95947380D01*
X168449880Y-95899761D01*
X168402261Y-95852142D01*
X168307023Y-95828333D01*
X168140357Y-95828333D01*
X168045119Y-95852142D01*
X167997500Y-95899761D01*
X167973690Y-95947380D01*
X168473690Y-96637857D02*
X168473690Y-96352142D01*
X168473690Y-96495000D02*
X167973690Y-96495000D01*
X168045119Y-96447380D01*
X168092738Y-96399761D01*
X168116547Y-96352142D01*
X169278690Y-95899761D02*
X169040595Y-95733095D01*
X169278690Y-95614047D02*
X168778690Y-95614047D01*
X168778690Y-95804523D01*
X168802500Y-95852142D01*
X168826309Y-95875952D01*
X168873928Y-95899761D01*
X168945357Y-95899761D01*
X168992976Y-95875952D01*
X169016785Y-95852142D01*
X169040595Y-95804523D01*
X169040595Y-95614047D01*
X168778690Y-96066428D02*
X169278690Y-96399761D01*
X168778690Y-96399761D02*
X169278690Y-96066428D01*
X169278690Y-96590238D02*
X168778690Y-96590238D01*
X168778690Y-96709285D01*
X168802500Y-96780714D01*
X168850119Y-96828333D01*
X168897738Y-96852142D01*
X168992976Y-96875952D01*
X169064404Y-96875952D01*
X169159642Y-96852142D01*
X169207261Y-96828333D01*
X169254880Y-96780714D01*
X169278690Y-96709285D01*
X169278690Y-96590238D01*
X169278690Y-97352142D02*
X169278690Y-97066428D01*
X169278690Y-97209285D02*
X168778690Y-97209285D01*
X168850119Y-97161666D01*
X168897738Y-97114047D01*
X168921547Y-97066428D01*
X163403690Y-108769761D02*
X162903690Y-108769761D01*
X162903690Y-109103095D02*
X162903690Y-109198333D01*
X162927500Y-109245952D01*
X162975119Y-109293571D01*
X163070357Y-109317380D01*
X163237023Y-109317380D01*
X163332261Y-109293571D01*
X163379880Y-109245952D01*
X163403690Y-109198333D01*
X163403690Y-109103095D01*
X163379880Y-109055476D01*
X163332261Y-109007857D01*
X163237023Y-108984047D01*
X163070357Y-108984047D01*
X162975119Y-109007857D01*
X162927500Y-109055476D01*
X162903690Y-109103095D01*
X163403690Y-109793571D02*
X163403690Y-109507857D01*
X163403690Y-109650714D02*
X162903690Y-109650714D01*
X162975119Y-109603095D01*
X163022738Y-109555476D01*
X163046547Y-109507857D01*
X163403690Y-110031666D02*
X163403690Y-110126904D01*
X163379880Y-110174523D01*
X163356071Y-110198333D01*
X163284642Y-110245952D01*
X163189404Y-110269761D01*
X162998928Y-110269761D01*
X162951309Y-110245952D01*
X162927500Y-110222142D01*
X162903690Y-110174523D01*
X162903690Y-110079285D01*
X162927500Y-110031666D01*
X162951309Y-110007857D01*
X162998928Y-109984047D01*
X163117976Y-109984047D01*
X163165595Y-110007857D01*
X163189404Y-110031666D01*
X163213214Y-110079285D01*
X163213214Y-110174523D01*
X163189404Y-110222142D01*
X163165595Y-110245952D01*
X163117976Y-110269761D01*
X163708690Y-107484047D02*
X164113452Y-107484047D01*
X164161071Y-107507857D01*
X164184880Y-107531666D01*
X164208690Y-107579285D01*
X164208690Y-107674523D01*
X164184880Y-107722142D01*
X164161071Y-107745952D01*
X164113452Y-107769761D01*
X163708690Y-107769761D01*
X164184880Y-107984047D02*
X164208690Y-108055476D01*
X164208690Y-108174523D01*
X164184880Y-108222142D01*
X164161071Y-108245952D01*
X164113452Y-108269761D01*
X164065833Y-108269761D01*
X164018214Y-108245952D01*
X163994404Y-108222142D01*
X163970595Y-108174523D01*
X163946785Y-108079285D01*
X163922976Y-108031666D01*
X163899166Y-108007857D01*
X163851547Y-107984047D01*
X163803928Y-107984047D01*
X163756309Y-108007857D01*
X163732500Y-108031666D01*
X163708690Y-108079285D01*
X163708690Y-108198333D01*
X163732500Y-108269761D01*
X163946785Y-108650714D02*
X163970595Y-108722142D01*
X163994404Y-108745952D01*
X164042023Y-108769761D01*
X164113452Y-108769761D01*
X164161071Y-108745952D01*
X164184880Y-108722142D01*
X164208690Y-108674523D01*
X164208690Y-108484047D01*
X163708690Y-108484047D01*
X163708690Y-108650714D01*
X163732500Y-108698333D01*
X163756309Y-108722142D01*
X163803928Y-108745952D01*
X163851547Y-108745952D01*
X163899166Y-108722142D01*
X163922976Y-108698333D01*
X163946785Y-108650714D01*
X163946785Y-108484047D01*
X164256309Y-108865000D02*
X164256309Y-109245952D01*
X164208690Y-109365000D02*
X163708690Y-109365000D01*
X163708690Y-109484047D01*
X163732500Y-109555476D01*
X163780119Y-109603095D01*
X163827738Y-109626904D01*
X163922976Y-109650714D01*
X163994404Y-109650714D01*
X164089642Y-109626904D01*
X164137261Y-109603095D01*
X164184880Y-109555476D01*
X164208690Y-109484047D01*
X164208690Y-109365000D01*
X164018214Y-109865000D02*
X164018214Y-110245952D01*
X164208690Y-110055476D02*
X163827738Y-110055476D01*
D12*
%TO.C,*%
D10*
%TO.C,U2*%
X149253928Y-102452857D02*
X149739642Y-102452857D01*
X149796785Y-102481428D01*
X149825357Y-102510000D01*
X149853928Y-102567142D01*
X149853928Y-102681428D01*
X149825357Y-102738571D01*
X149796785Y-102767142D01*
X149739642Y-102795714D01*
X149253928Y-102795714D01*
X149311071Y-103052857D02*
X149282500Y-103081428D01*
X149253928Y-103138571D01*
X149253928Y-103281428D01*
X149282500Y-103338571D01*
X149311071Y-103367142D01*
X149368214Y-103395714D01*
X149425357Y-103395714D01*
X149511071Y-103367142D01*
X149853928Y-103024285D01*
X149853928Y-103395714D01*
%TO.C,C1*%
X146434285Y-101560000D02*
X146462857Y-101531428D01*
X146491428Y-101445714D01*
X146491428Y-101388571D01*
X146462857Y-101302857D01*
X146405714Y-101245714D01*
X146348571Y-101217142D01*
X146234285Y-101188571D01*
X146148571Y-101188571D01*
X146034285Y-101217142D01*
X145977142Y-101245714D01*
X145920000Y-101302857D01*
X145891428Y-101388571D01*
X145891428Y-101445714D01*
X145920000Y-101531428D01*
X145948571Y-101560000D01*
X146491428Y-102131428D02*
X146491428Y-101788571D01*
X146491428Y-101960000D02*
X145891428Y-101960000D01*
X145977142Y-101902857D01*
X146034285Y-101845714D01*
X146062857Y-101788571D01*
D12*
%TO.C,*%
D10*
%TO.C,HOLE2*%
X136520000Y-94160000D02*
G75*
G03*
X136520000Y-94160000I-900000J0D01*
G01*
%TO.C,HOLE1*%
X123770000Y-95040000D02*
G75*
G03*
X123770000Y-95040000I-900000J0D01*
G01*
%TO.C,HOLE3*%
X177000000Y-94210000D02*
G75*
G03*
X177000000Y-94210000I-900000J0D01*
G01*
%TO.C,HOLE4*%
X177000000Y-111700000D02*
G75*
G03*
X177000000Y-111700000I-900000J0D01*
G01*
%TO.C,HOLE5*%
X123770000Y-110840000D02*
G75*
G03*
X123770000Y-110840000I-900000J0D01*
G01*
%TO.C,*%
G36*
X141601125Y-103284348D02*
G01*
X141620327Y-103289619D01*
X141751155Y-103341064D01*
X141867692Y-103414528D01*
X141967651Y-103507510D01*
X142048740Y-103617509D01*
X142108671Y-103742025D01*
X142145155Y-103878556D01*
X142145619Y-103881933D01*
X142147700Y-103913701D01*
X142149565Y-103969425D01*
X142151180Y-104046201D01*
X142152510Y-104141124D01*
X142153521Y-104251292D01*
X142154178Y-104373799D01*
X142154447Y-104505743D01*
X142154292Y-104644218D01*
X142152412Y-105344813D01*
X141991562Y-105348679D01*
X141830713Y-105352544D01*
X141826716Y-104613741D01*
X141822720Y-103874938D01*
X141786130Y-103806252D01*
X141772435Y-103782850D01*
X141735325Y-103730421D01*
X141696838Y-103686730D01*
X141691573Y-103681736D01*
X141608821Y-103621672D01*
X141518052Y-103585312D01*
X141423284Y-103571854D01*
X141328533Y-103580495D01*
X141237817Y-103610432D01*
X141155154Y-103660862D01*
X141084561Y-103730982D01*
X141030057Y-103819989D01*
X141025668Y-103829633D01*
X141019428Y-103844699D01*
X141014203Y-103861085D01*
X141009886Y-103881169D01*
X141006372Y-103907328D01*
X141003555Y-103941940D01*
X141001330Y-103987382D01*
X140999591Y-104046032D01*
X140998233Y-104120268D01*
X140997149Y-104212468D01*
X140996234Y-104325008D01*
X140995383Y-104460268D01*
X140994490Y-104620623D01*
X140990489Y-105352571D01*
X140836512Y-105348692D01*
X140682536Y-105344813D01*
X140678978Y-104633157D01*
X140678314Y-104488941D01*
X140677909Y-104339530D01*
X140678124Y-104213026D01*
X140679167Y-104106941D01*
X140681245Y-104018787D01*
X140684564Y-103946077D01*
X140689333Y-103886322D01*
X140695757Y-103837036D01*
X140704045Y-103795731D01*
X140714404Y-103759918D01*
X140727040Y-103727110D01*
X140742161Y-103694819D01*
X140759974Y-103660557D01*
X140800490Y-103597890D01*
X140860801Y-103525099D01*
X140931013Y-103454304D01*
X141003655Y-103392993D01*
X141071254Y-103348653D01*
X141102537Y-103333136D01*
X141221893Y-103290824D01*
X141350317Y-103267916D01*
X141479498Y-103265421D01*
X141601125Y-103284348D01*
G37*
G36*
X141568583Y-106162174D02*
G01*
X141266365Y-106162174D01*
X141266365Y-105530265D01*
X141568583Y-105530265D01*
X141568583Y-106162174D01*
G37*
G36*
X142145543Y-98455630D02*
G01*
X141568583Y-98455630D01*
X141568583Y-99424125D01*
X141856720Y-99630169D01*
X142144857Y-99836214D01*
X142145200Y-100033651D01*
X142145208Y-100038766D01*
X142144814Y-100116587D01*
X142143221Y-100170270D01*
X142140141Y-100202963D01*
X142135287Y-100217814D01*
X142128372Y-100217970D01*
X142124561Y-100215079D01*
X142093162Y-100191898D01*
X142047004Y-100158461D01*
X141989795Y-100117397D01*
X141925246Y-100071329D01*
X141857065Y-100022884D01*
X141788962Y-99974688D01*
X141724645Y-99929367D01*
X141667823Y-99889546D01*
X141622206Y-99857852D01*
X141591503Y-99836910D01*
X141579423Y-99829346D01*
X141578329Y-99829823D01*
X141571289Y-99845905D01*
X141564327Y-99877722D01*
X141557708Y-99908321D01*
X141521810Y-99994247D01*
X141463936Y-100074110D01*
X141388158Y-100143032D01*
X141298545Y-100196137D01*
X141233936Y-100218913D01*
X141134658Y-100232731D01*
X141035065Y-100224399D01*
X140943512Y-100193967D01*
X140921553Y-100182388D01*
X140839296Y-100124219D01*
X140767773Y-100051021D01*
X140715337Y-99970960D01*
X140682536Y-99904900D01*
X140682202Y-99827814D01*
X141005359Y-99827814D01*
X141038244Y-99866045D01*
X141053734Y-99882111D01*
X141084869Y-99899687D01*
X141128941Y-99904276D01*
X141160716Y-99902355D01*
X141194188Y-99889779D01*
X141226560Y-99859725D01*
X141266365Y-99815175D01*
X141266365Y-98455630D01*
X141005359Y-98455630D01*
X141005359Y-99827814D01*
X140682202Y-99827814D01*
X140674892Y-98139676D01*
X142145543Y-98139676D01*
X142145543Y-98455630D01*
G37*
G36*
X140822966Y-106125546D02*
G01*
X140864641Y-106149903D01*
X140927129Y-106186427D01*
X141007247Y-106233259D01*
X141101946Y-106288616D01*
X141208173Y-106350713D01*
X141322879Y-106417767D01*
X141443014Y-106487996D01*
X141565526Y-106559616D01*
X142160035Y-106907168D01*
X142156223Y-107093546D01*
X142152412Y-107279923D01*
X141424342Y-107703072D01*
X141413009Y-107709658D01*
X141284127Y-107784451D01*
X141162434Y-107854888D01*
X141049996Y-107919783D01*
X140948884Y-107977951D01*
X140861164Y-108028207D01*
X140788906Y-108069365D01*
X140734177Y-108100241D01*
X140699047Y-108119649D01*
X140685583Y-108126404D01*
X140684445Y-108125323D01*
X140681109Y-108105563D01*
X140678920Y-108064743D01*
X140678060Y-108007841D01*
X140678714Y-107939834D01*
X140682536Y-107753080D01*
X141257296Y-107422646D01*
X141832056Y-107092211D01*
X141717491Y-107026182D01*
X141716877Y-107025828D01*
X141678142Y-107003500D01*
X141619170Y-106969502D01*
X141543446Y-106925845D01*
X141454455Y-106874536D01*
X141355682Y-106817587D01*
X141250612Y-106757005D01*
X141142731Y-106694801D01*
X140682536Y-106429450D01*
X140678726Y-106234238D01*
X140674916Y-106039027D01*
X140822966Y-106125546D01*
G37*
G36*
X142159280Y-100777209D02*
G01*
X140675668Y-100777209D01*
X140675668Y-100461255D01*
X142159280Y-100461255D01*
X142159280Y-100777209D01*
G37*
G36*
X142156422Y-101879616D02*
G01*
X142152412Y-102748491D01*
X142116212Y-102825694D01*
X142074576Y-102899567D01*
X142000778Y-102985701D01*
X141909483Y-103050759D01*
X141886903Y-103062417D01*
X141841523Y-103080287D01*
X141791198Y-103090628D01*
X141724698Y-103096203D01*
X141720564Y-103096417D01*
X141661085Y-103098132D01*
X141617680Y-103094941D01*
X141579744Y-103085215D01*
X141536670Y-103067325D01*
X141522279Y-103060435D01*
X141431228Y-103001891D01*
X141354132Y-102926239D01*
X141297555Y-102839726D01*
X141259497Y-102762228D01*
X141252628Y-102086761D01*
X141245759Y-101411293D01*
X141212456Y-101375863D01*
X141190822Y-101357917D01*
X141141059Y-101340402D01*
X141087239Y-101345590D01*
X141037034Y-101373580D01*
X140998491Y-101406726D01*
X140994652Y-102252757D01*
X140990812Y-103098789D01*
X140674702Y-103098789D01*
X140682536Y-101347301D01*
X140716199Y-101278615D01*
X140751933Y-101218879D01*
X140816275Y-101143492D01*
X140891959Y-101081164D01*
X140971442Y-101038973D01*
X141006421Y-101027470D01*
X141109165Y-101011749D01*
X141210903Y-101020825D01*
X141307537Y-101052985D01*
X141394971Y-101106515D01*
X141469108Y-101179702D01*
X141525850Y-101270832D01*
X141561714Y-101347301D01*
X141568583Y-102027290D01*
X141568796Y-102047863D01*
X141570444Y-102181345D01*
X141572433Y-102306323D01*
X141574690Y-102420088D01*
X141577141Y-102519928D01*
X141579714Y-102603135D01*
X141582336Y-102666998D01*
X141584932Y-102708807D01*
X141587431Y-102725853D01*
X141599155Y-102738405D01*
X141635934Y-102759281D01*
X141681074Y-102772393D01*
X141722044Y-102773322D01*
X141757167Y-102758479D01*
X141790726Y-102732260D01*
X141822720Y-102698211D01*
X141826461Y-101854476D01*
X141830203Y-101010741D01*
X142160433Y-101010741D01*
X142156422Y-101879616D01*
G37*
G36*
X139788670Y-100471100D02*
G01*
X139788606Y-100763209D01*
X139787924Y-101221146D01*
X139786016Y-101582166D01*
X139782300Y-101856955D01*
X139776194Y-102056204D01*
X139767117Y-102190599D01*
X139754486Y-102270829D01*
X139737719Y-102307583D01*
X139716235Y-102311549D01*
X139689451Y-102293415D01*
X139665779Y-102273386D01*
X139559451Y-102184534D01*
X139380524Y-102035582D01*
X139138611Y-101834514D01*
X138843326Y-101589315D01*
X138504283Y-101307969D01*
X138131096Y-100998463D01*
X137733377Y-100668779D01*
X135876522Y-99129946D01*
X135264176Y-99129946D01*
X135242845Y-100107960D01*
X135233961Y-100452025D01*
X135221942Y-100737812D01*
X135205288Y-100949276D01*
X135181714Y-101106819D01*
X135148936Y-101230842D01*
X135104670Y-101341743D01*
X135099341Y-101353287D01*
X134878574Y-101698797D01*
X134580856Y-101966942D01*
X134219761Y-102148377D01*
X133808864Y-102233757D01*
X133606926Y-102239970D01*
X133201338Y-102181763D01*
X132852127Y-102025788D01*
X132561857Y-101773448D01*
X132333089Y-101426145D01*
X132163000Y-101085973D01*
X132144929Y-99824477D01*
X132126857Y-98562982D01*
X139788670Y-98562982D01*
X139788670Y-100471100D01*
G37*
G36*
X136451310Y-101241773D02*
G01*
X136521891Y-101295357D01*
X136665339Y-101410856D01*
X136870300Y-101578917D01*
X137125418Y-101790187D01*
X137419337Y-102035315D01*
X137740703Y-102304946D01*
X137812838Y-102365685D01*
X138126495Y-102630836D01*
X138407719Y-102870229D01*
X138645604Y-103074463D01*
X138829243Y-103234134D01*
X138947732Y-103339840D01*
X138990165Y-103382178D01*
X138989282Y-103383589D01*
X138932039Y-103429321D01*
X138791070Y-103533843D01*
X138574253Y-103691509D01*
X138289467Y-103896675D01*
X137944590Y-104143696D01*
X137547501Y-104426926D01*
X137106079Y-104740721D01*
X136628202Y-105079435D01*
X136121749Y-105437424D01*
X133250435Y-107464321D01*
X130887331Y-107464321D01*
X130893672Y-104303495D01*
X130894082Y-104119612D01*
X130896624Y-103409293D01*
X130900491Y-102809819D01*
X130905728Y-102319133D01*
X130912378Y-101935181D01*
X130920483Y-101655905D01*
X130930086Y-101479249D01*
X130941231Y-101403158D01*
X130953961Y-101425575D01*
X131024842Y-101704007D01*
X131229893Y-102166236D01*
X131528203Y-102577278D01*
X131910827Y-102927970D01*
X132368816Y-103209150D01*
X132893225Y-103411656D01*
X133198483Y-103469555D01*
X133585017Y-103491541D01*
X133992694Y-103474512D01*
X134378328Y-103420394D01*
X134698735Y-103331114D01*
X134948887Y-103218137D01*
X135394082Y-102927025D01*
X135772810Y-102553606D01*
X136072459Y-102111569D01*
X136280415Y-101614602D01*
X136288399Y-101588694D01*
X136352145Y-101405857D01*
X136408768Y-101280784D01*
X136446830Y-101239269D01*
X136451310Y-101241773D01*
G37*
G36*
X139788670Y-107521018D02*
G01*
X137593708Y-107521018D01*
X137072775Y-107520587D01*
X136603815Y-107518928D01*
X136230526Y-107515704D01*
X135943655Y-107510580D01*
X135733950Y-107503222D01*
X135592161Y-107493296D01*
X135509035Y-107480469D01*
X135475320Y-107464406D01*
X135481766Y-107444774D01*
X135526737Y-107409739D01*
X135657721Y-107312790D01*
X135863457Y-107162679D01*
X136134325Y-106966359D01*
X136460706Y-106730785D01*
X136832980Y-106462911D01*
X137241527Y-106169690D01*
X137676728Y-105858077D01*
X139788670Y-104347623D01*
X139788670Y-107521018D01*
G37*
D13*
%TO.C,U2*%
X152212500Y-105131000D02*
X152212500Y-100779000D01*
X146934500Y-100779000D02*
X146934500Y-105131000D01*
X146934500Y-105131000D02*
X152212500Y-105131000D01*
X152212500Y-100779000D02*
X146934500Y-100779000D01*
D12*
X147051500Y-99425000D02*
G75*
G03*
X147051500Y-99425000I-150000J0D01*
G01*
X147818500Y-101531000D02*
G75*
G03*
X147818500Y-101531000I-150000J0D01*
G01*
D14*
%TO.C,C1*%
X146580000Y-103317836D02*
X146580000Y-103102164D01*
X145860000Y-103317836D02*
X145860000Y-103102164D01*
%TO.C,*%
G36*
X172451649Y-104800743D02*
G01*
X172452644Y-104812312D01*
X172450067Y-104816070D01*
X172439348Y-104824868D01*
X172438095Y-104824542D01*
X172433811Y-104812312D01*
X172434322Y-104808871D01*
X172447107Y-104799757D01*
X172451649Y-104800743D01*
G37*
G36*
X160776968Y-100558580D02*
G01*
X160803460Y-100587918D01*
X160824402Y-100613923D01*
X160832427Y-100627907D01*
X160832085Y-100628954D01*
X160819495Y-100642830D01*
X160791451Y-100668280D01*
X160751635Y-100702069D01*
X160703732Y-100740963D01*
X160650562Y-100783773D01*
X160595493Y-100829022D01*
X160547232Y-100869560D01*
X160512259Y-100900001D01*
X160479676Y-100928377D01*
X160453747Y-100949071D01*
X160440567Y-100957177D01*
X160438422Y-100956567D01*
X160422151Y-100943963D01*
X160396702Y-100919467D01*
X160367487Y-100888884D01*
X160339919Y-100858017D01*
X160319408Y-100832669D01*
X160311369Y-100818643D01*
X160319330Y-100808196D01*
X160344004Y-100785185D01*
X160381736Y-100752976D01*
X160428797Y-100714560D01*
X160481456Y-100672927D01*
X160535982Y-100631068D01*
X160588646Y-100591973D01*
X160635717Y-100558631D01*
X160721509Y-100499883D01*
X160776968Y-100558580D01*
G37*
G36*
X171730697Y-105452649D02*
G01*
X171729790Y-105459295D01*
X171722326Y-105461019D01*
X171720823Y-105459179D01*
X171722326Y-105444278D01*
X171726103Y-105442314D01*
X171730697Y-105452649D01*
G37*
G36*
X172250527Y-103070991D02*
G01*
X172274420Y-103100304D01*
X172281730Y-103129326D01*
X172266085Y-103153499D01*
X172261934Y-103156505D01*
X172243346Y-103158575D01*
X172217021Y-103142481D01*
X172198610Y-103129977D01*
X172156349Y-103116680D01*
X172119254Y-103126641D01*
X172090379Y-103159449D01*
X172088933Y-103162037D01*
X172061400Y-103196410D01*
X172027885Y-103221847D01*
X172004394Y-103231083D01*
X171950612Y-103236249D01*
X171898323Y-103223261D01*
X171854573Y-103194545D01*
X171826408Y-103152523D01*
X171812308Y-103115075D01*
X171730697Y-103123706D01*
X171690221Y-103128552D01*
X171658131Y-103133538D01*
X171643931Y-103137300D01*
X171645658Y-103146170D01*
X171659625Y-103165300D01*
X171673264Y-103183113D01*
X171678669Y-103207149D01*
X171660731Y-103222639D01*
X171637870Y-103224464D01*
X171603486Y-103207192D01*
X171568347Y-103168754D01*
X171562140Y-103159706D01*
X171544955Y-103123555D01*
X171548801Y-103095918D01*
X171573950Y-103072076D01*
X171586327Y-103065866D01*
X171606199Y-103060377D01*
X171635682Y-103056016D01*
X171677876Y-103052536D01*
X171735881Y-103049685D01*
X171812797Y-103047216D01*
X171911723Y-103044877D01*
X172217910Y-103038375D01*
X172250527Y-103070991D01*
G37*
G36*
X172898368Y-104912757D02*
G01*
X172897462Y-104919404D01*
X172889998Y-104921128D01*
X172888495Y-104919287D01*
X172889998Y-104904387D01*
X172893774Y-104902423D01*
X172898368Y-104912757D01*
G37*
G36*
X172421255Y-104806035D02*
G01*
X172414977Y-104812312D01*
X172408700Y-104806035D01*
X172414977Y-104799757D01*
X172421255Y-104806035D01*
G37*
G36*
X161284429Y-101058185D02*
G01*
X162351656Y-101058185D01*
X162351656Y-101233963D01*
X161866921Y-101233963D01*
X161851090Y-101233964D01*
X161730776Y-101234035D01*
X161633028Y-101234299D01*
X161555569Y-101234860D01*
X161496125Y-101235824D01*
X161452418Y-101237295D01*
X161422174Y-101239379D01*
X161403115Y-101242180D01*
X161392966Y-101245803D01*
X161389451Y-101250353D01*
X161390293Y-101255936D01*
X161394680Y-101266359D01*
X161415037Y-101305433D01*
X161446375Y-101358988D01*
X161485993Y-101422818D01*
X161531191Y-101492714D01*
X161579267Y-101564471D01*
X161627522Y-101633881D01*
X161673254Y-101696737D01*
X161713456Y-101748504D01*
X161792896Y-101843477D01*
X161883258Y-101944418D01*
X161979467Y-102046027D01*
X162076450Y-102143001D01*
X162169132Y-102230040D01*
X162252439Y-102301843D01*
X162295027Y-102336430D01*
X162340413Y-102373361D01*
X162376924Y-102403147D01*
X162399243Y-102421457D01*
X162430793Y-102447556D01*
X162364967Y-102531318D01*
X162353215Y-102546135D01*
X162324259Y-102581373D01*
X162302614Y-102605887D01*
X162292268Y-102615081D01*
X162279447Y-102609455D01*
X162250034Y-102587972D01*
X162208262Y-102552853D01*
X162156819Y-102506695D01*
X162098389Y-102452093D01*
X162035659Y-102391643D01*
X161971314Y-102327939D01*
X161908040Y-102263578D01*
X161848522Y-102201155D01*
X161795448Y-102143264D01*
X161751502Y-102092503D01*
X161672038Y-101992100D01*
X161556154Y-101829189D01*
X161447421Y-101657062D01*
X161351991Y-101485076D01*
X161290706Y-101365797D01*
X161287470Y-102128551D01*
X161284234Y-102891304D01*
X161096289Y-102891304D01*
X161093053Y-102128551D01*
X161089817Y-101365797D01*
X161005697Y-101526020D01*
X160926037Y-101669610D01*
X160780226Y-101897386D01*
X160620619Y-102106635D01*
X160448717Y-102295284D01*
X160412091Y-102330867D01*
X160360165Y-102378779D01*
X160305130Y-102427366D01*
X160250568Y-102473664D01*
X160200059Y-102514709D01*
X160157187Y-102547538D01*
X160125531Y-102569185D01*
X160108675Y-102576687D01*
X160104507Y-102574294D01*
X160086470Y-102556779D01*
X160059131Y-102526038D01*
X160026572Y-102486553D01*
X159955221Y-102397144D01*
X160026572Y-102353198D01*
X160160952Y-102262943D01*
X160336382Y-102121590D01*
X160502996Y-101959894D01*
X160658263Y-101780366D01*
X160799652Y-101585521D01*
X160802348Y-101581443D01*
X160839207Y-101524155D01*
X160876992Y-101462991D01*
X160913298Y-101402127D01*
X160945720Y-101345738D01*
X160971856Y-101297998D01*
X160989301Y-101263082D01*
X160995650Y-101245165D01*
X160995521Y-101244893D01*
X160980953Y-101242323D01*
X160943923Y-101239998D01*
X160886835Y-101237972D01*
X160812092Y-101236301D01*
X160722100Y-101235039D01*
X160619261Y-101234241D01*
X160505981Y-101233963D01*
X160016312Y-101233963D01*
X160016312Y-101058185D01*
X161096094Y-101058185D01*
X161096094Y-100455516D01*
X161284429Y-100455516D01*
X161284429Y-101058185D01*
G37*
G36*
X156225576Y-100458430D02*
G01*
X156263488Y-100480814D01*
X156297477Y-100503059D01*
X156313057Y-100521401D01*
X156311671Y-100541576D01*
X156294759Y-100569321D01*
X156263765Y-100610372D01*
X156248753Y-100629753D01*
X156225049Y-100659273D01*
X156206450Y-100683306D01*
X156194774Y-100702408D01*
X156191838Y-100717136D01*
X156199462Y-100728047D01*
X156219462Y-100735697D01*
X156253657Y-100740644D01*
X156303865Y-100743442D01*
X156371905Y-100744650D01*
X156459593Y-100744824D01*
X156568748Y-100744520D01*
X156701189Y-100744295D01*
X157228966Y-100744295D01*
X157228966Y-101208852D01*
X157053188Y-101208852D01*
X157053188Y-100907518D01*
X155207513Y-100907518D01*
X155207513Y-101208852D01*
X155031735Y-101208852D01*
X155031735Y-100744295D01*
X156079679Y-100744295D01*
X156029681Y-100710970D01*
X156013380Y-100700065D01*
X155987249Y-100682379D01*
X155974771Y-100673623D01*
X155978624Y-100663673D01*
X155995272Y-100638584D01*
X156021550Y-100602943D01*
X156054057Y-100561220D01*
X156089389Y-100517884D01*
X156124144Y-100477405D01*
X156170135Y-100425580D01*
X156225576Y-100458430D01*
G37*
G36*
X161397429Y-105653538D02*
G01*
X160945427Y-105653538D01*
X160945427Y-105163870D01*
X161397429Y-105163870D01*
X161397429Y-105653538D01*
G37*
G36*
X163839808Y-101650654D02*
G01*
X163815681Y-101722727D01*
X163784336Y-101805536D01*
X163749326Y-101890367D01*
X163714204Y-101968508D01*
X163682522Y-102031245D01*
X163656414Y-102076117D01*
X163605097Y-102156451D01*
X163545056Y-102243256D01*
X163481265Y-102329169D01*
X163454851Y-102363425D01*
X163559284Y-102431272D01*
X163597361Y-102455240D01*
X163706443Y-102517808D01*
X163826998Y-102579837D01*
X163949768Y-102636709D01*
X164065496Y-102683806D01*
X164106489Y-102699199D01*
X164151106Y-102716271D01*
X164182211Y-102728561D01*
X164194780Y-102734115D01*
X164194695Y-102735446D01*
X164185710Y-102751225D01*
X164165795Y-102780554D01*
X164138280Y-102818460D01*
X164078052Y-102899291D01*
X163980270Y-102857903D01*
X163905036Y-102824610D01*
X163754115Y-102750369D01*
X163604248Y-102667728D01*
X163467279Y-102583034D01*
X163453223Y-102573767D01*
X163402654Y-102540724D01*
X163361011Y-102513974D01*
X163332287Y-102496061D01*
X163320472Y-102489524D01*
X163318681Y-102490248D01*
X163301564Y-102501142D01*
X163270999Y-102522401D01*
X163232084Y-102550507D01*
X163205683Y-102569607D01*
X163055199Y-102668786D01*
X162892289Y-102759828D01*
X162710619Y-102846328D01*
X162643769Y-102875892D01*
X162568535Y-102785739D01*
X162493301Y-102695587D01*
X162613951Y-102654385D01*
X162634263Y-102647288D01*
X162704336Y-102621057D01*
X162775830Y-102592179D01*
X162836052Y-102565723D01*
X162870490Y-102548782D01*
X162926691Y-102518717D01*
X162986071Y-102484769D01*
X163043541Y-102450038D01*
X163094016Y-102417626D01*
X163132406Y-102390634D01*
X163153624Y-102372163D01*
X163156056Y-102362012D01*
X163147332Y-102341527D01*
X163124090Y-102309404D01*
X163084523Y-102262778D01*
X163064583Y-102239706D01*
X162989546Y-102144858D01*
X162918338Y-102042803D01*
X162852863Y-101937191D01*
X162795024Y-101831670D01*
X162746726Y-101729891D01*
X162709870Y-101635503D01*
X162692231Y-101572965D01*
X162889855Y-101572965D01*
X162898205Y-101601215D01*
X162902005Y-101613308D01*
X162925175Y-101673772D01*
X162957733Y-101745943D01*
X162996024Y-101822433D01*
X163036391Y-101895855D01*
X163075179Y-101958821D01*
X163089573Y-101979851D01*
X163135472Y-102041924D01*
X163185412Y-102103990D01*
X163230881Y-102155306D01*
X163313480Y-102241925D01*
X163376612Y-102161696D01*
X163379833Y-102157595D01*
X163474574Y-102027386D01*
X163550906Y-101900445D01*
X163612865Y-101769261D01*
X163664491Y-101626326D01*
X163681349Y-101572965D01*
X162889855Y-101572965D01*
X162692231Y-101572965D01*
X162686361Y-101552155D01*
X162678101Y-101483498D01*
X162678101Y-101409742D01*
X163205437Y-101409742D01*
X163205437Y-101033074D01*
X162539990Y-101033074D01*
X162539990Y-100857295D01*
X163205437Y-100857295D01*
X163205437Y-100455516D01*
X163393771Y-100455516D01*
X163393771Y-100857295D01*
X164034107Y-100857295D01*
X164034107Y-101033074D01*
X163393771Y-101033074D01*
X163393771Y-101409742D01*
X164034107Y-101409742D01*
X164034107Y-101572965D01*
X163861592Y-101572965D01*
X163845059Y-101632604D01*
X163839808Y-101650654D01*
G37*
G36*
X172492404Y-104803942D02*
G01*
X172494368Y-104807719D01*
X172484033Y-104812312D01*
X172477386Y-104811406D01*
X172475663Y-104803942D01*
X172477503Y-104802439D01*
X172492404Y-104803942D01*
G37*
G36*
X172804013Y-103262181D02*
G01*
X172811161Y-103275126D01*
X172816366Y-103300666D01*
X172820444Y-103342972D01*
X172824208Y-103406215D01*
X172827698Y-103456973D01*
X172833813Y-103514949D01*
X172841087Y-103561742D01*
X172848599Y-103590394D01*
X172852912Y-103601992D01*
X172856038Y-103646793D01*
X172834897Y-103685394D01*
X172789419Y-103717951D01*
X172778213Y-103723318D01*
X172746567Y-103734523D01*
X172726111Y-103736012D01*
X172720770Y-103733056D01*
X172710708Y-103713625D01*
X172714833Y-103689841D01*
X172732006Y-103673727D01*
X172747328Y-103666590D01*
X172775009Y-103647917D01*
X172779992Y-103643451D01*
X172789012Y-103630021D01*
X172787803Y-103610999D01*
X172776559Y-103577631D01*
X172773197Y-103567174D01*
X172764001Y-103519310D01*
X172758169Y-103458412D01*
X172756081Y-103393639D01*
X172758115Y-103334151D01*
X172764647Y-103289110D01*
X172775780Y-103264382D01*
X172795233Y-103257852D01*
X172804013Y-103262181D01*
G37*
G36*
X159061595Y-105106856D02*
G01*
X159028937Y-105238699D01*
X158976560Y-105356103D01*
X158905290Y-105458088D01*
X158815954Y-105543676D01*
X158709378Y-105611887D01*
X158586387Y-105661742D01*
X158447807Y-105692262D01*
X158446138Y-105692493D01*
X158379547Y-105697407D01*
X158298116Y-105697272D01*
X158211211Y-105692585D01*
X158128200Y-105683844D01*
X158058448Y-105671548D01*
X157959623Y-105641101D01*
X157846946Y-105584234D01*
X157749468Y-105508050D01*
X157668385Y-105413741D01*
X157604895Y-105302499D01*
X157560198Y-105175518D01*
X157552792Y-105140512D01*
X157543367Y-105061787D01*
X157539653Y-104977414D01*
X158002068Y-104977414D01*
X158003239Y-105050175D01*
X158006834Y-105105059D01*
X158013349Y-105147542D01*
X158023283Y-105183101D01*
X158029155Y-105198737D01*
X158067385Y-105269545D01*
X158118008Y-105327330D01*
X158176027Y-105366105D01*
X158199513Y-105375431D01*
X158275235Y-105390408D01*
X158352767Y-105386311D01*
X158426315Y-105364607D01*
X158490086Y-105326765D01*
X158538289Y-105274254D01*
X158553332Y-105249791D01*
X158574461Y-105207072D01*
X158588961Y-105161255D01*
X158597943Y-105106861D01*
X158602512Y-105038410D01*
X158603778Y-104950424D01*
X158603389Y-104906116D01*
X158599038Y-104817224D01*
X158588872Y-104746401D01*
X158571662Y-104688937D01*
X158546181Y-104640120D01*
X158511201Y-104595239D01*
X158483517Y-104567403D01*
X158434728Y-104533911D01*
X158378132Y-104516247D01*
X158306013Y-104511254D01*
X158257870Y-104513921D01*
X158182274Y-104532383D01*
X158120880Y-104569843D01*
X158071331Y-104627995D01*
X158031268Y-104708533D01*
X158029578Y-104712897D01*
X158018067Y-104746770D01*
X158010300Y-104781365D01*
X158005543Y-104822777D01*
X158003060Y-104877098D01*
X158002119Y-104950424D01*
X158002068Y-104977414D01*
X157539653Y-104977414D01*
X157539420Y-104972116D01*
X157540947Y-104880289D01*
X157547944Y-104795097D01*
X157560407Y-104725330D01*
X157593388Y-104624673D01*
X157652667Y-104509713D01*
X157730217Y-104411700D01*
X157825261Y-104331398D01*
X157937023Y-104269578D01*
X158064726Y-104227005D01*
X158103230Y-104219361D01*
X158187102Y-104209739D01*
X158281427Y-104205644D01*
X158377470Y-104207083D01*
X158466495Y-104214064D01*
X158539767Y-104226596D01*
X158597973Y-104243102D01*
X158719532Y-104294580D01*
X158824525Y-104364340D01*
X158912175Y-104451326D01*
X158981703Y-104554483D01*
X159032329Y-104672755D01*
X159063276Y-104805087D01*
X159073765Y-104950424D01*
X159073708Y-104961552D01*
X159061595Y-105106856D01*
G37*
G36*
X158031295Y-100471294D02*
G01*
X158050004Y-100490562D01*
X158071509Y-100521433D01*
X158103931Y-100574794D01*
X157964644Y-100645224D01*
X157961454Y-100646835D01*
X157907250Y-100673770D01*
X157860856Y-100696026D01*
X157827112Y-100711333D01*
X157810856Y-100717419D01*
X157803975Y-100715006D01*
X157786637Y-100697194D01*
X157767073Y-100668534D01*
X157749715Y-100636675D01*
X157738996Y-100609269D01*
X157739346Y-100593967D01*
X157752882Y-100585749D01*
X157784698Y-100569829D01*
X157828452Y-100549362D01*
X157878372Y-100526898D01*
X157928687Y-100504986D01*
X157973625Y-100486178D01*
X158007413Y-100473023D01*
X158024281Y-100468071D01*
X158031295Y-100471294D01*
G37*
G36*
X169659021Y-102326302D02*
G01*
X169659021Y-102150523D01*
X168959657Y-102150523D01*
X168952077Y-102348274D01*
X168950509Y-102383772D01*
X168946226Y-102453792D01*
X168940931Y-102515722D01*
X168935151Y-102563889D01*
X168929411Y-102592622D01*
X168906079Y-102644819D01*
X168856366Y-102705172D01*
X168787773Y-102749922D01*
X168701439Y-102778140D01*
X168692222Y-102779436D01*
X168656004Y-102781891D01*
X168599869Y-102783925D01*
X168527334Y-102785474D01*
X168441918Y-102786472D01*
X168347139Y-102786855D01*
X168246515Y-102786557D01*
X168213549Y-102786340D01*
X168100179Y-102785389D01*
X168008268Y-102783895D01*
X167934909Y-102781364D01*
X167877198Y-102777303D01*
X167832228Y-102771217D01*
X167797094Y-102762612D01*
X167768890Y-102750996D01*
X167744710Y-102735873D01*
X167721650Y-102716751D01*
X167696802Y-102693136D01*
X167670748Y-102662722D01*
X167644424Y-102616901D01*
X167621595Y-102556867D01*
X167600923Y-102478987D01*
X167581066Y-102379633D01*
X167577515Y-102359847D01*
X167568199Y-102308714D01*
X167560467Y-102267306D01*
X167555712Y-102243124D01*
X167555027Y-102239300D01*
X167556895Y-102225748D01*
X167569630Y-102213760D01*
X167597617Y-102200376D01*
X167645241Y-102182632D01*
X167658838Y-102177859D01*
X167701130Y-102163781D01*
X167731537Y-102154844D01*
X167744218Y-102152809D01*
X167747120Y-102164820D01*
X167752756Y-102196960D01*
X167760215Y-102244106D01*
X167768660Y-102301190D01*
X167782457Y-102383104D01*
X167801526Y-102459179D01*
X167824762Y-102515524D01*
X167853401Y-102555016D01*
X167888680Y-102580533D01*
X167888827Y-102580607D01*
X167904276Y-102587088D01*
X167923582Y-102592164D01*
X167949783Y-102595999D01*
X167985914Y-102598757D01*
X168035011Y-102600604D01*
X168100111Y-102601704D01*
X168184248Y-102602221D01*
X168290459Y-102602320D01*
X168356777Y-102602255D01*
X168455337Y-102601784D01*
X168533178Y-102600453D01*
X168593101Y-102597785D01*
X168637908Y-102593303D01*
X168670398Y-102586531D01*
X168693374Y-102576992D01*
X168709634Y-102564212D01*
X168721981Y-102547712D01*
X168733215Y-102527017D01*
X168741891Y-102506412D01*
X168748302Y-102479300D01*
X168751818Y-102442649D01*
X168752910Y-102391282D01*
X168752048Y-102320024D01*
X168748739Y-102156801D01*
X168293598Y-102153505D01*
X167838457Y-102150210D01*
X167838457Y-101974744D01*
X168039347Y-101974744D01*
X169659021Y-101974744D01*
X169659021Y-101560409D01*
X168955907Y-101560409D01*
X168955907Y-101974744D01*
X168755017Y-101974744D01*
X168755017Y-101560409D01*
X168039347Y-101560409D01*
X168039347Y-101974744D01*
X167838457Y-101974744D01*
X167838457Y-101384631D01*
X168039347Y-101384631D01*
X169659021Y-101384631D01*
X169659021Y-100957740D01*
X168955907Y-100957740D01*
X168955907Y-101384631D01*
X168755624Y-101384631D01*
X168752182Y-101174324D01*
X168748739Y-100964018D01*
X168394043Y-100960683D01*
X168039347Y-100957349D01*
X168039347Y-101384631D01*
X167838457Y-101384631D01*
X167838457Y-100781961D01*
X168755017Y-100781961D01*
X168755017Y-100468071D01*
X168955907Y-100468071D01*
X168955907Y-100781961D01*
X169859911Y-100781961D01*
X169859911Y-102326302D01*
X169659021Y-102326302D01*
G37*
G36*
X167738012Y-104033865D02*
G01*
X167260899Y-104033865D01*
X167260899Y-103694863D01*
X167738012Y-103694863D01*
X167738012Y-104033865D01*
G37*
G36*
X173057406Y-104728608D02*
G01*
X173059370Y-104732385D01*
X173049036Y-104736979D01*
X173042389Y-104736073D01*
X173040665Y-104728608D01*
X173042505Y-104727106D01*
X173057406Y-104728608D01*
G37*
G36*
X168632078Y-104445061D02*
G01*
X168635739Y-105107369D01*
X168669153Y-105178649D01*
X168700560Y-105231856D01*
X168752385Y-105283388D01*
X168819129Y-105317550D01*
X168902567Y-105335182D01*
X169004478Y-105337124D01*
X169049589Y-105333446D01*
X169136816Y-105314978D01*
X169205404Y-105281073D01*
X169257307Y-105230070D01*
X169294480Y-105160312D01*
X169318876Y-105070137D01*
X169322236Y-105039605D01*
X169325295Y-104984177D01*
X169327851Y-104905977D01*
X169329882Y-104806202D01*
X169331362Y-104686049D01*
X169332268Y-104546714D01*
X169332575Y-104389394D01*
X169332575Y-103782752D01*
X169809688Y-103782752D01*
X169809250Y-104413672D01*
X169809083Y-104528691D01*
X169808556Y-104666658D01*
X169807640Y-104783069D01*
X169806283Y-104879979D01*
X169804434Y-104959447D01*
X169802041Y-105023528D01*
X169799055Y-105074279D01*
X169795423Y-105113758D01*
X169791094Y-105144022D01*
X169790903Y-105145089D01*
X169757276Y-105267928D01*
X169703549Y-105376094D01*
X169630389Y-105469026D01*
X169538466Y-105546160D01*
X169428447Y-105606936D01*
X169301001Y-105650791D01*
X169156796Y-105677165D01*
X169143968Y-105678587D01*
X168959014Y-105687855D01*
X168785506Y-105674820D01*
X168623500Y-105639487D01*
X168565722Y-105620741D01*
X168483878Y-105585853D01*
X168413015Y-105542355D01*
X168344297Y-105485369D01*
X168305913Y-105447037D01*
X168250369Y-105375061D01*
X168208854Y-105293209D01*
X168177184Y-105194186D01*
X168173727Y-105180239D01*
X168168744Y-105157290D01*
X168164597Y-105132430D01*
X168161211Y-105103340D01*
X168158510Y-105067699D01*
X168156417Y-105023188D01*
X168154855Y-104967486D01*
X168153749Y-104898274D01*
X168153021Y-104813230D01*
X168152596Y-104710035D01*
X168152397Y-104586370D01*
X168152348Y-104439913D01*
X168152348Y-103782752D01*
X168628418Y-103782752D01*
X168632078Y-104445061D01*
G37*
G36*
X172536610Y-104803736D02*
G01*
X172542421Y-104808255D01*
X172529024Y-104811321D01*
X172516289Y-104810433D01*
X172512545Y-104804727D01*
X172516987Y-104802239D01*
X172536610Y-104803736D01*
G37*
G36*
X159819245Y-104206493D02*
G01*
X159931511Y-104213601D01*
X160029925Y-104230199D01*
X160121588Y-104257739D01*
X160213598Y-104297672D01*
X160300267Y-104347562D01*
X160397470Y-104426981D01*
X160474949Y-104521835D01*
X160532779Y-104632244D01*
X160571033Y-104758327D01*
X160589786Y-104900202D01*
X160591347Y-104991447D01*
X160576565Y-105130796D01*
X160540808Y-105256834D01*
X160484727Y-105368794D01*
X160408969Y-105465907D01*
X160314184Y-105547408D01*
X160201019Y-105612526D01*
X160070123Y-105660496D01*
X159922145Y-105690548D01*
X159816048Y-105698419D01*
X159688976Y-105694855D01*
X159560616Y-105679290D01*
X159439225Y-105652762D01*
X159333063Y-105616314D01*
X159275531Y-105591653D01*
X159275531Y-105402872D01*
X159275565Y-105350849D01*
X159276006Y-105293484D01*
X159277416Y-105254933D01*
X159280358Y-105231457D01*
X159285398Y-105219317D01*
X159293100Y-105214775D01*
X159304028Y-105214092D01*
X159305554Y-105214163D01*
X159330672Y-105222782D01*
X159367137Y-105242974D01*
X159407612Y-105270726D01*
X159418814Y-105278922D01*
X159504070Y-105327683D01*
X159596856Y-105360358D01*
X159692761Y-105376881D01*
X159787373Y-105377182D01*
X159876282Y-105361196D01*
X159955076Y-105328855D01*
X160019343Y-105280090D01*
X160024280Y-105274968D01*
X160064678Y-105226496D01*
X160092935Y-105176079D01*
X160110869Y-105118046D01*
X160120296Y-105046723D01*
X160123035Y-104956438D01*
X160122891Y-104907973D01*
X160121629Y-104856909D01*
X160118057Y-104819444D01*
X160110994Y-104788860D01*
X160099257Y-104758441D01*
X160081662Y-104721467D01*
X160049460Y-104665213D01*
X159994135Y-104600989D01*
X159926820Y-104556963D01*
X159844984Y-104531642D01*
X159746095Y-104523533D01*
X159684303Y-104527858D01*
X159593697Y-104547489D01*
X159506258Y-104580362D01*
X159429158Y-104623605D01*
X159369568Y-104674344D01*
X159346160Y-104690635D01*
X159311252Y-104699312D01*
X159275531Y-104699312D01*
X159275531Y-104311892D01*
X159347726Y-104284716D01*
X159384596Y-104271181D01*
X159481570Y-104240156D01*
X159570724Y-104220195D01*
X159661965Y-104209430D01*
X159765200Y-104205992D01*
X159819245Y-104206493D01*
G37*
G36*
X166075676Y-104223618D02*
G01*
X166194704Y-104269793D01*
X166314040Y-104340847D01*
X166394562Y-104397136D01*
X166394562Y-104247310D01*
X166846564Y-104247310D01*
X166846564Y-105653538D01*
X166394562Y-105653538D01*
X166394562Y-104639963D01*
X166316090Y-104604093D01*
X166315579Y-104603859D01*
X166259680Y-104581993D01*
X166204459Y-104569686D01*
X166137172Y-104564089D01*
X166089442Y-104563465D01*
X166027946Y-104569997D01*
X165982176Y-104587980D01*
X165947041Y-104619820D01*
X165917449Y-104667923D01*
X165886060Y-104730701D01*
X165881856Y-105192120D01*
X165877653Y-105653538D01*
X165425868Y-105653538D01*
X165431073Y-105123064D01*
X165431660Y-105064559D01*
X165433154Y-104935396D01*
X165434913Y-104827760D01*
X165437211Y-104739094D01*
X165440321Y-104666840D01*
X165444517Y-104608441D01*
X165450073Y-104561340D01*
X165457262Y-104522980D01*
X165466357Y-104490803D01*
X165477633Y-104462253D01*
X165491364Y-104434771D01*
X165507822Y-104405801D01*
X165559164Y-104336123D01*
X165628737Y-104278068D01*
X165715275Y-104236163D01*
X165820878Y-104209088D01*
X165839534Y-104206171D01*
X165957205Y-104202389D01*
X166075676Y-104223618D01*
G37*
G36*
X159639644Y-101146074D02*
G01*
X159890756Y-101146074D01*
X159890756Y-101321853D01*
X159639644Y-101321853D01*
X159639644Y-102878748D01*
X159463865Y-102878748D01*
X159463865Y-101321853D01*
X159225309Y-101321853D01*
X159225309Y-101146074D01*
X159463865Y-101146074D01*
X159463865Y-100455516D01*
X159639644Y-100455516D01*
X159639644Y-101146074D01*
G37*
G36*
X165063667Y-104121754D02*
G01*
X164762333Y-104121754D01*
X164762333Y-105314537D01*
X165063667Y-105314537D01*
X165063667Y-105653538D01*
X163983885Y-105653538D01*
X163983885Y-105314537D01*
X164285220Y-105314537D01*
X164285220Y-104121754D01*
X163983885Y-104121754D01*
X163983885Y-103782752D01*
X165063667Y-103782752D01*
X165063667Y-104121754D01*
G37*
G36*
X173698324Y-102667271D02*
G01*
X173757941Y-102669267D01*
X173813449Y-102672864D01*
X173859598Y-102677726D01*
X173891137Y-102683516D01*
X173902817Y-102689899D01*
X173900028Y-102692424D01*
X173878447Y-102699099D01*
X173840164Y-102706711D01*
X173790756Y-102714056D01*
X173781904Y-102715279D01*
X173723661Y-102725877D01*
X173651518Y-102742071D01*
X173573801Y-102761885D01*
X173498838Y-102783342D01*
X173423725Y-102805274D01*
X173340074Y-102826041D01*
X173273358Y-102837242D01*
X173220199Y-102839399D01*
X173177217Y-102833034D01*
X173156464Y-102823213D01*
X173156163Y-102808599D01*
X173178926Y-102788904D01*
X173225321Y-102763309D01*
X173276210Y-102740970D01*
X173374751Y-102708249D01*
X173481326Y-102683547D01*
X173585425Y-102669597D01*
X173587765Y-102669421D01*
X173639849Y-102667210D01*
X173698324Y-102667271D01*
G37*
G36*
X172890200Y-104244177D02*
G01*
X172907785Y-104245514D01*
X172916034Y-104251284D01*
X172923480Y-104272718D01*
X172921206Y-104285403D01*
X172907785Y-104301940D01*
X172903738Y-104302836D01*
X172877805Y-104304772D01*
X172833587Y-104306035D01*
X172776018Y-104306521D01*
X172710034Y-104306125D01*
X172677909Y-104305701D01*
X172616185Y-104304553D01*
X172574078Y-104302732D01*
X172547700Y-104299613D01*
X172533161Y-104294571D01*
X172526574Y-104286979D01*
X172524051Y-104276214D01*
X172523298Y-104269665D01*
X172524767Y-104260851D01*
X172532923Y-104254753D01*
X172551452Y-104250737D01*
X172584036Y-104248167D01*
X172634360Y-104246408D01*
X172706108Y-104244825D01*
X172735531Y-104244285D01*
X172799204Y-104243546D01*
X172852383Y-104243515D01*
X172890200Y-104244177D01*
G37*
G36*
X172070861Y-103914592D02*
G01*
X172095573Y-103921539D01*
X172105429Y-103945975D01*
X172110662Y-103968597D01*
X172121341Y-103991468D01*
X172130476Y-103998697D01*
X172166042Y-104012029D01*
X172222058Y-104023701D01*
X172295440Y-104033585D01*
X172383106Y-104041556D01*
X172481974Y-104047487D01*
X172588961Y-104051251D01*
X172700986Y-104052723D01*
X172814965Y-104051776D01*
X172927817Y-104048283D01*
X173036459Y-104042119D01*
X173137809Y-104033155D01*
X173203150Y-104025037D01*
X173259621Y-104014399D01*
X173297409Y-104001380D01*
X173319986Y-103984723D01*
X173330827Y-103963168D01*
X173330904Y-103962862D01*
X173343144Y-103939479D01*
X173366509Y-103935743D01*
X173377920Y-103938467D01*
X173390976Y-103951904D01*
X173394315Y-103982287D01*
X173394009Y-103991285D01*
X173387413Y-104019149D01*
X173370360Y-104041825D01*
X173340408Y-104060185D01*
X173295114Y-104075102D01*
X173232036Y-104087449D01*
X173148731Y-104098099D01*
X173042758Y-104107925D01*
X173007832Y-104110533D01*
X172888304Y-104116322D01*
X172758547Y-104118581D01*
X172624429Y-104117479D01*
X172491820Y-104113181D01*
X172366588Y-104105856D01*
X172254602Y-104095671D01*
X172161731Y-104082794D01*
X172106281Y-104068639D01*
X172062210Y-104043523D01*
X172038870Y-104007594D01*
X172034559Y-103959200D01*
X172038045Y-103934342D01*
X172048122Y-103918315D01*
X172069698Y-103914586D01*
X172070861Y-103914592D01*
G37*
G36*
X172637997Y-104801675D02*
G01*
X172640978Y-104812312D01*
X172638405Y-104816111D01*
X172628423Y-104824868D01*
X172626607Y-104824277D01*
X172615867Y-104812312D01*
X172614862Y-104805662D01*
X172628423Y-104799757D01*
X172637997Y-104801675D01*
G37*
G36*
X173789817Y-105609594D02*
G01*
X173783539Y-105615871D01*
X173777261Y-105609594D01*
X173783539Y-105603316D01*
X173789817Y-105609594D01*
G37*
G36*
X172586832Y-104803736D02*
G01*
X172592644Y-104808255D01*
X172579247Y-104811321D01*
X172566512Y-104810433D01*
X172562767Y-104804727D01*
X172567209Y-104802239D01*
X172586832Y-104803736D01*
G37*
G36*
X172320810Y-104711868D02*
G01*
X172319904Y-104718514D01*
X172312440Y-104720238D01*
X172310937Y-104718398D01*
X172312440Y-104703497D01*
X172316216Y-104701533D01*
X172320810Y-104711868D01*
G37*
G36*
X171680474Y-105603316D02*
G01*
X171679568Y-105609963D01*
X171672104Y-105611686D01*
X171670601Y-105609846D01*
X171672104Y-105594945D01*
X171675880Y-105592981D01*
X171680474Y-105603316D01*
G37*
G36*
X172358477Y-104806035D02*
G01*
X172352199Y-104812312D01*
X172345921Y-104806035D01*
X172352199Y-104799757D01*
X172358477Y-104806035D01*
G37*
G36*
X158893050Y-102331022D02*
G01*
X158915501Y-102350165D01*
X158943554Y-102379003D01*
X158991167Y-102431705D01*
X158955772Y-102457476D01*
X158935009Y-102472766D01*
X158897645Y-102500516D01*
X158850712Y-102535519D01*
X158799759Y-102573642D01*
X158799336Y-102573959D01*
X158752106Y-102608998D01*
X158712426Y-102637775D01*
X158684452Y-102657322D01*
X158672337Y-102664671D01*
X158662246Y-102657989D01*
X158639459Y-102637589D01*
X158609559Y-102608165D01*
X158553583Y-102551027D01*
X158584972Y-102526780D01*
X158608398Y-102509199D01*
X158650731Y-102478789D01*
X158699564Y-102444774D01*
X158750398Y-102410174D01*
X158798734Y-102378008D01*
X158840073Y-102351295D01*
X158869914Y-102333053D01*
X158883760Y-102326302D01*
X158893050Y-102331022D01*
G37*
G36*
X173023924Y-104831146D02*
G01*
X173017647Y-104837424D01*
X173011369Y-104831146D01*
X173017647Y-104824868D01*
X173023924Y-104831146D01*
G37*
G36*
X171855338Y-102674448D02*
G01*
X171949207Y-102682755D01*
X172032910Y-102698350D01*
X172113590Y-102722553D01*
X172198393Y-102756681D01*
X172200471Y-102757606D01*
X172250431Y-102783090D01*
X172277544Y-102804469D01*
X172281296Y-102821122D01*
X172261171Y-102832427D01*
X172252206Y-102834503D01*
X172190072Y-102839423D01*
X172118954Y-102832711D01*
X172049691Y-102815247D01*
X171997225Y-102798112D01*
X171916870Y-102774772D01*
X171831013Y-102752393D01*
X171746973Y-102732760D01*
X171672066Y-102717657D01*
X171613610Y-102708869D01*
X171605948Y-102708039D01*
X171562496Y-102701709D01*
X171541728Y-102694670D01*
X171541503Y-102686251D01*
X171559583Y-102680572D01*
X171600410Y-102676162D01*
X171661435Y-102673287D01*
X171740201Y-102672121D01*
X171744160Y-102672112D01*
X171855338Y-102674448D01*
G37*
G36*
X158019970Y-102137967D02*
G01*
X159288087Y-102137967D01*
X159288087Y-102288635D01*
X158019970Y-102288635D01*
X158019970Y-102604457D01*
X158057749Y-102642236D01*
X158095529Y-102680015D01*
X158303170Y-102675798D01*
X158370557Y-102674506D01*
X158428096Y-102673865D01*
X158466967Y-102674482D01*
X158490625Y-102676716D01*
X158502521Y-102680923D01*
X158506111Y-102687463D01*
X158504848Y-102696692D01*
X158502863Y-102705965D01*
X158496716Y-102740168D01*
X158490281Y-102781442D01*
X158481676Y-102841082D01*
X158258535Y-102841082D01*
X158245290Y-102841080D01*
X158168454Y-102840898D01*
X158111576Y-102840025D01*
X158070161Y-102837927D01*
X158039716Y-102834065D01*
X158015748Y-102827904D01*
X157993761Y-102818906D01*
X157969264Y-102806535D01*
X157934552Y-102786650D01*
X157903241Y-102761970D01*
X157880554Y-102732007D01*
X157865001Y-102692799D01*
X157855086Y-102640386D01*
X157849318Y-102570809D01*
X157846203Y-102480108D01*
X157841938Y-102288635D01*
X157442412Y-102288635D01*
X157442412Y-102137967D01*
X157844191Y-102137967D01*
X157844191Y-101987300D01*
X158019970Y-101987300D01*
X158019970Y-102137967D01*
G37*
G36*
X167725457Y-105653538D02*
G01*
X167273455Y-105653538D01*
X167273455Y-104247310D01*
X167725457Y-104247310D01*
X167725457Y-105653538D01*
G37*
G36*
X172546811Y-104881368D02*
G01*
X172540533Y-104887646D01*
X172534256Y-104881368D01*
X172540533Y-104875090D01*
X172546811Y-104881368D01*
G37*
G36*
X173739594Y-105477760D02*
G01*
X173738688Y-105484407D01*
X173731224Y-105486130D01*
X173729721Y-105484290D01*
X173731224Y-105469389D01*
X173735000Y-105467425D01*
X173739594Y-105477760D01*
G37*
G36*
X156764409Y-102878748D02*
G01*
X156764409Y-102765513D01*
X156139767Y-102768770D01*
X155515126Y-102772026D01*
X155507404Y-102878748D01*
X155333069Y-102878748D01*
X155333069Y-102615081D01*
X155508177Y-102615081D01*
X156764409Y-102615081D01*
X156764409Y-102238178D01*
X156139767Y-102241434D01*
X155515126Y-102244690D01*
X155511651Y-102429885D01*
X155508177Y-102615081D01*
X155333069Y-102615081D01*
X155333069Y-102087745D01*
X156940187Y-102087745D01*
X156940187Y-102878748D01*
X156764409Y-102878748D01*
G37*
G36*
X163680035Y-104782642D02*
G01*
X163673315Y-104884205D01*
X163661702Y-104976045D01*
X163645439Y-105050664D01*
X163642048Y-105062036D01*
X163587428Y-105200182D01*
X163513083Y-105323883D01*
X163420687Y-105431726D01*
X163311916Y-105522297D01*
X163188445Y-105594182D01*
X163051949Y-105645968D01*
X162904102Y-105676240D01*
X162817113Y-105685389D01*
X162738009Y-105688919D01*
X162660056Y-105686224D01*
X162571379Y-105677344D01*
X162495601Y-105665696D01*
X162345859Y-105626516D01*
X162211908Y-105568083D01*
X162094260Y-105490842D01*
X161993425Y-105395240D01*
X161909916Y-105281721D01*
X161844243Y-105150731D01*
X161796918Y-105002716D01*
X161792676Y-104984047D01*
X161776943Y-104880931D01*
X161769577Y-104765018D01*
X161769661Y-104754807D01*
X162264645Y-104754807D01*
X162267535Y-104837580D01*
X162275507Y-104907823D01*
X162277456Y-104918578D01*
X162307730Y-105026167D01*
X162354412Y-105122620D01*
X162415145Y-105204690D01*
X162487575Y-105269131D01*
X162569346Y-105312698D01*
X162628564Y-105329666D01*
X162723498Y-105339171D01*
X162819056Y-105329996D01*
X162908611Y-105302995D01*
X162985537Y-105259023D01*
X163022375Y-105227141D01*
X163086640Y-105147638D01*
X163136128Y-105050044D01*
X163170166Y-104936304D01*
X163188086Y-104808364D01*
X163189215Y-104668169D01*
X163187334Y-104638059D01*
X163168956Y-104501267D01*
X163135536Y-104384159D01*
X163087198Y-104286895D01*
X163024066Y-104209637D01*
X162946266Y-104152542D01*
X162853922Y-104115773D01*
X162747157Y-104099488D01*
X162715219Y-104098196D01*
X162663239Y-104099391D01*
X162619356Y-104106918D01*
X162572398Y-104122232D01*
X162570787Y-104122843D01*
X162483494Y-104168706D01*
X162409673Y-104234816D01*
X162348752Y-104321822D01*
X162300159Y-104430370D01*
X162296496Y-104441539D01*
X162282760Y-104502869D01*
X162272627Y-104580295D01*
X162266465Y-104666660D01*
X162264645Y-104754807D01*
X161769661Y-104754807D01*
X161770567Y-104645340D01*
X161779903Y-104530928D01*
X161797574Y-104430812D01*
X161803580Y-104407224D01*
X161853498Y-104263792D01*
X161922151Y-104136013D01*
X162008614Y-104024909D01*
X162111962Y-103931506D01*
X162231271Y-103856826D01*
X162365616Y-103801893D01*
X162444793Y-103780381D01*
X162589045Y-103756718D01*
X162737548Y-103750083D01*
X162885394Y-103760031D01*
X163027673Y-103786113D01*
X163159477Y-103827881D01*
X163275897Y-103884889D01*
X163289318Y-103893171D01*
X163396064Y-103975222D01*
X163488445Y-104076398D01*
X163564951Y-104194419D01*
X163624071Y-104327003D01*
X163664297Y-104471869D01*
X163668388Y-104494618D01*
X163677816Y-104580349D01*
X163681205Y-104668169D01*
X163681617Y-104678857D01*
X163680035Y-104782642D01*
G37*
G36*
X172584478Y-104881368D02*
G01*
X172578200Y-104887646D01*
X172571922Y-104881368D01*
X172578200Y-104875090D01*
X172584478Y-104881368D01*
G37*
G36*
X156381986Y-104208445D02*
G01*
X156391441Y-104210313D01*
X156463921Y-104231854D01*
X156544312Y-104265800D01*
X156623603Y-104307930D01*
X156692781Y-104354022D01*
X156751853Y-104399128D01*
X156751853Y-104247310D01*
X157203855Y-104247310D01*
X157203855Y-105653538D01*
X156751853Y-105653538D01*
X156751853Y-104640251D01*
X156666101Y-104600726D01*
X156625873Y-104584193D01*
X156543285Y-104562925D01*
X156466863Y-104559901D01*
X156399847Y-104574629D01*
X156345476Y-104606615D01*
X156306991Y-104655367D01*
X156306475Y-104656369D01*
X156299874Y-104670390D01*
X156294486Y-104685933D01*
X156290160Y-104705617D01*
X156286747Y-104732066D01*
X156284098Y-104767898D01*
X156282062Y-104815736D01*
X156280490Y-104878200D01*
X156279233Y-104957913D01*
X156278141Y-105057493D01*
X156277064Y-105179564D01*
X156273110Y-105653538D01*
X155822738Y-105653538D01*
X155822738Y-104638381D01*
X155750543Y-104602960D01*
X155702454Y-104582536D01*
X155649235Y-104569448D01*
X155584181Y-104563732D01*
X155576517Y-104563460D01*
X155503066Y-104566375D01*
X155448080Y-104581448D01*
X155407437Y-104610505D01*
X155377014Y-104655367D01*
X155371032Y-104668373D01*
X155365634Y-104684120D01*
X155361280Y-104704016D01*
X155357827Y-104730682D01*
X155355127Y-104766737D01*
X155353035Y-104814802D01*
X155351406Y-104877497D01*
X155350093Y-104957442D01*
X155348950Y-105057258D01*
X155347832Y-105179564D01*
X155343761Y-105653538D01*
X154890971Y-105653538D01*
X154897027Y-105123064D01*
X154897487Y-105083252D01*
X154899151Y-104952484D01*
X154900975Y-104843513D01*
X154903219Y-104753735D01*
X154906138Y-104680546D01*
X154909991Y-104621342D01*
X154915035Y-104573520D01*
X154921527Y-104534476D01*
X154929725Y-104501606D01*
X154939886Y-104472307D01*
X154952267Y-104443974D01*
X154967127Y-104414005D01*
X154999822Y-104362078D01*
X155064174Y-104296456D01*
X155143805Y-104246658D01*
X155235051Y-104214286D01*
X155334249Y-104200942D01*
X155437737Y-104208227D01*
X155472769Y-104216215D01*
X155549943Y-104243048D01*
X155634414Y-104282145D01*
X155719134Y-104330071D01*
X155797060Y-104383391D01*
X155878105Y-104445004D01*
X155911406Y-104392494D01*
X155934362Y-104360436D01*
X156001807Y-104295065D01*
X156084466Y-104245548D01*
X156178165Y-104213517D01*
X156278729Y-104200605D01*
X156381986Y-104208445D01*
G37*
G36*
X172896343Y-104842097D02*
G01*
X172898368Y-104862535D01*
X172896238Y-104877120D01*
X172886988Y-104887646D01*
X172881471Y-104882556D01*
X172882175Y-104862535D01*
X172886960Y-104847776D01*
X172893555Y-104837424D01*
X172896343Y-104842097D01*
G37*
G36*
X172320810Y-104743257D02*
G01*
X172314532Y-104749534D01*
X172308255Y-104743257D01*
X172314532Y-104736979D01*
X172320810Y-104743257D01*
G37*
G36*
X172517515Y-104879276D02*
G01*
X172519479Y-104883052D01*
X172509144Y-104887646D01*
X172502497Y-104886740D01*
X172500774Y-104879276D01*
X172502614Y-104877773D01*
X172517515Y-104879276D01*
G37*
G36*
X173646170Y-104819250D02*
G01*
X173695180Y-104919427D01*
X173746090Y-105036078D01*
X173797760Y-105166609D01*
X173849052Y-105308423D01*
X173898828Y-105458926D01*
X173907167Y-105485316D01*
X173926420Y-105546152D01*
X173942611Y-105597194D01*
X173954243Y-105633723D01*
X173959818Y-105651021D01*
X173956774Y-105660392D01*
X173936724Y-105664334D01*
X173895766Y-105663577D01*
X173826247Y-105659816D01*
X173795603Y-105571927D01*
X173794213Y-105567944D01*
X173778126Y-105522672D01*
X173764583Y-105485881D01*
X173756389Y-105465204D01*
X173750707Y-105448509D01*
X173744347Y-105416669D01*
X173740749Y-105396744D01*
X173734308Y-105380399D01*
X173729575Y-105379646D01*
X173720346Y-105393027D01*
X173712249Y-105418008D01*
X173707729Y-105446005D01*
X173709231Y-105468435D01*
X173711878Y-105485084D01*
X173701817Y-105483970D01*
X173696897Y-105482704D01*
X173691442Y-105492538D01*
X173689712Y-105520616D01*
X173691300Y-105570287D01*
X173696138Y-105666094D01*
X171743252Y-105666094D01*
X171743252Y-105640242D01*
X171745211Y-105625715D01*
X171752669Y-105620203D01*
X171757984Y-105620202D01*
X171763796Y-105604233D01*
X171765212Y-105572961D01*
X171762477Y-105532359D01*
X171755837Y-105488403D01*
X171745540Y-105447068D01*
X171722091Y-105373030D01*
X171708090Y-105413193D01*
X171707580Y-105414687D01*
X171700445Y-105448330D01*
X171701971Y-105473895D01*
X171704472Y-105484713D01*
X171697403Y-105486740D01*
X171695788Y-105486433D01*
X171685080Y-105498413D01*
X171670505Y-105528709D01*
X171654463Y-105572531D01*
X171623974Y-105666016D01*
X171576044Y-105666055D01*
X171549536Y-105664907D01*
X171534492Y-105658587D01*
X171534461Y-105644122D01*
X171535403Y-105640796D01*
X171542470Y-105615158D01*
X171554285Y-105571838D01*
X171569451Y-105515961D01*
X171586575Y-105452649D01*
X171631480Y-105293022D01*
X171678104Y-105143019D01*
X171723462Y-105014493D01*
X171768246Y-104905629D01*
X171813151Y-104814609D01*
X171858870Y-104739616D01*
X171890040Y-104702861D01*
X171922666Y-104674856D01*
X172250455Y-104674856D01*
X172250951Y-104690860D01*
X172251521Y-104694676D01*
X172260908Y-104726055D01*
X172276753Y-104762007D01*
X172279071Y-104766453D01*
X172293097Y-104790435D01*
X172301458Y-104794392D01*
X172308380Y-104780840D01*
X172313852Y-104768428D01*
X172319413Y-104770782D01*
X172326078Y-104795569D01*
X172326335Y-104796698D01*
X172337868Y-104826119D01*
X172352966Y-104842258D01*
X172360578Y-104843955D01*
X172369643Y-104836863D01*
X172372842Y-104813009D01*
X172371165Y-104768368D01*
X172371047Y-104766479D01*
X172371761Y-104743521D01*
X172376441Y-104738354D01*
X172379184Y-104744366D01*
X172383945Y-104770171D01*
X172387056Y-104807410D01*
X172388340Y-104829726D01*
X172392909Y-104856207D01*
X172403664Y-104868245D01*
X172424607Y-104872806D01*
X172446877Y-104878909D01*
X172452236Y-104888307D01*
X172453429Y-104896989D01*
X172470109Y-104913540D01*
X172497623Y-104930968D01*
X172528479Y-104944753D01*
X172555182Y-104950377D01*
X172572358Y-104953240D01*
X172587138Y-104964682D01*
X172590443Y-104966594D01*
X172598561Y-104953892D01*
X172608304Y-104928636D01*
X172617343Y-104898070D01*
X172623352Y-104869436D01*
X172623687Y-104859396D01*
X172710479Y-104859396D01*
X172718025Y-104869744D01*
X172741423Y-104875090D01*
X172752554Y-104874702D01*
X172768862Y-104868632D01*
X172770566Y-104850956D01*
X172759311Y-104816269D01*
X172745809Y-104780923D01*
X172835590Y-104780923D01*
X172837376Y-104789644D01*
X172851285Y-104799949D01*
X172858711Y-104802049D01*
X172848726Y-104811688D01*
X172845902Y-104813591D01*
X172836942Y-104828047D01*
X172844362Y-104850956D01*
X172844798Y-104852302D01*
X172854833Y-104875001D01*
X172866668Y-104908458D01*
X172870939Y-104920225D01*
X172891735Y-104940694D01*
X172926618Y-104940908D01*
X172937079Y-104935708D01*
X172944265Y-104920983D01*
X172947707Y-104891772D01*
X172948591Y-104842781D01*
X172948558Y-104827262D01*
X172947500Y-104785415D01*
X172944885Y-104768368D01*
X172961146Y-104768368D01*
X172965047Y-104789068D01*
X172976841Y-104799949D01*
X172985532Y-104801821D01*
X172976026Y-104810610D01*
X172975717Y-104810812D01*
X172964827Y-104832123D01*
X172964468Y-104842781D01*
X172963471Y-104872405D01*
X172963748Y-104875915D01*
X172967747Y-104905881D01*
X172975206Y-104916052D01*
X172989396Y-104911343D01*
X173002386Y-104899038D01*
X173012825Y-104871328D01*
X173013039Y-104867670D01*
X173015424Y-104854419D01*
X173019943Y-104865256D01*
X173021334Y-104870000D01*
X173030412Y-104880098D01*
X173049876Y-104871652D01*
X173063586Y-104858507D01*
X173071864Y-104833301D01*
X173074147Y-104790459D01*
X173074191Y-104787201D01*
X173088851Y-104787201D01*
X173089985Y-104804113D01*
X173096543Y-104831394D01*
X173107994Y-104834504D01*
X173123928Y-104813138D01*
X173127231Y-104806559D01*
X173137008Y-104771770D01*
X173131593Y-104746643D01*
X173111904Y-104736979D01*
X173096968Y-104740001D01*
X173089509Y-104754513D01*
X173088851Y-104787201D01*
X173074191Y-104787201D01*
X173074553Y-104760372D01*
X173077921Y-104736217D01*
X173087255Y-104726326D01*
X173105536Y-104724423D01*
X173149481Y-104724423D01*
X173149721Y-104747005D01*
X173150829Y-104771770D01*
X173151014Y-104775899D01*
X173153051Y-104787201D01*
X173153489Y-104787036D01*
X173162710Y-104775308D01*
X173178162Y-104750736D01*
X173187810Y-104732536D01*
X173199103Y-104695859D01*
X173194643Y-104670875D01*
X173174592Y-104661645D01*
X173168784Y-104661914D01*
X173156414Y-104667989D01*
X173155430Y-104671282D01*
X173150803Y-104686769D01*
X173150142Y-104705590D01*
X173149481Y-104724423D01*
X173105536Y-104724423D01*
X173126010Y-104720737D01*
X173136925Y-104705590D01*
X173135402Y-104695848D01*
X173120463Y-104687435D01*
X173089671Y-104698395D01*
X173076703Y-104704715D01*
X173044538Y-104717356D01*
X173036099Y-104721018D01*
X173025836Y-104736665D01*
X173026322Y-104768495D01*
X173026523Y-104770282D01*
X173026177Y-104801078D01*
X173017300Y-104812312D01*
X173008675Y-104802659D01*
X173008691Y-104774646D01*
X173010471Y-104757752D01*
X173005907Y-104740961D01*
X172987683Y-104736979D01*
X172987060Y-104736981D01*
X172966809Y-104743986D01*
X172961146Y-104768368D01*
X172944885Y-104768368D01*
X172943907Y-104761996D01*
X172936369Y-104751779D01*
X172923480Y-104749534D01*
X172907605Y-104753448D01*
X172898368Y-104773905D01*
X172896530Y-104788277D01*
X172886984Y-104805311D01*
X172881343Y-104804211D01*
X172882170Y-104787219D01*
X172882196Y-104787118D01*
X172881694Y-104767401D01*
X172862166Y-104762090D01*
X172846193Y-104765621D01*
X172835590Y-104780923D01*
X172745809Y-104780923D01*
X172744740Y-104782846D01*
X172728366Y-104812312D01*
X172716555Y-104837436D01*
X172710479Y-104859396D01*
X172623687Y-104859396D01*
X172624001Y-104849979D01*
X172623174Y-104841514D01*
X172629132Y-104840373D01*
X172629241Y-104840477D01*
X172640826Y-104837213D01*
X172655437Y-104816965D01*
X172660961Y-104806163D01*
X172670679Y-104782846D01*
X172666441Y-104775115D01*
X172647256Y-104778284D01*
X172632180Y-104780219D01*
X172622145Y-104774896D01*
X172619959Y-104771783D01*
X172600563Y-104763740D01*
X172567625Y-104756765D01*
X172556859Y-104755132D01*
X172513842Y-104748324D01*
X172479735Y-104742539D01*
X172474603Y-104741688D01*
X172452121Y-104743071D01*
X172445115Y-104758706D01*
X172445033Y-104759969D01*
X172441779Y-104766953D01*
X172435132Y-104749534D01*
X172425187Y-104729555D01*
X172401856Y-104718145D01*
X172387296Y-104716517D01*
X172369907Y-104708106D01*
X172364770Y-104704137D01*
X172340550Y-104692983D01*
X172305201Y-104680821D01*
X172278912Y-104673141D01*
X172268820Y-104671315D01*
X172489518Y-104671315D01*
X172490673Y-104671874D01*
X172508843Y-104676574D01*
X172544016Y-104684162D01*
X172590021Y-104693287D01*
X172593592Y-104693963D01*
X172648613Y-104702861D01*
X172700832Y-104708923D01*
X172739389Y-104710869D01*
X172769365Y-104708487D01*
X172819132Y-104701577D01*
X172874731Y-104691916D01*
X172926090Y-104681281D01*
X172963139Y-104671444D01*
X172963368Y-104671282D01*
X172951471Y-104670217D01*
X172918580Y-104669295D01*
X172868291Y-104668569D01*
X172804204Y-104668093D01*
X172729914Y-104667923D01*
X172719943Y-104667926D01*
X172646102Y-104668132D01*
X172582394Y-104668627D01*
X172532565Y-104669357D01*
X172500358Y-104670271D01*
X172489518Y-104671315D01*
X172268820Y-104671315D01*
X172257783Y-104669318D01*
X172250455Y-104674856D01*
X171922666Y-104674856D01*
X171944862Y-104655804D01*
X172008332Y-104614531D01*
X172071583Y-104585469D01*
X172117413Y-104569618D01*
X172021361Y-104520504D01*
X171972616Y-104495181D01*
X171876990Y-104442026D01*
X171796487Y-104390933D01*
X171725149Y-104337614D01*
X171657022Y-104277782D01*
X171586149Y-104207146D01*
X171542936Y-104161252D01*
X171493547Y-104105084D01*
X171454180Y-104053937D01*
X171419681Y-104000953D01*
X171384897Y-103939273D01*
X171357322Y-103888223D01*
X171335038Y-103849379D01*
X171318291Y-103825621D01*
X171303784Y-103813227D01*
X171288220Y-103808475D01*
X171268302Y-103807646D01*
X171236640Y-103805413D01*
X171187954Y-103798765D01*
X171136543Y-103789279D01*
X171075184Y-103772634D01*
X170978998Y-103727842D01*
X170896759Y-103662480D01*
X170827070Y-103575585D01*
X170778514Y-103490143D01*
X170745060Y-103398422D01*
X170732391Y-103305426D01*
X170734082Y-103280528D01*
X170846252Y-103280528D01*
X170846574Y-103321118D01*
X170848837Y-103367464D01*
X170854635Y-103401904D01*
X170865547Y-103432412D01*
X170883151Y-103466958D01*
X170905132Y-103502348D01*
X170964368Y-103571978D01*
X171035191Y-103629728D01*
X171110272Y-103669077D01*
X171138778Y-103678443D01*
X171188658Y-103690248D01*
X171229789Y-103694863D01*
X171230106Y-103694863D01*
X171261907Y-103693265D01*
X171274326Y-103686478D01*
X171272962Y-103671470D01*
X171262964Y-103634010D01*
X171248991Y-103562008D01*
X171235819Y-103471616D01*
X171224000Y-103366778D01*
X171214088Y-103251442D01*
X171208325Y-103173105D01*
X171318782Y-103173105D01*
X171321016Y-103214068D01*
X171325416Y-103267799D01*
X171331460Y-103329228D01*
X171338628Y-103393282D01*
X171346400Y-103454889D01*
X171354254Y-103508977D01*
X171361671Y-103550474D01*
X171396236Y-103686478D01*
X171397276Y-103690570D01*
X171447175Y-103824321D01*
X171511673Y-103944717D01*
X171593596Y-104056967D01*
X171695770Y-104166282D01*
X171782416Y-104242712D01*
X171927946Y-104345163D01*
X172087951Y-104430516D01*
X172258516Y-104496786D01*
X172435726Y-104541983D01*
X172457028Y-104545600D01*
X172511901Y-104552745D01*
X172576829Y-104559188D01*
X172645979Y-104564563D01*
X172713519Y-104568501D01*
X172773615Y-104570633D01*
X172820435Y-104570593D01*
X172848146Y-104568011D01*
X172854183Y-104566778D01*
X172883084Y-104561997D01*
X172927106Y-104555410D01*
X172979396Y-104548060D01*
X173086001Y-104527897D01*
X173226255Y-104487151D01*
X173367332Y-104432034D01*
X173501321Y-104365713D01*
X173620316Y-104291356D01*
X173630039Y-104284294D01*
X173697880Y-104228210D01*
X173770784Y-104158241D01*
X173842342Y-104081226D01*
X173906142Y-104004006D01*
X173955775Y-103933420D01*
X173967130Y-103914609D01*
X174030314Y-103784475D01*
X174059540Y-103694863D01*
X174183092Y-103694863D01*
X174234428Y-103694853D01*
X174255988Y-103693182D01*
X174314490Y-103677900D01*
X174378592Y-103649826D01*
X174440244Y-103612844D01*
X174491398Y-103570839D01*
X174504846Y-103557035D01*
X174549265Y-103502525D01*
X174578459Y-103446060D01*
X174595492Y-103380167D01*
X174603425Y-103297373D01*
X174604690Y-103267155D01*
X174605081Y-103218262D01*
X174601418Y-103181916D01*
X174592498Y-103149680D01*
X174577115Y-103113118D01*
X174552101Y-103067489D01*
X174517927Y-103018444D01*
X174480505Y-102973939D01*
X174444814Y-102939870D01*
X174415832Y-102922133D01*
X174400783Y-102921474D01*
X174373522Y-102934419D01*
X174335659Y-102965599D01*
X174309677Y-102988315D01*
X174293585Y-103000590D01*
X174282669Y-103008917D01*
X174267210Y-103016860D01*
X174266601Y-103016945D01*
X174260179Y-103030646D01*
X174255918Y-103064794D01*
X174254374Y-103115124D01*
X174253801Y-103141449D01*
X174252984Y-103178955D01*
X174246507Y-103284033D01*
X174235689Y-103394566D01*
X174221582Y-103500374D01*
X174205236Y-103591279D01*
X174183092Y-103694863D01*
X174059540Y-103694863D01*
X174079503Y-103633652D01*
X174114652Y-103462313D01*
X174135714Y-103270628D01*
X174144677Y-103141449D01*
X174113261Y-103155763D01*
X174109684Y-103157468D01*
X174091606Y-103171386D01*
X174086051Y-103184119D01*
X174081263Y-103195096D01*
X174075015Y-103236256D01*
X174073577Y-103248237D01*
X174053508Y-103325759D01*
X174017624Y-103390206D01*
X173968486Y-103436756D01*
X173942811Y-103451292D01*
X173900462Y-103467685D01*
X173847300Y-103480291D01*
X173780482Y-103489469D01*
X173697164Y-103495581D01*
X173594500Y-103498987D01*
X173469649Y-103500049D01*
X173404411Y-103500002D01*
X173328657Y-103499588D01*
X173271446Y-103498464D01*
X173228895Y-103496293D01*
X173197119Y-103492738D01*
X173172236Y-103487464D01*
X173150362Y-103480133D01*
X173127613Y-103470409D01*
X173103553Y-103458001D01*
X173056549Y-103426762D01*
X173019268Y-103393670D01*
X173000336Y-103369033D01*
X172972566Y-103321965D01*
X172947898Y-103269204D01*
X172930235Y-103219408D01*
X172923480Y-103181234D01*
X172922752Y-103174711D01*
X172913670Y-103163426D01*
X172889997Y-103155746D01*
X172846478Y-103149504D01*
X172839137Y-103148758D01*
X172785594Y-103146138D01*
X172721536Y-103146355D01*
X172659254Y-103149415D01*
X172549031Y-103158037D01*
X172548824Y-103159149D01*
X172540558Y-103203588D01*
X172520970Y-103275675D01*
X172478252Y-103357317D01*
X172416250Y-103422954D01*
X172334658Y-103472989D01*
X172325821Y-103476971D01*
X172305285Y-103484842D01*
X172282444Y-103490666D01*
X172253498Y-103494748D01*
X172214646Y-103497392D01*
X172162087Y-103498903D01*
X172092019Y-103499584D01*
X172000642Y-103499742D01*
X171947304Y-103499598D01*
X171834281Y-103497929D01*
X171742083Y-103494042D01*
X171667712Y-103487508D01*
X171608168Y-103477898D01*
X171560453Y-103464779D01*
X171521568Y-103447724D01*
X171488514Y-103426302D01*
X171486196Y-103424508D01*
X171436462Y-103370158D01*
X171404356Y-103301192D01*
X171392378Y-103222904D01*
X171390336Y-103193515D01*
X171380676Y-103170979D01*
X171358684Y-103156517D01*
X171334207Y-103147599D01*
X171320243Y-103146905D01*
X171319234Y-103149984D01*
X171318782Y-103173105D01*
X171208325Y-103173105D01*
X171205692Y-103137312D01*
X171432121Y-103137312D01*
X171432369Y-103206496D01*
X171434282Y-103227475D01*
X171449907Y-103299854D01*
X171480023Y-103355298D01*
X171526945Y-103396005D01*
X171592990Y-103424174D01*
X171680474Y-103442003D01*
X171704095Y-103444940D01*
X171781899Y-103452164D01*
X171870417Y-103457624D01*
X171962516Y-103461103D01*
X172051064Y-103462385D01*
X172128929Y-103461251D01*
X172188976Y-103457486D01*
X172233973Y-103451015D01*
X172322878Y-103424728D01*
X172393027Y-103382103D01*
X172444970Y-103322738D01*
X172479258Y-103246234D01*
X172485009Y-103226032D01*
X172496976Y-103159149D01*
X172494084Y-103133456D01*
X172974484Y-103133456D01*
X172976945Y-103195058D01*
X172998942Y-103271711D01*
X173020043Y-103317512D01*
X173062843Y-103373218D01*
X173121001Y-103414002D01*
X173197058Y-103441466D01*
X173293555Y-103457209D01*
X173329297Y-103460444D01*
X173404683Y-103465185D01*
X173477452Y-103466092D01*
X173556746Y-103463143D01*
X173651705Y-103456314D01*
X173759325Y-103445518D01*
X173845651Y-103431608D01*
X173911856Y-103412891D01*
X173960434Y-103387565D01*
X173993879Y-103353827D01*
X174014684Y-103309874D01*
X174025345Y-103253906D01*
X174028354Y-103184119D01*
X174027378Y-103135035D01*
X174021865Y-103091620D01*
X174008985Y-103063465D01*
X173985962Y-103045146D01*
X173950015Y-103031241D01*
X173907356Y-103020747D01*
X173831002Y-103009118D01*
X173738666Y-103000689D01*
X173635459Y-102995458D01*
X173526492Y-102993426D01*
X173416876Y-102994593D01*
X173311722Y-102998959D01*
X173216142Y-103006523D01*
X173135247Y-103017287D01*
X173074147Y-103031249D01*
X173029626Y-103050734D01*
X172991922Y-103085738D01*
X172974484Y-103133456D01*
X172494084Y-103133456D01*
X172491249Y-103108274D01*
X172466154Y-103070480D01*
X172420016Y-103042840D01*
X172351160Y-103022427D01*
X172348259Y-103021798D01*
X172274926Y-103010036D01*
X172184460Y-103001659D01*
X172082119Y-102996604D01*
X171973165Y-102994808D01*
X171862856Y-102996208D01*
X171756453Y-103000740D01*
X171659215Y-103008341D01*
X171576404Y-103018948D01*
X171513278Y-103032498D01*
X171509443Y-103033658D01*
X171469118Y-103054204D01*
X171443857Y-103087652D01*
X171432121Y-103137312D01*
X171205692Y-103137312D01*
X171198554Y-103040300D01*
X171160152Y-103024247D01*
X171128183Y-103006841D01*
X171124944Y-103004147D01*
X171316361Y-103004147D01*
X171316812Y-103034284D01*
X171320486Y-103065805D01*
X171330065Y-103085068D01*
X171348142Y-103099883D01*
X171348713Y-103100256D01*
X171371710Y-103113262D01*
X171383043Y-103115867D01*
X171384230Y-103113694D01*
X171393309Y-103094837D01*
X171407288Y-103064511D01*
X171412888Y-103053160D01*
X171436921Y-103020917D01*
X171471812Y-102997666D01*
X171522295Y-102980958D01*
X171593103Y-102968344D01*
X171664323Y-102959779D01*
X171784679Y-102950224D01*
X171907739Y-102945832D01*
X172029568Y-102946390D01*
X172146232Y-102951689D01*
X172253795Y-102961516D01*
X172348324Y-102975661D01*
X172425882Y-102993912D01*
X172482536Y-103016059D01*
X172482905Y-103016259D01*
X172507899Y-103038843D01*
X172527876Y-103071232D01*
X172544481Y-103111027D01*
X172923485Y-103103491D01*
X172942446Y-103066826D01*
X172950813Y-103052918D01*
X172975785Y-103026757D01*
X173012320Y-103005411D01*
X173063125Y-102988077D01*
X173130907Y-102973947D01*
X173218374Y-102962218D01*
X173328233Y-102952084D01*
X173334794Y-102951582D01*
X173424306Y-102947128D01*
X173522495Y-102945969D01*
X173623740Y-102947844D01*
X173722419Y-102952497D01*
X173812911Y-102959668D01*
X173889595Y-102969100D01*
X173946849Y-102980533D01*
X173961989Y-102985361D01*
X174011419Y-103011541D01*
X174050350Y-103047585D01*
X174071541Y-103087292D01*
X174071583Y-103087459D01*
X174082247Y-103112123D01*
X174098042Y-103113750D01*
X174122107Y-103092673D01*
X174122599Y-103092125D01*
X174130894Y-103080258D01*
X174136548Y-103063776D01*
X174139870Y-103038585D01*
X174141169Y-103000590D01*
X174140754Y-102945697D01*
X174138935Y-102869811D01*
X174137935Y-102834701D01*
X174135555Y-102768101D01*
X174132497Y-102719401D01*
X174127988Y-102683546D01*
X174121254Y-102655484D01*
X174111522Y-102630161D01*
X174098018Y-102602525D01*
X174056511Y-102527010D01*
X173983153Y-102418348D01*
X173903708Y-102331630D01*
X173815932Y-102264947D01*
X173717583Y-102216390D01*
X173606418Y-102184049D01*
X173605842Y-102183928D01*
X173559889Y-102174965D01*
X173532188Y-102172091D01*
X173516684Y-102175351D01*
X173507315Y-102184791D01*
X173487089Y-102213586D01*
X173460826Y-102240912D01*
X173430474Y-102255906D01*
X173386939Y-102264596D01*
X173382364Y-102265221D01*
X173319555Y-102270790D01*
X173238750Y-102273962D01*
X173146359Y-102274821D01*
X173048793Y-102273450D01*
X172952462Y-102269933D01*
X172863777Y-102264354D01*
X172789150Y-102256796D01*
X172679781Y-102239390D01*
X172529124Y-102206976D01*
X172374419Y-102165364D01*
X172222954Y-102116745D01*
X172082019Y-102063311D01*
X171958902Y-102007251D01*
X171938014Y-101996713D01*
X171905905Y-101981492D01*
X171889015Y-101976697D01*
X171882463Y-101981581D01*
X171881364Y-101995399D01*
X171874917Y-102022858D01*
X171857361Y-102065203D01*
X171831931Y-102116115D01*
X171801860Y-102169519D01*
X171770386Y-102219338D01*
X171740742Y-102259496D01*
X171738871Y-102261728D01*
X171700126Y-102302840D01*
X171651357Y-102348102D01*
X171602656Y-102388117D01*
X171591843Y-102396428D01*
X171526031Y-102454850D01*
X171472091Y-102519608D01*
X171427171Y-102595394D01*
X171388419Y-102686901D01*
X171352981Y-102798822D01*
X171350073Y-102809360D01*
X171332359Y-102883510D01*
X171320614Y-102951283D01*
X171316361Y-103004147D01*
X171124944Y-103004147D01*
X171103830Y-102986588D01*
X171082146Y-102966973D01*
X171050682Y-102946764D01*
X171030318Y-102937652D01*
X171013751Y-102937801D01*
X170994598Y-102950513D01*
X170965446Y-102978552D01*
X170946728Y-102999101D01*
X170910327Y-103046929D01*
X170880780Y-103094904D01*
X170871232Y-103113822D01*
X170858000Y-103146029D01*
X170850424Y-103179185D01*
X170847007Y-103221337D01*
X170846252Y-103280528D01*
X170734082Y-103280528D01*
X170739175Y-103205545D01*
X170752247Y-103148445D01*
X170778013Y-103076424D01*
X170811488Y-103006325D01*
X170848948Y-102945798D01*
X170886670Y-102902491D01*
X170895976Y-102894201D01*
X170917190Y-102871851D01*
X170922765Y-102854224D01*
X170916146Y-102833223D01*
X170906287Y-102799329D01*
X170902026Y-102759350D01*
X170900520Y-102740169D01*
X170891920Y-102696119D01*
X170878237Y-102650080D01*
X170874426Y-102639237D01*
X170842272Y-102529982D01*
X170813925Y-102402182D01*
X170790118Y-102261577D01*
X170771586Y-102113911D01*
X170759064Y-101964925D01*
X170753284Y-101820363D01*
X170754981Y-101685965D01*
X170756136Y-101663207D01*
X170770766Y-101511806D01*
X170796533Y-101364869D01*
X170832182Y-101227368D01*
X170876456Y-101104276D01*
X170928101Y-101000567D01*
X170943958Y-100975757D01*
X170997635Y-100906034D01*
X171064801Y-100832831D01*
X171139238Y-100762204D01*
X171214726Y-100700211D01*
X171285048Y-100652908D01*
X171328156Y-100626379D01*
X171380100Y-100587295D01*
X171409902Y-100553424D01*
X171418690Y-100539183D01*
X171478582Y-100463502D01*
X171558076Y-100388880D01*
X171652660Y-100318402D01*
X171757820Y-100255152D01*
X171869041Y-100202215D01*
X171981809Y-100162675D01*
X172055580Y-100145227D01*
X172164437Y-100127504D01*
X172287923Y-100114160D01*
X172420424Y-100105439D01*
X172556326Y-100101582D01*
X172690016Y-100102835D01*
X172815881Y-100109439D01*
X172928307Y-100121640D01*
X173005890Y-100134078D01*
X173246803Y-100188617D01*
X173477527Y-100265953D01*
X173699156Y-100366495D01*
X173912783Y-100490654D01*
X173913471Y-100491100D01*
X173989904Y-100542623D01*
X174057963Y-100593392D01*
X174122322Y-100647585D01*
X174187656Y-100709382D01*
X174258640Y-100782961D01*
X174339948Y-100872501D01*
X174344128Y-100877195D01*
X174420818Y-100961809D01*
X174484943Y-101029083D01*
X174539149Y-101081437D01*
X174586081Y-101121290D01*
X174628386Y-101151062D01*
X174668709Y-101173172D01*
X174686036Y-101182091D01*
X174722513Y-101205152D01*
X174746903Y-101226392D01*
X174765567Y-101264616D01*
X174765381Y-101310173D01*
X174745802Y-101353729D01*
X174708445Y-101388481D01*
X174681103Y-101405520D01*
X174659837Y-101419210D01*
X174655373Y-101425134D01*
X174651964Y-101443252D01*
X174652017Y-101475887D01*
X174655586Y-101526482D01*
X174662726Y-101598481D01*
X174662924Y-101600339D01*
X174669896Y-101680777D01*
X174675664Y-101774516D01*
X174679634Y-101870060D01*
X174681212Y-101955911D01*
X174681562Y-101996167D01*
X174684712Y-102089538D01*
X174690893Y-102165226D01*
X174699847Y-102219579D01*
X174707651Y-102254531D01*
X174715335Y-102296288D01*
X174718485Y-102324128D01*
X174718384Y-102327330D01*
X174706370Y-102358980D01*
X174679944Y-102391364D01*
X174647029Y-102416585D01*
X174615546Y-102426746D01*
X174610067Y-102426955D01*
X174599446Y-102430206D01*
X174590176Y-102440188D01*
X174580823Y-102460442D01*
X174569952Y-102494505D01*
X174556129Y-102545918D01*
X174537918Y-102618219D01*
X174528251Y-102656918D01*
X174512543Y-102719128D01*
X174499379Y-102770419D01*
X174489915Y-102806303D01*
X174485309Y-102822294D01*
X174488191Y-102831457D01*
X174505999Y-102852723D01*
X174535148Y-102878778D01*
X174588998Y-102930667D01*
X174649331Y-103016896D01*
X174694835Y-103119736D01*
X174713523Y-103198899D01*
X174714410Y-103218262D01*
X174718261Y-103302371D01*
X174703574Y-103405350D01*
X174670005Y-103499522D01*
X174623965Y-103579436D01*
X174552618Y-103664859D01*
X174467659Y-103729415D01*
X174368064Y-103773841D01*
X174252805Y-103798873D01*
X174216110Y-103803715D01*
X174174377Y-103810717D01*
X174149157Y-103818393D01*
X174135219Y-103828590D01*
X174127336Y-103843151D01*
X174124282Y-103850751D01*
X174100734Y-103898576D01*
X174066384Y-103958071D01*
X174025362Y-104022675D01*
X173981802Y-104085824D01*
X173939834Y-104140957D01*
X173917689Y-104167621D01*
X173852751Y-104238630D01*
X173783874Y-104302078D01*
X173706103Y-104361891D01*
X173614487Y-104421996D01*
X173504070Y-104486319D01*
X173375268Y-104558149D01*
X173444107Y-104591829D01*
X173472461Y-104607705D01*
X173518767Y-104640592D01*
X173554524Y-104674083D01*
X173558401Y-104678701D01*
X173570465Y-104695859D01*
X173600197Y-104738143D01*
X173646170Y-104819250D01*
G37*
G36*
X173742901Y-105511978D02*
G01*
X173741716Y-105532456D01*
X173738546Y-105543472D01*
X173733831Y-105551061D01*
X173729414Y-105535577D01*
X173728924Y-105533284D01*
X173722751Y-105519741D01*
X173712256Y-105529299D01*
X173711493Y-105530387D01*
X173703014Y-105540434D01*
X173704791Y-105529079D01*
X173709101Y-105520742D01*
X173729334Y-105508442D01*
X173742901Y-105511978D01*
G37*
G36*
X167185566Y-100769406D02*
G01*
X166394562Y-100769406D01*
X166363245Y-100769413D01*
X166226395Y-100769621D01*
X166097713Y-100770098D01*
X165979319Y-100770817D01*
X165873330Y-100771754D01*
X165781863Y-100772884D01*
X165707036Y-100774181D01*
X165650967Y-100775619D01*
X165615773Y-100777175D01*
X165603573Y-100778823D01*
X165610390Y-100785643D01*
X165635328Y-100805911D01*
X165676361Y-100837699D01*
X165731172Y-100879254D01*
X165797448Y-100928825D01*
X165872873Y-100984658D01*
X165955131Y-101044999D01*
X166306673Y-101301759D01*
X166306673Y-101560409D01*
X167449233Y-101560409D01*
X167449233Y-101736188D01*
X166306673Y-101736188D01*
X166306673Y-102138591D01*
X166306675Y-102160073D01*
X166306860Y-102275341D01*
X166307642Y-102368560D01*
X166309436Y-102442355D01*
X166312656Y-102499349D01*
X166317716Y-102542170D01*
X166325032Y-102573441D01*
X166335017Y-102595787D01*
X166348085Y-102611834D01*
X166364653Y-102624207D01*
X166385132Y-102635531D01*
X166397035Y-102640997D01*
X166418363Y-102647264D01*
X166446891Y-102650953D01*
X166487086Y-102652322D01*
X166543413Y-102651630D01*
X166620338Y-102649136D01*
X166657183Y-102647640D01*
X166722239Y-102644379D01*
X166776759Y-102640847D01*
X166815890Y-102637382D01*
X166834776Y-102634318D01*
X166840938Y-102632706D01*
X166847049Y-102636685D01*
X166848610Y-102652535D01*
X166845786Y-102684561D01*
X166838742Y-102737064D01*
X166835476Y-102760069D01*
X166828972Y-102805650D01*
X166824292Y-102838125D01*
X166822280Y-102851614D01*
X166821580Y-102851906D01*
X166804210Y-102852876D01*
X166766337Y-102853331D01*
X166711711Y-102853273D01*
X166644082Y-102852700D01*
X166567202Y-102851614D01*
X166550236Y-102851327D01*
X166467044Y-102849682D01*
X166404192Y-102847717D01*
X166357621Y-102844997D01*
X166323273Y-102841084D01*
X166297088Y-102835542D01*
X166275007Y-102827934D01*
X166252970Y-102817824D01*
X166214000Y-102794638D01*
X166157497Y-102739268D01*
X166117520Y-102665303D01*
X166117289Y-102664688D01*
X166112383Y-102644395D01*
X166108251Y-102611087D01*
X166104804Y-102562749D01*
X166101954Y-102497364D01*
X166099610Y-102412918D01*
X166097686Y-102307392D01*
X166096091Y-102178773D01*
X166091505Y-101736188D01*
X165013445Y-101736188D01*
X165013445Y-101560409D01*
X166093227Y-101560409D01*
X166093227Y-101387360D01*
X165685170Y-101087936D01*
X165277113Y-100788513D01*
X165277113Y-100593627D01*
X167185566Y-100593627D01*
X167185566Y-100769406D01*
G37*
G36*
X172446366Y-104843701D02*
G01*
X172440089Y-104849979D01*
X172433811Y-104843701D01*
X172440089Y-104837424D01*
X172446366Y-104843701D01*
G37*
G36*
X172936035Y-104806035D02*
G01*
X172929757Y-104812312D01*
X172923480Y-104806035D01*
X172929757Y-104799757D01*
X172936035Y-104806035D01*
G37*
G36*
X158923974Y-102037523D02*
G01*
X158923974Y-101836633D01*
X158471972Y-101836633D01*
X158471972Y-101999856D01*
X158297392Y-101999856D01*
X158293654Y-101921383D01*
X158289916Y-101842911D01*
X158060776Y-101839488D01*
X157831636Y-101836066D01*
X157831636Y-101987300D01*
X157655857Y-101987300D01*
X157655857Y-101698521D01*
X157831636Y-101698521D01*
X158923974Y-101698521D01*
X158923974Y-101522742D01*
X158471972Y-101522742D01*
X158471972Y-101698521D01*
X158297341Y-101698521D01*
X158293628Y-101613771D01*
X158289916Y-101529020D01*
X157831636Y-101522176D01*
X157831636Y-101698521D01*
X157655857Y-101698521D01*
X157655857Y-101384631D01*
X157831636Y-101384631D01*
X158923974Y-101384631D01*
X158923974Y-101208852D01*
X158471972Y-101208852D01*
X158471972Y-101384631D01*
X158296193Y-101384631D01*
X158296193Y-101208852D01*
X157831636Y-101208852D01*
X157831636Y-101384631D01*
X157655857Y-101384631D01*
X157655857Y-101058185D01*
X158296193Y-101058185D01*
X158296193Y-100894962D01*
X157505190Y-100894962D01*
X157505190Y-100744295D01*
X158296193Y-100744295D01*
X158296193Y-100455516D01*
X158471972Y-100455516D01*
X158471972Y-100744295D01*
X159225309Y-100744295D01*
X159225309Y-100894962D01*
X158471972Y-100894962D01*
X158471972Y-101058185D01*
X159099752Y-101058185D01*
X159099752Y-102037523D01*
X158923974Y-102037523D01*
G37*
G36*
X173174592Y-104730701D02*
G01*
X173168314Y-104736979D01*
X173162036Y-104730701D01*
X173168314Y-104724423D01*
X173174592Y-104730701D01*
G37*
G36*
X157025889Y-101404699D02*
G01*
X157099115Y-101462508D01*
X157226653Y-101557354D01*
X157167739Y-101615382D01*
X157137582Y-101643777D01*
X157112100Y-101665212D01*
X157098506Y-101673410D01*
X157093154Y-101671411D01*
X157070218Y-101656763D01*
X157034296Y-101630579D01*
X156989434Y-101596058D01*
X156939676Y-101556398D01*
X156889069Y-101514797D01*
X156841657Y-101474455D01*
X156801485Y-101438569D01*
X156725822Y-101368519D01*
X156622698Y-101468818D01*
X156592556Y-101497138D01*
X156534964Y-101547443D01*
X156476951Y-101594225D01*
X156427386Y-101630155D01*
X156335198Y-101691192D01*
X156402275Y-101714133D01*
X156443580Y-101727513D01*
X156546377Y-101756487D01*
X156666335Y-101785668D01*
X156798110Y-101813946D01*
X156936358Y-101840208D01*
X157075737Y-101863345D01*
X157210903Y-101882246D01*
X157387451Y-101904318D01*
X157336459Y-101988861D01*
X157318246Y-102018136D01*
X157294724Y-102050641D01*
X157276568Y-102066246D01*
X157260355Y-102068531D01*
X157244357Y-102065788D01*
X157206783Y-102059848D01*
X157155618Y-102052037D01*
X157097133Y-102043323D01*
X156901598Y-102010640D01*
X156579324Y-101938807D01*
X156270742Y-101846756D01*
X156122354Y-101796487D01*
X155986631Y-101841573D01*
X155933001Y-101858818D01*
X155704322Y-101920623D01*
X155457537Y-101969262D01*
X155190782Y-102005118D01*
X155135093Y-102011284D01*
X155087052Y-102015573D01*
X155053827Y-102014236D01*
X155029830Y-102004863D01*
X155009474Y-101985043D01*
X154987172Y-101952367D01*
X154957335Y-101904424D01*
X154909148Y-101827825D01*
X155111692Y-101820350D01*
X155192139Y-101816589D01*
X155463864Y-101791243D01*
X155721436Y-101746783D01*
X155729116Y-101745131D01*
X155800357Y-101729694D01*
X155848359Y-101717562D01*
X155874200Y-101706373D01*
X155878956Y-101693765D01*
X155863703Y-101677374D01*
X155829517Y-101654840D01*
X155777476Y-101623800D01*
X155695900Y-101572084D01*
X155610153Y-101511776D01*
X155529072Y-101449184D01*
X155458559Y-101388871D01*
X155404515Y-101335400D01*
X155383294Y-101310709D01*
X155366981Y-101284186D01*
X155616922Y-101284186D01*
X155660191Y-101329178D01*
X155668631Y-101337569D01*
X155715905Y-101377549D01*
X155779045Y-101423393D01*
X155852451Y-101471396D01*
X155930521Y-101517853D01*
X156007655Y-101559057D01*
X156030613Y-101570320D01*
X156075186Y-101590992D01*
X156109465Y-101605291D01*
X156127448Y-101610632D01*
X156147925Y-101604682D01*
X156185262Y-101586433D01*
X156233677Y-101558772D01*
X156288463Y-101524640D01*
X156344913Y-101486981D01*
X156398321Y-101448733D01*
X156443979Y-101412840D01*
X156473628Y-101388248D01*
X156507285Y-101360293D01*
X156532139Y-101337818D01*
X156546559Y-101320230D01*
X156548916Y-101306934D01*
X156537577Y-101297337D01*
X156510914Y-101290845D01*
X156467296Y-101286864D01*
X156405092Y-101284802D01*
X156322672Y-101284064D01*
X156218405Y-101284056D01*
X156090662Y-101284186D01*
X155616922Y-101284186D01*
X155366981Y-101284186D01*
X155366694Y-101283720D01*
X155359647Y-101253372D01*
X155358180Y-101208816D01*
X155358180Y-101133519D01*
X155923183Y-101133519D01*
X155968194Y-101133507D01*
X156100140Y-101133278D01*
X156209303Y-101132681D01*
X156297468Y-101131615D01*
X156366420Y-101129981D01*
X156417941Y-101127681D01*
X156453817Y-101124614D01*
X156475831Y-101120682D01*
X156485768Y-101115784D01*
X156485412Y-101109822D01*
X156476547Y-101102696D01*
X156470755Y-101097798D01*
X156451325Y-101076916D01*
X156426640Y-101047185D01*
X156388371Y-100998867D01*
X156474102Y-100961001D01*
X156559834Y-100923134D01*
X156623308Y-101006354D01*
X156650033Y-101039572D01*
X156710093Y-101107011D01*
X156782631Y-101181963D01*
X156862725Y-101259707D01*
X156914254Y-101306934D01*
X156945451Y-101335526D01*
X157025889Y-101404699D01*
G37*
G36*
X173535046Y-103045016D02*
G01*
X173622706Y-103047356D01*
X173719856Y-103051197D01*
X173792819Y-103055847D01*
X173842122Y-103061341D01*
X173868289Y-103067716D01*
X173889212Y-103081636D01*
X173902420Y-103110192D01*
X173892691Y-103146032D01*
X173860128Y-103187616D01*
X173837027Y-103209603D01*
X173812482Y-103226571D01*
X173794306Y-103226550D01*
X173776956Y-103211104D01*
X173770461Y-103201204D01*
X173771555Y-103184496D01*
X173790162Y-103160882D01*
X173819305Y-103129861D01*
X173776311Y-103129722D01*
X173732597Y-103127409D01*
X173687504Y-103122008D01*
X173678943Y-103120650D01*
X173652249Y-103119651D01*
X173635947Y-103130857D01*
X173620156Y-103159813D01*
X173615363Y-103169829D01*
X173602785Y-103195149D01*
X173596913Y-103205383D01*
X173594761Y-103206048D01*
X173576118Y-103212539D01*
X173544982Y-103223666D01*
X173542217Y-103224662D01*
X173506656Y-103236863D01*
X173483474Y-103240866D01*
X173461988Y-103236762D01*
X173431518Y-103224643D01*
X173431203Y-103224511D01*
X173392684Y-103198791D01*
X173361625Y-103161865D01*
X173348125Y-103141344D01*
X173325930Y-103122277D01*
X173296578Y-103117305D01*
X173265612Y-103123103D01*
X173229130Y-103144259D01*
X173217033Y-103154864D01*
X173198295Y-103163521D01*
X173181238Y-103155277D01*
X173175783Y-103150413D01*
X173163590Y-103129514D01*
X173171040Y-103105584D01*
X173199183Y-103073858D01*
X173236331Y-103038269D01*
X173535046Y-103045016D01*
G37*
G36*
X173061591Y-104806035D02*
G01*
X173055313Y-104812312D01*
X173049036Y-104806035D01*
X173055313Y-104799757D01*
X173061591Y-104806035D01*
G37*
G36*
X171718141Y-105509149D02*
G01*
X171711863Y-105515427D01*
X171705585Y-105509149D01*
X171711863Y-105502871D01*
X171718141Y-105509149D01*
G37*
G36*
X164586554Y-100957740D02*
G01*
X164913000Y-100957740D01*
X164913000Y-101120963D01*
X164586554Y-101120963D01*
X164586554Y-101657424D01*
X164746638Y-101703739D01*
X164758096Y-101707056D01*
X164817898Y-101724436D01*
X164868818Y-101739344D01*
X164905773Y-101750286D01*
X164923682Y-101755768D01*
X164928631Y-101758747D01*
X164934609Y-101773176D01*
X164935498Y-101802811D01*
X164931691Y-101852419D01*
X164931160Y-101857738D01*
X164926067Y-101901962D01*
X164921145Y-101934652D01*
X164917390Y-101949067D01*
X164913894Y-101949032D01*
X164891528Y-101943862D01*
X164853078Y-101933143D01*
X164803763Y-101918478D01*
X164748803Y-101901468D01*
X164693418Y-101883715D01*
X164642826Y-101866818D01*
X164602249Y-101852381D01*
X164601293Y-101852193D01*
X164596838Y-101857563D01*
X164593318Y-101875202D01*
X164590641Y-101907250D01*
X164588717Y-101955846D01*
X164587455Y-102023130D01*
X164586764Y-102111243D01*
X164586554Y-102222325D01*
X164586554Y-102598148D01*
X164617200Y-102626938D01*
X164619034Y-102628648D01*
X164634579Y-102641094D01*
X164652244Y-102648654D01*
X164677764Y-102652187D01*
X164716878Y-102652552D01*
X164775324Y-102650608D01*
X164902803Y-102645487D01*
X164894112Y-102726639D01*
X164889271Y-102766760D01*
X164883634Y-102803854D01*
X164879034Y-102824436D01*
X164878162Y-102826099D01*
X164865892Y-102833178D01*
X164838298Y-102837802D01*
X164792130Y-102840320D01*
X164724140Y-102841082D01*
X164706857Y-102841039D01*
X164632412Y-102839244D01*
X164577032Y-102834016D01*
X164535739Y-102824271D01*
X164503554Y-102808921D01*
X164475500Y-102786884D01*
X164461710Y-102773854D01*
X164446368Y-102757554D01*
X164434008Y-102739911D01*
X164424261Y-102718283D01*
X164416759Y-102690030D01*
X164411131Y-102652512D01*
X164407011Y-102603087D01*
X164404028Y-102539116D01*
X164401815Y-102457958D01*
X164400002Y-102356972D01*
X164398220Y-102233517D01*
X164391942Y-101782898D01*
X164256969Y-101740310D01*
X164121997Y-101697721D01*
X164121997Y-101512221D01*
X164224687Y-101543757D01*
X164239394Y-101548296D01*
X164289641Y-101564111D01*
X164331577Y-101577756D01*
X164357338Y-101586685D01*
X164378191Y-101594109D01*
X164392760Y-101598076D01*
X164392874Y-101598024D01*
X164394563Y-101584621D01*
X164396031Y-101550213D01*
X164397188Y-101498656D01*
X164397947Y-101433806D01*
X164398220Y-101359520D01*
X164398220Y-101120963D01*
X164109441Y-101120963D01*
X164109441Y-100957740D01*
X164398220Y-100957740D01*
X164398220Y-100468071D01*
X164586554Y-100468071D01*
X164586554Y-100957740D01*
G37*
%TD*%
%LPC*%
D15*
%TO.C,HOLE2*%
X135620000Y-94160000D03*
%TD*%
D16*
%TO.C,U3*%
X164159558Y-102980000D03*
X163311030Y-102131472D03*
X162462502Y-102980000D03*
X163311030Y-103828528D03*
%TD*%
D17*
%TO.C,J3*%
X173740000Y-111720000D03*
D18*
X171200000Y-111720000D03*
X168660000Y-111720000D03*
X166120000Y-111720000D03*
X163580000Y-111720000D03*
X161040000Y-111720000D03*
X158500000Y-111720000D03*
X155960000Y-111720000D03*
X153420000Y-111720000D03*
X150880000Y-111720000D03*
X148340000Y-111720000D03*
X145800000Y-111720000D03*
X143260000Y-111720000D03*
X140720000Y-111720000D03*
X138180000Y-111720000D03*
%TD*%
D15*
%TO.C,HOLE1*%
X122870000Y-95040000D03*
%TD*%
D17*
%TO.C,J2*%
X133110000Y-94150000D03*
D18*
X130570000Y-94150000D03*
X128030000Y-94150000D03*
X125490000Y-94150000D03*
%TD*%
D15*
%TO.C,HOLE3*%
X176100000Y-94210000D03*
%TD*%
D19*
%TO.C,USB1*%
X126709000Y-100090000D03*
X126709000Y-105870000D03*
D20*
X127209000Y-98655000D03*
X127209000Y-107305000D03*
D21*
X123009000Y-98655000D03*
X123009000Y-107305000D03*
%TD*%
D15*
%TO.C,HOLE4*%
X176100000Y-111700000D03*
%TD*%
%TO.C,HOLE5*%
X122870000Y-110840000D03*
%TD*%
D17*
%TO.C,J1*%
X173740000Y-94160000D03*
D18*
X171200000Y-94160000D03*
X168660000Y-94160000D03*
X166120000Y-94160000D03*
X163580000Y-94160000D03*
X161040000Y-94160000D03*
X158500000Y-94160000D03*
X155960000Y-94160000D03*
X153420000Y-94160000D03*
X150880000Y-94160000D03*
X148340000Y-94160000D03*
X145800000Y-94160000D03*
X143260000Y-94160000D03*
X140720000Y-94160000D03*
X138180000Y-94160000D03*
%TD*%
D22*
%TO.C,U2*%
X147668500Y-99425000D03*
X148938500Y-99425000D03*
X150208500Y-99425000D03*
X151478500Y-99425000D03*
X151478500Y-106485000D03*
X150208500Y-106485000D03*
X148938500Y-106485000D03*
X147668500Y-106485000D03*
%TD*%
D23*
%TO.C,C1*%
X146220000Y-103690000D03*
X146220000Y-102730000D03*
%TD*%
M02*
