%TF.GenerationSoftware,KiCad,Pcbnew,(6.0.11)*%
%TF.CreationDate,2023-02-03T18:02:09+08:00*%
%TF.ProjectId,UINIO-MCU-ESP32C3,55494e49-4f2d-44d4-9355-2d4553503332,Version 3.0.0*%
%TF.SameCoordinates,PX735b400PY5c274f0*%
%TF.FileFunction,Legend,Top*%
%TF.FilePolarity,Positive*%
%FSLAX46Y46*%
G04 Gerber Fmt 4.6, Leading zero omitted, Abs format (unit mm)*
G04 Created by KiCad (PCBNEW (6.0.11)) date 2023-02-03 18:02:09*
%MOMM*%
%LPD*%
G01*
G04 APERTURE LIST*
G04 Aperture macros list*
%AMRoundRect*
0 Rectangle with rounded corners*
0 $1 Rounding radius*
0 $2 $3 $4 $5 $6 $7 $8 $9 X,Y pos of 4 corners*
0 Add a 4 corners polygon primitive as box body*
4,1,4,$2,$3,$4,$5,$6,$7,$8,$9,$2,$3,0*
0 Add four circle primitives for the rounded corners*
1,1,$1+$1,$2,$3*
1,1,$1+$1,$4,$5*
1,1,$1+$1,$6,$7*
1,1,$1+$1,$8,$9*
0 Add four rect primitives between the rounded corners*
20,1,$1+$1,$2,$3,$4,$5,0*
20,1,$1+$1,$4,$5,$6,$7,0*
20,1,$1+$1,$6,$7,$8,$9,0*
20,1,$1+$1,$8,$9,$2,$3,0*%
%AMRotRect*
0 Rectangle, with rotation*
0 The origin of the aperture is its center*
0 $1 length*
0 $2 width*
0 $3 Rotation angle, in degrees counterclockwise*
0 Add horizontal line*
21,1,$1,$2,0,0,$3*%
G04 Aperture macros list end*
%ADD10C,0.100000*%
%ADD11C,0.150000*%
%ADD12C,0.250000*%
%ADD13C,0.200000*%
%ADD14C,0.300000*%
%ADD15C,0.152000*%
%ADD16C,0.120000*%
%ADD17C,0.254000*%
%ADD18C,1.200000*%
%ADD19R,1.070000X0.532000*%
%ADD20RoundRect,0.135000X-0.135000X-0.185000X0.135000X-0.185000X0.135000X0.185000X-0.135000X0.185000X0*%
%ADD21C,0.610000*%
%ADD22RotRect,0.650000X0.280000X225.000000*%
%ADD23RotRect,0.280000X0.650000X225.000000*%
%ADD24RotRect,3.800000X3.800000X225.000000*%
%ADD25RoundRect,0.147500X-0.017678X0.226274X-0.226274X0.017678X0.017678X-0.226274X0.226274X-0.017678X0*%
%ADD26R,1.700000X1.700000*%
%ADD27O,1.700000X1.700000*%
%ADD28RoundRect,0.135000X0.135000X0.185000X-0.135000X0.185000X-0.135000X-0.185000X0.135000X-0.185000X0*%
%ADD29R,1.200000X0.650000*%
%ADD30RoundRect,0.140000X0.170000X-0.140000X0.170000X0.140000X-0.170000X0.140000X-0.170000X-0.140000X0*%
%ADD31R,1.200000X1.400000*%
%ADD32RoundRect,0.140000X-0.140000X-0.170000X0.140000X-0.170000X0.140000X0.170000X-0.140000X0.170000X0*%
%ADD33RoundRect,0.140000X0.140000X0.170000X-0.140000X0.170000X-0.140000X-0.170000X0.140000X-0.170000X0*%
%ADD34RoundRect,0.140000X-0.219203X-0.021213X-0.021213X-0.219203X0.219203X0.021213X0.021213X0.219203X0*%
%ADD35C,0.650000*%
%ADD36O,2.100000X1.000000*%
%ADD37O,1.900000X1.000000*%
%ADD38R,1.150000X0.600000*%
%ADD39R,1.150000X0.300000*%
%ADD40RoundRect,0.218750X-0.218750X-0.256250X0.218750X-0.256250X0.218750X0.256250X-0.218750X0.256250X0*%
%ADD41R,1.000000X0.600000*%
%ADD42R,0.250000X0.750000*%
%ADD43R,0.750000X0.250000*%
%ADD44RoundRect,0.140000X-0.170000X0.140000X-0.170000X-0.140000X0.170000X-0.140000X0.170000X0.140000X0*%
G04 APERTURE END LIST*
D10*
X12090000Y-1280000D02*
X16680000Y-1280000D01*
X16680000Y-1280000D02*
X16680000Y-11240000D01*
X16680000Y-11240000D02*
X12090000Y-11240000D01*
X12090000Y-11240000D02*
X12090000Y-1280000D01*
D11*
X46768846Y105759D02*
X46733440Y511101D01*
X46422436Y305759D02*
X46772436Y911977D01*
X47003376Y778644D01*
X47044444Y716443D01*
X47056645Y670909D01*
X47052179Y596507D01*
X47002179Y509904D01*
X46939978Y468836D01*
X46894444Y456635D01*
X46820042Y461101D01*
X46589102Y594434D01*
X47320918Y595310D02*
X47375064Y-244241D01*
X47725064Y361977D02*
X46970918Y-10908D01*
X47606004Y-377574D02*
X47956004Y228644D01*
X48100341Y145310D01*
X48170277Y66443D01*
X48194679Y-24626D01*
X48190213Y-99027D01*
X48152414Y-231164D01*
X48102414Y-317767D01*
X48006880Y-416570D01*
X47944679Y-457638D01*
X47853611Y-482040D01*
X47750341Y-460908D01*
X47606004Y-377574D01*
X48529764Y-910908D02*
X48183354Y-710908D01*
X48356559Y-810908D02*
X48706559Y-204690D01*
X48598824Y-257959D01*
X48507756Y-282361D01*
X48433354Y-277895D01*
X6236666Y613334D02*
X6636666Y613334D01*
X6436666Y-86666D02*
X6436666Y613334D01*
X6803333Y613334D02*
X7270000Y-86666D01*
X7270000Y613334D02*
X6803333Y-86666D01*
X7536666Y-86666D02*
X7536666Y613334D01*
X7703333Y613334D01*
X7803333Y580000D01*
X7870000Y513334D01*
X7903333Y446667D01*
X7936666Y313334D01*
X7936666Y213334D01*
X7903333Y80000D01*
X7870000Y13334D01*
X7803333Y-53333D01*
X7703333Y-86666D01*
X7536666Y-86666D01*
X49333333Y-12776666D02*
X49766666Y-12776666D01*
X49533333Y-13043333D01*
X49633333Y-13043333D01*
X49700000Y-13076666D01*
X49733333Y-13110000D01*
X49766666Y-13176666D01*
X49766666Y-13343333D01*
X49733333Y-13410000D01*
X49700000Y-13443333D01*
X49633333Y-13476666D01*
X49433333Y-13476666D01*
X49366666Y-13443333D01*
X49333333Y-13410000D01*
X49966666Y-12776666D02*
X50200000Y-13476666D01*
X50433333Y-12776666D01*
X50600000Y-12776666D02*
X51033333Y-12776666D01*
X50800000Y-13043333D01*
X50900000Y-13043333D01*
X50966666Y-13076666D01*
X51000000Y-13110000D01*
X51033333Y-13176666D01*
X51033333Y-13343333D01*
X51000000Y-13410000D01*
X50966666Y-13443333D01*
X50900000Y-13476666D01*
X50700000Y-13476666D01*
X50633333Y-13443333D01*
X50600000Y-13410000D01*
X31339423Y-13405373D02*
X31442692Y-13384241D01*
X31587030Y-13300908D01*
X31628098Y-13238707D01*
X31640299Y-13193173D01*
X31635833Y-13118771D01*
X31602500Y-13061036D01*
X31540299Y-13019967D01*
X31494765Y-13007767D01*
X31420363Y-13012232D01*
X31288226Y-13050032D01*
X31213825Y-13054497D01*
X31168290Y-13042297D01*
X31106090Y-13001228D01*
X31072756Y-12943493D01*
X31068290Y-12869091D01*
X31080491Y-12823557D01*
X31121560Y-12761356D01*
X31265897Y-12678023D01*
X31369166Y-12656891D01*
X31962307Y-13084241D02*
X31612307Y-12478023D01*
X31843248Y-12344690D01*
X31917649Y-12340224D01*
X31963183Y-12352425D01*
X32025384Y-12393493D01*
X32075384Y-12480096D01*
X32079850Y-12554497D01*
X32067649Y-12600032D01*
X32026581Y-12662232D01*
X31795641Y-12795566D01*
X32568525Y-12734241D02*
X32218525Y-12128023D01*
X33170277Y-12309839D02*
X33158076Y-12355373D01*
X33088140Y-12434241D01*
X33030405Y-12467574D01*
X32927136Y-12488707D01*
X32836068Y-12464305D01*
X32773867Y-12423237D01*
X32678333Y-12324433D01*
X32628333Y-12237831D01*
X32590534Y-12105694D01*
X32586068Y-12031292D01*
X32610470Y-11940224D01*
X32680405Y-11861356D01*
X32738140Y-11828023D01*
X32841410Y-11806891D01*
X32886944Y-11819091D01*
X33752093Y-12050908D02*
X33463418Y-12217574D01*
X33113418Y-11611356D01*
X33954166Y-11934241D02*
X33604166Y-11328023D01*
X34300576Y-11734241D02*
X33840768Y-11537831D01*
X33950576Y-11128023D02*
X33804166Y-11674433D01*
X42896666Y-13523333D02*
X42196666Y-13523333D01*
X42196666Y-13056666D02*
X42196666Y-12923333D01*
X42230000Y-12856666D01*
X42296666Y-12790000D01*
X42430000Y-12756666D01*
X42663333Y-12756666D01*
X42796666Y-12790000D01*
X42863333Y-12856666D01*
X42896666Y-12923333D01*
X42896666Y-13056666D01*
X42863333Y-13123333D01*
X42796666Y-13190000D01*
X42663333Y-13223333D01*
X42430000Y-13223333D01*
X42296666Y-13190000D01*
X42230000Y-13123333D01*
X42196666Y-13056666D01*
X42896666Y-12090000D02*
X42896666Y-12490000D01*
X42896666Y-12290000D02*
X42196666Y-12290000D01*
X42296666Y-12356666D01*
X42363333Y-12423333D01*
X42396666Y-12490000D01*
X42896666Y-11756666D02*
X42896666Y-11623333D01*
X42863333Y-11556666D01*
X42830000Y-11523333D01*
X42730000Y-11456666D01*
X42596666Y-11423333D01*
X42330000Y-11423333D01*
X42263333Y-11456666D01*
X42230000Y-11490000D01*
X42196666Y-11556666D01*
X42196666Y-11690000D01*
X42230000Y-11756666D01*
X42263333Y-11790000D01*
X42330000Y-11823333D01*
X42496666Y-11823333D01*
X42563333Y-11790000D01*
X42596666Y-11756666D01*
X42630000Y-11690000D01*
X42630000Y-11556666D01*
X42596666Y-11490000D01*
X42563333Y-11456666D01*
X42496666Y-11423333D01*
D12*
X32781904Y-9758571D02*
X33115238Y-9758571D01*
X33258095Y-10282380D02*
X32781904Y-10282380D01*
X32781904Y-9282380D01*
X33258095Y-9282380D01*
X33639047Y-10234761D02*
X33781904Y-10282380D01*
X34020000Y-10282380D01*
X34115238Y-10234761D01*
X34162857Y-10187142D01*
X34210476Y-10091904D01*
X34210476Y-9996666D01*
X34162857Y-9901428D01*
X34115238Y-9853809D01*
X34020000Y-9806190D01*
X33829523Y-9758571D01*
X33734285Y-9710952D01*
X33686666Y-9663333D01*
X33639047Y-9568095D01*
X33639047Y-9472857D01*
X33686666Y-9377619D01*
X33734285Y-9330000D01*
X33829523Y-9282380D01*
X34067619Y-9282380D01*
X34210476Y-9330000D01*
X34639047Y-10282380D02*
X34639047Y-9282380D01*
X35020000Y-9282380D01*
X35115238Y-9330000D01*
X35162857Y-9377619D01*
X35210476Y-9472857D01*
X35210476Y-9615714D01*
X35162857Y-9710952D01*
X35115238Y-9758571D01*
X35020000Y-9806190D01*
X34639047Y-9806190D01*
X35543809Y-9282380D02*
X36162857Y-9282380D01*
X35829523Y-9663333D01*
X35972380Y-9663333D01*
X36067619Y-9710952D01*
X36115238Y-9758571D01*
X36162857Y-9853809D01*
X36162857Y-10091904D01*
X36115238Y-10187142D01*
X36067619Y-10234761D01*
X35972380Y-10282380D01*
X35686666Y-10282380D01*
X35591428Y-10234761D01*
X35543809Y-10187142D01*
X36543809Y-9377619D02*
X36591428Y-9330000D01*
X36686666Y-9282380D01*
X36924761Y-9282380D01*
X37020000Y-9330000D01*
X37067619Y-9377619D01*
X37115238Y-9472857D01*
X37115238Y-9568095D01*
X37067619Y-9710952D01*
X36496190Y-10282380D01*
X37115238Y-10282380D01*
X37543809Y-9901428D02*
X38305714Y-9901428D01*
X39353333Y-10187142D02*
X39305714Y-10234761D01*
X39162857Y-10282380D01*
X39067619Y-10282380D01*
X38924761Y-10234761D01*
X38829523Y-10139523D01*
X38781904Y-10044285D01*
X38734285Y-9853809D01*
X38734285Y-9710952D01*
X38781904Y-9520476D01*
X38829523Y-9425238D01*
X38924761Y-9330000D01*
X39067619Y-9282380D01*
X39162857Y-9282380D01*
X39305714Y-9330000D01*
X39353333Y-9377619D01*
X39686666Y-9282380D02*
X40305714Y-9282380D01*
X39972380Y-9663333D01*
X40115238Y-9663333D01*
X40210476Y-9710952D01*
X40258095Y-9758571D01*
X40305714Y-9853809D01*
X40305714Y-10091904D01*
X40258095Y-10187142D01*
X40210476Y-10234761D01*
X40115238Y-10282380D01*
X39829523Y-10282380D01*
X39734285Y-10234761D01*
X39686666Y-10187142D01*
D11*
X19216666Y-12829000D02*
X19150000Y-12795666D01*
X19050000Y-12795666D01*
X18950000Y-12829000D01*
X18883333Y-12895666D01*
X18850000Y-12962333D01*
X18816666Y-13095666D01*
X18816666Y-13195666D01*
X18850000Y-13329000D01*
X18883333Y-13395666D01*
X18950000Y-13462333D01*
X19050000Y-13495666D01*
X19116666Y-13495666D01*
X19216666Y-13462333D01*
X19250000Y-13429000D01*
X19250000Y-13195666D01*
X19116666Y-13195666D01*
X19550000Y-13495666D02*
X19550000Y-12795666D01*
X19950000Y-13495666D01*
X19950000Y-12795666D01*
X20283333Y-13495666D02*
X20283333Y-12795666D01*
X20450000Y-12795666D01*
X20550000Y-12829000D01*
X20616666Y-12895666D01*
X20650000Y-12962333D01*
X20683333Y-13095666D01*
X20683333Y-13195666D01*
X20650000Y-13329000D01*
X20616666Y-13395666D01*
X20550000Y-13462333D01*
X20450000Y-13495666D01*
X20283333Y-13495666D01*
X27666666Y-540000D02*
X26966666Y-540000D01*
X26966666Y-73333D02*
X26966666Y60000D01*
X27000000Y126667D01*
X27066666Y193334D01*
X27200000Y226667D01*
X27433333Y226667D01*
X27566666Y193334D01*
X27633333Y126667D01*
X27666666Y60000D01*
X27666666Y-73333D01*
X27633333Y-140000D01*
X27566666Y-206666D01*
X27433333Y-240000D01*
X27200000Y-240000D01*
X27066666Y-206666D01*
X27000000Y-140000D01*
X26966666Y-73333D01*
X27266666Y626667D02*
X27233333Y560000D01*
X27200000Y526667D01*
X27133333Y493334D01*
X27100000Y493334D01*
X27033333Y526667D01*
X27000000Y560000D01*
X26966666Y626667D01*
X26966666Y760000D01*
X27000000Y826667D01*
X27033333Y860000D01*
X27100000Y893334D01*
X27133333Y893334D01*
X27200000Y860000D01*
X27233333Y826667D01*
X27266666Y760000D01*
X27266666Y626667D01*
X27300000Y560000D01*
X27333333Y526667D01*
X27400000Y493334D01*
X27533333Y493334D01*
X27600000Y526667D01*
X27633333Y560000D01*
X27666666Y626667D01*
X27666666Y760000D01*
X27633333Y826667D01*
X27600000Y860000D01*
X27533333Y893334D01*
X27400000Y893334D01*
X27333333Y860000D01*
X27300000Y826667D01*
X27266666Y760000D01*
X42522857Y-344761D02*
X42522857Y-78094D01*
X42941904Y36192D02*
X42941904Y-344761D01*
X42141904Y-344761D01*
X42141904Y36192D01*
X42941904Y379049D02*
X42141904Y379049D01*
X42941904Y836192D01*
X42141904Y836192D01*
X22606666Y-13533333D02*
X21906666Y-13533333D01*
X21906666Y-13066666D02*
X21906666Y-12933333D01*
X21940000Y-12866666D01*
X22006666Y-12800000D01*
X22140000Y-12766666D01*
X22373333Y-12766666D01*
X22506666Y-12800000D01*
X22573333Y-12866666D01*
X22606666Y-12933333D01*
X22606666Y-13066666D01*
X22573333Y-13133333D01*
X22506666Y-13200000D01*
X22373333Y-13233333D01*
X22140000Y-13233333D01*
X22006666Y-13200000D01*
X21940000Y-13133333D01*
X21906666Y-13066666D01*
X22606666Y-12100000D02*
X22606666Y-12500000D01*
X22606666Y-12300000D02*
X21906666Y-12300000D01*
X22006666Y-12366666D01*
X22073333Y-12433333D01*
X22106666Y-12500000D01*
X22606666Y-11433333D02*
X22606666Y-11833333D01*
X22606666Y-11633333D02*
X21906666Y-11633333D01*
X22006666Y-11700000D01*
X22073333Y-11766666D01*
X22106666Y-11833333D01*
X32746666Y-540000D02*
X32046666Y-540000D01*
X32046666Y-73333D02*
X32046666Y60000D01*
X32080000Y126667D01*
X32146666Y193334D01*
X32280000Y226667D01*
X32513333Y226667D01*
X32646666Y193334D01*
X32713333Y126667D01*
X32746666Y60000D01*
X32746666Y-73333D01*
X32713333Y-140000D01*
X32646666Y-206666D01*
X32513333Y-240000D01*
X32280000Y-240000D01*
X32146666Y-206666D01*
X32080000Y-140000D01*
X32046666Y-73333D01*
X32046666Y826667D02*
X32046666Y693334D01*
X32080000Y626667D01*
X32113333Y593334D01*
X32213333Y526667D01*
X32346666Y493334D01*
X32613333Y493334D01*
X32680000Y526667D01*
X32713333Y560000D01*
X32746666Y626667D01*
X32746666Y760000D01*
X32713333Y826667D01*
X32680000Y860000D01*
X32613333Y893334D01*
X32446666Y893334D01*
X32380000Y860000D01*
X32346666Y826667D01*
X32313333Y760000D01*
X32313333Y626667D01*
X32346666Y560000D01*
X32380000Y526667D01*
X32446666Y493334D01*
X19236666Y840000D02*
X19170000Y873334D01*
X19070000Y873334D01*
X18970000Y840000D01*
X18903333Y773334D01*
X18870000Y706667D01*
X18836666Y573334D01*
X18836666Y473334D01*
X18870000Y340000D01*
X18903333Y273334D01*
X18970000Y206667D01*
X19070000Y173334D01*
X19136666Y173334D01*
X19236666Y206667D01*
X19270000Y240000D01*
X19270000Y473334D01*
X19136666Y473334D01*
X19570000Y173334D02*
X19570000Y873334D01*
X19970000Y173334D01*
X19970000Y873334D01*
X20303333Y173334D02*
X20303333Y873334D01*
X20470000Y873334D01*
X20570000Y840000D01*
X20636666Y773334D01*
X20670000Y706667D01*
X20703333Y573334D01*
X20703333Y473334D01*
X20670000Y340000D01*
X20636666Y273334D01*
X20570000Y206667D01*
X20470000Y173334D01*
X20303333Y173334D01*
X45466666Y-540000D02*
X44766666Y-540000D01*
X44766666Y-73333D02*
X44766666Y60000D01*
X44800000Y126667D01*
X44866666Y193334D01*
X45000000Y226667D01*
X45233333Y226667D01*
X45366666Y193334D01*
X45433333Y126667D01*
X45466666Y60000D01*
X45466666Y-73333D01*
X45433333Y-140000D01*
X45366666Y-206666D01*
X45233333Y-240000D01*
X45000000Y-240000D01*
X44866666Y-206666D01*
X44800000Y-140000D01*
X44766666Y-73333D01*
X44833333Y493334D02*
X44800000Y526667D01*
X44766666Y593334D01*
X44766666Y760000D01*
X44800000Y826667D01*
X44833333Y860000D01*
X44900000Y893334D01*
X44966666Y893334D01*
X45066666Y860000D01*
X45466666Y460000D01*
X45466666Y893334D01*
X27671666Y-13533333D02*
X26971666Y-13533333D01*
X26971666Y-13066666D02*
X26971666Y-12933333D01*
X27005000Y-12866666D01*
X27071666Y-12800000D01*
X27205000Y-12766666D01*
X27438333Y-12766666D01*
X27571666Y-12800000D01*
X27638333Y-12866666D01*
X27671666Y-12933333D01*
X27671666Y-13066666D01*
X27638333Y-13133333D01*
X27571666Y-13200000D01*
X27438333Y-13233333D01*
X27205000Y-13233333D01*
X27071666Y-13200000D01*
X27005000Y-13133333D01*
X26971666Y-13066666D01*
X27671666Y-12100000D02*
X27671666Y-12500000D01*
X27671666Y-12300000D02*
X26971666Y-12300000D01*
X27071666Y-12366666D01*
X27138333Y-12433333D01*
X27171666Y-12500000D01*
X26971666Y-11866666D02*
X26971666Y-11433333D01*
X27238333Y-11666666D01*
X27238333Y-11566666D01*
X27271666Y-11500000D01*
X27305000Y-11466666D01*
X27371666Y-11433333D01*
X27538333Y-11433333D01*
X27605000Y-11466666D01*
X27638333Y-11500000D01*
X27671666Y-11566666D01*
X27671666Y-11766666D01*
X27638333Y-11833333D01*
X27605000Y-11866666D01*
X34327906Y-13408707D02*
X34431175Y-13387574D01*
X34575513Y-13304241D01*
X34616581Y-13242040D01*
X34628782Y-13196506D01*
X34624316Y-13122104D01*
X34590983Y-13064369D01*
X34528782Y-13023301D01*
X34483248Y-13011100D01*
X34408846Y-13015566D01*
X34276709Y-13053365D01*
X34202307Y-13057831D01*
X34156773Y-13045630D01*
X34094572Y-13004562D01*
X34061239Y-12946826D01*
X34056773Y-12872425D01*
X34068974Y-12826891D01*
X34110042Y-12764690D01*
X34254380Y-12681356D01*
X34357649Y-12660224D01*
X34950790Y-13087574D02*
X34600790Y-12481356D01*
X34831730Y-12348023D01*
X34906132Y-12343557D01*
X34951666Y-12355758D01*
X35013867Y-12396826D01*
X35063867Y-12483429D01*
X35068333Y-12557831D01*
X35056132Y-12603365D01*
X35015064Y-12665566D01*
X34784124Y-12798899D01*
X35557008Y-12737574D02*
X35207008Y-12131356D01*
X35845683Y-12570908D02*
X35495683Y-11964690D01*
X35640021Y-11881356D01*
X35743290Y-11860224D01*
X35834358Y-11884626D01*
X35896559Y-11925694D01*
X35992093Y-12024497D01*
X36042093Y-12111100D01*
X36079892Y-12243237D01*
X36084358Y-12317638D01*
X36059957Y-12408707D01*
X35990021Y-12487574D01*
X35845683Y-12570908D01*
X44515513Y-13322575D02*
X44146773Y-13150566D01*
X44169102Y-13522575D02*
X43819102Y-12916357D01*
X44050042Y-12783024D01*
X44124444Y-12778558D01*
X44169978Y-12790759D01*
X44232179Y-12831827D01*
X44282179Y-12918430D01*
X44286645Y-12992831D01*
X44274444Y-13038366D01*
X44233376Y-13100566D01*
X44002436Y-13233900D01*
X44367585Y-12599690D02*
X45121730Y-12972575D01*
X44771730Y-12366357D02*
X44717585Y-13205908D01*
X45352670Y-12839242D02*
X45002670Y-12233024D01*
X45147008Y-12149690D01*
X45250277Y-12128558D01*
X45341346Y-12152960D01*
X45403546Y-12194028D01*
X45499081Y-12292831D01*
X45549081Y-12379434D01*
X45586880Y-12511571D01*
X45591346Y-12585972D01*
X45566944Y-12677041D01*
X45497008Y-12755908D01*
X45352670Y-12839242D01*
X45724358Y-11816357D02*
X45782093Y-11783024D01*
X45856495Y-11778558D01*
X45902029Y-11790759D01*
X45964230Y-11831827D01*
X46059764Y-11930631D01*
X46143097Y-12074968D01*
X46180897Y-12207105D01*
X46185362Y-12281507D01*
X46173162Y-12327041D01*
X46132093Y-12389242D01*
X46074358Y-12422575D01*
X45999957Y-12427041D01*
X45954422Y-12414840D01*
X45892222Y-12373771D01*
X45796687Y-12274968D01*
X45713354Y-12130631D01*
X45675555Y-11998494D01*
X45671089Y-11924092D01*
X45683290Y-11878558D01*
X45724358Y-11816357D01*
X49198002Y870310D02*
X49544412Y670310D01*
X49021207Y164092D02*
X49371207Y770310D01*
X49688750Y586977D02*
X49742895Y-252574D01*
X50092895Y353644D02*
X49338750Y-19241D01*
X49973835Y-385908D02*
X50323835Y220310D01*
X50468173Y136977D01*
X50538108Y58109D01*
X50562510Y-32959D01*
X50558044Y-107361D01*
X50520245Y-239497D01*
X50470245Y-326100D01*
X50374711Y-424903D01*
X50312510Y-465972D01*
X50221442Y-490373D01*
X50118173Y-469241D01*
X49973835Y-385908D01*
X50897595Y-919241D02*
X50551185Y-719241D01*
X50724390Y-819241D02*
X51074390Y-213023D01*
X50966655Y-266292D01*
X50875587Y-290694D01*
X50801185Y-286228D01*
X40366666Y-540000D02*
X39666666Y-540000D01*
X39666666Y-73333D02*
X39666666Y60000D01*
X39700000Y126667D01*
X39766666Y193334D01*
X39900000Y226667D01*
X40133333Y226667D01*
X40266666Y193334D01*
X40333333Y126667D01*
X40366666Y60000D01*
X40366666Y-73333D01*
X40333333Y-140000D01*
X40266666Y-206666D01*
X40133333Y-240000D01*
X39900000Y-240000D01*
X39766666Y-206666D01*
X39700000Y-140000D01*
X39666666Y-73333D01*
X39666666Y460000D02*
X39666666Y893334D01*
X39933333Y660000D01*
X39933333Y760000D01*
X39966666Y826667D01*
X40000000Y860000D01*
X40066666Y893334D01*
X40233333Y893334D01*
X40300000Y860000D01*
X40333333Y826667D01*
X40366666Y760000D01*
X40366666Y560000D01*
X40333333Y493334D01*
X40300000Y460000D01*
X25146666Y-13533333D02*
X24446666Y-13533333D01*
X24446666Y-13066666D02*
X24446666Y-12933333D01*
X24480000Y-12866666D01*
X24546666Y-12800000D01*
X24680000Y-12766666D01*
X24913333Y-12766666D01*
X25046666Y-12800000D01*
X25113333Y-12866666D01*
X25146666Y-12933333D01*
X25146666Y-13066666D01*
X25113333Y-13133333D01*
X25046666Y-13200000D01*
X24913333Y-13233333D01*
X24680000Y-13233333D01*
X24546666Y-13200000D01*
X24480000Y-13133333D01*
X24446666Y-13066666D01*
X25146666Y-12100000D02*
X25146666Y-12500000D01*
X25146666Y-12300000D02*
X24446666Y-12300000D01*
X24546666Y-12366666D01*
X24613333Y-12433333D01*
X24646666Y-12500000D01*
X24513333Y-11833333D02*
X24480000Y-11800000D01*
X24446666Y-11733333D01*
X24446666Y-11566666D01*
X24480000Y-11500000D01*
X24513333Y-11466666D01*
X24580000Y-11433333D01*
X24646666Y-11433333D01*
X24746666Y-11466666D01*
X25146666Y-11866666D01*
X25146666Y-11433333D01*
X4146666Y-86666D02*
X3913333Y246667D01*
X3746666Y-86666D02*
X3746666Y613334D01*
X4013333Y613334D01*
X4080000Y580000D01*
X4113333Y546667D01*
X4146666Y480000D01*
X4146666Y380000D01*
X4113333Y313334D01*
X4080000Y280000D01*
X4013333Y246667D01*
X3746666Y246667D01*
X4346666Y613334D02*
X4746666Y613334D01*
X4546666Y-86666D02*
X4546666Y613334D01*
X4946666Y-53333D02*
X5046666Y-86666D01*
X5213333Y-86666D01*
X5280000Y-53333D01*
X5313333Y-20000D01*
X5346666Y46667D01*
X5346666Y113334D01*
X5313333Y180000D01*
X5280000Y213334D01*
X5213333Y246667D01*
X5080000Y280000D01*
X5013333Y313334D01*
X4980000Y346667D01*
X4946666Y413334D01*
X4946666Y480000D01*
X4980000Y546667D01*
X5013333Y580000D01*
X5080000Y613334D01*
X5246666Y613334D01*
X5346666Y580000D01*
X52190476Y910000D02*
X52114285Y948096D01*
X52000000Y948096D01*
X51885714Y910000D01*
X51809523Y833810D01*
X51771428Y757620D01*
X51733333Y605239D01*
X51733333Y490953D01*
X51771428Y338572D01*
X51809523Y262381D01*
X51885714Y186191D01*
X52000000Y148096D01*
X52076190Y148096D01*
X52190476Y186191D01*
X52228571Y224286D01*
X52228571Y490953D01*
X52076190Y490953D01*
X52571428Y148096D02*
X52571428Y948096D01*
X53028571Y148096D01*
X53028571Y948096D01*
X53409523Y148096D02*
X53409523Y948096D01*
X53600000Y948096D01*
X53714285Y910000D01*
X53790476Y833810D01*
X53828571Y757620D01*
X53866666Y605239D01*
X53866666Y490953D01*
X53828571Y338572D01*
X53790476Y262381D01*
X53714285Y186191D01*
X53600000Y148096D01*
X53409523Y148096D01*
X16343333Y873334D02*
X16776666Y873334D01*
X16543333Y606667D01*
X16643333Y606667D01*
X16710000Y573334D01*
X16743333Y540000D01*
X16776666Y473334D01*
X16776666Y306667D01*
X16743333Y240000D01*
X16710000Y206667D01*
X16643333Y173334D01*
X16443333Y173334D01*
X16376666Y206667D01*
X16343333Y240000D01*
X16976666Y873334D02*
X17210000Y173334D01*
X17443333Y873334D01*
X17610000Y873334D02*
X18043333Y873334D01*
X17810000Y606667D01*
X17910000Y606667D01*
X17976666Y573334D01*
X18010000Y540000D01*
X18043333Y473334D01*
X18043333Y306667D01*
X18010000Y240000D01*
X17976666Y206667D01*
X17910000Y173334D01*
X17710000Y173334D01*
X17643333Y206667D01*
X17610000Y240000D01*
X40356666Y-13533333D02*
X39656666Y-13533333D01*
X39656666Y-13066666D02*
X39656666Y-12933333D01*
X39690000Y-12866666D01*
X39756666Y-12800000D01*
X39890000Y-12766666D01*
X40123333Y-12766666D01*
X40256666Y-12800000D01*
X40323333Y-12866666D01*
X40356666Y-12933333D01*
X40356666Y-13066666D01*
X40323333Y-13133333D01*
X40256666Y-13200000D01*
X40123333Y-13233333D01*
X39890000Y-13233333D01*
X39756666Y-13200000D01*
X39690000Y-13133333D01*
X39656666Y-13066666D01*
X40356666Y-12100000D02*
X40356666Y-12500000D01*
X40356666Y-12300000D02*
X39656666Y-12300000D01*
X39756666Y-12366666D01*
X39823333Y-12433333D01*
X39856666Y-12500000D01*
X39956666Y-11700000D02*
X39923333Y-11766666D01*
X39890000Y-11800000D01*
X39823333Y-11833333D01*
X39790000Y-11833333D01*
X39723333Y-11800000D01*
X39690000Y-11766666D01*
X39656666Y-11700000D01*
X39656666Y-11566666D01*
X39690000Y-11500000D01*
X39723333Y-11466666D01*
X39790000Y-11433333D01*
X39823333Y-11433333D01*
X39890000Y-11466666D01*
X39923333Y-11500000D01*
X39956666Y-11566666D01*
X39956666Y-11700000D01*
X39990000Y-11766666D01*
X40023333Y-11800000D01*
X40090000Y-11833333D01*
X40223333Y-11833333D01*
X40290000Y-11800000D01*
X40323333Y-11766666D01*
X40356666Y-11700000D01*
X40356666Y-11566666D01*
X40323333Y-11500000D01*
X40290000Y-11466666D01*
X40223333Y-11433333D01*
X40090000Y-11433333D01*
X40023333Y-11466666D01*
X39990000Y-11500000D01*
X39956666Y-11566666D01*
D13*
X31487142Y-9702857D02*
X31058571Y-10002857D01*
X31487142Y-10217142D02*
X30587142Y-10217142D01*
X30587142Y-9874285D01*
X30630000Y-9788571D01*
X30672857Y-9745714D01*
X30758571Y-9702857D01*
X30887142Y-9702857D01*
X30972857Y-9745714D01*
X31015714Y-9788571D01*
X31058571Y-9874285D01*
X31058571Y-10217142D01*
X31444285Y-9360000D02*
X31487142Y-9231428D01*
X31487142Y-9017142D01*
X31444285Y-8931428D01*
X31401428Y-8888571D01*
X31315714Y-8845714D01*
X31230000Y-8845714D01*
X31144285Y-8888571D01*
X31101428Y-8931428D01*
X31058571Y-9017142D01*
X31015714Y-9188571D01*
X30972857Y-9274285D01*
X30930000Y-9317142D01*
X30844285Y-9360000D01*
X30758571Y-9360000D01*
X30672857Y-9317142D01*
X30630000Y-9274285D01*
X30587142Y-9188571D01*
X30587142Y-8974285D01*
X30630000Y-8845714D01*
X30587142Y-8588571D02*
X30587142Y-8074285D01*
X31487142Y-8331428D02*
X30587142Y-8331428D01*
D11*
X9173333Y-86666D02*
X8940000Y246667D01*
X8773333Y-86666D02*
X8773333Y613334D01*
X9040000Y613334D01*
X9106666Y580000D01*
X9140000Y546667D01*
X9173333Y480000D01*
X9173333Y380000D01*
X9140000Y313334D01*
X9106666Y280000D01*
X9040000Y246667D01*
X8773333Y246667D01*
X9406666Y613334D02*
X9873333Y-86666D01*
X9873333Y613334D02*
X9406666Y-86666D01*
X10140000Y-86666D02*
X10140000Y613334D01*
X10306666Y613334D01*
X10406666Y580000D01*
X10473333Y513334D01*
X10506666Y446667D01*
X10540000Y313334D01*
X10540000Y213334D01*
X10506666Y80000D01*
X10473333Y13334D01*
X10406666Y-53333D01*
X10306666Y-86666D01*
X10140000Y-86666D01*
X52190476Y-12750000D02*
X52114285Y-12711904D01*
X52000000Y-12711904D01*
X51885714Y-12750000D01*
X51809523Y-12826190D01*
X51771428Y-12902380D01*
X51733333Y-13054761D01*
X51733333Y-13169047D01*
X51771428Y-13321428D01*
X51809523Y-13397619D01*
X51885714Y-13473809D01*
X52000000Y-13511904D01*
X52076190Y-13511904D01*
X52190476Y-13473809D01*
X52228571Y-13435714D01*
X52228571Y-13169047D01*
X52076190Y-13169047D01*
X52571428Y-13511904D02*
X52571428Y-12711904D01*
X53028571Y-13511904D01*
X53028571Y-12711904D01*
X53409523Y-13511904D02*
X53409523Y-12711904D01*
X53600000Y-12711904D01*
X53714285Y-12750000D01*
X53790476Y-12826190D01*
X53828571Y-12902380D01*
X53866666Y-13054761D01*
X53866666Y-13169047D01*
X53828571Y-13321428D01*
X53790476Y-13397619D01*
X53714285Y-13473809D01*
X53600000Y-13511904D01*
X53409523Y-13511904D01*
X35276666Y-540000D02*
X34576666Y-540000D01*
X34576666Y-73333D02*
X34576666Y60000D01*
X34610000Y126667D01*
X34676666Y193334D01*
X34810000Y226667D01*
X35043333Y226667D01*
X35176666Y193334D01*
X35243333Y126667D01*
X35276666Y60000D01*
X35276666Y-73333D01*
X35243333Y-140000D01*
X35176666Y-206666D01*
X35043333Y-240000D01*
X34810000Y-240000D01*
X34676666Y-206666D01*
X34610000Y-140000D01*
X34576666Y-73333D01*
X34810000Y826667D02*
X35276666Y826667D01*
X34543333Y660000D02*
X35043333Y493334D01*
X35043333Y926667D01*
X25136666Y-540000D02*
X24436666Y-540000D01*
X24436666Y-73333D02*
X24436666Y60000D01*
X24470000Y126667D01*
X24536666Y193334D01*
X24670000Y226667D01*
X24903333Y226667D01*
X25036666Y193334D01*
X25103333Y126667D01*
X25136666Y60000D01*
X25136666Y-73333D01*
X25103333Y-140000D01*
X25036666Y-206666D01*
X24903333Y-240000D01*
X24670000Y-240000D01*
X24536666Y-206666D01*
X24470000Y-140000D01*
X24436666Y-73333D01*
X25136666Y560000D02*
X25136666Y693334D01*
X25103333Y760000D01*
X25070000Y793334D01*
X24970000Y860000D01*
X24836666Y893334D01*
X24570000Y893334D01*
X24503333Y860000D01*
X24470000Y826667D01*
X24436666Y760000D01*
X24436666Y626667D01*
X24470000Y560000D01*
X24503333Y526667D01*
X24570000Y493334D01*
X24736666Y493334D01*
X24803333Y526667D01*
X24836666Y560000D01*
X24870000Y626667D01*
X24870000Y760000D01*
X24836666Y826667D01*
X24803333Y860000D01*
X24736666Y893334D01*
X37856666Y-540000D02*
X37156666Y-540000D01*
X37156666Y-73333D02*
X37156666Y60000D01*
X37190000Y126667D01*
X37256666Y193334D01*
X37390000Y226667D01*
X37623333Y226667D01*
X37756666Y193334D01*
X37823333Y126667D01*
X37856666Y60000D01*
X37856666Y-73333D01*
X37823333Y-140000D01*
X37756666Y-206666D01*
X37623333Y-240000D01*
X37390000Y-240000D01*
X37256666Y-206666D01*
X37190000Y-140000D01*
X37156666Y-73333D01*
X37156666Y860000D02*
X37156666Y526667D01*
X37490000Y493334D01*
X37456666Y526667D01*
X37423333Y593334D01*
X37423333Y760000D01*
X37456666Y826667D01*
X37490000Y860000D01*
X37556666Y893334D01*
X37723333Y893334D01*
X37790000Y860000D01*
X37823333Y826667D01*
X37856666Y760000D01*
X37856666Y593334D01*
X37823333Y526667D01*
X37790000Y493334D01*
X28540555Y-13410774D02*
X28643825Y-13389642D01*
X28788162Y-13306308D01*
X28829231Y-13244107D01*
X28841431Y-13198573D01*
X28836966Y-13124171D01*
X28803632Y-13066436D01*
X28741431Y-13025368D01*
X28695897Y-13013167D01*
X28621496Y-13017633D01*
X28489359Y-13055432D01*
X28414957Y-13059898D01*
X28369423Y-13047697D01*
X28307222Y-13006629D01*
X28273889Y-12948894D01*
X28269423Y-12874492D01*
X28281624Y-12828958D01*
X28322692Y-12766757D01*
X28467030Y-12683424D01*
X28570299Y-12662291D01*
X29163440Y-13089642D02*
X28813440Y-12483424D01*
X29044380Y-12350090D01*
X29118782Y-12345625D01*
X29164316Y-12357825D01*
X29226517Y-12398894D01*
X29276517Y-12485496D01*
X29280983Y-12559898D01*
X29268782Y-12605432D01*
X29227713Y-12667633D01*
X28996773Y-12800966D01*
X29769658Y-12739642D02*
X29419658Y-12133424D01*
X30371410Y-12315240D02*
X30359209Y-12360774D01*
X30289273Y-12439642D01*
X30231538Y-12472975D01*
X30128269Y-12494107D01*
X30037200Y-12469706D01*
X29975000Y-12428637D01*
X29879465Y-12329834D01*
X29829465Y-12243231D01*
X29791666Y-12111095D01*
X29787200Y-12036693D01*
X29811602Y-11945625D01*
X29881538Y-11866757D01*
X29939273Y-11833424D01*
X30042542Y-11812291D01*
X30088076Y-11824492D01*
X30619016Y-12210774D02*
X30722286Y-12189642D01*
X30866623Y-12106308D01*
X30907692Y-12044107D01*
X30919892Y-11998573D01*
X30915427Y-11924171D01*
X30882093Y-11866436D01*
X30819892Y-11825368D01*
X30774358Y-11813167D01*
X30699957Y-11817633D01*
X30567820Y-11855432D01*
X30493418Y-11859898D01*
X30447884Y-11847697D01*
X30385683Y-11806629D01*
X30352350Y-11748894D01*
X30347884Y-11674492D01*
X30360085Y-11628958D01*
X30401153Y-11566757D01*
X30545491Y-11483424D01*
X30648760Y-11462291D01*
X31007371Y-11216757D02*
X31065106Y-11183424D01*
X31139508Y-11178958D01*
X31185042Y-11191159D01*
X31247243Y-11232227D01*
X31342777Y-11331031D01*
X31426110Y-11475368D01*
X31463909Y-11607505D01*
X31468375Y-11681907D01*
X31456174Y-11727441D01*
X31415106Y-11789642D01*
X31357371Y-11822975D01*
X31282969Y-11827441D01*
X31237435Y-11815240D01*
X31175234Y-11774171D01*
X31079700Y-11675368D01*
X30996367Y-11531031D01*
X30958568Y-11398894D01*
X30954102Y-11324492D01*
X30966303Y-11278958D01*
X31007371Y-11216757D01*
D13*
X30995714Y-4951428D02*
X31038571Y-4822857D01*
X31081428Y-4780000D01*
X31167142Y-4737142D01*
X31295714Y-4737142D01*
X31381428Y-4780000D01*
X31424285Y-4822857D01*
X31467142Y-4908571D01*
X31467142Y-5251428D01*
X30567142Y-5251428D01*
X30567142Y-4951428D01*
X30610000Y-4865714D01*
X30652857Y-4822857D01*
X30738571Y-4780000D01*
X30824285Y-4780000D01*
X30910000Y-4822857D01*
X30952857Y-4865714D01*
X30995714Y-4951428D01*
X30995714Y-5251428D01*
X30567142Y-4180000D02*
X30567142Y-4008571D01*
X30610000Y-3922857D01*
X30695714Y-3837142D01*
X30867142Y-3794285D01*
X31167142Y-3794285D01*
X31338571Y-3837142D01*
X31424285Y-3922857D01*
X31467142Y-4008571D01*
X31467142Y-4180000D01*
X31424285Y-4265714D01*
X31338571Y-4351428D01*
X31167142Y-4394285D01*
X30867142Y-4394285D01*
X30695714Y-4351428D01*
X30610000Y-4265714D01*
X30567142Y-4180000D01*
X30567142Y-3237142D02*
X30567142Y-3065714D01*
X30610000Y-2980000D01*
X30695714Y-2894285D01*
X30867142Y-2851428D01*
X31167142Y-2851428D01*
X31338571Y-2894285D01*
X31424285Y-2980000D01*
X31467142Y-3065714D01*
X31467142Y-3237142D01*
X31424285Y-3322857D01*
X31338571Y-3408571D01*
X31167142Y-3451428D01*
X30867142Y-3451428D01*
X30695714Y-3408571D01*
X30610000Y-3322857D01*
X30567142Y-3237142D01*
X30567142Y-2594285D02*
X30567142Y-2080000D01*
X31467142Y-2337142D02*
X30567142Y-2337142D01*
D11*
X22606666Y-1206666D02*
X21906666Y-1206666D01*
X21906666Y-739999D02*
X21906666Y-606666D01*
X21940000Y-539999D01*
X22006666Y-473333D01*
X22140000Y-439999D01*
X22373333Y-439999D01*
X22506666Y-473333D01*
X22573333Y-539999D01*
X22606666Y-606666D01*
X22606666Y-739999D01*
X22573333Y-806666D01*
X22506666Y-873333D01*
X22373333Y-906666D01*
X22140000Y-906666D01*
X22006666Y-873333D01*
X21940000Y-806666D01*
X21906666Y-739999D01*
X22606666Y226667D02*
X22606666Y-173333D01*
X22606666Y26667D02*
X21906666Y26667D01*
X22006666Y-39999D01*
X22073333Y-106666D01*
X22106666Y-173333D01*
X21906666Y660001D02*
X21906666Y726667D01*
X21940000Y793334D01*
X21973333Y826667D01*
X22040000Y860001D01*
X22173333Y893334D01*
X22340000Y893334D01*
X22473333Y860001D01*
X22540000Y826667D01*
X22573333Y793334D01*
X22606666Y726667D01*
X22606666Y660001D01*
X22573333Y593334D01*
X22540000Y560001D01*
X22473333Y526667D01*
X22340000Y493334D01*
X22173333Y493334D01*
X22040000Y526667D01*
X21973333Y560001D01*
X21940000Y593334D01*
X21906666Y660001D01*
X17076666Y-12795666D02*
X16743333Y-12795666D01*
X16710000Y-13129000D01*
X16743333Y-13095666D01*
X16810000Y-13062333D01*
X16976666Y-13062333D01*
X17043333Y-13095666D01*
X17076666Y-13129000D01*
X17110000Y-13195666D01*
X17110000Y-13362333D01*
X17076666Y-13429000D01*
X17043333Y-13462333D01*
X16976666Y-13495666D01*
X16810000Y-13495666D01*
X16743333Y-13462333D01*
X16710000Y-13429000D01*
X17310000Y-12795666D02*
X17543333Y-13495666D01*
X17776666Y-12795666D01*
X30196666Y-540000D02*
X29496666Y-540000D01*
X29496666Y-73333D02*
X29496666Y60000D01*
X29530000Y126667D01*
X29596666Y193334D01*
X29730000Y226667D01*
X29963333Y226667D01*
X30096666Y193334D01*
X30163333Y126667D01*
X30196666Y60000D01*
X30196666Y-73333D01*
X30163333Y-140000D01*
X30096666Y-206666D01*
X29963333Y-240000D01*
X29730000Y-240000D01*
X29596666Y-206666D01*
X29530000Y-140000D01*
X29496666Y-73333D01*
X29496666Y460000D02*
X29496666Y926667D01*
X30196666Y626667D01*
X36743472Y-13410774D02*
X36846741Y-13389642D01*
X36991079Y-13306308D01*
X37032147Y-13244107D01*
X37044348Y-13198573D01*
X37039882Y-13124171D01*
X37006549Y-13066436D01*
X36944348Y-13025368D01*
X36898814Y-13013167D01*
X36824412Y-13017633D01*
X36692275Y-13055432D01*
X36617874Y-13059898D01*
X36572339Y-13047697D01*
X36510139Y-13006629D01*
X36476805Y-12948894D01*
X36472339Y-12874492D01*
X36484540Y-12828958D01*
X36525609Y-12766757D01*
X36669946Y-12683424D01*
X36773215Y-12662291D01*
X37366356Y-13089642D02*
X37016356Y-12483424D01*
X37247297Y-12350090D01*
X37321698Y-12345625D01*
X37367232Y-12357825D01*
X37429433Y-12398894D01*
X37479433Y-12485496D01*
X37483899Y-12559898D01*
X37471698Y-12605432D01*
X37430630Y-12667633D01*
X37199690Y-12800966D01*
X37972574Y-12739642D02*
X37622574Y-12133424D01*
X38698728Y-12397377D02*
X38624326Y-12401842D01*
X38533258Y-12377441D01*
X38396655Y-12340838D01*
X38322254Y-12345304D01*
X38264519Y-12378637D01*
X38376719Y-12506308D02*
X38302318Y-12510774D01*
X38211249Y-12486372D01*
X38115715Y-12387569D01*
X37999048Y-12185496D01*
X37961249Y-12053360D01*
X37985651Y-11962291D01*
X38026719Y-11900090D01*
X38142189Y-11833424D01*
X38216591Y-11828958D01*
X38307660Y-11853360D01*
X38403194Y-11952163D01*
X38519860Y-12154236D01*
X38557660Y-12286372D01*
X38533258Y-12377441D01*
X38492189Y-12439642D01*
X38376719Y-12506308D01*
X11340000Y-86666D02*
X11340000Y613334D01*
X11506666Y613334D01*
X11606666Y580000D01*
X11673333Y513334D01*
X11706666Y446667D01*
X11740000Y313334D01*
X11740000Y213334D01*
X11706666Y80000D01*
X11673333Y13334D01*
X11606666Y-53333D01*
X11506666Y-86666D01*
X11340000Y-86666D01*
X11940000Y613334D02*
X12340000Y613334D01*
X12140000Y-86666D02*
X12140000Y613334D01*
X12973333Y-86666D02*
X12740000Y246667D01*
X12573333Y-86666D02*
X12573333Y613334D01*
X12840000Y613334D01*
X12906666Y580000D01*
X12940000Y546667D01*
X12973333Y480000D01*
X12973333Y380000D01*
X12940000Y313334D01*
X12906666Y280000D01*
X12840000Y246667D01*
X12573333Y246667D01*
X46404669Y-13016356D02*
X46751079Y-12816356D01*
X46927874Y-13522574D02*
X46577874Y-12916356D01*
X46895416Y-12733023D02*
X47649562Y-13105908D01*
X47299562Y-12499690D02*
X47245416Y-13339241D01*
X47880502Y-12972574D02*
X47530502Y-12366356D01*
X47674839Y-12283023D01*
X47778108Y-12261891D01*
X47869177Y-12286292D01*
X47931378Y-12327361D01*
X48026912Y-12426164D01*
X48076912Y-12512767D01*
X48114711Y-12644903D01*
X48119177Y-12719305D01*
X48094775Y-12810373D01*
X48024839Y-12889241D01*
X47880502Y-12972574D01*
X48252189Y-11949690D02*
X48309924Y-11916356D01*
X48384326Y-11911891D01*
X48429860Y-11924091D01*
X48492061Y-11965160D01*
X48587595Y-12063963D01*
X48670929Y-12208301D01*
X48708728Y-12340437D01*
X48713194Y-12414839D01*
X48700993Y-12460373D01*
X48659924Y-12522574D01*
X48602189Y-12555908D01*
X48527788Y-12560373D01*
X48482254Y-12548173D01*
X48420053Y-12507104D01*
X48324519Y-12408301D01*
X48241185Y-12263963D01*
X48203386Y-12131826D01*
X48198920Y-12057425D01*
X48211121Y-12011891D01*
X48252189Y-11949690D01*
D10*
%TO.C,VT2*%
X21841428Y-4287857D02*
X22441428Y-4087857D01*
X21841428Y-3887857D01*
X21841428Y-3773571D02*
X21841428Y-3430714D01*
X22441428Y-3602142D02*
X21841428Y-3602142D01*
X21898571Y-3259285D02*
X21870000Y-3230714D01*
X21841428Y-3173571D01*
X21841428Y-3030714D01*
X21870000Y-2973571D01*
X21898571Y-2945000D01*
X21955714Y-2916428D01*
X22012857Y-2916428D01*
X22098571Y-2945000D01*
X22441428Y-3287857D01*
X22441428Y-2916428D01*
%TO.C,R1*%
X4910000Y-13321428D02*
X4710000Y-13035714D01*
X4567142Y-13321428D02*
X4567142Y-12721428D01*
X4795714Y-12721428D01*
X4852857Y-12750000D01*
X4881428Y-12778571D01*
X4910000Y-12835714D01*
X4910000Y-12921428D01*
X4881428Y-12978571D01*
X4852857Y-13007142D01*
X4795714Y-13035714D01*
X4567142Y-13035714D01*
X5481428Y-13321428D02*
X5138571Y-13321428D01*
X5310000Y-13321428D02*
X5310000Y-12721428D01*
X5252857Y-12807142D01*
X5195714Y-12864285D01*
X5138571Y-12892857D01*
%TO.C,U3*%
X38187857Y-4271428D02*
X38187857Y-4757142D01*
X38216428Y-4814285D01*
X38245000Y-4842857D01*
X38302142Y-4871428D01*
X38416428Y-4871428D01*
X38473571Y-4842857D01*
X38502142Y-4814285D01*
X38530714Y-4757142D01*
X38530714Y-4271428D01*
X38759285Y-4271428D02*
X39130714Y-4271428D01*
X38930714Y-4500000D01*
X39016428Y-4500000D01*
X39073571Y-4528571D01*
X39102142Y-4557142D01*
X39130714Y-4614285D01*
X39130714Y-4757142D01*
X39102142Y-4814285D01*
X39073571Y-4842857D01*
X39016428Y-4871428D01*
X38845000Y-4871428D01*
X38787857Y-4842857D01*
X38759285Y-4814285D01*
%TO.C,L1*%
X49241391Y-3770284D02*
X49039360Y-3972315D01*
X48615096Y-3548051D01*
X49605046Y-3406629D02*
X49362609Y-3649066D01*
X49483827Y-3527848D02*
X49059563Y-3103583D01*
X49079766Y-3204599D01*
X49079766Y-3285411D01*
X49059563Y-3346020D01*
%TO.C,R6*%
X18600000Y-9341428D02*
X18400000Y-9055714D01*
X18257142Y-9341428D02*
X18257142Y-8741428D01*
X18485714Y-8741428D01*
X18542857Y-8770000D01*
X18571428Y-8798571D01*
X18600000Y-8855714D01*
X18600000Y-8941428D01*
X18571428Y-8998571D01*
X18542857Y-9027142D01*
X18485714Y-9055714D01*
X18257142Y-9055714D01*
X19114285Y-8741428D02*
X19000000Y-8741428D01*
X18942857Y-8770000D01*
X18914285Y-8798571D01*
X18857142Y-8884285D01*
X18828571Y-8998571D01*
X18828571Y-9227142D01*
X18857142Y-9284285D01*
X18885714Y-9312857D01*
X18942857Y-9341428D01*
X19057142Y-9341428D01*
X19114285Y-9312857D01*
X19142857Y-9284285D01*
X19171428Y-9227142D01*
X19171428Y-9084285D01*
X19142857Y-9027142D01*
X19114285Y-8998571D01*
X19057142Y-8970000D01*
X18942857Y-8970000D01*
X18885714Y-8998571D01*
X18857142Y-9027142D01*
X18828571Y-9084285D01*
%TO.C,R7*%
X18580000Y-3881428D02*
X18380000Y-3595714D01*
X18237142Y-3881428D02*
X18237142Y-3281428D01*
X18465714Y-3281428D01*
X18522857Y-3310000D01*
X18551428Y-3338571D01*
X18580000Y-3395714D01*
X18580000Y-3481428D01*
X18551428Y-3538571D01*
X18522857Y-3567142D01*
X18465714Y-3595714D01*
X18237142Y-3595714D01*
X18780000Y-3281428D02*
X19180000Y-3281428D01*
X18922857Y-3881428D01*
%TO.C,C11*%
X12994285Y-10195714D02*
X13022857Y-10224285D01*
X13051428Y-10310000D01*
X13051428Y-10367142D01*
X13022857Y-10452857D01*
X12965714Y-10510000D01*
X12908571Y-10538571D01*
X12794285Y-10567142D01*
X12708571Y-10567142D01*
X12594285Y-10538571D01*
X12537142Y-10510000D01*
X12480000Y-10452857D01*
X12451428Y-10367142D01*
X12451428Y-10310000D01*
X12480000Y-10224285D01*
X12508571Y-10195714D01*
X13051428Y-9624285D02*
X13051428Y-9967142D01*
X13051428Y-9795714D02*
X12451428Y-9795714D01*
X12537142Y-9852857D01*
X12594285Y-9910000D01*
X12622857Y-9967142D01*
X13051428Y-9052857D02*
X13051428Y-9395714D01*
X13051428Y-9224285D02*
X12451428Y-9224285D01*
X12537142Y-9281428D01*
X12594285Y-9338571D01*
X12622857Y-9395714D01*
%TO.C,C16*%
X16274285Y-3205714D02*
X16302857Y-3234285D01*
X16331428Y-3320000D01*
X16331428Y-3377142D01*
X16302857Y-3462857D01*
X16245714Y-3520000D01*
X16188571Y-3548571D01*
X16074285Y-3577142D01*
X15988571Y-3577142D01*
X15874285Y-3548571D01*
X15817142Y-3520000D01*
X15760000Y-3462857D01*
X15731428Y-3377142D01*
X15731428Y-3320000D01*
X15760000Y-3234285D01*
X15788571Y-3205714D01*
X16331428Y-2634285D02*
X16331428Y-2977142D01*
X16331428Y-2805714D02*
X15731428Y-2805714D01*
X15817142Y-2862857D01*
X15874285Y-2920000D01*
X15902857Y-2977142D01*
X15731428Y-2120000D02*
X15731428Y-2234285D01*
X15760000Y-2291428D01*
X15788571Y-2320000D01*
X15874285Y-2377142D01*
X15988571Y-2405714D01*
X16217142Y-2405714D01*
X16274285Y-2377142D01*
X16302857Y-2348571D01*
X16331428Y-2291428D01*
X16331428Y-2177142D01*
X16302857Y-2120000D01*
X16274285Y-2091428D01*
X16217142Y-2062857D01*
X16074285Y-2062857D01*
X16017142Y-2091428D01*
X15988571Y-2120000D01*
X15960000Y-2177142D01*
X15960000Y-2291428D01*
X15988571Y-2348571D01*
X16017142Y-2377142D01*
X16074285Y-2405714D01*
%TO.C,R2*%
X38550000Y-2111428D02*
X38350000Y-1825714D01*
X38207142Y-2111428D02*
X38207142Y-1511428D01*
X38435714Y-1511428D01*
X38492857Y-1540000D01*
X38521428Y-1568571D01*
X38550000Y-1625714D01*
X38550000Y-1711428D01*
X38521428Y-1768571D01*
X38492857Y-1797142D01*
X38435714Y-1825714D01*
X38207142Y-1825714D01*
X38778571Y-1568571D02*
X38807142Y-1540000D01*
X38864285Y-1511428D01*
X39007142Y-1511428D01*
X39064285Y-1540000D01*
X39092857Y-1568571D01*
X39121428Y-1625714D01*
X39121428Y-1682857D01*
X39092857Y-1768571D01*
X38750000Y-2111428D01*
X39121428Y-2111428D01*
%TO.C,C4*%
X44874285Y-3430000D02*
X44902857Y-3458571D01*
X44931428Y-3544285D01*
X44931428Y-3601428D01*
X44902857Y-3687142D01*
X44845714Y-3744285D01*
X44788571Y-3772857D01*
X44674285Y-3801428D01*
X44588571Y-3801428D01*
X44474285Y-3772857D01*
X44417142Y-3744285D01*
X44360000Y-3687142D01*
X44331428Y-3601428D01*
X44331428Y-3544285D01*
X44360000Y-3458571D01*
X44388571Y-3430000D01*
X44531428Y-2915714D02*
X44931428Y-2915714D01*
X44302857Y-3058571D02*
X44731428Y-3201428D01*
X44731428Y-2830000D01*
%TO.C,C14*%
X33244285Y-2254285D02*
X33215714Y-2282857D01*
X33130000Y-2311428D01*
X33072857Y-2311428D01*
X32987142Y-2282857D01*
X32930000Y-2225714D01*
X32901428Y-2168571D01*
X32872857Y-2054285D01*
X32872857Y-1968571D01*
X32901428Y-1854285D01*
X32930000Y-1797142D01*
X32987142Y-1740000D01*
X33072857Y-1711428D01*
X33130000Y-1711428D01*
X33215714Y-1740000D01*
X33244285Y-1768571D01*
X33815714Y-2311428D02*
X33472857Y-2311428D01*
X33644285Y-2311428D02*
X33644285Y-1711428D01*
X33587142Y-1797142D01*
X33530000Y-1854285D01*
X33472857Y-1882857D01*
X34330000Y-1911428D02*
X34330000Y-2311428D01*
X34187142Y-1682857D02*
X34044285Y-2111428D01*
X34415714Y-2111428D01*
%TO.C,C5*%
X45794285Y-3400000D02*
X45822857Y-3428571D01*
X45851428Y-3514285D01*
X45851428Y-3571428D01*
X45822857Y-3657142D01*
X45765714Y-3714285D01*
X45708571Y-3742857D01*
X45594285Y-3771428D01*
X45508571Y-3771428D01*
X45394285Y-3742857D01*
X45337142Y-3714285D01*
X45280000Y-3657142D01*
X45251428Y-3571428D01*
X45251428Y-3514285D01*
X45280000Y-3428571D01*
X45308571Y-3400000D01*
X45251428Y-2857142D02*
X45251428Y-3142857D01*
X45537142Y-3171428D01*
X45508571Y-3142857D01*
X45480000Y-3085714D01*
X45480000Y-2942857D01*
X45508571Y-2885714D01*
X45537142Y-2857142D01*
X45594285Y-2828571D01*
X45737142Y-2828571D01*
X45794285Y-2857142D01*
X45822857Y-2885714D01*
X45851428Y-2942857D01*
X45851428Y-3085714D01*
X45822857Y-3142857D01*
X45794285Y-3171428D01*
%TO.C,C18*%
X33194285Y-6854285D02*
X33165714Y-6882857D01*
X33080000Y-6911428D01*
X33022857Y-6911428D01*
X32937142Y-6882857D01*
X32880000Y-6825714D01*
X32851428Y-6768571D01*
X32822857Y-6654285D01*
X32822857Y-6568571D01*
X32851428Y-6454285D01*
X32880000Y-6397142D01*
X32937142Y-6340000D01*
X33022857Y-6311428D01*
X33080000Y-6311428D01*
X33165714Y-6340000D01*
X33194285Y-6368571D01*
X33765714Y-6911428D02*
X33422857Y-6911428D01*
X33594285Y-6911428D02*
X33594285Y-6311428D01*
X33537142Y-6397142D01*
X33480000Y-6454285D01*
X33422857Y-6482857D01*
X34108571Y-6568571D02*
X34051428Y-6540000D01*
X34022857Y-6511428D01*
X33994285Y-6454285D01*
X33994285Y-6425714D01*
X34022857Y-6368571D01*
X34051428Y-6340000D01*
X34108571Y-6311428D01*
X34222857Y-6311428D01*
X34280000Y-6340000D01*
X34308571Y-6368571D01*
X34337142Y-6425714D01*
X34337142Y-6454285D01*
X34308571Y-6511428D01*
X34280000Y-6540000D01*
X34222857Y-6568571D01*
X34108571Y-6568571D01*
X34051428Y-6597142D01*
X34022857Y-6625714D01*
X33994285Y-6682857D01*
X33994285Y-6797142D01*
X34022857Y-6854285D01*
X34051428Y-6882857D01*
X34108571Y-6911428D01*
X34222857Y-6911428D01*
X34280000Y-6882857D01*
X34308571Y-6854285D01*
X34337142Y-6797142D01*
X34337142Y-6682857D01*
X34308571Y-6625714D01*
X34280000Y-6597142D01*
X34222857Y-6568571D01*
%TO.C,VT1*%
X21841428Y-9657857D02*
X22441428Y-9457857D01*
X21841428Y-9257857D01*
X21841428Y-9143571D02*
X21841428Y-8800714D01*
X22441428Y-8972142D02*
X21841428Y-8972142D01*
X22441428Y-8286428D02*
X22441428Y-8629285D01*
X22441428Y-8457857D02*
X21841428Y-8457857D01*
X21927142Y-8515000D01*
X21984285Y-8572142D01*
X22012857Y-8629285D01*
%TO.C,C8*%
X47000812Y-5112233D02*
X47000812Y-5152639D01*
X46960406Y-5233451D01*
X46919999Y-5273857D01*
X46839187Y-5314264D01*
X46758375Y-5314264D01*
X46697766Y-5294061D01*
X46596751Y-5233451D01*
X46536142Y-5172842D01*
X46475532Y-5071827D01*
X46455329Y-5011218D01*
X46455329Y-4930406D01*
X46495735Y-4849593D01*
X46536142Y-4809187D01*
X46616954Y-4768781D01*
X46657360Y-4768781D01*
X47041218Y-4667766D02*
X46980609Y-4687969D01*
X46940203Y-4687969D01*
X46879593Y-4667766D01*
X46859390Y-4647563D01*
X46839187Y-4586954D01*
X46839187Y-4546548D01*
X46859390Y-4485938D01*
X46940203Y-4405126D01*
X47000812Y-4384923D01*
X47041218Y-4384923D01*
X47101827Y-4405126D01*
X47122030Y-4425329D01*
X47142233Y-4485938D01*
X47142233Y-4526345D01*
X47122030Y-4586954D01*
X47041218Y-4667766D01*
X47021015Y-4728375D01*
X47021015Y-4768781D01*
X47041218Y-4829390D01*
X47122030Y-4910203D01*
X47182639Y-4930406D01*
X47223045Y-4930406D01*
X47283654Y-4910203D01*
X47364467Y-4829390D01*
X47384670Y-4768781D01*
X47384670Y-4728375D01*
X47364467Y-4667766D01*
X47283654Y-4586954D01*
X47223045Y-4566751D01*
X47182639Y-4566751D01*
X47122030Y-4586954D01*
%TO.C,C12*%
X49894285Y-7374285D02*
X49865714Y-7402857D01*
X49780000Y-7431428D01*
X49722857Y-7431428D01*
X49637142Y-7402857D01*
X49580000Y-7345714D01*
X49551428Y-7288571D01*
X49522857Y-7174285D01*
X49522857Y-7088571D01*
X49551428Y-6974285D01*
X49580000Y-6917142D01*
X49637142Y-6860000D01*
X49722857Y-6831428D01*
X49780000Y-6831428D01*
X49865714Y-6860000D01*
X49894285Y-6888571D01*
X50465714Y-7431428D02*
X50122857Y-7431428D01*
X50294285Y-7431428D02*
X50294285Y-6831428D01*
X50237142Y-6917142D01*
X50180000Y-6974285D01*
X50122857Y-7002857D01*
X50694285Y-6888571D02*
X50722857Y-6860000D01*
X50780000Y-6831428D01*
X50922857Y-6831428D01*
X50980000Y-6860000D01*
X51008571Y-6888571D01*
X51037142Y-6945714D01*
X51037142Y-7002857D01*
X51008571Y-7088571D01*
X50665714Y-7431428D01*
X51037142Y-7431428D01*
%TO.C,C15*%
X52464285Y-9145714D02*
X52492857Y-9174285D01*
X52521428Y-9260000D01*
X52521428Y-9317142D01*
X52492857Y-9402857D01*
X52435714Y-9460000D01*
X52378571Y-9488571D01*
X52264285Y-9517142D01*
X52178571Y-9517142D01*
X52064285Y-9488571D01*
X52007142Y-9460000D01*
X51950000Y-9402857D01*
X51921428Y-9317142D01*
X51921428Y-9260000D01*
X51950000Y-9174285D01*
X51978571Y-9145714D01*
X52521428Y-8574285D02*
X52521428Y-8917142D01*
X52521428Y-8745714D02*
X51921428Y-8745714D01*
X52007142Y-8802857D01*
X52064285Y-8860000D01*
X52092857Y-8917142D01*
X51921428Y-8031428D02*
X51921428Y-8317142D01*
X52207142Y-8345714D01*
X52178571Y-8317142D01*
X52150000Y-8260000D01*
X52150000Y-8117142D01*
X52178571Y-8060000D01*
X52207142Y-8031428D01*
X52264285Y-8002857D01*
X52407142Y-8002857D01*
X52464285Y-8031428D01*
X52492857Y-8060000D01*
X52521428Y-8117142D01*
X52521428Y-8260000D01*
X52492857Y-8317142D01*
X52464285Y-8345714D01*
%TO.C,R5*%
X18550000Y-5781428D02*
X18350000Y-5495714D01*
X18207142Y-5781428D02*
X18207142Y-5181428D01*
X18435714Y-5181428D01*
X18492857Y-5210000D01*
X18521428Y-5238571D01*
X18550000Y-5295714D01*
X18550000Y-5381428D01*
X18521428Y-5438571D01*
X18492857Y-5467142D01*
X18435714Y-5495714D01*
X18207142Y-5495714D01*
X19092857Y-5181428D02*
X18807142Y-5181428D01*
X18778571Y-5467142D01*
X18807142Y-5438571D01*
X18864285Y-5410000D01*
X19007142Y-5410000D01*
X19064285Y-5438571D01*
X19092857Y-5467142D01*
X19121428Y-5524285D01*
X19121428Y-5667142D01*
X19092857Y-5724285D01*
X19064285Y-5752857D01*
X19007142Y-5781428D01*
X18864285Y-5781428D01*
X18807142Y-5752857D01*
X18778571Y-5724285D01*
%TO.C,C10*%
X49884285Y-6484285D02*
X49855714Y-6512857D01*
X49770000Y-6541428D01*
X49712857Y-6541428D01*
X49627142Y-6512857D01*
X49570000Y-6455714D01*
X49541428Y-6398571D01*
X49512857Y-6284285D01*
X49512857Y-6198571D01*
X49541428Y-6084285D01*
X49570000Y-6027142D01*
X49627142Y-5970000D01*
X49712857Y-5941428D01*
X49770000Y-5941428D01*
X49855714Y-5970000D01*
X49884285Y-5998571D01*
X50455714Y-6541428D02*
X50112857Y-6541428D01*
X50284285Y-6541428D02*
X50284285Y-5941428D01*
X50227142Y-6027142D01*
X50170000Y-6084285D01*
X50112857Y-6112857D01*
X50827142Y-5941428D02*
X50884285Y-5941428D01*
X50941428Y-5970000D01*
X50970000Y-5998571D01*
X50998571Y-6055714D01*
X51027142Y-6170000D01*
X51027142Y-6312857D01*
X50998571Y-6427142D01*
X50970000Y-6484285D01*
X50941428Y-6512857D01*
X50884285Y-6541428D01*
X50827142Y-6541428D01*
X50770000Y-6512857D01*
X50741428Y-6484285D01*
X50712857Y-6427142D01*
X50684285Y-6312857D01*
X50684285Y-6170000D01*
X50712857Y-6055714D01*
X50741428Y-5998571D01*
X50770000Y-5970000D01*
X50827142Y-5941428D01*
%TO.C,C3*%
X14124285Y-15150000D02*
X14152857Y-15178571D01*
X14181428Y-15264285D01*
X14181428Y-15321428D01*
X14152857Y-15407142D01*
X14095714Y-15464285D01*
X14038571Y-15492857D01*
X13924285Y-15521428D01*
X13838571Y-15521428D01*
X13724285Y-15492857D01*
X13667142Y-15464285D01*
X13610000Y-15407142D01*
X13581428Y-15321428D01*
X13581428Y-15264285D01*
X13610000Y-15178571D01*
X13638571Y-15150000D01*
X13581428Y-14950000D02*
X13581428Y-14578571D01*
X13810000Y-14778571D01*
X13810000Y-14692857D01*
X13838571Y-14635714D01*
X13867142Y-14607142D01*
X13924285Y-14578571D01*
X14067142Y-14578571D01*
X14124285Y-14607142D01*
X14152857Y-14635714D01*
X14181428Y-14692857D01*
X14181428Y-14864285D01*
X14152857Y-14921428D01*
X14124285Y-14950000D01*
%TO.C,USB1*%
X3045428Y-7463571D02*
X3531142Y-7463571D01*
X3588285Y-7435000D01*
X3616857Y-7406428D01*
X3645428Y-7349285D01*
X3645428Y-7235000D01*
X3616857Y-7177857D01*
X3588285Y-7149285D01*
X3531142Y-7120714D01*
X3045428Y-7120714D01*
X3616857Y-6863571D02*
X3645428Y-6777857D01*
X3645428Y-6635000D01*
X3616857Y-6577857D01*
X3588285Y-6549285D01*
X3531142Y-6520714D01*
X3474000Y-6520714D01*
X3416857Y-6549285D01*
X3388285Y-6577857D01*
X3359714Y-6635000D01*
X3331142Y-6749285D01*
X3302571Y-6806428D01*
X3274000Y-6835000D01*
X3216857Y-6863571D01*
X3159714Y-6863571D01*
X3102571Y-6835000D01*
X3074000Y-6806428D01*
X3045428Y-6749285D01*
X3045428Y-6606428D01*
X3074000Y-6520714D01*
X3331142Y-6063571D02*
X3359714Y-5977857D01*
X3388285Y-5949285D01*
X3445428Y-5920714D01*
X3531142Y-5920714D01*
X3588285Y-5949285D01*
X3616857Y-5977857D01*
X3645428Y-6035000D01*
X3645428Y-6263571D01*
X3045428Y-6263571D01*
X3045428Y-6063571D01*
X3074000Y-6006428D01*
X3102571Y-5977857D01*
X3159714Y-5949285D01*
X3216857Y-5949285D01*
X3274000Y-5977857D01*
X3302571Y-6006428D01*
X3331142Y-6063571D01*
X3331142Y-6263571D01*
X3645428Y-5349285D02*
X3645428Y-5692142D01*
X3645428Y-5520714D02*
X3045428Y-5520714D01*
X3131142Y-5577857D01*
X3188285Y-5635000D01*
X3216857Y-5692142D01*
%TO.C,D1*%
X3397142Y-14851428D02*
X3397142Y-14251428D01*
X3540000Y-14251428D01*
X3625714Y-14280000D01*
X3682857Y-14337142D01*
X3711428Y-14394285D01*
X3740000Y-14508571D01*
X3740000Y-14594285D01*
X3711428Y-14708571D01*
X3682857Y-14765714D01*
X3625714Y-14822857D01*
X3540000Y-14851428D01*
X3397142Y-14851428D01*
X4311428Y-14851428D02*
X3968571Y-14851428D01*
X4140000Y-14851428D02*
X4140000Y-14251428D01*
X4082857Y-14337142D01*
X4025714Y-14394285D01*
X3968571Y-14422857D01*
D14*
%TO.C,*%
D10*
%TO.C,U1*%
X10857857Y-13681428D02*
X10857857Y-14167142D01*
X10886428Y-14224285D01*
X10915000Y-14252857D01*
X10972142Y-14281428D01*
X11086428Y-14281428D01*
X11143571Y-14252857D01*
X11172142Y-14224285D01*
X11200714Y-14167142D01*
X11200714Y-13681428D01*
X11800714Y-14281428D02*
X11457857Y-14281428D01*
X11629285Y-14281428D02*
X11629285Y-13681428D01*
X11572142Y-13767142D01*
X11515000Y-13824285D01*
X11457857Y-13852857D01*
%TO.C,C9*%
X43094285Y-1870000D02*
X43122857Y-1898571D01*
X43151428Y-1984285D01*
X43151428Y-2041428D01*
X43122857Y-2127142D01*
X43065714Y-2184285D01*
X43008571Y-2212857D01*
X42894285Y-2241428D01*
X42808571Y-2241428D01*
X42694285Y-2212857D01*
X42637142Y-2184285D01*
X42580000Y-2127142D01*
X42551428Y-2041428D01*
X42551428Y-1984285D01*
X42580000Y-1898571D01*
X42608571Y-1870000D01*
X43151428Y-1584285D02*
X43151428Y-1470000D01*
X43122857Y-1412857D01*
X43094285Y-1384285D01*
X43008571Y-1327142D01*
X42894285Y-1298571D01*
X42665714Y-1298571D01*
X42608571Y-1327142D01*
X42580000Y-1355714D01*
X42551428Y-1412857D01*
X42551428Y-1527142D01*
X42580000Y-1584285D01*
X42608571Y-1612857D01*
X42665714Y-1641428D01*
X42808571Y-1641428D01*
X42865714Y-1612857D01*
X42894285Y-1584285D01*
X42922857Y-1527142D01*
X42922857Y-1412857D01*
X42894285Y-1355714D01*
X42865714Y-1327142D01*
X42808571Y-1298571D01*
%TO.C,U4*%
X15671428Y-9272142D02*
X16157142Y-9272142D01*
X16214285Y-9243571D01*
X16242857Y-9215000D01*
X16271428Y-9157857D01*
X16271428Y-9043571D01*
X16242857Y-8986428D01*
X16214285Y-8957857D01*
X16157142Y-8929285D01*
X15671428Y-8929285D01*
X15871428Y-8386428D02*
X16271428Y-8386428D01*
X15642857Y-8529285D02*
X16071428Y-8672142D01*
X16071428Y-8300714D01*
%TO.C,C2*%
X9004285Y-15150000D02*
X9032857Y-15178571D01*
X9061428Y-15264285D01*
X9061428Y-15321428D01*
X9032857Y-15407142D01*
X8975714Y-15464285D01*
X8918571Y-15492857D01*
X8804285Y-15521428D01*
X8718571Y-15521428D01*
X8604285Y-15492857D01*
X8547142Y-15464285D01*
X8490000Y-15407142D01*
X8461428Y-15321428D01*
X8461428Y-15264285D01*
X8490000Y-15178571D01*
X8518571Y-15150000D01*
X8518571Y-14921428D02*
X8490000Y-14892857D01*
X8461428Y-14835714D01*
X8461428Y-14692857D01*
X8490000Y-14635714D01*
X8518571Y-14607142D01*
X8575714Y-14578571D01*
X8632857Y-14578571D01*
X8718571Y-14607142D01*
X9061428Y-14950000D01*
X9061428Y-14578571D01*
%TO.C,R4*%
X33810000Y-3381428D02*
X33610000Y-3095714D01*
X33467142Y-3381428D02*
X33467142Y-2781428D01*
X33695714Y-2781428D01*
X33752857Y-2810000D01*
X33781428Y-2838571D01*
X33810000Y-2895714D01*
X33810000Y-2981428D01*
X33781428Y-3038571D01*
X33752857Y-3067142D01*
X33695714Y-3095714D01*
X33467142Y-3095714D01*
X34324285Y-2981428D02*
X34324285Y-3381428D01*
X34181428Y-2752857D02*
X34038571Y-3181428D01*
X34410000Y-3181428D01*
%TO.C,C17*%
X52464285Y-11205714D02*
X52492857Y-11234285D01*
X52521428Y-11320000D01*
X52521428Y-11377142D01*
X52492857Y-11462857D01*
X52435714Y-11520000D01*
X52378571Y-11548571D01*
X52264285Y-11577142D01*
X52178571Y-11577142D01*
X52064285Y-11548571D01*
X52007142Y-11520000D01*
X51950000Y-11462857D01*
X51921428Y-11377142D01*
X51921428Y-11320000D01*
X51950000Y-11234285D01*
X51978571Y-11205714D01*
X52521428Y-10634285D02*
X52521428Y-10977142D01*
X52521428Y-10805714D02*
X51921428Y-10805714D01*
X52007142Y-10862857D01*
X52064285Y-10920000D01*
X52092857Y-10977142D01*
X51921428Y-10434285D02*
X51921428Y-10034285D01*
X52521428Y-10291428D01*
%TO.C,C19*%
X33184285Y-7934285D02*
X33155714Y-7962857D01*
X33070000Y-7991428D01*
X33012857Y-7991428D01*
X32927142Y-7962857D01*
X32870000Y-7905714D01*
X32841428Y-7848571D01*
X32812857Y-7734285D01*
X32812857Y-7648571D01*
X32841428Y-7534285D01*
X32870000Y-7477142D01*
X32927142Y-7420000D01*
X33012857Y-7391428D01*
X33070000Y-7391428D01*
X33155714Y-7420000D01*
X33184285Y-7448571D01*
X33755714Y-7991428D02*
X33412857Y-7991428D01*
X33584285Y-7991428D02*
X33584285Y-7391428D01*
X33527142Y-7477142D01*
X33470000Y-7534285D01*
X33412857Y-7562857D01*
X34041428Y-7991428D02*
X34155714Y-7991428D01*
X34212857Y-7962857D01*
X34241428Y-7934285D01*
X34298571Y-7848571D01*
X34327142Y-7734285D01*
X34327142Y-7505714D01*
X34298571Y-7448571D01*
X34270000Y-7420000D01*
X34212857Y-7391428D01*
X34098571Y-7391428D01*
X34041428Y-7420000D01*
X34012857Y-7448571D01*
X33984285Y-7505714D01*
X33984285Y-7648571D01*
X34012857Y-7705714D01*
X34041428Y-7734285D01*
X34098571Y-7762857D01*
X34212857Y-7762857D01*
X34270000Y-7734285D01*
X34298571Y-7705714D01*
X34327142Y-7648571D01*
%TO.C,C7*%
X46714285Y-3430000D02*
X46742857Y-3458571D01*
X46771428Y-3544285D01*
X46771428Y-3601428D01*
X46742857Y-3687142D01*
X46685714Y-3744285D01*
X46628571Y-3772857D01*
X46514285Y-3801428D01*
X46428571Y-3801428D01*
X46314285Y-3772857D01*
X46257142Y-3744285D01*
X46200000Y-3687142D01*
X46171428Y-3601428D01*
X46171428Y-3544285D01*
X46200000Y-3458571D01*
X46228571Y-3430000D01*
X46171428Y-3230000D02*
X46171428Y-2830000D01*
X46771428Y-3087142D01*
%TO.C,C6*%
X50720812Y-3292233D02*
X50720812Y-3332639D01*
X50680406Y-3413451D01*
X50639999Y-3453857D01*
X50559187Y-3494264D01*
X50478375Y-3494264D01*
X50417766Y-3474061D01*
X50316751Y-3413451D01*
X50256142Y-3352842D01*
X50195532Y-3251827D01*
X50175329Y-3191218D01*
X50175329Y-3110406D01*
X50215735Y-3029593D01*
X50256142Y-2989187D01*
X50336954Y-2948781D01*
X50377360Y-2948781D01*
X50700609Y-2544720D02*
X50619796Y-2625532D01*
X50599593Y-2686142D01*
X50599593Y-2726548D01*
X50619796Y-2827563D01*
X50680406Y-2928578D01*
X50842030Y-3090203D01*
X50902639Y-3110406D01*
X50943045Y-3110406D01*
X51003654Y-3090203D01*
X51084467Y-3009390D01*
X51104670Y-2948781D01*
X51104670Y-2908375D01*
X51084467Y-2847766D01*
X50983451Y-2746751D01*
X50922842Y-2726548D01*
X50882436Y-2726548D01*
X50821827Y-2746751D01*
X50741015Y-2827563D01*
X50720812Y-2888172D01*
X50720812Y-2928578D01*
X50741015Y-2989187D01*
%TO.C,C13*%
X12964285Y-3195714D02*
X12992857Y-3224285D01*
X13021428Y-3310000D01*
X13021428Y-3367142D01*
X12992857Y-3452857D01*
X12935714Y-3510000D01*
X12878571Y-3538571D01*
X12764285Y-3567142D01*
X12678571Y-3567142D01*
X12564285Y-3538571D01*
X12507142Y-3510000D01*
X12450000Y-3452857D01*
X12421428Y-3367142D01*
X12421428Y-3310000D01*
X12450000Y-3224285D01*
X12478571Y-3195714D01*
X13021428Y-2624285D02*
X13021428Y-2967142D01*
X13021428Y-2795714D02*
X12421428Y-2795714D01*
X12507142Y-2852857D01*
X12564285Y-2910000D01*
X12592857Y-2967142D01*
X12421428Y-2424285D02*
X12421428Y-2052857D01*
X12650000Y-2252857D01*
X12650000Y-2167142D01*
X12678571Y-2110000D01*
X12707142Y-2081428D01*
X12764285Y-2052857D01*
X12907142Y-2052857D01*
X12964285Y-2081428D01*
X12992857Y-2110000D01*
X13021428Y-2167142D01*
X13021428Y-2338571D01*
X12992857Y-2395714D01*
X12964285Y-2424285D01*
%TO.C,HOLE2*%
X15560000Y2470000D02*
G75*
G03*
X15560000Y2470000I-900000J0D01*
G01*
D15*
%TO.C,VT2*%
X21284000Y-4065000D02*
X21284000Y-3155000D01*
X23036000Y-5146000D02*
X23036000Y-4105000D01*
X21284000Y-2074000D02*
X23036000Y-2074000D01*
X21284000Y-5146000D02*
X23036000Y-5146000D01*
X23036000Y-2074000D02*
X23036000Y-3115000D01*
D16*
%TO.C,R1*%
X6456359Y-13400000D02*
X6763641Y-13400000D01*
X6456359Y-12640000D02*
X6763641Y-12640000D01*
D15*
%TO.C,U3*%
X42351030Y-9993014D02*
X42000305Y-9642289D01*
X45643319Y-6700725D02*
X45643319Y-5999275D01*
X45994044Y-6350000D02*
X45643319Y-5999275D01*
X42351030Y-2706986D02*
X42701755Y-3057711D01*
X39058741Y-5999275D02*
X38708016Y-6350000D01*
X42000305Y-3057711D02*
X42351030Y-2706986D01*
X42701755Y-9642289D02*
X42351030Y-9993014D01*
X38708016Y-6350000D02*
X39058741Y-6700725D01*
X45643319Y-6700725D02*
X45994044Y-6350000D01*
D13*
X46127985Y-5925736D02*
G75*
G03*
X46127985Y-5925736I-100000J0D01*
G01*
G36*
X45940304Y-6296260D02*
G01*
X45657461Y-6686583D01*
X45644026Y-6673148D01*
X45643319Y-5999275D01*
X45940304Y-6296260D01*
G37*
D16*
X45940304Y-6296260D02*
X45657461Y-6686583D01*
X45644026Y-6673148D01*
X45643319Y-5999275D01*
X45940304Y-6296260D01*
%TO.C,R6*%
X18556359Y-8450000D02*
X18863641Y-8450000D01*
X18556359Y-7690000D02*
X18863641Y-7690000D01*
%TO.C,J3*%
X52780000Y-13760000D02*
X54110000Y-13760000D01*
X51510000Y-13760000D02*
X15890000Y-13760000D01*
X51510000Y-16420000D02*
X15890000Y-16420000D01*
X15890000Y-13760000D02*
X15890000Y-16420000D01*
X51510000Y-13760000D02*
X51510000Y-16420000D01*
X54110000Y-13760000D02*
X54110000Y-15090000D01*
%TO.C,R7*%
X18863641Y-3040000D02*
X18556359Y-3040000D01*
X18863641Y-2280000D02*
X18556359Y-2280000D01*
D10*
%TO.C,HOLE1*%
X2810000Y1590000D02*
G75*
G03*
X2810000Y1590000I-900000J0D01*
G01*
D17*
%TO.C,SW2*%
X25300000Y-5340000D02*
X25300000Y-5271000D01*
X29500000Y-1940000D02*
X25300000Y-1940000D01*
X28162000Y-3005000D02*
X26638000Y-3005000D01*
X25300000Y-2009000D02*
X25300000Y-1940000D01*
X25300000Y-4159000D02*
X25300000Y-3121000D01*
X29500000Y-5340000D02*
X25300000Y-5340000D01*
X29500000Y-2009000D02*
X29500000Y-1940000D01*
X28162000Y-4275000D02*
X26638000Y-4275000D01*
X29500000Y-5340000D02*
X29500000Y-5271000D01*
X29500000Y-4159000D02*
X29500000Y-3121000D01*
X26639000Y-3006001D02*
G75*
G03*
X26639068Y-4274000I4000J-633999D01*
G01*
X28163000Y-4276000D02*
G75*
G03*
X28163000Y-3004000I0J636000D01*
G01*
D16*
%TO.C,C11*%
X13270000Y-9907836D02*
X13270000Y-9692164D01*
X13990000Y-9907836D02*
X13990000Y-9692164D01*
%TO.C,C16*%
X15480000Y-2927836D02*
X15480000Y-2712164D01*
X14760000Y-2927836D02*
X14760000Y-2712164D01*
%TO.C,R2*%
X40046359Y-2220000D02*
X40353641Y-2220000D01*
X40046359Y-1460000D02*
X40353641Y-1460000D01*
%TO.C,Y1*%
X50520000Y-7920000D02*
X47220000Y-7920000D01*
X47220000Y-7920000D02*
X47220000Y-11920000D01*
%TO.C,C4*%
X45020000Y-1937836D02*
X45020000Y-1722164D01*
X44300000Y-1937836D02*
X44300000Y-1722164D01*
%TO.C,C14*%
X35362164Y-2370000D02*
X35577836Y-2370000D01*
X35362164Y-1650000D02*
X35577836Y-1650000D01*
%TO.C,C5*%
X45220000Y-1937836D02*
X45220000Y-1722164D01*
X45940000Y-1937836D02*
X45940000Y-1722164D01*
%TO.C,C18*%
X35597836Y-6970000D02*
X35382164Y-6970000D01*
X35597836Y-6250000D02*
X35382164Y-6250000D01*
%TO.C,J2*%
X13480000Y3810000D02*
X13480000Y2480000D01*
X10880000Y3810000D02*
X3200000Y3810000D01*
X12150000Y3810000D02*
X13480000Y3810000D01*
X3200000Y3810000D02*
X3200000Y1150000D01*
X10880000Y1150000D02*
X3200000Y1150000D01*
X10880000Y3810000D02*
X10880000Y1150000D01*
D15*
%TO.C,VT1*%
X21284000Y-7464000D02*
X23036000Y-7464000D01*
X23036000Y-10536000D02*
X23036000Y-9495000D01*
X21284000Y-9455000D02*
X21284000Y-8545000D01*
X21284000Y-10536000D02*
X23036000Y-10536000D01*
X23036000Y-7464000D02*
X23036000Y-8505000D01*
D16*
%TO.C,C8*%
X47403433Y-4294064D02*
X47555936Y-4446567D01*
X47912550Y-3784947D02*
X48065053Y-3937450D01*
%TO.C,C12*%
X48092164Y-7460000D02*
X48307836Y-7460000D01*
X48092164Y-6740000D02*
X48307836Y-6740000D01*
%TO.C,C15*%
X51600000Y-8837836D02*
X51600000Y-8622164D01*
X50880000Y-8837836D02*
X50880000Y-8622164D01*
%TO.C,R5*%
X18556359Y-4180000D02*
X18863641Y-4180000D01*
X18556359Y-4940000D02*
X18863641Y-4940000D01*
%TO.C,C10*%
X48092164Y-5820000D02*
X48307836Y-5820000D01*
X48092164Y-6540000D02*
X48307836Y-6540000D01*
%TO.C,C3*%
X14210000Y-13587836D02*
X14210000Y-13372164D01*
X13490000Y-13587836D02*
X13490000Y-13372164D01*
D10*
%TO.C,HOLE3*%
X56040000Y2420000D02*
G75*
G03*
X56040000Y2420000I-900000J0D01*
G01*
D17*
%TO.C,USB1*%
X3226000Y-1950000D02*
X4971000Y-1950000D01*
X-551000Y-1950000D02*
X-551000Y-10750000D01*
X-551000Y-10750000D02*
X871000Y-10750000D01*
X-551000Y-1950000D02*
X871000Y-1950000D01*
X3226000Y-10750000D02*
X4971000Y-10750000D01*
D16*
%TO.C,D1*%
X4575000Y-15315000D02*
X6860000Y-15315000D01*
X4575000Y-13845000D02*
X4575000Y-15315000D01*
X6860000Y-13845000D02*
X4575000Y-13845000D01*
%TO.C,*%
G36*
X9376240Y-9840181D02*
G01*
X9151018Y-9840181D01*
X9151018Y-9523202D01*
X9376240Y-9523202D01*
X9376240Y-9840181D01*
G37*
G36*
X9743307Y-10115484D02*
G01*
X9825466Y-10115617D01*
X9894025Y-10115899D01*
X9950525Y-10116382D01*
X9996508Y-10117117D01*
X10033515Y-10118155D01*
X10063087Y-10119546D01*
X10086765Y-10121340D01*
X10106092Y-10123590D01*
X10122607Y-10126345D01*
X10137854Y-10129656D01*
X10147120Y-10131952D01*
X10212908Y-10152993D01*
X10267288Y-10180573D01*
X10315106Y-10217475D01*
X10340573Y-10242976D01*
X10378433Y-10288631D01*
X10407331Y-10335710D01*
X10430509Y-10390084D01*
X10442964Y-10428470D01*
X10466438Y-10536102D01*
X10475098Y-10651374D01*
X10468940Y-10774252D01*
X10467996Y-10782775D01*
X10450474Y-10878580D01*
X10421338Y-10963251D01*
X10380960Y-11036344D01*
X10329715Y-11097415D01*
X10267974Y-11146020D01*
X10196112Y-11181714D01*
X10114502Y-11204055D01*
X10113793Y-11204182D01*
X10093687Y-11207058D01*
X10067458Y-11209471D01*
X10033740Y-11211455D01*
X9991167Y-11213044D01*
X9938371Y-11214273D01*
X9873987Y-11215174D01*
X9796648Y-11215783D01*
X9704986Y-11216133D01*
X9628572Y-11216244D01*
X9209409Y-11216535D01*
X9209409Y-10899557D01*
X9612442Y-10899557D01*
X9716961Y-10899352D01*
X9809530Y-10898751D01*
X9889356Y-10897767D01*
X9955643Y-10896418D01*
X10007597Y-10894720D01*
X10044422Y-10892688D01*
X10064706Y-10890456D01*
X10124615Y-10874248D01*
X10170961Y-10849551D01*
X10204845Y-10815068D01*
X10227371Y-10769500D01*
X10239640Y-10711550D01*
X10242084Y-10681579D01*
X10240793Y-10613873D01*
X10229079Y-10558440D01*
X10206383Y-10514097D01*
X10172147Y-10479666D01*
X10136798Y-10458800D01*
X10089442Y-10436601D01*
X9649425Y-10434169D01*
X9209409Y-10431737D01*
X9209409Y-10115451D01*
X9646006Y-10115451D01*
X9743307Y-10115484D01*
G37*
G36*
X9682349Y-7136453D02*
G01*
X9667236Y-7133735D01*
X9570992Y-7107011D01*
X9482907Y-7067733D01*
X9404498Y-7016905D01*
X9337280Y-6955530D01*
X9282768Y-6884611D01*
X9277265Y-6875695D01*
X9239391Y-6798349D01*
X9211642Y-6710783D01*
X9194314Y-6616257D01*
X9187705Y-6518033D01*
X9188368Y-6503198D01*
X9418980Y-6503198D01*
X9419838Y-6524417D01*
X9430657Y-6595348D01*
X9455086Y-6656699D01*
X9493017Y-6708387D01*
X9544345Y-6750329D01*
X9608964Y-6782443D01*
X9686767Y-6804647D01*
X9777648Y-6816857D01*
X9797651Y-6818106D01*
X9890792Y-6817356D01*
X9975792Y-6805451D01*
X10051357Y-6782836D01*
X10116195Y-6749958D01*
X10169014Y-6707263D01*
X10190196Y-6682789D01*
X10219409Y-6631682D01*
X10237348Y-6572184D01*
X10243443Y-6508698D01*
X10237129Y-6445628D01*
X10225856Y-6406285D01*
X10196911Y-6351959D01*
X10154098Y-6303839D01*
X10099574Y-6263490D01*
X10035494Y-6232476D01*
X9964015Y-6212363D01*
X9956869Y-6211067D01*
X9910203Y-6205772D01*
X9855211Y-6203851D01*
X9796649Y-6205060D01*
X9739270Y-6209154D01*
X9687831Y-6215887D01*
X9647086Y-6225012D01*
X9639665Y-6227446D01*
X9567550Y-6259729D01*
X9509746Y-6300203D01*
X9465824Y-6349248D01*
X9435354Y-6407242D01*
X9434948Y-6408313D01*
X9424774Y-6439510D01*
X9419773Y-6468664D01*
X9418980Y-6503198D01*
X9188368Y-6503198D01*
X9192112Y-6419373D01*
X9207834Y-6323536D01*
X9222126Y-6270933D01*
X9258621Y-6181679D01*
X9308236Y-6102414D01*
X9370290Y-6033753D01*
X9444104Y-5976310D01*
X9528996Y-5930699D01*
X9624288Y-5897535D01*
X9639959Y-5893545D01*
X9706473Y-5881804D01*
X9782484Y-5875602D01*
X9861995Y-5874944D01*
X9939004Y-5879838D01*
X10007511Y-5890290D01*
X10019914Y-5893109D01*
X10118250Y-5924550D01*
X10205276Y-5968181D01*
X10280694Y-6023662D01*
X10344209Y-6090653D01*
X10395525Y-6168815D01*
X10434346Y-6257807D01*
X10460376Y-6357291D01*
X10468115Y-6407635D01*
X10474014Y-6466550D01*
X10475805Y-6518339D01*
X10473460Y-6570894D01*
X10467381Y-6628686D01*
X10447269Y-6726911D01*
X10412865Y-6817594D01*
X10365106Y-6899625D01*
X10304934Y-6971889D01*
X10233287Y-7033274D01*
X10151104Y-7082666D01*
X10059324Y-7118953D01*
X10051769Y-7121206D01*
X10002195Y-7132011D01*
X9941179Y-7139727D01*
X9873704Y-7144191D01*
X9804752Y-7145242D01*
X9797651Y-7144968D01*
X9739306Y-7142717D01*
X9682349Y-7136453D01*
G37*
G36*
X10452299Y-5627701D02*
G01*
X10126979Y-5627701D01*
X10126979Y-5327406D01*
X10452299Y-5327406D01*
X10452299Y-5627701D01*
G37*
G36*
X10452299Y-8604217D02*
G01*
X10145747Y-8607010D01*
X9839196Y-8609803D01*
X9797488Y-8630657D01*
X9765530Y-8650317D01*
X9744376Y-8673660D01*
X9732429Y-8704068D01*
X9728090Y-8744924D01*
X9728504Y-8776634D01*
X9732222Y-8821337D01*
X9740399Y-8858024D01*
X9754926Y-8895161D01*
X9755081Y-8895501D01*
X9778912Y-8947635D01*
X10452299Y-8947635D01*
X10452299Y-9247931D01*
X9518046Y-9247931D01*
X9518046Y-8947635D01*
X9617586Y-8947635D01*
X9580189Y-8894139D01*
X9532983Y-8814856D01*
X9502306Y-8735778D01*
X9488202Y-8657069D01*
X9490715Y-8578893D01*
X9492653Y-8566498D01*
X9510641Y-8496339D01*
X9538481Y-8438846D01*
X9577051Y-8392624D01*
X9623343Y-8358514D01*
X9642589Y-8347579D01*
X9660847Y-8338457D01*
X9679815Y-8330966D01*
X9701192Y-8324923D01*
X9726678Y-8320147D01*
X9757970Y-8316456D01*
X9796768Y-8313668D01*
X9844772Y-8311602D01*
X9903679Y-8310076D01*
X9975188Y-8308907D01*
X10061000Y-8307914D01*
X10099869Y-8307524D01*
X10452299Y-8304066D01*
X10452299Y-8604217D01*
G37*
G36*
X9800698Y-4056405D02*
G01*
X9722122Y-4022770D01*
X9653588Y-3976578D01*
X9595797Y-3918347D01*
X9549451Y-3848592D01*
X9515251Y-3767833D01*
X9504284Y-3729162D01*
X9495959Y-3680483D01*
X9491321Y-3621337D01*
X9490609Y-3573864D01*
X9693402Y-3573864D01*
X9696719Y-3621777D01*
X9708455Y-3659378D01*
X9730706Y-3691792D01*
X9749199Y-3710184D01*
X9779017Y-3733424D01*
X9811449Y-3750352D01*
X9849626Y-3761786D01*
X9896678Y-3768540D01*
X9955736Y-3771431D01*
X9985173Y-3771689D01*
X10043628Y-3770848D01*
X10089104Y-3767812D01*
X10125242Y-3761846D01*
X10155681Y-3752212D01*
X10184062Y-3738175D01*
X10200315Y-3728180D01*
X10235202Y-3696156D01*
X10260342Y-3653788D01*
X10274762Y-3604925D01*
X10277484Y-3553416D01*
X10267533Y-3503108D01*
X10261338Y-3487505D01*
X10235577Y-3448959D01*
X10197186Y-3415327D01*
X10150143Y-3389928D01*
X10139755Y-3386027D01*
X10116131Y-3379427D01*
X10087907Y-3375099D01*
X10051444Y-3372711D01*
X10003104Y-3371933D01*
X9985173Y-3371966D01*
X9936457Y-3372592D01*
X9900368Y-3374241D01*
X9872855Y-3377401D01*
X9849871Y-3382562D01*
X9827367Y-3390209D01*
X9824468Y-3391332D01*
X9770961Y-3417949D01*
X9732327Y-3450868D01*
X9707439Y-3491656D01*
X9695174Y-3541879D01*
X9693402Y-3573864D01*
X9490609Y-3573864D01*
X9490364Y-3557530D01*
X9493085Y-3494863D01*
X9499478Y-3439141D01*
X9504556Y-3413560D01*
X9532840Y-3328719D01*
X9573912Y-3254468D01*
X9627261Y-3191323D01*
X9692379Y-3139802D01*
X9768754Y-3100419D01*
X9835627Y-3078507D01*
X9881978Y-3070227D01*
X9938577Y-3065578D01*
X9999584Y-3064564D01*
X10059159Y-3067186D01*
X10111461Y-3073448D01*
X10134718Y-3078368D01*
X10219080Y-3108064D01*
X10292985Y-3150244D01*
X10355641Y-3204113D01*
X10406256Y-3268875D01*
X10444036Y-3343733D01*
X10464264Y-3409389D01*
X10472433Y-3455730D01*
X10478240Y-3510881D01*
X10481354Y-3568617D01*
X10481444Y-3622717D01*
X10478179Y-3666958D01*
X10478026Y-3668067D01*
X10457749Y-3760135D01*
X10424627Y-3841846D01*
X10379310Y-3912652D01*
X10322448Y-3972004D01*
X10254693Y-4019354D01*
X10176693Y-4054151D01*
X10089101Y-4075848D01*
X9992566Y-4083895D01*
X9985173Y-4083933D01*
X9888615Y-4076965D01*
X9800698Y-4056405D01*
G37*
G36*
X10452299Y-1605839D02*
G01*
X10137406Y-1608543D01*
X10056149Y-1609286D01*
X9989835Y-1610045D01*
X9936722Y-1610918D01*
X9895069Y-1612000D01*
X9863137Y-1613390D01*
X9839183Y-1615184D01*
X9821467Y-1617478D01*
X9808249Y-1620370D01*
X9797787Y-1623957D01*
X9789146Y-1627931D01*
X9759341Y-1648143D01*
X9740037Y-1675145D01*
X9730022Y-1711676D01*
X9728086Y-1760474D01*
X9728267Y-1765566D01*
X9732064Y-1808786D01*
X9740759Y-1844143D01*
X9754329Y-1876092D01*
X9777861Y-1924056D01*
X10452299Y-1924056D01*
X10452299Y-2223268D01*
X10137406Y-2225895D01*
X10056306Y-2226611D01*
X9990148Y-2227336D01*
X9937189Y-2228172D01*
X9895690Y-2229216D01*
X9863908Y-2230568D01*
X9840102Y-2232328D01*
X9822531Y-2234596D01*
X9809453Y-2237470D01*
X9799127Y-2241049D01*
X9789812Y-2245435D01*
X9789146Y-2245778D01*
X9756757Y-2271346D01*
X9735506Y-2307468D01*
X9725722Y-2351992D01*
X9727731Y-2402764D01*
X9741860Y-2457633D01*
X9752844Y-2484359D01*
X9779104Y-2541330D01*
X10452299Y-2541330D01*
X10452299Y-2841626D01*
X9518046Y-2841626D01*
X9518046Y-2541330D01*
X9618909Y-2541330D01*
X9588942Y-2502084D01*
X9558320Y-2456124D01*
X9530330Y-2403446D01*
X9507777Y-2350037D01*
X9493466Y-2301884D01*
X9492225Y-2295602D01*
X9487017Y-2227002D01*
X9495595Y-2160190D01*
X9516876Y-2097939D01*
X9549773Y-2043024D01*
X9593204Y-1998215D01*
X9614502Y-1982964D01*
X9649388Y-1960840D01*
X9608454Y-1906996D01*
X9573030Y-1855225D01*
X9541189Y-1798939D01*
X9515215Y-1742820D01*
X9497387Y-1691548D01*
X9492080Y-1668273D01*
X9487241Y-1599520D01*
X9496106Y-1533615D01*
X9517613Y-1472994D01*
X9550697Y-1420090D01*
X9594294Y-1377337D01*
X9628793Y-1355615D01*
X9648704Y-1345743D01*
X9667527Y-1337517D01*
X9686992Y-1330766D01*
X9708830Y-1325320D01*
X9734769Y-1321007D01*
X9766541Y-1317656D01*
X9805874Y-1315096D01*
X9854498Y-1313157D01*
X9914144Y-1311666D01*
X9986541Y-1310454D01*
X10073419Y-1309349D01*
X10099869Y-1309043D01*
X10452299Y-1305020D01*
X10452299Y-1605839D01*
G37*
G36*
X9818342Y-4241712D02*
G01*
X9812577Y-4264904D01*
X9801754Y-4280456D01*
X9768044Y-4320045D01*
X9739315Y-4371268D01*
X9717476Y-4429359D01*
X9704433Y-4489555D01*
X9701560Y-4530608D01*
X9706947Y-4596306D01*
X9723770Y-4650676D01*
X9753019Y-4695398D01*
X9795687Y-4732154D01*
X9833061Y-4753548D01*
X9857625Y-4765237D01*
X9877835Y-4773035D01*
X9898154Y-4777728D01*
X9923044Y-4780100D01*
X9956969Y-4780939D01*
X9989168Y-4781034D01*
X10049150Y-4779215D01*
X10096535Y-4772952D01*
X10135091Y-4761037D01*
X10168586Y-4742264D01*
X10200789Y-4715425D01*
X10204192Y-4712145D01*
X10236590Y-4669448D01*
X10258076Y-4617100D01*
X10268697Y-4558032D01*
X10268496Y-4495174D01*
X10257520Y-4431458D01*
X10235811Y-4369814D01*
X10203416Y-4313173D01*
X10197971Y-4305731D01*
X10179533Y-4278840D01*
X10166118Y-4254614D01*
X10160392Y-4237927D01*
X10160345Y-4236913D01*
X10160799Y-4229653D01*
X10163816Y-4224536D01*
X10171882Y-4221187D01*
X10187478Y-4219232D01*
X10213090Y-4218296D01*
X10251202Y-4218003D01*
X10285765Y-4217980D01*
X10411184Y-4217980D01*
X10427568Y-4256203D01*
X10451783Y-4326733D01*
X10469407Y-4407381D01*
X10479749Y-4492660D01*
X10482116Y-4577082D01*
X10476887Y-4647570D01*
X10456921Y-4745882D01*
X10425052Y-4832844D01*
X10381789Y-4908028D01*
X10327643Y-4971000D01*
X10263124Y-5021331D01*
X10188741Y-5058590D01*
X10105006Y-5082345D01*
X10012427Y-5092166D01*
X9951806Y-5091129D01*
X9857549Y-5078670D01*
X9773784Y-5053255D01*
X9700432Y-5014835D01*
X9637414Y-4963361D01*
X9584651Y-4898782D01*
X9551505Y-4841202D01*
X9524975Y-4780073D01*
X9506678Y-4719175D01*
X9495651Y-4653792D01*
X9490929Y-4579206D01*
X9490596Y-4543300D01*
X9492880Y-4474715D01*
X9500032Y-4414097D01*
X9513293Y-4354866D01*
X9533905Y-4290439D01*
X9542898Y-4265944D01*
X9560953Y-4217980D01*
X9818342Y-4217980D01*
X9818342Y-4241712D01*
G37*
G36*
X10452299Y-9831839D02*
G01*
X9518046Y-9831839D01*
X9518046Y-9531543D01*
X10452299Y-9531543D01*
X10452299Y-9831839D01*
G37*
G36*
X9434631Y-7546256D02*
G01*
X10227077Y-7546256D01*
X10227077Y-7346059D01*
X10452299Y-7346059D01*
X10452299Y-8063432D01*
X10227077Y-8063432D01*
X10227077Y-7863235D01*
X9434631Y-7863235D01*
X9434631Y-8063432D01*
X9209409Y-8063432D01*
X9209409Y-7346059D01*
X9434631Y-7346059D01*
X9434631Y-7546256D01*
G37*
D17*
%TO.C,U1*%
X12216000Y-12400000D02*
X10416000Y-12400000D01*
X12216000Y-15500000D02*
X10416000Y-15500000D01*
X12216000Y-13550000D02*
X12216000Y-14350000D01*
X9919000Y-12299000D02*
G75*
G03*
X9919000Y-12299000I-127000J0D01*
G01*
D16*
%TO.C,C9*%
X44100000Y-1937836D02*
X44100000Y-1722164D01*
X43380000Y-1937836D02*
X43380000Y-1722164D01*
D17*
%TO.C,U4*%
X15880000Y-7780000D02*
X15485000Y-7780000D01*
X12880000Y-7388000D02*
X12880000Y-7780000D01*
X15880000Y-4780000D02*
X15485000Y-4780000D01*
X13274000Y-7780000D02*
X12880000Y-7780000D01*
X13272000Y-4780000D02*
X12880000Y-4780000D01*
X15880000Y-5176000D02*
X15880000Y-4780000D01*
X15880000Y-7780000D02*
X15880000Y-7388000D01*
X12880000Y-4780000D02*
X12880000Y-5176000D01*
X15605000Y-4230000D02*
G75*
G03*
X15605000Y-4230000I-125000J0D01*
G01*
D16*
%TO.C,C2*%
X9140000Y-13587836D02*
X9140000Y-13372164D01*
X8420000Y-13587836D02*
X8420000Y-13372164D01*
%TO.C,R4*%
X35643641Y-2720000D02*
X35336359Y-2720000D01*
X35643641Y-3480000D02*
X35336359Y-3480000D01*
%TO.C,C17*%
X50880000Y-10712164D02*
X50880000Y-10927836D01*
X51600000Y-10712164D02*
X51600000Y-10927836D01*
%TO.C,C19*%
X35597836Y-8050000D02*
X35382164Y-8050000D01*
X35597836Y-7330000D02*
X35382164Y-7330000D01*
%TO.C,C7*%
X46140000Y-1937836D02*
X46140000Y-1722164D01*
X46860000Y-1937836D02*
X46860000Y-1722164D01*
%TO.C,C6*%
X49878307Y-1819190D02*
X50030810Y-1971693D01*
X49369190Y-2328307D02*
X49521693Y-2480810D01*
%TO.C,C13*%
X13260000Y-2702164D02*
X13260000Y-2917836D01*
X13980000Y-2702164D02*
X13980000Y-2917836D01*
D10*
%TO.C,HOLE4*%
X56040000Y-15070000D02*
G75*
G03*
X56040000Y-15070000I-900000J0D01*
G01*
%TO.C,HOLE5*%
X2810000Y-14210000D02*
G75*
G03*
X2810000Y-14210000I-900000J0D01*
G01*
D17*
%TO.C,SW1*%
X25300000Y-7389000D02*
X25300000Y-7320000D01*
X25300000Y-9539000D02*
X25300000Y-8501000D01*
X29500000Y-10720000D02*
X29500000Y-10651000D01*
X28162000Y-9655000D02*
X26638000Y-9655000D01*
X29500000Y-9539000D02*
X29500000Y-8501000D01*
X28162000Y-8385000D02*
X26638000Y-8385000D01*
X29500000Y-7389000D02*
X29500000Y-7320000D01*
X29500000Y-10720000D02*
X25300000Y-10720000D01*
X29500000Y-7320000D02*
X25300000Y-7320000D01*
X25300000Y-10720000D02*
X25300000Y-10651000D01*
X26639000Y-8386001D02*
G75*
G03*
X26639068Y-9654000I4000J-633999D01*
G01*
X28163000Y-9656000D02*
G75*
G03*
X28163000Y-8384000I0J636000D01*
G01*
D16*
%TO.C,J1*%
X51510000Y1140000D02*
X15890000Y1140000D01*
X54110000Y3800000D02*
X54110000Y2470000D01*
X51510000Y3800000D02*
X51510000Y1140000D01*
X52780000Y3800000D02*
X54110000Y3800000D01*
X51510000Y3800000D02*
X15890000Y3800000D01*
X15890000Y3800000D02*
X15890000Y1140000D01*
%TD*%
%LPC*%
D18*
%TO.C,HOLE2*%
X14660000Y2470000D03*
%TD*%
D19*
%TO.C,VT2*%
X21025000Y-2660000D03*
X21025000Y-4560000D03*
X23295000Y-3610000D03*
%TD*%
D20*
%TO.C,R1*%
X6100000Y-13020000D03*
X7120000Y-13020000D03*
%TD*%
D21*
%TO.C,U3*%
X43199558Y-6350000D03*
X42351030Y-5501472D03*
X41502502Y-6350000D03*
X42351030Y-7198528D03*
D22*
X45340677Y-5835226D03*
X44987124Y-5481673D03*
X44633571Y-5128119D03*
X44280017Y-4774566D03*
X43926464Y-4421013D03*
X43572911Y-4067459D03*
X43219357Y-3713906D03*
X42865804Y-3360353D03*
D23*
X41836256Y-3360353D03*
X41482703Y-3713906D03*
X41129149Y-4067459D03*
X40775596Y-4421013D03*
X40422043Y-4774566D03*
X40068489Y-5128119D03*
X39714936Y-5481673D03*
X39361383Y-5835226D03*
D22*
X39361383Y-6864774D03*
X39714936Y-7218327D03*
X40068489Y-7571881D03*
X40422043Y-7925434D03*
X40775596Y-8278987D03*
X41129149Y-8632541D03*
X41482703Y-8986094D03*
X41836256Y-9339647D03*
D23*
X42865804Y-9339647D03*
X43219357Y-8986094D03*
X43572911Y-8632541D03*
X43926464Y-8278987D03*
X44280017Y-7925434D03*
X44633571Y-7571881D03*
X44987124Y-7218327D03*
X45340677Y-6864774D03*
D24*
X42351030Y-6350000D03*
%TD*%
D25*
%TO.C,L1*%
X48720658Y-2450520D03*
X48034764Y-3136414D03*
%TD*%
D20*
%TO.C,R6*%
X18200000Y-8070000D03*
X19220000Y-8070000D03*
%TD*%
D26*
%TO.C,J3*%
X52780000Y-15090000D03*
D27*
X50240000Y-15090000D03*
X47700000Y-15090000D03*
X45160000Y-15090000D03*
X42620000Y-15090000D03*
X40080000Y-15090000D03*
X37540000Y-15090000D03*
X35000000Y-15090000D03*
X32460000Y-15090000D03*
X29920000Y-15090000D03*
X27380000Y-15090000D03*
X24840000Y-15090000D03*
X22300000Y-15090000D03*
X19760000Y-15090000D03*
X17220000Y-15090000D03*
%TD*%
D28*
%TO.C,R7*%
X19220000Y-2660000D03*
X18200000Y-2660000D03*
%TD*%
D18*
%TO.C,HOLE1*%
X1910000Y1590000D03*
%TD*%
D29*
%TO.C,SW2*%
X29550000Y-4715000D03*
X25250000Y-4715000D03*
X29550000Y-2565000D03*
X25250000Y-2565000D03*
%TD*%
D30*
%TO.C,C11*%
X13630000Y-10280000D03*
X13630000Y-9320000D03*
%TD*%
%TO.C,C16*%
X15120000Y-3300000D03*
X15120000Y-2340000D03*
%TD*%
D20*
%TO.C,R2*%
X39690000Y-1840000D03*
X40710000Y-1840000D03*
%TD*%
D31*
%TO.C,Y1*%
X48020000Y-8820000D03*
X48020000Y-11020000D03*
X49720000Y-11020000D03*
X49720000Y-8820000D03*
%TD*%
D30*
%TO.C,C4*%
X44660000Y-2310000D03*
X44660000Y-1350000D03*
%TD*%
D32*
%TO.C,C14*%
X34990000Y-2010000D03*
X35950000Y-2010000D03*
%TD*%
D30*
%TO.C,C5*%
X45580000Y-2310000D03*
X45580000Y-1350000D03*
%TD*%
D33*
%TO.C,C18*%
X35970000Y-6610000D03*
X35010000Y-6610000D03*
%TD*%
D26*
%TO.C,J2*%
X12150000Y2480000D03*
D27*
X9610000Y2480000D03*
X7070000Y2480000D03*
X4530000Y2480000D03*
%TD*%
D19*
%TO.C,VT1*%
X21025000Y-8050000D03*
X21025000Y-9950000D03*
X23295000Y-9000000D03*
%TD*%
D34*
%TO.C,C8*%
X47394832Y-3776346D03*
X48073654Y-4455168D03*
%TD*%
D32*
%TO.C,C12*%
X47720000Y-7100000D03*
X48680000Y-7100000D03*
%TD*%
D30*
%TO.C,C15*%
X51240000Y-9210000D03*
X51240000Y-8250000D03*
%TD*%
D20*
%TO.C,R5*%
X18200000Y-4560000D03*
X19220000Y-4560000D03*
%TD*%
D32*
%TO.C,C10*%
X47720000Y-6180000D03*
X48680000Y-6180000D03*
%TD*%
D30*
%TO.C,C3*%
X13850000Y-13960000D03*
X13850000Y-13000000D03*
%TD*%
D18*
%TO.C,HOLE3*%
X55140000Y2420000D03*
%TD*%
D35*
%TO.C,USB1*%
X5749000Y-3460000D03*
X5749000Y-9240000D03*
D36*
X6249000Y-2025000D03*
X6249000Y-10675000D03*
D37*
X2049000Y-2025000D03*
X2049000Y-10675000D03*
D38*
X7011000Y-3150000D03*
X7011000Y-3950000D03*
D39*
X7011000Y-5100000D03*
X7011000Y-6100000D03*
X7011000Y-6600000D03*
X7011000Y-7600000D03*
D38*
X7011000Y-9550000D03*
X7011000Y-8750000D03*
D39*
X7011000Y-8100000D03*
X7011000Y-7100000D03*
X7011000Y-5600000D03*
X7011000Y-4600000D03*
%TD*%
D40*
%TO.C,D1*%
X5272500Y-14580000D03*
X6847500Y-14580000D03*
%TD*%
D41*
%TO.C,U1*%
X10016000Y-13000000D03*
X10016000Y-13950000D03*
X10016000Y-14900000D03*
X12616000Y-14900000D03*
X12616000Y-13000000D03*
%TD*%
D30*
%TO.C,C9*%
X43740000Y-2310000D03*
X43740000Y-1350000D03*
%TD*%
D42*
%TO.C,U4*%
X15128000Y-4830000D03*
X14629000Y-4830000D03*
X14128000Y-4830000D03*
X13629000Y-4830000D03*
D43*
X12930000Y-5530000D03*
X12930000Y-6030000D03*
X12930000Y-6530000D03*
X12930000Y-7030000D03*
D42*
X13630000Y-7730000D03*
X14130000Y-7730000D03*
X14630000Y-7730000D03*
X15129000Y-7730000D03*
D43*
X15830000Y-7030000D03*
X15830000Y-6530000D03*
X15830000Y-6030000D03*
X15830000Y-5530000D03*
D26*
X14380000Y-6280000D03*
%TD*%
D30*
%TO.C,C2*%
X8780000Y-13960000D03*
X8780000Y-13000000D03*
%TD*%
D28*
%TO.C,R4*%
X36000000Y-3100000D03*
X34980000Y-3100000D03*
%TD*%
D44*
%TO.C,C17*%
X51240000Y-10340000D03*
X51240000Y-11300000D03*
%TD*%
D33*
%TO.C,C19*%
X35970000Y-7690000D03*
X35010000Y-7690000D03*
%TD*%
D30*
%TO.C,C7*%
X46500000Y-2310000D03*
X46500000Y-1350000D03*
%TD*%
D34*
%TO.C,C6*%
X49360589Y-1810589D03*
X50039411Y-2489411D03*
%TD*%
D44*
%TO.C,C13*%
X13620000Y-2330000D03*
X13620000Y-3290000D03*
%TD*%
D18*
%TO.C,HOLE4*%
X55140000Y-15070000D03*
%TD*%
%TO.C,HOLE5*%
X1910000Y-14210000D03*
%TD*%
D29*
%TO.C,SW1*%
X29550000Y-10095000D03*
X25250000Y-10095000D03*
X29550000Y-7945000D03*
X25250000Y-7945000D03*
%TD*%
D26*
%TO.C,J1*%
X52780000Y2470000D03*
D27*
X50240000Y2470000D03*
X47700000Y2470000D03*
X45160000Y2470000D03*
X42620000Y2470000D03*
X40080000Y2470000D03*
X37540000Y2470000D03*
X35000000Y2470000D03*
X32460000Y2470000D03*
X29920000Y2470000D03*
X27380000Y2470000D03*
X24840000Y2470000D03*
X22300000Y2470000D03*
X19760000Y2470000D03*
X17220000Y2470000D03*
%TD*%
M02*
