M48
; DRILL file {KiCad 7.0.11} date Tue Mar  5 15:51:15 2024
; FORMAT={-:-/ absolute / metric / decimal}
; #@! TF.CreationDate,2024-03-05T15:51:15+08:00
; #@! TF.GenerationSoftware,Kicad,Pcbnew,7.0.11
; #@! TF.FileFunction,MixedPlating,1,2
FMAT,2
METRIC
; #@! TA.AperFunction,Plated,PTH,ViaDrill
T1C0.300
; #@! TA.AperFunction,Plated,PTH,ComponentDrill
T2C0.300
; #@! TA.AperFunction,Plated,PTH,ComponentDrill
T3C0.304
; #@! TA.AperFunction,Plated,PTH,ViaDrill
T4C0.400
; #@! TA.AperFunction,Plated,PTH,ViaDrill
T5C0.500
; #@! TA.AperFunction,Plated,PTH,ComponentDrill
T6C0.600
; #@! TA.AperFunction,Plated,PTH,ComponentDrill
T7C1.000
; #@! TA.AperFunction,Plated,PTH,ComponentDrill
T8C1.200
; #@! TA.AperFunction,NonPlated,NPTH,ComponentDrill
T9C0.650
%
G90
G05
T1
X6.02Y-6.39
X6.02Y-7.39
X7.1Y-13.02
X8.4Y-12.41
X8.63Y-2.29
X9.36Y-5.9
X10.61Y-0.92
X10.62Y-2.3
X10.62Y-5.3
X10.63Y-6.21
X10.67Y-9.56
X11.25Y-11.78
X11.41Y-6.795
X11.53Y-0.3
X12.5Y-8.88
X12.52Y-9.8
X12.72Y-4.08
X13.82Y-11.73
X14.88Y-15.7
X15.08Y-9.6
X15.75Y-12.8
X15.83Y-4.08
X15.94Y-10.22
X16.11Y-0.3
X17.38Y-10.84
X17.405Y-3.385
X17.41Y-6.38
X18.15Y-2.019
X18.16Y-8.12
X18.52Y-12.8
X19.16Y-6.38
X19.96Y-9.89
X20.14Y-8.1
X20.97Y-2.49
X20.98Y0.12
X20.98Y-6.36
X22.13Y-1.99
X22.17Y-7.2
X23.452Y-3.198
X25.14Y-6.63
X25.28Y0.12
X25.72Y-13.7
X27.92Y0.11
X30.07Y-12.24
X30.468Y-5.508
X31.33Y-8.735
X31.41Y-11.23
X31.469Y-2.0
X31.637Y-4.863
X32.595Y-3.905
X33.75Y-1.74
X34.45Y-12.24
X34.485Y-5.54
X36.7Y-7.39
X37.22Y-5.54
X37.46Y-9.34
X37.85Y-6.2
X38.39Y-1.74
X39.05Y-14.31
X40.171Y-3.879
X40.66Y-1.84
X40.67Y-3.2
X40.68Y-7.14
X42.3Y-8.76
X42.31Y-5.53
X42.57Y-2.89
X42.96Y-12.24
X43.465Y-0.71
X43.92Y-7.14
X44.039Y-4.341
X44.085Y-9.985
X44.9Y-10.03
X44.959Y-4.129
X45.116Y-5.386
X45.827Y-3.897
X45.89Y-8.4
X46.12Y-12.97
X46.13Y-12.24
X46.37Y-0.11
X46.38Y-0.85
X46.49Y-7.13
X46.68Y-4.62
X47.21Y-6.15
X47.32Y-4.04
X47.93Y-2.43
X47.94Y-3.42
X48.01Y-5.34
X48.01Y-6.15
X48.7Y-0.11
X48.7Y-1.83
X48.71Y-2.97
X48.79Y-5.34
X48.79Y-6.15
X48.79Y-13.35
X49.52Y-1.48
X49.53Y-2.62
X49.58Y-7.74
X49.59Y-4.58
X49.59Y-5.34
X49.59Y-6.15
X49.59Y-6.95
X49.59Y-13.35
X50.35Y-0.11
X50.35Y-1.18
X50.36Y-2.32
X50.38Y-7.74
X50.39Y-4.57
X50.39Y-5.35
X50.39Y-6.15
X50.39Y-6.95
X50.39Y-13.35
X51.19Y-0.96
X51.19Y-2.07
X51.19Y-3.77
X51.19Y-4.55
X51.19Y-5.35
X51.19Y-6.15
X51.19Y-6.95
X51.19Y-7.75
X51.19Y-13.35
X51.19Y-14.15
X51.2Y-0.11
X51.98Y-9.35
X51.98Y-10.15
X51.98Y-10.95
X51.98Y-11.75
X51.98Y-12.55
X51.99Y-0.11
X51.99Y-0.96
X51.99Y-3.77
X51.99Y-4.55
X51.99Y-5.35
X51.99Y-6.15
X51.99Y-6.95
X51.99Y-7.75
X51.99Y-8.55
X51.99Y-13.35
X51.99Y-14.15
X52.0Y-1.89
X52.79Y-0.11
X52.79Y-0.96
X52.79Y-1.76
X52.79Y-3.75
X52.79Y-4.55
X52.79Y-5.35
X52.79Y-6.15
X52.79Y-6.95
X52.79Y-7.75
X52.79Y-8.55
X52.79Y-9.35
X52.79Y-10.15
X52.79Y-10.95
X52.79Y-11.75
X52.79Y-12.55
X52.79Y-13.35
X52.79Y-14.15
X53.59Y-0.11
X53.59Y-0.96
X53.59Y-1.76
X53.59Y-3.75
X53.59Y-4.55
X53.59Y-5.35
X53.59Y-6.15
X53.59Y-6.95
X53.59Y-7.75
X53.59Y-8.55
X53.59Y-9.35
X53.59Y-10.15
X53.59Y-10.95
X53.59Y-11.75
X53.59Y-12.55
X53.59Y-13.35
X53.59Y-14.15
T2
X54.48Y-0.49
T3
X41.453Y-7.14
X42.301Y-6.291
X42.301Y-7.989
X43.15Y-7.14
T4
X8.61Y-4.68
X8.61Y-9.53
T5
X14.88Y-13.78
T7
X4.47Y1.68
X7.01Y1.68
X9.55Y1.68
X12.09Y1.68
X17.16Y-15.95
X17.17Y1.68
X19.7Y-15.95
X19.71Y1.68
X22.24Y-15.95
X22.25Y1.68
X24.78Y-15.95
X24.79Y1.68
X27.32Y-15.95
X27.33Y1.68
X29.86Y-15.95
X29.87Y1.68
X32.4Y-15.95
X32.41Y1.68
X34.94Y-15.95
X34.95Y1.68
X37.48Y-15.95
X37.49Y1.68
X40.02Y-15.95
X40.03Y1.68
X42.56Y-15.95
X42.57Y1.68
X45.1Y-15.95
X45.11Y1.68
X47.64Y-15.95
X47.65Y1.68
X50.18Y-15.95
X50.19Y1.68
X52.72Y-15.95
X52.73Y1.68
T8
X1.86Y0.8
X1.86Y-15.0
X14.61Y1.68
X55.09Y1.68
X55.09Y-15.95
T9
X5.699Y-4.25
X5.699Y-10.03
T6
G00X2.449Y-2.815
M15
G01X1.549Y-2.815
M16
G05
G00X2.449Y-11.465
M15
G01X1.549Y-11.465
M16
G05
G00X6.799Y-2.815
M15
G01X5.599Y-2.815
M16
G05
G00X6.799Y-11.465
M15
G01X5.599Y-11.465
M16
G05
M30
