M48
; DRILL file {KiCad 7.0.1} date Sun Mar 19 18:11:06 2023
; FORMAT={-:-/ absolute / metric / decimal}
; #@! TF.CreationDate,2023-03-19T18:11:06+08:00
; #@! TF.GenerationSoftware,Kicad,Pcbnew,7.0.1
; #@! TF.FileFunction,MixedPlating,1,2
FMAT,2
METRIC
; #@! TA.AperFunction,Plated,PTH,ViaDrill
T1C0.300
; #@! TA.AperFunction,Plated,PTH,ComponentDrill
T2C0.300
; #@! TA.AperFunction,Plated,PTH,ComponentDrill
T3C0.304
; #@! TA.AperFunction,Plated,PTH,ViaDrill
T4C0.400
; #@! TA.AperFunction,Plated,PTH,ViaDrill
T5C0.500
; #@! TA.AperFunction,Plated,PTH,ComponentDrill
T6C0.600
; #@! TA.AperFunction,Plated,PTH,ComponentDrill
T7C1.000
; #@! TA.AperFunction,Plated,PTH,ComponentDrill
T8C1.200
; #@! TA.AperFunction,NonPlated,NPTH,ComponentDrill
T9C0.650
%
G90
G05
T1
X6.07Y-5.6
X6.07Y-6.6
X7.15Y-12.23
X8.45Y-11.62
X8.68Y-1.5
X9.41Y-5.11
X10.27Y-8.77
X10.66Y-0.131
X10.67Y-1.51
X10.67Y-4.51
X10.68Y-5.42
X11.3Y-10.99
X11.46Y-6.005
X11.58Y0.49
X12.55Y-8.09
X12.57Y-9.01
X12.77Y-3.29
X13.87Y-10.94
X14.93Y-14.91
X15.13Y-8.81
X15.8Y-12.01
X15.88Y-3.29
X15.99Y-9.43
X16.16Y0.49
X17.43Y-10.05
X17.455Y-2.595
X17.46Y-5.59
X18.2Y-1.23
X18.21Y-7.33
X18.57Y-12.01
X19.21Y-5.59
X20.01Y-9.1
X20.19Y-7.31
X21.02Y-1.7
X21.03Y0.91
X21.03Y-5.57
X22.18Y-1.2
X22.22Y-6.41
X23.502Y-2.408
X25.19Y-5.84
X25.33Y0.91
X25.77Y-12.91
X27.97Y0.9
X30.12Y-11.45
X30.518Y-4.718
X31.38Y-7.945
X31.46Y-10.44
X31.519Y-1.21
X31.687Y-4.073
X32.645Y-3.115
X33.8Y-0.95
X34.5Y-11.45
X34.535Y-4.75
X36.75Y-6.6
X37.27Y-4.75
X37.51Y-8.55
X37.9Y-5.41
X38.44Y-0.95
X39.1Y-13.52
X40.221Y-3.089
X40.71Y-1.05
X40.72Y-2.41
X40.73Y-6.35
X42.35Y-7.97
X42.36Y-4.74
X42.62Y-1.85
X43.01Y-11.45
X43.515Y0.08
X43.97Y-6.35
X44.089Y-3.551
X44.135Y-9.195
X44.95Y-9.24
X45.009Y-3.339
X45.166Y-4.596
X45.877Y-3.107
X45.94Y-7.61
X46.07Y0.42
X46.076Y-11.454
X46.54Y-6.34
X46.871Y-12.249
X47.17Y-2.66
X47.68Y-2.11
X48.26Y-1.52
X48.44Y0.405
X48.84Y-0.97
X48.84Y-3.36
X48.84Y-4.17
X48.84Y-4.97
X48.84Y-12.17
X49.64Y-0.97
X49.64Y-3.36
X49.64Y-4.17
X49.64Y-4.97
X49.64Y-5.77
X49.64Y-12.17
X50.44Y-0.97
X50.44Y-3.36
X50.44Y-4.17
X50.44Y-4.97
X50.44Y-5.77
X50.44Y-12.17
X51.24Y-0.17
X51.24Y-0.97
X51.24Y-2.57
X51.24Y-3.37
X51.24Y-4.17
X51.24Y-4.97
X51.24Y-5.77
X51.24Y-6.57
X51.24Y-7.37
X51.24Y-12.17
X51.24Y-12.97
X52.04Y0.68
X52.04Y-0.17
X52.04Y-0.97
X52.04Y-2.57
X52.04Y-3.37
X52.04Y-4.17
X52.04Y-4.97
X52.04Y-5.77
X52.04Y-6.57
X52.04Y-7.37
X52.04Y-12.17
X52.04Y-12.97
X52.04Y-13.77
X52.84Y0.68
X52.84Y-0.17
X52.84Y-0.97
X52.84Y-2.57
X52.84Y-3.37
X52.84Y-4.17
X52.84Y-4.97
X52.84Y-5.77
X52.84Y-6.57
X52.84Y-7.37
X52.84Y-8.17
X52.84Y-8.97
X52.84Y-9.77
X52.84Y-10.57
X52.84Y-11.37
X52.84Y-12.17
X52.84Y-12.97
X52.84Y-13.77
X53.64Y0.68
X53.64Y-0.17
X53.64Y-0.97
X53.64Y-2.57
X53.64Y-3.37
X53.64Y-4.17
X53.64Y-4.97
X53.64Y-5.77
X53.64Y-6.57
X53.64Y-7.37
X53.64Y-8.17
X53.64Y-8.97
X53.64Y-9.77
X53.64Y-10.57
X53.64Y-11.37
X53.64Y-12.17
X53.64Y-12.97
X53.64Y-13.77
T2
X54.53Y0.3
T3
X41.503Y-6.35
X42.351Y-5.501
X42.351Y-7.199
X43.2Y-6.35
T4
X8.66Y-3.89
X8.66Y-8.74
T5
X14.93Y-12.99
T7
X4.52Y2.47
X7.06Y2.47
X9.6Y2.47
X12.14Y2.47
X17.22Y2.47
X17.22Y-15.09
X19.76Y2.47
X19.76Y-15.09
X22.3Y2.47
X22.3Y-15.09
X24.84Y2.47
X24.84Y-15.09
X27.38Y2.47
X27.38Y-15.09
X29.92Y2.47
X29.92Y-15.09
X32.46Y2.47
X32.46Y-15.09
X35.0Y2.47
X35.0Y-15.09
X37.54Y2.47
X37.54Y-15.09
X40.08Y2.47
X40.08Y-15.09
X42.62Y2.47
X42.62Y-15.09
X45.16Y2.47
X45.16Y-15.09
X47.7Y2.47
X47.7Y-15.09
X50.24Y2.47
X50.24Y-15.09
X52.78Y2.47
X52.78Y-15.09
T8
X1.91Y1.59
X1.91Y-14.21
X14.66Y2.47
X55.14Y2.42
X55.14Y-15.07
T9
X5.749Y-3.46
X5.749Y-9.24
T6
G00X2.499Y-2.025
M15
G01X1.599Y-2.025
M16
G05
G00X2.499Y-10.675
M15
G01X1.599Y-10.675
M16
G05
G00X6.849Y-2.025
M15
G01X5.649Y-2.025
M16
G05
G00X6.849Y-10.675
M15
G01X5.649Y-10.675
M16
G05
T0
M30
