M48
; DRILL file {KiCad 8.0.6} date 2024-11-23T01:57:35+0800
; FORMAT={-:-/ absolute / metric / decimal}
; #@! TF.CreationDate,2024-11-23T01:57:35+08:00
; #@! TF.GenerationSoftware,Kicad,Pcbnew,8.0.6
; #@! TF.FileFunction,MixedPlating,1,2
FMAT,2
METRIC
; #@! TA.AperFunction,Plated,PTH,ViaDrill
T1C0.300
; #@! TA.AperFunction,Plated,PTH,ComponentDrill
T2C0.300
; #@! TA.AperFunction,Plated,PTH,ComponentDrill
T3C0.304
; #@! TA.AperFunction,Plated,PTH,ViaDrill
T4C0.400
; #@! TA.AperFunction,Plated,PTH,ViaDrill
T5C0.500
; #@! TA.AperFunction,Plated,PTH,ComponentDrill
T6C0.600
; #@! TA.AperFunction,Plated,PTH,ComponentDrill
T7C1.000
; #@! TA.AperFunction,NonPlated,NPTH,ComponentDrill
T8C0.650
; #@! TA.AperFunction,NonPlated,NPTH,ComponentDrill
T9C2.200
%
G90
G05
T1
X-1.96Y-5.21
X-1.96Y-6.21
X-1.96Y-7.21
X-1.96Y-18.16
X-1.96Y-19.16
X-1.96Y-20.16
X-0.96Y-5.21
X-0.96Y-6.21
X-0.96Y-7.21
X-0.96Y-18.16
X-0.96Y-19.16
X-0.96Y-20.16
X0.04Y-5.21
X0.04Y-6.21
X0.04Y-7.21
X0.04Y-18.16
X0.04Y-19.16
X0.04Y-20.16
X1.04Y-5.21
X1.04Y-6.21
X1.04Y-7.21
X1.04Y-18.16
X1.04Y-19.16
X1.04Y-20.16
X2.04Y-5.21
X2.04Y-6.21
X2.04Y-7.21
X2.04Y-18.16
X2.04Y-19.16
X2.04Y-20.16
X2.63Y-11.95
X2.63Y-12.95
X3.04Y-5.21
X3.04Y-6.21
X3.04Y-7.21
X3.04Y-18.16
X3.04Y-19.16
X3.04Y-20.16
X7.59Y-15.11
X8.119Y-11.296
X8.59Y-15.11
X8.826Y-12.003
X9.533Y-12.71
X9.59Y-15.11
X10.24Y-13.417
X10.59Y-15.11
X11.59Y-15.11
X11.96Y-18.19
X12.65Y-18.76
X13.01Y-16.28
X13.01Y-17.08
X13.81Y-16.28
X13.81Y-17.08
X13.84Y-13.82
X19.74Y-19.31
X20.74Y-19.31
X21.7Y-10.96
X21.7Y-13.95
X21.74Y-19.31
X22.34Y-11.7
X22.73Y-17.33
X22.74Y-19.31
X23.74Y-19.31
X24.55Y-10.96
X24.63Y-11.86
X24.74Y-19.31
X25.74Y-19.31
X25.86Y-10.63
X25.86Y-11.84
X26.74Y-19.31
X26.86Y-11.84
X27.74Y-19.31
X27.86Y-11.84
X28.74Y-19.31
X28.86Y-11.84
X29.23Y-5.21
X29.74Y-19.31
X29.86Y-11.84
X30.74Y-19.31
X30.86Y-11.84
X31.74Y-19.31
X31.86Y-11.84
X32.74Y-19.31
X32.86Y-11.84
X32.98Y-8.72
X33.74Y-19.31
X33.87Y-8.71
X34.65Y-11.84
X34.74Y-19.31
X34.93Y-5.21
X35.74Y-19.31
X36.74Y-19.31
X37.1Y-14.77
X37.74Y-19.31
X37.74Y-20.96
X38.37Y-14.77
X38.43Y-5.21
X38.43Y-20.458
X38.74Y-19.31
X39.64Y-10.47
X39.74Y-19.31
X40.91Y-10.47
X41.5Y-4.52
X42.24Y-22.14
X42.338Y-20.008
X43.63Y-3.1
X44.05Y-10.51
X44.4Y-22.14
X44.858Y-20.008
X45.1Y-13.34
X45.68Y-18.858
X45.69Y-3.1
X45.72Y-5.18
X45.73Y-5.93
X46.147Y-16.977
X46.94Y-21.11
X46.94Y-22.14
X47.1Y-16.66
X48.345Y-3.755
X49.35Y-3.76
X49.39Y-8.29
X49.49Y-19.11
X49.49Y-20.11
X49.49Y-21.11
X49.49Y-22.14
X50.24Y-2.91
X50.24Y-3.76
X50.24Y-4.61
X51.381Y-15.025
X51.381Y-15.739
X51.43Y-4.16
X51.43Y-5.11
X51.43Y-9.02
X51.99Y-19.16
X51.99Y-20.16
X51.99Y-21.16
X51.99Y-22.14
X52.755Y-3.16
X52.755Y-4.16
X52.755Y-5.11
X52.94Y-14.36
X53.34Y-9.96
X53.94Y-14.36
X53.94Y-15.21
X54.08Y-3.16
X54.08Y-4.16
X54.08Y-5.11
X54.19Y-11.41
X54.34Y-8.96
X54.57Y-19.16
X54.57Y-20.16
X54.57Y-21.16
X54.57Y-22.14
X54.94Y-14.36
X54.94Y-15.21
X55.19Y-11.41
X55.24Y-3.16
X55.24Y-4.16
X55.24Y-5.16
X55.34Y-7.96
X56.34Y-6.96
X56.44Y-3.16
X56.44Y-4.16
X56.44Y-5.16
X56.44Y-10.16
X56.44Y-11.16
X56.44Y-12.16
X56.44Y-13.16
X56.44Y-14.16
X56.44Y-19.16
X56.44Y-20.16
X56.44Y-21.16
X56.44Y-22.16
X57.44Y-3.16
X57.44Y-4.16
X57.44Y-6.16
X57.44Y-9.16
X57.44Y-10.16
X57.44Y-11.16
X57.44Y-12.16
X57.44Y-13.16
X57.44Y-14.16
X57.44Y-19.16
X57.44Y-20.16
X57.44Y-21.16
X57.44Y-22.16
X58.44Y-5.16
X58.44Y-6.16
X58.44Y-7.16
X58.44Y-9.16
X58.44Y-10.16
X58.44Y-11.16
X58.44Y-12.16
X58.44Y-13.16
X58.44Y-14.16
X58.44Y-19.16
X58.44Y-20.16
X58.44Y-21.16
X58.44Y-22.16
X59.44Y-3.16
X59.44Y-4.16
X59.44Y-5.16
X59.44Y-7.16
X59.44Y-9.16
X59.44Y-10.16
X59.44Y-11.16
X59.44Y-12.16
X59.44Y-13.16
X59.44Y-14.16
X59.44Y-15.11
X59.44Y-16.11
X59.44Y-17.11
X59.44Y-18.11
X59.44Y-19.16
X59.44Y-20.16
X59.44Y-21.16
X59.44Y-22.16
T2
X60.02Y-6.05
T3
X48.54Y-12.675
X49.388Y-11.826
X49.388Y-13.523
X50.237Y-12.675
T4
X4.86Y-10.3
X4.86Y-16.75
X4.86Y-17.93
X4.86Y-19.11
X7.71Y-10.0
X8.715Y-10.01
X9.68Y-21.96
X9.72Y-10.01
X16.04Y-17.62
X17.93Y-14.52
X19.47Y-12.04
X19.47Y-13.04
X19.49Y-4.86
X19.49Y-5.86
X19.49Y-6.86
X19.49Y-10.04
X20.47Y-12.04
X20.47Y-13.04
X20.49Y-4.86
X20.49Y-5.86
X20.49Y-6.86
X20.49Y-10.04
X22.97Y-12.623
X40.929Y-13.099
X41.99Y-14.16
X42.49Y-5.18
X43.051Y-15.221
X44.76Y-5.19
X48.03Y-5.19
X51.43Y-7.67
X52.75Y-8.16
X52.75Y-10.67
X54.19Y-12.46
T5
X35.62Y-9.8
X42.49Y-9.82
T7
X5.04Y-1.34
X5.04Y-24.06
X7.58Y-1.34
X7.58Y-24.06
X10.12Y-1.34
X10.12Y-24.06
X12.66Y-1.34
X12.66Y-24.06
X15.2Y-1.34
X15.2Y-24.06
X17.74Y-1.34
X17.74Y-24.06
X20.28Y-1.34
X20.28Y-24.06
X22.82Y-1.34
X22.82Y-24.06
X25.36Y-1.34
X25.36Y-24.06
X27.9Y-1.34
X27.9Y-24.06
X30.44Y-1.34
X30.44Y-24.06
X32.98Y-1.34
X32.98Y-24.06
X35.52Y-1.34
X35.52Y-24.06
X38.06Y-1.34
X38.06Y-24.06
X40.6Y-1.34
X40.6Y-24.06
X43.14Y-1.34
X43.14Y-24.06
X45.68Y-1.34
X45.68Y-24.06
X48.22Y-1.34
X48.22Y-24.06
X50.76Y-1.34
X50.76Y-24.06
X53.3Y-1.34
X53.3Y-24.06
X55.84Y-1.34
X55.84Y-24.06
X58.38Y-1.34
X58.38Y-24.06
T8
X2.207Y-9.81
X2.207Y-15.59
T9
X0.21Y-2.71
X0.21Y-22.65
X62.58Y-2.73
X62.58Y-22.67
T6
G00X-1.043Y-8.375
M15
G01X-1.943Y-8.375
M16
G05
G00X-1.043Y-17.025
M15
G01X-1.943Y-17.025
M16
G05
G00X3.307Y-8.375
M15
G01X2.107Y-8.375
M16
G05
G00X3.307Y-17.025
M15
G01X2.107Y-17.025
M16
G05
M30
