%TF.GenerationSoftware,KiCad,Pcbnew,(7.0.0)*%
%TF.CreationDate,2023-03-03T19:32:25+08:00*%
%TF.ProjectId,UINIO-MCU-ESP32C3,55494e49-4f2d-44d4-9355-2d4553503332,Version 3.3.0*%
%TF.SameCoordinates,PX735b400PY5c274f0*%
%TF.FileFunction,Soldermask,Bot*%
%TF.FilePolarity,Negative*%
%FSLAX46Y46*%
G04 Gerber Fmt 4.6, Leading zero omitted, Abs format (unit mm)*
G04 Created by KiCad (PCBNEW (7.0.0)) date 2023-03-03 19:32:25*
%MOMM*%
%LPD*%
G01*
G04 APERTURE LIST*
G04 Aperture macros list*
%AMRoundRect*
0 Rectangle with rounded corners*
0 $1 Rounding radius*
0 $2 $3 $4 $5 $6 $7 $8 $9 X,Y pos of 4 corners*
0 Add a 4 corners polygon primitive as box body*
4,1,4,$2,$3,$4,$5,$6,$7,$8,$9,$2,$3,0*
0 Add four circle primitives for the rounded corners*
1,1,$1+$1,$2,$3*
1,1,$1+$1,$4,$5*
1,1,$1+$1,$6,$7*
1,1,$1+$1,$8,$9*
0 Add four rect primitives between the rounded corners*
20,1,$1+$1,$2,$3,$4,$5,0*
20,1,$1+$1,$4,$5,$6,$7,0*
20,1,$1+$1,$6,$7,$8,$9,0*
20,1,$1+$1,$8,$9,$2,$3,0*%
G04 Aperture macros list end*
%ADD10C,1.200000*%
%ADD11C,0.610000*%
%ADD12O,1.700000X1.700000*%
%ADD13R,1.700000X1.700000*%
%ADD14C,0.650000*%
%ADD15O,2.100000X1.000000*%
%ADD16O,1.900000X1.000000*%
%ADD17O,0.630000X2.250000*%
%ADD18RoundRect,0.140000X0.170000X-0.140000X0.170000X0.140000X-0.170000X0.140000X-0.170000X-0.140000X0*%
G04 APERTURE END LIST*
D10*
%TO.C,HOLE2*%
X14660000Y2470000D03*
%TD*%
D11*
%TO.C,U3*%
X43199558Y-6350000D03*
X42351030Y-5501472D03*
X42351030Y-7198528D03*
X41502502Y-6350000D03*
%TD*%
D10*
%TO.C,HOLE1*%
X1910000Y1590000D03*
%TD*%
D12*
%TO.C,J2*%
X4519999Y2469999D03*
X7059999Y2469999D03*
X9599999Y2469999D03*
D13*
X12139999Y2469999D03*
%TD*%
D10*
%TO.C,HOLE3*%
X55140000Y2420000D03*
%TD*%
D14*
%TO.C,USB1*%
X5749000Y-3460000D03*
X5749000Y-9240000D03*
D15*
X6248999Y-2024999D03*
X6248999Y-10674999D03*
D16*
X2048999Y-2024999D03*
X2048999Y-10674999D03*
%TD*%
D10*
%TO.C,HOLE4*%
X55140000Y-15070000D03*
%TD*%
%TO.C,HOLE5*%
X1910000Y-14210000D03*
%TD*%
D13*
%TO.C,J3*%
X52779999Y-15089999D03*
D12*
X50239999Y-15089999D03*
X47699999Y-15089999D03*
X45159999Y-15089999D03*
X42619999Y-15089999D03*
X40079999Y-15089999D03*
X37539999Y-15089999D03*
X34999999Y-15089999D03*
X32459999Y-15089999D03*
X29919999Y-15089999D03*
X27379999Y-15089999D03*
X24839999Y-15089999D03*
X22299999Y-15089999D03*
X19759999Y-15089999D03*
X17219999Y-15089999D03*
%TD*%
D17*
%TO.C,U2*%
X25144999Y-2789999D03*
X26414999Y-2789999D03*
X27684999Y-2789999D03*
X28954999Y-2789999D03*
X28954999Y-9849999D03*
X27684999Y-9849999D03*
X26414999Y-9849999D03*
X25144999Y-9849999D03*
%TD*%
D18*
%TO.C,C1*%
X23400000Y-6800000D03*
X23400000Y-5840000D03*
%TD*%
D13*
%TO.C,J1*%
X52779999Y2469999D03*
D12*
X50239999Y2469999D03*
X47699999Y2469999D03*
X45159999Y2469999D03*
X42619999Y2469999D03*
X40079999Y2469999D03*
X37539999Y2469999D03*
X34999999Y2469999D03*
X32459999Y2469999D03*
X29919999Y2469999D03*
X27379999Y2469999D03*
X24839999Y2469999D03*
X22299999Y2469999D03*
X19759999Y2469999D03*
X17219999Y2469999D03*
%TD*%
M02*
