%TF.GenerationSoftware,KiCad,Pcbnew,7.0.11*%
%TF.CreationDate,2024-03-05T15:58:45+08:00*%
%TF.ProjectId,UINIO-MCU-ESP32C3,55494e49-4f2d-44d4-9355-2d4553503332,Version 3.6.0*%
%TF.SameCoordinates,PX7367750PY5b66700*%
%TF.FileFunction,Copper,L2,Bot*%
%TF.FilePolarity,Positive*%
%FSLAX46Y46*%
G04 Gerber Fmt 4.6, Leading zero omitted, Abs format (unit mm)*
G04 Created by KiCad (PCBNEW 7.0.11) date 2024-03-05 15:58:45*
%MOMM*%
%LPD*%
G01*
G04 APERTURE LIST*
G04 Aperture macros list*
%AMRoundRect*
0 Rectangle with rounded corners*
0 $1 Rounding radius*
0 $2 $3 $4 $5 $6 $7 $8 $9 X,Y pos of 4 corners*
0 Add a 4 corners polygon primitive as box body*
4,1,4,$2,$3,$4,$5,$6,$7,$8,$9,$2,$3,0*
0 Add four circle primitives for the rounded corners*
1,1,$1+$1,$2,$3*
1,1,$1+$1,$4,$5*
1,1,$1+$1,$6,$7*
1,1,$1+$1,$8,$9*
0 Add four rect primitives between the rounded corners*
20,1,$1+$1,$2,$3,$4,$5,0*
20,1,$1+$1,$4,$5,$6,$7,0*
20,1,$1+$1,$6,$7,$8,$9,0*
20,1,$1+$1,$8,$9,$2,$3,0*%
G04 Aperture macros list end*
%TA.AperFunction,ComponentPad*%
%ADD10C,1.200000*%
%TD*%
%TA.AperFunction,ComponentPad*%
%ADD11C,0.610000*%
%TD*%
%TA.AperFunction,ComponentPad*%
%ADD12R,1.700000X1.700000*%
%TD*%
%TA.AperFunction,ComponentPad*%
%ADD13O,1.700000X1.700000*%
%TD*%
%TA.AperFunction,ComponentPad*%
%ADD14R,0.500000X0.900000*%
%TD*%
%TA.AperFunction,ComponentPad*%
%ADD15O,2.100000X1.000000*%
%TD*%
%TA.AperFunction,ComponentPad*%
%ADD16O,1.900000X1.000000*%
%TD*%
%TA.AperFunction,SMDPad,CuDef*%
%ADD17O,0.630000X2.250000*%
%TD*%
%TA.AperFunction,SMDPad,CuDef*%
%ADD18RoundRect,0.140000X0.170000X-0.140000X0.170000X0.140000X-0.170000X0.140000X-0.170000X-0.140000X0*%
%TD*%
%TA.AperFunction,ViaPad*%
%ADD19C,0.700000*%
%TD*%
%TA.AperFunction,ViaPad*%
%ADD20C,0.500000*%
%TD*%
%TA.AperFunction,ViaPad*%
%ADD21C,1.100000*%
%TD*%
%TA.AperFunction,ViaPad*%
%ADD22C,0.900000*%
%TD*%
%TA.AperFunction,Conductor*%
%ADD23C,0.300000*%
%TD*%
%TA.AperFunction,Conductor*%
%ADD24C,0.400000*%
%TD*%
%TA.AperFunction,Conductor*%
%ADD25C,0.200000*%
%TD*%
%TA.AperFunction,Conductor*%
%ADD26C,0.900000*%
%TD*%
%TA.AperFunction,Conductor*%
%ADD27C,0.500000*%
%TD*%
G04 APERTURE END LIST*
D10*
%TO.P,HOLE2,*%
%TO.N,*%
X14610000Y1680000D03*
%TD*%
D11*
%TO.P,U3,*%
%TO.N,*%
X43149558Y-7140000D03*
X42301030Y-6291472D03*
X42301030Y-7988528D03*
X41452502Y-7140000D03*
%TD*%
D10*
%TO.P,HOLE1,*%
%TO.N,*%
X1860000Y800000D03*
%TD*%
D12*
%TO.P,J2,1,Pin_1*%
%TO.N,/DTR*%
X12090000Y1680000D03*
D13*
%TO.P,J2,2,Pin_2*%
%TO.N,/U0TXD*%
X9550000Y1680000D03*
%TO.P,J2,3,Pin_3*%
%TO.N,/U0RXD*%
X7010000Y1680000D03*
%TO.P,J2,4,Pin_4*%
%TO.N,/RTS*%
X4470000Y1680000D03*
%TD*%
D14*
%TO.P,AE1,2,PCB_Trace*%
%TO.N,GND*%
X54480000Y-490000D03*
%TD*%
D10*
%TO.P,HOLE3,*%
%TO.N,*%
X55090000Y1680000D03*
%TD*%
D15*
%TO.P,USB1,13,GND*%
%TO.N,GND*%
X6199000Y-2815000D03*
%TO.P,USB1,14,GND*%
X6199000Y-11465000D03*
D16*
%TO.P,USB1,15,GND*%
X1999000Y-2815000D03*
%TO.P,USB1,16,GND*%
X1999000Y-11465000D03*
%TD*%
D10*
%TO.P,HOLE4,*%
%TO.N,*%
X55090000Y-15950000D03*
%TD*%
%TO.P,HOLE5,*%
%TO.N,*%
X1860000Y-15000000D03*
%TD*%
D12*
%TO.P,J3,1,Pin_1*%
%TO.N,GND*%
X52720000Y-15950000D03*
D13*
%TO.P,J3,2,Pin_2*%
%TO.N,/VDD_3.3V*%
X50180000Y-15950000D03*
%TO.P,J3,3,Pin_3*%
%TO.N,/U0TXD*%
X47640000Y-15950000D03*
%TO.P,J3,4,Pin_4*%
%TO.N,/U0RXD*%
X45100000Y-15950000D03*
%TO.P,J3,5,Pin_5*%
%TO.N,/GPIO19{slash}USB_D+*%
X42560000Y-15950000D03*
%TO.P,J3,6,Pin_6*%
%TO.N,/GPIO18{slash}USB_D-*%
X40020000Y-15950000D03*
%TO.P,J3,7,Pin_7*%
%TO.N,/SPIQ*%
X37480000Y-15950000D03*
%TO.P,J3,8,Pin_8*%
%TO.N,/SPID*%
X34940000Y-15950000D03*
%TO.P,J3,9,Pin_9*%
%TO.N,/SPICLK*%
X32400000Y-15950000D03*
%TO.P,J3,10,Pin_10*%
%TO.N,/SPICS0*%
X29860000Y-15950000D03*
%TO.P,J3,11,Pin_11*%
%TO.N,/SPIWP{slash}GPIO13*%
X27320000Y-15950000D03*
%TO.P,J3,12,Pin_12*%
%TO.N,/SPIHD{slash}GPIO12*%
X24780000Y-15950000D03*
%TO.P,J3,13,Pin_13*%
%TO.N,/VDD_SPI{slash}GPIO11*%
X22240000Y-15950000D03*
%TO.P,J3,14,Pin_14*%
%TO.N,/VDD_5V*%
X19700000Y-15950000D03*
%TO.P,J3,15,Pin_15*%
%TO.N,GND*%
X17160000Y-15950000D03*
%TD*%
D17*
%TO.P,U2,1,CS#*%
%TO.N,/SPICS0*%
X25095000Y-3580000D03*
%TO.P,U2,2,DO(IO1)*%
%TO.N,/SPIQ*%
X26365000Y-3580000D03*
%TO.P,U2,3,WP#(IO2)*%
%TO.N,/VDD_3.3V*%
X27635000Y-3580000D03*
%TO.P,U2,4,GND*%
%TO.N,GND*%
X28905000Y-3580000D03*
%TO.P,U2,5,DI(IO0)*%
%TO.N,/SPID*%
X28905000Y-10640000D03*
%TO.P,U2,6,CLK*%
%TO.N,/SPICLK*%
X27635000Y-10640000D03*
%TO.P,U2,7,HOLD#/RESET#/(IO3)*%
%TO.N,/VDD_3.3V*%
X26365000Y-10640000D03*
%TO.P,U2,8,VCC*%
X25095000Y-10640000D03*
%TD*%
D18*
%TO.P,C1,1*%
%TO.N,/VDD_3.3V*%
X23350000Y-7590000D03*
%TO.P,C1,2*%
%TO.N,GND*%
X23350000Y-6630000D03*
%TD*%
D12*
%TO.P,J1,1,Pin_1*%
%TO.N,GND*%
X52730000Y1680000D03*
D13*
%TO.P,J1,2,Pin_2*%
%TO.N,/GPIO0*%
X50190000Y1680000D03*
%TO.P,J1,3,Pin_3*%
%TO.N,/GPIO1*%
X47650000Y1680000D03*
%TO.P,J1,4,Pin_4*%
%TO.N,/GPIO2*%
X45110000Y1680000D03*
%TO.P,J1,5,Pin_5*%
%TO.N,/CHIP_EN*%
X42570000Y1680000D03*
%TO.P,J1,6,Pin_6*%
%TO.N,/GPIO3*%
X40030000Y1680000D03*
%TO.P,J1,7,Pin_7*%
%TO.N,/GPIO4*%
X37490000Y1680000D03*
%TO.P,J1,8,Pin_8*%
%TO.N,/GPIO5*%
X34950000Y1680000D03*
%TO.P,J1,9,Pin_9*%
%TO.N,/GPIO6*%
X32410000Y1680000D03*
%TO.P,J1,10,Pin_10*%
%TO.N,/GPIO7*%
X29870000Y1680000D03*
%TO.P,J1,11,Pin_11*%
%TO.N,/GPIO8*%
X27330000Y1680000D03*
%TO.P,J1,12,Pin_12*%
%TO.N,/GPIO9{slash}BOOT*%
X24790000Y1680000D03*
%TO.P,J1,13,Pin_13*%
%TO.N,/GPIO10*%
X22250000Y1680000D03*
%TO.P,J1,14,Pin_14*%
%TO.N,/VDD_3.3V*%
X19710000Y1680000D03*
%TO.P,J1,15,Pin_15*%
%TO.N,GND*%
X17170000Y1680000D03*
%TD*%
D19*
%TO.N,/VDD_3.3V*%
X18150000Y-2019500D03*
D20*
X14880000Y-15700000D03*
D19*
X40170847Y-3879153D03*
X45115845Y-5385845D03*
X22130000Y-1990000D03*
D20*
X7100000Y-13020000D03*
D19*
X12720000Y-4080000D03*
X31469062Y-2000438D03*
X36700000Y-7390000D03*
X15830000Y-4080000D03*
X37850000Y-6200000D03*
X11410000Y-6795500D03*
X46490000Y-7130000D03*
D21*
X14880000Y-13780000D03*
D20*
%TO.N,GND*%
X51200000Y-110000D03*
X50390000Y-5350000D03*
X20980000Y120000D03*
X49590000Y-6950000D03*
X52790000Y-7750000D03*
D19*
X15750000Y-12800000D03*
D20*
X50380000Y-7740000D03*
X51190000Y-960000D03*
X51190000Y-7750000D03*
X53590000Y-9350000D03*
X47210000Y-6150000D03*
D19*
X46120000Y-12970000D03*
D20*
X53590000Y-14150000D03*
X53590000Y-5350000D03*
X53590000Y-6150000D03*
X22170000Y-7200000D03*
D19*
X43920000Y-7140000D03*
D20*
X47320000Y-4040000D03*
X53590000Y-960000D03*
X53590000Y-3750000D03*
X49520000Y-1480000D03*
X51990000Y-6950000D03*
X53590000Y-4550000D03*
D19*
X42960000Y-12240000D03*
D20*
X46680000Y-4620000D03*
X20140000Y-8100000D03*
X53590000Y-12550000D03*
X49590000Y-5340000D03*
X49590000Y-6150000D03*
X49590000Y-13350000D03*
X52790000Y-110000D03*
X53590000Y-10150000D03*
X19960000Y-9890000D03*
X53590000Y-13350000D03*
X51980000Y-10950000D03*
X52790000Y-14150000D03*
X48010000Y-6150000D03*
D19*
X11530000Y-300000D03*
D20*
X50390000Y-4570000D03*
X50350000Y-110000D03*
X51990000Y-960000D03*
X45890000Y-8400000D03*
D19*
X8400000Y-12410000D03*
D20*
X52790000Y-4550000D03*
X53590000Y-1760000D03*
X47930000Y-2430000D03*
X52790000Y-960000D03*
X53590000Y-110000D03*
X52790000Y-6950000D03*
X15940000Y-10220000D03*
X52790000Y-5350000D03*
X49530000Y-2620000D03*
X50360000Y-2320000D03*
X48700000Y-1830000D03*
X17404647Y-3384647D03*
D19*
X42300000Y-8760000D03*
D20*
X51190000Y-2070000D03*
X51980000Y-9350000D03*
X51990000Y-5350000D03*
X39050000Y-14310000D03*
D19*
X38390000Y-1740000D03*
D20*
X46370000Y-110000D03*
D19*
X30468500Y-5508500D03*
D20*
X49580000Y-7740000D03*
X33750000Y-1740000D03*
X48790000Y-6150000D03*
X51190000Y-3770000D03*
X50390000Y-6150000D03*
X53590000Y-7750000D03*
X52790000Y-10150000D03*
X53590000Y-11750000D03*
X51980000Y-10150000D03*
X27920000Y110000D03*
X53590000Y-8550000D03*
D19*
X34450000Y-12240000D03*
D20*
X51990000Y-14150000D03*
X46130000Y-12240000D03*
X49590000Y-4580000D03*
X48790000Y-5340000D03*
X50390000Y-13350000D03*
X52790000Y-6150000D03*
X51190000Y-6950000D03*
X50350000Y-1180000D03*
X17410000Y-6380000D03*
D19*
X42310000Y-5530000D03*
D20*
X53590000Y-10950000D03*
D19*
X18520000Y-12800000D03*
D20*
X46380000Y-850000D03*
X52790000Y-3750000D03*
X51990000Y-7750000D03*
X51990000Y-3770000D03*
X25280000Y120000D03*
X53590000Y-6950000D03*
X16110000Y-300000D03*
X12520000Y-9800000D03*
X51990000Y-6150000D03*
X51190000Y-14150000D03*
X25140000Y-6630000D03*
X51990000Y-4550000D03*
X52790000Y-13350000D03*
X51990000Y-13350000D03*
X48710000Y-2970000D03*
X52790000Y-11750000D03*
X51990000Y-8550000D03*
X51990000Y-110000D03*
X47940000Y-3420000D03*
D19*
X43465000Y-710000D03*
D20*
X51980000Y-11750000D03*
X30070000Y-12240000D03*
X52790000Y-1760000D03*
X52790000Y-8550000D03*
X51980000Y-12550000D03*
X52790000Y-12550000D03*
X48700000Y-110000D03*
X52790000Y-10950000D03*
X51190000Y-4550000D03*
X23451916Y-3198452D03*
X50390000Y-6950000D03*
X25720000Y-13700000D03*
X31410000Y-11230000D03*
X51190000Y-6150000D03*
D19*
X37460000Y-9340000D03*
X11250000Y-11780000D03*
D20*
X52790000Y-9350000D03*
D19*
X40680000Y-7140000D03*
D20*
X51190000Y-5350000D03*
X48010000Y-5340000D03*
X48790000Y-13350000D03*
X52000000Y-1890000D03*
X51190000Y-13350000D03*
D22*
%TO.N,/VDD_5V*%
X8610000Y-9530000D03*
X8610000Y-4680000D03*
D20*
%TO.N,/CHIP_EN*%
X40660000Y-1840000D03*
X40670000Y-3200000D03*
X37220000Y-5540000D03*
X31330000Y-8735000D03*
X34485000Y-5540000D03*
X42570000Y-2890000D03*
%TO.N,/GPIO0*%
X45826936Y-3896936D03*
%TO.N,/GPIO1*%
X44958738Y-4128738D03*
%TO.N,/GPIO2*%
X44039291Y-4341079D03*
%TO.N,/GPIO9{slash}BOOT*%
X31636800Y-4863200D03*
X32595000Y-3905000D03*
%TO.N,/DTR*%
X20980000Y-6360000D03*
X15080000Y-9600000D03*
%TO.N,/U0RXD*%
X10620000Y-2300000D03*
X44085185Y-9984815D03*
X8630000Y-2290000D03*
X10610000Y-920500D03*
X10620000Y-5300000D03*
%TO.N,/U0TXD*%
X10630000Y-6210000D03*
X44900000Y-10030000D03*
%TO.N,Net-(USB1-CC1)*%
X9360000Y-5900000D03*
X17380000Y-10840000D03*
X13820000Y-11730000D03*
X10670000Y-9560000D03*
%TO.N,/USB_Data-*%
X6020000Y-6390000D03*
X6020500Y-7390000D03*
%TO.N,Net-(VT2-B)*%
X19160000Y-6380000D03*
X20970000Y-2490000D03*
%TO.N,Net-(USB1-CC2)*%
X12500000Y-8880000D03*
X18160000Y-8120000D03*
%TD*%
D23*
%TO.N,/VDD_3.3V*%
X22130000Y-6360000D02*
X25095000Y-9325000D01*
X31469062Y-2000438D02*
X31458624Y-1990000D01*
X18150000Y-2019500D02*
X18149500Y-2020000D01*
X17890500Y-2019500D02*
X18150000Y-2019500D01*
X45060000Y-7140000D02*
X46480000Y-7140000D01*
X46480000Y-7140000D02*
X46490000Y-7130000D01*
X36710000Y-7390000D02*
X40230000Y-10910000D01*
X22130000Y-1990000D02*
X27690000Y-1990000D01*
X44620000Y-6700000D02*
X45060000Y-7140000D01*
X27690000Y-1990000D02*
X31458624Y-1990000D01*
X12120000Y-2020000D02*
X11410000Y-2730000D01*
X27690000Y-1990000D02*
X27635000Y-2045000D01*
X46490000Y-7130000D02*
X46490000Y-10020000D01*
X45580000Y-10910000D02*
X50130000Y-15460000D01*
X44780000Y-10910000D02*
X45580000Y-10910000D01*
X27635000Y-2045000D02*
X27635000Y-3580000D01*
X15830000Y-4080000D02*
X12720000Y-4080000D01*
X25095000Y-9325000D02*
X25095000Y-10640000D01*
X36700000Y-7390000D02*
X36710000Y-7390000D01*
X22130000Y-1990000D02*
X22130000Y-6360000D01*
X11410000Y-2730000D02*
X11410000Y-6795500D01*
X18149500Y-2020000D02*
X12120000Y-2020000D01*
X44620000Y-5881690D02*
X44620000Y-6700000D01*
X14880000Y-15700000D02*
X8280000Y-15700000D01*
X11410000Y-10310000D02*
X14880000Y-13780000D01*
X15830000Y-4080000D02*
X17890500Y-2019500D01*
X45600000Y-10910000D02*
X44780000Y-10910000D01*
X40230000Y-10910000D02*
X44780000Y-10910000D01*
X8280000Y-15700000D02*
X7100000Y-14520000D01*
X40170847Y-3879153D02*
X37850000Y-6200000D01*
X25095000Y-10640000D02*
X26365000Y-10640000D01*
X11410000Y-6795500D02*
X11410000Y-10310000D01*
X46490000Y-10020000D02*
X45600000Y-10910000D01*
X7100000Y-14520000D02*
X7100000Y-13020000D01*
X45115845Y-5385845D02*
X44620000Y-5881690D01*
%TO.N,GND*%
X44840000Y-12235000D02*
X44835000Y-12240000D01*
D24*
X18520000Y-12800000D02*
X15750000Y-12800000D01*
D23*
X46680000Y-4710000D02*
X52730000Y1340000D01*
D25*
X42290000Y-5530000D02*
X40680000Y-7140000D01*
D23*
X43480000Y-725000D02*
X43465000Y-710000D01*
X44715000Y-4710000D02*
X46680000Y-4710000D01*
X46125000Y-12235000D02*
X44840000Y-12235000D01*
D25*
X45180000Y-8400000D02*
X43920000Y-7140000D01*
D26*
X52790000Y-490000D02*
X52730000Y-430000D01*
X54480000Y-490000D02*
X52790000Y-490000D01*
D23*
X39420000Y-710000D02*
X43465000Y-710000D01*
X30468500Y-4278500D02*
X29770000Y-3580000D01*
X30468500Y-5508500D02*
X30468500Y-4278500D01*
X29770000Y-3580000D02*
X28905000Y-3580000D01*
X44835000Y-12240000D02*
X35090000Y-12240000D01*
X36900000Y-12240000D02*
X35090000Y-12240000D01*
D25*
X40680000Y-7140000D02*
X42300000Y-8760000D01*
D23*
X11530000Y-300000D02*
X16110000Y-300000D01*
D25*
X42300000Y-8760000D02*
X43920000Y-7140000D01*
X42310000Y-5530000D02*
X42290000Y-5530000D01*
D23*
X23610000Y-6630000D02*
X23600000Y-6640000D01*
X43480000Y-4360000D02*
X43480000Y-725000D01*
D25*
X43920000Y-7140000D02*
X42310000Y-5530000D01*
D23*
X52730000Y1680000D02*
X52730000Y-430000D01*
X38390000Y-1740000D02*
X33750000Y-1740000D01*
X25140000Y-6630000D02*
X23610000Y-6630000D01*
X52730000Y-430000D02*
X52730000Y-15940000D01*
X34450000Y-12240000D02*
X35090000Y-12240000D01*
D25*
X45890000Y-8400000D02*
X45180000Y-8400000D01*
D23*
X43920000Y-5505000D02*
X44715000Y-4710000D01*
X42310000Y-5530000D02*
X43480000Y-4360000D01*
X36900000Y-10270000D02*
X36900000Y-12240000D01*
X46130000Y-12240000D02*
X46125000Y-12235000D01*
X39420000Y-710000D02*
X38390000Y-1740000D01*
X43920000Y-7140000D02*
X43920000Y-5505000D01*
D27*
%TO.N,/VDD_5V*%
X12260000Y-14780000D02*
X15700000Y-14780000D01*
X8610000Y-11130000D02*
X12260000Y-14780000D01*
X15700000Y-14780000D02*
X16460000Y-14020000D01*
X16460000Y-14020000D02*
X18310000Y-14020000D01*
X8610000Y-4680000D02*
X8610000Y-11130000D01*
X18310000Y-14020000D02*
X19710000Y-15420000D01*
D25*
%TO.N,/CHIP_EN*%
X42570000Y-2890000D02*
X41520000Y-1840000D01*
X34485000Y-5555000D02*
X34485000Y-5540000D01*
X39560000Y-3200000D02*
X40670000Y-3200000D01*
X31330000Y-8710000D02*
X34485000Y-5555000D01*
X37220000Y-5540000D02*
X39560000Y-3200000D01*
X31330000Y-8735000D02*
X31330000Y-8710000D01*
X41520000Y-1840000D02*
X40660000Y-1840000D01*
%TO.N,/GPIO0*%
X50190000Y466128D02*
X50190000Y1680000D01*
X45826936Y-3896936D02*
X50190000Y466128D01*
%TO.N,/GPIO1*%
X47650000Y-1437477D02*
X47650000Y1680000D01*
X44958738Y-4128738D02*
X47650000Y-1437477D01*
%TO.N,/GPIO2*%
X44039291Y-4341079D02*
X44039291Y609291D01*
X44039291Y609291D02*
X45110000Y1680000D01*
%TO.N,/GPIO9{slash}BOOT*%
X32595000Y-3905000D02*
X31636800Y-4863200D01*
%TO.N,/DTR*%
X17740000Y-9600000D02*
X20980000Y-6360000D01*
X15080000Y-9600000D02*
X17740000Y-9600000D01*
%TO.N,/U0RXD*%
X44085185Y-9984815D02*
X40784815Y-9984815D01*
X40784815Y-9984815D02*
X31730000Y-930000D01*
X8630000Y60000D02*
X7010000Y1680000D01*
X8630000Y-2290000D02*
X8630000Y60000D01*
X10620000Y-2300000D02*
X10620000Y-5300000D01*
X31730000Y-930000D02*
X10610000Y-930000D01*
%TO.N,/U0TXD*%
X9560000Y-5140000D02*
X9560000Y-1370000D01*
X44900000Y-10030000D02*
X44490000Y-10440000D01*
X31615736Y-1370000D02*
X9560000Y-1370000D01*
X40685736Y-10440000D02*
X31615736Y-1370000D01*
X9560000Y-1370000D02*
X9560000Y1670000D01*
X44490000Y-10440000D02*
X40685736Y-10440000D01*
X10630000Y-6210000D02*
X9560000Y-5140000D01*
%TO.N,/SPIQ*%
X26365000Y-5075000D02*
X37020000Y-15730000D01*
X26365000Y-3580000D02*
X26365000Y-5075000D01*
%TO.N,/SPID*%
X29710000Y-10640000D02*
X28905000Y-10640000D01*
X34940000Y-15870000D02*
X29710000Y-10640000D01*
%TO.N,/SPICLK*%
X29370000Y-12840000D02*
X32400000Y-15870000D01*
X28370000Y-12840000D02*
X29370000Y-12840000D01*
X27635000Y-12105000D02*
X28370000Y-12840000D01*
X27635000Y-10640000D02*
X27635000Y-12105000D01*
%TO.N,/SPICS0*%
X27000000Y-7160000D02*
X27000000Y-13010000D01*
X25095000Y-5255000D02*
X27000000Y-7160000D01*
X27000000Y-13010000D02*
X29860000Y-15870000D01*
X25095000Y-3580000D02*
X25095000Y-5255000D01*
%TO.N,Net-(USB1-CC1)*%
X13820000Y-11730000D02*
X16490000Y-11730000D01*
X10670000Y-9560000D02*
X10670000Y-7210000D01*
X16490000Y-11730000D02*
X17380000Y-10840000D01*
X10670000Y-7210000D02*
X9360000Y-5900000D01*
%TO.N,/USB_Data-*%
X6020000Y-7389500D02*
X6020500Y-7390000D01*
X6020000Y-6390000D02*
X6020000Y-7389500D01*
%TO.N,Net-(VT2-B)*%
X20000000Y-5540000D02*
X20000000Y-3460000D01*
X20000000Y-3460000D02*
X20970000Y-2490000D01*
X19160000Y-6380000D02*
X20000000Y-5540000D01*
%TO.N,Net-(USB1-CC2)*%
X18160000Y-8120000D02*
X17400000Y-8880000D01*
X17400000Y-8880000D02*
X12500000Y-8880000D01*
%TD*%
%TA.AperFunction,Conductor*%
%TO.N,GND*%
G36*
X3407344Y2749498D02*
G01*
X3453837Y2695842D01*
X3463941Y2625568D01*
X3434447Y2560988D01*
X3431923Y2558161D01*
X3394280Y2517272D01*
X3394275Y2517266D01*
X3271141Y2328794D01*
X3180703Y2122614D01*
X3180702Y2122613D01*
X3125437Y1904376D01*
X3125436Y1904370D01*
X3125436Y1904368D01*
X3106844Y1680000D01*
X3124232Y1470156D01*
X3125437Y1455625D01*
X3180702Y1237388D01*
X3180703Y1237387D01*
X3180704Y1237384D01*
X3271140Y1031209D01*
X3271141Y1031207D01*
X3394275Y842735D01*
X3394279Y842730D01*
X3497673Y730416D01*
X3537865Y686756D01*
X3546762Y677092D01*
X3592452Y641530D01*
X3724424Y538811D01*
X3922426Y431658D01*
X3922427Y431658D01*
X3922428Y431657D01*
X4017264Y399100D01*
X4135365Y358556D01*
X4357431Y321500D01*
X4357435Y321500D01*
X4582565Y321500D01*
X4582569Y321500D01*
X4804635Y358556D01*
X5017574Y431658D01*
X5215576Y538811D01*
X5393240Y677094D01*
X5545722Y842732D01*
X5545927Y843045D01*
X5570315Y880375D01*
X5634518Y978646D01*
X5688520Y1024732D01*
X5758868Y1034308D01*
X5823225Y1004331D01*
X5845480Y978647D01*
X5878503Y928102D01*
X5934275Y842735D01*
X5934279Y842730D01*
X6037673Y730416D01*
X6077865Y686756D01*
X6086762Y677092D01*
X6132452Y641530D01*
X6264424Y538811D01*
X6462426Y431658D01*
X6462429Y431657D01*
X6462431Y431656D01*
X6521952Y411223D01*
X6534019Y406371D01*
X6549711Y399099D01*
X6574308Y391729D01*
X6606784Y381998D01*
X6611499Y380482D01*
X6675365Y358556D01*
X6689298Y356232D01*
X6704726Y352647D01*
X6908105Y291701D01*
X6954574Y280107D01*
X6956704Y279680D01*
X6956708Y279680D01*
X6956710Y279679D01*
X6963201Y278688D01*
X7003708Y272503D01*
X7293550Y241894D01*
X7299019Y241346D01*
X7469418Y225194D01*
X7500262Y218287D01*
X7577135Y190568D01*
X7612587Y170841D01*
X7814533Y11017D01*
X7823199Y4498D01*
X7836549Y-7098D01*
X7984595Y-155144D01*
X8018621Y-217456D01*
X8021500Y-244239D01*
X8021500Y-1736057D01*
X8019033Y-1760868D01*
X8016676Y-1772601D01*
X8016674Y-1772617D01*
X8016092Y-1783108D01*
X8001705Y-1834961D01*
X7989919Y-1857278D01*
X7983476Y-1869900D01*
X7983202Y-1870455D01*
X7977632Y-1882116D01*
X7937963Y-1967951D01*
X7933843Y-1977102D01*
X7933702Y-1977423D01*
X7933682Y-1977472D01*
X7911787Y-2037210D01*
X7911784Y-2037225D01*
X7911298Y-2040518D01*
X7905579Y-2063731D01*
X7885837Y-2120149D01*
X7867602Y-2282001D01*
X7840099Y-2347454D01*
X7781575Y-2387647D01*
X7710612Y-2389820D01*
X7649739Y-2353282D01*
X7631272Y-2327290D01*
X7591175Y-2252275D01*
X7465211Y-2098788D01*
X7311724Y-1972824D01*
X7136614Y-1879225D01*
X7136599Y-1879219D01*
X6946606Y-1821585D01*
X6946594Y-1821583D01*
X6798526Y-1807000D01*
X6453000Y-1807000D01*
X6453000Y-2515000D01*
X5945000Y-2515000D01*
X5945000Y-1807000D01*
X5599473Y-1807000D01*
X5451405Y-1821583D01*
X5451393Y-1821585D01*
X5261400Y-1879219D01*
X5261385Y-1879225D01*
X5086275Y-1972824D01*
X4932788Y-2098788D01*
X4806824Y-2252275D01*
X4713224Y-2427387D01*
X4713223Y-2427389D01*
X4672692Y-2560999D01*
X4672693Y-2561000D01*
X5439349Y-2561000D01*
X5393390Y-2589457D01*
X5325799Y-2678962D01*
X5295105Y-2786840D01*
X5305454Y-2898521D01*
X5355448Y-2998922D01*
X5432318Y-3069000D01*
X4672693Y-3069000D01*
X4713223Y-3202610D01*
X4713224Y-3202612D01*
X4806824Y-3377724D01*
X4932788Y-3531211D01*
X5086275Y-3657175D01*
X5242148Y-3740491D01*
X5292796Y-3790243D01*
X5308506Y-3859480D01*
X5285691Y-3924274D01*
X5228029Y-4005963D01*
X5228026Y-4005967D01*
X5179653Y-4142080D01*
X5169796Y-4286197D01*
X5199186Y-4427636D01*
X5265645Y-4555893D01*
X5265647Y-4555896D01*
X5364242Y-4661467D01*
X5364244Y-4661468D01*
X5364245Y-4661469D01*
X5423542Y-4697528D01*
X5487672Y-4736526D01*
X5626770Y-4775500D01*
X5626772Y-4775500D01*
X5734949Y-4775500D01*
X5734962Y-4775499D01*
X5822903Y-4763411D01*
X5842111Y-4760771D01*
X5974609Y-4703219D01*
X6086665Y-4612054D01*
X6169971Y-4494037D01*
X6170089Y-4493707D01*
X6192336Y-4431107D01*
X6218346Y-4357921D01*
X6228204Y-4213801D01*
X6198814Y-4072366D01*
X6198813Y-4072364D01*
X6198813Y-4072363D01*
X6143810Y-3966214D01*
X6132354Y-3944105D01*
X6033755Y-3838531D01*
X6033754Y-3838530D01*
X6005531Y-3821367D01*
X5957721Y-3768882D01*
X5945000Y-3713711D01*
X5945000Y-3115000D01*
X6453000Y-3115000D01*
X6453000Y-3823000D01*
X6798509Y-3823000D01*
X6798526Y-3822999D01*
X6946594Y-3808416D01*
X6946606Y-3808414D01*
X7136599Y-3750780D01*
X7136614Y-3750774D01*
X7311724Y-3657175D01*
X7465211Y-3531211D01*
X7591175Y-3377724D01*
X7684775Y-3202612D01*
X7684776Y-3202610D01*
X7725307Y-3069000D01*
X6958651Y-3069000D01*
X7004610Y-3040543D01*
X7072201Y-2951038D01*
X7102895Y-2843160D01*
X7092546Y-2731479D01*
X7042552Y-2631078D01*
X6965682Y-2561000D01*
X7731972Y-2561000D01*
X7773454Y-2529657D01*
X7844246Y-2524275D01*
X7906710Y-2558021D01*
X7936942Y-2605897D01*
X7942291Y-2621183D01*
X8021986Y-2748016D01*
X8033231Y-2765912D01*
X8154087Y-2886768D01*
X8154089Y-2886769D01*
X8154091Y-2886771D01*
X8298817Y-2977709D01*
X8460150Y-3034162D01*
X8460149Y-3034162D01*
X8470241Y-3035299D01*
X8630000Y-3053299D01*
X8766539Y-3037915D01*
X8806882Y-3033370D01*
X8807099Y-3035299D01*
X8868316Y-3039046D01*
X8925586Y-3081006D01*
X8951080Y-3147267D01*
X8951500Y-3157548D01*
X8951500Y-3612389D01*
X8931498Y-3680510D01*
X8877842Y-3727003D01*
X8807568Y-3737107D01*
X8800923Y-3735969D01*
X8797896Y-3735367D01*
X8610003Y-3716862D01*
X8609997Y-3716862D01*
X8422108Y-3735366D01*
X8422100Y-3735368D01*
X8241421Y-3790177D01*
X8074908Y-3879180D01*
X7928959Y-3998959D01*
X7809180Y-4144908D01*
X7720177Y-4311421D01*
X7665368Y-4492100D01*
X7665366Y-4492108D01*
X7646862Y-4679996D01*
X7646862Y-4680003D01*
X7665366Y-4867891D01*
X7665368Y-4867899D01*
X7720178Y-5048582D01*
X7721950Y-5052859D01*
X7724949Y-5060856D01*
X7725076Y-5061233D01*
X7788798Y-5213525D01*
X7790247Y-5217144D01*
X7821386Y-5298550D01*
X7825810Y-5312495D01*
X7833612Y-5343166D01*
X7836829Y-5361251D01*
X7842928Y-5420176D01*
X7843575Y-5430758D01*
X7846373Y-5578267D01*
X7846374Y-5578276D01*
X7849769Y-5628268D01*
X7849817Y-5628556D01*
X7851500Y-5649080D01*
X7851500Y-8898258D01*
X7831498Y-8966379D01*
X7822900Y-8978191D01*
X7809180Y-8994908D01*
X7720177Y-9161421D01*
X7665368Y-9342100D01*
X7665366Y-9342108D01*
X7646862Y-9529996D01*
X7646862Y-9530003D01*
X7665366Y-9717891D01*
X7665368Y-9717899D01*
X7720177Y-9898578D01*
X7809180Y-10065091D01*
X7822898Y-10081806D01*
X7850653Y-10147153D01*
X7851500Y-10161741D01*
X7851500Y-10886287D01*
X7831498Y-10954408D01*
X7777842Y-11000901D01*
X7707568Y-11011005D01*
X7642988Y-10981511D01*
X7614378Y-10945684D01*
X7591174Y-10902273D01*
X7465211Y-10748788D01*
X7311724Y-10622824D01*
X7136614Y-10529225D01*
X7136599Y-10529219D01*
X6946606Y-10471585D01*
X6946594Y-10471583D01*
X6798526Y-10457000D01*
X6453000Y-10457000D01*
X6453000Y-11165000D01*
X5945000Y-11165000D01*
X5945000Y-10567231D01*
X5965002Y-10499110D01*
X5991482Y-10469492D01*
X6025926Y-10441469D01*
X6086665Y-10392054D01*
X6169971Y-10274037D01*
X6218346Y-10137921D01*
X6228204Y-9993801D01*
X6198814Y-9852366D01*
X6198813Y-9852364D01*
X6198813Y-9852363D01*
X6145343Y-9749173D01*
X6132354Y-9724105D01*
X6108737Y-9698817D01*
X6033757Y-9618532D01*
X6033755Y-9618531D01*
X5910327Y-9543473D01*
X5771230Y-9504500D01*
X5771228Y-9504500D01*
X5663051Y-9504500D01*
X5663037Y-9504500D01*
X5555897Y-9519227D01*
X5555888Y-9519229D01*
X5423389Y-9576781D01*
X5311337Y-9667944D01*
X5311331Y-9667950D01*
X5228029Y-9785961D01*
X5228026Y-9785967D01*
X5179653Y-9922080D01*
X5170324Y-10058474D01*
X5169796Y-10066199D01*
X5173026Y-10081741D01*
X5199186Y-10207636D01*
X5265645Y-10335893D01*
X5265647Y-10335897D01*
X5272750Y-10343502D01*
X5304627Y-10406940D01*
X5297146Y-10477541D01*
X5252683Y-10532891D01*
X5240060Y-10540624D01*
X5086273Y-10622825D01*
X4932788Y-10748788D01*
X4806824Y-10902275D01*
X4713224Y-11077387D01*
X4713223Y-11077389D01*
X4672692Y-11210999D01*
X4672693Y-11211000D01*
X5439349Y-11211000D01*
X5393390Y-11239457D01*
X5325799Y-11328962D01*
X5295105Y-11436840D01*
X5305454Y-11548521D01*
X5355448Y-11648922D01*
X5432318Y-11719000D01*
X4672693Y-11719000D01*
X4713223Y-11852610D01*
X4713224Y-11852612D01*
X4806824Y-12027724D01*
X4932788Y-12181211D01*
X5086275Y-12307175D01*
X5261385Y-12400774D01*
X5261400Y-12400780D01*
X5451393Y-12458414D01*
X5451405Y-12458416D01*
X5599473Y-12472999D01*
X5599491Y-12473000D01*
X5945000Y-12473000D01*
X5945000Y-11765000D01*
X6453000Y-11765000D01*
X6453000Y-12483619D01*
X6474253Y-12522540D01*
X6469188Y-12593355D01*
X6457819Y-12616359D01*
X6412292Y-12688814D01*
X6412291Y-12688816D01*
X6355837Y-12850151D01*
X6336701Y-13020000D01*
X6355837Y-13189850D01*
X6386832Y-13278429D01*
X6390207Y-13289753D01*
X6397573Y-13319497D01*
X6425189Y-13387544D01*
X6427670Y-13394189D01*
X6428887Y-13397751D01*
X6435371Y-13430048D01*
X6435544Y-13432625D01*
X6435823Y-13440026D01*
X6436421Y-13512626D01*
X6436422Y-13512637D01*
X6439581Y-13565434D01*
X6439950Y-13567760D01*
X6441500Y-13587462D01*
X6441500Y-14433389D01*
X6439708Y-14449620D01*
X6439958Y-14449644D01*
X6439211Y-14457536D01*
X6441438Y-14528369D01*
X6441500Y-14532327D01*
X6441500Y-14561432D01*
X6441776Y-14563614D01*
X6442056Y-14565833D01*
X6442986Y-14577655D01*
X6444437Y-14623829D01*
X6444438Y-14623832D01*
X6450421Y-14644429D01*
X6454428Y-14663780D01*
X6457117Y-14685060D01*
X6457117Y-14685061D01*
X6474124Y-14728018D01*
X6477967Y-14739244D01*
X6490853Y-14783597D01*
X6490853Y-14783598D01*
X6501771Y-14802058D01*
X6510468Y-14819811D01*
X6518364Y-14839755D01*
X6518368Y-14839761D01*
X6545514Y-14877123D01*
X6552033Y-14887047D01*
X6575545Y-14926804D01*
X6575547Y-14926807D01*
X6590714Y-14941974D01*
X6603551Y-14957004D01*
X6616159Y-14974357D01*
X6647155Y-14999999D01*
X6651751Y-15003801D01*
X6660531Y-15011791D01*
X7753125Y-16104385D01*
X7763338Y-16117131D01*
X7763531Y-16116972D01*
X7768583Y-16123079D01*
X7820257Y-16171604D01*
X7823099Y-16174359D01*
X7843667Y-16194927D01*
X7846958Y-16197480D01*
X7847171Y-16197645D01*
X7856198Y-16205355D01*
X7889867Y-16236972D01*
X7908669Y-16247308D01*
X7925175Y-16258151D01*
X7942132Y-16271304D01*
X7984542Y-16289656D01*
X7995182Y-16294870D01*
X8035659Y-16317122D01*
X8035663Y-16317124D01*
X8056432Y-16322456D01*
X8075134Y-16328859D01*
X8094824Y-16337380D01*
X8140448Y-16344605D01*
X8152071Y-16347012D01*
X8196812Y-16358500D01*
X8218259Y-16358500D01*
X8237967Y-16360050D01*
X8259152Y-16363406D01*
X8305140Y-16359058D01*
X8316996Y-16358500D01*
X14344481Y-16358500D01*
X14363437Y-16359933D01*
X14387382Y-16363578D01*
X14459992Y-16364174D01*
X14467317Y-16364450D01*
X14469952Y-16364626D01*
X14502269Y-16371117D01*
X14505834Y-16372335D01*
X14512447Y-16374805D01*
X14580496Y-16402423D01*
X14629771Y-16419561D01*
X14634489Y-16420231D01*
X14658389Y-16426049D01*
X14710150Y-16444162D01*
X14880000Y-16463299D01*
X15049850Y-16444162D01*
X15211183Y-16387709D01*
X15355909Y-16296771D01*
X15476771Y-16175909D01*
X15567709Y-16031183D01*
X15567714Y-16031167D01*
X15568506Y-16029526D01*
X15569309Y-16028636D01*
X15571474Y-16025191D01*
X15572077Y-16025570D01*
X15616080Y-15976826D01*
X15684593Y-15958212D01*
X15752293Y-15979594D01*
X15797686Y-16034183D01*
X15807603Y-16073780D01*
X15815932Y-16174292D01*
X15871176Y-16392449D01*
X15871179Y-16392456D01*
X15961580Y-16598548D01*
X16084676Y-16786961D01*
X16131811Y-16838163D01*
X16163232Y-16901828D01*
X16155245Y-16972374D01*
X16110386Y-17027402D01*
X16042897Y-17049443D01*
X16039110Y-17049500D01*
X2998539Y-17049500D01*
X2991474Y-17049302D01*
X2694219Y-17032608D01*
X2680178Y-17031026D01*
X2390155Y-16981749D01*
X2376380Y-16978605D01*
X2093696Y-16897165D01*
X2080359Y-16892498D01*
X1808574Y-16779921D01*
X1795843Y-16773790D01*
X1538369Y-16631489D01*
X1526405Y-16623972D01*
X1286488Y-16453742D01*
X1275441Y-16444932D01*
X1056086Y-16248904D01*
X1046095Y-16238913D01*
X850067Y-16019558D01*
X841257Y-16008511D01*
X832763Y-15996540D01*
X671023Y-15768588D01*
X663510Y-15756630D01*
X521209Y-15499156D01*
X515078Y-15486425D01*
X422338Y-15262530D01*
X402500Y-15214638D01*
X397834Y-15201303D01*
X339839Y-14999999D01*
X746751Y-14999999D01*
X753677Y-15074758D01*
X754071Y-15080385D01*
X757791Y-15158470D01*
X757792Y-15158476D01*
X761522Y-15173855D01*
X764534Y-15191922D01*
X765705Y-15204553D01*
X765706Y-15204561D01*
X787196Y-15280089D01*
X788454Y-15284864D01*
X807700Y-15364198D01*
X807705Y-15364213D01*
X812828Y-15375430D01*
X819403Y-15393285D01*
X821925Y-15402151D01*
X821927Y-15402155D01*
X858463Y-15475527D01*
X860287Y-15479349D01*
X895644Y-15556771D01*
X895645Y-15556772D01*
X900787Y-15563993D01*
X910940Y-15580915D01*
X913495Y-15586047D01*
X913496Y-15586048D01*
X913497Y-15586050D01*
X965016Y-15654273D01*
X967039Y-15657031D01*
X1018441Y-15729215D01*
X1022340Y-15732933D01*
X1035938Y-15748189D01*
X1037299Y-15749991D01*
X1103032Y-15809914D01*
X1105017Y-15811764D01*
X1171654Y-15875303D01*
X1173252Y-15876330D01*
X1184437Y-15884925D01*
X1184471Y-15884882D01*
X1189125Y-15888397D01*
X1267643Y-15937013D01*
X1269389Y-15938114D01*
X1329627Y-15976826D01*
X1349751Y-15989759D01*
X1355080Y-15992506D01*
X1355040Y-15992582D01*
X1358398Y-15994277D01*
X1358566Y-15993942D01*
X1363773Y-15996534D01*
X1363782Y-15996540D01*
X1438720Y-16025570D01*
X1453129Y-16031152D01*
X1454439Y-16031668D01*
X1546279Y-16068436D01*
X1546281Y-16068436D01*
X1546283Y-16068437D01*
X1548314Y-16069034D01*
X1554434Y-16070491D01*
X1555333Y-16070746D01*
X1555345Y-16070751D01*
X1652951Y-16088996D01*
X1653586Y-16089116D01*
X1754151Y-16108500D01*
X1754154Y-16108500D01*
X1962715Y-16108500D01*
X1962718Y-16108500D01*
X2009300Y-16099791D01*
X2020443Y-16098220D01*
X2070739Y-16093419D01*
X2112552Y-16081141D01*
X2124891Y-16078183D01*
X2164655Y-16070751D01*
X2212078Y-16052378D01*
X2222059Y-16048987D01*
X2273862Y-16033777D01*
X2309514Y-16015395D01*
X2321715Y-16009905D01*
X2356218Y-15996540D01*
X2402404Y-15967941D01*
X2410977Y-15963087D01*
X2462026Y-15936771D01*
X2490835Y-15914114D01*
X2502377Y-15906040D01*
X2530882Y-15888392D01*
X2573576Y-15849471D01*
X2580561Y-15843553D01*
X2628432Y-15805908D01*
X2650168Y-15780822D01*
X2660489Y-15770238D01*
X2682701Y-15749991D01*
X2719602Y-15701124D01*
X2724922Y-15694552D01*
X2767065Y-15645918D01*
X2781922Y-15620182D01*
X2790485Y-15607259D01*
X2806503Y-15586050D01*
X2835347Y-15528121D01*
X2838993Y-15521331D01*
X2872913Y-15462582D01*
X2881492Y-15437793D01*
X2887772Y-15422840D01*
X2889303Y-15419766D01*
X2898074Y-15402152D01*
X2916731Y-15336576D01*
X2918841Y-15329881D01*
X2926656Y-15307302D01*
X2942153Y-15262527D01*
X2945393Y-15239986D01*
X2948917Y-15223454D01*
X2954294Y-15204559D01*
X2960904Y-15133220D01*
X2961644Y-15126961D01*
X2972281Y-15052984D01*
X2971362Y-15033707D01*
X2971756Y-15016100D01*
X2973249Y-15000000D01*
X2966319Y-14925226D01*
X2965928Y-14919651D01*
X2962208Y-14841526D01*
X2958478Y-14826153D01*
X2955464Y-14808076D01*
X2954294Y-14795441D01*
X2932787Y-14719855D01*
X2931557Y-14715186D01*
X2912298Y-14635796D01*
X2907168Y-14624565D01*
X2900594Y-14606707D01*
X2898074Y-14597848D01*
X2861515Y-14524431D01*
X2859706Y-14520637D01*
X2858669Y-14518367D01*
X2844969Y-14488366D01*
X2824358Y-14443232D01*
X2824356Y-14443229D01*
X2819208Y-14436000D01*
X2809061Y-14419087D01*
X2806503Y-14413950D01*
X2806500Y-14413946D01*
X2806499Y-14413944D01*
X2755027Y-14345785D01*
X2752940Y-14342939D01*
X2701565Y-14270793D01*
X2701562Y-14270788D01*
X2701559Y-14270785D01*
X2697655Y-14267062D01*
X2684062Y-14251812D01*
X2682701Y-14250009D01*
X2616973Y-14190090D01*
X2614978Y-14188231D01*
X2548346Y-14124697D01*
X2546739Y-14123664D01*
X2535561Y-14115074D01*
X2535529Y-14115118D01*
X2530888Y-14111613D01*
X2530882Y-14111608D01*
X2452750Y-14063230D01*
X2452327Y-14062968D01*
X2450538Y-14061839D01*
X2404185Y-14032050D01*
X2370254Y-14010244D01*
X2370249Y-14010242D01*
X2364916Y-14007492D01*
X2364955Y-14007415D01*
X2361601Y-14005722D01*
X2361435Y-14006057D01*
X2356216Y-14003458D01*
X2266838Y-13968833D01*
X2265526Y-13968316D01*
X2173727Y-13931565D01*
X2171692Y-13930967D01*
X2165599Y-13929517D01*
X2164658Y-13929249D01*
X2067039Y-13911000D01*
X2066348Y-13910869D01*
X1965855Y-13891501D01*
X1965853Y-13891500D01*
X1965849Y-13891500D01*
X1962718Y-13891500D01*
X1757282Y-13891500D01*
X1757281Y-13891500D01*
X1710703Y-13900206D01*
X1699531Y-13901780D01*
X1649270Y-13906579D01*
X1649262Y-13906580D01*
X1649261Y-13906581D01*
X1607437Y-13918861D01*
X1595103Y-13921816D01*
X1555348Y-13929248D01*
X1555345Y-13929248D01*
X1555345Y-13929249D01*
X1535633Y-13936885D01*
X1507947Y-13947610D01*
X1497935Y-13951012D01*
X1446141Y-13966221D01*
X1410486Y-13984602D01*
X1398272Y-13990097D01*
X1363789Y-14003456D01*
X1363783Y-14003459D01*
X1317605Y-14032050D01*
X1309018Y-14036912D01*
X1257972Y-14063229D01*
X1257971Y-14063230D01*
X1229171Y-14085878D01*
X1217621Y-14093958D01*
X1189120Y-14111606D01*
X1146430Y-14150522D01*
X1139437Y-14156445D01*
X1091567Y-14194092D01*
X1069840Y-14219165D01*
X1059509Y-14229759D01*
X1037303Y-14250003D01*
X1000407Y-14298861D01*
X995084Y-14305438D01*
X952934Y-14354083D01*
X952931Y-14354087D01*
X938076Y-14379816D01*
X929511Y-14392742D01*
X913499Y-14413946D01*
X913498Y-14413947D01*
X884664Y-14471852D01*
X880995Y-14478684D01*
X847087Y-14537417D01*
X847085Y-14537422D01*
X838504Y-14562212D01*
X832229Y-14577153D01*
X821926Y-14597844D01*
X821924Y-14597850D01*
X803269Y-14663414D01*
X801151Y-14670139D01*
X777846Y-14737474D01*
X774606Y-14760007D01*
X771081Y-14776545D01*
X765705Y-14795441D01*
X759099Y-14866731D01*
X758355Y-14873034D01*
X747718Y-14947018D01*
X748636Y-14966285D01*
X748242Y-14983897D01*
X746751Y-14999996D01*
X746751Y-14999999D01*
X339839Y-14999999D01*
X316392Y-14918611D01*
X313252Y-14904853D01*
X263972Y-14614819D01*
X262391Y-14600780D01*
X262226Y-14597850D01*
X245698Y-14303525D01*
X245500Y-14296460D01*
X245500Y-11210999D01*
X572692Y-11210999D01*
X572693Y-11211000D01*
X1389349Y-11211000D01*
X1343390Y-11239457D01*
X1275799Y-11328962D01*
X1245105Y-11436840D01*
X1255454Y-11548521D01*
X1305448Y-11648922D01*
X1382318Y-11719000D01*
X572693Y-11719000D01*
X613223Y-11852610D01*
X613224Y-11852612D01*
X706824Y-12027724D01*
X832788Y-12181211D01*
X986275Y-12307175D01*
X1161385Y-12400774D01*
X1161400Y-12400780D01*
X1351393Y-12458414D01*
X1351405Y-12458416D01*
X1499473Y-12472999D01*
X1499491Y-12473000D01*
X1745000Y-12473000D01*
X1745000Y-11765000D01*
X2253000Y-11765000D01*
X2253000Y-12473000D01*
X2498509Y-12473000D01*
X2498526Y-12472999D01*
X2646594Y-12458416D01*
X2646606Y-12458414D01*
X2836599Y-12400780D01*
X2836614Y-12400774D01*
X3011724Y-12307175D01*
X3165211Y-12181211D01*
X3291175Y-12027724D01*
X3384775Y-11852612D01*
X3384776Y-11852610D01*
X3425307Y-11719000D01*
X2608651Y-11719000D01*
X2654610Y-11690543D01*
X2722201Y-11601038D01*
X2752895Y-11493160D01*
X2742546Y-11381479D01*
X2692552Y-11281078D01*
X2615682Y-11211000D01*
X3425307Y-11211000D01*
X3425307Y-11210999D01*
X3384776Y-11077389D01*
X3384775Y-11077387D01*
X3291175Y-10902275D01*
X3165211Y-10748788D01*
X3011724Y-10622824D01*
X2836614Y-10529225D01*
X2836599Y-10529219D01*
X2646606Y-10471585D01*
X2646594Y-10471583D01*
X2498526Y-10457000D01*
X2253000Y-10457000D01*
X2253000Y-11165000D01*
X1745000Y-11165000D01*
X1745000Y-10457000D01*
X1499473Y-10457000D01*
X1351405Y-10471583D01*
X1351393Y-10471585D01*
X1161400Y-10529219D01*
X1161385Y-10529225D01*
X986275Y-10622824D01*
X832788Y-10748788D01*
X706824Y-10902275D01*
X613224Y-11077387D01*
X613223Y-11077389D01*
X572692Y-11210999D01*
X245500Y-11210999D01*
X245500Y-6390000D01*
X5256701Y-6390000D01*
X5275837Y-6559848D01*
X5320495Y-6687473D01*
X5322289Y-6693009D01*
X5327993Y-6712111D01*
X5367630Y-6797875D01*
X5367647Y-6797912D01*
X5367663Y-6797945D01*
X5373951Y-6811058D01*
X5374220Y-6811599D01*
X5375634Y-6814357D01*
X5379946Y-6822769D01*
X5379954Y-6822784D01*
X5384597Y-6831577D01*
X5398718Y-6901156D01*
X5384681Y-6949088D01*
X5380047Y-6957893D01*
X5374646Y-6968451D01*
X5374363Y-6969017D01*
X5367977Y-6982343D01*
X5328386Y-7068106D01*
X5324638Y-7076419D01*
X5324474Y-7076793D01*
X5324462Y-7076822D01*
X5302281Y-7137216D01*
X5302278Y-7137226D01*
X5301788Y-7140549D01*
X5296070Y-7163752D01*
X5276338Y-7220146D01*
X5276338Y-7220148D01*
X5257201Y-7390000D01*
X5276337Y-7559848D01*
X5332790Y-7721182D01*
X5423731Y-7865912D01*
X5544587Y-7986768D01*
X5544589Y-7986769D01*
X5544591Y-7986771D01*
X5689317Y-8077709D01*
X5850650Y-8134162D01*
X5850649Y-8134162D01*
X5865516Y-8135837D01*
X6020500Y-8153299D01*
X6190350Y-8134162D01*
X6351683Y-8077709D01*
X6496409Y-7986771D01*
X6617271Y-7865909D01*
X6708209Y-7721183D01*
X6764662Y-7559850D01*
X6783799Y-7390000D01*
X6764662Y-7220150D01*
X6719747Y-7091791D01*
X6717971Y-7086315D01*
X6715123Y-7076793D01*
X6712389Y-7067650D01*
X6672713Y-6981914D01*
X6671907Y-6980234D01*
X6666639Y-6969245D01*
X6666359Y-6968681D01*
X6663751Y-6963600D01*
X6660104Y-6956494D01*
X6655923Y-6948607D01*
X6641692Y-6879055D01*
X6655836Y-6830751D01*
X6656033Y-6830376D01*
X6660045Y-6822781D01*
X6666086Y-6810975D01*
X6666361Y-6810420D01*
X6672370Y-6797868D01*
X6712001Y-6712120D01*
X6716104Y-6703011D01*
X6716276Y-6702619D01*
X6716281Y-6702604D01*
X6716285Y-6702596D01*
X6732632Y-6658003D01*
X6738213Y-6642780D01*
X6738696Y-6639507D01*
X6744417Y-6616273D01*
X6764162Y-6559850D01*
X6783299Y-6390000D01*
X6764162Y-6220150D01*
X6707709Y-6058817D01*
X6616771Y-5914091D01*
X6616769Y-5914089D01*
X6616768Y-5914087D01*
X6495912Y-5793231D01*
X6351182Y-5702290D01*
X6224967Y-5658126D01*
X6189850Y-5645838D01*
X6189848Y-5645837D01*
X6189850Y-5645837D01*
X6020000Y-5626701D01*
X5850151Y-5645837D01*
X5688817Y-5702290D01*
X5544087Y-5793231D01*
X5423231Y-5914087D01*
X5332290Y-6058817D01*
X5275837Y-6220151D01*
X5256701Y-6390000D01*
X245500Y-6390000D01*
X245500Y-2560999D01*
X572692Y-2560999D01*
X572693Y-2561000D01*
X1389349Y-2561000D01*
X1343390Y-2589457D01*
X1275799Y-2678962D01*
X1245105Y-2786840D01*
X1255454Y-2898521D01*
X1305448Y-2998922D01*
X1382318Y-3069000D01*
X572693Y-3069000D01*
X613223Y-3202610D01*
X613224Y-3202612D01*
X706824Y-3377724D01*
X832788Y-3531211D01*
X986275Y-3657175D01*
X1161385Y-3750774D01*
X1161400Y-3750780D01*
X1351393Y-3808414D01*
X1351405Y-3808416D01*
X1499473Y-3822999D01*
X1499491Y-3823000D01*
X1745000Y-3823000D01*
X1745000Y-3115000D01*
X2253000Y-3115000D01*
X2253000Y-3823000D01*
X2498509Y-3823000D01*
X2498526Y-3822999D01*
X2646594Y-3808416D01*
X2646606Y-3808414D01*
X2836599Y-3750780D01*
X2836614Y-3750774D01*
X3011724Y-3657175D01*
X3165211Y-3531211D01*
X3291175Y-3377724D01*
X3384775Y-3202612D01*
X3384776Y-3202610D01*
X3425307Y-3069000D01*
X2608651Y-3069000D01*
X2654610Y-3040543D01*
X2722201Y-2951038D01*
X2752895Y-2843160D01*
X2742546Y-2731479D01*
X2692552Y-2631078D01*
X2615682Y-2561000D01*
X3425307Y-2561000D01*
X3425307Y-2560999D01*
X3384776Y-2427389D01*
X3384775Y-2427387D01*
X3291175Y-2252275D01*
X3165211Y-2098788D01*
X3011724Y-1972824D01*
X2836614Y-1879225D01*
X2836599Y-1879219D01*
X2646606Y-1821585D01*
X2646594Y-1821583D01*
X2498526Y-1807000D01*
X2253000Y-1807000D01*
X2253000Y-2515000D01*
X1745000Y-2515000D01*
X1745000Y-1807000D01*
X1499473Y-1807000D01*
X1351405Y-1821583D01*
X1351393Y-1821585D01*
X1161400Y-1879219D01*
X1161385Y-1879225D01*
X986275Y-1972824D01*
X832788Y-2098788D01*
X706824Y-2252275D01*
X613224Y-2427387D01*
X613223Y-2427389D01*
X572692Y-2560999D01*
X245500Y-2560999D01*
X245500Y16461D01*
X245698Y23526D01*
X262392Y320786D01*
X263974Y334827D01*
X264415Y337423D01*
X313252Y624858D01*
X316391Y638608D01*
X362888Y800001D01*
X746751Y800001D01*
X753677Y725242D01*
X754071Y719615D01*
X757791Y641530D01*
X757792Y641524D01*
X761522Y626145D01*
X764534Y608078D01*
X765705Y595447D01*
X765706Y595439D01*
X787196Y519911D01*
X788454Y515136D01*
X807700Y435802D01*
X807705Y435787D01*
X812828Y424570D01*
X819403Y406715D01*
X821925Y397849D01*
X821927Y397845D01*
X843299Y354926D01*
X857483Y326440D01*
X858463Y324473D01*
X860284Y320656D01*
X861202Y318648D01*
X895644Y243229D01*
X895645Y243228D01*
X900787Y236007D01*
X910940Y219085D01*
X913495Y213953D01*
X913496Y213952D01*
X913497Y213950D01*
X965016Y145727D01*
X967039Y142969D01*
X1018441Y70785D01*
X1022340Y67067D01*
X1035938Y51811D01*
X1037299Y50009D01*
X1103032Y-9914D01*
X1105017Y-11764D01*
X1171654Y-75303D01*
X1173252Y-76330D01*
X1184437Y-84925D01*
X1184471Y-84882D01*
X1189125Y-88397D01*
X1267643Y-137013D01*
X1269389Y-138114D01*
X1336232Y-181071D01*
X1349751Y-189759D01*
X1355080Y-192506D01*
X1355040Y-192582D01*
X1358398Y-194277D01*
X1358566Y-193942D01*
X1363773Y-196534D01*
X1363782Y-196540D01*
X1437432Y-225071D01*
X1453129Y-231152D01*
X1454439Y-231668D01*
X1546279Y-268436D01*
X1546281Y-268436D01*
X1546283Y-268437D01*
X1548314Y-269034D01*
X1554434Y-270491D01*
X1555333Y-270746D01*
X1555345Y-270751D01*
X1652951Y-288996D01*
X1653586Y-289116D01*
X1754151Y-308500D01*
X1754154Y-308500D01*
X1962715Y-308500D01*
X1962718Y-308500D01*
X2009300Y-299791D01*
X2020443Y-298220D01*
X2070739Y-293419D01*
X2112552Y-281141D01*
X2124891Y-278183D01*
X2164655Y-270751D01*
X2212078Y-252378D01*
X2222059Y-248987D01*
X2273862Y-233777D01*
X2309514Y-215395D01*
X2321715Y-209905D01*
X2356218Y-196540D01*
X2402404Y-167941D01*
X2410977Y-163087D01*
X2462026Y-136771D01*
X2490835Y-114114D01*
X2502377Y-106040D01*
X2530882Y-88392D01*
X2573576Y-49471D01*
X2580561Y-43553D01*
X2628432Y-5908D01*
X2650168Y19178D01*
X2660489Y29762D01*
X2682701Y50009D01*
X2719602Y98876D01*
X2724922Y105448D01*
X2767065Y154082D01*
X2781922Y179818D01*
X2790485Y192741D01*
X2806503Y213950D01*
X2835347Y271879D01*
X2838993Y278669D01*
X2872913Y337418D01*
X2881492Y362207D01*
X2887772Y377160D01*
X2888083Y377785D01*
X2898074Y397848D01*
X2916731Y463424D01*
X2918841Y470119D01*
X2928282Y497397D01*
X2942153Y537473D01*
X2945393Y560014D01*
X2948917Y576546D01*
X2954294Y595441D01*
X2960904Y666780D01*
X2961644Y673039D01*
X2972281Y747016D01*
X2971362Y766293D01*
X2971756Y783900D01*
X2973249Y800000D01*
X2966319Y874774D01*
X2965928Y880349D01*
X2962208Y958474D01*
X2958478Y973847D01*
X2955464Y991924D01*
X2954294Y1004559D01*
X2932787Y1080145D01*
X2931557Y1084814D01*
X2912298Y1164204D01*
X2907168Y1175435D01*
X2900594Y1193293D01*
X2898074Y1202152D01*
X2861515Y1275569D01*
X2859706Y1279363D01*
X2824358Y1356768D01*
X2824356Y1356771D01*
X2819208Y1364000D01*
X2809061Y1380913D01*
X2806503Y1386050D01*
X2806500Y1386054D01*
X2806499Y1386056D01*
X2755027Y1454215D01*
X2752940Y1457061D01*
X2701565Y1529207D01*
X2701562Y1529212D01*
X2701559Y1529215D01*
X2697655Y1532938D01*
X2684062Y1548188D01*
X2682701Y1549991D01*
X2616973Y1609910D01*
X2614978Y1611769D01*
X2548346Y1675303D01*
X2546739Y1676336D01*
X2535561Y1684926D01*
X2535529Y1684882D01*
X2530888Y1688387D01*
X2530882Y1688392D01*
X2466087Y1728512D01*
X2452327Y1737032D01*
X2450538Y1738161D01*
X2404185Y1767950D01*
X2370254Y1789756D01*
X2370249Y1789758D01*
X2364916Y1792508D01*
X2364955Y1792585D01*
X2361601Y1794278D01*
X2361435Y1793943D01*
X2356216Y1796542D01*
X2266838Y1831167D01*
X2265526Y1831684D01*
X2173727Y1868435D01*
X2171692Y1869033D01*
X2165599Y1870483D01*
X2164658Y1870751D01*
X2067039Y1889000D01*
X2066348Y1889131D01*
X1965855Y1908499D01*
X1965853Y1908500D01*
X1965849Y1908500D01*
X1962718Y1908500D01*
X1757282Y1908500D01*
X1757281Y1908500D01*
X1710703Y1899794D01*
X1699531Y1898220D01*
X1649270Y1893421D01*
X1649262Y1893420D01*
X1649261Y1893419D01*
X1607437Y1881139D01*
X1595103Y1878184D01*
X1555348Y1870752D01*
X1555345Y1870752D01*
X1555345Y1870751D01*
X1534758Y1862776D01*
X1507947Y1852390D01*
X1497935Y1848988D01*
X1446141Y1833779D01*
X1410486Y1815398D01*
X1398272Y1809903D01*
X1363789Y1796544D01*
X1363783Y1796541D01*
X1317605Y1767950D01*
X1309018Y1763088D01*
X1257972Y1736771D01*
X1257971Y1736770D01*
X1229171Y1714122D01*
X1217621Y1706042D01*
X1189120Y1688394D01*
X1146430Y1649478D01*
X1139437Y1643555D01*
X1091567Y1605908D01*
X1069840Y1580835D01*
X1059509Y1570241D01*
X1037303Y1549997D01*
X1000407Y1501139D01*
X995084Y1494562D01*
X952934Y1445917D01*
X952931Y1445913D01*
X938076Y1420184D01*
X929511Y1407258D01*
X913499Y1386054D01*
X913498Y1386053D01*
X884664Y1328148D01*
X880995Y1321316D01*
X847087Y1262583D01*
X847085Y1262578D01*
X838504Y1237788D01*
X832229Y1222847D01*
X821926Y1202156D01*
X821924Y1202150D01*
X803269Y1136586D01*
X801151Y1129861D01*
X777846Y1062526D01*
X774606Y1039993D01*
X771081Y1023455D01*
X765705Y1004559D01*
X759099Y933269D01*
X758355Y926966D01*
X747718Y852982D01*
X748636Y833715D01*
X748242Y816103D01*
X746751Y800004D01*
X746751Y800001D01*
X362888Y800001D01*
X397837Y921313D01*
X402498Y934633D01*
X515080Y1206431D01*
X521209Y1219157D01*
X663512Y1476636D01*
X671018Y1488581D01*
X841264Y1728522D01*
X850067Y1739559D01*
X866148Y1757553D01*
X1046095Y1958915D01*
X1056086Y1968905D01*
X1105657Y2013204D01*
X1275442Y2164935D01*
X1286478Y2173736D01*
X1526419Y2343982D01*
X1538364Y2351488D01*
X1795847Y2493794D01*
X1808569Y2499920D01*
X2080367Y2612502D01*
X2093687Y2617163D01*
X2376392Y2698609D01*
X2390142Y2701748D01*
X2680182Y2751028D01*
X2694214Y2752609D01*
X2991474Y2769303D01*
X2998539Y2769500D01*
X3039170Y2769500D01*
X3339223Y2769500D01*
X3407344Y2749498D01*
G37*
%TD.AperFunction*%
%TA.AperFunction,Conductor*%
G36*
X52984000Y322000D02*
G01*
X53628585Y322000D01*
X53628597Y322001D01*
X53689093Y328506D01*
X53825964Y379556D01*
X53825966Y379557D01*
X53858490Y403904D01*
X53925010Y428716D01*
X53994384Y413625D01*
X54044587Y363424D01*
X54060000Y303037D01*
X54060000Y-14580522D01*
X54039998Y-14648643D01*
X53986342Y-14695136D01*
X53916068Y-14705240D01*
X53858491Y-14681390D01*
X53815965Y-14649556D01*
X53815964Y-14649555D01*
X53679093Y-14598505D01*
X53618597Y-14592000D01*
X52974000Y-14592000D01*
X52974000Y-15516325D01*
X52862315Y-15465320D01*
X52755763Y-15450000D01*
X52684237Y-15450000D01*
X52577685Y-15465320D01*
X52466000Y-15516325D01*
X52466000Y-14592000D01*
X51821402Y-14592000D01*
X51760906Y-14598505D01*
X51624035Y-14649555D01*
X51624034Y-14649555D01*
X51507095Y-14737095D01*
X51419555Y-14854034D01*
X51419553Y-14854039D01*
X51375380Y-14972470D01*
X51332833Y-15029306D01*
X51266313Y-15054116D01*
X51196939Y-15039024D01*
X51164626Y-15013777D01*
X51103240Y-14947094D01*
X51103239Y-14947093D01*
X51103237Y-14947091D01*
X50983684Y-14854039D01*
X50925576Y-14808811D01*
X50727574Y-14701658D01*
X50727568Y-14701656D01*
X50711990Y-14696307D01*
X50689824Y-14686206D01*
X50685576Y-14683749D01*
X50386249Y-14563614D01*
X50384657Y-14562962D01*
X50194823Y-14483746D01*
X50182765Y-14477944D01*
X50072437Y-14417434D01*
X50056064Y-14406722D01*
X49931223Y-14310411D01*
X49921481Y-14302069D01*
X49733406Y-14123668D01*
X49709400Y-14100897D01*
X49668356Y-14065474D01*
X49668377Y-14065449D01*
X49657649Y-14056389D01*
X46610355Y-11009095D01*
X46576329Y-10946783D01*
X46581394Y-10875968D01*
X46610352Y-10830907D01*
X46894388Y-10546870D01*
X46907129Y-10536665D01*
X46906969Y-10536471D01*
X46913075Y-10531418D01*
X46913080Y-10531416D01*
X46961638Y-10479705D01*
X46964298Y-10476960D01*
X46984927Y-10456333D01*
X46987642Y-10452831D01*
X46995346Y-10443809D01*
X47026972Y-10410133D01*
X47037310Y-10391327D01*
X47048152Y-10374823D01*
X47061304Y-10357868D01*
X47068175Y-10341989D01*
X47079653Y-10315466D01*
X47084877Y-10304803D01*
X47107123Y-10264339D01*
X47107124Y-10264337D01*
X47112457Y-10243562D01*
X47118856Y-10224869D01*
X47127380Y-10205176D01*
X47134609Y-10159521D01*
X47137009Y-10147936D01*
X47148500Y-10103188D01*
X47148500Y-10081741D01*
X47150051Y-10062030D01*
X47150614Y-10058474D01*
X47153406Y-10040848D01*
X47149059Y-9994859D01*
X47148500Y-9983002D01*
X47148500Y-7881476D01*
X47150807Y-7857475D01*
X47151283Y-7855020D01*
X47153431Y-7843952D01*
X47157471Y-7761304D01*
X47166705Y-7719746D01*
X47169456Y-7713023D01*
X47173404Y-7704335D01*
X47210844Y-7629598D01*
X47215092Y-7620915D01*
X47215284Y-7620513D01*
X47219457Y-7611556D01*
X47275903Y-7487278D01*
X47278944Y-7480450D01*
X47279089Y-7480118D01*
X47293063Y-7441833D01*
X47300837Y-7420534D01*
X47300837Y-7420533D01*
X47300837Y-7420532D01*
X47300838Y-7420530D01*
X47301389Y-7416759D01*
X47306229Y-7396066D01*
X47334365Y-7309475D01*
X47353229Y-7130000D01*
X47334365Y-6950525D01*
X47321630Y-6911330D01*
X47278601Y-6778897D01*
X47278598Y-6778891D01*
X47227413Y-6690237D01*
X47188367Y-6622607D01*
X47188365Y-6622605D01*
X47188361Y-6622599D01*
X47067615Y-6488497D01*
X46921615Y-6382422D01*
X46756752Y-6309020D01*
X46580233Y-6271500D01*
X46580232Y-6271500D01*
X46399768Y-6271500D01*
X46223248Y-6309020D01*
X46223247Y-6309020D01*
X46223244Y-6309021D01*
X46171629Y-6332001D01*
X46156483Y-6337612D01*
X46129404Y-6345709D01*
X46005301Y-6403128D01*
X45991641Y-6409695D01*
X45991036Y-6409997D01*
X45980029Y-6415658D01*
X45902972Y-6456487D01*
X45895441Y-6460162D01*
X45891751Y-6461813D01*
X45847325Y-6472604D01*
X45774373Y-6476682D01*
X45758699Y-6478183D01*
X45733837Y-6480566D01*
X45733834Y-6480566D01*
X45730085Y-6480926D01*
X45718068Y-6481500D01*
X45404500Y-6481500D01*
X45336379Y-6461498D01*
X45289886Y-6407842D01*
X45278500Y-6355500D01*
X45278500Y-6334193D01*
X45298502Y-6266072D01*
X45352158Y-6219579D01*
X45360193Y-6216240D01*
X45418929Y-6194195D01*
X45426509Y-6191281D01*
X45426847Y-6191148D01*
X45483705Y-6164657D01*
X45483705Y-6164656D01*
X45483707Y-6164656D01*
X45489226Y-6161363D01*
X45489374Y-6161611D01*
X45505997Y-6151882D01*
X45547460Y-6133423D01*
X45693458Y-6027349D01*
X45741571Y-5973914D01*
X45814206Y-5893245D01*
X45814207Y-5893243D01*
X45814212Y-5893238D01*
X45904444Y-5736952D01*
X45913705Y-5708451D01*
X45941990Y-5621396D01*
X45960210Y-5565320D01*
X45979074Y-5385845D01*
X45960210Y-5206370D01*
X45945327Y-5160565D01*
X45904446Y-5034742D01*
X45904443Y-5034736D01*
X45841849Y-4926320D01*
X45814212Y-4878452D01*
X45814210Y-4878450D01*
X45814206Y-4878444D01*
X45800948Y-4863720D01*
X45770230Y-4799713D01*
X45778995Y-4729259D01*
X45824458Y-4674728D01*
X45880476Y-4654202D01*
X45996786Y-4641098D01*
X46158119Y-4584645D01*
X46302845Y-4493707D01*
X46423707Y-4372845D01*
X46514645Y-4228119D01*
X46526481Y-4194290D01*
X46534547Y-4176031D01*
X46544029Y-4158479D01*
X46546198Y-4152584D01*
X46576616Y-4069883D01*
X46576619Y-4069871D01*
X46576639Y-4069820D01*
X46581271Y-4056681D01*
X46581469Y-4056094D01*
X46585539Y-4043491D01*
X46592963Y-4019447D01*
X46619462Y-3972602D01*
X46626473Y-3964768D01*
X46652432Y-3933334D01*
X46652431Y-3933334D01*
X46655003Y-3930221D01*
X46663051Y-3921368D01*
X50264701Y-319718D01*
X50274910Y-310565D01*
X50300364Y-290138D01*
X50386053Y-198464D01*
X50388949Y-195470D01*
X50586235Y1816D01*
X50598620Y12677D01*
X50623987Y32141D01*
X50642162Y55828D01*
X50642170Y55836D01*
X50680238Y105448D01*
X50717867Y154489D01*
X50725627Y163660D01*
X50728102Y166317D01*
X50731623Y172416D01*
X50734826Y176592D01*
X50734583Y177991D01*
X50743368Y211992D01*
X50752725Y234580D01*
X50767262Y260510D01*
X50821772Y335385D01*
X50825015Y339644D01*
X50948754Y495130D01*
X50955292Y502705D01*
X51158428Y720020D01*
X51158434Y720026D01*
X51158437Y720031D01*
X51158457Y720051D01*
X51172796Y736841D01*
X51232242Y775647D01*
X51303237Y776155D01*
X51363236Y738200D01*
X51386661Y699041D01*
X51429556Y584034D01*
X51517095Y467096D01*
X51634034Y379556D01*
X51770906Y328506D01*
X51831402Y322001D01*
X51831415Y322000D01*
X52476000Y322000D01*
X52476000Y1246326D01*
X52587685Y1195320D01*
X52694237Y1180000D01*
X52765763Y1180000D01*
X52872315Y1195320D01*
X52984000Y1246326D01*
X52984000Y322000D01*
G37*
%TD.AperFunction*%
%TA.AperFunction,Conductor*%
G36*
X21669742Y-6847104D02*
G01*
X21714805Y-6876065D01*
X22494595Y-7655855D01*
X22528621Y-7718167D01*
X22531500Y-7744950D01*
X22531500Y-7795493D01*
X22534393Y-7832251D01*
X22534393Y-7832252D01*
X22556147Y-7907128D01*
X22580106Y-7989597D01*
X22630068Y-8074079D01*
X22663513Y-8130630D01*
X22663516Y-8130634D01*
X22779365Y-8246483D01*
X22779369Y-8246486D01*
X22779371Y-8246488D01*
X22920403Y-8329894D01*
X23077746Y-8375606D01*
X23114506Y-8378499D01*
X23114507Y-8378500D01*
X23114516Y-8378500D01*
X23165050Y-8378500D01*
X23233171Y-8398502D01*
X23254145Y-8415405D01*
X24280455Y-9441715D01*
X24314481Y-9504027D01*
X24315670Y-9551379D01*
X24313536Y-9564276D01*
X24308156Y-9585320D01*
X24287068Y-9645587D01*
X24287068Y-9645590D01*
X24287067Y-9645594D01*
X24271500Y-9783752D01*
X24271500Y-11496248D01*
X24287067Y-11634406D01*
X24287067Y-11634408D01*
X24287068Y-11634409D01*
X24348357Y-11809564D01*
X24348358Y-11809567D01*
X24447086Y-11966691D01*
X24447087Y-11966693D01*
X24578306Y-12097912D01*
X24578308Y-12097913D01*
X24735432Y-12196641D01*
X24735433Y-12196641D01*
X24735436Y-12196643D01*
X24910594Y-12257933D01*
X25095000Y-12278711D01*
X25279406Y-12257933D01*
X25454564Y-12196643D01*
X25611693Y-12097912D01*
X25640905Y-12068699D01*
X25703215Y-12034675D01*
X25774031Y-12039739D01*
X25819094Y-12068699D01*
X25848307Y-12097912D01*
X25848309Y-12097913D01*
X25848310Y-12097914D01*
X26005432Y-12196641D01*
X26005433Y-12196641D01*
X26005436Y-12196643D01*
X26180594Y-12257933D01*
X26279611Y-12269089D01*
X26345060Y-12296591D01*
X26385253Y-12355115D01*
X26391500Y-12394296D01*
X26391500Y-12961863D01*
X26390422Y-12978309D01*
X26386250Y-13009999D01*
X26386250Y-13010002D01*
X26390961Y-13045789D01*
X26390962Y-13045796D01*
X26401458Y-13125523D01*
X26407161Y-13168849D01*
X26468475Y-13316874D01*
X26468480Y-13316882D01*
X26541524Y-13412074D01*
X26541525Y-13412074D01*
X26560147Y-13436343D01*
X26566014Y-13443988D01*
X26591378Y-13463451D01*
X26603769Y-13474318D01*
X27505856Y-14376405D01*
X27539882Y-14438717D01*
X27534817Y-14509532D01*
X27492270Y-14566368D01*
X27425750Y-14591179D01*
X27416761Y-14591500D01*
X27207431Y-14591500D01*
X27087673Y-14611484D01*
X26985369Y-14628555D01*
X26985360Y-14628557D01*
X26772428Y-14701656D01*
X26772426Y-14701658D01*
X26586903Y-14802058D01*
X26574426Y-14808810D01*
X26574424Y-14808811D01*
X26396762Y-14947091D01*
X26244279Y-15112729D01*
X26155483Y-15248643D01*
X26101479Y-15294731D01*
X26031131Y-15304306D01*
X25966774Y-15274329D01*
X25944517Y-15248643D01*
X25875135Y-15142446D01*
X25855722Y-15112732D01*
X25855721Y-15112731D01*
X25855720Y-15112729D01*
X25714690Y-14959532D01*
X25703240Y-14947094D01*
X25703239Y-14947093D01*
X25703237Y-14947091D01*
X25583684Y-14854039D01*
X25525576Y-14808811D01*
X25327574Y-14701658D01*
X25327572Y-14701657D01*
X25327571Y-14701656D01*
X25114639Y-14628557D01*
X25114630Y-14628555D01*
X25038731Y-14615890D01*
X24892569Y-14591500D01*
X24667431Y-14591500D01*
X24547673Y-14611484D01*
X24445369Y-14628555D01*
X24445360Y-14628557D01*
X24232428Y-14701656D01*
X24232426Y-14701658D01*
X24046903Y-14802058D01*
X24034426Y-14808810D01*
X24034424Y-14808811D01*
X23856762Y-14947091D01*
X23704279Y-15112729D01*
X23615483Y-15248643D01*
X23561479Y-15294731D01*
X23491131Y-15304306D01*
X23426774Y-15274329D01*
X23404517Y-15248643D01*
X23335135Y-15142446D01*
X23315722Y-15112732D01*
X23315721Y-15112731D01*
X23315720Y-15112729D01*
X23174690Y-14959532D01*
X23163240Y-14947094D01*
X23163239Y-14947093D01*
X23163237Y-14947091D01*
X23043684Y-14854039D01*
X22985576Y-14808811D01*
X22787574Y-14701658D01*
X22787572Y-14701657D01*
X22787571Y-14701656D01*
X22574639Y-14628557D01*
X22574630Y-14628555D01*
X22498731Y-14615890D01*
X22352569Y-14591500D01*
X22127431Y-14591500D01*
X22007673Y-14611484D01*
X21905369Y-14628555D01*
X21905360Y-14628557D01*
X21692428Y-14701656D01*
X21692426Y-14701658D01*
X21506903Y-14802058D01*
X21494426Y-14808810D01*
X21494424Y-14808811D01*
X21316762Y-14947091D01*
X21164279Y-15112729D01*
X21075483Y-15248643D01*
X21021479Y-15294731D01*
X20951131Y-15304306D01*
X20886774Y-15274329D01*
X20864517Y-15248643D01*
X20835715Y-15204559D01*
X20775722Y-15112732D01*
X20644031Y-14969679D01*
X20640321Y-14965464D01*
X20633671Y-14957561D01*
X20633329Y-14957209D01*
X20625032Y-14949040D01*
X20623245Y-14947099D01*
X20623242Y-14947096D01*
X20623240Y-14947094D01*
X20623142Y-14947018D01*
X20616377Y-14941752D01*
X20609895Y-14936348D01*
X20345793Y-14700712D01*
X20319485Y-14678770D01*
X20318250Y-14677808D01*
X20290340Y-14657537D01*
X20171467Y-14577153D01*
X20055024Y-14498412D01*
X20049154Y-14494595D01*
X20039583Y-14488369D01*
X20038876Y-14487927D01*
X20031917Y-14483746D01*
X20023259Y-14478544D01*
X19827527Y-14365624D01*
X19819911Y-14360860D01*
X19638044Y-14237880D01*
X19624740Y-14227523D01*
X19580664Y-14188198D01*
X19367275Y-13997811D01*
X19336131Y-13972149D01*
X19336129Y-13972148D01*
X19333418Y-13969914D01*
X19324448Y-13961767D01*
X18891908Y-13529227D01*
X18879936Y-13515375D01*
X18877898Y-13512637D01*
X18865469Y-13495942D01*
X18860154Y-13491482D01*
X18827129Y-13463770D01*
X18819027Y-13456345D01*
X18815106Y-13452424D01*
X18790528Y-13432989D01*
X18787691Y-13430678D01*
X18748423Y-13397729D01*
X18729640Y-13381968D01*
X18729639Y-13381967D01*
X18729635Y-13381964D01*
X18723506Y-13377933D01*
X18723541Y-13377878D01*
X18717187Y-13373829D01*
X18717153Y-13373886D01*
X18710906Y-13370033D01*
X18642205Y-13337996D01*
X18638909Y-13336401D01*
X18634546Y-13334210D01*
X18571188Y-13302391D01*
X18571186Y-13302390D01*
X18571183Y-13302389D01*
X18564289Y-13299880D01*
X18564311Y-13299817D01*
X18557189Y-13297341D01*
X18557169Y-13297404D01*
X18550211Y-13295098D01*
X18475942Y-13279762D01*
X18472367Y-13278969D01*
X18398656Y-13261500D01*
X18391367Y-13260648D01*
X18391374Y-13260580D01*
X18383877Y-13259814D01*
X18383872Y-13259881D01*
X18376559Y-13259241D01*
X18376558Y-13259241D01*
X18344630Y-13260170D01*
X18300741Y-13261447D01*
X18297077Y-13261500D01*
X16524441Y-13261500D01*
X16506181Y-13260170D01*
X16482212Y-13256659D01*
X16482211Y-13256659D01*
X16436617Y-13260648D01*
X16432354Y-13261021D01*
X16421373Y-13261500D01*
X16415814Y-13261500D01*
X16384709Y-13265135D01*
X16381067Y-13265507D01*
X16305577Y-13272112D01*
X16298386Y-13273597D01*
X16298372Y-13273532D01*
X16291014Y-13275163D01*
X16291030Y-13275228D01*
X16283891Y-13276920D01*
X16283888Y-13276920D01*
X16283887Y-13276921D01*
X16264404Y-13284012D01*
X16212654Y-13302846D01*
X16209198Y-13304047D01*
X16137259Y-13327886D01*
X16130613Y-13330986D01*
X16130585Y-13330926D01*
X16123801Y-13334210D01*
X16123831Y-13334269D01*
X16117268Y-13337565D01*
X16053931Y-13379221D01*
X16050842Y-13381189D01*
X16026705Y-13396077D01*
X15958226Y-13414814D01*
X15890487Y-13393555D01*
X15849437Y-13348233D01*
X15764369Y-13189083D01*
X15632094Y-13027906D01*
X15470917Y-12895631D01*
X15385829Y-12850150D01*
X15287032Y-12797341D01*
X15265475Y-12790802D01*
X15245359Y-12782753D01*
X15242055Y-12781088D01*
X15242050Y-12781086D01*
X15025250Y-12708296D01*
X14996548Y-12699584D01*
X14995235Y-12699227D01*
X14979504Y-12695433D01*
X14966473Y-12692290D01*
X14950001Y-12688816D01*
X14801504Y-12657497D01*
X14797842Y-12656667D01*
X14727795Y-12639699D01*
X14701575Y-12630169D01*
X14697220Y-12628015D01*
X14685153Y-12622043D01*
X14659702Y-12605345D01*
X14606918Y-12560730D01*
X14567804Y-12501480D01*
X14566932Y-12430488D01*
X14604580Y-12370296D01*
X14668794Y-12340012D01*
X14688255Y-12338500D01*
X16441863Y-12338500D01*
X16458308Y-12339577D01*
X16490000Y-12343750D01*
X16529880Y-12338500D01*
X16529885Y-12338500D01*
X16618822Y-12326790D01*
X16629457Y-12325391D01*
X16629457Y-12325392D01*
X16629461Y-12325390D01*
X16648851Y-12322838D01*
X16796876Y-12261524D01*
X16892072Y-12188477D01*
X16892072Y-12188476D01*
X16900291Y-12182170D01*
X16900300Y-12182162D01*
X16923987Y-12163987D01*
X16943457Y-12138611D01*
X16954309Y-12126238D01*
X17418585Y-11661962D01*
X17437868Y-11646166D01*
X17447832Y-11639537D01*
X17455666Y-11632526D01*
X17502514Y-11606027D01*
X17526555Y-11598603D01*
X17539158Y-11594533D01*
X17539745Y-11594335D01*
X17552884Y-11589703D01*
X17641543Y-11557093D01*
X17650629Y-11553653D01*
X17651027Y-11553498D01*
X17687326Y-11536685D01*
X17698660Y-11532090D01*
X17711183Y-11527709D01*
X17855909Y-11436771D01*
X17976771Y-11315909D01*
X18067709Y-11171183D01*
X18124162Y-11009850D01*
X18143299Y-10840000D01*
X18124162Y-10670150D01*
X18067709Y-10508817D01*
X17976771Y-10364091D01*
X17976769Y-10364089D01*
X17976768Y-10364087D01*
X17966195Y-10353514D01*
X17932169Y-10291202D01*
X17937234Y-10220387D01*
X17979781Y-10163551D01*
X18007064Y-10148014D01*
X18046876Y-10131524D01*
X18142072Y-10058477D01*
X18142072Y-10058476D01*
X18150291Y-10052170D01*
X18150300Y-10052162D01*
X18173987Y-10033987D01*
X18193457Y-10008611D01*
X18204309Y-9996238D01*
X21018583Y-7181963D01*
X21037873Y-7166163D01*
X21047832Y-7159537D01*
X21055666Y-7152526D01*
X21102514Y-7126027D01*
X21126555Y-7118603D01*
X21139158Y-7114533D01*
X21139745Y-7114335D01*
X21152884Y-7109703D01*
X21241543Y-7077093D01*
X21250629Y-7073653D01*
X21251027Y-7073498D01*
X21251587Y-7073239D01*
X21260432Y-7069141D01*
X21287326Y-7056685D01*
X21298660Y-7052090D01*
X21311183Y-7047709D01*
X21455909Y-6956771D01*
X21536616Y-6876063D01*
X21598926Y-6842040D01*
X21669742Y-6847104D01*
G37*
%TD.AperFunction*%
%TA.AperFunction,Conductor*%
G36*
X35309154Y-5924559D02*
G01*
X35316713Y-5931526D01*
X36043190Y-6658003D01*
X36077216Y-6720315D01*
X36072151Y-6791130D01*
X36047732Y-6831407D01*
X36001638Y-6882599D01*
X36001631Y-6882609D01*
X35911401Y-7038891D01*
X35911398Y-7038897D01*
X35855636Y-7210519D01*
X35855635Y-7210523D01*
X35855635Y-7210525D01*
X35836771Y-7390000D01*
X35854623Y-7559850D01*
X35855636Y-7569480D01*
X35911398Y-7741102D01*
X35911401Y-7741108D01*
X36001631Y-7897390D01*
X36001638Y-7897400D01*
X36122384Y-8031502D01*
X36144116Y-8047291D01*
X36268385Y-8137578D01*
X36308814Y-8155578D01*
X36360863Y-8178752D01*
X36369677Y-8183096D01*
X36399385Y-8199206D01*
X36509623Y-8239958D01*
X36527582Y-8246597D01*
X36539178Y-8250726D01*
X36539762Y-8250926D01*
X36552026Y-8254955D01*
X36552036Y-8254958D01*
X36634167Y-8280799D01*
X36642364Y-8283694D01*
X36647058Y-8285537D01*
X36685161Y-8309054D01*
X36741617Y-8359740D01*
X36776937Y-8388981D01*
X36785681Y-8396941D01*
X39703125Y-11314385D01*
X39713338Y-11327131D01*
X39713531Y-11326972D01*
X39718583Y-11333079D01*
X39770257Y-11381604D01*
X39773099Y-11384359D01*
X39793667Y-11404927D01*
X39796958Y-11407480D01*
X39797171Y-11407645D01*
X39806198Y-11415355D01*
X39839867Y-11446972D01*
X39858669Y-11457308D01*
X39875175Y-11468151D01*
X39892132Y-11481304D01*
X39934542Y-11499656D01*
X39945182Y-11504870D01*
X39985659Y-11527122D01*
X39985663Y-11527124D01*
X40006432Y-11532456D01*
X40025134Y-11538859D01*
X40044824Y-11547380D01*
X40090448Y-11554605D01*
X40102071Y-11557012D01*
X40146812Y-11568500D01*
X40168259Y-11568500D01*
X40187967Y-11570050D01*
X40209152Y-11573406D01*
X40255140Y-11569058D01*
X40266996Y-11568500D01*
X44696812Y-11568500D01*
X45255050Y-11568500D01*
X45323171Y-11588502D01*
X45344145Y-11605405D01*
X48187459Y-14448719D01*
X48221485Y-14511031D01*
X48216420Y-14581846D01*
X48173873Y-14638682D01*
X48107353Y-14663493D01*
X48057452Y-14656987D01*
X47974639Y-14628557D01*
X47974630Y-14628555D01*
X47898731Y-14615890D01*
X47752569Y-14591500D01*
X47527431Y-14591500D01*
X47407673Y-14611484D01*
X47305369Y-14628555D01*
X47305360Y-14628557D01*
X47092428Y-14701656D01*
X47092426Y-14701658D01*
X46906903Y-14802058D01*
X46894426Y-14808810D01*
X46894424Y-14808811D01*
X46716762Y-14947091D01*
X46564279Y-15112729D01*
X46475483Y-15248643D01*
X46421479Y-15294731D01*
X46351131Y-15304306D01*
X46286774Y-15274329D01*
X46264517Y-15248643D01*
X46195135Y-15142446D01*
X46175722Y-15112732D01*
X46175721Y-15112731D01*
X46175720Y-15112729D01*
X46034690Y-14959532D01*
X46023240Y-14947094D01*
X46023239Y-14947093D01*
X46023237Y-14947091D01*
X45903684Y-14854039D01*
X45845576Y-14808811D01*
X45647574Y-14701658D01*
X45647572Y-14701657D01*
X45647571Y-14701656D01*
X45434639Y-14628557D01*
X45434630Y-14628555D01*
X45358731Y-14615890D01*
X45212569Y-14591500D01*
X44987431Y-14591500D01*
X44867673Y-14611484D01*
X44765369Y-14628555D01*
X44765360Y-14628557D01*
X44552428Y-14701656D01*
X44552426Y-14701658D01*
X44366903Y-14802058D01*
X44354426Y-14808810D01*
X44354424Y-14808811D01*
X44176762Y-14947091D01*
X44024279Y-15112729D01*
X43935483Y-15248643D01*
X43881479Y-15294731D01*
X43811131Y-15304306D01*
X43746774Y-15274329D01*
X43724517Y-15248643D01*
X43655135Y-15142446D01*
X43635722Y-15112732D01*
X43635721Y-15112731D01*
X43635720Y-15112729D01*
X43494690Y-14959532D01*
X43483240Y-14947094D01*
X43483239Y-14947093D01*
X43483237Y-14947091D01*
X43363684Y-14854039D01*
X43305576Y-14808811D01*
X43107574Y-14701658D01*
X43107572Y-14701657D01*
X43107571Y-14701656D01*
X42894639Y-14628557D01*
X42894630Y-14628555D01*
X42818731Y-14615890D01*
X42672569Y-14591500D01*
X42447431Y-14591500D01*
X42327673Y-14611484D01*
X42225369Y-14628555D01*
X42225360Y-14628557D01*
X42012428Y-14701656D01*
X42012426Y-14701658D01*
X41826903Y-14802058D01*
X41814426Y-14808810D01*
X41814424Y-14808811D01*
X41636762Y-14947091D01*
X41484279Y-15112729D01*
X41395483Y-15248643D01*
X41341479Y-15294731D01*
X41271131Y-15304306D01*
X41206774Y-15274329D01*
X41184517Y-15248643D01*
X41115135Y-15142446D01*
X41095722Y-15112732D01*
X41095721Y-15112731D01*
X41095720Y-15112729D01*
X40954690Y-14959532D01*
X40943240Y-14947094D01*
X40943239Y-14947093D01*
X40943237Y-14947091D01*
X40823684Y-14854039D01*
X40765576Y-14808811D01*
X40567574Y-14701658D01*
X40567572Y-14701657D01*
X40567571Y-14701656D01*
X40354639Y-14628557D01*
X40354630Y-14628555D01*
X40278731Y-14615890D01*
X40132569Y-14591500D01*
X39907431Y-14591500D01*
X39787673Y-14611484D01*
X39685369Y-14628555D01*
X39685360Y-14628557D01*
X39472428Y-14701656D01*
X39472426Y-14701658D01*
X39286903Y-14802058D01*
X39274426Y-14808810D01*
X39274424Y-14808811D01*
X39096762Y-14947091D01*
X38944279Y-15112729D01*
X38855483Y-15248643D01*
X38801479Y-15294731D01*
X38731131Y-15304306D01*
X38666774Y-15274329D01*
X38644517Y-15248643D01*
X38575135Y-15142446D01*
X38555722Y-15112732D01*
X38555721Y-15112731D01*
X38555720Y-15112729D01*
X38414690Y-14959532D01*
X38403240Y-14947094D01*
X38403239Y-14947093D01*
X38403237Y-14947091D01*
X38283684Y-14854039D01*
X38225576Y-14808811D01*
X38027574Y-14701658D01*
X37929294Y-14667918D01*
X37922228Y-14665252D01*
X37918182Y-14663585D01*
X37918163Y-14663579D01*
X37917470Y-14663404D01*
X37907506Y-14660438D01*
X37814632Y-14628555D01*
X37814620Y-14628552D01*
X37717451Y-14612338D01*
X37707277Y-14610205D01*
X37686010Y-14604823D01*
X37543240Y-14568687D01*
X37543222Y-14568683D01*
X37474181Y-14556153D01*
X37471805Y-14555888D01*
X37471015Y-14555800D01*
X37471013Y-14555799D01*
X37471004Y-14555799D01*
X37400704Y-14552806D01*
X37400674Y-14552805D01*
X37090245Y-14560886D01*
X37075098Y-14561504D01*
X37074400Y-14561543D01*
X37071748Y-14561729D01*
X37059660Y-14562576D01*
X36997351Y-14567844D01*
X36877014Y-14578020D01*
X36841874Y-14576058D01*
X36796735Y-14567101D01*
X36747313Y-14545530D01*
X36569210Y-14416436D01*
X36554061Y-14403512D01*
X31718908Y-9568359D01*
X31684882Y-9506047D01*
X31689947Y-9435232D01*
X31732494Y-9378396D01*
X31740967Y-9372577D01*
X31742697Y-9371490D01*
X31805909Y-9331771D01*
X31926771Y-9210909D01*
X32017709Y-9066183D01*
X32032018Y-9025286D01*
X32039067Y-9008947D01*
X32049942Y-8987962D01*
X32081151Y-8898388D01*
X32088467Y-8875710D01*
X32088771Y-8874687D01*
X32094830Y-8852488D01*
X32100468Y-8829840D01*
X32124566Y-8781294D01*
X32142189Y-8759391D01*
X32151249Y-8749298D01*
X34535015Y-6365532D01*
X34553341Y-6350380D01*
X34565326Y-6342246D01*
X34580647Y-6328280D01*
X34624749Y-6302181D01*
X34648033Y-6294217D01*
X34655671Y-6291537D01*
X34656024Y-6291410D01*
X34663896Y-6288504D01*
X34751132Y-6255499D01*
X34757634Y-6252989D01*
X34757931Y-6252872D01*
X34793621Y-6236257D01*
X34805171Y-6231561D01*
X34816183Y-6227709D01*
X34960909Y-6136771D01*
X35081771Y-6015909D01*
X35120933Y-5953583D01*
X35174108Y-5906548D01*
X35244276Y-5895727D01*
X35309154Y-5924559D01*
G37*
%TD.AperFunction*%
%TA.AperFunction,Conductor*%
G36*
X7964640Y-11533609D02*
G01*
X7980431Y-11554140D01*
X7989289Y-11568500D01*
X8010969Y-11603650D01*
X8015522Y-11609408D01*
X8015468Y-11609450D01*
X8020228Y-11615292D01*
X8020279Y-11615250D01*
X8024997Y-11620872D01*
X8024998Y-11620873D01*
X8024999Y-11620874D01*
X8051802Y-11646161D01*
X8080155Y-11672911D01*
X8082784Y-11675465D01*
X11233724Y-14826405D01*
X11267750Y-14888717D01*
X11262685Y-14959532D01*
X11220138Y-15016368D01*
X11153618Y-15041179D01*
X11144629Y-15041500D01*
X8604950Y-15041500D01*
X8536829Y-15021498D01*
X8515855Y-15004595D01*
X7795405Y-14284145D01*
X7761379Y-14221833D01*
X7758500Y-14195050D01*
X7758500Y-13555519D01*
X7759934Y-13536562D01*
X7761050Y-13529227D01*
X7763578Y-13512618D01*
X7764174Y-13440013D01*
X7764452Y-13432652D01*
X7764627Y-13430040D01*
X7771113Y-13397738D01*
X7772345Y-13394132D01*
X7774792Y-13387581D01*
X7802422Y-13319505D01*
X7819561Y-13270228D01*
X7820230Y-13265511D01*
X7826047Y-13241615D01*
X7844162Y-13189850D01*
X7863299Y-13020000D01*
X7844162Y-12850150D01*
X7787709Y-12688817D01*
X7696771Y-12544091D01*
X7696769Y-12544089D01*
X7696768Y-12544087D01*
X7575912Y-12423231D01*
X7492910Y-12371077D01*
X7445873Y-12317898D01*
X7435053Y-12247730D01*
X7462548Y-12184456D01*
X7591175Y-12027724D01*
X7684774Y-11852614D01*
X7684780Y-11852599D01*
X7742414Y-11662606D01*
X7742416Y-11662594D01*
X7747799Y-11607939D01*
X7774381Y-11542107D01*
X7832334Y-11501096D01*
X7903260Y-11497928D01*
X7964640Y-11533609D01*
G37*
%TD.AperFunction*%
%TA.AperFunction,Conductor*%
G36*
X29857685Y-11656510D02*
G01*
X29888664Y-11679212D01*
X32537856Y-14328404D01*
X32571882Y-14390716D01*
X32566817Y-14461531D01*
X32524270Y-14518367D01*
X32457750Y-14543178D01*
X32430677Y-14542194D01*
X32158063Y-14502658D01*
X32157520Y-14502579D01*
X31994513Y-14478213D01*
X31965309Y-14470165D01*
X31882392Y-14436142D01*
X31850823Y-14417409D01*
X31787016Y-14365624D01*
X31648342Y-14253078D01*
X31634713Y-14242630D01*
X31622280Y-14231731D01*
X29834315Y-12443766D01*
X29823447Y-12431374D01*
X29803987Y-12406013D01*
X29772074Y-12381525D01*
X29772074Y-12381524D01*
X29676882Y-12308480D01*
X29676879Y-12308478D01*
X29676876Y-12308476D01*
X29528851Y-12247162D01*
X29528850Y-12247161D01*
X29521760Y-12244225D01*
X29466480Y-12199676D01*
X29444059Y-12132313D01*
X29461617Y-12063522D01*
X29480880Y-12038724D01*
X29552912Y-11966693D01*
X29651643Y-11809564D01*
X29680642Y-11726688D01*
X29722017Y-11669001D01*
X29788017Y-11642838D01*
X29857685Y-11656510D01*
G37*
%TD.AperFunction*%
%TA.AperFunction,Conductor*%
G36*
X29865709Y-9450884D02*
G01*
X29908373Y-9478922D01*
X34703043Y-14273592D01*
X34737069Y-14335904D01*
X34732004Y-14406719D01*
X34689457Y-14463555D01*
X34622937Y-14488366D01*
X34595320Y-14487302D01*
X34534512Y-14478212D01*
X34505309Y-14470165D01*
X34422392Y-14436142D01*
X34390823Y-14417408D01*
X34188377Y-14253107D01*
X34184336Y-14250009D01*
X34174711Y-14242629D01*
X34162280Y-14231731D01*
X30174315Y-10243766D01*
X30163447Y-10231374D01*
X30155016Y-10220387D01*
X30143987Y-10206013D01*
X30112074Y-10181525D01*
X30112074Y-10181524D01*
X30016882Y-10108480D01*
X30016874Y-10108475D01*
X29868849Y-10047161D01*
X29840677Y-10043453D01*
X29839818Y-10043339D01*
X29838022Y-10043103D01*
X29773102Y-10014364D01*
X29734026Y-9955089D01*
X29728500Y-9918185D01*
X29728500Y-9783751D01*
X29726933Y-9769848D01*
X29712933Y-9645594D01*
X29700348Y-9609630D01*
X29696729Y-9538729D01*
X29732018Y-9477123D01*
X29795011Y-9444376D01*
X29865709Y-9450884D01*
G37*
%TD.AperFunction*%
%TA.AperFunction,Conductor*%
G36*
X9577012Y-6978015D02*
G01*
X9583595Y-6984144D01*
X10024595Y-7425144D01*
X10058621Y-7487456D01*
X10061500Y-7514239D01*
X10061500Y-9006057D01*
X10059033Y-9030868D01*
X10056676Y-9042601D01*
X10056674Y-9042617D01*
X10056092Y-9053108D01*
X10041705Y-9104961D01*
X10029919Y-9127278D01*
X10023476Y-9139900D01*
X10023202Y-9140455D01*
X10017632Y-9152116D01*
X9977963Y-9237951D01*
X9973843Y-9247102D01*
X9973702Y-9247423D01*
X9973682Y-9247472D01*
X9951787Y-9307210D01*
X9951784Y-9307225D01*
X9951298Y-9310518D01*
X9945579Y-9333731D01*
X9925837Y-9390149D01*
X9906701Y-9560000D01*
X9925837Y-9729848D01*
X9982290Y-9891182D01*
X10073231Y-10035912D01*
X10194087Y-10156768D01*
X10194089Y-10156769D01*
X10194091Y-10156771D01*
X10338817Y-10247709D01*
X10500150Y-10304162D01*
X10500149Y-10304162D01*
X10528026Y-10307302D01*
X10646645Y-10320667D01*
X10712097Y-10348170D01*
X10752290Y-10406694D01*
X10753535Y-10410726D01*
X10760420Y-10434427D01*
X10764428Y-10453780D01*
X10767117Y-10475060D01*
X10767117Y-10475061D01*
X10784124Y-10518018D01*
X10787967Y-10529244D01*
X10800853Y-10573597D01*
X10800853Y-10573598D01*
X10811771Y-10592058D01*
X10820468Y-10609811D01*
X10828364Y-10629755D01*
X10828368Y-10629761D01*
X10855514Y-10667123D01*
X10862033Y-10677047D01*
X10885545Y-10716804D01*
X10885547Y-10716807D01*
X10900714Y-10731974D01*
X10913552Y-10747005D01*
X10926158Y-10764356D01*
X10961751Y-10793801D01*
X10970531Y-10801791D01*
X13591063Y-13422323D01*
X13608792Y-13444601D01*
X13610878Y-13447936D01*
X13610892Y-13447956D01*
X13705347Y-13559705D01*
X13722045Y-13585157D01*
X13730171Y-13601577D01*
X13739698Y-13627793D01*
X13756667Y-13697841D01*
X13757497Y-13701504D01*
X13792663Y-13868241D01*
X13792052Y-13868369D01*
X13788688Y-13936885D01*
X13747421Y-13994656D01*
X13681472Y-14020947D01*
X13669678Y-14021500D01*
X12626371Y-14021500D01*
X12558250Y-14001498D01*
X12537276Y-13984595D01*
X9405405Y-10852724D01*
X9371379Y-10790412D01*
X9368500Y-10763629D01*
X9368500Y-10161741D01*
X9388502Y-10093620D01*
X9397102Y-10081806D01*
X9401939Y-10075912D01*
X9410820Y-10065091D01*
X9499823Y-9898577D01*
X9554632Y-9717899D01*
X9556511Y-9698818D01*
X9573138Y-9530003D01*
X9573138Y-9529996D01*
X9554633Y-9342108D01*
X9554632Y-9342105D01*
X9554632Y-9342101D01*
X9499823Y-9161423D01*
X9410820Y-8994909D01*
X9397100Y-8978191D01*
X9369347Y-8912844D01*
X9368500Y-8898258D01*
X9368500Y-7073239D01*
X9388502Y-7005118D01*
X9442158Y-6958625D01*
X9512432Y-6948521D01*
X9577012Y-6978015D01*
G37*
%TD.AperFunction*%
%TA.AperFunction,Conductor*%
G36*
X14259658Y-9508502D02*
G01*
X14306151Y-9562158D01*
X14316745Y-9600393D01*
X14335837Y-9769848D01*
X14392290Y-9931182D01*
X14483231Y-10075912D01*
X14604087Y-10196768D01*
X14604089Y-10196769D01*
X14604091Y-10196771D01*
X14748817Y-10287709D01*
X14910150Y-10344162D01*
X14910149Y-10344162D01*
X14927348Y-10346099D01*
X15080000Y-10363299D01*
X15249850Y-10344162D01*
X15377549Y-10299477D01*
X15383080Y-10297684D01*
X15402120Y-10292001D01*
X15487868Y-10252370D01*
X15500420Y-10246361D01*
X15500975Y-10246086D01*
X15512780Y-10240046D01*
X15535031Y-10228294D01*
X15586894Y-10213906D01*
X15597385Y-10213325D01*
X15637971Y-10209453D01*
X15637974Y-10209452D01*
X15641990Y-10209069D01*
X15653956Y-10208500D01*
X16653013Y-10208500D01*
X16721134Y-10228502D01*
X16767627Y-10282158D01*
X16777731Y-10352432D01*
X16759700Y-10401536D01*
X16692291Y-10508815D01*
X16680462Y-10542618D01*
X16672396Y-10560878D01*
X16662912Y-10578435D01*
X16630290Y-10667123D01*
X16625773Y-10679926D01*
X16625574Y-10680513D01*
X16621394Y-10693443D01*
X16613967Y-10717490D01*
X16587480Y-10764321D01*
X16580466Y-10772160D01*
X16551954Y-10806689D01*
X16543893Y-10815556D01*
X16274856Y-11084595D01*
X16212544Y-11118620D01*
X16185760Y-11121500D01*
X14373944Y-11121500D01*
X14349132Y-11119033D01*
X14337387Y-11116674D01*
X14337391Y-11116674D01*
X14326893Y-11116092D01*
X14275038Y-11101705D01*
X14252793Y-11089958D01*
X14241630Y-11084236D01*
X14241578Y-11084210D01*
X14241049Y-11083947D01*
X14227872Y-11077628D01*
X14227841Y-11077613D01*
X14142087Y-11037982D01*
X14142059Y-11037969D01*
X14138359Y-11036303D01*
X14132734Y-11033771D01*
X14132419Y-11033633D01*
X14132396Y-11033624D01*
X14072780Y-11011785D01*
X14072767Y-11011782D01*
X14069474Y-11011296D01*
X14046267Y-11005578D01*
X13989850Y-10985837D01*
X13820000Y-10966701D01*
X13650151Y-10985837D01*
X13488817Y-11042290D01*
X13344087Y-11133231D01*
X13343377Y-11133942D01*
X13342805Y-11134253D01*
X13338557Y-11137642D01*
X13337963Y-11136897D01*
X13281061Y-11167962D01*
X13210246Y-11162891D01*
X13165194Y-11133934D01*
X12105405Y-10074145D01*
X12071379Y-10011833D01*
X12068500Y-9985050D01*
X12068500Y-9710186D01*
X12088502Y-9642065D01*
X12142158Y-9595572D01*
X12212432Y-9585468D01*
X12236106Y-9591254D01*
X12330150Y-9624162D01*
X12500000Y-9643299D01*
X12669850Y-9624162D01*
X12797549Y-9579477D01*
X12803080Y-9577684D01*
X12822120Y-9572001D01*
X12907868Y-9532370D01*
X12920420Y-9526361D01*
X12920975Y-9526086D01*
X12932780Y-9520046D01*
X12955031Y-9508294D01*
X13006894Y-9493906D01*
X13017385Y-9493325D01*
X13057971Y-9489453D01*
X13057974Y-9489452D01*
X13061990Y-9489069D01*
X13073956Y-9488500D01*
X14191537Y-9488500D01*
X14259658Y-9508502D01*
G37*
%TD.AperFunction*%
%TA.AperFunction,Conductor*%
G36*
X41527469Y-2722644D02*
G01*
X41570133Y-2750682D01*
X41748027Y-2928576D01*
X41763827Y-2947864D01*
X41770458Y-2957829D01*
X41770460Y-2957831D01*
X41777473Y-2965668D01*
X41803969Y-3012513D01*
X41811376Y-3036499D01*
X41815312Y-3048706D01*
X41815493Y-3049244D01*
X41820310Y-3062934D01*
X41852903Y-3151538D01*
X41856340Y-3160615D01*
X41856502Y-3161030D01*
X41873314Y-3197329D01*
X41877909Y-3208663D01*
X41882288Y-3221177D01*
X41882289Y-3221179D01*
X41882291Y-3221183D01*
X41966396Y-3355034D01*
X41973229Y-3365909D01*
X41973232Y-3365913D01*
X42094087Y-3486768D01*
X42094089Y-3486769D01*
X42094091Y-3486771D01*
X42238817Y-3577709D01*
X42400150Y-3634162D01*
X42400149Y-3634162D01*
X42417348Y-3636099D01*
X42570000Y-3653299D01*
X42739850Y-3634162D01*
X42901183Y-3577709D01*
X43045909Y-3486771D01*
X43166771Y-3365909D01*
X43198104Y-3316042D01*
X43251283Y-3269005D01*
X43321450Y-3258185D01*
X43386328Y-3287018D01*
X43425319Y-3346350D01*
X43430791Y-3383079D01*
X43430791Y-3787136D01*
X43428324Y-3811947D01*
X43425967Y-3823680D01*
X43425965Y-3823696D01*
X43425383Y-3834187D01*
X43410996Y-3886040D01*
X43399210Y-3908357D01*
X43392767Y-3920979D01*
X43392493Y-3921534D01*
X43386923Y-3933195D01*
X43347254Y-4019030D01*
X43343134Y-4028181D01*
X43342993Y-4028502D01*
X43342973Y-4028551D01*
X43321078Y-4088289D01*
X43321075Y-4088304D01*
X43320589Y-4091597D01*
X43314870Y-4114810D01*
X43295128Y-4171228D01*
X43275992Y-4341079D01*
X43295128Y-4510927D01*
X43351581Y-4672261D01*
X43407505Y-4761262D01*
X43435068Y-4805129D01*
X43442522Y-4816991D01*
X43563378Y-4937847D01*
X43563380Y-4937848D01*
X43563382Y-4937850D01*
X43708108Y-5028788D01*
X43869441Y-5085241D01*
X43869440Y-5085241D01*
X43888577Y-5087397D01*
X44039291Y-5104378D01*
X44108504Y-5096579D01*
X44178433Y-5108828D01*
X44230641Y-5156940D01*
X44248550Y-5225641D01*
X44242172Y-5261543D01*
X44226488Y-5308711D01*
X44223127Y-5317670D01*
X44220327Y-5324349D01*
X44197468Y-5360269D01*
X44141887Y-5421568D01*
X44114723Y-5454133D01*
X44111434Y-5458910D01*
X44110809Y-5458479D01*
X44099089Y-5474451D01*
X44083032Y-5491550D01*
X44083027Y-5491557D01*
X44072691Y-5510357D01*
X44061843Y-5526870D01*
X44048699Y-5543816D01*
X44048694Y-5543825D01*
X44030350Y-5586214D01*
X44025131Y-5596868D01*
X44002877Y-5637351D01*
X44002873Y-5637360D01*
X43997541Y-5658126D01*
X43991139Y-5676826D01*
X43982620Y-5696510D01*
X43982620Y-5696513D01*
X43975393Y-5742142D01*
X43972986Y-5753762D01*
X43961500Y-5798500D01*
X43961500Y-5819948D01*
X43959949Y-5839657D01*
X43959361Y-5843373D01*
X43956594Y-5860842D01*
X43960914Y-5906548D01*
X43960941Y-5906828D01*
X43961500Y-5918686D01*
X43961500Y-6497289D01*
X43941498Y-6565410D01*
X43887842Y-6611903D01*
X43817568Y-6622007D01*
X43752988Y-6592513D01*
X43746405Y-6586384D01*
X43659976Y-6499955D01*
X43504758Y-6402426D01*
X43504756Y-6402425D01*
X43331727Y-6341879D01*
X43331726Y-6341878D01*
X43331724Y-6341878D01*
X43253700Y-6333086D01*
X43222551Y-6329577D01*
X43157099Y-6302073D01*
X43116906Y-6243548D01*
X43111453Y-6218481D01*
X43099152Y-6109306D01*
X43038605Y-5936274D01*
X42965513Y-5819948D01*
X42941074Y-5781053D01*
X42811448Y-5651427D01*
X42656230Y-5553898D01*
X42656228Y-5553897D01*
X42627444Y-5543825D01*
X42483196Y-5493350D01*
X42301030Y-5472825D01*
X42118864Y-5493350D01*
X42118861Y-5493350D01*
X42118861Y-5493351D01*
X41945831Y-5553897D01*
X41945829Y-5553898D01*
X41790611Y-5651427D01*
X41660985Y-5781053D01*
X41563456Y-5936271D01*
X41563455Y-5936273D01*
X41509778Y-6089674D01*
X41502908Y-6109306D01*
X41495613Y-6174048D01*
X41490607Y-6218478D01*
X41463103Y-6283930D01*
X41404578Y-6324123D01*
X41379508Y-6329577D01*
X41338543Y-6334193D01*
X41270336Y-6341878D01*
X41270333Y-6341878D01*
X41270332Y-6341879D01*
X41097303Y-6402425D01*
X41097301Y-6402426D01*
X40942083Y-6499955D01*
X40812457Y-6629581D01*
X40714928Y-6784799D01*
X40714927Y-6784801D01*
X40654849Y-6956494D01*
X40654380Y-6957834D01*
X40633855Y-7140000D01*
X40654380Y-7322166D01*
X40692914Y-7432290D01*
X40714927Y-7495198D01*
X40714928Y-7495200D01*
X40812457Y-7650418D01*
X40942083Y-7780044D01*
X41025176Y-7832254D01*
X41097304Y-7877575D01*
X41270336Y-7938122D01*
X41379508Y-7950422D01*
X41444960Y-7977926D01*
X41485153Y-8036450D01*
X41490607Y-8061521D01*
X41502908Y-8170694D01*
X41502908Y-8170696D01*
X41502909Y-8170697D01*
X41563455Y-8343726D01*
X41563456Y-8343728D01*
X41660985Y-8498946D01*
X41790611Y-8628572D01*
X41921819Y-8711014D01*
X41945832Y-8726103D01*
X42118864Y-8786650D01*
X42301030Y-8807175D01*
X42483196Y-8786650D01*
X42656228Y-8726103D01*
X42811448Y-8628572D01*
X42941074Y-8498946D01*
X43038605Y-8343726D01*
X43099152Y-8170694D01*
X43111452Y-8061519D01*
X43138956Y-7996070D01*
X43197480Y-7955877D01*
X43222546Y-7950423D01*
X43331724Y-7938122D01*
X43504756Y-7877575D01*
X43659976Y-7780044D01*
X43789602Y-7650418D01*
X43887133Y-7495198D01*
X43947680Y-7322166D01*
X43954970Y-7257461D01*
X43982472Y-7192012D01*
X44040996Y-7151819D01*
X44111959Y-7149646D01*
X44160491Y-7174486D01*
X44171750Y-7183800D01*
X44180531Y-7191791D01*
X44533125Y-7544385D01*
X44543338Y-7557131D01*
X44543531Y-7556972D01*
X44548583Y-7563079D01*
X44600257Y-7611604D01*
X44603099Y-7614359D01*
X44623667Y-7634927D01*
X44626958Y-7637480D01*
X44627171Y-7637645D01*
X44636198Y-7645355D01*
X44669867Y-7676972D01*
X44688669Y-7687308D01*
X44705175Y-7698151D01*
X44722132Y-7711304D01*
X44764542Y-7729656D01*
X44775182Y-7734870D01*
X44815659Y-7757122D01*
X44815663Y-7757124D01*
X44836432Y-7762456D01*
X44855134Y-7768859D01*
X44874824Y-7777380D01*
X44920448Y-7784605D01*
X44932071Y-7787012D01*
X44976812Y-7798500D01*
X44998259Y-7798500D01*
X45017967Y-7800050D01*
X45039152Y-7803406D01*
X45085140Y-7799058D01*
X45096996Y-7798500D01*
X45705500Y-7798500D01*
X45773621Y-7818502D01*
X45820114Y-7872158D01*
X45831500Y-7924500D01*
X45831500Y-9653949D01*
X45811498Y-9722070D01*
X45757842Y-9768563D01*
X45687568Y-9778667D01*
X45622988Y-9749173D01*
X45592532Y-9704342D01*
X45590777Y-9705188D01*
X45587709Y-9698818D01*
X45587709Y-9698817D01*
X45496771Y-9554091D01*
X45496769Y-9554089D01*
X45496768Y-9554087D01*
X45375912Y-9433231D01*
X45231182Y-9342290D01*
X45111451Y-9300395D01*
X45069850Y-9285838D01*
X45069848Y-9285837D01*
X45069850Y-9285837D01*
X44900000Y-9266701D01*
X44730151Y-9285837D01*
X44574360Y-9340351D01*
X44503456Y-9343970D01*
X44465709Y-9328109D01*
X44416367Y-9297105D01*
X44316455Y-9262145D01*
X44255035Y-9240653D01*
X44255033Y-9240652D01*
X44255035Y-9240652D01*
X44085185Y-9221516D01*
X43915338Y-9240652D01*
X43787725Y-9285305D01*
X43782166Y-9287106D01*
X43763078Y-9292806D01*
X43763074Y-9292807D01*
X43677335Y-9332432D01*
X43665578Y-9338048D01*
X43665093Y-9338287D01*
X43652431Y-9344750D01*
X43630144Y-9356520D01*
X43578297Y-9370906D01*
X43567799Y-9371489D01*
X43548166Y-9373363D01*
X43527192Y-9375365D01*
X43527190Y-9375365D01*
X43523215Y-9375745D01*
X43511242Y-9376315D01*
X41089054Y-9376315D01*
X41020933Y-9356313D01*
X40999959Y-9339410D01*
X38547430Y-6886881D01*
X38513404Y-6824569D01*
X38518469Y-6753754D01*
X38542890Y-6713474D01*
X38548367Y-6707393D01*
X38638599Y-6551107D01*
X38644518Y-6532887D01*
X38653886Y-6511217D01*
X38658350Y-6503084D01*
X38659525Y-6499955D01*
X38686817Y-6427240D01*
X38706319Y-6375282D01*
X38709878Y-6365499D01*
X38710026Y-6365079D01*
X38712987Y-6356430D01*
X38739356Y-6277117D01*
X38742720Y-6268155D01*
X38744265Y-6264471D01*
X38745526Y-6261467D01*
X38768378Y-6225567D01*
X38776250Y-6216886D01*
X38823956Y-6164275D01*
X38851124Y-6131706D01*
X38854844Y-6127247D01*
X38855222Y-6127562D01*
X38862741Y-6118517D01*
X40105109Y-4876149D01*
X40123704Y-4860815D01*
X40135122Y-4853109D01*
X40196418Y-4797526D01*
X40232327Y-4774672D01*
X40239002Y-4771873D01*
X40247940Y-4768518D01*
X40327279Y-4742140D01*
X40332231Y-4740444D01*
X40335918Y-4739182D01*
X40336343Y-4739032D01*
X40336346Y-4739031D01*
X40346129Y-4735472D01*
X40473931Y-4687503D01*
X40481511Y-4684589D01*
X40481849Y-4684456D01*
X40538707Y-4657965D01*
X40538707Y-4657964D01*
X40538709Y-4657964D01*
X40544228Y-4654671D01*
X40544376Y-4654919D01*
X40560999Y-4645190D01*
X40602462Y-4626731D01*
X40748460Y-4520657D01*
X40824485Y-4436223D01*
X40869208Y-4386553D01*
X40869209Y-4386551D01*
X40869214Y-4386546D01*
X40959446Y-4230260D01*
X40974203Y-4184844D01*
X40996282Y-4116890D01*
X41015212Y-4058628D01*
X41029035Y-3927104D01*
X41056048Y-3861450D01*
X41087305Y-3833593D01*
X41145909Y-3796771D01*
X41266771Y-3675909D01*
X41357709Y-3531183D01*
X41414162Y-3369850D01*
X41433299Y-3200000D01*
X41414162Y-3030150D01*
X41362108Y-2881391D01*
X41358489Y-2810488D01*
X41393778Y-2748883D01*
X41456772Y-2716136D01*
X41527469Y-2722644D01*
G37*
%TD.AperFunction*%
%TA.AperFunction,Conductor*%
G36*
X24213621Y-2668502D02*
G01*
X24260114Y-2722158D01*
X24271500Y-2774500D01*
X24271500Y-4436248D01*
X24287067Y-4574406D01*
X24287067Y-4574408D01*
X24287068Y-4574409D01*
X24348356Y-4749563D01*
X24350312Y-4752675D01*
X24356227Y-4763170D01*
X24374698Y-4799958D01*
X24377870Y-4806778D01*
X24402632Y-4864460D01*
X24404829Y-4869926D01*
X24433569Y-4946573D01*
X24435143Y-4951023D01*
X24466489Y-5045211D01*
X24467648Y-5048879D01*
X24481212Y-5094214D01*
X24486500Y-5130329D01*
X24486500Y-5206863D01*
X24485422Y-5223309D01*
X24481250Y-5254999D01*
X24481250Y-5255002D01*
X24485961Y-5290789D01*
X24485962Y-5290796D01*
X24486500Y-5294879D01*
X24486500Y-5294885D01*
X24497953Y-5381876D01*
X24502162Y-5413851D01*
X24543605Y-5513903D01*
X24563475Y-5561874D01*
X24563480Y-5561882D01*
X24636524Y-5657074D01*
X24636525Y-5657074D01*
X24660256Y-5688001D01*
X24661014Y-5688988D01*
X24686378Y-5708451D01*
X24698769Y-5719318D01*
X26354595Y-7375144D01*
X26388621Y-7437456D01*
X26391500Y-7464239D01*
X26391500Y-8885703D01*
X26371498Y-8953824D01*
X26317842Y-9000317D01*
X26279610Y-9010910D01*
X26180594Y-9022067D01*
X26180591Y-9022067D01*
X26180591Y-9022068D01*
X26005435Y-9083357D01*
X26005433Y-9083358D01*
X25897481Y-9151189D01*
X25829160Y-9170495D01*
X25761247Y-9149800D01*
X25715303Y-9095673D01*
X25709448Y-9079653D01*
X25704146Y-9061403D01*
X25704145Y-9061402D01*
X25704145Y-9061400D01*
X25693226Y-9042939D01*
X25684528Y-9025182D01*
X25676635Y-9005244D01*
X25649477Y-8967864D01*
X25642965Y-8957951D01*
X25619452Y-8918193D01*
X25619451Y-8918192D01*
X25619450Y-8918190D01*
X25604291Y-8903031D01*
X25591450Y-8887998D01*
X25581776Y-8874683D01*
X25578841Y-8870643D01*
X25543231Y-8841184D01*
X25534461Y-8833202D01*
X24205405Y-7504145D01*
X24171379Y-7441833D01*
X24168500Y-7415050D01*
X24168500Y-7384507D01*
X24168499Y-7384506D01*
X24167343Y-7369823D01*
X24165606Y-7347746D01*
X24119894Y-7190403D01*
X24109984Y-7173646D01*
X24092525Y-7104833D01*
X24109987Y-7045365D01*
X24119430Y-7029398D01*
X24161673Y-6884000D01*
X23871379Y-6884000D01*
X23807240Y-6866454D01*
X23779598Y-6850106D01*
X23622252Y-6804393D01*
X23585493Y-6801500D01*
X23585484Y-6801500D01*
X23554950Y-6801500D01*
X23486829Y-6781498D01*
X23465855Y-6764595D01*
X23132905Y-6431645D01*
X23098879Y-6369333D01*
X23096000Y-6342550D01*
X23096000Y-5843459D01*
X23604000Y-5843459D01*
X23604000Y-6376000D01*
X24161673Y-6376000D01*
X24119429Y-6230598D01*
X24036091Y-6089681D01*
X24036085Y-6089674D01*
X23920325Y-5973914D01*
X23920318Y-5973908D01*
X23779400Y-5890570D01*
X23779402Y-5890570D01*
X23622173Y-5844890D01*
X23604000Y-5843459D01*
X23096000Y-5843459D01*
X23077828Y-5844890D01*
X23077825Y-5844890D01*
X22949654Y-5882129D01*
X22878657Y-5881926D01*
X22819041Y-5843373D01*
X22789732Y-5778708D01*
X22788500Y-5761132D01*
X22788500Y-2774500D01*
X22808502Y-2706379D01*
X22862158Y-2659886D01*
X22914500Y-2648500D01*
X24145500Y-2648500D01*
X24213621Y-2668502D01*
G37*
%TD.AperFunction*%
%TA.AperFunction,Conductor*%
G36*
X30741831Y-2650985D02*
G01*
X30747169Y-2652061D01*
X30753369Y-2653311D01*
X30825894Y-2657386D01*
X30870437Y-2668244D01*
X30873998Y-2669843D01*
X30881488Y-2673509D01*
X30958552Y-2714440D01*
X30958569Y-2714449D01*
X30971082Y-2720877D01*
X30971654Y-2721161D01*
X30984240Y-2727198D01*
X31108319Y-2784654D01*
X31116708Y-2788447D01*
X31117118Y-2788628D01*
X31178565Y-2811194D01*
X31178569Y-2811194D01*
X31179066Y-2811377D01*
X31186861Y-2814539D01*
X31202310Y-2821418D01*
X31319990Y-2846431D01*
X31378829Y-2858938D01*
X31378830Y-2858938D01*
X31559295Y-2858938D01*
X31590237Y-2852360D01*
X31735814Y-2821418D01*
X31900677Y-2748016D01*
X31948295Y-2713419D01*
X32015157Y-2689562D01*
X32084309Y-2705641D01*
X32111448Y-2726261D01*
X32372898Y-2987711D01*
X32406924Y-3050023D01*
X32401859Y-3120838D01*
X32359312Y-3177674D01*
X32325419Y-3195735D01*
X32263816Y-3217291D01*
X32119087Y-3308231D01*
X31998231Y-3429087D01*
X31907290Y-3573818D01*
X31895462Y-3607618D01*
X31887396Y-3625878D01*
X31877912Y-3643435D01*
X31845284Y-3732139D01*
X31840773Y-3744926D01*
X31840574Y-3745513D01*
X31836394Y-3758443D01*
X31828967Y-3782490D01*
X31802480Y-3829321D01*
X31795465Y-3837160D01*
X31766949Y-3871695D01*
X31758887Y-3880562D01*
X31598225Y-4041224D01*
X31578941Y-4057021D01*
X31568973Y-4063654D01*
X31568963Y-4063662D01*
X31561123Y-4070678D01*
X31514288Y-4097168D01*
X31490235Y-4104596D01*
X31478038Y-4108530D01*
X31477485Y-4108716D01*
X31463865Y-4113510D01*
X31375214Y-4146120D01*
X31365131Y-4149950D01*
X31364757Y-4150096D01*
X31329324Y-4166552D01*
X31317876Y-4171201D01*
X31305614Y-4175492D01*
X31160890Y-4266429D01*
X31160886Y-4266432D01*
X31040031Y-4387287D01*
X30949090Y-4532017D01*
X30892637Y-4693351D01*
X30873501Y-4863200D01*
X30892637Y-5033048D01*
X30949090Y-5194382D01*
X31040031Y-5339112D01*
X31160887Y-5459968D01*
X31160889Y-5459969D01*
X31160891Y-5459971D01*
X31305617Y-5550909D01*
X31466950Y-5607362D01*
X31466949Y-5607362D01*
X31484148Y-5609299D01*
X31636800Y-5626499D01*
X31806650Y-5607362D01*
X31967983Y-5550909D01*
X32112709Y-5459971D01*
X32233571Y-5339109D01*
X32324509Y-5194383D01*
X32336345Y-5160554D01*
X32344411Y-5142295D01*
X32353893Y-5124743D01*
X32358623Y-5111885D01*
X32386480Y-5036147D01*
X32386483Y-5036135D01*
X32386503Y-5036084D01*
X32391135Y-5022945D01*
X32391333Y-5022358D01*
X32395403Y-5009755D01*
X32402827Y-4985711D01*
X32429326Y-4938866D01*
X32429654Y-4938500D01*
X32436337Y-4931032D01*
X32462296Y-4899598D01*
X32462295Y-4899598D01*
X32464867Y-4896485D01*
X32472915Y-4887632D01*
X32633585Y-4726962D01*
X32652868Y-4711166D01*
X32662832Y-4704537D01*
X32670666Y-4697526D01*
X32717514Y-4671027D01*
X32741555Y-4663603D01*
X32754158Y-4659533D01*
X32754745Y-4659335D01*
X32767884Y-4654703D01*
X32856543Y-4622093D01*
X32865629Y-4618653D01*
X32866027Y-4618498D01*
X32902326Y-4601685D01*
X32913660Y-4597090D01*
X32926183Y-4592709D01*
X33070909Y-4501771D01*
X33191771Y-4380909D01*
X33282709Y-4236183D01*
X33304265Y-4174578D01*
X33345641Y-4116890D01*
X33411642Y-4090727D01*
X33481309Y-4104399D01*
X33512288Y-4127101D01*
X34093473Y-4708286D01*
X34127499Y-4770598D01*
X34122434Y-4841413D01*
X34079887Y-4898249D01*
X34071415Y-4904068D01*
X34009087Y-4943231D01*
X33888232Y-5064086D01*
X33888229Y-5064090D01*
X33842926Y-5136190D01*
X33798833Y-5206364D01*
X33797290Y-5208819D01*
X33797287Y-5208824D01*
X33783990Y-5246824D01*
X33776537Y-5263937D01*
X33766179Y-5283597D01*
X33734408Y-5372804D01*
X33734399Y-5372831D01*
X33728076Y-5391738D01*
X33727821Y-5392554D01*
X33722461Y-5410874D01*
X33716209Y-5433812D01*
X33691622Y-5479785D01*
X33692275Y-5480316D01*
X33666537Y-5511973D01*
X33657867Y-5521582D01*
X31272321Y-7907128D01*
X31254644Y-7921838D01*
X31241321Y-7931003D01*
X31220746Y-7949993D01*
X31178519Y-7975752D01*
X31155784Y-7984055D01*
X31147194Y-7987279D01*
X31060693Y-8020630D01*
X31053212Y-8023582D01*
X31053122Y-8023618D01*
X31053057Y-8023645D01*
X31053051Y-8023647D01*
X31053048Y-8023649D01*
X31053041Y-8023652D01*
X31020280Y-8039069D01*
X31008258Y-8043986D01*
X30998817Y-8047290D01*
X30854087Y-8138231D01*
X30733229Y-8259089D01*
X30692421Y-8324034D01*
X30639241Y-8371071D01*
X30569074Y-8381890D01*
X30504196Y-8353056D01*
X30496640Y-8346091D01*
X27581177Y-5430628D01*
X27547151Y-5368316D01*
X27552216Y-5297501D01*
X27594763Y-5240665D01*
X27656160Y-5216326D01*
X27819406Y-5197933D01*
X27994564Y-5136643D01*
X28151693Y-5037912D01*
X28181258Y-5008346D01*
X28243568Y-4974322D01*
X28314384Y-4979386D01*
X28359448Y-5008347D01*
X28388616Y-5037515D01*
X28545654Y-5136190D01*
X28651000Y-5173050D01*
X28651000Y-3834000D01*
X29159000Y-3834000D01*
X29159000Y-5173050D01*
X29264345Y-5136190D01*
X29421382Y-5037515D01*
X29421383Y-5037515D01*
X29552515Y-4906383D01*
X29552515Y-4906382D01*
X29651190Y-4749345D01*
X29712441Y-4574296D01*
X29728000Y-4436223D01*
X29728000Y-3834000D01*
X29159000Y-3834000D01*
X28651000Y-3834000D01*
X28651000Y-3452000D01*
X28671002Y-3383879D01*
X28724658Y-3337386D01*
X28777000Y-3326000D01*
X29728000Y-3326000D01*
X29728000Y-2774500D01*
X29748002Y-2706379D01*
X29801658Y-2659886D01*
X29854000Y-2648500D01*
X30716931Y-2648500D01*
X30741831Y-2650985D01*
G37*
%TD.AperFunction*%
%TA.AperFunction,Conductor*%
G36*
X20236720Y-1998502D02*
G01*
X20283213Y-2052158D01*
X20293317Y-2122432D01*
X20284297Y-2152025D01*
X20284627Y-2152141D01*
X20270462Y-2192618D01*
X20262396Y-2210878D01*
X20252912Y-2228435D01*
X20252909Y-2228444D01*
X20230267Y-2290000D01*
X20220284Y-2317139D01*
X20215773Y-2329926D01*
X20215574Y-2330513D01*
X20211394Y-2343443D01*
X20203967Y-2367490D01*
X20177480Y-2414321D01*
X20170465Y-2422160D01*
X20141949Y-2456695D01*
X20133887Y-2465562D01*
X19603767Y-2995682D01*
X19591380Y-3006547D01*
X19566011Y-3026014D01*
X19540370Y-3059428D01*
X19540229Y-3059614D01*
X19468473Y-3153127D01*
X19410087Y-3294089D01*
X19410084Y-3294096D01*
X19407162Y-3301147D01*
X19407161Y-3301151D01*
X19395380Y-3390638D01*
X19391622Y-3419193D01*
X19390962Y-3424204D01*
X19386250Y-3459997D01*
X19386250Y-3460000D01*
X19390422Y-3491690D01*
X19391500Y-3508136D01*
X19391500Y-5235759D01*
X19371498Y-5303880D01*
X19354595Y-5324855D01*
X19121422Y-5558027D01*
X19102138Y-5573823D01*
X19092173Y-5580454D01*
X19092163Y-5580462D01*
X19084323Y-5587478D01*
X19037488Y-5613968D01*
X19013435Y-5621396D01*
X19001238Y-5625330D01*
X19000685Y-5625516D01*
X18987065Y-5630310D01*
X18898414Y-5662920D01*
X18888331Y-5666750D01*
X18887957Y-5666896D01*
X18852524Y-5683352D01*
X18841076Y-5688001D01*
X18828814Y-5692292D01*
X18684090Y-5783229D01*
X18684086Y-5783232D01*
X18563231Y-5904087D01*
X18472290Y-6048817D01*
X18415837Y-6210151D01*
X18396701Y-6380000D01*
X18415837Y-6549848D01*
X18472290Y-6711182D01*
X18529041Y-6801500D01*
X18554514Y-6842040D01*
X18563231Y-6855912D01*
X18684087Y-6976768D01*
X18684089Y-6976769D01*
X18684091Y-6976771D01*
X18828817Y-7067709D01*
X18990150Y-7124162D01*
X19058315Y-7131842D01*
X19123768Y-7159345D01*
X19163962Y-7217868D01*
X19166135Y-7288832D01*
X19133304Y-7346145D01*
X18885160Y-7594289D01*
X18822848Y-7628315D01*
X18752033Y-7623250D01*
X18706970Y-7594289D01*
X18635912Y-7523231D01*
X18621601Y-7514239D01*
X18578977Y-7487456D01*
X18491182Y-7432290D01*
X18382165Y-7394144D01*
X18329850Y-7375838D01*
X18329848Y-7375837D01*
X18329850Y-7375837D01*
X18160000Y-7356701D01*
X17990151Y-7375837D01*
X17828817Y-7432290D01*
X17684087Y-7523231D01*
X17563231Y-7644087D01*
X17472290Y-7788818D01*
X17460462Y-7822618D01*
X17452396Y-7840878D01*
X17442912Y-7858435D01*
X17410284Y-7947139D01*
X17405773Y-7959926D01*
X17405574Y-7960513D01*
X17401394Y-7973443D01*
X17393967Y-7997490D01*
X17367480Y-8044321D01*
X17360466Y-8052160D01*
X17331954Y-8086689D01*
X17323893Y-8095556D01*
X17184856Y-8234595D01*
X17122544Y-8268620D01*
X17095760Y-8271500D01*
X13053944Y-8271500D01*
X13029132Y-8269033D01*
X13017387Y-8266674D01*
X13017391Y-8266674D01*
X13006893Y-8266092D01*
X12955038Y-8251705D01*
X12932793Y-8239958D01*
X12921630Y-8234236D01*
X12921578Y-8234210D01*
X12921049Y-8233947D01*
X12907872Y-8227628D01*
X12907841Y-8227613D01*
X12822087Y-8187982D01*
X12822059Y-8187969D01*
X12818359Y-8186303D01*
X12812734Y-8183771D01*
X12812419Y-8183633D01*
X12812396Y-8183624D01*
X12752780Y-8161785D01*
X12752767Y-8161782D01*
X12749474Y-8161296D01*
X12726267Y-8155578D01*
X12669850Y-8135837D01*
X12500000Y-8116701D01*
X12330151Y-8135837D01*
X12236115Y-8168742D01*
X12165210Y-8172361D01*
X12103605Y-8137072D01*
X12070859Y-8074079D01*
X12068500Y-8049813D01*
X12068500Y-7546976D01*
X12070807Y-7522975D01*
X12072502Y-7514239D01*
X12073431Y-7509452D01*
X12077471Y-7426804D01*
X12086705Y-7385246D01*
X12089456Y-7378523D01*
X12093404Y-7369835D01*
X12130844Y-7295098D01*
X12135092Y-7286415D01*
X12135284Y-7286013D01*
X12139457Y-7277056D01*
X12195903Y-7152778D01*
X12198944Y-7145950D01*
X12199089Y-7145618D01*
X12204117Y-7131842D01*
X12220837Y-7086034D01*
X12220837Y-7086033D01*
X12220837Y-7086032D01*
X12220838Y-7086030D01*
X12221389Y-7082259D01*
X12226229Y-7061566D01*
X12228651Y-7054112D01*
X12254365Y-6974975D01*
X12273229Y-6795500D01*
X12254365Y-6616025D01*
X12198599Y-6444393D01*
X12198597Y-6444389D01*
X12197802Y-6442604D01*
X12197012Y-6440664D01*
X12162674Y-6365061D01*
X12139457Y-6313944D01*
X12135284Y-6304985D01*
X12135257Y-6304928D01*
X12135129Y-6304659D01*
X12135092Y-6304583D01*
X12130843Y-6295899D01*
X12093407Y-6221169D01*
X12089453Y-6212465D01*
X12086705Y-6205749D01*
X12077471Y-6164190D01*
X12073431Y-6081548D01*
X12069605Y-6039258D01*
X12069082Y-6033475D01*
X12069567Y-6033431D01*
X12068500Y-6021744D01*
X12068500Y-4915110D01*
X12088502Y-4846989D01*
X12142158Y-4800496D01*
X12212432Y-4790392D01*
X12268558Y-4813173D01*
X12288385Y-4827578D01*
X12453248Y-4900980D01*
X12572465Y-4926320D01*
X12629767Y-4938500D01*
X12629768Y-4938500D01*
X12810233Y-4938500D01*
X12867535Y-4926320D01*
X12986752Y-4900980D01*
X13035507Y-4879272D01*
X13051486Y-4873417D01*
X13077278Y-4865903D01*
X13201556Y-4809457D01*
X13210513Y-4805284D01*
X13210915Y-4805092D01*
X13219598Y-4800844D01*
X13294341Y-4763401D01*
X13303038Y-4759450D01*
X13309744Y-4756706D01*
X13351304Y-4747471D01*
X13433951Y-4743431D01*
X13476216Y-4739609D01*
X13476217Y-4739608D01*
X13481997Y-4739086D01*
X13482040Y-4739568D01*
X13493746Y-4738500D01*
X15078523Y-4738500D01*
X15102524Y-4740807D01*
X15116047Y-4743431D01*
X15198690Y-4747471D01*
X15240251Y-4756706D01*
X15242893Y-4757787D01*
X15246962Y-4759452D01*
X15255675Y-4763410D01*
X15330399Y-4800843D01*
X15339018Y-4805060D01*
X15339159Y-4805129D01*
X15339428Y-4805257D01*
X15339485Y-4805284D01*
X15348444Y-4809457D01*
X15472723Y-4865903D01*
X15479549Y-4868944D01*
X15479881Y-4869089D01*
X15539469Y-4890838D01*
X15539472Y-4890838D01*
X15540934Y-4891372D01*
X15548980Y-4894627D01*
X15553152Y-4896485D01*
X15563245Y-4900979D01*
X15563246Y-4900979D01*
X15563248Y-4900980D01*
X15674501Y-4924627D01*
X15739767Y-4938500D01*
X15739768Y-4938500D01*
X15920233Y-4938500D01*
X15951175Y-4931922D01*
X16096752Y-4900980D01*
X16261615Y-4827578D01*
X16407613Y-4721504D01*
X16407615Y-4721502D01*
X16528361Y-4587400D01*
X16528362Y-4587398D01*
X16528367Y-4587393D01*
X16618599Y-4431107D01*
X16624518Y-4412887D01*
X16633886Y-4391217D01*
X16638350Y-4383084D01*
X16639167Y-4380909D01*
X16665248Y-4311421D01*
X16686319Y-4255282D01*
X16689878Y-4245499D01*
X16690026Y-4245079D01*
X16692987Y-4236430D01*
X16719356Y-4157117D01*
X16722720Y-4148155D01*
X16724265Y-4144471D01*
X16725526Y-4141467D01*
X16748378Y-4105567D01*
X16803956Y-4044275D01*
X16831124Y-4011706D01*
X16831124Y-4011704D01*
X16834845Y-4007245D01*
X16835225Y-4007562D01*
X16842740Y-3998518D01*
X17928598Y-2912660D01*
X17990908Y-2878636D01*
X18025852Y-2876022D01*
X18066566Y-2878664D01*
X18104305Y-2881114D01*
X18118541Y-2881817D01*
X18120106Y-2881895D01*
X18120454Y-2881906D01*
X18120821Y-2881919D01*
X18192154Y-2879385D01*
X18192157Y-2879384D01*
X18192160Y-2879384D01*
X18193012Y-2879263D01*
X18210805Y-2878000D01*
X18240233Y-2878000D01*
X18283435Y-2868817D01*
X18416752Y-2840480D01*
X18581615Y-2767078D01*
X18727613Y-2661004D01*
X18738872Y-2648500D01*
X18848361Y-2526900D01*
X18848362Y-2526898D01*
X18848367Y-2526893D01*
X18938599Y-2370607D01*
X18947428Y-2343436D01*
X18984793Y-2228435D01*
X18994365Y-2198975D01*
X19005679Y-2091328D01*
X19032693Y-2025672D01*
X19090915Y-1985043D01*
X19130989Y-1978500D01*
X20168599Y-1978500D01*
X20236720Y-1998502D01*
G37*
%TD.AperFunction*%
%TA.AperFunction,Conductor*%
G36*
X15828765Y1317817D02*
G01*
X15873429Y1262630D01*
X15879265Y1245101D01*
X15881178Y1237546D01*
X15881179Y1237544D01*
X15971580Y1031452D01*
X16094674Y843042D01*
X16247097Y677466D01*
X16424698Y539233D01*
X16424699Y539232D01*
X16622628Y432118D01*
X16622630Y432117D01*
X16835483Y359045D01*
X16835492Y359043D01*
X16916000Y345609D01*
X16916000Y1246326D01*
X17027685Y1195320D01*
X17134237Y1180000D01*
X17205763Y1180000D01*
X17312315Y1195320D01*
X17424000Y1246326D01*
X17424000Y345610D01*
X17504507Y359043D01*
X17504516Y359045D01*
X17717369Y432117D01*
X17717371Y432118D01*
X17915300Y539232D01*
X17915301Y539233D01*
X18092902Y677466D01*
X18245327Y843045D01*
X18334217Y979101D01*
X18388220Y1025190D01*
X18458568Y1034765D01*
X18522925Y1004788D01*
X18545183Y979102D01*
X18634279Y842730D01*
X18737673Y730416D01*
X18777865Y686756D01*
X18786762Y677092D01*
X18832452Y641530D01*
X18964424Y538811D01*
X19162426Y431658D01*
X19162427Y431658D01*
X19162428Y431657D01*
X19257264Y399100D01*
X19375365Y358556D01*
X19597431Y321500D01*
X19597435Y321500D01*
X19822565Y321500D01*
X19822569Y321500D01*
X20044635Y358556D01*
X20257574Y431658D01*
X20455576Y538811D01*
X20633240Y677094D01*
X20785722Y842732D01*
X20785927Y843045D01*
X20810315Y880375D01*
X20874518Y978646D01*
X20928520Y1024732D01*
X20998868Y1034308D01*
X21063225Y1004331D01*
X21085480Y978647D01*
X21118503Y928102D01*
X21174275Y842735D01*
X21174279Y842730D01*
X21277673Y730416D01*
X21317865Y686756D01*
X21326762Y677092D01*
X21372452Y641530D01*
X21504424Y538811D01*
X21702426Y431658D01*
X21702427Y431658D01*
X21702428Y431657D01*
X21797264Y399100D01*
X21915365Y358556D01*
X22137431Y321500D01*
X22137435Y321500D01*
X22362565Y321500D01*
X22362569Y321500D01*
X22584635Y358556D01*
X22797574Y431658D01*
X22995576Y538811D01*
X23173240Y677094D01*
X23325722Y842732D01*
X23325927Y843045D01*
X23350315Y880375D01*
X23414518Y978646D01*
X23468520Y1024732D01*
X23538868Y1034308D01*
X23603225Y1004331D01*
X23625480Y978647D01*
X23658503Y928102D01*
X23714275Y842735D01*
X23714279Y842730D01*
X23817673Y730416D01*
X23857865Y686756D01*
X23866762Y677092D01*
X23912452Y641530D01*
X24044424Y538811D01*
X24242426Y431658D01*
X24242427Y431658D01*
X24242428Y431657D01*
X24337264Y399100D01*
X24455365Y358556D01*
X24677431Y321500D01*
X24677435Y321500D01*
X24902565Y321500D01*
X24902569Y321500D01*
X25124635Y358556D01*
X25337574Y431658D01*
X25535576Y538811D01*
X25713240Y677094D01*
X25865722Y842732D01*
X25865927Y843045D01*
X25890315Y880375D01*
X25954518Y978646D01*
X26008520Y1024732D01*
X26078868Y1034308D01*
X26143225Y1004331D01*
X26165480Y978647D01*
X26198503Y928102D01*
X26254275Y842735D01*
X26254279Y842730D01*
X26357673Y730416D01*
X26397865Y686756D01*
X26406762Y677092D01*
X26452452Y641530D01*
X26584424Y538811D01*
X26782426Y431658D01*
X26782427Y431658D01*
X26782428Y431657D01*
X26877264Y399100D01*
X26995365Y358556D01*
X27217431Y321500D01*
X27217435Y321500D01*
X27442565Y321500D01*
X27442569Y321500D01*
X27664635Y358556D01*
X27877574Y431658D01*
X28075576Y538811D01*
X28253240Y677094D01*
X28405722Y842732D01*
X28405927Y843045D01*
X28430315Y880375D01*
X28494518Y978646D01*
X28548520Y1024732D01*
X28618868Y1034308D01*
X28683225Y1004331D01*
X28705480Y978647D01*
X28738503Y928102D01*
X28794275Y842735D01*
X28794279Y842730D01*
X28897673Y730416D01*
X28937865Y686756D01*
X28946762Y677092D01*
X28992452Y641530D01*
X29124424Y538811D01*
X29322426Y431658D01*
X29322427Y431658D01*
X29322428Y431657D01*
X29417264Y399100D01*
X29535365Y358556D01*
X29757431Y321500D01*
X29757435Y321500D01*
X29982565Y321500D01*
X29982569Y321500D01*
X30204635Y358556D01*
X30417574Y431658D01*
X30615576Y538811D01*
X30793240Y677094D01*
X30945722Y842732D01*
X30945927Y843045D01*
X30970315Y880375D01*
X31034518Y978646D01*
X31088520Y1024732D01*
X31158868Y1034308D01*
X31223225Y1004331D01*
X31245480Y978647D01*
X31278503Y928102D01*
X31334275Y842735D01*
X31334279Y842730D01*
X31437673Y730416D01*
X31477865Y686756D01*
X31486762Y677092D01*
X31532452Y641530D01*
X31664424Y538811D01*
X31862426Y431658D01*
X31862427Y431658D01*
X31862428Y431657D01*
X31957264Y399100D01*
X32075365Y358556D01*
X32297431Y321500D01*
X32297435Y321500D01*
X32522565Y321500D01*
X32522569Y321500D01*
X32744635Y358556D01*
X32957574Y431658D01*
X33155576Y538811D01*
X33333240Y677094D01*
X33485722Y842732D01*
X33485927Y843045D01*
X33510315Y880375D01*
X33574518Y978646D01*
X33628520Y1024732D01*
X33698868Y1034308D01*
X33763225Y1004331D01*
X33785480Y978647D01*
X33818503Y928102D01*
X33874275Y842735D01*
X33874279Y842730D01*
X33977673Y730416D01*
X34017865Y686756D01*
X34026762Y677092D01*
X34072452Y641530D01*
X34204424Y538811D01*
X34402426Y431658D01*
X34402427Y431658D01*
X34402428Y431657D01*
X34497264Y399100D01*
X34615365Y358556D01*
X34837431Y321500D01*
X34837435Y321500D01*
X35062565Y321500D01*
X35062569Y321500D01*
X35284635Y358556D01*
X35497574Y431658D01*
X35695576Y538811D01*
X35873240Y677094D01*
X36025722Y842732D01*
X36025927Y843045D01*
X36050315Y880375D01*
X36114518Y978646D01*
X36168520Y1024732D01*
X36238868Y1034308D01*
X36303225Y1004331D01*
X36325480Y978647D01*
X36358503Y928102D01*
X36414275Y842735D01*
X36414279Y842730D01*
X36517673Y730416D01*
X36557865Y686756D01*
X36566762Y677092D01*
X36612452Y641530D01*
X36744424Y538811D01*
X36942426Y431658D01*
X36942427Y431658D01*
X36942428Y431657D01*
X37037264Y399100D01*
X37155365Y358556D01*
X37377431Y321500D01*
X37377435Y321500D01*
X37602565Y321500D01*
X37602569Y321500D01*
X37824635Y358556D01*
X38037574Y431658D01*
X38235576Y538811D01*
X38413240Y677094D01*
X38565722Y842732D01*
X38565927Y843045D01*
X38590315Y880375D01*
X38654518Y978646D01*
X38708520Y1024732D01*
X38778868Y1034308D01*
X38843225Y1004331D01*
X38865480Y978647D01*
X38898503Y928102D01*
X38954275Y842735D01*
X38954279Y842730D01*
X39057673Y730416D01*
X39097865Y686756D01*
X39106762Y677092D01*
X39152452Y641530D01*
X39284424Y538811D01*
X39482426Y431658D01*
X39482427Y431658D01*
X39482428Y431657D01*
X39577264Y399100D01*
X39695365Y358556D01*
X39917431Y321500D01*
X39917435Y321500D01*
X40142565Y321500D01*
X40142569Y321500D01*
X40364635Y358556D01*
X40577574Y431658D01*
X40775576Y538811D01*
X40953240Y677094D01*
X41105722Y842732D01*
X41105927Y843045D01*
X41130315Y880375D01*
X41194518Y978646D01*
X41248520Y1024732D01*
X41318868Y1034308D01*
X41383225Y1004331D01*
X41405480Y978647D01*
X41438503Y928102D01*
X41494275Y842735D01*
X41494279Y842730D01*
X41597673Y730416D01*
X41637865Y686756D01*
X41646762Y677092D01*
X41692452Y641530D01*
X41824424Y538811D01*
X42022426Y431658D01*
X42022427Y431658D01*
X42022428Y431657D01*
X42117264Y399100D01*
X42235365Y358556D01*
X42457431Y321500D01*
X42457435Y321500D01*
X42682565Y321500D01*
X42682569Y321500D01*
X42904635Y358556D01*
X43117574Y431658D01*
X43242543Y499288D01*
X43311970Y514118D01*
X43378397Y489058D01*
X43420730Y432063D01*
X43428372Y394367D01*
X43429030Y380306D01*
X43429407Y377785D01*
X43430791Y359160D01*
X43430791Y-2396920D01*
X43410789Y-2465041D01*
X43357133Y-2511534D01*
X43286859Y-2521638D01*
X43222279Y-2492144D01*
X43198104Y-2463957D01*
X43191623Y-2453642D01*
X43166771Y-2414091D01*
X43166769Y-2414089D01*
X43166768Y-2414087D01*
X43045912Y-2293231D01*
X42901182Y-2202290D01*
X42867376Y-2190461D01*
X42849109Y-2182392D01*
X42831554Y-2172909D01*
X42831550Y-2172908D01*
X42742934Y-2140310D01*
X42729244Y-2135493D01*
X42728677Y-2135302D01*
X42716551Y-2131391D01*
X42692512Y-2123968D01*
X42645669Y-2097473D01*
X42637835Y-2090463D01*
X42603294Y-2061940D01*
X42594427Y-2053878D01*
X41984315Y-1443766D01*
X41973447Y-1431374D01*
X41953987Y-1406013D01*
X41922074Y-1381525D01*
X41922074Y-1381524D01*
X41826882Y-1308480D01*
X41826874Y-1308475D01*
X41678851Y-1247162D01*
X41659458Y-1244607D01*
X41659458Y-1244608D01*
X41555803Y-1230962D01*
X41555776Y-1230959D01*
X41520003Y-1226250D01*
X41520000Y-1226250D01*
X41488309Y-1230422D01*
X41471863Y-1231500D01*
X41213944Y-1231500D01*
X41189132Y-1229033D01*
X41177387Y-1226674D01*
X41177391Y-1226674D01*
X41166893Y-1226092D01*
X41115038Y-1211705D01*
X41092793Y-1199958D01*
X41081630Y-1194236D01*
X41081578Y-1194210D01*
X41081049Y-1193947D01*
X41067872Y-1187628D01*
X41067841Y-1187613D01*
X40982087Y-1147982D01*
X40982059Y-1147969D01*
X40978359Y-1146303D01*
X40972734Y-1143771D01*
X40972419Y-1143633D01*
X40972396Y-1143624D01*
X40912780Y-1121785D01*
X40912767Y-1121782D01*
X40909474Y-1121296D01*
X40886267Y-1115578D01*
X40829850Y-1095837D01*
X40660000Y-1076701D01*
X40490151Y-1095837D01*
X40328817Y-1152290D01*
X40184087Y-1243231D01*
X40063231Y-1364087D01*
X39972290Y-1508817D01*
X39915837Y-1670151D01*
X39896701Y-1840000D01*
X39915837Y-2009848D01*
X39972290Y-2171182D01*
X40063231Y-2315912D01*
X40123724Y-2376405D01*
X40157750Y-2438717D01*
X40152685Y-2509532D01*
X40110138Y-2566368D01*
X40043618Y-2591179D01*
X40034629Y-2591500D01*
X39608137Y-2591500D01*
X39591691Y-2590422D01*
X39560000Y-2586250D01*
X39559997Y-2586250D01*
X39524223Y-2590959D01*
X39524199Y-2590961D01*
X39420541Y-2604608D01*
X39420540Y-2604607D01*
X39401151Y-2607161D01*
X39401147Y-2607162D01*
X39253125Y-2668475D01*
X39253117Y-2668480D01*
X39158519Y-2741069D01*
X39158475Y-2741101D01*
X39158476Y-2741102D01*
X39126011Y-2766014D01*
X39106545Y-2791381D01*
X39095681Y-2803768D01*
X37181425Y-4718024D01*
X37162141Y-4733821D01*
X37152173Y-4740454D01*
X37152163Y-4740462D01*
X37144323Y-4747478D01*
X37097488Y-4773968D01*
X37073435Y-4781396D01*
X37061238Y-4785330D01*
X37060685Y-4785516D01*
X37047065Y-4790310D01*
X36958414Y-4822920D01*
X36948331Y-4826750D01*
X36947957Y-4826896D01*
X36912524Y-4843352D01*
X36901074Y-4848001D01*
X36888817Y-4852291D01*
X36888815Y-4852291D01*
X36888815Y-4852292D01*
X36742999Y-4943913D01*
X36674678Y-4963218D01*
X36606765Y-4942522D01*
X36586869Y-4926320D01*
X32194315Y-533766D01*
X32183447Y-521374D01*
X32163987Y-496013D01*
X32132074Y-471525D01*
X32132074Y-471524D01*
X32036882Y-398480D01*
X32036874Y-398475D01*
X31888851Y-337162D01*
X31869458Y-334607D01*
X31869458Y-334608D01*
X31765803Y-320962D01*
X31765776Y-320959D01*
X31730003Y-316250D01*
X31730000Y-316250D01*
X31698309Y-320422D01*
X31681863Y-321500D01*
X11165470Y-321500D01*
X11139526Y-318800D01*
X11130316Y-316862D01*
X11130309Y-316861D01*
X11125861Y-316253D01*
X11125981Y-315370D01*
X11077147Y-300785D01*
X11056340Y-288987D01*
X11052787Y-287054D01*
X11040366Y-280299D01*
X11039578Y-279888D01*
X11022051Y-271177D01*
X10948573Y-236387D01*
X10947544Y-235824D01*
X10947532Y-235850D01*
X10937642Y-231085D01*
X10935645Y-230279D01*
X10924741Y-225283D01*
X10924263Y-225071D01*
X10862733Y-202389D01*
X10862735Y-202389D01*
X10860035Y-201991D01*
X10836813Y-196270D01*
X10779847Y-176337D01*
X10779850Y-176337D01*
X10610000Y-157201D01*
X10440151Y-176337D01*
X10336115Y-212741D01*
X10265210Y-216360D01*
X10203605Y-181071D01*
X10170859Y-118078D01*
X10168500Y-93812D01*
X10168500Y-92934D01*
X10170653Y-69738D01*
X10171361Y-65951D01*
X10171365Y-65940D01*
X10200663Y190448D01*
X10211413Y228871D01*
X10214702Y236007D01*
X10234826Y279679D01*
X10246163Y304281D01*
X10262747Y330930D01*
X10369898Y462995D01*
X10370215Y463388D01*
X10372429Y466141D01*
X10372516Y466249D01*
X10547503Y685551D01*
X10605624Y726321D01*
X10676563Y729197D01*
X10737795Y693264D01*
X10764046Y650996D01*
X10789111Y583796D01*
X10789112Y583793D01*
X10876738Y466739D01*
X10993792Y379113D01*
X10993794Y379112D01*
X10993796Y379111D01*
X11047600Y359043D01*
X11130795Y328012D01*
X11130803Y328010D01*
X11191350Y321501D01*
X11191355Y321501D01*
X11191362Y321500D01*
X11191368Y321500D01*
X12988632Y321500D01*
X12988638Y321500D01*
X12988645Y321501D01*
X12988649Y321501D01*
X13049196Y328010D01*
X13049199Y328011D01*
X13049201Y328011D01*
X13057041Y330935D01*
X13080446Y339665D01*
X13186204Y379111D01*
X13186799Y379556D01*
X13303261Y466739D01*
X13390887Y583793D01*
X13390887Y583794D01*
X13390889Y583796D01*
X13439696Y714652D01*
X13441988Y720796D01*
X13441990Y720804D01*
X13448499Y781351D01*
X13448500Y781368D01*
X13448500Y1002720D01*
X13468502Y1070841D01*
X13522158Y1117334D01*
X13592432Y1127438D01*
X13657012Y1097944D01*
X13675047Y1078655D01*
X13714991Y1025761D01*
X13717040Y1022968D01*
X13768441Y950785D01*
X13772340Y947067D01*
X13785938Y931811D01*
X13787299Y930009D01*
X13853032Y870086D01*
X13855017Y868236D01*
X13921654Y804697D01*
X13923252Y803670D01*
X13934437Y795075D01*
X13934471Y795118D01*
X13939125Y791603D01*
X14017643Y742987D01*
X14019389Y741886D01*
X14099746Y690244D01*
X14099751Y690241D01*
X14105080Y687494D01*
X14105040Y687418D01*
X14108398Y685723D01*
X14108566Y686058D01*
X14113773Y683466D01*
X14113782Y683460D01*
X14162462Y664602D01*
X14203129Y648848D01*
X14204439Y648332D01*
X14296279Y611564D01*
X14296281Y611564D01*
X14296283Y611563D01*
X14298314Y610966D01*
X14304434Y609509D01*
X14305333Y609254D01*
X14305345Y609249D01*
X14402951Y591004D01*
X14403586Y590884D01*
X14504151Y571500D01*
X14504154Y571500D01*
X14712715Y571500D01*
X14712718Y571500D01*
X14759300Y580209D01*
X14770443Y581780D01*
X14820739Y586581D01*
X14862552Y598859D01*
X14874891Y601817D01*
X14914655Y609249D01*
X14962078Y627622D01*
X14972059Y631013D01*
X15023862Y646223D01*
X15059514Y664605D01*
X15071715Y670095D01*
X15106218Y683460D01*
X15152404Y712059D01*
X15160977Y716913D01*
X15212026Y743229D01*
X15240835Y765886D01*
X15252377Y773960D01*
X15280882Y791608D01*
X15323576Y830529D01*
X15330561Y836447D01*
X15378432Y874092D01*
X15400168Y899178D01*
X15410489Y909762D01*
X15432701Y930009D01*
X15469602Y978876D01*
X15474922Y985448D01*
X15479910Y991204D01*
X15517065Y1034082D01*
X15531922Y1059818D01*
X15540485Y1072741D01*
X15556503Y1093950D01*
X15585347Y1151879D01*
X15588993Y1158669D01*
X15622913Y1217418D01*
X15631492Y1242207D01*
X15637770Y1257156D01*
X15640472Y1262582D01*
X15644331Y1270333D01*
X15692600Y1322395D01*
X15761355Y1340097D01*
X15828765Y1317817D01*
G37*
%TD.AperFunction*%
%TA.AperFunction,Conductor*%
G36*
X46462157Y1002697D02*
G01*
X46489853Y967865D01*
X46551757Y852984D01*
X46596269Y770379D01*
X46620841Y729456D01*
X46621261Y728824D01*
X46622039Y727655D01*
X46622045Y727647D01*
X46650296Y689201D01*
X46833671Y462521D01*
X46837153Y458263D01*
X46837194Y458213D01*
X46865012Y424570D01*
X46946151Y326437D01*
X46963078Y299743D01*
X46997836Y225786D01*
X47008955Y186772D01*
X47023244Y64056D01*
X47038740Y-69040D01*
X47040259Y-79775D01*
X47041500Y-97419D01*
X47041500Y-1133236D01*
X47021498Y-1201357D01*
X47004595Y-1222331D01*
X44920164Y-3306761D01*
X44900884Y-3322556D01*
X44890907Y-3329196D01*
X44883061Y-3336217D01*
X44836225Y-3362706D01*
X44811426Y-3370365D01*
X44811343Y-3370098D01*
X44741392Y-3371885D01*
X44680705Y-3335039D01*
X44649572Y-3271233D01*
X44647791Y-3250122D01*
X44647791Y173340D01*
X44667793Y241461D01*
X44721449Y287954D01*
X44774813Y299336D01*
X45050382Y297096D01*
X45093707Y299197D01*
X45108365Y299907D01*
X45108374Y299908D01*
X45108380Y299908D01*
X45108385Y299909D01*
X45108404Y299910D01*
X45110999Y300184D01*
X45110999Y300185D01*
X45111008Y300185D01*
X45168354Y309535D01*
X45218288Y320609D01*
X45224762Y321867D01*
X45444635Y358556D01*
X45549020Y394392D01*
X45557298Y396919D01*
X45576161Y401975D01*
X45578101Y402587D01*
X45595642Y410056D01*
X45604047Y413283D01*
X45657574Y431658D01*
X45855576Y538811D01*
X46033240Y677094D01*
X46185722Y842732D01*
X46273452Y977015D01*
X46327452Y1023098D01*
X46397799Y1032674D01*
X46462157Y1002697D01*
G37*
%TD.AperFunction*%
%TA.AperFunction,Conductor*%
G36*
X48996012Y1009384D02*
G01*
X49026547Y977014D01*
X49043683Y950785D01*
X49047377Y945132D01*
X49051202Y938887D01*
X49128320Y804381D01*
X49149162Y771054D01*
X49150171Y769569D01*
X49165152Y749280D01*
X49173887Y737451D01*
X49293174Y588394D01*
X49320121Y522712D01*
X49307279Y452886D01*
X49283893Y420572D01*
X48813852Y-49471D01*
X48473596Y-389727D01*
X48411283Y-423752D01*
X48340468Y-418688D01*
X48283632Y-376141D01*
X48258821Y-309621D01*
X48258500Y-300632D01*
X48258500Y-95432D01*
X48260704Y-71970D01*
X48261257Y-69051D01*
X48261257Y-69044D01*
X48261259Y-69040D01*
X48291043Y186769D01*
X48302163Y225786D01*
X48323810Y271848D01*
X48336919Y299742D01*
X48353846Y326437D01*
X48462775Y458180D01*
X48462843Y458263D01*
X48466300Y462490D01*
X48649700Y689198D01*
X48677953Y727647D01*
X48679157Y729456D01*
X48703728Y770378D01*
X48810148Y967873D01*
X48860066Y1018347D01*
X48929355Y1033824D01*
X48996012Y1009384D01*
G37*
%TD.AperFunction*%
%TD*%
%TA.AperFunction,Conductor*%
%TO.N,/VDD_3.3V*%
G36*
X37021199Y-7260652D02*
G01*
X37027514Y-7267001D01*
X37027629Y-7267290D01*
X37075867Y-7394102D01*
X37075979Y-7394410D01*
X37111234Y-7495532D01*
X37148422Y-7579384D01*
X37148423Y-7579387D01*
X37206642Y-7665343D01*
X37206647Y-7665349D01*
X37297491Y-7764656D01*
X37300546Y-7773073D01*
X37297131Y-7780826D01*
X37100752Y-7977205D01*
X37092479Y-7980632D01*
X37084663Y-7977638D01*
X36983933Y-7887202D01*
X36983924Y-7887195D01*
X36929653Y-7852925D01*
X36895785Y-7831538D01*
X36895782Y-7831537D01*
X36895781Y-7831536D01*
X36809456Y-7797634D01*
X36809431Y-7797626D01*
X36706152Y-7765131D01*
X36705606Y-7764944D01*
X36577436Y-7717563D01*
X36570864Y-7711480D01*
X36570519Y-7702532D01*
X36570652Y-7702189D01*
X36697437Y-7393806D01*
X36703748Y-7387461D01*
X37012247Y-7260629D01*
X37021199Y-7260652D01*
G37*
%TD.AperFunction*%
%TD*%
%TA.AperFunction,Conductor*%
%TO.N,Net-(USB1-CC1)*%
G36*
X10767204Y-9063427D02*
G01*
X10770613Y-9071052D01*
X10775813Y-9164804D01*
X10792679Y-9237582D01*
X10819735Y-9298389D01*
X10819738Y-9298394D01*
X10855976Y-9367014D01*
X10856249Y-9367565D01*
X10895879Y-9453313D01*
X10896239Y-9462260D01*
X10890167Y-9468842D01*
X10889775Y-9469014D01*
X10674517Y-9559109D01*
X10665563Y-9559142D01*
X10665483Y-9559109D01*
X10450224Y-9469014D01*
X10443915Y-9462658D01*
X10443948Y-9453704D01*
X10444098Y-9453362D01*
X10483757Y-9367549D01*
X10484011Y-9367034D01*
X10520262Y-9298392D01*
X10547319Y-9237582D01*
X10564186Y-9164804D01*
X10569387Y-9071052D01*
X10573267Y-9062981D01*
X10581069Y-9060000D01*
X10758931Y-9060000D01*
X10767204Y-9063427D01*
G37*
%TD.AperFunction*%
%TD*%
%TA.AperFunction,Conductor*%
%TO.N,/GPIO2*%
G36*
X44136495Y-3844506D02*
G01*
X44139904Y-3852131D01*
X44145104Y-3945883D01*
X44161970Y-4018661D01*
X44189026Y-4079468D01*
X44189029Y-4079473D01*
X44225267Y-4148093D01*
X44225540Y-4148644D01*
X44265170Y-4234392D01*
X44265530Y-4243339D01*
X44259458Y-4249921D01*
X44259066Y-4250093D01*
X44043808Y-4340188D01*
X44034854Y-4340221D01*
X44034774Y-4340188D01*
X43819515Y-4250093D01*
X43813206Y-4243737D01*
X43813239Y-4234783D01*
X43813389Y-4234441D01*
X43853048Y-4148628D01*
X43853302Y-4148113D01*
X43889553Y-4079471D01*
X43916610Y-4018661D01*
X43933477Y-3945883D01*
X43938678Y-3852131D01*
X43942558Y-3844060D01*
X43950360Y-3841079D01*
X44128222Y-3841079D01*
X44136495Y-3844506D01*
G37*
%TD.AperFunction*%
%TD*%
%TA.AperFunction,Conductor*%
%TO.N,/VDD_3.3V*%
G36*
X14216465Y-12903061D02*
G01*
X14387662Y-13047766D01*
X14387663Y-13047766D01*
X14387664Y-13047767D01*
X14537674Y-13121995D01*
X14537675Y-13121995D01*
X14537679Y-13121997D01*
X14686212Y-13157978D01*
X14860506Y-13194737D01*
X14861808Y-13195091D01*
X15078613Y-13267883D01*
X15085365Y-13273765D01*
X15085981Y-13282699D01*
X15085706Y-13283434D01*
X14882562Y-13776204D01*
X14876241Y-13782547D01*
X14876204Y-13782562D01*
X14383434Y-13985706D01*
X14374479Y-13985691D01*
X14368158Y-13979348D01*
X14367883Y-13978613D01*
X14295092Y-13761812D01*
X14294736Y-13760502D01*
X14257979Y-13586219D01*
X14257978Y-13586212D01*
X14221997Y-13437679D01*
X14147766Y-13287662D01*
X14003061Y-13116465D01*
X14000339Y-13107935D01*
X14003724Y-13100641D01*
X14200641Y-12903724D01*
X14208913Y-12900298D01*
X14216465Y-12903061D01*
G37*
%TD.AperFunction*%
%TD*%
%TA.AperFunction,Conductor*%
%TO.N,/VDD_3.3V*%
G36*
X49356011Y-14473454D02*
G01*
X49591750Y-14697068D01*
X49781832Y-14843711D01*
X49781836Y-14843713D01*
X49781839Y-14843716D01*
X49965649Y-14944528D01*
X49965655Y-14944531D01*
X49965665Y-14944536D01*
X50190923Y-15038535D01*
X50494314Y-15160300D01*
X50500715Y-15166562D01*
X50500814Y-15175516D01*
X50500770Y-15175624D01*
X50183696Y-15943466D01*
X50177371Y-15949805D01*
X50172872Y-15950700D01*
X49342536Y-15950010D01*
X49334266Y-15946576D01*
X49330846Y-15938300D01*
X49330874Y-15937494D01*
X49353433Y-15614728D01*
X49353536Y-15613795D01*
X49392624Y-15355219D01*
X49399195Y-15175516D01*
X49400610Y-15136823D01*
X49400608Y-15136815D01*
X49330562Y-14923017D01*
X49330561Y-14923016D01*
X49330561Y-14923014D01*
X49330558Y-14923010D01*
X49142109Y-14685917D01*
X49139644Y-14677308D01*
X49142994Y-14670365D01*
X49339689Y-14473670D01*
X49347961Y-14470244D01*
X49356011Y-14473454D01*
G37*
%TD.AperFunction*%
%TD*%
%TA.AperFunction,Conductor*%
%TO.N,/VDD_3.3V*%
G36*
X12864595Y-3761487D02*
G01*
X12864893Y-3761617D01*
X12989235Y-3818091D01*
X12989577Y-3818254D01*
X13086083Y-3866599D01*
X13171632Y-3901601D01*
X13273716Y-3922845D01*
X13408872Y-3929455D01*
X13416967Y-3933282D01*
X13420000Y-3941141D01*
X13420000Y-4218858D01*
X13416573Y-4227131D01*
X13408871Y-4230544D01*
X13273722Y-4237153D01*
X13273717Y-4237153D01*
X13214952Y-4249382D01*
X13171632Y-4258398D01*
X13086083Y-4293400D01*
X13026727Y-4323133D01*
X12989607Y-4341729D01*
X12989205Y-4341921D01*
X12864927Y-4398367D01*
X12855978Y-4398668D01*
X12849436Y-4392552D01*
X12849291Y-4392220D01*
X12781596Y-4230000D01*
X12720879Y-4084505D01*
X12720857Y-4075551D01*
X12720880Y-4075494D01*
X12849291Y-3767778D01*
X12855640Y-3761464D01*
X12864595Y-3761487D01*
G37*
%TD.AperFunction*%
%TD*%
%TA.AperFunction,Conductor*%
%TO.N,/CHIP_EN*%
G36*
X34265364Y-5448974D02*
G01*
X34481175Y-5537435D01*
X34487531Y-5543744D01*
X34487564Y-5543824D01*
X34576110Y-5759844D01*
X34576077Y-5768798D01*
X34569721Y-5775107D01*
X34569424Y-5775224D01*
X34482188Y-5808229D01*
X34481835Y-5808356D01*
X34409570Y-5833075D01*
X34409560Y-5833079D01*
X34349493Y-5859125D01*
X34349486Y-5859129D01*
X34287961Y-5900255D01*
X34219404Y-5962746D01*
X34210981Y-5965786D01*
X34203249Y-5962372D01*
X34077474Y-5836597D01*
X34074047Y-5828324D01*
X34076948Y-5820614D01*
X34138953Y-5749879D01*
X34176231Y-5685100D01*
X34197326Y-5621355D01*
X34217890Y-5545901D01*
X34218145Y-5545086D01*
X34249916Y-5455879D01*
X34255920Y-5449236D01*
X34264863Y-5448783D01*
X34265364Y-5448974D01*
G37*
%TD.AperFunction*%
%TD*%
%TA.AperFunction,Conductor*%
%TO.N,/SPICS0*%
G36*
X25105364Y-3612807D02*
G01*
X25106168Y-3614748D01*
X25384612Y-4506031D01*
X25383900Y-4514770D01*
X25347823Y-4586621D01*
X25309612Y-4675627D01*
X25271407Y-4777520D01*
X25233206Y-4892301D01*
X25197497Y-5011654D01*
X25191843Y-5018597D01*
X25186288Y-5020000D01*
X25003712Y-5020000D01*
X24995439Y-5016573D01*
X24992503Y-5011654D01*
X24986869Y-4992825D01*
X24956795Y-4892309D01*
X24918591Y-4777518D01*
X24880386Y-4675626D01*
X24842182Y-4586635D01*
X24806098Y-4514769D01*
X24805387Y-4506034D01*
X25083832Y-3614747D01*
X25089570Y-3607873D01*
X25098489Y-3607069D01*
X25105364Y-3612807D01*
G37*
%TD.AperFunction*%
%TD*%
%TA.AperFunction,Conductor*%
%TO.N,/GPIO1*%
G36*
X47654484Y1679137D02*
G01*
X48423349Y1359684D01*
X48429674Y1353345D01*
X48429665Y1344390D01*
X48429160Y1343329D01*
X48251681Y1013967D01*
X48250477Y1012158D01*
X48067156Y785546D01*
X48067077Y785450D01*
X47906578Y591338D01*
X47906574Y591331D01*
X47793054Y349775D01*
X47751205Y-9653D01*
X47746845Y-17474D01*
X47739584Y-20000D01*
X47560416Y-20000D01*
X47552143Y-16573D01*
X47548795Y-9653D01*
X47506944Y349775D01*
X47506945Y349775D01*
X47393423Y591331D01*
X47393422Y591333D01*
X47393421Y591334D01*
X47393421Y591335D01*
X47232896Y785478D01*
X47049521Y1012158D01*
X47048317Y1013967D01*
X46870838Y1343331D01*
X46869931Y1352238D01*
X46875589Y1359179D01*
X46876637Y1359678D01*
X47645511Y1679136D01*
X47654466Y1679144D01*
X47654484Y1679137D01*
G37*
%TD.AperFunction*%
%TD*%
%TA.AperFunction,Conductor*%
%TO.N,/VDD_3.3V*%
G36*
X39858616Y-3749788D02*
G01*
X40167038Y-3876589D01*
X40173387Y-3882904D01*
X40173410Y-3882961D01*
X40300196Y-4191348D01*
X40300173Y-4200303D01*
X40293824Y-4206618D01*
X40293486Y-4206751D01*
X40165684Y-4254720D01*
X40165264Y-4254868D01*
X40062888Y-4288907D01*
X40062880Y-4288910D01*
X39977641Y-4324650D01*
X39890432Y-4381815D01*
X39790192Y-4472708D01*
X39781761Y-4475727D01*
X39774060Y-4472314D01*
X39577685Y-4275939D01*
X39574258Y-4267666D01*
X39577291Y-4259807D01*
X39581770Y-4254868D01*
X39668185Y-4159564D01*
X39725347Y-4072358D01*
X39761089Y-3987115D01*
X39795133Y-3884727D01*
X39795281Y-3884307D01*
X39798178Y-3876589D01*
X39843249Y-3756509D01*
X39849363Y-3749970D01*
X39858312Y-3749669D01*
X39858616Y-3749788D01*
G37*
%TD.AperFunction*%
%TD*%
%TA.AperFunction,Conductor*%
%TO.N,/VDD_3.3V*%
G36*
X46494478Y-7130868D02*
G01*
X46802220Y-7259291D01*
X46808535Y-7265640D01*
X46808512Y-7274595D01*
X46808367Y-7274927D01*
X46751921Y-7399205D01*
X46751729Y-7399607D01*
X46703400Y-7496083D01*
X46668398Y-7581632D01*
X46659382Y-7624952D01*
X46647153Y-7683717D01*
X46647153Y-7683722D01*
X46640544Y-7818871D01*
X46636717Y-7826967D01*
X46628858Y-7830000D01*
X46351142Y-7830000D01*
X46342869Y-7826573D01*
X46339456Y-7818872D01*
X46332845Y-7683721D01*
X46332845Y-7683717D01*
X46332845Y-7683716D01*
X46311601Y-7581632D01*
X46276599Y-7496083D01*
X46228254Y-7399577D01*
X46228091Y-7399235D01*
X46171631Y-7274925D01*
X46171331Y-7265978D01*
X46177447Y-7259436D01*
X46177754Y-7259301D01*
X46485494Y-7130879D01*
X46494449Y-7130857D01*
X46494478Y-7130868D01*
G37*
%TD.AperFunction*%
%TD*%
%TA.AperFunction,Conductor*%
%TO.N,/SPID*%
G36*
X29228085Y-10333459D02*
G01*
X29228255Y-10333633D01*
X29283000Y-10390882D01*
X29345999Y-10445323D01*
X29409000Y-10488323D01*
X29472000Y-10519882D01*
X29472002Y-10519882D01*
X29472003Y-10519883D01*
X29526859Y-10537401D01*
X29533698Y-10543182D01*
X29535000Y-10548546D01*
X29535000Y-10731453D01*
X29531573Y-10739726D01*
X29526859Y-10742598D01*
X29472003Y-10760115D01*
X29409007Y-10791671D01*
X29409003Y-10791673D01*
X29346002Y-10834674D01*
X29282995Y-10889121D01*
X29228255Y-10946366D01*
X29220061Y-10949977D01*
X29211713Y-10946736D01*
X29211539Y-10946566D01*
X28912311Y-10648285D01*
X28908872Y-10640019D01*
X28912286Y-10631740D01*
X28912312Y-10631714D01*
X29004317Y-10540000D01*
X29211541Y-10333432D01*
X29219818Y-10330019D01*
X29228085Y-10333459D01*
G37*
%TD.AperFunction*%
%TD*%
%TA.AperFunction,Conductor*%
%TO.N,/VDD_3.3V*%
G36*
X46360562Y-6817451D02*
G01*
X46360741Y-6817858D01*
X46489119Y-7125494D01*
X46489142Y-7134449D01*
X46489119Y-7134506D01*
X46360679Y-7442290D01*
X46354330Y-7448605D01*
X46345375Y-7448582D01*
X46345110Y-7448467D01*
X46221546Y-7393278D01*
X46221292Y-7393161D01*
X46124882Y-7347314D01*
X46124880Y-7347313D01*
X46039261Y-7315140D01*
X45937362Y-7296202D01*
X45937358Y-7296201D01*
X45937354Y-7296201D01*
X45803190Y-7290477D01*
X45795071Y-7286701D01*
X45791989Y-7278788D01*
X45791989Y-7001064D01*
X45795416Y-6992791D01*
X45803034Y-6989382D01*
X45938229Y-6981825D01*
X46039748Y-6958142D01*
X46086624Y-6937175D01*
X46124555Y-6920211D01*
X46124558Y-6920209D01*
X46138207Y-6912976D01*
X46220385Y-6869434D01*
X46220908Y-6869173D01*
X46345031Y-6811744D01*
X46353977Y-6811382D01*
X46360562Y-6817451D01*
G37*
%TD.AperFunction*%
%TD*%
%TA.AperFunction,Conductor*%
%TO.N,/VDD_3.3V*%
G36*
X11557131Y-6098927D02*
G01*
X11560544Y-6106628D01*
X11567153Y-6241776D01*
X11567153Y-6241780D01*
X11576169Y-6285102D01*
X11588398Y-6343867D01*
X11623400Y-6429416D01*
X11671729Y-6525891D01*
X11671921Y-6526293D01*
X11728367Y-6650572D01*
X11728668Y-6659521D01*
X11722552Y-6666063D01*
X11722220Y-6666208D01*
X11414506Y-6794619D01*
X11405551Y-6794642D01*
X11405494Y-6794619D01*
X11097779Y-6666208D01*
X11091464Y-6659859D01*
X11091487Y-6650904D01*
X11091607Y-6650629D01*
X11148100Y-6526243D01*
X11148244Y-6525942D01*
X11196599Y-6429416D01*
X11231601Y-6343867D01*
X11252845Y-6241782D01*
X11259456Y-6106628D01*
X11263283Y-6098533D01*
X11271142Y-6095500D01*
X11548858Y-6095500D01*
X11557131Y-6098927D01*
G37*
%TD.AperFunction*%
%TD*%
%TA.AperFunction,Conductor*%
%TO.N,/VDD_3.3V*%
G36*
X27783974Y-2143427D02*
G01*
X27787099Y-2149058D01*
X27813201Y-2261677D01*
X27841413Y-2373501D01*
X27869611Y-2475368D01*
X27897817Y-2567366D01*
X27924775Y-2645825D01*
X27924878Y-2653116D01*
X27646168Y-3545251D01*
X27640430Y-3552126D01*
X27631511Y-3552930D01*
X27624636Y-3547192D01*
X27623832Y-3545251D01*
X27548352Y-3303646D01*
X27345121Y-2653113D01*
X27345223Y-2645828D01*
X27372182Y-2567364D01*
X27400386Y-2475373D01*
X27428591Y-2373481D01*
X27456795Y-2261690D01*
X27482901Y-2149058D01*
X27488108Y-2141772D01*
X27494299Y-2140000D01*
X27775701Y-2140000D01*
X27783974Y-2143427D01*
G37*
%TD.AperFunction*%
%TD*%
%TA.AperFunction,Conductor*%
%TO.N,/CHIP_EN*%
G36*
X37510669Y-5123562D02*
G01*
X37636436Y-5249329D01*
X37639863Y-5257602D01*
X37636882Y-5265404D01*
X37574265Y-5335377D01*
X37534730Y-5398763D01*
X37534728Y-5398766D01*
X37510862Y-5460899D01*
X37487967Y-5535035D01*
X37487769Y-5535622D01*
X37455159Y-5624281D01*
X37449087Y-5630863D01*
X37440139Y-5631223D01*
X37439741Y-5631068D01*
X37223824Y-5542564D01*
X37217468Y-5536255D01*
X37217435Y-5536175D01*
X37217208Y-5535622D01*
X37128931Y-5320257D01*
X37128964Y-5311304D01*
X37135320Y-5304995D01*
X37135690Y-5304850D01*
X37224390Y-5272222D01*
X37224946Y-5272035D01*
X37299104Y-5249135D01*
X37361234Y-5225268D01*
X37424623Y-5185732D01*
X37494597Y-5123114D01*
X37503044Y-5120153D01*
X37510669Y-5123562D01*
G37*
%TD.AperFunction*%
%TD*%
%TA.AperFunction,Conductor*%
%TO.N,Net-(USB1-CC2)*%
G36*
X17940241Y-8028924D02*
G01*
X18156175Y-8117435D01*
X18162531Y-8123744D01*
X18162564Y-8123824D01*
X18251068Y-8339741D01*
X18251035Y-8348695D01*
X18244679Y-8355004D01*
X18244281Y-8355159D01*
X18155622Y-8387769D01*
X18155035Y-8387967D01*
X18080899Y-8410862D01*
X18018766Y-8434728D01*
X18018763Y-8434730D01*
X17955377Y-8474265D01*
X17885404Y-8536882D01*
X17876954Y-8539845D01*
X17869329Y-8536436D01*
X17743562Y-8410669D01*
X17740135Y-8402396D01*
X17743114Y-8394597D01*
X17805732Y-8324623D01*
X17845268Y-8261234D01*
X17869135Y-8199104D01*
X17892035Y-8124946D01*
X17892228Y-8124375D01*
X17892431Y-8123824D01*
X17924840Y-8035716D01*
X17930913Y-8029136D01*
X17939860Y-8028776D01*
X17940241Y-8028924D01*
G37*
%TD.AperFunction*%
%TD*%
%TA.AperFunction,Conductor*%
%TO.N,/SPICS0*%
G36*
X28784772Y-14651808D02*
G01*
X29060348Y-14875459D01*
X29302018Y-14974625D01*
X29302021Y-14974625D01*
X29302023Y-14974626D01*
X29467970Y-14999430D01*
X29542676Y-15010597D01*
X29822482Y-15051177D01*
X29824289Y-15051588D01*
X30173087Y-15160881D01*
X30179957Y-15166625D01*
X30180754Y-15175544D01*
X30180403Y-15176512D01*
X29862562Y-15946214D01*
X29856237Y-15952553D01*
X29856214Y-15952562D01*
X29086840Y-16270268D01*
X29077885Y-16270259D01*
X29071560Y-16263920D01*
X29071118Y-16262647D01*
X28983158Y-15952562D01*
X28967969Y-15899015D01*
X28967548Y-15896536D01*
X28949736Y-15599659D01*
X28949726Y-15599447D01*
X28941423Y-15341179D01*
X28863100Y-15083311D01*
X28863099Y-15083310D01*
X28863099Y-15083308D01*
X28703434Y-14875459D01*
X28641416Y-14794724D01*
X28639094Y-14786078D01*
X28642421Y-14779327D01*
X28769128Y-14652620D01*
X28777400Y-14649194D01*
X28784772Y-14651808D01*
G37*
%TD.AperFunction*%
%TD*%
%TA.AperFunction,Conductor*%
%TO.N,/VDD_3.3V*%
G36*
X14782559Y-15473446D02*
G01*
X14788797Y-15479706D01*
X14879109Y-15695483D01*
X14879142Y-15704437D01*
X14879109Y-15704517D01*
X14788797Y-15920293D01*
X14782441Y-15926602D01*
X14773604Y-15926617D01*
X14688939Y-15892255D01*
X14688911Y-15892244D01*
X14619108Y-15868385D01*
X14619099Y-15868383D01*
X14619096Y-15868382D01*
X14619095Y-15868382D01*
X14556533Y-15855777D01*
X14519734Y-15853311D01*
X14482938Y-15850846D01*
X14391604Y-15850095D01*
X14383359Y-15846600D01*
X14380000Y-15838395D01*
X14380000Y-15561604D01*
X14383427Y-15553331D01*
X14391602Y-15549904D01*
X14482936Y-15549153D01*
X14556533Y-15544222D01*
X14619095Y-15531616D01*
X14619103Y-15531613D01*
X14619108Y-15531612D01*
X14688903Y-15507756D01*
X14688905Y-15507754D01*
X14688926Y-15507748D01*
X14773605Y-15473382D01*
X14782559Y-15473446D01*
G37*
%TD.AperFunction*%
%TD*%
%TA.AperFunction,Conductor*%
%TO.N,/VDD_3.3V*%
G36*
X11414478Y-6796368D02*
G01*
X11722220Y-6924791D01*
X11728535Y-6931140D01*
X11728512Y-6940095D01*
X11728367Y-6940427D01*
X11671921Y-7064705D01*
X11671729Y-7065107D01*
X11623400Y-7161583D01*
X11588398Y-7247132D01*
X11579382Y-7290452D01*
X11567153Y-7349217D01*
X11567153Y-7349222D01*
X11560544Y-7484371D01*
X11556717Y-7492467D01*
X11548858Y-7495500D01*
X11271142Y-7495500D01*
X11262869Y-7492073D01*
X11259456Y-7484372D01*
X11252845Y-7349221D01*
X11252845Y-7349217D01*
X11252845Y-7349216D01*
X11231601Y-7247132D01*
X11196599Y-7161583D01*
X11148254Y-7065077D01*
X11148091Y-7064735D01*
X11091631Y-6940425D01*
X11091331Y-6931478D01*
X11097447Y-6924936D01*
X11097754Y-6924801D01*
X11405494Y-6796379D01*
X11414449Y-6796357D01*
X11414478Y-6796368D01*
G37*
%TD.AperFunction*%
%TD*%
%TA.AperFunction,Conductor*%
%TO.N,/GPIO1*%
G36*
X45249407Y-3712300D02*
G01*
X45375174Y-3838068D01*
X45378601Y-3846341D01*
X45375620Y-3854143D01*
X45313003Y-3924116D01*
X45273468Y-3987502D01*
X45273466Y-3987505D01*
X45249600Y-4049637D01*
X45226705Y-4123774D01*
X45226507Y-4124361D01*
X45193897Y-4213019D01*
X45187825Y-4219601D01*
X45178877Y-4219961D01*
X45178479Y-4219806D01*
X44962562Y-4131302D01*
X44956206Y-4124993D01*
X44956173Y-4124913D01*
X44925317Y-4049637D01*
X44867669Y-3908995D01*
X44867702Y-3900042D01*
X44874058Y-3893733D01*
X44874428Y-3893588D01*
X44963128Y-3860960D01*
X44963684Y-3860773D01*
X45037842Y-3837873D01*
X45099972Y-3814006D01*
X45163361Y-3774470D01*
X45233335Y-3711852D01*
X45241782Y-3708891D01*
X45249407Y-3712300D01*
G37*
%TD.AperFunction*%
%TD*%
%TA.AperFunction,Conductor*%
%TO.N,/VDD_3.3V*%
G36*
X15700563Y-3767447D02*
G01*
X15700708Y-3767779D01*
X15829119Y-4075494D01*
X15829142Y-4084449D01*
X15829119Y-4084506D01*
X15700708Y-4392220D01*
X15694359Y-4398535D01*
X15685404Y-4398512D01*
X15685072Y-4398367D01*
X15560793Y-4341921D01*
X15560391Y-4341729D01*
X15463916Y-4293400D01*
X15378367Y-4258398D01*
X15294110Y-4240864D01*
X15276278Y-4237153D01*
X15141128Y-4230544D01*
X15133033Y-4226717D01*
X15130000Y-4218858D01*
X15130000Y-3941141D01*
X15133427Y-3932868D01*
X15141126Y-3929455D01*
X15276282Y-3922845D01*
X15378367Y-3901601D01*
X15463916Y-3866599D01*
X15560442Y-3818244D01*
X15560743Y-3818100D01*
X15685074Y-3761631D01*
X15694021Y-3761331D01*
X15700563Y-3767447D01*
G37*
%TD.AperFunction*%
%TD*%
%TA.AperFunction,Conductor*%
%TO.N,/SPICLK*%
G36*
X31324772Y-14651808D02*
G01*
X31600348Y-14875459D01*
X31842018Y-14974625D01*
X31842021Y-14974625D01*
X31842023Y-14974626D01*
X32007970Y-14999430D01*
X32082676Y-15010597D01*
X32362482Y-15051177D01*
X32364289Y-15051588D01*
X32713087Y-15160881D01*
X32719957Y-15166625D01*
X32720754Y-15175544D01*
X32720403Y-15176512D01*
X32402562Y-15946214D01*
X32396237Y-15952553D01*
X32396214Y-15952562D01*
X31626840Y-16270268D01*
X31617885Y-16270259D01*
X31611560Y-16263920D01*
X31611118Y-16262647D01*
X31523158Y-15952562D01*
X31507969Y-15899015D01*
X31507548Y-15896536D01*
X31489736Y-15599659D01*
X31489726Y-15599447D01*
X31481423Y-15341179D01*
X31403100Y-15083311D01*
X31403099Y-15083310D01*
X31403099Y-15083308D01*
X31243434Y-14875459D01*
X31181416Y-14794724D01*
X31179094Y-14786078D01*
X31182421Y-14779327D01*
X31309128Y-14652620D01*
X31317400Y-14649194D01*
X31324772Y-14651808D01*
G37*
%TD.AperFunction*%
%TD*%
%TA.AperFunction,Conductor*%
%TO.N,/VDD_5V*%
G36*
X19025414Y-14380973D02*
G01*
X19314856Y-14639217D01*
X19314872Y-14639230D01*
X19551166Y-14799015D01*
X19551184Y-14799026D01*
X19766666Y-14923340D01*
X19767373Y-14923782D01*
X20002696Y-15082911D01*
X20003931Y-15083873D01*
X20291810Y-15340723D01*
X20295702Y-15348788D01*
X20292751Y-15357242D01*
X20292304Y-15357716D01*
X19704139Y-15947265D01*
X19695870Y-15950702D01*
X19695846Y-15950702D01*
X18862536Y-15950010D01*
X18854266Y-15946576D01*
X18850846Y-15938300D01*
X18850874Y-15937519D01*
X18872566Y-15627777D01*
X18872666Y-15626867D01*
X18910343Y-15378331D01*
X18918148Y-15168409D01*
X18850933Y-14962903D01*
X18850932Y-14962902D01*
X18850932Y-14962901D01*
X18670108Y-14735339D01*
X18667644Y-14726730D01*
X18670994Y-14719788D01*
X19009353Y-14381429D01*
X19017625Y-14378003D01*
X19025414Y-14380973D01*
G37*
%TD.AperFunction*%
%TD*%
%TA.AperFunction,Conductor*%
%TO.N,/VDD_3.3V*%
G36*
X38246786Y-5606838D02*
G01*
X38443161Y-5803213D01*
X38446588Y-5811486D01*
X38443555Y-5819345D01*
X38352662Y-5919585D01*
X38295497Y-6006794D01*
X38259757Y-6092033D01*
X38259754Y-6092041D01*
X38225715Y-6194417D01*
X38225567Y-6194837D01*
X38177598Y-6322639D01*
X38171482Y-6329181D01*
X38162533Y-6329482D01*
X38162195Y-6329349D01*
X37853808Y-6202563D01*
X37847460Y-6196249D01*
X37720649Y-5887801D01*
X37720672Y-5878848D01*
X37727021Y-5872533D01*
X37727284Y-5872429D01*
X37855162Y-5824431D01*
X37855574Y-5824286D01*
X37957953Y-5790245D01*
X37957953Y-5790244D01*
X37957962Y-5790242D01*
X38043205Y-5754500D01*
X38130411Y-5697338D01*
X38230654Y-5606443D01*
X38239085Y-5603425D01*
X38246786Y-5606838D01*
G37*
%TD.AperFunction*%
%TD*%
%TA.AperFunction,Conductor*%
%TO.N,/SPIQ*%
G36*
X26375364Y-3612807D02*
G01*
X26376168Y-3614748D01*
X26654612Y-4506031D01*
X26653900Y-4514770D01*
X26617823Y-4586621D01*
X26579612Y-4675627D01*
X26541407Y-4777520D01*
X26503206Y-4892301D01*
X26467497Y-5011654D01*
X26461843Y-5018597D01*
X26456288Y-5020000D01*
X26273712Y-5020000D01*
X26265439Y-5016573D01*
X26262503Y-5011654D01*
X26256869Y-4992825D01*
X26226795Y-4892309D01*
X26188591Y-4777518D01*
X26150386Y-4675626D01*
X26112182Y-4586635D01*
X26076098Y-4514769D01*
X26075387Y-4506034D01*
X26353832Y-3614747D01*
X26359570Y-3607873D01*
X26368489Y-3607069D01*
X26375364Y-3612807D01*
G37*
%TD.AperFunction*%
%TD*%
%TA.AperFunction,Conductor*%
%TO.N,/U0RXD*%
G36*
X43994027Y-9764648D02*
G01*
X43994199Y-9765039D01*
X44084294Y-9980298D01*
X44084327Y-9989252D01*
X44084294Y-9989332D01*
X43994199Y-10204590D01*
X43987843Y-10210899D01*
X43978889Y-10210866D01*
X43978525Y-10210706D01*
X43892750Y-10171064D01*
X43892199Y-10170791D01*
X43823579Y-10134553D01*
X43823574Y-10134550D01*
X43762767Y-10107494D01*
X43689989Y-10090628D01*
X43596237Y-10085428D01*
X43588166Y-10081548D01*
X43585185Y-10073746D01*
X43585185Y-9895883D01*
X43588612Y-9887610D01*
X43596234Y-9884202D01*
X43689989Y-9879001D01*
X43762767Y-9862134D01*
X43823577Y-9835077D01*
X43892219Y-9798826D01*
X43892734Y-9798572D01*
X43978500Y-9758934D01*
X43987445Y-9758575D01*
X43994027Y-9764648D01*
G37*
%TD.AperFunction*%
%TD*%
%TA.AperFunction,Conductor*%
%TO.N,/VDD_3.3V*%
G36*
X25418198Y-10331871D02*
G01*
X25472987Y-10377790D01*
X25473008Y-10377806D01*
X25536002Y-10420702D01*
X25556250Y-10431307D01*
X25599000Y-10453700D01*
X25662000Y-10476800D01*
X25715699Y-10488051D01*
X25723094Y-10493101D01*
X25725000Y-10499502D01*
X25725000Y-10780497D01*
X25721573Y-10788770D01*
X25715699Y-10791948D01*
X25661999Y-10803200D01*
X25599003Y-10826298D01*
X25598995Y-10826301D01*
X25536003Y-10859297D01*
X25472997Y-10902201D01*
X25472990Y-10902207D01*
X25418198Y-10948128D01*
X25409656Y-10950816D01*
X25402423Y-10947447D01*
X25102312Y-10648286D01*
X25098872Y-10640019D01*
X25102286Y-10631740D01*
X25102312Y-10631714D01*
X25402424Y-10332551D01*
X25410702Y-10329138D01*
X25418198Y-10331871D01*
G37*
%TD.AperFunction*%
%TD*%
%TA.AperFunction,Conductor*%
%TO.N,/DTR*%
G36*
X20760241Y-6268924D02*
G01*
X20976175Y-6357435D01*
X20982531Y-6363744D01*
X20982564Y-6363824D01*
X21071068Y-6579741D01*
X21071035Y-6588695D01*
X21064679Y-6595004D01*
X21064281Y-6595159D01*
X20975622Y-6627769D01*
X20975035Y-6627967D01*
X20900899Y-6650862D01*
X20838766Y-6674728D01*
X20838763Y-6674730D01*
X20775377Y-6714265D01*
X20705404Y-6776882D01*
X20696954Y-6779845D01*
X20689329Y-6776436D01*
X20563562Y-6650669D01*
X20560135Y-6642396D01*
X20563114Y-6634597D01*
X20625732Y-6564623D01*
X20665268Y-6501234D01*
X20689135Y-6439104D01*
X20712035Y-6364946D01*
X20712228Y-6364375D01*
X20712431Y-6363824D01*
X20744840Y-6275716D01*
X20750913Y-6269136D01*
X20759860Y-6268776D01*
X20760241Y-6268924D01*
G37*
%TD.AperFunction*%
%TD*%
%TA.AperFunction,Conductor*%
%TO.N,/U0RXD*%
G36*
X10834751Y-2388883D02*
G01*
X10839774Y-2390985D01*
X10846083Y-2397341D01*
X10846050Y-2406295D01*
X10845878Y-2406687D01*
X10806247Y-2492435D01*
X10805972Y-2492990D01*
X10769738Y-2561604D01*
X10769735Y-2561609D01*
X10742679Y-2622415D01*
X10725813Y-2695194D01*
X10720613Y-2788948D01*
X10716733Y-2797019D01*
X10708931Y-2800000D01*
X10531069Y-2800000D01*
X10522796Y-2796573D01*
X10519387Y-2788948D01*
X10518872Y-2779677D01*
X10514186Y-2695195D01*
X10497319Y-2622416D01*
X10470262Y-2561607D01*
X10434019Y-2492977D01*
X10433756Y-2492448D01*
X10394119Y-2406684D01*
X10393760Y-2397739D01*
X10399832Y-2391157D01*
X10400183Y-2391002D01*
X10615484Y-2300889D01*
X10624437Y-2300857D01*
X10834751Y-2388883D01*
G37*
%TD.AperFunction*%
%TD*%
%TA.AperFunction,Conductor*%
%TO.N,/VDD_3.3V*%
G36*
X44803614Y-5256480D02*
G01*
X45112036Y-5383281D01*
X45118385Y-5389596D01*
X45118408Y-5389653D01*
X45245194Y-5698040D01*
X45245171Y-5706995D01*
X45238822Y-5713310D01*
X45238484Y-5713443D01*
X45110682Y-5761412D01*
X45110262Y-5761560D01*
X45007886Y-5795599D01*
X45007878Y-5795602D01*
X44922639Y-5831342D01*
X44835430Y-5888507D01*
X44735190Y-5979400D01*
X44726759Y-5982419D01*
X44719058Y-5979006D01*
X44522683Y-5782631D01*
X44519256Y-5774358D01*
X44522289Y-5766499D01*
X44526768Y-5761560D01*
X44613183Y-5666256D01*
X44670345Y-5579050D01*
X44706087Y-5493807D01*
X44740131Y-5391419D01*
X44740279Y-5390999D01*
X44743176Y-5383281D01*
X44788247Y-5263201D01*
X44794361Y-5256662D01*
X44803310Y-5256361D01*
X44803614Y-5256480D01*
G37*
%TD.AperFunction*%
%TD*%
%TA.AperFunction,Conductor*%
%TO.N,/U0RXD*%
G36*
X10716251Y-694553D02*
G01*
X10716734Y-694767D01*
X10802292Y-735276D01*
X10803050Y-735671D01*
X10870974Y-774188D01*
X10870994Y-774199D01*
X10871010Y-774208D01*
X10871015Y-774210D01*
X10871027Y-774217D01*
X10902193Y-789693D01*
X10931088Y-804043D01*
X10970327Y-814460D01*
X11003313Y-823219D01*
X11003314Y-823219D01*
X11003318Y-823220D01*
X11097167Y-829291D01*
X11105200Y-833245D01*
X11108110Y-840967D01*
X11108110Y-1018839D01*
X11104683Y-1027112D01*
X11096962Y-1030526D01*
X11004192Y-1034910D01*
X11004184Y-1034911D01*
X10931578Y-1049591D01*
X10870692Y-1073960D01*
X10870679Y-1073966D01*
X10802100Y-1107857D01*
X10801738Y-1108029D01*
X10716637Y-1146510D01*
X10707686Y-1146796D01*
X10701155Y-1140670D01*
X10701023Y-1140366D01*
X10687489Y-1108029D01*
X10610889Y-925015D01*
X10610857Y-916063D01*
X10700942Y-700827D01*
X10707297Y-694520D01*
X10716251Y-694553D01*
G37*
%TD.AperFunction*%
%TD*%
%TA.AperFunction,Conductor*%
%TO.N,/VDD_3.3V*%
G36*
X26057576Y-10332552D02*
G01*
X26357687Y-10631714D01*
X26361127Y-10639981D01*
X26357713Y-10648260D01*
X26357687Y-10648286D01*
X26057576Y-10947447D01*
X26049297Y-10950861D01*
X26041801Y-10948128D01*
X25987009Y-10902207D01*
X25987002Y-10902201D01*
X25923995Y-10859297D01*
X25861003Y-10826301D01*
X25860995Y-10826298D01*
X25798000Y-10803200D01*
X25744301Y-10791948D01*
X25736906Y-10786898D01*
X25735000Y-10780497D01*
X25735000Y-10499502D01*
X25738427Y-10491229D01*
X25744300Y-10488051D01*
X25798000Y-10476800D01*
X25860999Y-10453700D01*
X25924000Y-10420700D01*
X25987000Y-10377800D01*
X26041802Y-10331870D01*
X26050342Y-10329183D01*
X26057576Y-10332552D01*
G37*
%TD.AperFunction*%
%TD*%
%TA.AperFunction,Conductor*%
%TO.N,/GPIO9{slash}BOOT*%
G36*
X31927469Y-4446762D02*
G01*
X32053236Y-4572529D01*
X32056663Y-4580802D01*
X32053682Y-4588604D01*
X31991065Y-4658577D01*
X31951530Y-4721963D01*
X31951528Y-4721966D01*
X31927662Y-4784099D01*
X31904767Y-4858235D01*
X31904569Y-4858822D01*
X31871959Y-4947481D01*
X31865887Y-4954063D01*
X31856939Y-4954423D01*
X31856541Y-4954268D01*
X31640624Y-4865764D01*
X31634268Y-4859455D01*
X31634235Y-4859375D01*
X31634008Y-4858822D01*
X31545731Y-4643457D01*
X31545764Y-4634504D01*
X31552120Y-4628195D01*
X31552490Y-4628050D01*
X31641190Y-4595422D01*
X31641746Y-4595235D01*
X31715904Y-4572335D01*
X31778034Y-4548468D01*
X31841423Y-4508932D01*
X31911397Y-4446314D01*
X31919844Y-4443353D01*
X31927469Y-4446762D01*
G37*
%TD.AperFunction*%
%TD*%
%TA.AperFunction,Conductor*%
%TO.N,/VDD_3.3V*%
G36*
X18020563Y-1706947D02*
G01*
X18020710Y-1707283D01*
X18149119Y-2014994D01*
X18149142Y-2023949D01*
X18149119Y-2024006D01*
X18020707Y-2331724D01*
X18014358Y-2338039D01*
X18005403Y-2338016D01*
X18005074Y-2337872D01*
X17880838Y-2281492D01*
X17880443Y-2281304D01*
X17783970Y-2233099D01*
X17783951Y-2233090D01*
X17698406Y-2198233D01*
X17698407Y-2198233D01*
X17596333Y-2177106D01*
X17596335Y-2177106D01*
X17461231Y-2170540D01*
X17453134Y-2166716D01*
X17450099Y-2158854D01*
X17450099Y-1881137D01*
X17453526Y-1872864D01*
X17461220Y-1869452D01*
X17596379Y-1862794D01*
X17698435Y-1841428D01*
X17783948Y-1806279D01*
X17880413Y-1757816D01*
X17880785Y-1757639D01*
X18005071Y-1701137D01*
X18014020Y-1700834D01*
X18020563Y-1706947D01*
G37*
%TD.AperFunction*%
%TD*%
%TA.AperFunction,Conductor*%
%TO.N,/VDD_3.3V*%
G36*
X16226786Y-3486838D02*
G01*
X16423161Y-3683213D01*
X16426588Y-3691486D01*
X16423555Y-3699345D01*
X16332662Y-3799585D01*
X16275497Y-3886794D01*
X16239757Y-3972033D01*
X16239754Y-3972041D01*
X16205715Y-4074417D01*
X16205567Y-4074837D01*
X16157598Y-4202639D01*
X16151482Y-4209181D01*
X16142533Y-4209482D01*
X16142195Y-4209349D01*
X15833808Y-4082563D01*
X15827460Y-4076249D01*
X15700649Y-3767801D01*
X15700672Y-3758848D01*
X15707021Y-3752533D01*
X15707284Y-3752429D01*
X15835162Y-3704431D01*
X15835574Y-3704286D01*
X15937953Y-3670245D01*
X15937953Y-3670244D01*
X15937962Y-3670242D01*
X16023205Y-3634500D01*
X16110411Y-3577338D01*
X16210654Y-3486443D01*
X16219085Y-3483425D01*
X16226786Y-3486838D01*
G37*
%TD.AperFunction*%
%TD*%
%TA.AperFunction,Conductor*%
%TO.N,/DTR*%
G36*
X15186295Y-9373948D02*
G01*
X15186635Y-9374097D01*
X15272448Y-9413756D01*
X15272977Y-9414019D01*
X15341607Y-9450262D01*
X15341609Y-9450263D01*
X15402415Y-9477319D01*
X15419282Y-9481227D01*
X15475195Y-9494186D01*
X15568950Y-9499387D01*
X15577019Y-9503266D01*
X15580000Y-9511068D01*
X15580000Y-9688931D01*
X15576573Y-9697204D01*
X15568948Y-9700613D01*
X15475194Y-9705813D01*
X15402415Y-9722679D01*
X15341609Y-9749735D01*
X15341604Y-9749738D01*
X15272990Y-9785972D01*
X15272435Y-9786247D01*
X15186687Y-9825878D01*
X15177739Y-9826238D01*
X15171157Y-9820166D01*
X15170985Y-9819774D01*
X15141671Y-9749737D01*
X15080889Y-9604515D01*
X15080857Y-9595563D01*
X15170986Y-9380222D01*
X15177341Y-9373915D01*
X15186295Y-9373948D01*
G37*
%TD.AperFunction*%
%TD*%
%TA.AperFunction,Conductor*%
%TO.N,/CHIP_EN*%
G36*
X40578842Y-2979833D02*
G01*
X40579014Y-2980224D01*
X40669109Y-3195483D01*
X40669142Y-3204437D01*
X40669109Y-3204517D01*
X40579014Y-3419775D01*
X40572658Y-3426084D01*
X40563704Y-3426051D01*
X40563340Y-3425891D01*
X40477565Y-3386249D01*
X40477014Y-3385976D01*
X40408394Y-3349738D01*
X40408389Y-3349735D01*
X40347582Y-3322679D01*
X40274804Y-3305813D01*
X40181052Y-3300613D01*
X40172981Y-3296733D01*
X40170000Y-3288931D01*
X40170000Y-3111068D01*
X40173427Y-3102795D01*
X40181049Y-3099387D01*
X40274804Y-3094186D01*
X40347582Y-3077319D01*
X40408392Y-3050262D01*
X40477034Y-3014011D01*
X40477549Y-3013757D01*
X40563315Y-2974119D01*
X40572260Y-2973760D01*
X40578842Y-2979833D01*
G37*
%TD.AperFunction*%
%TD*%
%TA.AperFunction,Conductor*%
%TO.N,Net-(USB1-CC1)*%
G36*
X9588695Y-5808964D02*
G01*
X9595004Y-5815320D01*
X9595159Y-5815718D01*
X9627769Y-5904375D01*
X9627967Y-5904962D01*
X9650862Y-5979099D01*
X9674728Y-6041231D01*
X9674730Y-6041234D01*
X9714266Y-6104623D01*
X9776883Y-6174595D01*
X9779846Y-6183044D01*
X9776437Y-6190669D01*
X9650669Y-6316437D01*
X9642396Y-6319864D01*
X9634595Y-6316883D01*
X9564623Y-6254266D01*
X9501234Y-6214730D01*
X9501231Y-6214728D01*
X9439099Y-6190862D01*
X9364962Y-6167967D01*
X9364375Y-6167769D01*
X9275718Y-6135159D01*
X9269136Y-6129087D01*
X9268776Y-6120139D01*
X9268916Y-6119777D01*
X9357436Y-5903822D01*
X9363743Y-5897468D01*
X9579742Y-5808931D01*
X9588695Y-5808964D01*
G37*
%TD.AperFunction*%
%TD*%
%TA.AperFunction,Conductor*%
%TO.N,/USB_Data-*%
G36*
X6234751Y-6478883D02*
G01*
X6239774Y-6480985D01*
X6246083Y-6487341D01*
X6246050Y-6496295D01*
X6245878Y-6496687D01*
X6206247Y-6582435D01*
X6205972Y-6582990D01*
X6169738Y-6651604D01*
X6169735Y-6651609D01*
X6142679Y-6712415D01*
X6125813Y-6785194D01*
X6120613Y-6878948D01*
X6116733Y-6887019D01*
X6108931Y-6890000D01*
X5931069Y-6890000D01*
X5922796Y-6886573D01*
X5919387Y-6878948D01*
X5918872Y-6869677D01*
X5914186Y-6785195D01*
X5897319Y-6712416D01*
X5870262Y-6651607D01*
X5834019Y-6582977D01*
X5833756Y-6582448D01*
X5794119Y-6496684D01*
X5793760Y-6487739D01*
X5799832Y-6481157D01*
X5800183Y-6481002D01*
X6015484Y-6390889D01*
X6024437Y-6390857D01*
X6234751Y-6478883D01*
G37*
%TD.AperFunction*%
%TD*%
%TA.AperFunction,Conductor*%
%TO.N,/USB_Data-*%
G36*
X6117209Y-6893526D02*
G01*
X6120618Y-6901145D01*
X6125864Y-6994905D01*
X6125865Y-6994910D01*
X6142851Y-7067651D01*
X6142852Y-7067652D01*
X6170055Y-7128423D01*
X6188768Y-7163722D01*
X6206413Y-7197007D01*
X6206694Y-7197573D01*
X6246370Y-7283309D01*
X6246735Y-7292257D01*
X6240666Y-7298841D01*
X6240269Y-7299016D01*
X6025017Y-7389109D01*
X6016063Y-7389142D01*
X6015983Y-7389109D01*
X5800720Y-7299012D01*
X5794411Y-7292656D01*
X5794444Y-7283702D01*
X5794614Y-7283315D01*
X5794617Y-7283309D01*
X5834195Y-7197573D01*
X5834450Y-7197060D01*
X5870560Y-7128452D01*
X5870568Y-7128435D01*
X5870573Y-7128424D01*
X5897481Y-7067626D01*
X5914233Y-6994856D01*
X5919391Y-6901155D01*
X5923267Y-6893084D01*
X5931073Y-6890099D01*
X6108936Y-6890099D01*
X6117209Y-6893526D01*
G37*
%TD.AperFunction*%
%TD*%
%TA.AperFunction,Conductor*%
%TO.N,/VDD_3.3V*%
G36*
X31339626Y-1687882D02*
G01*
X31339740Y-1688144D01*
X31468181Y-1995932D01*
X31468204Y-2004887D01*
X31468181Y-2004944D01*
X31339804Y-2312576D01*
X31333455Y-2318891D01*
X31324500Y-2318868D01*
X31324090Y-2318687D01*
X31200011Y-2261231D01*
X31199439Y-2260947D01*
X31103661Y-2210076D01*
X31103660Y-2210075D01*
X31103644Y-2210067D01*
X31047128Y-2184694D01*
X31018871Y-2172008D01*
X31018868Y-2172007D01*
X30917380Y-2148218D01*
X30917384Y-2148218D01*
X30782181Y-2140620D01*
X30774114Y-2136734D01*
X30771138Y-2128938D01*
X30771138Y-1851214D01*
X30774565Y-1842941D01*
X30782339Y-1839525D01*
X30916471Y-1833839D01*
X31018362Y-1815002D01*
X31103984Y-1782952D01*
X31200471Y-1737175D01*
X31200576Y-1737127D01*
X31324175Y-1681965D01*
X31333125Y-1681723D01*
X31339626Y-1687882D01*
G37*
%TD.AperFunction*%
%TD*%
%TA.AperFunction,Conductor*%
%TO.N,/U0RXD*%
G36*
X7792293Y2000334D02*
G01*
X7798618Y1993995D01*
X7799012Y1992888D01*
X7906410Y1634493D01*
X7906837Y1632363D01*
X7937445Y1342539D01*
X7937458Y1342414D01*
X7961230Y1091624D01*
X8051763Y840547D01*
X8276327Y556798D01*
X8278774Y548184D01*
X8275426Y541264D01*
X8148736Y414574D01*
X8140463Y411147D01*
X8133202Y413673D01*
X7849453Y638237D01*
X7598374Y728770D01*
X7598377Y728770D01*
X7347604Y752541D01*
X7347479Y752554D01*
X7057637Y783163D01*
X7055507Y783590D01*
X6782248Y865476D01*
X6697111Y890989D01*
X6690171Y896646D01*
X6689263Y905555D01*
X6689652Y906649D01*
X7007438Y1676217D01*
X7013759Y1682552D01*
X7783339Y2000343D01*
X7792293Y2000334D01*
G37*
%TD.AperFunction*%
%TD*%
%TA.AperFunction,Conductor*%
%TO.N,/VDD_3.3V*%
G36*
X17910809Y-1780262D02*
G01*
X18147246Y-2015352D01*
X18150697Y-2023615D01*
X18150697Y-2023672D01*
X18150025Y-2357041D01*
X18146581Y-2365307D01*
X18138301Y-2368717D01*
X18137567Y-2368692D01*
X18024535Y-2361355D01*
X18023717Y-2361273D01*
X17927170Y-2348149D01*
X17927168Y-2348148D01*
X17845505Y-2346957D01*
X17765521Y-2374754D01*
X17681773Y-2441973D01*
X17673176Y-2444478D01*
X17666177Y-2441121D01*
X17469646Y-2244590D01*
X17466219Y-2236317D01*
X17469557Y-2228134D01*
X17470694Y-2226971D01*
X17572544Y-2122895D01*
X17649318Y-2040332D01*
X17714656Y-1968085D01*
X17791355Y-1885602D01*
X17791504Y-1885445D01*
X17894265Y-1780440D01*
X17902500Y-1776925D01*
X17910809Y-1780262D01*
G37*
%TD.AperFunction*%
%TD*%
%TA.AperFunction,Conductor*%
%TO.N,/GPIO2*%
G36*
X44335398Y2000865D02*
G01*
X45105511Y1682854D01*
X45111850Y1676529D01*
X45111856Y1676513D01*
X45429953Y907581D01*
X45429949Y898626D01*
X45423615Y892297D01*
X45421675Y891685D01*
X45057182Y810856D01*
X45054554Y810579D01*
X44756280Y813003D01*
X44703903Y813428D01*
X44703900Y813428D01*
X44703899Y813428D01*
X44412019Y811236D01*
X44212919Y711942D01*
X44212919Y711941D01*
X44141539Y432307D01*
X44136173Y425139D01*
X44130203Y423501D01*
X43951288Y423501D01*
X43943015Y426928D01*
X43939588Y435201D01*
X43939592Y435495D01*
X43946541Y711941D01*
X43949453Y827825D01*
X43949539Y828969D01*
X43957357Y891685D01*
X43985128Y1114468D01*
X43985484Y1116215D01*
X44054289Y1357439D01*
X44054693Y1358614D01*
X44164997Y1630131D01*
X44320169Y1994635D01*
X44326561Y2000903D01*
X44335398Y2000865D01*
G37*
%TD.AperFunction*%
%TD*%
%TA.AperFunction,Conductor*%
%TO.N,/GPIO9{slash}BOOT*%
G36*
X32375241Y-3813924D02*
G01*
X32591175Y-3902435D01*
X32597531Y-3908744D01*
X32597564Y-3908824D01*
X32686068Y-4124741D01*
X32686035Y-4133695D01*
X32679679Y-4140004D01*
X32679281Y-4140159D01*
X32590622Y-4172769D01*
X32590035Y-4172967D01*
X32515899Y-4195862D01*
X32453766Y-4219728D01*
X32453763Y-4219730D01*
X32390377Y-4259265D01*
X32320404Y-4321882D01*
X32311954Y-4324845D01*
X32304329Y-4321436D01*
X32178562Y-4195669D01*
X32175135Y-4187396D01*
X32178114Y-4179597D01*
X32240732Y-4109623D01*
X32280268Y-4046234D01*
X32304135Y-3984104D01*
X32327035Y-3909946D01*
X32327228Y-3909375D01*
X32327431Y-3908824D01*
X32359840Y-3820716D01*
X32365913Y-3814136D01*
X32374860Y-3813776D01*
X32375241Y-3813924D01*
G37*
%TD.AperFunction*%
%TD*%
%TA.AperFunction,Conductor*%
%TO.N,Net-(USB1-CC1)*%
G36*
X17160241Y-10748924D02*
G01*
X17376175Y-10837435D01*
X17382531Y-10843744D01*
X17382564Y-10843824D01*
X17471068Y-11059741D01*
X17471035Y-11068695D01*
X17464679Y-11075004D01*
X17464281Y-11075159D01*
X17375622Y-11107769D01*
X17375035Y-11107967D01*
X17300899Y-11130862D01*
X17238766Y-11154728D01*
X17238763Y-11154730D01*
X17175377Y-11194265D01*
X17105404Y-11256882D01*
X17096954Y-11259845D01*
X17089329Y-11256436D01*
X16963562Y-11130669D01*
X16960135Y-11122396D01*
X16963114Y-11114597D01*
X17025732Y-11044623D01*
X17065268Y-10981234D01*
X17089135Y-10919104D01*
X17112035Y-10844946D01*
X17112228Y-10844375D01*
X17112431Y-10843824D01*
X17144840Y-10755716D01*
X17150913Y-10749136D01*
X17159860Y-10748776D01*
X17160241Y-10748924D01*
G37*
%TD.AperFunction*%
%TD*%
%TA.AperFunction,Conductor*%
%TO.N,/U0RXD*%
G36*
X8727204Y-1793427D02*
G01*
X8730613Y-1801052D01*
X8735813Y-1894804D01*
X8752679Y-1967582D01*
X8779735Y-2028389D01*
X8779738Y-2028394D01*
X8815976Y-2097014D01*
X8816249Y-2097565D01*
X8855879Y-2183313D01*
X8856239Y-2192260D01*
X8850167Y-2198842D01*
X8849775Y-2199014D01*
X8634517Y-2289109D01*
X8625563Y-2289142D01*
X8625483Y-2289109D01*
X8410224Y-2199014D01*
X8403915Y-2192658D01*
X8403948Y-2183704D01*
X8404098Y-2183362D01*
X8443757Y-2097549D01*
X8444011Y-2097034D01*
X8480262Y-2028392D01*
X8507319Y-1967582D01*
X8524186Y-1894804D01*
X8529387Y-1801052D01*
X8533267Y-1792981D01*
X8541069Y-1790000D01*
X8718931Y-1790000D01*
X8727204Y-1793427D01*
G37*
%TD.AperFunction*%
%TD*%
%TA.AperFunction,Conductor*%
%TO.N,Net-(VT2-B)*%
G36*
X19450669Y-5963562D02*
G01*
X19576436Y-6089329D01*
X19579863Y-6097602D01*
X19576882Y-6105404D01*
X19514265Y-6175377D01*
X19474730Y-6238763D01*
X19474728Y-6238766D01*
X19450862Y-6300899D01*
X19427967Y-6375035D01*
X19427769Y-6375622D01*
X19395159Y-6464281D01*
X19389087Y-6470863D01*
X19380139Y-6471223D01*
X19379741Y-6471068D01*
X19163824Y-6382564D01*
X19157468Y-6376255D01*
X19157435Y-6376175D01*
X19157208Y-6375622D01*
X19068931Y-6160257D01*
X19068964Y-6151304D01*
X19075320Y-6144995D01*
X19075690Y-6144850D01*
X19164390Y-6112222D01*
X19164946Y-6112035D01*
X19239104Y-6089135D01*
X19301234Y-6065268D01*
X19364623Y-6025732D01*
X19434597Y-5963114D01*
X19443044Y-5960153D01*
X19450669Y-5963562D01*
G37*
%TD.AperFunction*%
%TD*%
%TA.AperFunction,Conductor*%
%TO.N,/CHIP_EN*%
G36*
X42295403Y-2473115D02*
G01*
X42365376Y-2535732D01*
X42394316Y-2553782D01*
X42428758Y-2575265D01*
X42428761Y-2575266D01*
X42428764Y-2575268D01*
X42490895Y-2599135D01*
X42490901Y-2599136D01*
X42490904Y-2599138D01*
X42565035Y-2622030D01*
X42565618Y-2622226D01*
X42654281Y-2654840D01*
X42660863Y-2660913D01*
X42661223Y-2669860D01*
X42661068Y-2670258D01*
X42572564Y-2886175D01*
X42566255Y-2892531D01*
X42566175Y-2892564D01*
X42350258Y-2981068D01*
X42341304Y-2981035D01*
X42334995Y-2974679D01*
X42334840Y-2974281D01*
X42304098Y-2890707D01*
X42302226Y-2885618D01*
X42302030Y-2885035D01*
X42279138Y-2810904D01*
X42279135Y-2810895D01*
X42255268Y-2748764D01*
X42255266Y-2748761D01*
X42255265Y-2748758D01*
X42233782Y-2714316D01*
X42215732Y-2685376D01*
X42153115Y-2615403D01*
X42150153Y-2606955D01*
X42153561Y-2599331D01*
X42279331Y-2473561D01*
X42287603Y-2470135D01*
X42295403Y-2473115D01*
G37*
%TD.AperFunction*%
%TD*%
%TA.AperFunction,Conductor*%
%TO.N,/VDD_3.3V*%
G36*
X22134478Y-1990868D02*
G01*
X22442220Y-2119291D01*
X22448535Y-2125640D01*
X22448512Y-2134595D01*
X22448367Y-2134927D01*
X22391921Y-2259205D01*
X22391729Y-2259607D01*
X22343400Y-2356083D01*
X22308398Y-2441632D01*
X22299382Y-2484952D01*
X22287153Y-2543717D01*
X22287153Y-2543722D01*
X22280544Y-2678871D01*
X22276717Y-2686967D01*
X22268858Y-2690000D01*
X21991142Y-2690000D01*
X21982869Y-2686573D01*
X21979456Y-2678872D01*
X21972845Y-2543721D01*
X21972845Y-2543717D01*
X21972845Y-2543716D01*
X21951601Y-2441632D01*
X21916599Y-2356083D01*
X21868254Y-2259577D01*
X21868091Y-2259235D01*
X21811631Y-2134925D01*
X21811331Y-2125978D01*
X21817447Y-2119436D01*
X21817754Y-2119301D01*
X22125494Y-1990879D01*
X22134449Y-1990857D01*
X22134478Y-1990868D01*
G37*
%TD.AperFunction*%
%TD*%
%TA.AperFunction,Conductor*%
%TO.N,/VDD_3.3V*%
G36*
X7320293Y-13111202D02*
G01*
X7326602Y-13117558D01*
X7326617Y-13126395D01*
X7292255Y-13211059D01*
X7292244Y-13211087D01*
X7268385Y-13280890D01*
X7268383Y-13280899D01*
X7255777Y-13343467D01*
X7250846Y-13417056D01*
X7250846Y-13417064D01*
X7250095Y-13508396D01*
X7246600Y-13516641D01*
X7238395Y-13520000D01*
X6961604Y-13520000D01*
X6953331Y-13516573D01*
X6949904Y-13508397D01*
X6949153Y-13417063D01*
X6944222Y-13343466D01*
X6931616Y-13280904D01*
X6931614Y-13280898D01*
X6931612Y-13280890D01*
X6907753Y-13211087D01*
X6907751Y-13211082D01*
X6907748Y-13211073D01*
X6873382Y-13126394D01*
X6873446Y-13117440D01*
X6879704Y-13111203D01*
X7095484Y-13020889D01*
X7104437Y-13020857D01*
X7320293Y-13111202D01*
G37*
%TD.AperFunction*%
%TD*%
%TA.AperFunction,Conductor*%
%TO.N,/U0TXD*%
G36*
X9554489Y1679135D02*
G01*
X10323375Y1359673D01*
X10329700Y1353334D01*
X10329691Y1344379D01*
X10329198Y1343340D01*
X10153161Y1014951D01*
X10151994Y1013182D01*
X9971195Y786599D01*
X9971136Y786524D01*
X9813399Y592107D01*
X9702127Y350637D01*
X9702127Y350636D01*
X9661185Y-7639D01*
X9656841Y-15470D01*
X9649561Y-18011D01*
X9470390Y-18011D01*
X9462117Y-14584D01*
X9458772Y-7694D01*
X9415954Y351959D01*
X9415954Y351960D01*
X9300408Y592107D01*
X9300051Y592849D01*
X9300050Y592850D01*
X9300050Y592851D01*
X9136677Y785984D01*
X9136574Y786108D01*
X9136170Y786599D01*
X8950786Y1011995D01*
X8949538Y1013849D01*
X8948940Y1014951D01*
X8770886Y1343315D01*
X8769955Y1352221D01*
X8775594Y1359177D01*
X8776674Y1359694D01*
X9545511Y1679136D01*
X9554466Y1679144D01*
X9554489Y1679135D01*
G37*
%TD.AperFunction*%
%TD*%
%TA.AperFunction,Conductor*%
%TO.N,/GPIO0*%
G36*
X46117605Y-3480498D02*
G01*
X46243372Y-3606265D01*
X46246799Y-3614538D01*
X46243818Y-3622340D01*
X46181201Y-3692313D01*
X46141666Y-3755699D01*
X46141664Y-3755702D01*
X46117798Y-3817835D01*
X46094903Y-3891971D01*
X46094705Y-3892558D01*
X46062095Y-3981217D01*
X46056023Y-3987799D01*
X46047075Y-3988159D01*
X46046677Y-3988004D01*
X45830760Y-3899500D01*
X45824404Y-3893191D01*
X45824371Y-3893111D01*
X45824144Y-3892558D01*
X45735867Y-3677193D01*
X45735900Y-3668240D01*
X45742256Y-3661931D01*
X45742626Y-3661786D01*
X45831326Y-3629158D01*
X45831882Y-3628971D01*
X45906040Y-3606071D01*
X45968170Y-3582204D01*
X46031559Y-3542668D01*
X46101533Y-3480050D01*
X46109980Y-3477089D01*
X46117605Y-3480498D01*
G37*
%TD.AperFunction*%
%TD*%
%TA.AperFunction,Conductor*%
%TO.N,/U0RXD*%
G36*
X10717204Y-4803427D02*
G01*
X10720613Y-4811052D01*
X10725813Y-4904804D01*
X10742679Y-4977582D01*
X10769735Y-5038389D01*
X10769738Y-5038394D01*
X10805976Y-5107014D01*
X10806249Y-5107565D01*
X10845879Y-5193313D01*
X10846239Y-5202260D01*
X10840167Y-5208842D01*
X10839775Y-5209014D01*
X10624517Y-5299109D01*
X10615563Y-5299142D01*
X10615483Y-5299109D01*
X10400224Y-5209014D01*
X10393915Y-5202658D01*
X10393948Y-5193704D01*
X10394098Y-5193362D01*
X10433757Y-5107549D01*
X10434011Y-5107034D01*
X10470262Y-5038392D01*
X10497319Y-4977582D01*
X10514186Y-4904804D01*
X10519387Y-4811052D01*
X10523267Y-4802981D01*
X10531069Y-4800000D01*
X10708931Y-4800000D01*
X10717204Y-4803427D01*
G37*
%TD.AperFunction*%
%TD*%
%TA.AperFunction,Conductor*%
%TO.N,/VDD_5V*%
G36*
X9014929Y-4847701D02*
G01*
X9021248Y-4854046D01*
X9021229Y-4863001D01*
X9021222Y-4863017D01*
X8953669Y-5024460D01*
X8905701Y-5149864D01*
X8877208Y-5261893D01*
X8863526Y-5394096D01*
X8860218Y-5568522D01*
X8856635Y-5576729D01*
X8848520Y-5580000D01*
X8371480Y-5580000D01*
X8363207Y-5576573D01*
X8359782Y-5568522D01*
X8356473Y-5394097D01*
X8342790Y-5261892D01*
X8314295Y-5149860D01*
X8266335Y-5024474D01*
X8198777Y-4863017D01*
X8198745Y-4854062D01*
X8205053Y-4847708D01*
X8605501Y-4680873D01*
X8614452Y-4680855D01*
X9014929Y-4847701D01*
G37*
%TD.AperFunction*%
%TD*%
%TA.AperFunction,Conductor*%
%TO.N,/U0TXD*%
G36*
X44680241Y-9938924D02*
G01*
X44896175Y-10027435D01*
X44902531Y-10033744D01*
X44902564Y-10033824D01*
X44991068Y-10249741D01*
X44991035Y-10258695D01*
X44984679Y-10265004D01*
X44984281Y-10265159D01*
X44895622Y-10297769D01*
X44895035Y-10297967D01*
X44820899Y-10320862D01*
X44758766Y-10344728D01*
X44758763Y-10344730D01*
X44695377Y-10384265D01*
X44625404Y-10446882D01*
X44616954Y-10449845D01*
X44609329Y-10446436D01*
X44483562Y-10320669D01*
X44480135Y-10312396D01*
X44483114Y-10304597D01*
X44545732Y-10234623D01*
X44585268Y-10171234D01*
X44609135Y-10109104D01*
X44632035Y-10034946D01*
X44632228Y-10034375D01*
X44632431Y-10033824D01*
X44664840Y-9945716D01*
X44670913Y-9939136D01*
X44679860Y-9938776D01*
X44680241Y-9938924D01*
G37*
%TD.AperFunction*%
%TD*%
%TA.AperFunction,Conductor*%
%TO.N,/CHIP_EN*%
G36*
X40766295Y-1613948D02*
G01*
X40766635Y-1614097D01*
X40852448Y-1653756D01*
X40852977Y-1654019D01*
X40921607Y-1690262D01*
X40921609Y-1690263D01*
X40982415Y-1717319D01*
X40999282Y-1721227D01*
X41055195Y-1734186D01*
X41148950Y-1739387D01*
X41157019Y-1743266D01*
X41160000Y-1751068D01*
X41160000Y-1928931D01*
X41156573Y-1937204D01*
X41148948Y-1940613D01*
X41055194Y-1945813D01*
X40982415Y-1962679D01*
X40921609Y-1989735D01*
X40921604Y-1989738D01*
X40852990Y-2025972D01*
X40852435Y-2026247D01*
X40766687Y-2065878D01*
X40757739Y-2066238D01*
X40751157Y-2060166D01*
X40750985Y-2059774D01*
X40721671Y-1989737D01*
X40660889Y-1844515D01*
X40660857Y-1835563D01*
X40750986Y-1620222D01*
X40757341Y-1613915D01*
X40766295Y-1613948D01*
G37*
%TD.AperFunction*%
%TD*%
%TA.AperFunction,Conductor*%
%TO.N,/SPICLK*%
G36*
X27645364Y-10672807D02*
G01*
X27646168Y-10674748D01*
X27924612Y-11566031D01*
X27923900Y-11574770D01*
X27887823Y-11646621D01*
X27849612Y-11735627D01*
X27811407Y-11837520D01*
X27773206Y-11952301D01*
X27737497Y-12071654D01*
X27731843Y-12078597D01*
X27726288Y-12080000D01*
X27543712Y-12080000D01*
X27535439Y-12076573D01*
X27532503Y-12071654D01*
X27526869Y-12052825D01*
X27496795Y-11952309D01*
X27458591Y-11837518D01*
X27420386Y-11735626D01*
X27382182Y-11646635D01*
X27346098Y-11574769D01*
X27345387Y-11566034D01*
X27623832Y-10674747D01*
X27629570Y-10667873D01*
X27638489Y-10667069D01*
X27645364Y-10672807D01*
G37*
%TD.AperFunction*%
%TD*%
%TA.AperFunction,Conductor*%
%TO.N,/GPIO0*%
G36*
X50196237Y1675164D02*
G01*
X50511502Y1359156D01*
X50783061Y1086958D01*
X50786478Y1078681D01*
X50783325Y1070705D01*
X50562796Y834782D01*
X50414689Y648676D01*
X50293464Y482161D01*
X50293160Y481761D01*
X50145498Y296214D01*
X50144890Y295510D01*
X49925230Y60513D01*
X49917077Y56810D01*
X49908693Y59956D01*
X49908410Y60230D01*
X49782213Y186427D01*
X49778786Y194700D01*
X49780643Y201023D01*
X49924924Y425378D01*
X49898445Y626005D01*
X49898445Y626007D01*
X49760205Y826636D01*
X49760200Y826643D01*
X49753688Y834780D01*
X49574808Y1058301D01*
X49573801Y1059782D01*
X49411314Y1343187D01*
X49410172Y1352068D01*
X49415645Y1359156D01*
X49416969Y1359807D01*
X50183473Y1677708D01*
X50192428Y1677711D01*
X50196237Y1675164D01*
G37*
%TD.AperFunction*%
%TD*%
%TA.AperFunction,Conductor*%
%TO.N,/SPIQ*%
G36*
X36260579Y-14826935D02*
G01*
X36262235Y-14828135D01*
X36559374Y-15043513D01*
X36559376Y-15043514D01*
X36714125Y-15074222D01*
X36830401Y-15097296D01*
X36830404Y-15097295D01*
X36830408Y-15097296D01*
X37020148Y-15081250D01*
X37102930Y-15074250D01*
X37103595Y-15074213D01*
X37414060Y-15066132D01*
X37417223Y-15066485D01*
X37756465Y-15152346D01*
X37792179Y-15161386D01*
X37799358Y-15166738D01*
X37800650Y-15175599D01*
X37800122Y-15177194D01*
X37482562Y-15946214D01*
X37476237Y-15952553D01*
X37476214Y-15952562D01*
X36706199Y-16270533D01*
X36697244Y-16270524D01*
X36690919Y-16264185D01*
X36690672Y-16263532D01*
X36577400Y-15933234D01*
X36577072Y-15932090D01*
X36516798Y-15672771D01*
X36456773Y-15452898D01*
X36456772Y-15452894D01*
X36340432Y-15230364D01*
X36180445Y-15043513D01*
X36118120Y-14970723D01*
X36115342Y-14962209D01*
X36118733Y-14954841D01*
X36245440Y-14828134D01*
X36253712Y-14824708D01*
X36260579Y-14826935D01*
G37*
%TD.AperFunction*%
%TD*%
%TA.AperFunction,Conductor*%
%TO.N,Net-(USB1-CC2)*%
G36*
X12606295Y-8653948D02*
G01*
X12606635Y-8654097D01*
X12692448Y-8693756D01*
X12692977Y-8694019D01*
X12761607Y-8730262D01*
X12761609Y-8730263D01*
X12822415Y-8757319D01*
X12839282Y-8761227D01*
X12895195Y-8774186D01*
X12988950Y-8779387D01*
X12997019Y-8783266D01*
X13000000Y-8791068D01*
X13000000Y-8968931D01*
X12996573Y-8977204D01*
X12988948Y-8980613D01*
X12895194Y-8985813D01*
X12822415Y-9002679D01*
X12761609Y-9029735D01*
X12761604Y-9029738D01*
X12692990Y-9065972D01*
X12692435Y-9066247D01*
X12606687Y-9105878D01*
X12597739Y-9106238D01*
X12591157Y-9100166D01*
X12590985Y-9099774D01*
X12561671Y-9029737D01*
X12500889Y-8884515D01*
X12500857Y-8875563D01*
X12590986Y-8660222D01*
X12597341Y-8653915D01*
X12606295Y-8653948D01*
G37*
%TD.AperFunction*%
%TD*%
%TA.AperFunction,Conductor*%
%TO.N,/CHIP_EN*%
G36*
X31605805Y-8308670D02*
G01*
X31731583Y-8434448D01*
X31735010Y-8442721D01*
X31732160Y-8450374D01*
X31670551Y-8521625D01*
X31670545Y-8521633D01*
X31634780Y-8587316D01*
X31634776Y-8587325D01*
X31615541Y-8652126D01*
X31596545Y-8728415D01*
X31596241Y-8729438D01*
X31565032Y-8819012D01*
X31559074Y-8825697D01*
X31550133Y-8826211D01*
X31549546Y-8825988D01*
X31333824Y-8737564D01*
X31327468Y-8731255D01*
X31327435Y-8731175D01*
X31268471Y-8587324D01*
X31238860Y-8515083D01*
X31238893Y-8506131D01*
X31245249Y-8499822D01*
X31245415Y-8499755D01*
X31331864Y-8466424D01*
X31331912Y-8466406D01*
X31396769Y-8442721D01*
X31402982Y-8440452D01*
X31402983Y-8440451D01*
X31402998Y-8440446D01*
X31461691Y-8412949D01*
X31521972Y-8370762D01*
X31589598Y-8308344D01*
X31598000Y-8305252D01*
X31605805Y-8308670D01*
G37*
%TD.AperFunction*%
%TD*%
%TA.AperFunction,Conductor*%
%TO.N,/VDD_3.3V*%
G36*
X22274595Y-1671487D02*
G01*
X22274893Y-1671617D01*
X22399235Y-1728091D01*
X22399577Y-1728254D01*
X22496083Y-1776599D01*
X22581632Y-1811601D01*
X22683716Y-1832845D01*
X22818872Y-1839455D01*
X22826967Y-1843282D01*
X22830000Y-1851141D01*
X22830000Y-2128858D01*
X22826573Y-2137131D01*
X22818871Y-2140544D01*
X22683722Y-2147153D01*
X22683717Y-2147153D01*
X22624952Y-2159382D01*
X22581632Y-2168398D01*
X22496083Y-2203400D01*
X22436727Y-2233133D01*
X22399607Y-2251729D01*
X22399205Y-2251921D01*
X22274927Y-2308367D01*
X22265978Y-2308668D01*
X22259436Y-2302552D01*
X22259291Y-2302220D01*
X22191596Y-2140000D01*
X22130879Y-1994505D01*
X22130857Y-1985551D01*
X22130880Y-1985494D01*
X22259291Y-1677778D01*
X22265640Y-1671464D01*
X22274595Y-1671487D01*
G37*
%TD.AperFunction*%
%TD*%
%TA.AperFunction,Conductor*%
%TO.N,/VDD_3.3V*%
G36*
X25116429Y-9143339D02*
G01*
X25119095Y-9147461D01*
X25159883Y-9254960D01*
X25207083Y-9369460D01*
X25254301Y-9474100D01*
X25301499Y-9568795D01*
X25301499Y-9568796D01*
X25346435Y-9649529D01*
X25347546Y-9658124D01*
X25105915Y-10600879D01*
X25100541Y-10608042D01*
X25091676Y-10609308D01*
X25084513Y-10603934D01*
X25083416Y-10601472D01*
X25083230Y-10600879D01*
X24805155Y-9713212D01*
X24805313Y-9705750D01*
X24823291Y-9655899D01*
X24842605Y-9592443D01*
X24861918Y-9519088D01*
X24881232Y-9435832D01*
X24899836Y-9346099D01*
X24903016Y-9340206D01*
X25099884Y-9143338D01*
X25108156Y-9139912D01*
X25116429Y-9143339D01*
G37*
%TD.AperFunction*%
%TD*%
%TA.AperFunction,Conductor*%
%TO.N,Net-(USB1-CC1)*%
G36*
X13926295Y-11503948D02*
G01*
X13926635Y-11504097D01*
X14012448Y-11543756D01*
X14012977Y-11544019D01*
X14081607Y-11580262D01*
X14081609Y-11580263D01*
X14142415Y-11607319D01*
X14159282Y-11611227D01*
X14215195Y-11624186D01*
X14308950Y-11629387D01*
X14317019Y-11633266D01*
X14320000Y-11641068D01*
X14320000Y-11818931D01*
X14316573Y-11827204D01*
X14308948Y-11830613D01*
X14215194Y-11835813D01*
X14142415Y-11852679D01*
X14081609Y-11879735D01*
X14081604Y-11879738D01*
X14012990Y-11915972D01*
X14012435Y-11916247D01*
X13926687Y-11955878D01*
X13917739Y-11956238D01*
X13911157Y-11950166D01*
X13910985Y-11949774D01*
X13881671Y-11879737D01*
X13820889Y-11734515D01*
X13820857Y-11725563D01*
X13910986Y-11510222D01*
X13917341Y-11503915D01*
X13926295Y-11503948D01*
G37*
%TD.AperFunction*%
%TD*%
%TA.AperFunction,Conductor*%
%TO.N,/U0TXD*%
G36*
X10355403Y-5793115D02*
G01*
X10425376Y-5855732D01*
X10454316Y-5873782D01*
X10488758Y-5895265D01*
X10488761Y-5895266D01*
X10488764Y-5895268D01*
X10550895Y-5919135D01*
X10550901Y-5919136D01*
X10550904Y-5919138D01*
X10625035Y-5942030D01*
X10625618Y-5942226D01*
X10714281Y-5974840D01*
X10720863Y-5980913D01*
X10721223Y-5989860D01*
X10721068Y-5990258D01*
X10632564Y-6206175D01*
X10626255Y-6212531D01*
X10626175Y-6212564D01*
X10410258Y-6301068D01*
X10401304Y-6301035D01*
X10394995Y-6294679D01*
X10394840Y-6294281D01*
X10364098Y-6210707D01*
X10362226Y-6205618D01*
X10362030Y-6205035D01*
X10339138Y-6130904D01*
X10339135Y-6130895D01*
X10315268Y-6068764D01*
X10315266Y-6068761D01*
X10315265Y-6068758D01*
X10293782Y-6034316D01*
X10275732Y-6005376D01*
X10213115Y-5935403D01*
X10210153Y-5926955D01*
X10213561Y-5919331D01*
X10339331Y-5793561D01*
X10347603Y-5790135D01*
X10355403Y-5793115D01*
G37*
%TD.AperFunction*%
%TD*%
%TA.AperFunction,Conductor*%
%TO.N,Net-(VT2-B)*%
G36*
X20750241Y-2398924D02*
G01*
X20966175Y-2487435D01*
X20972531Y-2493744D01*
X20972564Y-2493824D01*
X21061068Y-2709741D01*
X21061035Y-2718695D01*
X21054679Y-2725004D01*
X21054281Y-2725159D01*
X20965622Y-2757769D01*
X20965035Y-2757967D01*
X20890899Y-2780862D01*
X20828766Y-2804728D01*
X20828763Y-2804730D01*
X20765377Y-2844265D01*
X20695404Y-2906882D01*
X20686954Y-2909845D01*
X20679329Y-2906436D01*
X20553562Y-2780669D01*
X20550135Y-2772396D01*
X20553114Y-2764597D01*
X20615732Y-2694623D01*
X20655268Y-2631234D01*
X20679135Y-2569104D01*
X20702035Y-2494946D01*
X20702228Y-2494375D01*
X20702431Y-2493824D01*
X20734840Y-2405716D01*
X20740913Y-2399136D01*
X20749860Y-2398776D01*
X20750241Y-2398924D01*
G37*
%TD.AperFunction*%
%TD*%
%TA.AperFunction,Conductor*%
%TO.N,/SPID*%
G36*
X33864772Y-14651808D02*
G01*
X34140348Y-14875459D01*
X34382018Y-14974625D01*
X34382021Y-14974625D01*
X34382023Y-14974626D01*
X34547970Y-14999430D01*
X34622676Y-15010597D01*
X34902482Y-15051177D01*
X34904289Y-15051588D01*
X35253087Y-15160881D01*
X35259957Y-15166625D01*
X35260754Y-15175544D01*
X35260403Y-15176512D01*
X34942562Y-15946214D01*
X34936237Y-15952553D01*
X34936214Y-15952562D01*
X34166840Y-16270268D01*
X34157885Y-16270259D01*
X34151560Y-16263920D01*
X34151118Y-16262647D01*
X34063158Y-15952562D01*
X34047969Y-15899015D01*
X34047548Y-15896536D01*
X34029736Y-15599659D01*
X34029726Y-15599447D01*
X34021423Y-15341179D01*
X33943100Y-15083311D01*
X33943099Y-15083310D01*
X33943099Y-15083308D01*
X33783434Y-14875459D01*
X33721416Y-14794724D01*
X33719094Y-14786078D01*
X33722421Y-14779327D01*
X33849128Y-14652620D01*
X33857400Y-14649194D01*
X33864772Y-14651808D01*
G37*
%TD.AperFunction*%
%TD*%
M02*
