%TF.GenerationSoftware,KiCad,Pcbnew,8.0.6*%
%TF.CreationDate,2024-11-23T01:57:26+08:00*%
%TF.ProjectId,UINIO-MCU-ESP32C3,55494e49-4f2d-44d4-9355-2d4553503332,Version 5.0.0*%
%TF.SameCoordinates,PX7367750PY5b66700*%
%TF.FileFunction,Soldermask,Top*%
%TF.FilePolarity,Negative*%
%FSLAX46Y46*%
G04 Gerber Fmt 4.6, Leading zero omitted, Abs format (unit mm)*
G04 Created by KiCad (PCBNEW 8.0.6) date 2024-11-23 01:57:26*
%MOMM*%
%LPD*%
G01*
G04 APERTURE LIST*
G04 Aperture macros list*
%AMRoundRect*
0 Rectangle with rounded corners*
0 $1 Rounding radius*
0 $2 $3 $4 $5 $6 $7 $8 $9 X,Y pos of 4 corners*
0 Add a 4 corners polygon primitive as box body*
4,1,4,$2,$3,$4,$5,$6,$7,$8,$9,$2,$3,0*
0 Add four circle primitives for the rounded corners*
1,1,$1+$1,$2,$3*
1,1,$1+$1,$4,$5*
1,1,$1+$1,$6,$7*
1,1,$1+$1,$8,$9*
0 Add four rect primitives between the rounded corners*
20,1,$1+$1,$2,$3,$4,$5,0*
20,1,$1+$1,$4,$5,$6,$7,0*
20,1,$1+$1,$6,$7,$8,$9,0*
20,1,$1+$1,$8,$9,$2,$3,0*%
%AMRotRect*
0 Rectangle, with rotation*
0 The origin of the aperture is its center*
0 $1 length*
0 $2 width*
0 $3 Rotation angle, in degrees counterclockwise*
0 Add horizontal line*
21,1,$1,$2,0,0,$3*%
G04 Aperture macros list end*
%ADD10R,1.070000X0.532000*%
%ADD11C,2.200000*%
%ADD12RoundRect,0.200000X-0.200000X-0.275000X0.200000X-0.275000X0.200000X0.275000X-0.200000X0.275000X0*%
%ADD13RoundRect,0.147500X0.017678X-0.226274X0.226274X-0.017678X-0.017678X0.226274X-0.226274X0.017678X0*%
%ADD14R,1.700000X1.700000*%
%ADD15O,1.700000X1.700000*%
%ADD16RotRect,0.650000X0.280000X225.000000*%
%ADD17RotRect,0.280000X0.650000X225.000000*%
%ADD18C,0.610000*%
%ADD19RotRect,3.800000X3.800000X225.000000*%
%ADD20RoundRect,0.135000X-0.185000X0.135000X-0.185000X-0.135000X0.185000X-0.135000X0.185000X0.135000X0*%
%ADD21RoundRect,0.140000X-0.219203X-0.021213X-0.021213X-0.219203X0.219203X0.021213X0.021213X0.219203X0*%
%ADD22RoundRect,0.150000X0.200000X-0.150000X0.200000X0.150000X-0.200000X0.150000X-0.200000X-0.150000X0*%
%ADD23R,1.200000X1.200000*%
%ADD24RoundRect,0.135000X0.135000X0.185000X-0.135000X0.185000X-0.135000X-0.185000X0.135000X-0.185000X0*%
%ADD25RoundRect,0.140000X0.170000X-0.140000X0.170000X0.140000X-0.170000X0.140000X-0.170000X-0.140000X0*%
%ADD26R,1.200000X0.650000*%
%ADD27RoundRect,0.140000X-0.140000X-0.170000X0.140000X-0.170000X0.140000X0.170000X-0.140000X0.170000X0*%
%ADD28R,1.200000X1.400000*%
%ADD29RoundRect,0.140000X0.140000X0.170000X-0.140000X0.170000X-0.140000X-0.170000X0.140000X-0.170000X0*%
%ADD30RoundRect,0.250000X0.625000X-0.375000X0.625000X0.375000X-0.625000X0.375000X-0.625000X-0.375000X0*%
%ADD31RoundRect,0.140000X-0.170000X0.140000X-0.170000X-0.140000X0.170000X-0.140000X0.170000X0.140000X0*%
%ADD32RoundRect,0.135000X0.185000X-0.135000X0.185000X0.135000X-0.185000X0.135000X-0.185000X-0.135000X0*%
%ADD33RoundRect,0.150000X-0.200000X0.150000X-0.200000X-0.150000X0.200000X-0.150000X0.200000X0.150000X0*%
%ADD34RoundRect,0.225000X0.250000X-0.225000X0.250000X0.225000X-0.250000X0.225000X-0.250000X-0.225000X0*%
%ADD35C,0.650000*%
%ADD36O,2.100000X1.000000*%
%ADD37O,1.900000X1.000000*%
%ADD38R,1.150000X0.600000*%
%ADD39R,1.150000X0.300000*%
%ADD40RoundRect,0.218750X-0.218750X-0.256250X0.218750X-0.256250X0.218750X0.256250X-0.218750X0.256250X0*%
%ADD41R,1.000000X0.600000*%
%ADD42R,0.750000X0.250000*%
%ADD43R,0.250000X0.750000*%
%ADD44RoundRect,0.225000X-0.250000X0.225000X-0.250000X-0.225000X0.250000X-0.225000X0.250000X0.225000X0*%
%ADD45O,0.630000X2.250000*%
G04 APERTURE END LIST*
D10*
%TO.C,VT2*%
X23585000Y-9058500D03*
X23585000Y-10958500D03*
X25855000Y-10008500D03*
%TD*%
D11*
%TO.C,HOLE\u002A\u002A*%
X62580000Y-2730000D03*
%TD*%
D12*
%TO.C,R1*%
X14505000Y-12660000D03*
X16155000Y-12660000D03*
%TD*%
D13*
%TO.C,L1*%
X55250000Y-9280000D03*
X55935894Y-8594106D03*
%TD*%
D14*
%TO.C,J2*%
X58380000Y-24060000D03*
D15*
X55840000Y-24060000D03*
X53300000Y-24060000D03*
X50760000Y-24060000D03*
X48220000Y-24060000D03*
X45680000Y-24060000D03*
X43140000Y-24060000D03*
X40600000Y-24060000D03*
X38060000Y-24060000D03*
X35520000Y-24060000D03*
X32980000Y-24060000D03*
X30440000Y-24060000D03*
X27900000Y-24060000D03*
X25360000Y-24060000D03*
X22820000Y-24060000D03*
X20280000Y-24060000D03*
X17740000Y-24060000D03*
X15200000Y-24060000D03*
X12660000Y-24060000D03*
X10120000Y-24060000D03*
X7580000Y-24060000D03*
X5040000Y-24060000D03*
%TD*%
D16*
%TO.C,U3*%
X52377710Y-12160000D03*
X52024157Y-11806447D03*
X51670604Y-11452893D03*
X51317050Y-11099340D03*
X50963497Y-10745787D03*
X50609944Y-10392233D03*
X50256390Y-10038680D03*
X49902837Y-9685127D03*
D17*
X48873289Y-9685127D03*
X48519736Y-10038680D03*
X48166182Y-10392233D03*
X47812629Y-10745787D03*
X47459076Y-11099340D03*
X47105522Y-11452893D03*
X46751969Y-11806447D03*
X46398416Y-12160000D03*
D16*
X46398416Y-13189548D03*
X46751969Y-13543101D03*
X47105522Y-13896655D03*
X47459076Y-14250208D03*
X47812629Y-14603761D03*
X48166182Y-14957315D03*
X48519736Y-15310868D03*
X48873289Y-15664421D03*
D17*
X49902837Y-15664421D03*
X50256390Y-15310868D03*
X50609944Y-14957315D03*
X50963497Y-14603761D03*
X51317050Y-14250208D03*
X51670604Y-13896655D03*
X52024157Y-13543101D03*
X52377710Y-13189548D03*
D18*
X50236591Y-12674774D03*
X49388063Y-11826246D03*
D19*
X49388063Y-12674774D03*
D18*
X49388063Y-13523302D03*
X48539535Y-12674774D03*
%TD*%
D20*
%TO.C,R6*%
X23660000Y-17336000D03*
X23660000Y-18356000D03*
%TD*%
D21*
%TO.C,C6*%
X54613604Y-9916396D03*
X55292426Y-10595218D03*
%TD*%
D22*
%TO.C,D3*%
X6580000Y-10750000D03*
X6580000Y-12150000D03*
%TD*%
D23*
%TO.C,D4*%
X19990000Y-14325000D03*
X19990000Y-17125000D03*
%TD*%
D24*
%TO.C,R7*%
X24630000Y-12623500D03*
X23610000Y-12623500D03*
%TD*%
D25*
%TO.C,C8*%
X57020000Y-8150000D03*
X57020000Y-7190000D03*
%TD*%
D26*
%TO.C,SW2*%
X32040000Y-10860000D03*
X27740000Y-10860000D03*
X32040000Y-8710000D03*
X27740000Y-8710000D03*
%TD*%
D25*
%TO.C,C11*%
X10485000Y-16890000D03*
X10485000Y-15930000D03*
%TD*%
D27*
%TO.C,C16*%
X16035000Y-18350000D03*
X16995000Y-18350000D03*
%TD*%
D20*
%TO.C,R2*%
X48030000Y-5840000D03*
X48030000Y-6860000D03*
%TD*%
D28*
%TO.C,Y1*%
X56590000Y-15500000D03*
X56590000Y-17700000D03*
X58290000Y-17700000D03*
X58290000Y-15500000D03*
%TD*%
D25*
%TO.C,C4*%
X54080000Y-6830000D03*
X54080000Y-5870000D03*
%TD*%
D27*
%TO.C,C14*%
X44750000Y-6800000D03*
X45710000Y-6800000D03*
%TD*%
D25*
%TO.C,C5*%
X52755000Y-6830000D03*
X52755000Y-5870000D03*
%TD*%
D29*
%TO.C,C18*%
X44060000Y-11980000D03*
X43100000Y-11980000D03*
%TD*%
D30*
%TO.C,F1*%
X19990000Y-11040000D03*
X19990000Y-8240000D03*
%TD*%
D11*
%TO.C,HOLE\u002A\u002A*%
X210000Y-22650000D03*
%TD*%
D10*
%TO.C,VT1*%
X23605000Y-14283500D03*
X23605000Y-16183500D03*
X25875000Y-15233500D03*
%TD*%
D11*
%TO.C,HOLE\u002A\u002A*%
X62580000Y-22670000D03*
%TD*%
D27*
%TO.C,C12*%
X55160000Y-13680000D03*
X56120000Y-13680000D03*
%TD*%
D31*
%TO.C,C15*%
X55190000Y-14960000D03*
X55190000Y-15920000D03*
%TD*%
D32*
%TO.C,R5*%
X23660000Y-7906000D03*
X23660000Y-6886000D03*
%TD*%
D33*
%TO.C,D2*%
X6580000Y-14650000D03*
X6580000Y-13250000D03*
%TD*%
D27*
%TO.C,C10*%
X55160000Y-12460000D03*
X56120000Y-12460000D03*
%TD*%
D34*
%TO.C,C3*%
X16345000Y-10015000D03*
X16345000Y-8465000D03*
%TD*%
D12*
%TO.C,R8*%
X6535000Y-17280000D03*
X8185000Y-17280000D03*
%TD*%
%TO.C,R3*%
X6535000Y-8120000D03*
X8185000Y-8120000D03*
%TD*%
D35*
%TO.C,USB1*%
X2207000Y-9810000D03*
X2207000Y-15590000D03*
D36*
X2707000Y-8375000D03*
X2707000Y-17025000D03*
D37*
X-1493000Y-8375000D03*
X-1493000Y-17025000D03*
D38*
X3469000Y-9500000D03*
X3469000Y-10300000D03*
D39*
X3469000Y-11450000D03*
X3469000Y-12450000D03*
X3469000Y-12950000D03*
X3469000Y-13950000D03*
D38*
X3469000Y-15900000D03*
X3469000Y-15100000D03*
D39*
X3469000Y-14450000D03*
X3469000Y-13450000D03*
X3469000Y-11950000D03*
X3469000Y-10950000D03*
%TD*%
D40*
%TO.C,D1*%
X11560000Y-12675000D03*
X13135000Y-12675000D03*
%TD*%
D41*
%TO.C,U1*%
X12290000Y-8115000D03*
X12290000Y-9065000D03*
X12290000Y-10015000D03*
X14890000Y-10015000D03*
X14890000Y-8115000D03*
%TD*%
D25*
%TO.C,C9*%
X49360000Y-6850000D03*
X49360000Y-5890000D03*
%TD*%
D42*
%TO.C,U4*%
X14855000Y-17428000D03*
X14855000Y-16929000D03*
X14855000Y-16428000D03*
X14855000Y-15929000D03*
D43*
X14155000Y-15230000D03*
X13655000Y-15230000D03*
X13155000Y-15230000D03*
X12655000Y-15230000D03*
D42*
X11955000Y-15930000D03*
X11955000Y-16430000D03*
X11955000Y-16930000D03*
X11955000Y-17429000D03*
D43*
X12655000Y-18130000D03*
X13155000Y-18130000D03*
X13655000Y-18130000D03*
X14155000Y-18130000D03*
D14*
X13405000Y-16680000D03*
%TD*%
D44*
%TO.C,C2*%
X10835000Y-8465000D03*
X10835000Y-10015000D03*
%TD*%
D32*
%TO.C,R4*%
X42790000Y-7000000D03*
X42790000Y-5980000D03*
%TD*%
D25*
%TO.C,C17*%
X55190000Y-17740000D03*
X55190000Y-16780000D03*
%TD*%
D29*
%TO.C,C19*%
X44060000Y-13330000D03*
X43100000Y-13330000D03*
%TD*%
D25*
%TO.C,C7*%
X51430000Y-6830000D03*
X51430000Y-5870000D03*
%TD*%
D45*
%TO.C,U2*%
X37100000Y-16150000D03*
X38370000Y-16150000D03*
X39640000Y-16150000D03*
X40910000Y-16150000D03*
X40910000Y-9090000D03*
X39640000Y-9090000D03*
X38370000Y-9090000D03*
X37100000Y-9090000D03*
%TD*%
D31*
%TO.C,C1*%
X35610000Y-12237000D03*
X35610000Y-13197000D03*
%TD*%
D29*
%TO.C,C13*%
X16995000Y-14520000D03*
X16035000Y-14520000D03*
%TD*%
D14*
%TO.C,J1*%
X58380000Y-1340000D03*
D15*
X55840000Y-1340000D03*
X53300000Y-1340000D03*
X50760000Y-1340000D03*
X48220000Y-1340000D03*
X45680000Y-1340000D03*
X43140000Y-1340000D03*
X40600000Y-1340000D03*
X38060000Y-1340000D03*
X35520000Y-1340000D03*
X32980000Y-1340000D03*
X30440000Y-1340000D03*
X27900000Y-1340000D03*
X25360000Y-1340000D03*
X22820000Y-1340000D03*
X20280000Y-1340000D03*
X17740000Y-1340000D03*
X15200000Y-1340000D03*
X12660000Y-1340000D03*
X10120000Y-1340000D03*
X7580000Y-1340000D03*
X5040000Y-1340000D03*
%TD*%
D11*
%TO.C,HOLE\u002A\u002A*%
X210000Y-2710000D03*
%TD*%
D26*
%TO.C,SW1*%
X32040000Y-16516000D03*
X27740000Y-16516000D03*
X32040000Y-14366000D03*
X27740000Y-14366000D03*
%TD*%
M02*
