%TF.GenerationSoftware,KiCad,Pcbnew,(6.0.9)*%
%TF.CreationDate,2022-12-08T03:02:34+08:00*%
%TF.ProjectId,UINIO-MCU-ESP32C3,55494e49-4f2d-44d4-9355-2d4553503332,Version 1.0.0*%
%TF.SameCoordinates,Original*%
%TF.FileFunction,Paste,Top*%
%TF.FilePolarity,Positive*%
%FSLAX46Y46*%
G04 Gerber Fmt 4.6, Leading zero omitted, Abs format (unit mm)*
G04 Created by KiCad (PCBNEW (6.0.9)) date 2022-12-08 03:02:34*
%MOMM*%
%LPD*%
G01*
G04 APERTURE LIST*
G04 Aperture macros list*
%AMRoundRect*
0 Rectangle with rounded corners*
0 $1 Rounding radius*
0 $2 $3 $4 $5 $6 $7 $8 $9 X,Y pos of 4 corners*
0 Add a 4 corners polygon primitive as box body*
4,1,4,$2,$3,$4,$5,$6,$7,$8,$9,$2,$3,0*
0 Add four circle primitives for the rounded corners*
1,1,$1+$1,$2,$3*
1,1,$1+$1,$4,$5*
1,1,$1+$1,$6,$7*
1,1,$1+$1,$8,$9*
0 Add four rect primitives between the rounded corners*
20,1,$1+$1,$2,$3,$4,$5,0*
20,1,$1+$1,$4,$5,$6,$7,0*
20,1,$1+$1,$6,$7,$8,$9,0*
20,1,$1+$1,$8,$9,$2,$3,0*%
%AMRotRect*
0 Rectangle, with rotation*
0 The origin of the aperture is its center*
0 $1 length*
0 $2 width*
0 $3 Rotation angle, in degrees counterclockwise*
0 Add horizontal line*
21,1,$1,$2,0,0,$3*%
G04 Aperture macros list end*
%ADD10C,0.120000*%
%ADD11R,1.070000X0.532000*%
%ADD12RoundRect,0.135000X-0.135000X-0.185000X0.135000X-0.185000X0.135000X0.185000X-0.135000X0.185000X0*%
%ADD13RotRect,0.650000X0.280000X225.000000*%
%ADD14RotRect,0.280000X0.650000X225.000000*%
%ADD15RotRect,3.800000X3.800000X225.000000*%
%ADD16RoundRect,0.147500X-0.017678X0.226274X-0.226274X0.017678X0.017678X-0.226274X0.226274X-0.017678X0*%
%ADD17RoundRect,0.135000X0.135000X0.185000X-0.135000X0.185000X-0.135000X-0.185000X0.135000X-0.185000X0*%
%ADD18R,1.200000X0.650000*%
%ADD19RoundRect,0.140000X0.170000X-0.140000X0.170000X0.140000X-0.170000X0.140000X-0.170000X-0.140000X0*%
%ADD20R,1.200000X1.400000*%
%ADD21RoundRect,0.140000X-0.140000X-0.170000X0.140000X-0.170000X0.140000X0.170000X-0.140000X0.170000X0*%
%ADD22RoundRect,0.140000X0.140000X0.170000X-0.140000X0.170000X-0.140000X-0.170000X0.140000X-0.170000X0*%
%ADD23RoundRect,0.140000X-0.219203X-0.021213X-0.021213X-0.219203X0.219203X0.021213X0.021213X0.219203X0*%
%ADD24R,1.150000X0.600000*%
%ADD25R,1.150000X0.300000*%
%ADD26RoundRect,0.218750X-0.218750X-0.256250X0.218750X-0.256250X0.218750X0.256250X-0.218750X0.256250X0*%
%ADD27R,1.000000X0.600000*%
%ADD28R,0.250000X0.750000*%
%ADD29R,0.750000X0.250000*%
%ADD30R,1.700000X1.700000*%
%ADD31RoundRect,0.140000X-0.170000X0.140000X-0.170000X-0.140000X0.170000X-0.140000X0.170000X0.140000X0*%
G04 APERTURE END LIST*
%TO.C,U3*%
G36*
X162772215Y-100475428D02*
G01*
X162574225Y-100673418D01*
X162114605Y-100213798D01*
X162312595Y-100015808D01*
X162772215Y-100475428D01*
G37*
D10*
X162772215Y-100475428D02*
X162574225Y-100673418D01*
X162114605Y-100213798D01*
X162312595Y-100015808D01*
X162772215Y-100475428D01*
G36*
X162418661Y-105131019D02*
G01*
X161959042Y-105590638D01*
X161761052Y-105392648D01*
X162220671Y-104933029D01*
X162418661Y-105131019D01*
G37*
X162418661Y-105131019D02*
X161959042Y-105590638D01*
X161761052Y-105392648D01*
X162220671Y-104933029D01*
X162418661Y-105131019D01*
G36*
X166275222Y-103978435D02*
G01*
X166077232Y-104176425D01*
X165617612Y-103716805D01*
X165815602Y-103518815D01*
X166275222Y-103978435D01*
G37*
X166275222Y-103978435D02*
X166077232Y-104176425D01*
X165617612Y-103716805D01*
X165815602Y-103518815D01*
X166275222Y-103978435D01*
G36*
X164153901Y-106099755D02*
G01*
X163955911Y-106297745D01*
X163496292Y-105838126D01*
X163694282Y-105640136D01*
X164153901Y-106099755D01*
G37*
X164153901Y-106099755D02*
X163955911Y-106297745D01*
X163496292Y-105838126D01*
X163694282Y-105640136D01*
X164153901Y-106099755D01*
G36*
X164507455Y-100213798D02*
G01*
X164047835Y-100673418D01*
X163849845Y-100475428D01*
X164309465Y-100015808D01*
X164507455Y-100213798D01*
G37*
X164507455Y-100213798D02*
X164047835Y-100673418D01*
X163849845Y-100475428D01*
X164309465Y-100015808D01*
X164507455Y-100213798D01*
G36*
X164507455Y-105746202D02*
G01*
X164309465Y-105944192D01*
X163849845Y-105484572D01*
X164047835Y-105286582D01*
X164507455Y-105746202D01*
G37*
X164507455Y-105746202D02*
X164309465Y-105944192D01*
X163849845Y-105484572D01*
X164047835Y-105286582D01*
X164507455Y-105746202D01*
G36*
X165460635Y-102980000D02*
G01*
X163311030Y-105129605D01*
X161161425Y-102980000D01*
X163311030Y-100830395D01*
X165460635Y-102980000D01*
G37*
X165460635Y-102980000D02*
X163311030Y-105129605D01*
X161161425Y-102980000D01*
X163311030Y-100830395D01*
X165460635Y-102980000D01*
G36*
X163125768Y-105838126D02*
G01*
X162666149Y-106297745D01*
X162468159Y-106099755D01*
X162927778Y-105640136D01*
X163125768Y-105838126D01*
G37*
X163125768Y-105838126D02*
X162666149Y-106297745D01*
X162468159Y-106099755D01*
X162927778Y-105640136D01*
X163125768Y-105838126D01*
G36*
X161711554Y-104423912D02*
G01*
X161251935Y-104883531D01*
X161053945Y-104685542D01*
X161513565Y-104225922D01*
X161711554Y-104423912D01*
G37*
X161711554Y-104423912D02*
X161251935Y-104883531D01*
X161053945Y-104685542D01*
X161513565Y-104225922D01*
X161711554Y-104423912D01*
G36*
X162418661Y-100828981D02*
G01*
X162220671Y-101026971D01*
X161761052Y-100567352D01*
X161959042Y-100369362D01*
X162418661Y-100828981D01*
G37*
X162418661Y-100828981D02*
X162220671Y-101026971D01*
X161761052Y-100567352D01*
X161959042Y-100369362D01*
X162418661Y-100828981D01*
G36*
X161358001Y-101889641D02*
G01*
X161160011Y-102087631D01*
X160700392Y-101628012D01*
X160898382Y-101430022D01*
X161358001Y-101889641D01*
G37*
X161358001Y-101889641D02*
X161160011Y-102087631D01*
X160700392Y-101628012D01*
X160898382Y-101430022D01*
X161358001Y-101889641D01*
G36*
X162065108Y-104777465D02*
G01*
X161605488Y-105237085D01*
X161407499Y-105039095D01*
X161867118Y-104579476D01*
X162065108Y-104777465D01*
G37*
X162065108Y-104777465D02*
X161605488Y-105237085D01*
X161407499Y-105039095D01*
X161867118Y-104579476D01*
X162065108Y-104777465D01*
G36*
X161358001Y-104070359D02*
G01*
X160898382Y-104529978D01*
X160700392Y-104331988D01*
X161160011Y-103872369D01*
X161358001Y-104070359D01*
G37*
X161358001Y-104070359D02*
X160898382Y-104529978D01*
X160700392Y-104331988D01*
X161160011Y-103872369D01*
X161358001Y-104070359D01*
G36*
X165214561Y-100920905D02*
G01*
X164754942Y-101380524D01*
X164556952Y-101182535D01*
X165016572Y-100722915D01*
X165214561Y-100920905D01*
G37*
X165214561Y-100920905D02*
X164754942Y-101380524D01*
X164556952Y-101182535D01*
X165016572Y-100722915D01*
X165214561Y-100920905D01*
G36*
X166628775Y-103624881D02*
G01*
X166430785Y-103822871D01*
X165971166Y-103363252D01*
X166169156Y-103165262D01*
X166628775Y-103624881D01*
G37*
X166628775Y-103624881D02*
X166430785Y-103822871D01*
X165971166Y-103363252D01*
X166169156Y-103165262D01*
X166628775Y-103624881D01*
G36*
X161004448Y-102243195D02*
G01*
X160806458Y-102441185D01*
X160346838Y-101981565D01*
X160544828Y-101783575D01*
X161004448Y-102243195D01*
G37*
X161004448Y-102243195D02*
X160806458Y-102441185D01*
X160346838Y-101981565D01*
X160544828Y-101783575D01*
X161004448Y-102243195D01*
G36*
X164861008Y-100567352D02*
G01*
X164401389Y-101026971D01*
X164203399Y-100828981D01*
X164663018Y-100369362D01*
X164861008Y-100567352D01*
G37*
X164861008Y-100567352D02*
X164401389Y-101026971D01*
X164203399Y-100828981D01*
X164663018Y-100369362D01*
X164861008Y-100567352D01*
G36*
X165921668Y-101628012D02*
G01*
X165462049Y-102087631D01*
X165264059Y-101889641D01*
X165723678Y-101430022D01*
X165921668Y-101628012D01*
G37*
X165921668Y-101628012D02*
X165462049Y-102087631D01*
X165264059Y-101889641D01*
X165723678Y-101430022D01*
X165921668Y-101628012D01*
G36*
X163125768Y-100121874D02*
G01*
X162927778Y-100319864D01*
X162468159Y-99860245D01*
X162666149Y-99662255D01*
X163125768Y-100121874D01*
G37*
X163125768Y-100121874D02*
X162927778Y-100319864D01*
X162468159Y-99860245D01*
X162666149Y-99662255D01*
X163125768Y-100121874D01*
G36*
X161711554Y-101536088D02*
G01*
X161513565Y-101734078D01*
X161053945Y-101274458D01*
X161251935Y-101076469D01*
X161711554Y-101536088D01*
G37*
X161711554Y-101536088D02*
X161513565Y-101734078D01*
X161053945Y-101274458D01*
X161251935Y-101076469D01*
X161711554Y-101536088D01*
G36*
X165921668Y-104331988D02*
G01*
X165723678Y-104529978D01*
X165264059Y-104070359D01*
X165462049Y-103872369D01*
X165921668Y-104331988D01*
G37*
X165921668Y-104331988D02*
X165723678Y-104529978D01*
X165264059Y-104070359D01*
X165462049Y-103872369D01*
X165921668Y-104331988D01*
G36*
X166628775Y-102335119D02*
G01*
X166169156Y-102794738D01*
X165971166Y-102596748D01*
X166430785Y-102137129D01*
X166628775Y-102335119D01*
G37*
X166628775Y-102335119D02*
X166169156Y-102794738D01*
X165971166Y-102596748D01*
X166430785Y-102137129D01*
X166628775Y-102335119D01*
G36*
X162772215Y-105484572D02*
G01*
X162312595Y-105944192D01*
X162114605Y-105746202D01*
X162574225Y-105286582D01*
X162772215Y-105484572D01*
G37*
X162772215Y-105484572D02*
X162312595Y-105944192D01*
X162114605Y-105746202D01*
X162574225Y-105286582D01*
X162772215Y-105484572D01*
G36*
X160650894Y-103363252D02*
G01*
X160191275Y-103822871D01*
X159993285Y-103624881D01*
X160452904Y-103165262D01*
X160650894Y-103363252D01*
G37*
X160650894Y-103363252D02*
X160191275Y-103822871D01*
X159993285Y-103624881D01*
X160452904Y-103165262D01*
X160650894Y-103363252D01*
G36*
X164861008Y-105392648D02*
G01*
X164663018Y-105590638D01*
X164203399Y-105131019D01*
X164401389Y-104933029D01*
X164861008Y-105392648D01*
G37*
X164861008Y-105392648D02*
X164663018Y-105590638D01*
X164203399Y-105131019D01*
X164401389Y-104933029D01*
X164861008Y-105392648D01*
G36*
X162065108Y-101182535D02*
G01*
X161867118Y-101380524D01*
X161407499Y-100920905D01*
X161605488Y-100722915D01*
X162065108Y-101182535D01*
G37*
X162065108Y-101182535D02*
X161867118Y-101380524D01*
X161407499Y-100920905D01*
X161605488Y-100722915D01*
X162065108Y-101182535D01*
G36*
X165568115Y-104685542D02*
G01*
X165370125Y-104883531D01*
X164910506Y-104423912D01*
X165108495Y-104225922D01*
X165568115Y-104685542D01*
G37*
X165568115Y-104685542D02*
X165370125Y-104883531D01*
X164910506Y-104423912D01*
X165108495Y-104225922D01*
X165568115Y-104685542D01*
G36*
X161004448Y-103716805D02*
G01*
X160544828Y-104176425D01*
X160346838Y-103978435D01*
X160806458Y-103518815D01*
X161004448Y-103716805D01*
G37*
X161004448Y-103716805D02*
X160544828Y-104176425D01*
X160346838Y-103978435D01*
X160806458Y-103518815D01*
X161004448Y-103716805D01*
G36*
X165568115Y-101274458D02*
G01*
X165108495Y-101734078D01*
X164910506Y-101536088D01*
X165370125Y-101076469D01*
X165568115Y-101274458D01*
G37*
X165568115Y-101274458D02*
X165108495Y-101734078D01*
X164910506Y-101536088D01*
X165370125Y-101076469D01*
X165568115Y-101274458D01*
G36*
X160650894Y-102596748D02*
G01*
X160452904Y-102794738D01*
X159993285Y-102335119D01*
X160191275Y-102137129D01*
X160650894Y-102596748D01*
G37*
X160650894Y-102596748D02*
X160452904Y-102794738D01*
X159993285Y-102335119D01*
X160191275Y-102137129D01*
X160650894Y-102596748D01*
G36*
X166275222Y-101981565D02*
G01*
X165815602Y-102441185D01*
X165617612Y-102243195D01*
X166077232Y-101783575D01*
X166275222Y-101981565D01*
G37*
X166275222Y-101981565D02*
X165815602Y-102441185D01*
X165617612Y-102243195D01*
X166077232Y-101783575D01*
X166275222Y-101981565D01*
G36*
X165214561Y-105039095D02*
G01*
X165016572Y-105237085D01*
X164556952Y-104777465D01*
X164754942Y-104579476D01*
X165214561Y-105039095D01*
G37*
X165214561Y-105039095D02*
X165016572Y-105237085D01*
X164556952Y-104777465D01*
X164754942Y-104579476D01*
X165214561Y-105039095D01*
G36*
X164153901Y-99860245D02*
G01*
X163694282Y-100319864D01*
X163496292Y-100121874D01*
X163955911Y-99662255D01*
X164153901Y-99860245D01*
G37*
X164153901Y-99860245D02*
X163694282Y-100319864D01*
X163496292Y-100121874D01*
X163955911Y-99662255D01*
X164153901Y-99860245D01*
%TO.C,USB1*%
G36*
X128546000Y-102380000D02*
G01*
X127396000Y-102380000D01*
X127396000Y-102080000D01*
X128546000Y-102080000D01*
X128546000Y-102380000D01*
G37*
X128546000Y-102380000D02*
X127396000Y-102380000D01*
X127396000Y-102080000D01*
X128546000Y-102080000D01*
X128546000Y-102380000D01*
G36*
X128546000Y-101880000D02*
G01*
X127396000Y-101880000D01*
X127396000Y-101580000D01*
X128546000Y-101580000D01*
X128546000Y-101880000D01*
G37*
X128546000Y-101880000D02*
X127396000Y-101880000D01*
X127396000Y-101580000D01*
X128546000Y-101580000D01*
X128546000Y-101880000D01*
G36*
X128546000Y-100080000D02*
G01*
X127396000Y-100080000D01*
X127396000Y-99480000D01*
X128546000Y-99480000D01*
X128546000Y-100080000D01*
G37*
X128546000Y-100080000D02*
X127396000Y-100080000D01*
X127396000Y-99480000D01*
X128546000Y-99480000D01*
X128546000Y-100080000D01*
G36*
X127856000Y-106815000D02*
G01*
X127950000Y-106843000D01*
X128036000Y-106889000D01*
X128112000Y-106951000D01*
X128174000Y-107027000D01*
X128221000Y-107114000D01*
X128249000Y-107207000D01*
X128259000Y-107305000D01*
X128249000Y-107403000D01*
X128221000Y-107496000D01*
X128174000Y-107583000D01*
X128112000Y-107659000D01*
X128036000Y-107721000D01*
X127950000Y-107767000D01*
X127856000Y-107795000D01*
X127759000Y-107805000D01*
X126659000Y-107805000D01*
X126561000Y-107795000D01*
X126467000Y-107767000D01*
X126381000Y-107721000D01*
X126305000Y-107659000D01*
X126243000Y-107583000D01*
X126197000Y-107496000D01*
X126168000Y-107403000D01*
X126159000Y-107305000D01*
X126168000Y-107207000D01*
X126197000Y-107114000D01*
X126243000Y-107027000D01*
X126305000Y-106951000D01*
X126381000Y-106889000D01*
X126467000Y-106843000D01*
X126561000Y-106815000D01*
X126659000Y-106805000D01*
X127759000Y-106805000D01*
X127856000Y-106815000D01*
G37*
X127856000Y-106815000D02*
X127950000Y-106843000D01*
X128036000Y-106889000D01*
X128112000Y-106951000D01*
X128174000Y-107027000D01*
X128221000Y-107114000D01*
X128249000Y-107207000D01*
X128259000Y-107305000D01*
X128249000Y-107403000D01*
X128221000Y-107496000D01*
X128174000Y-107583000D01*
X128112000Y-107659000D01*
X128036000Y-107721000D01*
X127950000Y-107767000D01*
X127856000Y-107795000D01*
X127759000Y-107805000D01*
X126659000Y-107805000D01*
X126561000Y-107795000D01*
X126467000Y-107767000D01*
X126381000Y-107721000D01*
X126305000Y-107659000D01*
X126243000Y-107583000D01*
X126197000Y-107496000D01*
X126168000Y-107403000D01*
X126159000Y-107305000D01*
X126168000Y-107207000D01*
X126197000Y-107114000D01*
X126243000Y-107027000D01*
X126305000Y-106951000D01*
X126381000Y-106889000D01*
X126467000Y-106843000D01*
X126561000Y-106815000D01*
X126659000Y-106805000D01*
X127759000Y-106805000D01*
X127856000Y-106815000D01*
G36*
X128546000Y-103880000D02*
G01*
X127396000Y-103880000D01*
X127396000Y-103580000D01*
X128546000Y-103580000D01*
X128546000Y-103880000D01*
G37*
X128546000Y-103880000D02*
X127396000Y-103880000D01*
X127396000Y-103580000D01*
X128546000Y-103580000D01*
X128546000Y-103880000D01*
G36*
X123556000Y-98165000D02*
G01*
X123650000Y-98193000D01*
X123736000Y-98239000D01*
X123812000Y-98301000D01*
X123874000Y-98377000D01*
X123921000Y-98464000D01*
X123949000Y-98557000D01*
X123959000Y-98655000D01*
X123949000Y-98753000D01*
X123921000Y-98846000D01*
X123874000Y-98933000D01*
X123812000Y-99009000D01*
X123736000Y-99071000D01*
X123650000Y-99117000D01*
X123556000Y-99145000D01*
X123459000Y-99155000D01*
X122559000Y-99155000D01*
X122461000Y-99145000D01*
X122367000Y-99117000D01*
X122281000Y-99071000D01*
X122205000Y-99009000D01*
X122143000Y-98933000D01*
X122097000Y-98846000D01*
X122068000Y-98753000D01*
X122059000Y-98655000D01*
X122068000Y-98557000D01*
X122097000Y-98464000D01*
X122143000Y-98377000D01*
X122205000Y-98301000D01*
X122281000Y-98239000D01*
X122367000Y-98193000D01*
X122461000Y-98165000D01*
X122559000Y-98155000D01*
X123459000Y-98155000D01*
X123556000Y-98165000D01*
G37*
X123556000Y-98165000D02*
X123650000Y-98193000D01*
X123736000Y-98239000D01*
X123812000Y-98301000D01*
X123874000Y-98377000D01*
X123921000Y-98464000D01*
X123949000Y-98557000D01*
X123959000Y-98655000D01*
X123949000Y-98753000D01*
X123921000Y-98846000D01*
X123874000Y-98933000D01*
X123812000Y-99009000D01*
X123736000Y-99071000D01*
X123650000Y-99117000D01*
X123556000Y-99145000D01*
X123459000Y-99155000D01*
X122559000Y-99155000D01*
X122461000Y-99145000D01*
X122367000Y-99117000D01*
X122281000Y-99071000D01*
X122205000Y-99009000D01*
X122143000Y-98933000D01*
X122097000Y-98846000D01*
X122068000Y-98753000D01*
X122059000Y-98655000D01*
X122068000Y-98557000D01*
X122097000Y-98464000D01*
X122143000Y-98377000D01*
X122205000Y-98301000D01*
X122281000Y-98239000D01*
X122367000Y-98193000D01*
X122461000Y-98165000D01*
X122559000Y-98155000D01*
X123459000Y-98155000D01*
X123556000Y-98165000D01*
G36*
X123556000Y-106815000D02*
G01*
X123650000Y-106843000D01*
X123736000Y-106889000D01*
X123812000Y-106951000D01*
X123874000Y-107027000D01*
X123921000Y-107114000D01*
X123949000Y-107207000D01*
X123959000Y-107305000D01*
X123949000Y-107403000D01*
X123921000Y-107496000D01*
X123874000Y-107583000D01*
X123812000Y-107659000D01*
X123736000Y-107721000D01*
X123650000Y-107767000D01*
X123556000Y-107795000D01*
X123459000Y-107805000D01*
X122559000Y-107805000D01*
X122461000Y-107795000D01*
X122367000Y-107767000D01*
X122281000Y-107721000D01*
X122205000Y-107659000D01*
X122143000Y-107583000D01*
X122097000Y-107496000D01*
X122068000Y-107403000D01*
X122059000Y-107305000D01*
X122068000Y-107207000D01*
X122097000Y-107114000D01*
X122143000Y-107027000D01*
X122205000Y-106951000D01*
X122281000Y-106889000D01*
X122367000Y-106843000D01*
X122461000Y-106815000D01*
X122559000Y-106805000D01*
X123459000Y-106805000D01*
X123556000Y-106815000D01*
G37*
X123556000Y-106815000D02*
X123650000Y-106843000D01*
X123736000Y-106889000D01*
X123812000Y-106951000D01*
X123874000Y-107027000D01*
X123921000Y-107114000D01*
X123949000Y-107207000D01*
X123959000Y-107305000D01*
X123949000Y-107403000D01*
X123921000Y-107496000D01*
X123874000Y-107583000D01*
X123812000Y-107659000D01*
X123736000Y-107721000D01*
X123650000Y-107767000D01*
X123556000Y-107795000D01*
X123459000Y-107805000D01*
X122559000Y-107805000D01*
X122461000Y-107795000D01*
X122367000Y-107767000D01*
X122281000Y-107721000D01*
X122205000Y-107659000D01*
X122143000Y-107583000D01*
X122097000Y-107496000D01*
X122068000Y-107403000D01*
X122059000Y-107305000D01*
X122068000Y-107207000D01*
X122097000Y-107114000D01*
X122143000Y-107027000D01*
X122205000Y-106951000D01*
X122281000Y-106889000D01*
X122367000Y-106843000D01*
X122461000Y-106815000D01*
X122559000Y-106805000D01*
X123459000Y-106805000D01*
X123556000Y-106815000D01*
G36*
X128546000Y-100880000D02*
G01*
X127396000Y-100880000D01*
X127396000Y-100280000D01*
X128546000Y-100280000D01*
X128546000Y-100880000D01*
G37*
X128546000Y-100880000D02*
X127396000Y-100880000D01*
X127396000Y-100280000D01*
X128546000Y-100280000D01*
X128546000Y-100880000D01*
G36*
X128546000Y-106480000D02*
G01*
X127396000Y-106480000D01*
X127396000Y-105880000D01*
X128546000Y-105880000D01*
X128546000Y-106480000D01*
G37*
X128546000Y-106480000D02*
X127396000Y-106480000D01*
X127396000Y-105880000D01*
X128546000Y-105880000D01*
X128546000Y-106480000D01*
G36*
X128546000Y-103380000D02*
G01*
X127396000Y-103380000D01*
X127396000Y-103080000D01*
X128546000Y-103080000D01*
X128546000Y-103380000D01*
G37*
X128546000Y-103380000D02*
X127396000Y-103380000D01*
X127396000Y-103080000D01*
X128546000Y-103080000D01*
X128546000Y-103380000D01*
G36*
X127856000Y-98165000D02*
G01*
X127950000Y-98193000D01*
X128036000Y-98239000D01*
X128112000Y-98301000D01*
X128174000Y-98377000D01*
X128221000Y-98464000D01*
X128249000Y-98557000D01*
X128259000Y-98655000D01*
X128249000Y-98753000D01*
X128221000Y-98846000D01*
X128174000Y-98933000D01*
X128112000Y-99009000D01*
X128036000Y-99071000D01*
X127950000Y-99117000D01*
X127856000Y-99145000D01*
X127759000Y-99155000D01*
X126659000Y-99155000D01*
X126561000Y-99145000D01*
X126467000Y-99117000D01*
X126381000Y-99071000D01*
X126305000Y-99009000D01*
X126243000Y-98933000D01*
X126197000Y-98846000D01*
X126168000Y-98753000D01*
X126159000Y-98655000D01*
X126168000Y-98557000D01*
X126197000Y-98464000D01*
X126243000Y-98377000D01*
X126305000Y-98301000D01*
X126381000Y-98239000D01*
X126467000Y-98193000D01*
X126561000Y-98165000D01*
X126659000Y-98155000D01*
X127759000Y-98155000D01*
X127856000Y-98165000D01*
G37*
X127856000Y-98165000D02*
X127950000Y-98193000D01*
X128036000Y-98239000D01*
X128112000Y-98301000D01*
X128174000Y-98377000D01*
X128221000Y-98464000D01*
X128249000Y-98557000D01*
X128259000Y-98655000D01*
X128249000Y-98753000D01*
X128221000Y-98846000D01*
X128174000Y-98933000D01*
X128112000Y-99009000D01*
X128036000Y-99071000D01*
X127950000Y-99117000D01*
X127856000Y-99145000D01*
X127759000Y-99155000D01*
X126659000Y-99155000D01*
X126561000Y-99145000D01*
X126467000Y-99117000D01*
X126381000Y-99071000D01*
X126305000Y-99009000D01*
X126243000Y-98933000D01*
X126197000Y-98846000D01*
X126168000Y-98753000D01*
X126159000Y-98655000D01*
X126168000Y-98557000D01*
X126197000Y-98464000D01*
X126243000Y-98377000D01*
X126305000Y-98301000D01*
X126381000Y-98239000D01*
X126467000Y-98193000D01*
X126561000Y-98165000D01*
X126659000Y-98155000D01*
X127759000Y-98155000D01*
X127856000Y-98165000D01*
G36*
X128546000Y-104380000D02*
G01*
X127396000Y-104380000D01*
X127396000Y-104080000D01*
X128546000Y-104080000D01*
X128546000Y-104380000D01*
G37*
X128546000Y-104380000D02*
X127396000Y-104380000D01*
X127396000Y-104080000D01*
X128546000Y-104080000D01*
X128546000Y-104380000D01*
G36*
X128546000Y-104880000D02*
G01*
X127396000Y-104880000D01*
X127396000Y-104580000D01*
X128546000Y-104580000D01*
X128546000Y-104880000D01*
G37*
X128546000Y-104880000D02*
X127396000Y-104880000D01*
X127396000Y-104580000D01*
X128546000Y-104580000D01*
X128546000Y-104880000D01*
G36*
X128546000Y-102880000D02*
G01*
X127396000Y-102880000D01*
X127396000Y-102580000D01*
X128546000Y-102580000D01*
X128546000Y-102880000D01*
G37*
X128546000Y-102880000D02*
X127396000Y-102880000D01*
X127396000Y-102580000D01*
X128546000Y-102580000D01*
X128546000Y-102880000D01*
G36*
X128546000Y-101380000D02*
G01*
X127396000Y-101380000D01*
X127396000Y-101080000D01*
X128546000Y-101080000D01*
X128546000Y-101380000D01*
G37*
X128546000Y-101380000D02*
X127396000Y-101380000D01*
X127396000Y-101080000D01*
X128546000Y-101080000D01*
X128546000Y-101380000D01*
G36*
X128546000Y-105680000D02*
G01*
X127396000Y-105680000D01*
X127396000Y-105080000D01*
X128546000Y-105080000D01*
X128546000Y-105680000D01*
G37*
X128546000Y-105680000D02*
X127396000Y-105680000D01*
X127396000Y-105080000D01*
X128546000Y-105080000D01*
X128546000Y-105680000D01*
%TO.C,U4*%
G36*
X136213000Y-101835000D02*
G01*
X135963000Y-101835000D01*
X135963000Y-101085000D01*
X136213000Y-101085000D01*
X136213000Y-101835000D01*
G37*
X136213000Y-101835000D02*
X135963000Y-101835000D01*
X135963000Y-101085000D01*
X136213000Y-101085000D01*
X136213000Y-101835000D01*
G36*
X134714000Y-104735000D02*
G01*
X134464000Y-104735000D01*
X134464000Y-103985000D01*
X134714000Y-103985000D01*
X134714000Y-104735000D01*
G37*
X134714000Y-104735000D02*
X134464000Y-104735000D01*
X134464000Y-103985000D01*
X134714000Y-103985000D01*
X134714000Y-104735000D01*
G36*
X134714000Y-101835000D02*
G01*
X134464000Y-101835000D01*
X134464000Y-101085000D01*
X134714000Y-101085000D01*
X134714000Y-101835000D01*
G37*
X134714000Y-101835000D02*
X134464000Y-101835000D01*
X134464000Y-101085000D01*
X134714000Y-101085000D01*
X134714000Y-101835000D01*
G36*
X134265000Y-102285000D02*
G01*
X133515000Y-102285000D01*
X133515000Y-102035000D01*
X134265000Y-102035000D01*
X134265000Y-102285000D01*
G37*
X134265000Y-102285000D02*
X133515000Y-102285000D01*
X133515000Y-102035000D01*
X134265000Y-102035000D01*
X134265000Y-102285000D01*
G36*
X135714000Y-101835000D02*
G01*
X135464000Y-101835000D01*
X135464000Y-101085000D01*
X135714000Y-101085000D01*
X135714000Y-101835000D01*
G37*
X135714000Y-101835000D02*
X135464000Y-101835000D01*
X135464000Y-101085000D01*
X135714000Y-101085000D01*
X135714000Y-101835000D01*
G36*
X137165000Y-102785000D02*
G01*
X136415000Y-102785000D01*
X136415000Y-102535000D01*
X137165000Y-102535000D01*
X137165000Y-102785000D01*
G37*
X137165000Y-102785000D02*
X136415000Y-102785000D01*
X136415000Y-102535000D01*
X137165000Y-102535000D01*
X137165000Y-102785000D01*
G36*
X137165000Y-103285000D02*
G01*
X136415000Y-103285000D01*
X136415000Y-103035000D01*
X137165000Y-103035000D01*
X137165000Y-103285000D01*
G37*
X137165000Y-103285000D02*
X136415000Y-103285000D01*
X136415000Y-103035000D01*
X137165000Y-103035000D01*
X137165000Y-103285000D01*
G36*
X134265000Y-103785000D02*
G01*
X133515000Y-103785000D01*
X133515000Y-103535000D01*
X134265000Y-103535000D01*
X134265000Y-103785000D01*
G37*
X134265000Y-103785000D02*
X133515000Y-103785000D01*
X133515000Y-103535000D01*
X134265000Y-103535000D01*
X134265000Y-103785000D01*
G36*
X134265000Y-103285000D02*
G01*
X133515000Y-103285000D01*
X133515000Y-103035000D01*
X134265000Y-103035000D01*
X134265000Y-103285000D01*
G37*
X134265000Y-103285000D02*
X133515000Y-103285000D01*
X133515000Y-103035000D01*
X134265000Y-103035000D01*
X134265000Y-103285000D01*
G36*
X135214000Y-104735000D02*
G01*
X134964000Y-104735000D01*
X134964000Y-103985000D01*
X135214000Y-103985000D01*
X135214000Y-104735000D01*
G37*
X135214000Y-104735000D02*
X134964000Y-104735000D01*
X134964000Y-103985000D01*
X135214000Y-103985000D01*
X135214000Y-104735000D01*
G36*
X137165000Y-102285000D02*
G01*
X136415000Y-102285000D01*
X136415000Y-102035000D01*
X137165000Y-102035000D01*
X137165000Y-102285000D01*
G37*
X137165000Y-102285000D02*
X136415000Y-102285000D01*
X136415000Y-102035000D01*
X137165000Y-102035000D01*
X137165000Y-102285000D01*
G36*
X135714000Y-104735000D02*
G01*
X135464000Y-104735000D01*
X135464000Y-103985000D01*
X135714000Y-103985000D01*
X135714000Y-104735000D01*
G37*
X135714000Y-104735000D02*
X135464000Y-104735000D01*
X135464000Y-103985000D01*
X135714000Y-103985000D01*
X135714000Y-104735000D01*
G36*
X137165000Y-103785000D02*
G01*
X136415000Y-103785000D01*
X136415000Y-103535000D01*
X137165000Y-103535000D01*
X137165000Y-103785000D01*
G37*
X137165000Y-103785000D02*
X136415000Y-103785000D01*
X136415000Y-103535000D01*
X137165000Y-103535000D01*
X137165000Y-103785000D01*
G36*
X135213000Y-101835000D02*
G01*
X134963000Y-101835000D01*
X134963000Y-101085000D01*
X135213000Y-101085000D01*
X135213000Y-101835000D01*
G37*
X135213000Y-101835000D02*
X134963000Y-101835000D01*
X134963000Y-101085000D01*
X135213000Y-101085000D01*
X135213000Y-101835000D01*
G36*
X136020000Y-103590000D02*
G01*
X134660000Y-103590000D01*
X134660000Y-102230000D01*
X136020000Y-102230000D01*
X136020000Y-103590000D01*
G37*
X136020000Y-103590000D02*
X134660000Y-103590000D01*
X134660000Y-102230000D01*
X136020000Y-102230000D01*
X136020000Y-103590000D01*
G36*
X136214000Y-104735000D02*
G01*
X135964000Y-104735000D01*
X135964000Y-103985000D01*
X136214000Y-103985000D01*
X136214000Y-104735000D01*
G37*
X136214000Y-104735000D02*
X135964000Y-104735000D01*
X135964000Y-103985000D01*
X136214000Y-103985000D01*
X136214000Y-104735000D01*
G36*
X134265000Y-102785000D02*
G01*
X133515000Y-102785000D01*
X133515000Y-102535000D01*
X134265000Y-102535000D01*
X134265000Y-102785000D01*
G37*
X134265000Y-102785000D02*
X133515000Y-102785000D01*
X133515000Y-102535000D01*
X134265000Y-102535000D01*
X134265000Y-102785000D01*
%TD*%
D11*
%TO.C,VT2*%
X141985000Y-99290000D03*
X141985000Y-101190000D03*
X144255000Y-100240000D03*
%TD*%
D12*
%TO.C,R1*%
X126790000Y-109650000D03*
X127810000Y-109650000D03*
%TD*%
D13*
%TO.C,U3*%
X166300677Y-102465226D03*
X165947124Y-102111673D03*
X165593571Y-101758119D03*
X165240017Y-101404566D03*
X164886464Y-101051013D03*
X164532911Y-100697459D03*
X164179357Y-100343906D03*
X163825804Y-99990353D03*
D14*
X162796256Y-99990353D03*
X162442703Y-100343906D03*
X162089149Y-100697459D03*
X161735596Y-101051013D03*
X161382043Y-101404566D03*
X161028489Y-101758119D03*
X160674936Y-102111673D03*
X160321383Y-102465226D03*
D13*
X160321383Y-103494774D03*
X160674936Y-103848327D03*
X161028489Y-104201881D03*
X161382043Y-104555434D03*
X161735596Y-104908987D03*
X162089149Y-105262541D03*
X162442703Y-105616094D03*
X162796256Y-105969647D03*
D14*
X163825804Y-105969647D03*
X164179357Y-105616094D03*
X164532911Y-105262541D03*
X164886464Y-104908987D03*
X165240017Y-104555434D03*
X165593571Y-104201881D03*
X165947124Y-103848327D03*
X166300677Y-103494774D03*
D15*
X163311030Y-102980000D03*
%TD*%
D16*
%TO.C,L1*%
X169680658Y-99080520D03*
X168994764Y-99766414D03*
%TD*%
D12*
%TO.C,R6*%
X139160000Y-104700000D03*
X140180000Y-104700000D03*
%TD*%
D17*
%TO.C,R7*%
X140180000Y-99290000D03*
X139160000Y-99290000D03*
%TD*%
D18*
%TO.C,SW2*%
X150510000Y-101345000D03*
X146210000Y-101345000D03*
X150510000Y-99195000D03*
X146210000Y-99195000D03*
%TD*%
D19*
%TO.C,C11*%
X134590000Y-106910000D03*
X134590000Y-105950000D03*
%TD*%
%TO.C,C16*%
X136080000Y-99930000D03*
X136080000Y-98970000D03*
%TD*%
D12*
%TO.C,R2*%
X160650000Y-98470000D03*
X161670000Y-98470000D03*
%TD*%
D20*
%TO.C,Y1*%
X168980000Y-105450000D03*
X168980000Y-107650000D03*
X170680000Y-107650000D03*
X170680000Y-105450000D03*
%TD*%
D19*
%TO.C,C4*%
X165540000Y-98940000D03*
X165540000Y-97980000D03*
%TD*%
D21*
%TO.C,C14*%
X155950000Y-98640000D03*
X156910000Y-98640000D03*
%TD*%
D19*
%TO.C,C5*%
X166470000Y-98940000D03*
X166470000Y-97980000D03*
%TD*%
D22*
%TO.C,C18*%
X156930000Y-103240000D03*
X155970000Y-103240000D03*
%TD*%
D11*
%TO.C,VT1*%
X141985000Y-104680000D03*
X141985000Y-106580000D03*
X144255000Y-105630000D03*
%TD*%
D23*
%TO.C,C8*%
X168354832Y-100406346D03*
X169033654Y-101085168D03*
%TD*%
D21*
%TO.C,C12*%
X168680000Y-103730000D03*
X169640000Y-103730000D03*
%TD*%
D19*
%TO.C,C15*%
X172200000Y-105840000D03*
X172200000Y-104880000D03*
%TD*%
D12*
%TO.C,R5*%
X139160000Y-101190000D03*
X140180000Y-101190000D03*
%TD*%
D21*
%TO.C,C10*%
X168680000Y-102810000D03*
X169640000Y-102810000D03*
%TD*%
D19*
%TO.C,C3*%
X134810000Y-110590000D03*
X134810000Y-109630000D03*
%TD*%
D24*
%TO.C,USB1*%
X127971000Y-99780000D03*
X127971000Y-100580000D03*
D25*
X127971000Y-101730000D03*
X127971000Y-102730000D03*
X127971000Y-103230000D03*
X127971000Y-104230000D03*
D24*
X127971000Y-106180000D03*
X127971000Y-105380000D03*
D25*
X127971000Y-104730000D03*
X127971000Y-103730000D03*
X127971000Y-102230000D03*
X127971000Y-101230000D03*
%TD*%
D26*
%TO.C,D1*%
X126232500Y-111210000D03*
X127807500Y-111210000D03*
%TD*%
D27*
%TO.C,U1*%
X130976000Y-109630000D03*
X130976000Y-110580000D03*
X130976000Y-111530000D03*
X133576000Y-111530000D03*
X133576000Y-109630000D03*
%TD*%
D19*
%TO.C,C9*%
X164610000Y-98940000D03*
X164610000Y-97980000D03*
%TD*%
D28*
%TO.C,U4*%
X136088000Y-101460000D03*
X135589000Y-101460000D03*
X135088000Y-101460000D03*
X134589000Y-101460000D03*
D29*
X133890000Y-102160000D03*
X133890000Y-102660000D03*
X133890000Y-103160000D03*
X133890000Y-103660000D03*
D28*
X134590000Y-104360000D03*
X135090000Y-104360000D03*
X135590000Y-104360000D03*
X136089000Y-104360000D03*
D29*
X136790000Y-103660000D03*
X136790000Y-103160000D03*
X136790000Y-102660000D03*
X136790000Y-102160000D03*
D30*
X135340000Y-102910000D03*
%TD*%
D19*
%TO.C,C2*%
X129740000Y-110590000D03*
X129740000Y-109630000D03*
%TD*%
D17*
%TO.C,R4*%
X156960000Y-99730000D03*
X155940000Y-99730000D03*
%TD*%
D31*
%TO.C,C17*%
X172200000Y-106970000D03*
X172200000Y-107930000D03*
%TD*%
D22*
%TO.C,C19*%
X156940000Y-104930000D03*
X155980000Y-104930000D03*
%TD*%
D19*
%TO.C,C7*%
X167390000Y-98940000D03*
X167390000Y-97980000D03*
%TD*%
D23*
%TO.C,C6*%
X170999411Y-99119411D03*
X170320589Y-98440589D03*
%TD*%
D31*
%TO.C,C13*%
X134580000Y-98960000D03*
X134580000Y-99920000D03*
%TD*%
D18*
%TO.C,SW1*%
X150510000Y-106725000D03*
X146210000Y-106725000D03*
X150510000Y-104575000D03*
X146210000Y-104575000D03*
%TD*%
M02*
