%TF.GenerationSoftware,KiCad,Pcbnew,(6.0.9)*%
%TF.CreationDate,2022-12-16T14:22:34+08:00*%
%TF.ProjectId,UINIO-MCU-ESP32C3,55494e49-4f2d-44d4-9355-2d4553503332,Version 1.0.0*%
%TF.SameCoordinates,PX735b400PY5c274f0*%
%TF.FileFunction,Soldermask,Top*%
%TF.FilePolarity,Negative*%
%FSLAX46Y46*%
G04 Gerber Fmt 4.6, Leading zero omitted, Abs format (unit mm)*
G04 Created by KiCad (PCBNEW (6.0.9)) date 2022-12-16 14:22:34*
%MOMM*%
%LPD*%
G01*
G04 APERTURE LIST*
G04 Aperture macros list*
%AMRoundRect*
0 Rectangle with rounded corners*
0 $1 Rounding radius*
0 $2 $3 $4 $5 $6 $7 $8 $9 X,Y pos of 4 corners*
0 Add a 4 corners polygon primitive as box body*
4,1,4,$2,$3,$4,$5,$6,$7,$8,$9,$2,$3,0*
0 Add four circle primitives for the rounded corners*
1,1,$1+$1,$2,$3*
1,1,$1+$1,$4,$5*
1,1,$1+$1,$6,$7*
1,1,$1+$1,$8,$9*
0 Add four rect primitives between the rounded corners*
20,1,$1+$1,$2,$3,$4,$5,0*
20,1,$1+$1,$4,$5,$6,$7,0*
20,1,$1+$1,$6,$7,$8,$9,0*
20,1,$1+$1,$8,$9,$2,$3,0*%
%AMRotRect*
0 Rectangle, with rotation*
0 The origin of the aperture is its center*
0 $1 length*
0 $2 width*
0 $3 Rotation angle, in degrees counterclockwise*
0 Add horizontal line*
21,1,$1,$2,0,0,$3*%
G04 Aperture macros list end*
%ADD10C,0.610000*%
%ADD11RotRect,0.650000X0.280000X225.000000*%
%ADD12RotRect,0.280000X0.650000X225.000000*%
%ADD13RotRect,3.800000X3.800000X225.000000*%
%ADD14C,1.200000*%
%ADD15R,1.070000X0.532000*%
%ADD16RoundRect,0.135000X-0.135000X-0.185000X0.135000X-0.185000X0.135000X0.185000X-0.135000X0.185000X0*%
%ADD17RoundRect,0.147500X-0.017678X0.226274X-0.226274X0.017678X0.017678X-0.226274X0.226274X-0.017678X0*%
%ADD18R,1.700000X1.700000*%
%ADD19O,1.700000X1.700000*%
%ADD20RoundRect,0.135000X0.135000X0.185000X-0.135000X0.185000X-0.135000X-0.185000X0.135000X-0.185000X0*%
%ADD21R,1.200000X0.650000*%
%ADD22RoundRect,0.140000X0.170000X-0.140000X0.170000X0.140000X-0.170000X0.140000X-0.170000X-0.140000X0*%
%ADD23R,1.200000X1.400000*%
%ADD24RoundRect,0.140000X-0.140000X-0.170000X0.140000X-0.170000X0.140000X0.170000X-0.140000X0.170000X0*%
%ADD25RoundRect,0.140000X0.140000X0.170000X-0.140000X0.170000X-0.140000X-0.170000X0.140000X-0.170000X0*%
%ADD26RoundRect,0.140000X-0.219203X-0.021213X-0.021213X-0.219203X0.219203X0.021213X0.021213X0.219203X0*%
%ADD27C,0.650000*%
%ADD28O,2.100000X1.000000*%
%ADD29O,1.900000X1.000000*%
%ADD30R,1.150000X0.600000*%
%ADD31R,1.150000X0.300000*%
%ADD32RoundRect,0.218750X-0.218750X-0.256250X0.218750X-0.256250X0.218750X0.256250X-0.218750X0.256250X0*%
%ADD33R,1.000000X0.600000*%
%ADD34R,0.250000X0.750000*%
%ADD35R,0.750000X0.250000*%
%ADD36RoundRect,0.140000X-0.170000X0.140000X-0.170000X-0.140000X0.170000X-0.140000X0.170000X0.140000X0*%
G04 APERTURE END LIST*
D10*
%TO.C,U3*%
X43199558Y-6350000D03*
X42351030Y-5501472D03*
X41502502Y-6350000D03*
X42351030Y-7198528D03*
D11*
X45340677Y-5835226D03*
X44987124Y-5481673D03*
X44633571Y-5128119D03*
X44280017Y-4774566D03*
X43926464Y-4421013D03*
X43572911Y-4067459D03*
X43219357Y-3713906D03*
X42865804Y-3360353D03*
D12*
X41836256Y-3360353D03*
X41482703Y-3713906D03*
X41129149Y-4067459D03*
X40775596Y-4421013D03*
X40422043Y-4774566D03*
X40068489Y-5128119D03*
X39714936Y-5481673D03*
X39361383Y-5835226D03*
D11*
X39361383Y-6864774D03*
X39714936Y-7218327D03*
X40068489Y-7571881D03*
X40422043Y-7925434D03*
X40775596Y-8278987D03*
X41129149Y-8632541D03*
X41482703Y-8986094D03*
X41836256Y-9339647D03*
D12*
X42865804Y-9339647D03*
X43219357Y-8986094D03*
X43572911Y-8632541D03*
X43926464Y-8278987D03*
X44280017Y-7925434D03*
X44633571Y-7571881D03*
X44987124Y-7218327D03*
X45340677Y-6864774D03*
D13*
X42351030Y-6350000D03*
%TD*%
D14*
%TO.C,HOLE2*%
X14660000Y2470000D03*
%TD*%
D15*
%TO.C,VT2*%
X21025000Y-2660000D03*
X21025000Y-4560000D03*
X23295000Y-3610000D03*
%TD*%
D16*
%TO.C,R1*%
X5830000Y-13020000D03*
X6850000Y-13020000D03*
%TD*%
D17*
%TO.C,L1*%
X48720658Y-2450520D03*
X48034764Y-3136414D03*
%TD*%
D16*
%TO.C,R6*%
X18200000Y-8070000D03*
X19220000Y-8070000D03*
%TD*%
D18*
%TO.C,J3*%
X52780000Y-15090000D03*
D19*
X50240000Y-15090000D03*
X47700000Y-15090000D03*
X45160000Y-15090000D03*
X42620000Y-15090000D03*
X40080000Y-15090000D03*
X37540000Y-15090000D03*
X35000000Y-15090000D03*
X32460000Y-15090000D03*
X29920000Y-15090000D03*
X27380000Y-15090000D03*
X24840000Y-15090000D03*
X22300000Y-15090000D03*
X19760000Y-15090000D03*
X17220000Y-15090000D03*
%TD*%
D20*
%TO.C,R7*%
X19220000Y-2660000D03*
X18200000Y-2660000D03*
%TD*%
D14*
%TO.C,HOLE1*%
X1910000Y1590000D03*
%TD*%
D21*
%TO.C,SW2*%
X29550000Y-4715000D03*
X25250000Y-4715000D03*
X29550000Y-2565000D03*
X25250000Y-2565000D03*
%TD*%
D22*
%TO.C,C11*%
X13630000Y-10280000D03*
X13630000Y-9320000D03*
%TD*%
%TO.C,C16*%
X15120000Y-3300000D03*
X15120000Y-2340000D03*
%TD*%
D16*
%TO.C,R2*%
X39690000Y-1840000D03*
X40710000Y-1840000D03*
%TD*%
D23*
%TO.C,Y1*%
X48020000Y-8820000D03*
X48020000Y-11020000D03*
X49720000Y-11020000D03*
X49720000Y-8820000D03*
%TD*%
D22*
%TO.C,C4*%
X44580000Y-2310000D03*
X44580000Y-1350000D03*
%TD*%
D24*
%TO.C,C14*%
X34990000Y-2010000D03*
X35950000Y-2010000D03*
%TD*%
D22*
%TO.C,C5*%
X45510000Y-2310000D03*
X45510000Y-1350000D03*
%TD*%
D25*
%TO.C,C18*%
X35970000Y-6610000D03*
X35010000Y-6610000D03*
%TD*%
D18*
%TO.C,J2*%
X12150000Y2480000D03*
D19*
X9610000Y2480000D03*
X7070000Y2480000D03*
X4530000Y2480000D03*
%TD*%
D15*
%TO.C,VT1*%
X21025000Y-8050000D03*
X21025000Y-9950000D03*
X23295000Y-9000000D03*
%TD*%
D26*
%TO.C,C8*%
X47394832Y-3776346D03*
X48073654Y-4455168D03*
%TD*%
D24*
%TO.C,C12*%
X47720000Y-7100000D03*
X48680000Y-7100000D03*
%TD*%
D22*
%TO.C,C15*%
X51240000Y-9210000D03*
X51240000Y-8250000D03*
%TD*%
D16*
%TO.C,R5*%
X18200000Y-4560000D03*
X19220000Y-4560000D03*
%TD*%
D24*
%TO.C,C10*%
X47720000Y-6180000D03*
X48680000Y-6180000D03*
%TD*%
D22*
%TO.C,C3*%
X13850000Y-13960000D03*
X13850000Y-13000000D03*
%TD*%
D14*
%TO.C,HOLE3*%
X55140000Y2420000D03*
%TD*%
D27*
%TO.C,USB1*%
X5749000Y-3460000D03*
X5749000Y-9240000D03*
D28*
X6249000Y-2025000D03*
X6249000Y-10675000D03*
D29*
X2049000Y-2025000D03*
X2049000Y-10675000D03*
D30*
X7011000Y-3150000D03*
X7011000Y-3950000D03*
D31*
X7011000Y-5100000D03*
X7011000Y-6100000D03*
X7011000Y-6600000D03*
X7011000Y-7600000D03*
D30*
X7011000Y-9550000D03*
X7011000Y-8750000D03*
D31*
X7011000Y-8100000D03*
X7011000Y-7100000D03*
X7011000Y-5600000D03*
X7011000Y-4600000D03*
%TD*%
D32*
%TO.C,D1*%
X5272500Y-14580000D03*
X6847500Y-14580000D03*
%TD*%
D33*
%TO.C,U1*%
X10016000Y-13000000D03*
X10016000Y-13950000D03*
X10016000Y-14900000D03*
X12616000Y-14900000D03*
X12616000Y-13000000D03*
%TD*%
D22*
%TO.C,C9*%
X43650000Y-2310000D03*
X43650000Y-1350000D03*
%TD*%
D34*
%TO.C,U4*%
X15128000Y-4830000D03*
X14629000Y-4830000D03*
X14128000Y-4830000D03*
X13629000Y-4830000D03*
D35*
X12930000Y-5530000D03*
X12930000Y-6030000D03*
X12930000Y-6530000D03*
X12930000Y-7030000D03*
D34*
X13630000Y-7730000D03*
X14130000Y-7730000D03*
X14630000Y-7730000D03*
X15129000Y-7730000D03*
D35*
X15830000Y-7030000D03*
X15830000Y-6530000D03*
X15830000Y-6030000D03*
X15830000Y-5530000D03*
D18*
X14380000Y-6280000D03*
%TD*%
D22*
%TO.C,C2*%
X8780000Y-13960000D03*
X8780000Y-13000000D03*
%TD*%
D20*
%TO.C,R4*%
X36000000Y-3100000D03*
X34980000Y-3100000D03*
%TD*%
D36*
%TO.C,C17*%
X51240000Y-10340000D03*
X51240000Y-11300000D03*
%TD*%
D25*
%TO.C,C19*%
X35980000Y-8300000D03*
X35020000Y-8300000D03*
%TD*%
D22*
%TO.C,C7*%
X46430000Y-2310000D03*
X46430000Y-1350000D03*
%TD*%
D26*
%TO.C,C6*%
X49360589Y-1810589D03*
X50039411Y-2489411D03*
%TD*%
D36*
%TO.C,C13*%
X13620000Y-2330000D03*
X13620000Y-3290000D03*
%TD*%
D14*
%TO.C,HOLE4*%
X55140000Y-15070000D03*
%TD*%
%TO.C,HOLE5*%
X1910000Y-14210000D03*
%TD*%
D21*
%TO.C,SW1*%
X29550000Y-10095000D03*
X25250000Y-10095000D03*
X29550000Y-7945000D03*
X25250000Y-7945000D03*
%TD*%
D18*
%TO.C,J1*%
X52780000Y2470000D03*
D19*
X50240000Y2470000D03*
X47700000Y2470000D03*
X45160000Y2470000D03*
X42620000Y2470000D03*
X40080000Y2470000D03*
X37540000Y2470000D03*
X35000000Y2470000D03*
X32460000Y2470000D03*
X29920000Y2470000D03*
X27380000Y2470000D03*
X24840000Y2470000D03*
X22300000Y2470000D03*
X19760000Y2470000D03*
X17220000Y2470000D03*
%TD*%
M02*
