M48
; DRILL file {KiCad (7.0.0)} date Fri Mar  3 19:02:44 2023
; FORMAT={-:-/ absolute / inch / decimal}
; #@! TF.CreationDate,2023-03-03T19:02:44+08:00
; #@! TF.GenerationSoftware,Kicad,Pcbnew,(7.0.0)
; #@! TF.FileFunction,MixedPlating,1,2
FMAT,2
INCH
; #@! TA.AperFunction,Plated,PTH,ViaDrill
T1C0.0118
; #@! TA.AperFunction,Plated,PTH,ComponentDrill
T2C0.0118
; #@! TA.AperFunction,Plated,PTH,ComponentDrill
T3C0.0120
; #@! TA.AperFunction,Plated,PTH,ViaDrill
T4C0.0157
; #@! TA.AperFunction,Plated,PTH,ViaDrill
T5C0.0197
; #@! TA.AperFunction,Plated,PTH,ComponentDrill
T6C0.0236
; #@! TA.AperFunction,Plated,PTH,ComponentDrill
T7C0.0394
; #@! TA.AperFunction,Plated,PTH,ComponentDrill
T8C0.0472
; #@! TA.AperFunction,NonPlated,NPTH,ComponentDrill
T9C0.0256
%
G90
G05
T1
X0.239Y-0.2205
X0.239Y-0.2599
X0.2815Y-0.4815
X0.3327Y-0.4575
X0.3453Y-0.0405
X0.3705Y-0.2012
X0.4043Y-0.3453
X0.4197Y-0.0051
X0.4197Y-0.0405
X0.4201Y-0.1776
X0.4205Y-0.2134
X0.4386Y0.0193
X0.4449Y-0.4327
X0.4512Y-0.2364
X0.4941Y-0.3185
X0.4949Y-0.3547
X0.5028Y-0.1295
X0.5461Y-0.4307
X0.5878Y-0.587
X0.5957Y-0.3469
X0.622Y-0.4728
X0.6316Y-0.13
X0.635Y-0.3768
X0.6362Y0.0193
X0.6862Y-0.3957
X0.6872Y-0.1022
X0.6874Y-0.2201
X0.7165Y-0.0484
X0.7169Y-0.2886
X0.7311Y-0.4728
X0.7563Y-0.2201
X0.7878Y-0.3583
X0.7949Y-0.2878
X0.8276Y-0.0669
X0.828Y0.0358
X0.828Y-0.2193
X0.8732Y-0.0472
X0.8748Y-0.2524
X0.9253Y-0.0948
X0.9917Y-0.2299
X0.9972Y0.0358
X1.0146Y-0.5083
X1.1012Y0.0354
X1.1858Y-0.4508
X1.2015Y-0.1858
X1.2354Y-0.3128
X1.2386Y-0.411
X1.2409Y-0.0477
X1.2475Y-0.1604
X1.2852Y-0.1226
X1.3307Y-0.0374
X1.3583Y-0.4508
X1.3596Y-0.187
X1.4469Y-0.2598
X1.4673Y-0.187
X1.4768Y-0.3366
X1.4921Y-0.213
X1.5134Y-0.0374
X1.5394Y-0.5323
X1.5835Y-0.1216
X1.6028Y-0.0413
X1.6031Y-0.0949
X1.6035Y-0.25
X1.6673Y-0.3138
X1.6677Y-0.1866
X1.678Y-0.0728
X1.6933Y-0.4508
X1.7132Y0.0031
X1.7311Y-0.25
X1.7358Y-0.1398
X1.7376Y-0.362
X1.7697Y-0.3638
X1.772Y-0.1314
X1.7782Y-0.1809
X1.8062Y-0.1223
X1.8087Y-0.2996
X1.8138Y0.0165
X1.814Y-0.4509
X1.8323Y-0.2496
X1.8453Y-0.4822
X1.8571Y-0.1047
X1.8772Y-0.0831
X1.9Y-0.0598
X1.9071Y0.0159
X1.9228Y-0.0382
X1.9228Y-0.1323
X1.9228Y-0.1642
X1.9228Y-0.1957
X1.9228Y-0.4791
X1.9543Y-0.0382
X1.9543Y-0.1323
X1.9543Y-0.1642
X1.9543Y-0.1957
X1.9543Y-0.2272
X1.9543Y-0.4791
X1.9858Y-0.0382
X1.9858Y-0.1323
X1.9858Y-0.1642
X1.9858Y-0.1957
X1.9858Y-0.2272
X1.9858Y-0.4791
X2.0173Y-0.0067
X2.0173Y-0.0382
X2.0173Y-0.1012
X2.0173Y-0.1327
X2.0173Y-0.1642
X2.0173Y-0.1957
X2.0173Y-0.2272
X2.0173Y-0.2587
X2.0173Y-0.2902
X2.0173Y-0.4791
X2.0173Y-0.5106
X2.0488Y0.0268
X2.0488Y-0.0067
X2.0488Y-0.0382
X2.0488Y-0.1012
X2.0488Y-0.1327
X2.0488Y-0.1642
X2.0488Y-0.1957
X2.0488Y-0.2272
X2.0488Y-0.2587
X2.0488Y-0.2902
X2.0488Y-0.4791
X2.0488Y-0.5106
X2.0488Y-0.5421
X2.0803Y0.0268
X2.0803Y-0.0067
X2.0803Y-0.0382
X2.0803Y-0.1012
X2.0803Y-0.1327
X2.0803Y-0.1642
X2.0803Y-0.1957
X2.0803Y-0.2272
X2.0803Y-0.2587
X2.0803Y-0.2902
X2.0803Y-0.3217
X2.0803Y-0.3531
X2.0803Y-0.3846
X2.0803Y-0.4161
X2.0803Y-0.4476
X2.0803Y-0.4791
X2.0803Y-0.5106
X2.0803Y-0.5421
X2.1118Y0.0268
X2.1118Y-0.0067
X2.1118Y-0.0382
X2.1118Y-0.1012
X2.1118Y-0.1327
X2.1118Y-0.1642
X2.1118Y-0.1957
X2.1118Y-0.2272
X2.1118Y-0.2587
X2.1118Y-0.2902
X2.1118Y-0.3217
X2.1118Y-0.3531
X2.1118Y-0.3846
X2.1118Y-0.4161
X2.1118Y-0.4476
X2.1118Y-0.4791
X2.1118Y-0.5106
X2.1118Y-0.5421
T2
X2.1469Y0.0118
T3
X1.634Y-0.25
X1.6674Y-0.2166
X1.6674Y-0.2834
X1.7008Y-0.25
T4
X0.3409Y-0.1531
X0.3409Y-0.3441
T5
X0.5878Y-0.5114
T7
X0.1783Y0.0976
X0.2783Y0.0976
X0.3783Y0.0976
X0.4783Y0.0976
X0.678Y0.0972
X0.678Y-0.5941
X0.778Y0.0972
X0.778Y-0.5941
X0.878Y0.0972
X0.878Y-0.5941
X0.978Y0.0972
X0.978Y-0.5941
X1.078Y0.0972
X1.078Y-0.5941
X1.178Y0.0972
X1.178Y-0.5941
X1.278Y0.0972
X1.278Y-0.5941
X1.378Y0.0972
X1.378Y-0.5941
X1.478Y0.0972
X1.478Y-0.5941
X1.578Y0.0972
X1.578Y-0.5941
X1.678Y0.0972
X1.678Y-0.5941
X1.778Y0.0972
X1.778Y-0.5941
X1.878Y0.0972
X1.878Y-0.5941
X1.978Y0.0972
X1.978Y-0.5941
X2.078Y0.0972
X2.078Y-0.5941
T8
X0.0752Y0.0626
X0.0752Y-0.5594
X0.5772Y0.0972
X2.1709Y0.0953
X2.1709Y-0.5933
T9
X0.2263Y-0.1362
X0.2263Y-0.3638
T6
G00X0.0984Y-0.0797
M15
G01X0.063Y-0.0797
M16
G05
G00X0.0984Y-0.4203
M15
G01X0.063Y-0.4203
M16
G05
G00X0.2696Y-0.0797
M15
G01X0.2224Y-0.0797
M16
G05
G00X0.2696Y-0.4203
M15
G01X0.2224Y-0.4203
M16
G05
T0
M30
